G04 #@! TF.GenerationSoftware,KiCad,Pcbnew,(5.1.7)-1*
G04 #@! TF.CreationDate,2020-11-04T19:15:34+01:00*
G04 #@! TF.ProjectId,generic_node,67656e65-7269-4635-9f6e-6f64652e6b69,2.0.2*
G04 #@! TF.SameCoordinates,PX510ff40PY6422c40*
G04 #@! TF.FileFunction,Other,Fab,Top*
%FSLAX46Y46*%
G04 Gerber Fmt 4.6, Leading zero omitted, Abs format (unit mm)*
G04 Created by KiCad (PCBNEW (5.1.7)-1) date 2020-11-04 19:15:34*
%MOMM*%
%LPD*%
G01*
G04 APERTURE LIST*
%ADD10C,0.100000*%
%ADD11C,0.200000*%
%ADD12C,0.120000*%
%ADD13C,0.150000*%
G04 APERTURE END LIST*
D10*
X-127964Y11830000D02*
G75*
G03*
X-127964Y11830000I-222036J0D01*
G01*
X1841421Y-20216102D02*
G75*
G03*
X1841421Y-20216102I-141421J0D01*
G01*
X6000000Y13500000D02*
X10000000Y13500000D01*
X6000000Y17500000D02*
X6000000Y13500000D01*
X-10000000Y17500000D02*
X-10000000Y-12500000D01*
X-10000000Y-12500000D02*
X10000000Y-12500000D01*
X10000000Y-12500000D02*
X10000000Y13500000D01*
X6000000Y17500000D02*
X-10000000Y17500000D01*
X3500000Y27500000D02*
X3500000Y30500000D01*
X-3500000Y27500000D02*
X3500000Y27500000D01*
X-3500000Y30000000D02*
X-3500000Y27500000D01*
X-3000000Y30500000D02*
X-3500000Y30000000D01*
X3500000Y30500000D02*
X-3000000Y30500000D01*
X-12553000Y-11954000D02*
X-12553000Y-11414000D01*
X-12553000Y-11414000D02*
X-11503000Y-11414000D01*
X-11503000Y-11414000D02*
X-11503000Y-11954000D01*
X-11503000Y-11954000D02*
X-12553000Y-11954000D01*
X-1619000Y5237000D02*
X-1619000Y7037000D01*
X-219000Y7037000D02*
X-1619000Y7037000D01*
X-219000Y5737000D02*
X-219000Y7037000D01*
X-719000Y5237000D02*
X-1619000Y5237000D01*
X-719000Y5237000D02*
X-219000Y5737000D01*
D11*
X-350000Y12900000D02*
X-1450000Y12900000D01*
X-1450000Y12900000D02*
X-1450000Y11800000D01*
X-1450000Y11800000D02*
X-350000Y11800000D01*
X-350000Y11800000D02*
X-350000Y12900000D01*
D10*
X3620000Y-6908500D02*
X-2380000Y-6908500D01*
X-2380000Y-6908500D02*
X-2380000Y91500D01*
X-2380000Y91500D02*
X4620000Y91500D01*
X4620000Y91500D02*
X4620000Y-5908500D01*
X4620000Y-5908500D02*
X3620000Y-6908500D01*
X1705500Y-17922500D02*
X-5500Y-17922500D01*
X1705500Y-20237500D02*
X-5500Y-20237500D01*
X1705500Y-20237500D02*
X1705500Y-17922500D01*
X-5500Y-20237500D02*
X-5500Y-17922500D01*
X8600000Y-15150000D02*
X9250000Y-14500000D01*
X10400000Y-14500000D02*
X9250000Y-14500000D01*
X8600000Y-15150000D02*
X8600000Y-17600000D01*
X10400000Y-17600000D02*
X8600000Y-17600000D01*
X10400000Y-14500000D02*
X10400000Y-17600000D01*
X-4050000Y-15050000D02*
X-6500000Y-15050000D01*
X-3480000Y-15600000D02*
X-3480000Y-16450000D01*
X-4050000Y-15050000D02*
X-3480000Y-15600000D01*
X-3480000Y-16450000D02*
X-6520000Y-16450000D01*
X-6520000Y-15050000D02*
X-6520000Y-16450000D01*
X13000000Y16000000D02*
X13500000Y16000000D01*
X13500000Y16000000D02*
X13500000Y15000000D01*
X13500000Y15000000D02*
X13000000Y15000000D01*
X13000000Y15000000D02*
X13000000Y16000000D01*
X-11493000Y-10435000D02*
X-11493000Y-10975000D01*
X-11493000Y-10975000D02*
X-12543000Y-10975000D01*
X-12543000Y-10975000D02*
X-12543000Y-10435000D01*
X-12543000Y-10435000D02*
X-11493000Y-10435000D01*
X14969000Y17399000D02*
X16544000Y17399000D01*
X16544000Y17399000D02*
X16544000Y14859000D01*
X16544000Y14859000D02*
X14444000Y14859000D01*
X14444000Y14859000D02*
X14444000Y16874000D01*
X14444000Y16874000D02*
X14969000Y17399000D01*
X16510000Y-8890000D02*
X14605000Y-8890000D01*
X14605000Y-8890000D02*
X13970000Y-8255000D01*
X13970000Y-8255000D02*
X13970000Y8890000D01*
X13970000Y8890000D02*
X16510000Y8890000D01*
X16510000Y8890000D02*
X16510000Y-8890000D01*
X3881200Y-8911200D02*
X3881200Y-8411200D01*
X3881200Y-8411200D02*
X4881200Y-8411200D01*
X4881200Y-8411200D02*
X4881200Y-8911200D01*
X4881200Y-8911200D02*
X3881200Y-8911200D01*
X3886000Y-11194800D02*
X3886000Y-10394800D01*
X3886000Y-10394800D02*
X5486000Y-10394800D01*
X5486000Y-10394800D02*
X5486000Y-11194800D01*
X5486000Y-11194800D02*
X3886000Y-11194800D01*
X-2950000Y-6850000D02*
X-2950000Y-7350000D01*
X-2950000Y-7350000D02*
X-3950000Y-7350000D01*
X-3950000Y-7350000D02*
X-3950000Y-6850000D01*
X-3950000Y-6850000D02*
X-2950000Y-6850000D01*
X-406800Y-9937600D02*
X-406800Y-10737600D01*
X-406800Y-10737600D02*
X-2006800Y-10737600D01*
X-2006800Y-10737600D02*
X-2006800Y-9937600D01*
X-2006800Y-9937600D02*
X-406800Y-9937600D01*
X3881200Y-9825600D02*
X3881200Y-9325600D01*
X3881200Y-9325600D02*
X4881200Y-9325600D01*
X4881200Y-9325600D02*
X4881200Y-9825600D01*
X4881200Y-9825600D02*
X3881200Y-9825600D01*
X1350000Y-13850000D02*
X2150000Y-13850000D01*
X2150000Y-13850000D02*
X2150000Y-15450000D01*
X2150000Y-15450000D02*
X1350000Y-15450000D01*
X1350000Y-15450000D02*
X1350000Y-13850000D01*
X-1860000Y-16650000D02*
X-1860000Y-17150000D01*
X-1860000Y-17150000D02*
X-2860000Y-17150000D01*
X-2860000Y-17150000D02*
X-2860000Y-16650000D01*
X-2860000Y-16650000D02*
X-1860000Y-16650000D01*
X-13970000Y8890000D02*
X-13970000Y-8890000D01*
X-16510000Y8890000D02*
X-13970000Y8890000D01*
X-16510000Y-8255000D02*
X-16510000Y8890000D01*
X-15875000Y-8890000D02*
X-16510000Y-8255000D01*
X-13970000Y-8890000D02*
X-15875000Y-8890000D01*
X-15121000Y-13966000D02*
X-16121000Y-13966000D01*
X-15121000Y-13466000D02*
X-15121000Y-13966000D01*
X-16121000Y-13466000D02*
X-15121000Y-13466000D01*
X-16121000Y-13966000D02*
X-16121000Y-13466000D01*
X9165000Y-14150000D02*
X9165000Y-13650000D01*
X9165000Y-13650000D02*
X10165000Y-13650000D01*
X10165000Y-13650000D02*
X10165000Y-14150000D01*
X10165000Y-14150000D02*
X9165000Y-14150000D01*
X-2850000Y-13750000D02*
X-1850000Y-13750000D01*
X-2850000Y-14250000D02*
X-2850000Y-13750000D01*
X-1850000Y-14250000D02*
X-2850000Y-14250000D01*
X-1850000Y-13750000D02*
X-1850000Y-14250000D01*
X750000Y-15700000D02*
X250000Y-15700000D01*
X250000Y-15700000D02*
X250000Y-14700000D01*
X250000Y-14700000D02*
X750000Y-14700000D01*
X750000Y-14700000D02*
X750000Y-15700000D01*
X-700000Y-14700000D02*
X-200000Y-14700000D01*
X-200000Y-14700000D02*
X-200000Y-15700000D01*
X-200000Y-15700000D02*
X-700000Y-15700000D01*
X-700000Y-15700000D02*
X-700000Y-14700000D01*
X-1285000Y-8900000D02*
X-285000Y-8900000D01*
X-1285000Y-9400000D02*
X-1285000Y-8900000D01*
X-285000Y-9400000D02*
X-1285000Y-9400000D01*
X-285000Y-8900000D02*
X-285000Y-9400000D01*
X-4826500Y-2137500D02*
X-5326500Y-2137500D01*
X-5326500Y-2137500D02*
X-5326500Y-1137500D01*
X-5326500Y-1137500D02*
X-4826500Y-1137500D01*
X-4826500Y-1137500D02*
X-4826500Y-2137500D01*
X-3874000Y-2137500D02*
X-4374000Y-2137500D01*
X-4374000Y-2137500D02*
X-4374000Y-1137500D01*
X-4374000Y-1137500D02*
X-3874000Y-1137500D01*
X-3874000Y-1137500D02*
X-3874000Y-2137500D01*
X6050000Y-200000D02*
X6050000Y-1200000D01*
X5550000Y-200000D02*
X6050000Y-200000D01*
X5550000Y-1200000D02*
X5550000Y-200000D01*
X6050000Y-1200000D02*
X5550000Y-1200000D01*
X-5160000Y975000D02*
X-4160000Y975000D01*
X-5160000Y475000D02*
X-5160000Y975000D01*
X-4160000Y475000D02*
X-5160000Y475000D01*
X-4160000Y975000D02*
X-4160000Y475000D01*
X-450000Y4481000D02*
X550000Y4481000D01*
X-450000Y3981000D02*
X-450000Y4481000D01*
X550000Y3981000D02*
X-450000Y3981000D01*
X550000Y4481000D02*
X550000Y3981000D01*
X-8390500Y-7095000D02*
X-8390500Y-6095000D01*
X-7890500Y-7095000D02*
X-8390500Y-7095000D01*
X-7890500Y-6095000D02*
X-7890500Y-7095000D01*
X-8390500Y-6095000D02*
X-7890500Y-6095000D01*
X-2975000Y12825000D02*
X-2975000Y11825000D01*
X-3475000Y12825000D02*
X-2975000Y12825000D01*
X-3475000Y11825000D02*
X-3475000Y12825000D01*
X-2975000Y11825000D02*
X-3475000Y11825000D01*
X-7181900Y-3845700D02*
X-7181900Y-4345700D01*
X-7181900Y-4345700D02*
X-8181900Y-4345700D01*
X-8181900Y-4345700D02*
X-8181900Y-3845700D01*
X-8181900Y-3845700D02*
X-7181900Y-3845700D01*
X1725000Y9050000D02*
X1725000Y8050000D01*
X1225000Y9050000D02*
X1725000Y9050000D01*
X1225000Y8050000D02*
X1225000Y9050000D01*
X1725000Y8050000D02*
X1225000Y8050000D01*
X2420000Y6845000D02*
X1420000Y6845000D01*
X2420000Y7345000D02*
X2420000Y6845000D01*
X1420000Y7345000D02*
X2420000Y7345000D01*
X1420000Y6845000D02*
X1420000Y7345000D01*
X-4190000Y7350000D02*
X-3190000Y7350000D01*
X-4190000Y6850000D02*
X-4190000Y7350000D01*
X-3190000Y6850000D02*
X-4190000Y6850000D01*
X-3190000Y7350000D02*
X-3190000Y6850000D01*
X-3925000Y10950000D02*
X-3925000Y9950000D01*
X-4425000Y10950000D02*
X-3925000Y10950000D01*
X-4425000Y9950000D02*
X-4425000Y10950000D01*
X-3925000Y9950000D02*
X-4425000Y9950000D01*
X2650000Y9950000D02*
X2150000Y9950000D01*
X2150000Y9950000D02*
X2150000Y10950000D01*
X2150000Y10950000D02*
X2650000Y10950000D01*
X2650000Y10950000D02*
X2650000Y9950000D01*
X-2975000Y4190000D02*
X-3475000Y4190000D01*
X-3475000Y4190000D02*
X-3475000Y5190000D01*
X-3475000Y5190000D02*
X-2975000Y5190000D01*
X-2975000Y5190000D02*
X-2975000Y4190000D01*
X1225000Y4200000D02*
X1225000Y5200000D01*
X1725000Y4200000D02*
X1225000Y4200000D01*
X1725000Y5200000D02*
X1725000Y4200000D01*
X1225000Y5200000D02*
X1725000Y5200000D01*
X-4887437Y-11228858D02*
X-4887437Y-11728858D01*
X-4887437Y-11728858D02*
X-5887437Y-11728858D01*
X-5887437Y-11728858D02*
X-5887437Y-11228858D01*
X-5887437Y-11228858D02*
X-4887437Y-11228858D01*
X1725000Y12825000D02*
X1725000Y11825000D01*
X1225000Y12825000D02*
X1725000Y12825000D01*
X1225000Y11825000D02*
X1225000Y12825000D01*
X1725000Y11825000D02*
X1225000Y11825000D01*
X8150000Y8400000D02*
X8150000Y9400000D01*
X8650000Y8400000D02*
X8150000Y8400000D01*
X8650000Y9400000D02*
X8650000Y8400000D01*
X8150000Y9400000D02*
X8650000Y9400000D01*
X7150000Y8400000D02*
X7150000Y9400000D01*
X7650000Y8400000D02*
X7150000Y8400000D01*
X7650000Y9400000D02*
X7650000Y8400000D01*
X7150000Y9400000D02*
X7650000Y9400000D01*
X-1360000Y10500000D02*
X-360000Y10500000D01*
X-1360000Y10000000D02*
X-1360000Y10500000D01*
X-360000Y10000000D02*
X-1360000Y10000000D01*
X-360000Y10500000D02*
X-360000Y10000000D01*
X-3048959Y-11728858D02*
X-4048959Y-11728858D01*
X-3048959Y-11228858D02*
X-3048959Y-11728858D01*
X-4048959Y-11228858D02*
X-3048959Y-11228858D01*
X-4048959Y-11728858D02*
X-4048959Y-11228858D01*
X-250000Y9370000D02*
X-250000Y8370000D01*
X-750000Y9370000D02*
X-250000Y9370000D01*
X-750000Y8370000D02*
X-750000Y9370000D01*
X-250000Y8370000D02*
X-750000Y8370000D01*
X12696000Y10041000D02*
X12196000Y10041000D01*
X12196000Y10041000D02*
X12196000Y11041000D01*
X12196000Y11041000D02*
X12696000Y11041000D01*
X12696000Y11041000D02*
X12696000Y10041000D01*
X-2975000Y8050000D02*
X-3475000Y8050000D01*
X-3475000Y8050000D02*
X-3475000Y9050000D01*
X-3475000Y9050000D02*
X-2975000Y9050000D01*
X-2975000Y9050000D02*
X-2975000Y8050000D01*
X1225000Y10950000D02*
X1725000Y10950000D01*
X1725000Y10950000D02*
X1725000Y9950000D01*
X1725000Y9950000D02*
X1225000Y9950000D01*
X1225000Y9950000D02*
X1225000Y10950000D01*
X-3475000Y10940000D02*
X-2975000Y10940000D01*
X-2975000Y10940000D02*
X-2975000Y9940000D01*
X-2975000Y9940000D02*
X-3475000Y9940000D01*
X-3475000Y9940000D02*
X-3475000Y10940000D01*
X-5162500Y-508000D02*
X-5162500Y-8000D01*
X-5162500Y-8000D02*
X-4162500Y-8000D01*
X-4162500Y-8000D02*
X-4162500Y-508000D01*
X-4162500Y-508000D02*
X-5162500Y-508000D01*
X1390300Y-10578800D02*
X590300Y-10578800D01*
X590300Y-10578800D02*
X590300Y-8978800D01*
X590300Y-8978800D02*
X1390300Y-8978800D01*
X1390300Y-8978800D02*
X1390300Y-10578800D01*
X-6750000Y-28000000D02*
G75*
G03*
X-6750000Y-28000000I-750000J0D01*
G01*
X-7179500Y-4810900D02*
X-7179500Y-5310900D01*
X-7179500Y-5310900D02*
X-8179500Y-5310900D01*
X-8179500Y-5310900D02*
X-8179500Y-4810900D01*
X-8179500Y-4810900D02*
X-7179500Y-4810900D01*
X-3925000Y4175000D02*
X-4425000Y4175000D01*
X-4425000Y4175000D02*
X-4425000Y5175000D01*
X-4425000Y5175000D02*
X-3925000Y5175000D01*
X-3925000Y5175000D02*
X-3925000Y4175000D01*
X3711066Y4005305D02*
X3711066Y4505305D01*
X3711066Y4505305D02*
X4711066Y4505305D01*
X4711066Y4505305D02*
X4711066Y4005305D01*
X4711066Y4005305D02*
X3711066Y4005305D01*
X2439999Y5850000D02*
X1439999Y5850000D01*
X2439999Y6350000D02*
X2439999Y5850000D01*
X1439999Y6350000D02*
X2439999Y6350000D01*
X1439999Y5850000D02*
X1439999Y6350000D01*
X-3190000Y6350000D02*
X-3190000Y5850000D01*
X-3190000Y5850000D02*
X-4190000Y5850000D01*
X-4190000Y5850000D02*
X-4190000Y6350000D01*
X-4190000Y6350000D02*
X-3190000Y6350000D01*
X-3925000Y9050000D02*
X-3925000Y8050000D01*
X-4425000Y9050000D02*
X-3925000Y9050000D01*
X-4425000Y8050000D02*
X-4425000Y9050000D01*
X-3925000Y8050000D02*
X-4425000Y8050000D01*
X2650000Y8050000D02*
X2150000Y8050000D01*
X2150000Y8050000D02*
X2150000Y9050000D01*
X2150000Y9050000D02*
X2650000Y9050000D01*
X2650000Y9050000D02*
X2650000Y8050000D01*
X-3925000Y11825000D02*
X-4425000Y11825000D01*
X-4425000Y11825000D02*
X-4425000Y12825000D01*
X-4425000Y12825000D02*
X-3925000Y12825000D01*
X-3925000Y12825000D02*
X-3925000Y11825000D01*
X2650000Y12825000D02*
X2650000Y11825000D01*
X2150000Y12825000D02*
X2650000Y12825000D01*
X2150000Y11825000D02*
X2150000Y12825000D01*
X2650000Y11825000D02*
X2150000Y11825000D01*
X11650000Y-23800000D02*
X9200000Y-23800000D01*
X12220000Y-24350000D02*
X12220000Y-25200000D01*
X11650000Y-23800000D02*
X12220000Y-24350000D01*
X12220000Y-25200000D02*
X9180000Y-25200000D01*
X9180000Y-23800000D02*
X9180000Y-25200000D01*
X-9310000Y-25570000D02*
X-9310000Y-24720000D01*
X-9810000Y-24220000D02*
X-11510000Y-24220000D01*
X-9310000Y-25570000D02*
X-11510000Y-25570000D01*
X-11510000Y-25570000D02*
X-11510000Y-24220000D01*
X-9310000Y-24720000D02*
X-9810000Y-24220000D01*
X-14216000Y-13966000D02*
X-14216000Y-13466000D01*
X-14216000Y-13466000D02*
X-13216000Y-13466000D01*
X-13216000Y-13466000D02*
X-13216000Y-13966000D01*
X-13216000Y-13966000D02*
X-14216000Y-13966000D01*
X-1850000Y-15300000D02*
X-2850000Y-15300000D01*
X-1850000Y-14800000D02*
X-1850000Y-15300000D01*
X-2850000Y-14800000D02*
X-1850000Y-14800000D01*
X-2850000Y-15300000D02*
X-2850000Y-14800000D01*
X9050000Y-18150000D02*
X10050000Y-18150000D01*
X9050000Y-18650000D02*
X9050000Y-18150000D01*
X10050000Y-18650000D02*
X9050000Y-18650000D01*
X10050000Y-18150000D02*
X10050000Y-18650000D01*
X7210000Y7005000D02*
X7710000Y7005000D01*
X7710000Y7005000D02*
X7710000Y6005000D01*
X7710000Y6005000D02*
X7210000Y6005000D01*
X7210000Y6005000D02*
X7210000Y7005000D01*
X8150000Y6000000D02*
X8150000Y7000000D01*
X8650000Y6000000D02*
X8150000Y6000000D01*
X8650000Y7000000D02*
X8650000Y6000000D01*
X8150000Y7000000D02*
X8650000Y7000000D01*
X7400000Y11050000D02*
X8400000Y11050000D01*
X7400000Y10550000D02*
X7400000Y11050000D01*
X8400000Y10550000D02*
X7400000Y10550000D01*
X8400000Y11050000D02*
X8400000Y10550000D01*
X-1763277Y14869724D02*
X-1409724Y15223277D01*
X-1409724Y15223277D02*
X-702617Y14516170D01*
X-702617Y14516170D02*
X-1056170Y14162617D01*
X-1056170Y14162617D02*
X-1763277Y14869724D01*
X-16282000Y-10421000D02*
X-13182000Y-10421000D01*
X-13182000Y-10421000D02*
X-13182000Y-12221000D01*
X-15632000Y-12221000D02*
X-13182000Y-12221000D01*
X-16282000Y-10421000D02*
X-16282000Y-11571000D01*
X-15632000Y-12221000D02*
X-16282000Y-11571000D01*
X-7430300Y-3114500D02*
X-6930300Y-2614500D01*
X-8430300Y-3114500D02*
X-8530300Y-3014500D01*
X-7030300Y-3114500D02*
X-8430300Y-3114500D01*
X-6930300Y-3014500D02*
X-7030300Y-3114500D01*
X-6930300Y-1214500D02*
X-6930300Y-3014500D01*
X-7030300Y-1114500D02*
X-6930300Y-1214500D01*
X-8430300Y-1114500D02*
X-7030300Y-1114500D01*
X-8530300Y-1214500D02*
X-8430300Y-1114500D01*
X-8530300Y-3014500D02*
X-8530300Y-1214500D01*
X6970000Y-26030000D02*
X6970000Y-29230000D01*
X5370000Y-26030000D02*
X6970000Y-26030000D01*
X5370000Y-29230000D02*
X5370000Y-26030000D01*
X6970000Y-29230000D02*
X5370000Y-29230000D01*
X10115000Y-27620000D02*
X11115000Y-27620000D01*
X10115000Y-28120000D02*
X10115000Y-27620000D01*
X11115000Y-28120000D02*
X10115000Y-28120000D01*
X11115000Y-27620000D02*
X11115000Y-28120000D01*
X-2130000Y-20170000D02*
X-5330000Y-20170000D01*
X-2130000Y-18570000D02*
X-2130000Y-20170000D01*
X-5330000Y-18570000D02*
X-2130000Y-18570000D01*
X-5330000Y-20170000D02*
X-5330000Y-18570000D01*
X-5330000Y-22340000D02*
X-5330000Y-20740000D01*
X-5330000Y-20740000D02*
X-2130000Y-20740000D01*
X-2130000Y-20740000D02*
X-2130000Y-22340000D01*
X-2130000Y-22340000D02*
X-5330000Y-22340000D01*
X-4135000Y-2800000D02*
X-4135000Y-3300000D01*
X-4135000Y-3300000D02*
X-5135000Y-3300000D01*
X-5135000Y-3300000D02*
X-5135000Y-2800000D01*
X-5135000Y-2800000D02*
X-4135000Y-2800000D01*
X-7420000Y-24020000D02*
X-7420000Y-25820000D01*
X-7420000Y-25820000D02*
X-8820000Y-25820000D01*
X-8820000Y-25820000D02*
X-8820000Y-24020000D01*
X-8820000Y-24020000D02*
X-7420000Y-24020000D01*
X-7770000Y-24620000D02*
X-8470000Y-24620000D01*
X-8120000Y-24620000D02*
X-8120000Y-24420000D01*
X-8120000Y-24620000D02*
X-7770000Y-25120000D01*
X-7770000Y-25120000D02*
X-8470000Y-25120000D01*
X-8470000Y-25120000D02*
X-8120000Y-24620000D01*
X-8120000Y-25120000D02*
X-8120000Y-25370000D01*
X7995000Y-24480000D02*
X4795000Y-24480000D01*
X7995000Y-21980000D02*
X7995000Y-24480000D01*
X4795000Y-21980000D02*
X7995000Y-21980000D01*
X4795000Y-24480000D02*
X4795000Y-21980000D01*
X11105000Y-27020000D02*
X10105000Y-27020000D01*
X11105000Y-26520000D02*
X11105000Y-27020000D01*
X10105000Y-26520000D02*
X11105000Y-26520000D01*
X10105000Y-27020000D02*
X10105000Y-26520000D01*
X-6500000Y-25500000D02*
X-5500000Y-25500000D01*
X-6500000Y-26000000D02*
X-6500000Y-25500000D01*
X-5500000Y-26000000D02*
X-6500000Y-26000000D01*
X-5500000Y-25500000D02*
X-5500000Y-26000000D01*
X-5500000Y-24000000D02*
X-5500000Y-24500000D01*
X-5500000Y-24500000D02*
X-6500000Y-24500000D01*
X-6500000Y-24500000D02*
X-6500000Y-24000000D01*
X-6500000Y-24000000D02*
X-5500000Y-24000000D01*
X-2860000Y-17550000D02*
X-1860000Y-17550000D01*
X-2860000Y-18050000D02*
X-2860000Y-17550000D01*
X-1860000Y-18050000D02*
X-2860000Y-18050000D01*
X-1860000Y-17550000D02*
X-1860000Y-18050000D01*
X2050800Y-8978800D02*
X2850800Y-8978800D01*
X2850800Y-8978800D02*
X2850800Y-10578800D01*
X2850800Y-10578800D02*
X2050800Y-10578800D01*
X2050800Y-10578800D02*
X2050800Y-8978800D01*
X-7390000Y-7070000D02*
X-7390000Y-6070000D01*
X-6890000Y-7070000D02*
X-7390000Y-7070000D01*
X-6890000Y-6070000D02*
X-6890000Y-7070000D01*
X-7390000Y-6070000D02*
X-6890000Y-6070000D01*
X-1289000Y4471000D02*
X-1289000Y3971000D01*
X-1289000Y3971000D02*
X-2289000Y3971000D01*
X-2289000Y3971000D02*
X-2289000Y4471000D01*
X-2289000Y4471000D02*
X-1289000Y4471000D01*
X8500000Y-10400000D02*
X8500000Y-11200000D01*
X8500000Y-11200000D02*
X6900000Y-11200000D01*
X6900000Y-11200000D02*
X6900000Y-10400000D01*
X6900000Y-10400000D02*
X8500000Y-10400000D01*
X3473266Y5173305D02*
X3473266Y6173305D01*
X3973266Y5173305D02*
X3473266Y5173305D01*
X3973266Y6173305D02*
X3973266Y5173305D01*
X3473266Y6173305D02*
X3973266Y6173305D01*
X4938467Y6173305D02*
X4938467Y5173305D01*
X4438467Y6173305D02*
X4938467Y6173305D01*
X4438467Y5173305D02*
X4438467Y6173305D01*
X4938467Y5173305D02*
X4438467Y5173305D01*
X8220000Y-28130000D02*
X8220000Y-28380000D01*
X7870000Y-28130000D02*
X8220000Y-27630000D01*
X8570000Y-28130000D02*
X7870000Y-28130000D01*
X8220000Y-27630000D02*
X8570000Y-28130000D01*
X8220000Y-27630000D02*
X8220000Y-27430000D01*
X8570000Y-27630000D02*
X7870000Y-27630000D01*
X7520000Y-27030000D02*
X8920000Y-27030000D01*
X7520000Y-28830000D02*
X7520000Y-27030000D01*
X8920000Y-28830000D02*
X7520000Y-28830000D01*
X8920000Y-27030000D02*
X8920000Y-28830000D01*
X12746000Y12846000D02*
X12746000Y12046000D01*
X12746000Y12046000D02*
X12146000Y12046000D01*
X12146000Y12046000D02*
X12146000Y12846000D01*
X12146000Y12846000D02*
X12746000Y12846000D01*
X12646000Y12296000D02*
X12246000Y12296000D01*
X12446000Y12296000D02*
X12446000Y12196000D01*
X12446000Y12296000D02*
X12646000Y12596000D01*
X12646000Y12596000D02*
X12246000Y12596000D01*
X12246000Y12596000D02*
X12446000Y12296000D01*
X12446000Y12596000D02*
X12446000Y12696000D01*
D12*
X-2250000Y17850000D02*
X-2250000Y17150000D01*
X2250000Y17850000D02*
X2250000Y17150000D01*
X-2250000Y17850000D02*
X2250000Y17850000D01*
X-2250000Y17150000D02*
X2250000Y17150000D01*
X-10350000Y250000D02*
X-9650000Y250000D01*
X-10350000Y4750000D02*
X-9650000Y4750000D01*
X-10350000Y250000D02*
X-10350000Y4750000D01*
X-9650000Y250000D02*
X-9650000Y4750000D01*
X-2250000Y-12840000D02*
X2250000Y-12840000D01*
X-2250000Y-12140000D02*
X2250000Y-12140000D01*
X2250000Y-12140000D02*
X2250000Y-12840000D01*
X-2250000Y-12140000D02*
X-2250000Y-12840000D01*
X10350000Y250000D02*
X10350000Y4750000D01*
X9650000Y250000D02*
X9650000Y4750000D01*
X9650000Y4750000D02*
X10350000Y4750000D01*
X9650000Y250000D02*
X10350000Y250000D01*
D10*
X-12675000Y14100000D02*
X-12525000Y14250000D01*
X-15375000Y13100000D02*
X-14975000Y13100000D01*
X-14975000Y12900000D02*
X-14975000Y13100000D01*
X-13175000Y12900000D02*
X-14975000Y12900000D01*
X-15375000Y13100000D02*
X-15375000Y15700000D01*
X-15375000Y15700000D02*
X-14975000Y15700000D01*
X-14975000Y15900000D02*
X-14975000Y15700000D01*
X-13175000Y15900000D02*
X-14975000Y15900000D01*
X-13175000Y13100000D02*
X-12775000Y13100000D01*
X-13175000Y12900000D02*
X-13175000Y13100000D01*
X-12775000Y14100000D02*
X-12775000Y13100000D01*
X-12675000Y14100000D02*
X-12775000Y14100000D01*
X-12525000Y14700000D02*
X-12525000Y14250000D01*
X-12525000Y14700000D02*
X-12775000Y14700000D01*
X-12775000Y14700000D02*
X-12775000Y15700000D01*
X-13175000Y15700000D02*
X-12775000Y15700000D01*
X-13175000Y15900000D02*
X-13175000Y15700000D01*
X7050000Y-17900000D02*
X7050000Y-20300000D01*
X6300000Y-21050000D02*
X3900000Y-21050000D01*
X3150000Y-20300000D02*
X3150000Y-17900000D01*
X3900000Y-17150000D02*
X6300000Y-17150000D01*
X3150000Y-20300000D02*
X3900000Y-21050000D01*
X3900000Y-17150000D02*
X3150000Y-17900000D01*
X6300000Y-17150000D02*
X7050000Y-17890000D01*
X7050000Y-20300000D02*
X6300000Y-21050000D01*
X2650000Y4200000D02*
X2150000Y4200000D01*
X2150000Y4200000D02*
X2150000Y5200000D01*
X2150000Y5200000D02*
X2650000Y5200000D01*
X2650000Y5200000D02*
X2650000Y4200000D01*
X6500000Y-9450000D02*
X6500000Y-8550000D01*
X6500000Y-8550000D02*
X8500000Y-8550000D01*
X8500000Y-8550000D02*
X8500000Y-9450000D01*
X8500000Y-9450000D02*
X6500000Y-9450000D01*
D12*
X-8100000Y-14750000D02*
X-15600000Y-14750000D01*
X-8100000Y-14750000D02*
X-8100000Y-22250000D01*
X-15600000Y-14750000D02*
X-15600000Y-21000000D01*
X-8100000Y-22250000D02*
X-14350000Y-22250000D01*
X-15600000Y-21000000D02*
X-14350000Y-22250000D01*
D10*
G36*
X-14850000Y-18500000D02*
G01*
X-13850000Y-17500000D01*
X-13850000Y-19500000D01*
X-14850000Y-18500000D01*
G37*
X-14850000Y-18500000D02*
X-13850000Y-17500000D01*
X-13850000Y-19500000D01*
X-14850000Y-18500000D01*
G36*
X-15600000Y-14750000D02*
G01*
X-14350000Y-14750000D01*
X-15600000Y-16000000D01*
X-15600000Y-14750000D01*
G37*
X-15600000Y-14750000D02*
X-14350000Y-14750000D01*
X-15600000Y-16000000D01*
X-15600000Y-14750000D01*
G36*
X-8100000Y-14750000D02*
G01*
X-8100000Y-16000000D01*
X-9350000Y-14750000D01*
X-8100000Y-14750000D01*
G37*
X-8100000Y-14750000D02*
X-8100000Y-16000000D01*
X-9350000Y-14750000D01*
X-8100000Y-14750000D01*
G36*
X-8100000Y-22250000D02*
G01*
X-9350000Y-22250000D01*
X-8100000Y-21000000D01*
X-8100000Y-22250000D01*
G37*
X-8100000Y-22250000D02*
X-9350000Y-22250000D01*
X-8100000Y-21000000D01*
X-8100000Y-22250000D01*
D12*
X-8600000Y-20200000D02*
G75*
G03*
X-8600000Y-20200000I-500000J0D01*
G01*
D10*
X-7116000Y167500D02*
X-7116000Y-332500D01*
X-7116000Y-332500D02*
X-8116000Y-332500D01*
X-8116000Y-332500D02*
X-8116000Y167500D01*
X-8116000Y167500D02*
X-7116000Y167500D01*
X-3449877Y-10797067D02*
X-3449877Y-9597067D01*
X-3449877Y-9597067D02*
X-5499877Y-9597067D01*
X-5499877Y-9597067D02*
X-5499877Y-10797067D01*
X-5499877Y-10797067D02*
X-3449877Y-10797067D01*
X-3474877Y-10097067D02*
X-3974877Y-9597067D01*
X1000000Y-26207107D02*
X500000Y-25500000D01*
X1500000Y-25500000D02*
X1000000Y-26207107D01*
X-1250000Y-29000000D02*
X-750000Y-29000000D01*
X-1250000Y-28500000D02*
X-1250000Y-29000000D01*
X-750000Y-28500000D02*
X-1250000Y-28500000D01*
X-750000Y-29000000D02*
X-750000Y-28500000D01*
X750000Y-29000000D02*
X1250000Y-29000000D01*
X750000Y-28500000D02*
X750000Y-29000000D01*
X1250000Y-28500000D02*
X750000Y-28500000D01*
X1250000Y-29000000D02*
X1250000Y-28500000D01*
X-3975000Y-25500000D02*
X-3975000Y-30500000D01*
X3975000Y-25500000D02*
X3975000Y-30500000D01*
X3975000Y-30500000D02*
X-3975000Y-30500000D01*
X3975000Y-25500000D02*
X-3975000Y-25500000D01*
X16445000Y13190000D02*
X16445000Y9790000D01*
X16445000Y9790000D02*
X13445000Y9790000D01*
X13445000Y9790000D02*
X13445000Y13190000D01*
X13445000Y13190000D02*
X16445000Y13190000D01*
X15845000Y11490000D02*
G75*
G03*
X15845000Y11490000I-900000J0D01*
G01*
X-11600000Y18250000D02*
G75*
G03*
X-11600000Y18250000I-750000J0D01*
G01*
X13600000Y-12000000D02*
X13600000Y-18000000D01*
X16500000Y-12000000D02*
X16500000Y-18000000D01*
X13600000Y-12000000D02*
X16500000Y-12000000D01*
X13600000Y-18000000D02*
X16500000Y-18000000D01*
X16150000Y-13350000D02*
X15550000Y-13350000D01*
X15550000Y-13350000D02*
X15550000Y-13650000D01*
X15550000Y-13650000D02*
X16150000Y-13650000D01*
X16150000Y-13650000D02*
X16150000Y-13350000D01*
X16150000Y-14350000D02*
X15550000Y-14350000D01*
X15550000Y-14350000D02*
X15550000Y-14650000D01*
X15550000Y-14650000D02*
X16150000Y-14650000D01*
X16150000Y-14650000D02*
X16150000Y-14350000D01*
X16150000Y-15350000D02*
X15550000Y-15350000D01*
X15550000Y-15350000D02*
X15550000Y-15650000D01*
X15550000Y-15650000D02*
X16150000Y-15650000D01*
X16150000Y-15650000D02*
X16150000Y-15350000D01*
X16150000Y-16350000D02*
X15550000Y-16350000D01*
X15550000Y-16350000D02*
X15550000Y-16650000D01*
X15550000Y-16650000D02*
X16150000Y-16650000D01*
X16150000Y-16650000D02*
X16150000Y-16350000D01*
X13600000Y-13000000D02*
X14307107Y-13500000D01*
X14307107Y-13500000D02*
X13600000Y-14000000D01*
X13400000Y18250000D02*
G75*
G03*
X13400000Y18250000I-750000J0D01*
G01*
X-349688Y15272150D02*
X32150Y14890312D01*
X32150Y14890312D02*
X-710312Y14147850D01*
X-710312Y14147850D02*
X-1092150Y14529688D01*
X-1092150Y14529688D02*
X-349688Y15272150D01*
X7150000Y15570000D02*
X7150000Y16570000D01*
X7650000Y15570000D02*
X7150000Y15570000D01*
X7650000Y16570000D02*
X7650000Y15570000D01*
X7150000Y16570000D02*
X7650000Y16570000D01*
X6750000Y14605000D02*
X6250000Y14605000D01*
X6250000Y14605000D02*
X6250000Y15605000D01*
X6250000Y15605000D02*
X6750000Y15605000D01*
X6750000Y15605000D02*
X6750000Y14605000D01*
X7650000Y18375000D02*
X7150000Y18375000D01*
X7150000Y18375000D02*
X7150000Y19375000D01*
X7150000Y19375000D02*
X7650000Y19375000D01*
X7650000Y19375000D02*
X7650000Y18375000D01*
X7390000Y17730000D02*
X8390000Y17730000D01*
X7390000Y17230000D02*
X7390000Y17730000D01*
X8390000Y17230000D02*
X7390000Y17230000D01*
X8390000Y17730000D02*
X8390000Y17230000D01*
D13*
X-333334Y3047620D02*
X-333334Y2333334D01*
X-380953Y2190477D01*
X-476191Y2095239D01*
X-619048Y2047620D01*
X-714286Y2047620D01*
X571428Y2714286D02*
X571428Y2047620D01*
X333333Y3095239D02*
X95238Y2380953D01*
X714285Y2380953D01*
D10*
X-495625Y28933334D02*
X-305149Y28933334D01*
X-548006Y28819048D02*
X-364673Y29219048D01*
X-281340Y28819048D01*
X-121816Y29028572D02*
X11517Y29028572D01*
X42470Y28819048D02*
X-148006Y28819048D01*
X-98006Y29219048D01*
X92470Y29219048D01*
X423422Y28819048D02*
X194851Y28819048D01*
X309136Y28819048D02*
X359136Y29219048D01*
X313898Y29161905D01*
X271041Y29123810D01*
X230565Y29104762D01*
X-12330387Y-12510952D02*
X-12439911Y-12320476D01*
X-12558959Y-12510952D02*
X-12508959Y-12110952D01*
X-12356578Y-12110952D01*
X-12320864Y-12130000D01*
X-12304197Y-12149047D01*
X-12289911Y-12187142D01*
X-12297054Y-12244285D01*
X-12320864Y-12282380D01*
X-12342292Y-12301428D01*
X-12382768Y-12320476D01*
X-12535149Y-12320476D01*
X-11949435Y-12510952D02*
X-12178006Y-12510952D01*
X-12063721Y-12510952D02*
X-12013721Y-12110952D01*
X-12058959Y-12168095D01*
X-12101816Y-12206190D01*
X-12142292Y-12225238D01*
X-11766102Y-12110952D02*
X-11499435Y-12110952D01*
X-11720864Y-12510952D01*
X-1235306Y6356048D02*
X-1275783Y6032239D01*
X-1261497Y5994143D01*
X-1244830Y5975096D01*
X-1209116Y5956048D01*
X-1132925Y5956048D01*
X-1092449Y5975096D01*
X-1071021Y5994143D01*
X-1047211Y6032239D01*
X-1006735Y6356048D01*
X-644830Y6356048D02*
X-721021Y6356048D01*
X-761497Y6337000D01*
X-782925Y6317953D01*
X-828164Y6260810D01*
X-856735Y6184620D01*
X-875783Y6032239D01*
X-861497Y5994143D01*
X-844830Y5975096D01*
X-809116Y5956048D01*
X-732925Y5956048D01*
X-692449Y5975096D01*
X-671021Y5994143D01*
X-647211Y6032239D01*
X-635306Y6127477D01*
X-649592Y6165572D01*
X-666259Y6184620D01*
X-701973Y6203667D01*
X-778164Y6203667D01*
X-818640Y6184620D01*
X-840068Y6165572D01*
X-863878Y6127477D01*
X-1188006Y12539048D02*
X-1228483Y12215239D01*
X-1214197Y12177143D01*
X-1197530Y12158096D01*
X-1161816Y12139048D01*
X-1085625Y12139048D01*
X-1045149Y12158096D01*
X-1023721Y12177143D01*
X-999911Y12215239D01*
X-959435Y12539048D01*
X-807054Y12539048D02*
X-540387Y12539048D01*
X-761816Y12139048D01*
X821994Y-3189452D02*
X781517Y-3513261D01*
X795803Y-3551357D01*
X812470Y-3570404D01*
X848184Y-3589452D01*
X924375Y-3589452D01*
X964851Y-3570404D01*
X986279Y-3551357D01*
X1010089Y-3513261D01*
X1050565Y-3189452D01*
X1431517Y-3189452D02*
X1241041Y-3189452D01*
X1198184Y-3379928D01*
X1219613Y-3360880D01*
X1260089Y-3341833D01*
X1355327Y-3341833D01*
X1391041Y-3360880D01*
X1407708Y-3379928D01*
X1421994Y-3418023D01*
X1410089Y-3513261D01*
X1386279Y-3551357D01*
X1364851Y-3570404D01*
X1324375Y-3589452D01*
X1229136Y-3589452D01*
X1193422Y-3570404D01*
X1176755Y-3551357D01*
X551994Y-18860952D02*
X511517Y-19184761D01*
X525803Y-19222857D01*
X542470Y-19241904D01*
X578184Y-19260952D01*
X654375Y-19260952D01*
X694851Y-19241904D01*
X716279Y-19222857D01*
X740089Y-19184761D01*
X780565Y-18860952D01*
X1125803Y-18994285D02*
X1092470Y-19260952D01*
X1049613Y-18841904D02*
X918660Y-19127619D01*
X1166279Y-19127619D01*
X9201994Y-15830952D02*
X9161517Y-16154761D01*
X9175803Y-16192857D01*
X9192470Y-16211904D01*
X9228184Y-16230952D01*
X9304375Y-16230952D01*
X9344851Y-16211904D01*
X9366279Y-16192857D01*
X9390089Y-16154761D01*
X9430565Y-15830952D01*
X9582946Y-15830952D02*
X9830565Y-15830952D01*
X9678184Y-15983333D01*
X9735327Y-15983333D01*
X9771041Y-16002380D01*
X9787708Y-16021428D01*
X9801994Y-16059523D01*
X9790089Y-16154761D01*
X9766279Y-16192857D01*
X9744851Y-16211904D01*
X9704375Y-16230952D01*
X9590089Y-16230952D01*
X9554375Y-16211904D01*
X9537708Y-16192857D01*
X-5298006Y-15530952D02*
X-5338483Y-15854761D01*
X-5324197Y-15892857D01*
X-5307530Y-15911904D01*
X-5271816Y-15930952D01*
X-5195625Y-15930952D01*
X-5155149Y-15911904D01*
X-5133721Y-15892857D01*
X-5109911Y-15854761D01*
X-5069435Y-15530952D01*
X-4902768Y-15569047D02*
X-4881340Y-15550000D01*
X-4840864Y-15530952D01*
X-4745625Y-15530952D01*
X-4709911Y-15550000D01*
X-4693245Y-15569047D01*
X-4678959Y-15607142D01*
X-4683721Y-15645238D01*
X-4709911Y-15702380D01*
X-4967054Y-15930952D01*
X-4719435Y-15930952D01*
X12989613Y14469048D02*
X12880089Y14659524D01*
X12761041Y14469048D02*
X12811041Y14869048D01*
X12963422Y14869048D01*
X12999136Y14850000D01*
X13015803Y14830953D01*
X13030089Y14792858D01*
X13022946Y14735715D01*
X12999136Y14697620D01*
X12977708Y14678572D01*
X12937232Y14659524D01*
X12784851Y14659524D01*
X13187232Y14830953D02*
X13208660Y14850000D01*
X13249136Y14869048D01*
X13344375Y14869048D01*
X13380089Y14850000D01*
X13396755Y14830953D01*
X13411041Y14792858D01*
X13406279Y14754762D01*
X13380089Y14697620D01*
X13122946Y14469048D01*
X13370565Y14469048D01*
X13668184Y14869048D02*
X13706279Y14869048D01*
X13741994Y14850000D01*
X13758660Y14830953D01*
X13772946Y14792858D01*
X13782470Y14716667D01*
X13770565Y14621429D01*
X13741994Y14545239D01*
X13718184Y14507143D01*
X13696755Y14488096D01*
X13656279Y14469048D01*
X13618184Y14469048D01*
X13582470Y14488096D01*
X13565803Y14507143D01*
X13551517Y14545239D01*
X13541994Y14621429D01*
X13553898Y14716667D01*
X13582470Y14792858D01*
X13606279Y14830953D01*
X13627708Y14850000D01*
X13668184Y14869048D01*
X-12320387Y-10300952D02*
X-12429911Y-10110476D01*
X-12548959Y-10300952D02*
X-12498959Y-9900952D01*
X-12346578Y-9900952D01*
X-12310864Y-9920000D01*
X-12294197Y-9939047D01*
X-12279911Y-9977142D01*
X-12287054Y-10034285D01*
X-12310864Y-10072380D01*
X-12332292Y-10091428D01*
X-12372768Y-10110476D01*
X-12525149Y-10110476D01*
X-11939435Y-10300952D02*
X-12168006Y-10300952D01*
X-12053721Y-10300952D02*
X-12003721Y-9900952D01*
X-12048959Y-9958095D01*
X-12091816Y-9996190D01*
X-12132292Y-10015238D01*
X-11563245Y-10034285D02*
X-11596578Y-10300952D01*
X-11639435Y-9881904D02*
X-11770387Y-10167619D01*
X-11522768Y-10167619D01*
X15167422Y16348048D02*
X15131708Y16062334D01*
X15105517Y16005191D01*
X15062660Y15967096D01*
X15003136Y15948048D01*
X14965041Y15948048D01*
X15307898Y15948048D02*
X15357898Y16348048D01*
X15510279Y16348048D01*
X15545994Y16329000D01*
X15562660Y16309953D01*
X15576946Y16271858D01*
X15569803Y16214715D01*
X15545994Y16176620D01*
X15524565Y16157572D01*
X15484089Y16138524D01*
X15331708Y16138524D01*
X15948375Y16348048D02*
X15757898Y16348048D01*
X15715041Y16157572D01*
X15736470Y16176620D01*
X15776946Y16195667D01*
X15872184Y16195667D01*
X15907898Y16176620D01*
X15924565Y16157572D01*
X15938851Y16119477D01*
X15926946Y16024239D01*
X15903136Y15986143D01*
X15881708Y15967096D01*
X15841232Y15948048D01*
X15745994Y15948048D01*
X15710279Y15967096D01*
X15693613Y15986143D01*
X15113422Y219048D02*
X15077708Y-66666D01*
X15051517Y-123809D01*
X15008660Y-161904D01*
X14949136Y-180952D01*
X14911041Y-180952D01*
X15272946Y-180952D02*
X15349136Y-180952D01*
X15389613Y-161904D01*
X15411041Y-142857D01*
X15456279Y-85714D01*
X15484851Y-9523D01*
X15503898Y142858D01*
X15489613Y180953D01*
X15472946Y200000D01*
X15437232Y219048D01*
X15361041Y219048D01*
X15320565Y200000D01*
X15299136Y180953D01*
X15275327Y142858D01*
X15263422Y47620D01*
X15277708Y9524D01*
X15294375Y-9523D01*
X15330089Y-28571D01*
X15406279Y-28571D01*
X15446755Y-9523D01*
X15468184Y9524D01*
X15491994Y47620D01*
X5244375Y-8782857D02*
X5222946Y-8801904D01*
X5163422Y-8820952D01*
X5125327Y-8820952D01*
X5070565Y-8801904D01*
X5037232Y-8763809D01*
X5022946Y-8725714D01*
X5013422Y-8649523D01*
X5020565Y-8592380D01*
X5049136Y-8516190D01*
X5072946Y-8478095D01*
X5115803Y-8440000D01*
X5175327Y-8420952D01*
X5213422Y-8420952D01*
X5268184Y-8440000D01*
X5284851Y-8459047D01*
X5437232Y-8459047D02*
X5458660Y-8440000D01*
X5499136Y-8420952D01*
X5594375Y-8420952D01*
X5630089Y-8440000D01*
X5646755Y-8459047D01*
X5661041Y-8497142D01*
X5656279Y-8535238D01*
X5630089Y-8592380D01*
X5372946Y-8820952D01*
X5620565Y-8820952D01*
X5811041Y-8820952D02*
X5887232Y-8820952D01*
X5927708Y-8801904D01*
X5949136Y-8782857D01*
X5994375Y-8725714D01*
X6022946Y-8649523D01*
X6041994Y-8497142D01*
X6027708Y-8459047D01*
X6011041Y-8440000D01*
X5975327Y-8420952D01*
X5899136Y-8420952D01*
X5858660Y-8440000D01*
X5837232Y-8459047D01*
X5813422Y-8497142D01*
X5801517Y-8592380D01*
X5815803Y-8630476D01*
X5832470Y-8649523D01*
X5868184Y-8668571D01*
X5944375Y-8668571D01*
X5984851Y-8649523D01*
X6006279Y-8630476D01*
X6030089Y-8592380D01*
X4390375Y-10937657D02*
X4368946Y-10956704D01*
X4309422Y-10975752D01*
X4271327Y-10975752D01*
X4216565Y-10956704D01*
X4183232Y-10918609D01*
X4168946Y-10880514D01*
X4159422Y-10804323D01*
X4166565Y-10747180D01*
X4195136Y-10670990D01*
X4218946Y-10632895D01*
X4261803Y-10594800D01*
X4321327Y-10575752D01*
X4359422Y-10575752D01*
X4414184Y-10594800D01*
X4430851Y-10613847D01*
X4583232Y-10613847D02*
X4604660Y-10594800D01*
X4645136Y-10575752D01*
X4740375Y-10575752D01*
X4776089Y-10594800D01*
X4792755Y-10613847D01*
X4807041Y-10651942D01*
X4802279Y-10690038D01*
X4776089Y-10747180D01*
X4518946Y-10975752D01*
X4766565Y-10975752D01*
X4949898Y-10575752D02*
X5216565Y-10575752D01*
X4995136Y-10975752D01*
X-3735625Y-7882857D02*
X-3757054Y-7901904D01*
X-3816578Y-7920952D01*
X-3854673Y-7920952D01*
X-3909435Y-7901904D01*
X-3942768Y-7863809D01*
X-3957054Y-7825714D01*
X-3966578Y-7749523D01*
X-3959435Y-7692380D01*
X-3930864Y-7616190D01*
X-3907054Y-7578095D01*
X-3864197Y-7540000D01*
X-3804673Y-7520952D01*
X-3766578Y-7520952D01*
X-3711816Y-7540000D01*
X-3695149Y-7559047D01*
X-3359435Y-7920952D02*
X-3588006Y-7920952D01*
X-3473721Y-7920952D02*
X-3423721Y-7520952D01*
X-3468959Y-7578095D01*
X-3511816Y-7616190D01*
X-3552292Y-7635238D01*
X-2966578Y-7520952D02*
X-3042768Y-7520952D01*
X-3083245Y-7540000D01*
X-3104673Y-7559047D01*
X-3149911Y-7616190D01*
X-3178483Y-7692380D01*
X-3197530Y-7844761D01*
X-3183245Y-7882857D01*
X-3166578Y-7901904D01*
X-3130864Y-7920952D01*
X-3054673Y-7920952D01*
X-3014197Y-7901904D01*
X-2992768Y-7882857D01*
X-2968959Y-7844761D01*
X-2957054Y-7749523D01*
X-2971340Y-7711428D01*
X-2988006Y-7692380D01*
X-3023721Y-7673333D01*
X-3099911Y-7673333D01*
X-3140387Y-7692380D01*
X-3161816Y-7711428D01*
X-3185625Y-7749523D01*
X-1502425Y-10480457D02*
X-1523854Y-10499504D01*
X-1583378Y-10518552D01*
X-1621473Y-10518552D01*
X-1676235Y-10499504D01*
X-1709568Y-10461409D01*
X-1723854Y-10423314D01*
X-1733378Y-10347123D01*
X-1726235Y-10289980D01*
X-1697664Y-10213790D01*
X-1673854Y-10175695D01*
X-1630997Y-10137600D01*
X-1571473Y-10118552D01*
X-1533378Y-10118552D01*
X-1478616Y-10137600D01*
X-1461949Y-10156647D01*
X-1126235Y-10518552D02*
X-1354806Y-10518552D01*
X-1240521Y-10518552D02*
X-1190521Y-10118552D01*
X-1235759Y-10175695D01*
X-1278616Y-10213790D01*
X-1319092Y-10232838D01*
X-714330Y-10118552D02*
X-904806Y-10118552D01*
X-947664Y-10309028D01*
X-926235Y-10289980D01*
X-885759Y-10270933D01*
X-790521Y-10270933D01*
X-754806Y-10289980D01*
X-738140Y-10309028D01*
X-723854Y-10347123D01*
X-735759Y-10442361D01*
X-759568Y-10480457D01*
X-780997Y-10499504D01*
X-821473Y-10518552D01*
X-916711Y-10518552D01*
X-952425Y-10499504D01*
X-969092Y-10480457D01*
X5244375Y-9712857D02*
X5222946Y-9731904D01*
X5163422Y-9750952D01*
X5125327Y-9750952D01*
X5070565Y-9731904D01*
X5037232Y-9693809D01*
X5022946Y-9655714D01*
X5013422Y-9579523D01*
X5020565Y-9522380D01*
X5049136Y-9446190D01*
X5072946Y-9408095D01*
X5115803Y-9370000D01*
X5175327Y-9350952D01*
X5213422Y-9350952D01*
X5268184Y-9370000D01*
X5284851Y-9389047D01*
X5620565Y-9750952D02*
X5391994Y-9750952D01*
X5506279Y-9750952D02*
X5556279Y-9350952D01*
X5511041Y-9408095D01*
X5468184Y-9446190D01*
X5427708Y-9465238D01*
X5996755Y-9484285D02*
X5963422Y-9750952D01*
X5920565Y-9331904D02*
X5789613Y-9617619D01*
X6037232Y-9617619D01*
X1584375Y-13692857D02*
X1562946Y-13711904D01*
X1503422Y-13730952D01*
X1465327Y-13730952D01*
X1410565Y-13711904D01*
X1377232Y-13673809D01*
X1362946Y-13635714D01*
X1353422Y-13559523D01*
X1360565Y-13502380D01*
X1389136Y-13426190D01*
X1412946Y-13388095D01*
X1455803Y-13350000D01*
X1515327Y-13330952D01*
X1553422Y-13330952D01*
X1608184Y-13350000D01*
X1624851Y-13369047D01*
X1960565Y-13730952D02*
X1731994Y-13730952D01*
X1846279Y-13730952D02*
X1896279Y-13330952D01*
X1851041Y-13388095D01*
X1808184Y-13426190D01*
X1767708Y-13445238D01*
X2158184Y-13369047D02*
X2179613Y-13350000D01*
X2220089Y-13330952D01*
X2315327Y-13330952D01*
X2351041Y-13350000D01*
X2367708Y-13369047D01*
X2381994Y-13407142D01*
X2377232Y-13445238D01*
X2351041Y-13502380D01*
X2093898Y-13730952D01*
X2341517Y-13730952D01*
X-1505149Y-17042857D02*
X-1526578Y-17061904D01*
X-1586102Y-17080952D01*
X-1624197Y-17080952D01*
X-1678959Y-17061904D01*
X-1712292Y-17023809D01*
X-1726578Y-16985714D01*
X-1736102Y-16909523D01*
X-1728959Y-16852380D01*
X-1700387Y-16776190D01*
X-1676578Y-16738095D01*
X-1633721Y-16700000D01*
X-1574197Y-16680952D01*
X-1536102Y-16680952D01*
X-1481340Y-16700000D01*
X-1464673Y-16719047D01*
X-1117054Y-16680952D02*
X-1193245Y-16680952D01*
X-1233721Y-16700000D01*
X-1255149Y-16719047D01*
X-1300387Y-16776190D01*
X-1328959Y-16852380D01*
X-1348006Y-17004761D01*
X-1333721Y-17042857D01*
X-1317054Y-17061904D01*
X-1281340Y-17080952D01*
X-1205149Y-17080952D01*
X-1164673Y-17061904D01*
X-1143245Y-17042857D01*
X-1119435Y-17004761D01*
X-1107530Y-16909523D01*
X-1121816Y-16871428D01*
X-1138483Y-16852380D01*
X-1174197Y-16833333D01*
X-1250387Y-16833333D01*
X-1290864Y-16852380D01*
X-1312292Y-16871428D01*
X-1336102Y-16909523D01*
X-15366578Y219048D02*
X-15402292Y-66666D01*
X-15428483Y-123809D01*
X-15471340Y-161904D01*
X-15530864Y-180952D01*
X-15568959Y-180952D01*
X-15140387Y47620D02*
X-15176102Y66667D01*
X-15192768Y85715D01*
X-15207054Y123810D01*
X-15204673Y142858D01*
X-15180864Y180953D01*
X-15159435Y200000D01*
X-15118959Y219048D01*
X-15042768Y219048D01*
X-15007054Y200000D01*
X-14990387Y180953D01*
X-14976102Y142858D01*
X-14978483Y123810D01*
X-15002292Y85715D01*
X-15023721Y66667D01*
X-15064197Y47620D01*
X-15140387Y47620D01*
X-15180864Y28572D01*
X-15202292Y9524D01*
X-15226102Y-28571D01*
X-15235625Y-104761D01*
X-15221340Y-142857D01*
X-15204673Y-161904D01*
X-15168959Y-180952D01*
X-15092768Y-180952D01*
X-15052292Y-161904D01*
X-15030864Y-142857D01*
X-15007054Y-104761D01*
X-14997530Y-28571D01*
X-15011816Y9524D01*
X-15028483Y28572D01*
X-15064197Y47620D01*
X-15705149Y-13302857D02*
X-15726578Y-13321904D01*
X-15786102Y-13340952D01*
X-15824197Y-13340952D01*
X-15878959Y-13321904D01*
X-15912292Y-13283809D01*
X-15926578Y-13245714D01*
X-15936102Y-13169523D01*
X-15928959Y-13112380D01*
X-15900387Y-13036190D01*
X-15876578Y-12998095D01*
X-15833721Y-12960000D01*
X-15774197Y-12940952D01*
X-15736102Y-12940952D01*
X-15681340Y-12960000D01*
X-15664673Y-12979047D01*
X-15526578Y-12940952D02*
X-15278959Y-12940952D01*
X-15431340Y-13093333D01*
X-15374197Y-13093333D01*
X-15338483Y-13112380D01*
X-15321816Y-13131428D01*
X-15307530Y-13169523D01*
X-15319435Y-13264761D01*
X-15343245Y-13302857D01*
X-15364673Y-13321904D01*
X-15405149Y-13340952D01*
X-15519435Y-13340952D01*
X-15555149Y-13321904D01*
X-15571816Y-13302857D01*
X9664851Y-13442857D02*
X9643422Y-13461904D01*
X9583898Y-13480952D01*
X9545803Y-13480952D01*
X9491041Y-13461904D01*
X9457708Y-13423809D01*
X9443422Y-13385714D01*
X9433898Y-13309523D01*
X9441041Y-13252380D01*
X9469613Y-13176190D01*
X9493422Y-13138095D01*
X9536279Y-13100000D01*
X9595803Y-13080952D01*
X9633898Y-13080952D01*
X9688660Y-13100000D01*
X9705327Y-13119047D01*
X9917232Y-13252380D02*
X9881517Y-13233333D01*
X9864851Y-13214285D01*
X9850565Y-13176190D01*
X9852946Y-13157142D01*
X9876755Y-13119047D01*
X9898184Y-13100000D01*
X9938660Y-13080952D01*
X10014851Y-13080952D01*
X10050565Y-13100000D01*
X10067232Y-13119047D01*
X10081517Y-13157142D01*
X10079136Y-13176190D01*
X10055327Y-13214285D01*
X10033898Y-13233333D01*
X9993422Y-13252380D01*
X9917232Y-13252380D01*
X9876755Y-13271428D01*
X9855327Y-13290476D01*
X9831517Y-13328571D01*
X9821994Y-13404761D01*
X9836279Y-13442857D01*
X9852946Y-13461904D01*
X9888660Y-13480952D01*
X9964851Y-13480952D01*
X10005327Y-13461904D01*
X10026755Y-13442857D01*
X10050565Y-13404761D01*
X10060089Y-13328571D01*
X10045803Y-13290476D01*
X10029136Y-13271428D01*
X9993422Y-13252380D01*
X-2435149Y-13582857D02*
X-2456578Y-13601904D01*
X-2516102Y-13620952D01*
X-2554197Y-13620952D01*
X-2608959Y-13601904D01*
X-2642292Y-13563809D01*
X-2656578Y-13525714D01*
X-2666102Y-13449523D01*
X-2658959Y-13392380D01*
X-2630387Y-13316190D01*
X-2606578Y-13278095D01*
X-2563721Y-13240000D01*
X-2504197Y-13220952D01*
X-2466102Y-13220952D01*
X-2411340Y-13240000D01*
X-2394673Y-13259047D01*
X-2249435Y-13620952D02*
X-2173245Y-13620952D01*
X-2132768Y-13601904D01*
X-2111340Y-13582857D01*
X-2066102Y-13525714D01*
X-2037530Y-13449523D01*
X-2018483Y-13297142D01*
X-2032768Y-13259047D01*
X-2049435Y-13240000D01*
X-2085149Y-13220952D01*
X-2161340Y-13220952D01*
X-2201816Y-13240000D01*
X-2223245Y-13259047D01*
X-2247054Y-13297142D01*
X-2258959Y-13392380D01*
X-2244673Y-13430476D01*
X-2228006Y-13449523D01*
X-2192292Y-13468571D01*
X-2116102Y-13468571D01*
X-2075625Y-13449523D01*
X-2054197Y-13430476D01*
X-2030387Y-13392380D01*
X394375Y-16167857D02*
X372946Y-16186904D01*
X313422Y-16205952D01*
X275327Y-16205952D01*
X220565Y-16186904D01*
X187232Y-16148809D01*
X172946Y-16110714D01*
X163422Y-16034523D01*
X170565Y-15977380D01*
X199136Y-15901190D01*
X222946Y-15863095D01*
X265803Y-15825000D01*
X325327Y-15805952D01*
X363422Y-15805952D01*
X418184Y-15825000D01*
X434851Y-15844047D01*
X770565Y-16205952D02*
X541994Y-16205952D01*
X656279Y-16205952D02*
X706279Y-15805952D01*
X661041Y-15863095D01*
X618184Y-15901190D01*
X577708Y-15920238D01*
X1151517Y-16205952D02*
X922946Y-16205952D01*
X1037232Y-16205952D02*
X1087232Y-15805952D01*
X1041994Y-15863095D01*
X999136Y-15901190D01*
X958660Y-15920238D01*
X-945625Y-16167857D02*
X-967054Y-16186904D01*
X-1026578Y-16205952D01*
X-1064673Y-16205952D01*
X-1119435Y-16186904D01*
X-1152768Y-16148809D01*
X-1167054Y-16110714D01*
X-1176578Y-16034523D01*
X-1169435Y-15977380D01*
X-1140864Y-15901190D01*
X-1117054Y-15863095D01*
X-1074197Y-15825000D01*
X-1014673Y-15805952D01*
X-976578Y-15805952D01*
X-921816Y-15825000D01*
X-905149Y-15844047D01*
X-569435Y-16205952D02*
X-798006Y-16205952D01*
X-683721Y-16205952D02*
X-633721Y-15805952D01*
X-678959Y-15863095D01*
X-721816Y-15901190D01*
X-762292Y-15920238D01*
X-271816Y-15805952D02*
X-233721Y-15805952D01*
X-198006Y-15825000D01*
X-181340Y-15844047D01*
X-167054Y-15882142D01*
X-157530Y-15958333D01*
X-169435Y-16053571D01*
X-198006Y-16129761D01*
X-221816Y-16167857D01*
X-243245Y-16186904D01*
X-283721Y-16205952D01*
X-321816Y-16205952D01*
X-357530Y-16186904D01*
X-374197Y-16167857D01*
X-388483Y-16129761D01*
X-398006Y-16053571D01*
X-386102Y-15958333D01*
X-357530Y-15882142D01*
X-333721Y-15844047D01*
X-312292Y-15825000D01*
X-271816Y-15805952D01*
X-1025625Y-8682857D02*
X-1047054Y-8701904D01*
X-1106578Y-8720952D01*
X-1144673Y-8720952D01*
X-1199435Y-8701904D01*
X-1232768Y-8663809D01*
X-1247054Y-8625714D01*
X-1256578Y-8549523D01*
X-1249435Y-8492380D01*
X-1220864Y-8416190D01*
X-1197054Y-8378095D01*
X-1154197Y-8340000D01*
X-1094673Y-8320952D01*
X-1056578Y-8320952D01*
X-1001816Y-8340000D01*
X-985149Y-8359047D01*
X-649435Y-8720952D02*
X-878006Y-8720952D01*
X-763721Y-8720952D02*
X-713721Y-8320952D01*
X-758959Y-8378095D01*
X-801816Y-8416190D01*
X-842292Y-8435238D01*
X-466102Y-8320952D02*
X-199435Y-8320952D01*
X-420864Y-8720952D01*
X-5545625Y-2592857D02*
X-5567054Y-2611904D01*
X-5626578Y-2630952D01*
X-5664673Y-2630952D01*
X-5719435Y-2611904D01*
X-5752768Y-2573809D01*
X-5767054Y-2535714D01*
X-5776578Y-2459523D01*
X-5769435Y-2402380D01*
X-5740864Y-2326190D01*
X-5717054Y-2288095D01*
X-5674197Y-2250000D01*
X-5614673Y-2230952D01*
X-5576578Y-2230952D01*
X-5521816Y-2250000D01*
X-5505149Y-2269047D01*
X-5169435Y-2630952D02*
X-5398006Y-2630952D01*
X-5283721Y-2630952D02*
X-5233721Y-2230952D01*
X-5278959Y-2288095D01*
X-5321816Y-2326190D01*
X-5362292Y-2345238D01*
X-4912292Y-2402380D02*
X-4948006Y-2383333D01*
X-4964673Y-2364285D01*
X-4978959Y-2326190D01*
X-4976578Y-2307142D01*
X-4952768Y-2269047D01*
X-4931340Y-2250000D01*
X-4890864Y-2230952D01*
X-4814673Y-2230952D01*
X-4778959Y-2250000D01*
X-4762292Y-2269047D01*
X-4748006Y-2307142D01*
X-4750387Y-2326190D01*
X-4774197Y-2364285D01*
X-4795625Y-2383333D01*
X-4836102Y-2402380D01*
X-4912292Y-2402380D01*
X-4952768Y-2421428D01*
X-4974197Y-2440476D01*
X-4998006Y-2478571D01*
X-5007530Y-2554761D01*
X-4993245Y-2592857D01*
X-4976578Y-2611904D01*
X-4940864Y-2630952D01*
X-4864673Y-2630952D01*
X-4824197Y-2611904D01*
X-4802768Y-2592857D01*
X-4778959Y-2554761D01*
X-4769435Y-2478571D01*
X-4783721Y-2440476D01*
X-4800387Y-2421428D01*
X-4836102Y-2402380D01*
X-4175625Y-2602857D02*
X-4197054Y-2621904D01*
X-4256578Y-2640952D01*
X-4294673Y-2640952D01*
X-4349435Y-2621904D01*
X-4382768Y-2583809D01*
X-4397054Y-2545714D01*
X-4406578Y-2469523D01*
X-4399435Y-2412380D01*
X-4370864Y-2336190D01*
X-4347054Y-2298095D01*
X-4304197Y-2260000D01*
X-4244673Y-2240952D01*
X-4206578Y-2240952D01*
X-4151816Y-2260000D01*
X-4135149Y-2279047D01*
X-3799435Y-2640952D02*
X-4028006Y-2640952D01*
X-3913721Y-2640952D02*
X-3863721Y-2240952D01*
X-3908959Y-2298095D01*
X-3951816Y-2336190D01*
X-3992292Y-2355238D01*
X-3608959Y-2640952D02*
X-3532768Y-2640952D01*
X-3492292Y-2621904D01*
X-3470864Y-2602857D01*
X-3425625Y-2545714D01*
X-3397054Y-2469523D01*
X-3378006Y-2317142D01*
X-3392292Y-2279047D01*
X-3408959Y-2260000D01*
X-3444673Y-2240952D01*
X-3520864Y-2240952D01*
X-3561340Y-2260000D01*
X-3582768Y-2279047D01*
X-3606578Y-2317142D01*
X-3618483Y-2412380D01*
X-3604197Y-2450476D01*
X-3587530Y-2469523D01*
X-3551816Y-2488571D01*
X-3475625Y-2488571D01*
X-3435149Y-2469523D01*
X-3413721Y-2450476D01*
X-3389911Y-2412380D01*
X5734375Y-1722857D02*
X5712946Y-1741904D01*
X5653422Y-1760952D01*
X5615327Y-1760952D01*
X5560565Y-1741904D01*
X5527232Y-1703809D01*
X5512946Y-1665714D01*
X5503422Y-1589523D01*
X5510565Y-1532380D01*
X5539136Y-1456190D01*
X5562946Y-1418095D01*
X5605803Y-1380000D01*
X5665327Y-1360952D01*
X5703422Y-1360952D01*
X5758184Y-1380000D01*
X5774851Y-1399047D01*
X5927232Y-1399047D02*
X5948660Y-1380000D01*
X5989136Y-1360952D01*
X6084375Y-1360952D01*
X6120089Y-1380000D01*
X6136755Y-1399047D01*
X6151041Y-1437142D01*
X6146279Y-1475238D01*
X6120089Y-1532380D01*
X5862946Y-1760952D01*
X6110565Y-1760952D01*
X6408184Y-1360952D02*
X6446279Y-1360952D01*
X6481994Y-1380000D01*
X6498660Y-1399047D01*
X6512946Y-1437142D01*
X6522470Y-1513333D01*
X6510565Y-1608571D01*
X6481994Y-1684761D01*
X6458184Y-1722857D01*
X6436755Y-1741904D01*
X6396279Y-1760952D01*
X6358184Y-1760952D01*
X6322470Y-1741904D01*
X6305803Y-1722857D01*
X6291517Y-1684761D01*
X6281994Y-1608571D01*
X6293898Y-1513333D01*
X6322470Y-1437142D01*
X6346279Y-1399047D01*
X6367708Y-1380000D01*
X6408184Y-1360952D01*
X-3795625Y557143D02*
X-3817054Y538096D01*
X-3876578Y519048D01*
X-3914673Y519048D01*
X-3969435Y538096D01*
X-4002768Y576191D01*
X-4017054Y614286D01*
X-4026578Y690477D01*
X-4019435Y747620D01*
X-3990864Y823810D01*
X-3967054Y861905D01*
X-3924197Y900000D01*
X-3864673Y919048D01*
X-3826578Y919048D01*
X-3771816Y900000D01*
X-3755149Y880953D01*
X-3602768Y880953D02*
X-3581340Y900000D01*
X-3540864Y919048D01*
X-3445625Y919048D01*
X-3409911Y900000D01*
X-3393245Y880953D01*
X-3378959Y842858D01*
X-3383721Y804762D01*
X-3409911Y747620D01*
X-3667054Y519048D01*
X-3419435Y519048D01*
X-3038483Y519048D02*
X-3267054Y519048D01*
X-3152768Y519048D02*
X-3102768Y919048D01*
X-3148006Y861905D01*
X-3190864Y823810D01*
X-3231340Y804762D01*
X-245625Y3487143D02*
X-267054Y3468096D01*
X-326578Y3449048D01*
X-364673Y3449048D01*
X-419435Y3468096D01*
X-452768Y3506191D01*
X-467054Y3544286D01*
X-476578Y3620477D01*
X-469435Y3677620D01*
X-440864Y3753810D01*
X-417054Y3791905D01*
X-374197Y3830000D01*
X-314673Y3849048D01*
X-276578Y3849048D01*
X-221816Y3830000D01*
X-205149Y3810953D01*
X-52768Y3810953D02*
X-31340Y3830000D01*
X9136Y3849048D01*
X104375Y3849048D01*
X140089Y3830000D01*
X156755Y3810953D01*
X171041Y3772858D01*
X166279Y3734762D01*
X140089Y3677620D01*
X-117054Y3449048D01*
X130565Y3449048D01*
X542470Y3849048D02*
X351994Y3849048D01*
X309136Y3658572D01*
X330565Y3677620D01*
X371041Y3696667D01*
X466279Y3696667D01*
X501994Y3677620D01*
X518660Y3658572D01*
X532946Y3620477D01*
X521041Y3525239D01*
X497232Y3487143D01*
X475803Y3468096D01*
X435327Y3449048D01*
X340089Y3449048D01*
X304375Y3468096D01*
X287708Y3487143D01*
X-8625625Y-7612857D02*
X-8647054Y-7631904D01*
X-8706578Y-7650952D01*
X-8744673Y-7650952D01*
X-8799435Y-7631904D01*
X-8832768Y-7593809D01*
X-8847054Y-7555714D01*
X-8856578Y-7479523D01*
X-8849435Y-7422380D01*
X-8820864Y-7346190D01*
X-8797054Y-7308095D01*
X-8754197Y-7270000D01*
X-8694673Y-7250952D01*
X-8656578Y-7250952D01*
X-8601816Y-7270000D01*
X-8585149Y-7289047D01*
X-8432768Y-7289047D02*
X-8411340Y-7270000D01*
X-8370864Y-7250952D01*
X-8275625Y-7250952D01*
X-8239911Y-7270000D01*
X-8223245Y-7289047D01*
X-8208959Y-7327142D01*
X-8213721Y-7365238D01*
X-8239911Y-7422380D01*
X-8497054Y-7650952D01*
X-8249435Y-7650952D01*
X-7873245Y-7384285D02*
X-7906578Y-7650952D01*
X-7949435Y-7231904D02*
X-8080387Y-7517619D01*
X-7832768Y-7517619D01*
X-3265625Y12997143D02*
X-3287054Y12978096D01*
X-3346578Y12959048D01*
X-3384673Y12959048D01*
X-3439435Y12978096D01*
X-3472768Y13016191D01*
X-3487054Y13054286D01*
X-3496578Y13130477D01*
X-3489435Y13187620D01*
X-3460864Y13263810D01*
X-3437054Y13301905D01*
X-3394197Y13340000D01*
X-3334673Y13359048D01*
X-3296578Y13359048D01*
X-3241816Y13340000D01*
X-3225149Y13320953D01*
X-2894197Y13225715D02*
X-2927530Y12959048D01*
X-2970387Y13378096D02*
X-3101340Y13092381D01*
X-2853721Y13092381D01*
X-2513245Y13225715D02*
X-2546578Y12959048D01*
X-2589435Y13378096D02*
X-2720387Y13092381D01*
X-2472768Y13092381D01*
X-6785625Y-4272857D02*
X-6807054Y-4291904D01*
X-6866578Y-4310952D01*
X-6904673Y-4310952D01*
X-6959435Y-4291904D01*
X-6992768Y-4253809D01*
X-7007054Y-4215714D01*
X-7016578Y-4139523D01*
X-7009435Y-4082380D01*
X-6980864Y-4006190D01*
X-6957054Y-3968095D01*
X-6914197Y-3930000D01*
X-6854673Y-3910952D01*
X-6816578Y-3910952D01*
X-6761816Y-3930000D01*
X-6745149Y-3949047D01*
X-6607054Y-3910952D02*
X-6359435Y-3910952D01*
X-6511816Y-4063333D01*
X-6454673Y-4063333D01*
X-6418959Y-4082380D01*
X-6402292Y-4101428D01*
X-6388006Y-4139523D01*
X-6399911Y-4234761D01*
X-6423721Y-4272857D01*
X-6445149Y-4291904D01*
X-6485625Y-4310952D01*
X-6599911Y-4310952D01*
X-6635625Y-4291904D01*
X-6652292Y-4272857D01*
X-6033245Y-4044285D02*
X-6066578Y-4310952D01*
X-6109435Y-3891904D02*
X-6240387Y-4177619D01*
X-5992768Y-4177619D01*
X1004375Y9207143D02*
X982946Y9188096D01*
X923422Y9169048D01*
X885327Y9169048D01*
X830565Y9188096D01*
X797232Y9226191D01*
X782946Y9264286D01*
X773422Y9340477D01*
X780565Y9397620D01*
X809136Y9473810D01*
X832946Y9511905D01*
X875803Y9550000D01*
X935327Y9569048D01*
X973422Y9569048D01*
X1028184Y9550000D01*
X1044851Y9530953D01*
X1182946Y9569048D02*
X1430565Y9569048D01*
X1278184Y9416667D01*
X1335327Y9416667D01*
X1371041Y9397620D01*
X1387708Y9378572D01*
X1401994Y9340477D01*
X1390089Y9245239D01*
X1366279Y9207143D01*
X1344851Y9188096D01*
X1304375Y9169048D01*
X1190089Y9169048D01*
X1154375Y9188096D01*
X1137708Y9207143D01*
X1563898Y9569048D02*
X1830565Y9569048D01*
X1609136Y9169048D01*
X504375Y6937143D02*
X482946Y6918096D01*
X423422Y6899048D01*
X385327Y6899048D01*
X330565Y6918096D01*
X297232Y6956191D01*
X282946Y6994286D01*
X273422Y7070477D01*
X280565Y7127620D01*
X309136Y7203810D01*
X332946Y7241905D01*
X375803Y7280000D01*
X435327Y7299048D01*
X473422Y7299048D01*
X528184Y7280000D01*
X544851Y7260953D01*
X682946Y7299048D02*
X930565Y7299048D01*
X778184Y7146667D01*
X835327Y7146667D01*
X871041Y7127620D01*
X887708Y7108572D01*
X901994Y7070477D01*
X890089Y6975239D01*
X866279Y6937143D01*
X844851Y6918096D01*
X804375Y6899048D01*
X690089Y6899048D01*
X654375Y6918096D01*
X637708Y6937143D01*
X1292470Y7299048D02*
X1101994Y7299048D01*
X1059136Y7108572D01*
X1080565Y7127620D01*
X1121041Y7146667D01*
X1216279Y7146667D01*
X1251994Y7127620D01*
X1268660Y7108572D01*
X1282946Y7070477D01*
X1271041Y6975239D01*
X1247232Y6937143D01*
X1225803Y6918096D01*
X1185327Y6899048D01*
X1090089Y6899048D01*
X1054375Y6918096D01*
X1037708Y6937143D01*
X-2825625Y6957143D02*
X-2847054Y6938096D01*
X-2906578Y6919048D01*
X-2944673Y6919048D01*
X-2999435Y6938096D01*
X-3032768Y6976191D01*
X-3047054Y7014286D01*
X-3056578Y7090477D01*
X-3049435Y7147620D01*
X-3020864Y7223810D01*
X-2997054Y7261905D01*
X-2954197Y7300000D01*
X-2894673Y7319048D01*
X-2856578Y7319048D01*
X-2801816Y7300000D01*
X-2785149Y7280953D01*
X-2647054Y7319048D02*
X-2399435Y7319048D01*
X-2551816Y7166667D01*
X-2494673Y7166667D01*
X-2458959Y7147620D01*
X-2442292Y7128572D01*
X-2428006Y7090477D01*
X-2439911Y6995239D01*
X-2463721Y6957143D01*
X-2485149Y6938096D01*
X-2525625Y6919048D01*
X-2639911Y6919048D01*
X-2675625Y6938096D01*
X-2692292Y6957143D01*
X-2056578Y7319048D02*
X-2132768Y7319048D01*
X-2173245Y7300000D01*
X-2194673Y7280953D01*
X-2239911Y7223810D01*
X-2268483Y7147620D01*
X-2287530Y6995239D01*
X-2273245Y6957143D01*
X-2256578Y6938096D01*
X-2220864Y6919048D01*
X-2144673Y6919048D01*
X-2104197Y6938096D01*
X-2082768Y6957143D01*
X-2058959Y6995239D01*
X-2047054Y7090477D01*
X-2061340Y7128572D01*
X-2078006Y7147620D01*
X-2113721Y7166667D01*
X-2189911Y7166667D01*
X-2230387Y7147620D01*
X-2251816Y7128572D01*
X-2275625Y7090477D01*
X-4645625Y11107143D02*
X-4667054Y11088096D01*
X-4726578Y11069048D01*
X-4764673Y11069048D01*
X-4819435Y11088096D01*
X-4852768Y11126191D01*
X-4867054Y11164286D01*
X-4876578Y11240477D01*
X-4869435Y11297620D01*
X-4840864Y11373810D01*
X-4817054Y11411905D01*
X-4774197Y11450000D01*
X-4714673Y11469048D01*
X-4676578Y11469048D01*
X-4621816Y11450000D01*
X-4605149Y11430953D01*
X-4274197Y11335715D02*
X-4307530Y11069048D01*
X-4350387Y11488096D02*
X-4481340Y11202381D01*
X-4233721Y11202381D01*
X-3888483Y11069048D02*
X-4117054Y11069048D01*
X-4002768Y11069048D02*
X-3952768Y11469048D01*
X-3998006Y11411905D01*
X-4040864Y11373810D01*
X-4081340Y11354762D01*
X2314375Y11087143D02*
X2292946Y11068096D01*
X2233422Y11049048D01*
X2195327Y11049048D01*
X2140565Y11068096D01*
X2107232Y11106191D01*
X2092946Y11144286D01*
X2083422Y11220477D01*
X2090565Y11277620D01*
X2119136Y11353810D01*
X2142946Y11391905D01*
X2185803Y11430000D01*
X2245327Y11449048D01*
X2283422Y11449048D01*
X2338184Y11430000D01*
X2354851Y11410953D01*
X2685803Y11315715D02*
X2652470Y11049048D01*
X2609613Y11468096D02*
X2478660Y11182381D01*
X2726279Y11182381D01*
X2888184Y11410953D02*
X2909613Y11430000D01*
X2950089Y11449048D01*
X3045327Y11449048D01*
X3081041Y11430000D01*
X3097708Y11410953D01*
X3111994Y11372858D01*
X3107232Y11334762D01*
X3081041Y11277620D01*
X2823898Y11049048D01*
X3071517Y11049048D01*
X-3475625Y3677143D02*
X-3497054Y3658096D01*
X-3556578Y3639048D01*
X-3594673Y3639048D01*
X-3649435Y3658096D01*
X-3682768Y3696191D01*
X-3697054Y3734286D01*
X-3706578Y3810477D01*
X-3699435Y3867620D01*
X-3670864Y3943810D01*
X-3647054Y3981905D01*
X-3604197Y4020000D01*
X-3544673Y4039048D01*
X-3506578Y4039048D01*
X-3451816Y4020000D01*
X-3435149Y4000953D01*
X-3297054Y4039048D02*
X-3049435Y4039048D01*
X-3201816Y3886667D01*
X-3144673Y3886667D01*
X-3108959Y3867620D01*
X-3092292Y3848572D01*
X-3078006Y3810477D01*
X-3089911Y3715239D01*
X-3113721Y3677143D01*
X-3135149Y3658096D01*
X-3175625Y3639048D01*
X-3289911Y3639048D01*
X-3325625Y3658096D01*
X-3342292Y3677143D01*
X-2901816Y4000953D02*
X-2880387Y4020000D01*
X-2839911Y4039048D01*
X-2744673Y4039048D01*
X-2708959Y4020000D01*
X-2692292Y4000953D01*
X-2678006Y3962858D01*
X-2682768Y3924762D01*
X-2708959Y3867620D01*
X-2966102Y3639048D01*
X-2718483Y3639048D01*
X1084375Y3697143D02*
X1062946Y3678096D01*
X1003422Y3659048D01*
X965327Y3659048D01*
X910565Y3678096D01*
X877232Y3716191D01*
X862946Y3754286D01*
X853422Y3830477D01*
X860565Y3887620D01*
X889136Y3963810D01*
X912946Y4001905D01*
X955803Y4040000D01*
X1015327Y4059048D01*
X1053422Y4059048D01*
X1108184Y4040000D01*
X1124851Y4020953D01*
X1262946Y4059048D02*
X1510565Y4059048D01*
X1358184Y3906667D01*
X1415327Y3906667D01*
X1451041Y3887620D01*
X1467708Y3868572D01*
X1481994Y3830477D01*
X1470089Y3735239D01*
X1446279Y3697143D01*
X1424851Y3678096D01*
X1384375Y3659048D01*
X1270089Y3659048D01*
X1234375Y3678096D01*
X1217708Y3697143D01*
X1643898Y4059048D02*
X1891517Y4059048D01*
X1739136Y3906667D01*
X1796279Y3906667D01*
X1831994Y3887620D01*
X1848660Y3868572D01*
X1862946Y3830477D01*
X1851041Y3735239D01*
X1827232Y3697143D01*
X1805803Y3678096D01*
X1765327Y3659048D01*
X1651041Y3659048D01*
X1615327Y3678096D01*
X1598660Y3697143D01*
X-5695625Y-12252857D02*
X-5717054Y-12271904D01*
X-5776578Y-12290952D01*
X-5814673Y-12290952D01*
X-5869435Y-12271904D01*
X-5902768Y-12233809D01*
X-5917054Y-12195714D01*
X-5926578Y-12119523D01*
X-5919435Y-12062380D01*
X-5890864Y-11986190D01*
X-5867054Y-11948095D01*
X-5824197Y-11910000D01*
X-5764673Y-11890952D01*
X-5726578Y-11890952D01*
X-5671816Y-11910000D01*
X-5655149Y-11929047D01*
X-5324197Y-12024285D02*
X-5357530Y-12290952D01*
X-5400387Y-11871904D02*
X-5531340Y-12157619D01*
X-5283721Y-12157619D01*
X-4926578Y-11890952D02*
X-5002768Y-11890952D01*
X-5043245Y-11910000D01*
X-5064673Y-11929047D01*
X-5109911Y-11986190D01*
X-5138483Y-12062380D01*
X-5157530Y-12214761D01*
X-5143245Y-12252857D01*
X-5126578Y-12271904D01*
X-5090864Y-12290952D01*
X-5014673Y-12290952D01*
X-4974197Y-12271904D01*
X-4952768Y-12252857D01*
X-4928959Y-12214761D01*
X-4917054Y-12119523D01*
X-4931340Y-12081428D01*
X-4948006Y-12062380D01*
X-4983721Y-12043333D01*
X-5059911Y-12043333D01*
X-5100387Y-12062380D01*
X-5121816Y-12081428D01*
X-5145625Y-12119523D01*
X1004375Y12987143D02*
X982946Y12968096D01*
X923422Y12949048D01*
X885327Y12949048D01*
X830565Y12968096D01*
X797232Y13006191D01*
X782946Y13044286D01*
X773422Y13120477D01*
X780565Y13177620D01*
X809136Y13253810D01*
X832946Y13291905D01*
X875803Y13330000D01*
X935327Y13349048D01*
X973422Y13349048D01*
X1028184Y13330000D01*
X1044851Y13310953D01*
X1375803Y13215715D02*
X1342470Y12949048D01*
X1299613Y13368096D02*
X1168660Y13082381D01*
X1416279Y13082381D01*
X1792470Y13349048D02*
X1601994Y13349048D01*
X1559136Y13158572D01*
X1580565Y13177620D01*
X1621041Y13196667D01*
X1716279Y13196667D01*
X1751994Y13177620D01*
X1768660Y13158572D01*
X1782946Y13120477D01*
X1771041Y13025239D01*
X1747232Y12987143D01*
X1725803Y12968096D01*
X1685327Y12949048D01*
X1590089Y12949048D01*
X1554375Y12968096D01*
X1537708Y12987143D01*
X8354375Y9547143D02*
X8332946Y9528096D01*
X8273422Y9509048D01*
X8235327Y9509048D01*
X8180565Y9528096D01*
X8147232Y9566191D01*
X8132946Y9604286D01*
X8123422Y9680477D01*
X8130565Y9737620D01*
X8159136Y9813810D01*
X8182946Y9851905D01*
X8225803Y9890000D01*
X8285327Y9909048D01*
X8323422Y9909048D01*
X8378184Y9890000D01*
X8394851Y9870953D01*
X8725803Y9775715D02*
X8692470Y9509048D01*
X8649613Y9928096D02*
X8518660Y9642381D01*
X8766279Y9642381D01*
X8987708Y9737620D02*
X8951994Y9756667D01*
X8935327Y9775715D01*
X8921041Y9813810D01*
X8923422Y9832858D01*
X8947232Y9870953D01*
X8968660Y9890000D01*
X9009136Y9909048D01*
X9085327Y9909048D01*
X9121041Y9890000D01*
X9137708Y9870953D01*
X9151994Y9832858D01*
X9149613Y9813810D01*
X9125803Y9775715D01*
X9104375Y9756667D01*
X9063898Y9737620D01*
X8987708Y9737620D01*
X8947232Y9718572D01*
X8925803Y9699524D01*
X8901994Y9661429D01*
X8892470Y9585239D01*
X8906755Y9547143D01*
X8923422Y9528096D01*
X8959136Y9509048D01*
X9035327Y9509048D01*
X9075803Y9528096D01*
X9097232Y9547143D01*
X9121041Y9585239D01*
X9130565Y9661429D01*
X9116279Y9699524D01*
X9099613Y9718572D01*
X9063898Y9737620D01*
X7034375Y9547143D02*
X7012946Y9528096D01*
X6953422Y9509048D01*
X6915327Y9509048D01*
X6860565Y9528096D01*
X6827232Y9566191D01*
X6812946Y9604286D01*
X6803422Y9680477D01*
X6810565Y9737620D01*
X6839136Y9813810D01*
X6862946Y9851905D01*
X6905803Y9890000D01*
X6965327Y9909048D01*
X7003422Y9909048D01*
X7058184Y9890000D01*
X7074851Y9870953D01*
X7405803Y9775715D02*
X7372470Y9509048D01*
X7329613Y9928096D02*
X7198660Y9642381D01*
X7446279Y9642381D01*
X7593898Y9909048D02*
X7860565Y9909048D01*
X7639136Y9509048D01*
X-1095625Y10677143D02*
X-1117054Y10658096D01*
X-1176578Y10639048D01*
X-1214673Y10639048D01*
X-1269435Y10658096D01*
X-1302768Y10696191D01*
X-1317054Y10734286D01*
X-1326578Y10810477D01*
X-1319435Y10867620D01*
X-1290864Y10943810D01*
X-1267054Y10981905D01*
X-1224197Y11020000D01*
X-1164673Y11039048D01*
X-1126578Y11039048D01*
X-1071816Y11020000D01*
X-1055149Y11000953D01*
X-688483Y11039048D02*
X-878959Y11039048D01*
X-921816Y10848572D01*
X-900387Y10867620D01*
X-859911Y10886667D01*
X-764673Y10886667D01*
X-728959Y10867620D01*
X-712292Y10848572D01*
X-698006Y10810477D01*
X-709911Y10715239D01*
X-733721Y10677143D01*
X-755149Y10658096D01*
X-795625Y10639048D01*
X-890864Y10639048D01*
X-926578Y10658096D01*
X-943245Y10677143D01*
X-421816Y11039048D02*
X-383721Y11039048D01*
X-348006Y11020000D01*
X-331340Y11000953D01*
X-317054Y10962858D01*
X-307530Y10886667D01*
X-319435Y10791429D01*
X-348006Y10715239D01*
X-371816Y10677143D01*
X-393245Y10658096D01*
X-433721Y10639048D01*
X-471816Y10639048D01*
X-507530Y10658096D01*
X-524197Y10677143D01*
X-538483Y10715239D01*
X-548006Y10791429D01*
X-536102Y10886667D01*
X-507530Y10962858D01*
X-483721Y11000953D01*
X-462292Y11020000D01*
X-421816Y11039048D01*
X-3865625Y-12242857D02*
X-3887054Y-12261904D01*
X-3946578Y-12280952D01*
X-3984673Y-12280952D01*
X-4039435Y-12261904D01*
X-4072768Y-12223809D01*
X-4087054Y-12185714D01*
X-4096578Y-12109523D01*
X-4089435Y-12052380D01*
X-4060864Y-11976190D01*
X-4037054Y-11938095D01*
X-3994197Y-11900000D01*
X-3934673Y-11880952D01*
X-3896578Y-11880952D01*
X-3841816Y-11900000D01*
X-3825149Y-11919047D01*
X-3494197Y-12014285D02*
X-3527530Y-12280952D01*
X-3570387Y-11861904D02*
X-3701340Y-12147619D01*
X-3453721Y-12147619D01*
X-3298959Y-12280952D02*
X-3222768Y-12280952D01*
X-3182292Y-12261904D01*
X-3160864Y-12242857D01*
X-3115625Y-12185714D01*
X-3087054Y-12109523D01*
X-3068006Y-11957142D01*
X-3082292Y-11919047D01*
X-3098959Y-11900000D01*
X-3134673Y-11880952D01*
X-3210864Y-11880952D01*
X-3251340Y-11900000D01*
X-3272768Y-11919047D01*
X-3296578Y-11957142D01*
X-3308483Y-12052380D01*
X-3294197Y-12090476D01*
X-3277530Y-12109523D01*
X-3241816Y-12128571D01*
X-3165625Y-12128571D01*
X-3125149Y-12109523D01*
X-3103721Y-12090476D01*
X-3079911Y-12052380D01*
X-765625Y7887143D02*
X-787054Y7868096D01*
X-846578Y7849048D01*
X-884673Y7849048D01*
X-939435Y7868096D01*
X-972768Y7906191D01*
X-987054Y7944286D01*
X-996578Y8020477D01*
X-989435Y8077620D01*
X-960864Y8153810D01*
X-937054Y8191905D01*
X-894197Y8230000D01*
X-834673Y8249048D01*
X-796578Y8249048D01*
X-741816Y8230000D01*
X-725149Y8210953D01*
X-358483Y8249048D02*
X-548959Y8249048D01*
X-591816Y8058572D01*
X-570387Y8077620D01*
X-529911Y8096667D01*
X-434673Y8096667D01*
X-398959Y8077620D01*
X-382292Y8058572D01*
X-368006Y8020477D01*
X-379911Y7925239D01*
X-403721Y7887143D01*
X-425149Y7868096D01*
X-465625Y7849048D01*
X-560864Y7849048D01*
X-596578Y7868096D01*
X-613245Y7887143D01*
X-206102Y8249048D02*
X60565Y8249048D01*
X-160864Y7849048D01*
X12084375Y9527143D02*
X12062946Y9508096D01*
X12003422Y9489048D01*
X11965327Y9489048D01*
X11910565Y9508096D01*
X11877232Y9546191D01*
X11862946Y9584286D01*
X11853422Y9660477D01*
X11860565Y9717620D01*
X11889136Y9793810D01*
X11912946Y9831905D01*
X11955803Y9870000D01*
X12015327Y9889048D01*
X12053422Y9889048D01*
X12108184Y9870000D01*
X12124851Y9850953D01*
X12472470Y9889048D02*
X12396279Y9889048D01*
X12355803Y9870000D01*
X12334375Y9850953D01*
X12289136Y9793810D01*
X12260565Y9717620D01*
X12241517Y9565239D01*
X12255803Y9527143D01*
X12272470Y9508096D01*
X12308184Y9489048D01*
X12384375Y9489048D01*
X12424851Y9508096D01*
X12446279Y9527143D01*
X12470089Y9565239D01*
X12481994Y9660477D01*
X12467708Y9698572D01*
X12451041Y9717620D01*
X12415327Y9736667D01*
X12339136Y9736667D01*
X12298660Y9717620D01*
X12277232Y9698572D01*
X12253422Y9660477D01*
X12872470Y9889048D02*
X12681994Y9889048D01*
X12639136Y9698572D01*
X12660565Y9717620D01*
X12701041Y9736667D01*
X12796279Y9736667D01*
X12831994Y9717620D01*
X12848660Y9698572D01*
X12862946Y9660477D01*
X12851041Y9565239D01*
X12827232Y9527143D01*
X12805803Y9508096D01*
X12765327Y9489048D01*
X12670089Y9489048D01*
X12634375Y9508096D01*
X12617708Y9527143D01*
X-3275625Y9207143D02*
X-3297054Y9188096D01*
X-3356578Y9169048D01*
X-3394673Y9169048D01*
X-3449435Y9188096D01*
X-3482768Y9226191D01*
X-3497054Y9264286D01*
X-3506578Y9340477D01*
X-3499435Y9397620D01*
X-3470864Y9473810D01*
X-3447054Y9511905D01*
X-3404197Y9550000D01*
X-3344673Y9569048D01*
X-3306578Y9569048D01*
X-3251816Y9550000D01*
X-3235149Y9530953D01*
X-3097054Y9569048D02*
X-2849435Y9569048D01*
X-3001816Y9416667D01*
X-2944673Y9416667D01*
X-2908959Y9397620D01*
X-2892292Y9378572D01*
X-2878006Y9340477D01*
X-2889911Y9245239D01*
X-2913721Y9207143D01*
X-2935149Y9188096D01*
X-2975625Y9169048D01*
X-3089911Y9169048D01*
X-3125625Y9188096D01*
X-3142292Y9207143D01*
X-2642292Y9397620D02*
X-2678006Y9416667D01*
X-2694673Y9435715D01*
X-2708959Y9473810D01*
X-2706578Y9492858D01*
X-2682768Y9530953D01*
X-2661340Y9550000D01*
X-2620864Y9569048D01*
X-2544673Y9569048D01*
X-2508959Y9550000D01*
X-2492292Y9530953D01*
X-2478006Y9492858D01*
X-2480387Y9473810D01*
X-2504197Y9435715D01*
X-2525625Y9416667D01*
X-2566102Y9397620D01*
X-2642292Y9397620D01*
X-2682768Y9378572D01*
X-2704197Y9359524D01*
X-2728006Y9321429D01*
X-2737530Y9245239D01*
X-2723245Y9207143D01*
X-2706578Y9188096D01*
X-2670864Y9169048D01*
X-2594673Y9169048D01*
X-2554197Y9188096D01*
X-2532768Y9207143D01*
X-2508959Y9245239D01*
X-2499435Y9321429D01*
X-2513721Y9359524D01*
X-2530387Y9378572D01*
X-2566102Y9397620D01*
X994375Y11087143D02*
X972946Y11068096D01*
X913422Y11049048D01*
X875327Y11049048D01*
X820565Y11068096D01*
X787232Y11106191D01*
X772946Y11144286D01*
X763422Y11220477D01*
X770565Y11277620D01*
X799136Y11353810D01*
X822946Y11391905D01*
X865803Y11430000D01*
X925327Y11449048D01*
X963422Y11449048D01*
X1018184Y11430000D01*
X1034851Y11410953D01*
X1172946Y11449048D02*
X1420565Y11449048D01*
X1268184Y11296667D01*
X1325327Y11296667D01*
X1361041Y11277620D01*
X1377708Y11258572D01*
X1391994Y11220477D01*
X1380089Y11125239D01*
X1356279Y11087143D01*
X1334851Y11068096D01*
X1294375Y11049048D01*
X1180089Y11049048D01*
X1144375Y11068096D01*
X1127708Y11087143D01*
X1561041Y11049048D02*
X1637232Y11049048D01*
X1677708Y11068096D01*
X1699136Y11087143D01*
X1744375Y11144286D01*
X1772946Y11220477D01*
X1791994Y11372858D01*
X1777708Y11410953D01*
X1761041Y11430000D01*
X1725327Y11449048D01*
X1649136Y11449048D01*
X1608660Y11430000D01*
X1587232Y11410953D01*
X1563422Y11372858D01*
X1551517Y11277620D01*
X1565803Y11239524D01*
X1582470Y11220477D01*
X1618184Y11201429D01*
X1694375Y11201429D01*
X1734851Y11220477D01*
X1756279Y11239524D01*
X1780089Y11277620D01*
X-3355625Y11097143D02*
X-3377054Y11078096D01*
X-3436578Y11059048D01*
X-3474673Y11059048D01*
X-3529435Y11078096D01*
X-3562768Y11116191D01*
X-3577054Y11154286D01*
X-3586578Y11230477D01*
X-3579435Y11287620D01*
X-3550864Y11363810D01*
X-3527054Y11401905D01*
X-3484197Y11440000D01*
X-3424673Y11459048D01*
X-3386578Y11459048D01*
X-3331816Y11440000D01*
X-3315149Y11420953D01*
X-2984197Y11325715D02*
X-3017530Y11059048D01*
X-3060387Y11478096D02*
X-3191340Y11192381D01*
X-2943721Y11192381D01*
X-2681816Y11459048D02*
X-2643721Y11459048D01*
X-2608006Y11440000D01*
X-2591340Y11420953D01*
X-2577054Y11382858D01*
X-2567530Y11306667D01*
X-2579435Y11211429D01*
X-2608006Y11135239D01*
X-2631816Y11097143D01*
X-2653245Y11078096D01*
X-2693721Y11059048D01*
X-2731816Y11059048D01*
X-2767530Y11078096D01*
X-2784197Y11097143D01*
X-2798483Y11135239D01*
X-2808006Y11211429D01*
X-2796102Y11306667D01*
X-2767530Y11382858D01*
X-2743721Y11420953D01*
X-2722292Y11440000D01*
X-2681816Y11459048D01*
X-3785625Y-412857D02*
X-3807054Y-431904D01*
X-3866578Y-450952D01*
X-3904673Y-450952D01*
X-3959435Y-431904D01*
X-3992768Y-393809D01*
X-4007054Y-355714D01*
X-4016578Y-279523D01*
X-4009435Y-222380D01*
X-3980864Y-146190D01*
X-3957054Y-108095D01*
X-3914197Y-70000D01*
X-3854673Y-50952D01*
X-3816578Y-50952D01*
X-3761816Y-70000D01*
X-3745149Y-89047D01*
X-3414197Y-184285D02*
X-3447530Y-450952D01*
X-3490387Y-31904D02*
X-3621340Y-317619D01*
X-3373721Y-317619D01*
X-3226102Y-50952D02*
X-2978483Y-50952D01*
X-3130864Y-203333D01*
X-3073721Y-203333D01*
X-3038006Y-222380D01*
X-3021340Y-241428D01*
X-3007054Y-279523D01*
X-3018959Y-374761D01*
X-3042768Y-412857D01*
X-3064197Y-431904D01*
X-3104673Y-450952D01*
X-3218959Y-450952D01*
X-3254673Y-431904D01*
X-3271340Y-412857D01*
X639613Y-10911428D02*
X506279Y-10911428D01*
X480089Y-11120952D02*
X530089Y-10720952D01*
X720565Y-10720952D01*
X982470Y-10911428D02*
X1037232Y-10930476D01*
X1053898Y-10949523D01*
X1068184Y-10987619D01*
X1061041Y-11044761D01*
X1037232Y-11082857D01*
X1015803Y-11101904D01*
X975327Y-11120952D01*
X822946Y-11120952D01*
X872946Y-10720952D01*
X1006279Y-10720952D01*
X1041994Y-10740000D01*
X1058660Y-10759047D01*
X1072946Y-10797142D01*
X1068184Y-10835238D01*
X1044375Y-10873333D01*
X1022946Y-10892380D01*
X982470Y-10911428D01*
X849136Y-10911428D01*
X1432470Y-11120952D02*
X1203898Y-11120952D01*
X1318184Y-11120952D02*
X1368184Y-10720952D01*
X1322946Y-10778095D01*
X1280089Y-10816190D01*
X1239613Y-10835238D01*
X-7945625Y-27971428D02*
X-8078959Y-27971428D01*
X-8105149Y-28180952D02*
X-8055149Y-27780952D01*
X-7864673Y-27780952D01*
X-7762292Y-28180952D02*
X-7712292Y-27780952D01*
X-7571816Y-28180952D02*
X-7521816Y-27780952D01*
X-7426578Y-27780952D01*
X-7371816Y-27800000D01*
X-7338483Y-27838095D01*
X-7324197Y-27876190D01*
X-7314673Y-27952380D01*
X-7321816Y-28009523D01*
X-7350387Y-28085714D01*
X-7374197Y-28123809D01*
X-7417054Y-28161904D01*
X-7476578Y-28180952D01*
X-7571816Y-28180952D01*
X-6962292Y-28180952D02*
X-7190864Y-28180952D01*
X-7076578Y-28180952D02*
X-7026578Y-27780952D01*
X-7071816Y-27838095D01*
X-7114673Y-27876190D01*
X-7155149Y-27895238D01*
X-6820387Y-5290952D02*
X-7010864Y-5290952D01*
X-6960864Y-4890952D01*
X-6477530Y-5290952D02*
X-6706102Y-5290952D01*
X-6591816Y-5290952D02*
X-6541816Y-4890952D01*
X-6587054Y-4948095D01*
X-6629911Y-4986190D01*
X-6670387Y-5005238D01*
X-6179911Y-4890952D02*
X-6141816Y-4890952D01*
X-6106102Y-4910000D01*
X-6089435Y-4929047D01*
X-6075149Y-4967142D01*
X-6065625Y-5043333D01*
X-6077530Y-5138571D01*
X-6106102Y-5214761D01*
X-6129911Y-5252857D01*
X-6151340Y-5271904D01*
X-6191816Y-5290952D01*
X-6229911Y-5290952D01*
X-6265625Y-5271904D01*
X-6282292Y-5252857D01*
X-6296578Y-5214761D01*
X-6306102Y-5138571D01*
X-6294197Y-5043333D01*
X-6265625Y-4967142D01*
X-6241816Y-4929047D01*
X-6220387Y-4910000D01*
X-6179911Y-4890952D01*
X-4499911Y3639048D02*
X-4690387Y3639048D01*
X-4640387Y4039048D01*
X-4354673Y4039048D02*
X-4107054Y4039048D01*
X-4259435Y3886667D01*
X-4202292Y3886667D01*
X-4166578Y3867620D01*
X-4149911Y3848572D01*
X-4135625Y3810477D01*
X-4147530Y3715239D01*
X-4171340Y3677143D01*
X-4192768Y3658096D01*
X-4233245Y3639048D01*
X-4347530Y3639048D01*
X-4383245Y3658096D01*
X-4399911Y3677143D01*
X4110089Y3469048D02*
X3919613Y3469048D01*
X3969613Y3869048D01*
X4483898Y3869048D02*
X4293422Y3869048D01*
X4250565Y3678572D01*
X4271994Y3697620D01*
X4312470Y3716667D01*
X4407708Y3716667D01*
X4443422Y3697620D01*
X4460089Y3678572D01*
X4474375Y3640477D01*
X4462470Y3545239D01*
X4438660Y3507143D01*
X4417232Y3488096D01*
X4376755Y3469048D01*
X4281517Y3469048D01*
X4245803Y3488096D01*
X4229136Y3507143D01*
X890089Y5889048D02*
X699613Y5889048D01*
X749613Y6289048D01*
X1035327Y6289048D02*
X1301994Y6289048D01*
X1080565Y5889048D01*
X-2839911Y5889048D02*
X-3030387Y5889048D01*
X-2980387Y6289048D01*
X-2485149Y6289048D02*
X-2561340Y6289048D01*
X-2601816Y6270000D01*
X-2623245Y6250953D01*
X-2668483Y6193810D01*
X-2697054Y6117620D01*
X-2716102Y5965239D01*
X-2701816Y5927143D01*
X-2685149Y5908096D01*
X-2649435Y5889048D01*
X-2573245Y5889048D01*
X-2532768Y5908096D01*
X-2511340Y5927143D01*
X-2487530Y5965239D01*
X-2475625Y6060477D01*
X-2489911Y6098572D01*
X-2506578Y6117620D01*
X-2542292Y6136667D01*
X-2618483Y6136667D01*
X-2658959Y6117620D01*
X-2680387Y6098572D01*
X-2704197Y6060477D01*
X-4319911Y9169048D02*
X-4510387Y9169048D01*
X-4460387Y9569048D01*
X-4167530Y9169048D02*
X-4091340Y9169048D01*
X-4050864Y9188096D01*
X-4029435Y9207143D01*
X-3984197Y9264286D01*
X-3955625Y9340477D01*
X-3936578Y9492858D01*
X-3950864Y9530953D01*
X-3967530Y9550000D01*
X-4003245Y9569048D01*
X-4079435Y9569048D01*
X-4119911Y9550000D01*
X-4141340Y9530953D01*
X-4165149Y9492858D01*
X-4177054Y9397620D01*
X-4162768Y9359524D01*
X-4146102Y9340477D01*
X-4110387Y9321429D01*
X-4034197Y9321429D01*
X-3993721Y9340477D01*
X-3972292Y9359524D01*
X-3948483Y9397620D01*
X2380089Y9179048D02*
X2189613Y9179048D01*
X2239613Y9579048D01*
X2599136Y9407620D02*
X2563422Y9426667D01*
X2546755Y9445715D01*
X2532470Y9483810D01*
X2534851Y9502858D01*
X2558660Y9540953D01*
X2580089Y9560000D01*
X2620565Y9579048D01*
X2696755Y9579048D01*
X2732470Y9560000D01*
X2749136Y9540953D01*
X2763422Y9502858D01*
X2761041Y9483810D01*
X2737232Y9445715D01*
X2715803Y9426667D01*
X2675327Y9407620D01*
X2599136Y9407620D01*
X2558660Y9388572D01*
X2537232Y9369524D01*
X2513422Y9331429D01*
X2503898Y9255239D01*
X2518184Y9217143D01*
X2534851Y9198096D01*
X2570565Y9179048D01*
X2646755Y9179048D01*
X2687232Y9198096D01*
X2708660Y9217143D01*
X2732470Y9255239D01*
X2741994Y9331429D01*
X2727708Y9369524D01*
X2711041Y9388572D01*
X2675327Y9407620D01*
X-4590387Y12939048D02*
X-4780864Y12939048D01*
X-4730864Y13339048D01*
X-4247530Y12939048D02*
X-4476102Y12939048D01*
X-4361816Y12939048D02*
X-4311816Y13339048D01*
X-4357054Y13281905D01*
X-4399911Y13243810D01*
X-4440387Y13224762D01*
X-3866578Y12939048D02*
X-4095149Y12939048D01*
X-3980864Y12939048D02*
X-3930864Y13339048D01*
X-3976102Y13281905D01*
X-4018959Y13243810D01*
X-4059435Y13224762D01*
X2269613Y12969048D02*
X2079136Y12969048D01*
X2129136Y13369048D01*
X2612470Y12969048D02*
X2383898Y12969048D01*
X2498184Y12969048D02*
X2548184Y13369048D01*
X2502946Y13311905D01*
X2460089Y13273810D01*
X2419613Y13254762D01*
X2810089Y13330953D02*
X2831517Y13350000D01*
X2871994Y13369048D01*
X2967232Y13369048D01*
X3002946Y13350000D01*
X3019613Y13330953D01*
X3033898Y13292858D01*
X3029136Y13254762D01*
X3002946Y13197620D01*
X2745803Y12969048D01*
X2993422Y12969048D01*
X10613898Y-24719047D02*
X10578184Y-24700000D01*
X10544851Y-24661904D01*
X10494851Y-24604761D01*
X10459136Y-24585714D01*
X10421041Y-24585714D01*
X10428184Y-24680952D02*
X10392470Y-24661904D01*
X10359136Y-24623809D01*
X10349613Y-24547619D01*
X10366279Y-24414285D01*
X10394851Y-24338095D01*
X10437708Y-24300000D01*
X10478184Y-24280952D01*
X10554375Y-24280952D01*
X10590089Y-24300000D01*
X10623422Y-24338095D01*
X10632946Y-24414285D01*
X10616279Y-24547619D01*
X10587708Y-24623809D01*
X10544851Y-24661904D01*
X10504375Y-24680952D01*
X10428184Y-24680952D01*
X10980565Y-24680952D02*
X10751994Y-24680952D01*
X10866279Y-24680952D02*
X10916279Y-24280952D01*
X10871041Y-24338095D01*
X10828184Y-24376190D01*
X10787708Y-24395238D01*
X-10496102Y-25119047D02*
X-10531816Y-25100000D01*
X-10565149Y-25061904D01*
X-10615149Y-25004761D01*
X-10650864Y-24985714D01*
X-10688959Y-24985714D01*
X-10681816Y-25080952D02*
X-10717530Y-25061904D01*
X-10750864Y-25023809D01*
X-10760387Y-24947619D01*
X-10743721Y-24814285D01*
X-10715149Y-24738095D01*
X-10672292Y-24700000D01*
X-10631816Y-24680952D01*
X-10555625Y-24680952D01*
X-10519911Y-24700000D01*
X-10486578Y-24738095D01*
X-10477054Y-24814285D01*
X-10493721Y-24947619D01*
X-10522292Y-25023809D01*
X-10565149Y-25061904D01*
X-10605625Y-25080952D01*
X-10681816Y-25080952D01*
X-10312768Y-24719047D02*
X-10291340Y-24700000D01*
X-10250864Y-24680952D01*
X-10155625Y-24680952D01*
X-10119911Y-24700000D01*
X-10103245Y-24719047D01*
X-10088959Y-24757142D01*
X-10093721Y-24795238D01*
X-10119911Y-24852380D01*
X-10377054Y-25080952D01*
X-10129435Y-25080952D01*
X-13749911Y-13340952D02*
X-13859435Y-13150476D01*
X-13978483Y-13340952D02*
X-13928483Y-12940952D01*
X-13776102Y-12940952D01*
X-13740387Y-12960000D01*
X-13723721Y-12979047D01*
X-13709435Y-13017142D01*
X-13716578Y-13074285D01*
X-13740387Y-13112380D01*
X-13761816Y-13131428D01*
X-13802292Y-13150476D01*
X-13954673Y-13150476D01*
X-13552292Y-12979047D02*
X-13530864Y-12960000D01*
X-13490387Y-12940952D01*
X-13395149Y-12940952D01*
X-13359435Y-12960000D01*
X-13342768Y-12979047D01*
X-13328483Y-13017142D01*
X-13333245Y-13055238D01*
X-13359435Y-13112380D01*
X-13616578Y-13340952D01*
X-13368959Y-13340952D01*
X-2489911Y-15840952D02*
X-2599435Y-15650476D01*
X-2718483Y-15840952D02*
X-2668483Y-15440952D01*
X-2516102Y-15440952D01*
X-2480387Y-15460000D01*
X-2463721Y-15479047D01*
X-2449435Y-15517142D01*
X-2456578Y-15574285D01*
X-2480387Y-15612380D01*
X-2501816Y-15631428D01*
X-2542292Y-15650476D01*
X-2694673Y-15650476D01*
X-2306578Y-15440952D02*
X-2058959Y-15440952D01*
X-2211340Y-15593333D01*
X-2154197Y-15593333D01*
X-2118483Y-15612380D01*
X-2101816Y-15631428D01*
X-2087530Y-15669523D01*
X-2099435Y-15764761D01*
X-2123245Y-15802857D01*
X-2144673Y-15821904D01*
X-2185149Y-15840952D01*
X-2299435Y-15840952D01*
X-2335149Y-15821904D01*
X-2351816Y-15802857D01*
X9530089Y-19170952D02*
X9420565Y-18980476D01*
X9301517Y-19170952D02*
X9351517Y-18770952D01*
X9503898Y-18770952D01*
X9539613Y-18790000D01*
X9556279Y-18809047D01*
X9570565Y-18847142D01*
X9563422Y-18904285D01*
X9539613Y-18942380D01*
X9518184Y-18961428D01*
X9477708Y-18980476D01*
X9325327Y-18980476D01*
X9906279Y-18904285D02*
X9872946Y-19170952D01*
X9830089Y-18751904D02*
X9699136Y-19037619D01*
X9946755Y-19037619D01*
X7290089Y7119048D02*
X7180565Y7309524D01*
X7061517Y7119048D02*
X7111517Y7519048D01*
X7263898Y7519048D01*
X7299613Y7500000D01*
X7316279Y7480953D01*
X7330565Y7442858D01*
X7323422Y7385715D01*
X7299613Y7347620D01*
X7278184Y7328572D01*
X7237708Y7309524D01*
X7085327Y7309524D01*
X7682946Y7519048D02*
X7606755Y7519048D01*
X7566279Y7500000D01*
X7544851Y7480953D01*
X7499613Y7423810D01*
X7471041Y7347620D01*
X7451994Y7195239D01*
X7466279Y7157143D01*
X7482946Y7138096D01*
X7518660Y7119048D01*
X7594851Y7119048D01*
X7635327Y7138096D01*
X7656755Y7157143D01*
X7680565Y7195239D01*
X7692470Y7290477D01*
X7678184Y7328572D01*
X7661517Y7347620D01*
X7625803Y7366667D01*
X7549613Y7366667D01*
X7509136Y7347620D01*
X7487708Y7328572D01*
X7463898Y7290477D01*
X8360089Y7129048D02*
X8250565Y7319524D01*
X8131517Y7129048D02*
X8181517Y7529048D01*
X8333898Y7529048D01*
X8369613Y7510000D01*
X8386279Y7490953D01*
X8400565Y7452858D01*
X8393422Y7395715D01*
X8369613Y7357620D01*
X8348184Y7338572D01*
X8307708Y7319524D01*
X8155327Y7319524D01*
X8543422Y7529048D02*
X8810089Y7529048D01*
X8588660Y7129048D01*
X7880089Y11159048D02*
X7770565Y11349524D01*
X7651517Y11159048D02*
X7701517Y11559048D01*
X7853898Y11559048D01*
X7889613Y11540000D01*
X7906279Y11520953D01*
X7920565Y11482858D01*
X7913422Y11425715D01*
X7889613Y11387620D01*
X7868184Y11368572D01*
X7827708Y11349524D01*
X7675327Y11349524D01*
X8137232Y11387620D02*
X8101517Y11406667D01*
X8084851Y11425715D01*
X8070565Y11463810D01*
X8072946Y11482858D01*
X8096755Y11520953D01*
X8118184Y11540000D01*
X8158660Y11559048D01*
X8234851Y11559048D01*
X8270565Y11540000D01*
X8287232Y11520953D01*
X8301517Y11482858D01*
X8299136Y11463810D01*
X8275327Y11425715D01*
X8253898Y11406667D01*
X8213422Y11387620D01*
X8137232Y11387620D01*
X8096755Y11368572D01*
X8075327Y11349524D01*
X8051517Y11311429D01*
X8041994Y11235239D01*
X8056279Y11197143D01*
X8072946Y11178096D01*
X8108660Y11159048D01*
X8184851Y11159048D01*
X8225327Y11178096D01*
X8246755Y11197143D01*
X8270565Y11235239D01*
X8280089Y11311429D01*
X8265803Y11349524D01*
X8249136Y11368572D01*
X8213422Y11387620D01*
X-2040359Y14284453D02*
X-1983117Y14496585D01*
X-2201983Y14446078D02*
X-1883785Y14693565D01*
X-1776036Y14585816D01*
X-1764250Y14547093D01*
X-1765934Y14521839D01*
X-1782770Y14484800D01*
X-1828227Y14449445D01*
X-1872000Y14439344D01*
X-1900621Y14441027D01*
X-1942711Y14456179D01*
X-2050460Y14563929D01*
X-1770985Y14015079D02*
X-1932609Y14176704D01*
X-1851797Y14095892D02*
X-1533599Y14343379D01*
X-1605993Y14334961D01*
X-1663235Y14338328D01*
X-1705325Y14353481D01*
X-1277694Y14087474D02*
X-1250756Y14060536D01*
X-1238971Y14021814D01*
X-1240655Y13996560D01*
X-1257491Y13959521D01*
X-1304631Y13898912D01*
X-1380392Y13839986D01*
X-1454470Y13806315D01*
X-1498244Y13796213D01*
X-1526865Y13797897D01*
X-1568954Y13813049D01*
X-1595892Y13839986D01*
X-1607677Y13878709D01*
X-1605993Y13903963D01*
X-1589157Y13941002D01*
X-1542017Y14001611D01*
X-1466255Y14060536D01*
X-1392178Y14094208D01*
X-1348404Y14104310D01*
X-1319783Y14102626D01*
X-1277694Y14087474D01*
X-15030006Y-11101952D02*
X-15070483Y-11425761D01*
X-15056197Y-11463857D01*
X-15039530Y-11482904D01*
X-15003816Y-11501952D01*
X-14927625Y-11501952D01*
X-14887149Y-11482904D01*
X-14865721Y-11463857D01*
X-14841911Y-11425761D01*
X-14801435Y-11101952D01*
X-14451435Y-11501952D02*
X-14680006Y-11501952D01*
X-14565721Y-11501952D02*
X-14515721Y-11101952D01*
X-14560959Y-11159095D01*
X-14603816Y-11197190D01*
X-14644292Y-11216238D01*
X-8047354Y-1895452D02*
X-7830687Y-2295452D01*
X-7780687Y-1895452D02*
X-8097354Y-2295452D01*
X-7468783Y-2295452D02*
X-7697354Y-2295452D01*
X-7583068Y-2295452D02*
X-7533068Y-1895452D01*
X-7578306Y-1952595D01*
X-7621164Y-1990690D01*
X-7661640Y-2009738D01*
X6064851Y-27772857D02*
X6043422Y-27791904D01*
X5983898Y-27810952D01*
X5945803Y-27810952D01*
X5891041Y-27791904D01*
X5857708Y-27753809D01*
X5843422Y-27715714D01*
X5833898Y-27639523D01*
X5841041Y-27582380D01*
X5869613Y-27506190D01*
X5893422Y-27468095D01*
X5936279Y-27430000D01*
X5995803Y-27410952D01*
X6033898Y-27410952D01*
X6088660Y-27430000D01*
X6105327Y-27449047D01*
X6441041Y-27810952D02*
X6212470Y-27810952D01*
X6326755Y-27810952D02*
X6376755Y-27410952D01*
X6331517Y-27468095D01*
X6288660Y-27506190D01*
X6248184Y-27525238D01*
X10509851Y-28642857D02*
X10488422Y-28661904D01*
X10428898Y-28680952D01*
X10390803Y-28680952D01*
X10336041Y-28661904D01*
X10302708Y-28623809D01*
X10288422Y-28585714D01*
X10278898Y-28509523D01*
X10286041Y-28452380D01*
X10314613Y-28376190D01*
X10338422Y-28338095D01*
X10381279Y-28300000D01*
X10440803Y-28280952D01*
X10478898Y-28280952D01*
X10533660Y-28300000D01*
X10550327Y-28319047D01*
X10702708Y-28319047D02*
X10724136Y-28300000D01*
X10764613Y-28280952D01*
X10859851Y-28280952D01*
X10895565Y-28300000D01*
X10912232Y-28319047D01*
X10926517Y-28357142D01*
X10921755Y-28395238D01*
X10895565Y-28452380D01*
X10638422Y-28680952D01*
X10886041Y-28680952D01*
X-3835149Y-19512857D02*
X-3856578Y-19531904D01*
X-3916102Y-19550952D01*
X-3954197Y-19550952D01*
X-4008959Y-19531904D01*
X-4042292Y-19493809D01*
X-4056578Y-19455714D01*
X-4066102Y-19379523D01*
X-4058959Y-19322380D01*
X-4030387Y-19246190D01*
X-4006578Y-19208095D01*
X-3963721Y-19170000D01*
X-3904197Y-19150952D01*
X-3866102Y-19150952D01*
X-3811340Y-19170000D01*
X-3794673Y-19189047D01*
X-3463721Y-19284285D02*
X-3497054Y-19550952D01*
X-3539911Y-19131904D02*
X-3670864Y-19417619D01*
X-3423245Y-19417619D01*
X-3835149Y-21682857D02*
X-3856578Y-21701904D01*
X-3916102Y-21720952D01*
X-3954197Y-21720952D01*
X-4008959Y-21701904D01*
X-4042292Y-21663809D01*
X-4056578Y-21625714D01*
X-4066102Y-21549523D01*
X-4058959Y-21492380D01*
X-4030387Y-21416190D01*
X-4006578Y-21378095D01*
X-3963721Y-21340000D01*
X-3904197Y-21320952D01*
X-3866102Y-21320952D01*
X-3811340Y-21340000D01*
X-3794673Y-21359047D01*
X-3428006Y-21320952D02*
X-3618483Y-21320952D01*
X-3661340Y-21511428D01*
X-3639911Y-21492380D01*
X-3599435Y-21473333D01*
X-3504197Y-21473333D01*
X-3468483Y-21492380D01*
X-3451816Y-21511428D01*
X-3437530Y-21549523D01*
X-3449435Y-21644761D01*
X-3473245Y-21682857D01*
X-3494673Y-21701904D01*
X-3535149Y-21720952D01*
X-3630387Y-21720952D01*
X-3666102Y-21701904D01*
X-3682768Y-21682857D01*
X-4935625Y-3772857D02*
X-4957054Y-3791904D01*
X-5016578Y-3810952D01*
X-5054673Y-3810952D01*
X-5109435Y-3791904D01*
X-5142768Y-3753809D01*
X-5157054Y-3715714D01*
X-5166578Y-3639523D01*
X-5159435Y-3582380D01*
X-5130864Y-3506190D01*
X-5107054Y-3468095D01*
X-5064197Y-3430000D01*
X-5004673Y-3410952D01*
X-4966578Y-3410952D01*
X-4911816Y-3430000D01*
X-4895149Y-3449047D01*
X-4742768Y-3449047D02*
X-4721340Y-3430000D01*
X-4680864Y-3410952D01*
X-4585625Y-3410952D01*
X-4549911Y-3430000D01*
X-4533245Y-3449047D01*
X-4518959Y-3487142D01*
X-4523721Y-3525238D01*
X-4549911Y-3582380D01*
X-4807054Y-3810952D01*
X-4559435Y-3810952D01*
X-4361816Y-3449047D02*
X-4340387Y-3430000D01*
X-4299911Y-3410952D01*
X-4204673Y-3410952D01*
X-4168959Y-3430000D01*
X-4152292Y-3449047D01*
X-4138006Y-3487142D01*
X-4142768Y-3525238D01*
X-4168959Y-3582380D01*
X-4426102Y-3810952D01*
X-4178483Y-3810952D01*
X-8388483Y-26430952D02*
X-8338483Y-26030952D01*
X-8243245Y-26030952D01*
X-8188483Y-26050000D01*
X-8155149Y-26088095D01*
X-8140864Y-26126190D01*
X-8131340Y-26202380D01*
X-8138483Y-26259523D01*
X-8167054Y-26335714D01*
X-8190864Y-26373809D01*
X-8233721Y-26411904D01*
X-8293245Y-26430952D01*
X-8388483Y-26430952D01*
X-7962292Y-26069047D02*
X-7940864Y-26050000D01*
X-7900387Y-26030952D01*
X-7805149Y-26030952D01*
X-7769435Y-26050000D01*
X-7752768Y-26069047D01*
X-7738483Y-26107142D01*
X-7743245Y-26145238D01*
X-7769435Y-26202380D01*
X-8026578Y-26430952D01*
X-7778959Y-26430952D01*
X6244613Y-23201428D02*
X6111279Y-23201428D01*
X6085089Y-23410952D02*
X6135089Y-23010952D01*
X6325565Y-23010952D01*
X6637470Y-23410952D02*
X6408898Y-23410952D01*
X6523184Y-23410952D02*
X6573184Y-23010952D01*
X6527946Y-23068095D01*
X6485089Y-23106190D01*
X6444613Y-23125238D01*
X10540089Y-26380952D02*
X10430565Y-26190476D01*
X10311517Y-26380952D02*
X10361517Y-25980952D01*
X10513898Y-25980952D01*
X10549613Y-26000000D01*
X10566279Y-26019047D01*
X10580565Y-26057142D01*
X10573422Y-26114285D01*
X10549613Y-26152380D01*
X10528184Y-26171428D01*
X10487708Y-26190476D01*
X10335327Y-26190476D01*
X10921041Y-26380952D02*
X10692470Y-26380952D01*
X10806755Y-26380952D02*
X10856755Y-25980952D01*
X10811517Y-26038095D01*
X10768660Y-26076190D01*
X10728184Y-26095238D01*
X-6250387Y-26580952D02*
X-6359911Y-26390476D01*
X-6478959Y-26580952D02*
X-6428959Y-26180952D01*
X-6276578Y-26180952D01*
X-6240864Y-26200000D01*
X-6224197Y-26219047D01*
X-6209911Y-26257142D01*
X-6217054Y-26314285D01*
X-6240864Y-26352380D01*
X-6262292Y-26371428D01*
X-6302768Y-26390476D01*
X-6455149Y-26390476D01*
X-5869435Y-26580952D02*
X-6098006Y-26580952D01*
X-5983721Y-26580952D02*
X-5933721Y-26180952D01*
X-5978959Y-26238095D01*
X-6021816Y-26276190D01*
X-6062292Y-26295238D01*
X-5476578Y-26180952D02*
X-5552768Y-26180952D01*
X-5593245Y-26200000D01*
X-5614673Y-26219047D01*
X-5659911Y-26276190D01*
X-5688483Y-26352380D01*
X-5707530Y-26504761D01*
X-5693245Y-26542857D01*
X-5676578Y-26561904D01*
X-5640864Y-26580952D01*
X-5564673Y-26580952D01*
X-5524197Y-26561904D01*
X-5502768Y-26542857D01*
X-5478959Y-26504761D01*
X-5467054Y-26409523D01*
X-5481340Y-26371428D01*
X-5498006Y-26352380D01*
X-5533721Y-26333333D01*
X-5609911Y-26333333D01*
X-5650387Y-26352380D01*
X-5671816Y-26371428D01*
X-5695625Y-26409523D01*
X-6250387Y-25080952D02*
X-6359911Y-24890476D01*
X-6478959Y-25080952D02*
X-6428959Y-24680952D01*
X-6276578Y-24680952D01*
X-6240864Y-24700000D01*
X-6224197Y-24719047D01*
X-6209911Y-24757142D01*
X-6217054Y-24814285D01*
X-6240864Y-24852380D01*
X-6262292Y-24871428D01*
X-6302768Y-24890476D01*
X-6455149Y-24890476D01*
X-5869435Y-25080952D02*
X-6098006Y-25080952D01*
X-5983721Y-25080952D02*
X-5933721Y-24680952D01*
X-5978959Y-24738095D01*
X-6021816Y-24776190D01*
X-6062292Y-24795238D01*
X-5678959Y-25080952D02*
X-5602768Y-25080952D01*
X-5562292Y-25061904D01*
X-5540864Y-25042857D01*
X-5495625Y-24985714D01*
X-5467054Y-24909523D01*
X-5448006Y-24757142D01*
X-5462292Y-24719047D01*
X-5478959Y-24700000D01*
X-5514673Y-24680952D01*
X-5590864Y-24680952D01*
X-5631340Y-24700000D01*
X-5652768Y-24719047D01*
X-5676578Y-24757142D01*
X-5688483Y-24852380D01*
X-5674197Y-24890476D01*
X-5657530Y-24909523D01*
X-5621816Y-24928571D01*
X-5545625Y-24928571D01*
X-5505149Y-24909523D01*
X-5483721Y-24890476D01*
X-5459911Y-24852380D01*
X-1485149Y-17962857D02*
X-1506578Y-17981904D01*
X-1566102Y-18000952D01*
X-1604197Y-18000952D01*
X-1658959Y-17981904D01*
X-1692292Y-17943809D01*
X-1706578Y-17905714D01*
X-1716102Y-17829523D01*
X-1708959Y-17772380D01*
X-1680387Y-17696190D01*
X-1656578Y-17658095D01*
X-1613721Y-17620000D01*
X-1554197Y-17600952D01*
X-1516102Y-17600952D01*
X-1461340Y-17620000D01*
X-1444673Y-17639047D01*
X-1306578Y-17600952D02*
X-1039911Y-17600952D01*
X-1261340Y-18000952D01*
X2155175Y-11092857D02*
X2133746Y-11111904D01*
X2074222Y-11130952D01*
X2036127Y-11130952D01*
X1981365Y-11111904D01*
X1948032Y-11073809D01*
X1933746Y-11035714D01*
X1924222Y-10959523D01*
X1931365Y-10902380D01*
X1959936Y-10826190D01*
X1983746Y-10788095D01*
X2026603Y-10750000D01*
X2086127Y-10730952D01*
X2124222Y-10730952D01*
X2178984Y-10750000D01*
X2195651Y-10769047D01*
X2531365Y-11130952D02*
X2302794Y-11130952D01*
X2417079Y-11130952D02*
X2467079Y-10730952D01*
X2421841Y-10788095D01*
X2378984Y-10826190D01*
X2338508Y-10845238D01*
X2714698Y-10730952D02*
X2962317Y-10730952D01*
X2809936Y-10883333D01*
X2867079Y-10883333D01*
X2902794Y-10902380D01*
X2919460Y-10921428D01*
X2933746Y-10959523D01*
X2921841Y-11054761D01*
X2898032Y-11092857D01*
X2876603Y-11111904D01*
X2836127Y-11130952D01*
X2721841Y-11130952D01*
X2686127Y-11111904D01*
X2669460Y-11092857D01*
X-7125625Y-7552857D02*
X-7147054Y-7571904D01*
X-7206578Y-7590952D01*
X-7244673Y-7590952D01*
X-7299435Y-7571904D01*
X-7332768Y-7533809D01*
X-7347054Y-7495714D01*
X-7356578Y-7419523D01*
X-7349435Y-7362380D01*
X-7320864Y-7286190D01*
X-7297054Y-7248095D01*
X-7254197Y-7210000D01*
X-7194673Y-7190952D01*
X-7156578Y-7190952D01*
X-7101816Y-7210000D01*
X-7085149Y-7229047D01*
X-6932768Y-7229047D02*
X-6911340Y-7210000D01*
X-6870864Y-7190952D01*
X-6775625Y-7190952D01*
X-6739911Y-7210000D01*
X-6723245Y-7229047D01*
X-6708959Y-7267142D01*
X-6713721Y-7305238D01*
X-6739911Y-7362380D01*
X-6997054Y-7590952D01*
X-6749435Y-7590952D01*
X-6566102Y-7190952D02*
X-6318483Y-7190952D01*
X-6470864Y-7343333D01*
X-6413721Y-7343333D01*
X-6378006Y-7362380D01*
X-6361340Y-7381428D01*
X-6347054Y-7419523D01*
X-6358959Y-7514761D01*
X-6382768Y-7552857D01*
X-6404197Y-7571904D01*
X-6444673Y-7590952D01*
X-6558959Y-7590952D01*
X-6594673Y-7571904D01*
X-6611340Y-7552857D01*
X-2065625Y3477143D02*
X-2087054Y3458096D01*
X-2146578Y3439048D01*
X-2184673Y3439048D01*
X-2239435Y3458096D01*
X-2272768Y3496191D01*
X-2287054Y3534286D01*
X-2296578Y3610477D01*
X-2289435Y3667620D01*
X-2260864Y3743810D01*
X-2237054Y3781905D01*
X-2194197Y3820000D01*
X-2134673Y3839048D01*
X-2096578Y3839048D01*
X-2041816Y3820000D01*
X-2025149Y3800953D01*
X-1872768Y3800953D02*
X-1851340Y3820000D01*
X-1810864Y3839048D01*
X-1715625Y3839048D01*
X-1679911Y3820000D01*
X-1663245Y3800953D01*
X-1648959Y3762858D01*
X-1653721Y3724762D01*
X-1679911Y3667620D01*
X-1937054Y3439048D01*
X-1689435Y3439048D01*
X-1296578Y3839048D02*
X-1372768Y3839048D01*
X-1413245Y3820000D01*
X-1434673Y3800953D01*
X-1479911Y3743810D01*
X-1508483Y3667620D01*
X-1527530Y3515239D01*
X-1513245Y3477143D01*
X-1496578Y3458096D01*
X-1460864Y3439048D01*
X-1384673Y3439048D01*
X-1344197Y3458096D01*
X-1322768Y3477143D01*
X-1298959Y3515239D01*
X-1287054Y3610477D01*
X-1301340Y3648572D01*
X-1318006Y3667620D01*
X-1353721Y3686667D01*
X-1429911Y3686667D01*
X-1470387Y3667620D01*
X-1491816Y3648572D01*
X-1515625Y3610477D01*
X7404375Y-10942857D02*
X7382946Y-10961904D01*
X7323422Y-10980952D01*
X7285327Y-10980952D01*
X7230565Y-10961904D01*
X7197232Y-10923809D01*
X7182946Y-10885714D01*
X7173422Y-10809523D01*
X7180565Y-10752380D01*
X7209136Y-10676190D01*
X7232946Y-10638095D01*
X7275803Y-10600000D01*
X7335327Y-10580952D01*
X7373422Y-10580952D01*
X7428184Y-10600000D01*
X7444851Y-10619047D01*
X7597232Y-10619047D02*
X7618660Y-10600000D01*
X7659136Y-10580952D01*
X7754375Y-10580952D01*
X7790089Y-10600000D01*
X7806755Y-10619047D01*
X7821041Y-10657142D01*
X7816279Y-10695238D01*
X7790089Y-10752380D01*
X7532946Y-10980952D01*
X7780565Y-10980952D01*
X8037708Y-10752380D02*
X8001994Y-10733333D01*
X7985327Y-10714285D01*
X7971041Y-10676190D01*
X7973422Y-10657142D01*
X7997232Y-10619047D01*
X8018660Y-10600000D01*
X8059136Y-10580952D01*
X8135327Y-10580952D01*
X8171041Y-10600000D01*
X8187708Y-10619047D01*
X8201994Y-10657142D01*
X8199613Y-10676190D01*
X8175803Y-10714285D01*
X8154375Y-10733333D01*
X8113898Y-10752380D01*
X8037708Y-10752380D01*
X7997232Y-10771428D01*
X7975803Y-10790476D01*
X7951994Y-10828571D01*
X7942470Y-10904761D01*
X7956755Y-10942857D01*
X7973422Y-10961904D01*
X8009136Y-10980952D01*
X8085327Y-10980952D01*
X8125803Y-10961904D01*
X8147232Y-10942857D01*
X8171041Y-10904761D01*
X8180565Y-10828571D01*
X8166279Y-10790476D01*
X8149613Y-10771428D01*
X8113898Y-10752380D01*
X3314375Y6337143D02*
X3292946Y6318096D01*
X3233422Y6299048D01*
X3195327Y6299048D01*
X3140565Y6318096D01*
X3107232Y6356191D01*
X3092946Y6394286D01*
X3083422Y6470477D01*
X3090565Y6527620D01*
X3119136Y6603810D01*
X3142946Y6641905D01*
X3185803Y6680000D01*
X3245327Y6699048D01*
X3283422Y6699048D01*
X3338184Y6680000D01*
X3354851Y6660953D01*
X3492946Y6699048D02*
X3740565Y6699048D01*
X3588184Y6546667D01*
X3645327Y6546667D01*
X3681041Y6527620D01*
X3697708Y6508572D01*
X3711994Y6470477D01*
X3700089Y6375239D01*
X3676279Y6337143D01*
X3654851Y6318096D01*
X3614375Y6299048D01*
X3500089Y6299048D01*
X3464375Y6318096D01*
X3447708Y6337143D01*
X3988184Y6699048D02*
X4026279Y6699048D01*
X4061994Y6680000D01*
X4078660Y6660953D01*
X4092946Y6622858D01*
X4102470Y6546667D01*
X4090565Y6451429D01*
X4061994Y6375239D01*
X4038184Y6337143D01*
X4016755Y6318096D01*
X3976279Y6299048D01*
X3938184Y6299048D01*
X3902470Y6318096D01*
X3885803Y6337143D01*
X3871517Y6375239D01*
X3861994Y6451429D01*
X3873898Y6546667D01*
X3902470Y6622858D01*
X3926279Y6660953D01*
X3947708Y6680000D01*
X3988184Y6699048D01*
X4604375Y6357143D02*
X4582946Y6338096D01*
X4523422Y6319048D01*
X4485327Y6319048D01*
X4430565Y6338096D01*
X4397232Y6376191D01*
X4382946Y6414286D01*
X4373422Y6490477D01*
X4380565Y6547620D01*
X4409136Y6623810D01*
X4432946Y6661905D01*
X4475803Y6700000D01*
X4535327Y6719048D01*
X4573422Y6719048D01*
X4628184Y6700000D01*
X4644851Y6680953D01*
X4782946Y6719048D02*
X5030565Y6719048D01*
X4878184Y6566667D01*
X4935327Y6566667D01*
X4971041Y6547620D01*
X4987708Y6528572D01*
X5001994Y6490477D01*
X4990089Y6395239D01*
X4966279Y6357143D01*
X4944851Y6338096D01*
X4904375Y6319048D01*
X4790089Y6319048D01*
X4754375Y6338096D01*
X4737708Y6357143D01*
X5361517Y6319048D02*
X5132946Y6319048D01*
X5247232Y6319048D02*
X5297232Y6719048D01*
X5251994Y6661905D01*
X5209136Y6623810D01*
X5168660Y6604762D01*
X8011517Y-29480952D02*
X8061517Y-29080952D01*
X8156755Y-29080952D01*
X8211517Y-29100000D01*
X8244851Y-29138095D01*
X8259136Y-29176190D01*
X8268660Y-29252380D01*
X8261517Y-29309523D01*
X8232946Y-29385714D01*
X8209136Y-29423809D01*
X8166279Y-29461904D01*
X8106755Y-29480952D01*
X8011517Y-29480952D01*
X8621041Y-29480952D02*
X8392470Y-29480952D01*
X8506755Y-29480952D02*
X8556755Y-29080952D01*
X8511517Y-29138095D01*
X8468660Y-29176190D01*
X8428184Y-29195238D01*
X12181517Y12999048D02*
X12231517Y13399048D01*
X12326755Y13399048D01*
X12381517Y13380000D01*
X12414851Y13341905D01*
X12429136Y13303810D01*
X12438660Y13227620D01*
X12431517Y13170477D01*
X12402946Y13094286D01*
X12379136Y13056191D01*
X12336279Y13018096D01*
X12276755Y12999048D01*
X12181517Y12999048D01*
X12821994Y13399048D02*
X12631517Y13399048D01*
X12588660Y13208572D01*
X12610089Y13227620D01*
X12650565Y13246667D01*
X12745803Y13246667D01*
X12781517Y13227620D01*
X12798184Y13208572D01*
X12812470Y13170477D01*
X12800565Y13075239D01*
X12776755Y13037143D01*
X12755327Y13018096D01*
X12714851Y12999048D01*
X12619613Y12999048D01*
X12583898Y13018096D01*
X12567232Y13037143D01*
X-14201578Y14619048D02*
X-14237292Y14333334D01*
X-14263483Y14276191D01*
X-14306340Y14238096D01*
X-14365864Y14219048D01*
X-14403959Y14219048D01*
X-14049197Y14619048D02*
X-13782530Y14619048D01*
X-14003959Y14219048D01*
X4990089Y-19280952D02*
X4799613Y-19280952D01*
X4849613Y-18880952D01*
X5332946Y-19280952D02*
X5104375Y-19280952D01*
X5218660Y-19280952D02*
X5268660Y-18880952D01*
X5223422Y-18938095D01*
X5180565Y-18976190D01*
X5140089Y-18995238D01*
X2400089Y3659048D02*
X2209613Y3659048D01*
X2259613Y4059048D01*
X2559613Y4020953D02*
X2581041Y4040000D01*
X2621517Y4059048D01*
X2716755Y4059048D01*
X2752470Y4040000D01*
X2769136Y4020953D01*
X2783422Y3982858D01*
X2778660Y3944762D01*
X2752470Y3887620D01*
X2495327Y3659048D01*
X2742946Y3659048D01*
X7390089Y-9180952D02*
X7199613Y-9180952D01*
X7249613Y-8780952D01*
X7728184Y-8914285D02*
X7694851Y-9180952D01*
X7651994Y-8761904D02*
X7521041Y-9047619D01*
X7768660Y-9047619D01*
D13*
X-9480953Y-20346428D02*
X-8719048Y-20346428D01*
X-9100000Y-20727380D02*
X-9100000Y-19965476D01*
D10*
X-12078959Y-18630952D02*
X-12028959Y-18230952D01*
X-11876578Y-18230952D01*
X-11840864Y-18250000D01*
X-11824197Y-18269047D01*
X-11809911Y-18307142D01*
X-11817054Y-18364285D01*
X-11840864Y-18402380D01*
X-11862292Y-18421428D01*
X-11902768Y-18440476D01*
X-12055149Y-18440476D01*
X-11667054Y-18230952D02*
X-11400387Y-18230952D01*
X-11717054Y-18630952D01*
X-11450387Y-18630952D01*
X-11088483Y-18630952D02*
X-11317054Y-18630952D01*
X-11202768Y-18630952D02*
X-11152768Y-18230952D01*
X-11198006Y-18288095D01*
X-11240864Y-18326190D01*
X-11281340Y-18345238D01*
X-7679911Y289048D02*
X-7789435Y479524D01*
X-7908483Y289048D02*
X-7858483Y689048D01*
X-7706102Y689048D01*
X-7670387Y670000D01*
X-7653721Y650953D01*
X-7639435Y612858D01*
X-7646578Y555715D01*
X-7670387Y517620D01*
X-7691816Y498572D01*
X-7732292Y479524D01*
X-7884673Y479524D01*
X-7268006Y689048D02*
X-7458483Y689048D01*
X-7501340Y498572D01*
X-7479911Y517620D01*
X-7439435Y536667D01*
X-7344197Y536667D01*
X-7308483Y517620D01*
X-7291816Y498572D01*
X-7277530Y460477D01*
X-7289435Y365239D01*
X-7313245Y327143D01*
X-7334673Y308096D01*
X-7375149Y289048D01*
X-7470387Y289048D01*
X-7506102Y308096D01*
X-7522768Y327143D01*
X-4684788Y-10187543D02*
X-4708598Y-10378019D01*
X-4791931Y-9978019D02*
X-4684788Y-10187543D01*
X-4525264Y-9978019D01*
X-4232407Y-10378019D02*
X-4460979Y-10378019D01*
X-4346693Y-10378019D02*
X-4296693Y-9978019D01*
X-4341931Y-10035162D01*
X-4384788Y-10073257D01*
X-4425264Y-10092305D01*
X73422Y-27630952D02*
X37708Y-27916666D01*
X11517Y-27973809D01*
X-31340Y-28011904D01*
X-90864Y-28030952D01*
X-128959Y-28030952D01*
X240089Y-27669047D02*
X261517Y-27650000D01*
X301994Y-27630952D01*
X397232Y-27630952D01*
X432946Y-27650000D01*
X449613Y-27669047D01*
X463898Y-27707142D01*
X459136Y-27745238D01*
X432946Y-27802380D01*
X175803Y-28030952D01*
X423422Y-28030952D01*
X14385803Y11328096D02*
X14440565Y11309048D01*
X14535803Y11309048D01*
X14576279Y11328096D01*
X14597708Y11347143D01*
X14621517Y11385239D01*
X14626279Y11423334D01*
X14611994Y11461429D01*
X14595327Y11480477D01*
X14559613Y11499524D01*
X14485803Y11518572D01*
X14450089Y11537620D01*
X14433422Y11556667D01*
X14419136Y11594762D01*
X14423898Y11632858D01*
X14447708Y11670953D01*
X14469136Y11690000D01*
X14509613Y11709048D01*
X14604851Y11709048D01*
X14659613Y11690000D01*
X14795327Y11709048D02*
X14840565Y11309048D01*
X14952470Y11594762D01*
X14992946Y11309048D01*
X15138184Y11709048D01*
X15266755Y11670953D02*
X15288184Y11690000D01*
X15328660Y11709048D01*
X15423898Y11709048D01*
X15459613Y11690000D01*
X15476279Y11670953D01*
X15490565Y11632858D01*
X15485803Y11594762D01*
X15459613Y11537620D01*
X15202470Y11309048D01*
X15450089Y11309048D01*
X-12795625Y18278572D02*
X-12928959Y18278572D01*
X-12955149Y18069048D02*
X-12905149Y18469048D01*
X-12714673Y18469048D01*
X-12612292Y18069048D02*
X-12562292Y18469048D01*
X-12421816Y18069048D02*
X-12371816Y18469048D01*
X-12276578Y18469048D01*
X-12221816Y18450000D01*
X-12188483Y18411905D01*
X-12174197Y18373810D01*
X-12164673Y18297620D01*
X-12171816Y18240477D01*
X-12200387Y18164286D01*
X-12224197Y18126191D01*
X-12267054Y18088096D01*
X-12326578Y18069048D01*
X-12421816Y18069048D01*
X-12009911Y18469048D02*
X-11762292Y18469048D01*
X-11914673Y18316667D01*
X-11857530Y18316667D01*
X-11821816Y18297620D01*
X-11805149Y18278572D01*
X-11790864Y18240477D01*
X-11802768Y18145239D01*
X-11826578Y18107143D01*
X-11848006Y18088096D01*
X-11888483Y18069048D01*
X-12002768Y18069048D01*
X-12038483Y18088096D01*
X-12055149Y18107143D01*
X14532946Y-14780952D02*
X14497232Y-15066666D01*
X14471041Y-15123809D01*
X14428184Y-15161904D01*
X14368660Y-15180952D01*
X14330565Y-15180952D01*
X14882946Y-15180952D02*
X14654375Y-15180952D01*
X14768660Y-15180952D02*
X14818660Y-14780952D01*
X14773422Y-14838095D01*
X14730565Y-14876190D01*
X14690089Y-14895238D01*
X15180565Y-14780952D02*
X15218660Y-14780952D01*
X15254375Y-14800000D01*
X15271041Y-14819047D01*
X15285327Y-14857142D01*
X15294851Y-14933333D01*
X15282946Y-15028571D01*
X15254375Y-15104761D01*
X15230565Y-15142857D01*
X15209136Y-15161904D01*
X15168660Y-15180952D01*
X15130565Y-15180952D01*
X15094851Y-15161904D01*
X15078184Y-15142857D01*
X15063898Y-15104761D01*
X15054375Y-15028571D01*
X15066279Y-14933333D01*
X15094851Y-14857142D01*
X15118660Y-14819047D01*
X15140089Y-14800000D01*
X15180565Y-14780952D01*
X12221428Y18278572D02*
X12088095Y18278572D01*
X12088095Y18069048D02*
X12088095Y18469048D01*
X12278571Y18469048D01*
X12430952Y18069048D02*
X12430952Y18469048D01*
X12621428Y18069048D02*
X12621428Y18469048D01*
X12716666Y18469048D01*
X12773809Y18450000D01*
X12811904Y18411905D01*
X12830952Y18373810D01*
X12850000Y18297620D01*
X12850000Y18240477D01*
X12830952Y18164286D01*
X12811904Y18126191D01*
X12773809Y18088096D01*
X12716666Y18069048D01*
X12621428Y18069048D01*
X13211904Y18469048D02*
X13021428Y18469048D01*
X13002380Y18278572D01*
X13021428Y18297620D01*
X13059523Y18316667D01*
X13154761Y18316667D01*
X13192857Y18297620D01*
X13211904Y18278572D01*
X13230952Y18240477D01*
X13230952Y18145239D01*
X13211904Y18107143D01*
X13192857Y18088096D01*
X13154761Y18069048D01*
X13059523Y18069048D01*
X13021428Y18088096D01*
X13002380Y18107143D01*
X80812Y14124907D02*
X-148156Y14165313D01*
X-80813Y13963283D02*
X-363655Y14246126D01*
X-255906Y14353875D01*
X-215500Y14367344D01*
X-188562Y14367344D01*
X-148156Y14353875D01*
X-107750Y14313469D01*
X-94281Y14273063D01*
X-94281Y14246126D01*
X-107750Y14205720D01*
X-215500Y14097970D01*
X215499Y14259594D02*
X269374Y14313469D01*
X282842Y14353875D01*
X282842Y14380813D01*
X269374Y14448156D01*
X228967Y14515500D01*
X121218Y14623249D01*
X80812Y14636718D01*
X53874Y14636718D01*
X13468Y14623249D01*
X-40407Y14569375D01*
X-53875Y14528968D01*
X-53875Y14502031D01*
X-40407Y14461625D01*
X26937Y14394281D01*
X67343Y14380813D01*
X94280Y14380813D01*
X134687Y14394281D01*
X188561Y14448156D01*
X202030Y14488562D01*
X202030Y14515500D01*
X188561Y14555906D01*
X8007375Y15910143D02*
X7985946Y15891096D01*
X7926422Y15872048D01*
X7888327Y15872048D01*
X7833565Y15891096D01*
X7800232Y15929191D01*
X7785946Y15967286D01*
X7776422Y16043477D01*
X7783565Y16100620D01*
X7812136Y16176810D01*
X7835946Y16214905D01*
X7878803Y16253000D01*
X7938327Y16272048D01*
X7976422Y16272048D01*
X8031184Y16253000D01*
X8047851Y16233953D01*
X8414517Y16272048D02*
X8224041Y16272048D01*
X8181184Y16081572D01*
X8202613Y16100620D01*
X8243089Y16119667D01*
X8338327Y16119667D01*
X8374041Y16100620D01*
X8390708Y16081572D01*
X8404994Y16043477D01*
X8393089Y15948239D01*
X8369279Y15910143D01*
X8347851Y15891096D01*
X8307375Y15872048D01*
X8212136Y15872048D01*
X8176422Y15891096D01*
X8159755Y15910143D01*
X8759755Y16138715D02*
X8726422Y15872048D01*
X8683565Y16291096D02*
X8552613Y16005381D01*
X8800232Y16005381D01*
X6362375Y14094143D02*
X6340946Y14075096D01*
X6281422Y14056048D01*
X6243327Y14056048D01*
X6188565Y14075096D01*
X6155232Y14113191D01*
X6140946Y14151286D01*
X6131422Y14227477D01*
X6138565Y14284620D01*
X6167136Y14360810D01*
X6190946Y14398905D01*
X6233803Y14437000D01*
X6293327Y14456048D01*
X6331422Y14456048D01*
X6386184Y14437000D01*
X6402851Y14417953D01*
X6769517Y14456048D02*
X6579041Y14456048D01*
X6536184Y14265572D01*
X6557613Y14284620D01*
X6598089Y14303667D01*
X6693327Y14303667D01*
X6729041Y14284620D01*
X6745708Y14265572D01*
X6759994Y14227477D01*
X6748089Y14132239D01*
X6724279Y14094143D01*
X6702851Y14075096D01*
X6662375Y14056048D01*
X6567136Y14056048D01*
X6531422Y14075096D01*
X6514755Y14094143D01*
X7150470Y14456048D02*
X6959994Y14456048D01*
X6917136Y14265572D01*
X6938565Y14284620D01*
X6979041Y14303667D01*
X7074279Y14303667D01*
X7109994Y14284620D01*
X7126660Y14265572D01*
X7140946Y14227477D01*
X7129041Y14132239D01*
X7105232Y14094143D01*
X7083803Y14075096D01*
X7043327Y14056048D01*
X6948089Y14056048D01*
X6912375Y14075096D01*
X6895708Y14094143D01*
X7992857Y18653048D02*
X7802380Y18653048D01*
X7802380Y19053048D01*
X8335714Y18653048D02*
X8107142Y18653048D01*
X8221428Y18653048D02*
X8221428Y19053048D01*
X8183333Y18995905D01*
X8145238Y18957810D01*
X8107142Y18938762D01*
X8469047Y19053048D02*
X8716666Y19053048D01*
X8583333Y18900667D01*
X8640476Y18900667D01*
X8678571Y18881620D01*
X8697619Y18862572D01*
X8716666Y18824477D01*
X8716666Y18729239D01*
X8697619Y18691143D01*
X8678571Y18672096D01*
X8640476Y18653048D01*
X8526190Y18653048D01*
X8488095Y18672096D01*
X8469047Y18691143D01*
X8756857Y17296048D02*
X8566380Y17296048D01*
X8566380Y17696048D01*
X9099714Y17296048D02*
X8871142Y17296048D01*
X8985428Y17296048D02*
X8985428Y17696048D01*
X8947333Y17638905D01*
X8909238Y17600810D01*
X8871142Y17581762D01*
X9442571Y17562715D02*
X9442571Y17296048D01*
X9347333Y17715096D02*
X9252095Y17429381D01*
X9499714Y17429381D01*
M02*
