G04 #@! TF.GenerationSoftware,KiCad,Pcbnew,(5.1.7)-1*
G04 #@! TF.CreationDate,2020-11-04T19:15:34+01:00*
G04 #@! TF.ProjectId,generic_node,67656e65-7269-4635-9f6e-6f64652e6b69,2.0.2*
G04 #@! TF.SameCoordinates,PX510ff40PY6422c40*
G04 #@! TF.FileFunction,Legend,Bot*
G04 #@! TF.FilePolarity,Positive*
%FSLAX46Y46*%
G04 Gerber Fmt 4.6, Leading zero omitted, Abs format (unit mm)*
G04 Created by KiCad (PCBNEW (5.1.7)-1) date 2020-11-04 19:15:34*
%MOMM*%
%LPD*%
G01*
G04 APERTURE LIST*
%ADD10C,0.200000*%
%ADD11C,0.175000*%
%ADD12C,0.150000*%
%ADD13C,0.010000*%
%ADD14C,0.120000*%
G04 APERTURE END LIST*
D10*
X-10673453Y7192858D02*
X-10785953Y8092858D01*
X-11244881Y7192858D01*
X-11357381Y8092858D01*
X-12292500Y7192858D02*
X-12012739Y7621429D01*
X-11721072Y7192858D02*
X-11833572Y8092858D01*
X-12214524Y8092858D01*
X-12304405Y8050000D01*
X-12346667Y8007143D01*
X-12383572Y7921429D01*
X-12367500Y7792858D01*
X-12309167Y7707143D01*
X-12256191Y7664286D01*
X-12155596Y7621429D01*
X-11774643Y7621429D01*
X-12678810Y7235715D02*
X-12816310Y7192858D01*
X-13054405Y7192858D01*
X-13155000Y7235715D01*
X-13207977Y7278572D01*
X-13266310Y7364286D01*
X-13277024Y7450000D01*
X-13240120Y7535715D01*
X-13197858Y7578572D01*
X-13107977Y7621429D01*
X-12922858Y7664286D01*
X-12832977Y7707143D01*
X-12790715Y7750000D01*
X-12753810Y7835715D01*
X-12764524Y7921429D01*
X-12822858Y8007143D01*
X-12875834Y8050000D01*
X-12976429Y8092858D01*
X-13214524Y8092858D01*
X-13352024Y8050000D01*
X-13643096Y8092858D02*
X-14214524Y8092858D01*
X-13816310Y7192858D02*
X-13928810Y8092858D01*
X-11297858Y4677382D02*
X-11435358Y4634525D01*
X-11673453Y4634525D01*
X-11774048Y4677382D01*
X-11827025Y4720239D01*
X-11885358Y4805953D01*
X-11896072Y4891667D01*
X-11859167Y4977382D01*
X-11816906Y5020239D01*
X-11727025Y5063096D01*
X-11541906Y5105953D01*
X-11452025Y5148810D01*
X-11409763Y5191667D01*
X-11372858Y5277382D01*
X-11383572Y5363096D01*
X-11441906Y5448810D01*
X-11494882Y5491667D01*
X-11595477Y5534525D01*
X-11833572Y5534525D01*
X-11971072Y5491667D01*
X-12309763Y5534525D02*
X-12435358Y4634525D01*
X-12706191Y5277382D01*
X-12816310Y4634525D01*
X-13166906Y5534525D01*
X-13435358Y4634525D02*
X-13547858Y5534525D01*
X-13785953Y5534525D01*
X-13923453Y5491667D01*
X-14007977Y5405953D01*
X-14044882Y5320239D01*
X-14071072Y5148810D01*
X-14055001Y5020239D01*
X-13985953Y4848810D01*
X-13927620Y4763096D01*
X-13821667Y4677382D01*
X-13673453Y4634525D01*
X-13435358Y4634525D01*
X-12207977Y2161906D02*
X-12155001Y2119049D01*
X-12006786Y2076192D01*
X-11911548Y2076192D01*
X-11774048Y2119049D01*
X-11689524Y2204763D01*
X-11652620Y2290477D01*
X-11626429Y2461906D01*
X-11642501Y2590477D01*
X-11711548Y2761906D01*
X-11769881Y2847620D01*
X-11875834Y2933334D01*
X-12024048Y2976192D01*
X-12119286Y2976192D01*
X-12256786Y2933334D01*
X-12299048Y2890477D01*
X-13102024Y2076192D02*
X-12625834Y2076192D01*
X-12738334Y2976192D01*
X-13435358Y2076192D02*
X-13547858Y2976192D01*
X-14006786Y2076192D02*
X-13642501Y2590477D01*
X-14119286Y2976192D02*
X-13483572Y2461906D01*
X-11690715Y417859D02*
X-12262143Y417859D01*
X-11863929Y-482141D02*
X-11976429Y417859D01*
X-12500239Y417859D02*
X-13054405Y-482141D01*
X-13166905Y417859D02*
X-12387739Y-482141D01*
X-13435358Y-482141D02*
X-13547858Y417859D01*
X-13785953Y417859D01*
X-13923453Y375001D01*
X-14007977Y289287D01*
X-14044881Y203573D01*
X-14071072Y32144D01*
X-14055000Y-96427D01*
X-13985953Y-267856D01*
X-13927619Y-353570D01*
X-13821667Y-439284D01*
X-13673453Y-482141D01*
X-13435358Y-482141D01*
X-12054405Y-3040474D02*
X-11774644Y-2611903D01*
X-11482977Y-3040474D02*
X-11595477Y-2140474D01*
X-11976429Y-2140474D01*
X-12066310Y-2183332D01*
X-12108572Y-2226189D01*
X-12145477Y-2311903D01*
X-12129405Y-2440474D01*
X-12071072Y-2526189D01*
X-12018096Y-2569046D01*
X-11917501Y-2611903D01*
X-11536548Y-2611903D01*
X-12500239Y-2140474D02*
X-13054405Y-3040474D01*
X-13166905Y-2140474D02*
X-12387739Y-3040474D01*
X-13435358Y-3040474D02*
X-13547858Y-2140474D01*
X-13785953Y-2140474D01*
X-13923453Y-2183332D01*
X-14007977Y-2269046D01*
X-14044882Y-2354760D01*
X-14071072Y-2526189D01*
X-14055001Y-2654760D01*
X-13985953Y-2826189D01*
X-13927620Y-2911903D01*
X-13821667Y-2997617D01*
X-13673453Y-3040474D01*
X-13435358Y-3040474D01*
X-11547858Y-4698807D02*
X-11768691Y-5598807D01*
X-12214524Y-4698807D01*
X-13017501Y-5513093D02*
X-12964524Y-5555950D01*
X-12816310Y-5598807D01*
X-12721072Y-5598807D01*
X-12583572Y-5555950D01*
X-12499048Y-5470236D01*
X-12462143Y-5384522D01*
X-12435953Y-5213093D01*
X-12452024Y-5084522D01*
X-12521072Y-4913093D01*
X-12579405Y-4827379D01*
X-12685358Y-4741665D01*
X-12833572Y-4698807D01*
X-12928810Y-4698807D01*
X-13066310Y-4741665D01*
X-13108572Y-4784522D01*
X-14017501Y-5513093D02*
X-13964524Y-5555950D01*
X-13816310Y-5598807D01*
X-13721072Y-5598807D01*
X-13583572Y-5555950D01*
X-13499048Y-5470236D01*
X-13462143Y-5384522D01*
X-13435953Y-5213093D01*
X-13452024Y-5084522D01*
X-13521072Y-4913093D01*
X-13579405Y-4827379D01*
X-13685358Y-4741665D01*
X-13833572Y-4698807D01*
X-13928810Y-4698807D01*
X-14066310Y-4741665D01*
X-14108572Y-4784522D01*
X-12018691Y-7300000D02*
X-11928810Y-7257142D01*
X-11785953Y-7257142D01*
X-11637739Y-7300000D01*
X-11531786Y-7385714D01*
X-11473453Y-7471428D01*
X-11404406Y-7642857D01*
X-11388334Y-7771428D01*
X-11414525Y-7942857D01*
X-11451429Y-8028571D01*
X-11535953Y-8114285D01*
X-11673453Y-8157142D01*
X-11768691Y-8157142D01*
X-11916906Y-8114285D01*
X-11969882Y-8071428D01*
X-12007382Y-7771428D01*
X-11816906Y-7771428D01*
X-12387739Y-8157142D02*
X-12500239Y-7257142D01*
X-12959167Y-8157142D01*
X-13071667Y-7257142D01*
X-13435358Y-8157142D02*
X-13547858Y-7257142D01*
X-13785953Y-7257142D01*
X-13923453Y-7300000D01*
X-14007977Y-7385714D01*
X-14044882Y-7471428D01*
X-14071072Y-7642857D01*
X-14055001Y-7771428D01*
X-13985953Y-7942857D01*
X-13927620Y-8028571D01*
X-13821667Y-8114285D01*
X-13673453Y-8157142D01*
X-13435358Y-8157142D01*
D11*
X10840699Y4636334D02*
X10753199Y5336334D01*
X10448437Y5336334D01*
X10376413Y5303000D01*
X10342485Y5269667D01*
X10312723Y5203000D01*
X10325223Y5103000D01*
X10371651Y5036334D01*
X10413913Y5003000D01*
X10494270Y4969667D01*
X10799032Y4969667D01*
X10053794Y4836334D02*
X9672842Y4836334D01*
X10154985Y4636334D02*
X9800818Y5336334D01*
X9621651Y4636334D01*
X8935937Y4636334D02*
X9393080Y4636334D01*
X9164508Y4636334D02*
X9077008Y5336334D01*
X9165699Y5236334D01*
X9250223Y5169667D01*
X9330580Y5136334D01*
X8124628Y5336334D02*
X8505580Y5336334D01*
X8585342Y5003000D01*
X8543080Y5036334D01*
X8462723Y5069667D01*
X8272247Y5069667D01*
X8200223Y5036334D01*
X8166294Y5003000D01*
X8136532Y4936334D01*
X8157366Y4769667D01*
X8203794Y4703000D01*
X8246056Y4669667D01*
X8326413Y4636334D01*
X8516889Y4636334D01*
X8588913Y4669667D01*
X8622842Y4703000D01*
D12*
X14200000Y-3600000D02*
X15000000Y-2800000D01*
X11200000Y-3600000D02*
X14200000Y-3600000D01*
X10800000Y-3200000D02*
X11200000Y-3600000D01*
X14200000Y6400000D02*
X14900000Y7100000D01*
X11200000Y6400000D02*
X14200000Y6400000D01*
X10800000Y6800000D02*
X11200000Y6400000D01*
X14200000Y3800000D02*
X14800000Y4400000D01*
X11400000Y3800000D02*
X14200000Y3800000D01*
X10800000Y4400000D02*
X11400000Y3800000D01*
X14200000Y1350000D02*
X14800000Y1950000D01*
X11000000Y1350000D02*
X14200000Y1350000D01*
X10800000Y1550000D02*
X11000000Y1350000D01*
X14200000Y-1200000D02*
X15000000Y-400000D01*
X11000000Y-1200000D02*
X14200000Y-1200000D01*
X10800000Y-1000000D02*
X11000000Y-1200000D01*
D11*
X10840699Y7011234D02*
X10753199Y7711234D01*
X10448437Y7711234D01*
X10376413Y7677900D01*
X10342485Y7644567D01*
X10312723Y7577900D01*
X10325223Y7477900D01*
X10371651Y7411234D01*
X10413913Y7377900D01*
X10494270Y7344567D01*
X10799032Y7344567D01*
X9728199Y7377900D02*
X9618080Y7344567D01*
X9584151Y7311234D01*
X9554389Y7244567D01*
X9566889Y7144567D01*
X9613318Y7077900D01*
X9655580Y7044567D01*
X9735937Y7011234D01*
X10040699Y7011234D01*
X9953199Y7711234D01*
X9686532Y7711234D01*
X9614508Y7677900D01*
X9580580Y7644567D01*
X9550818Y7577900D01*
X9559151Y7511234D01*
X9605580Y7444567D01*
X9647842Y7411234D01*
X9728199Y7377900D01*
X9994866Y7377900D01*
X9229389Y7711234D02*
X8734151Y7711234D01*
X9034151Y7444567D01*
X8919866Y7444567D01*
X8847842Y7411234D01*
X8813913Y7377900D01*
X8784151Y7311234D01*
X8804985Y7144567D01*
X8851413Y7077900D01*
X8893675Y7044567D01*
X8974032Y7011234D01*
X9202604Y7011234D01*
X9274627Y7044567D01*
X9308556Y7077900D01*
X10840699Y1753434D02*
X10753199Y2453434D01*
X10448437Y2453434D01*
X10376413Y2420100D01*
X10342485Y2386767D01*
X10312723Y2320100D01*
X10325223Y2220100D01*
X10371651Y2153434D01*
X10413913Y2120100D01*
X10494270Y2086767D01*
X10799032Y2086767D01*
X10053794Y1953434D02*
X9672842Y1953434D01*
X10154985Y1753434D02*
X9800818Y2453434D01*
X9621651Y1753434D01*
X8935937Y1753434D02*
X9393080Y1753434D01*
X9164508Y1753434D02*
X9077008Y2453434D01*
X9165699Y2353434D01*
X9250223Y2286767D01*
X9330580Y2253434D01*
X8552008Y2386767D02*
X8509747Y2420100D01*
X8429389Y2453434D01*
X8238913Y2453434D01*
X8166889Y2420100D01*
X8132961Y2386767D01*
X8103199Y2320100D01*
X8111532Y2253434D01*
X8162128Y2153434D01*
X8669270Y1753434D01*
X8174032Y1753434D01*
X10840699Y-816666D02*
X10753199Y-116666D01*
X10448437Y-116666D01*
X10376413Y-150000D01*
X10342485Y-183333D01*
X10312723Y-250000D01*
X10325223Y-350000D01*
X10371651Y-416666D01*
X10413913Y-450000D01*
X10494270Y-483333D01*
X10799032Y-483333D01*
X10053794Y-616666D02*
X9672842Y-616666D01*
X10154985Y-816666D02*
X9800818Y-116666D01*
X9621651Y-816666D01*
X8935937Y-816666D02*
X9393080Y-816666D01*
X9164508Y-816666D02*
X9077008Y-116666D01*
X9165699Y-216666D01*
X9250223Y-283333D01*
X9330580Y-316666D01*
X8174032Y-816666D02*
X8631175Y-816666D01*
X8402604Y-816666D02*
X8315104Y-116666D01*
X8403794Y-216666D01*
X8488318Y-283333D01*
X8568675Y-316666D01*
D10*
X10724434Y-2047142D02*
X10503600Y-2947142D01*
X10057767Y-2047142D01*
X9254791Y-2861428D02*
X9307767Y-2904285D01*
X9455981Y-2947142D01*
X9551219Y-2947142D01*
X9688719Y-2904285D01*
X9773243Y-2818571D01*
X9810148Y-2732857D01*
X9836338Y-2561428D01*
X9820267Y-2432857D01*
X9751219Y-2261428D01*
X9692886Y-2175714D01*
X9586934Y-2090000D01*
X9438719Y-2047142D01*
X9343481Y-2047142D01*
X9205981Y-2090000D01*
X9163719Y-2132857D01*
X8254791Y-2861428D02*
X8307767Y-2904285D01*
X8455981Y-2947142D01*
X8551219Y-2947142D01*
X8688719Y-2904285D01*
X8773243Y-2818571D01*
X8810148Y-2732857D01*
X8836338Y-2561428D01*
X8820267Y-2432857D01*
X8751219Y-2261428D01*
X8692886Y-2175714D01*
X8586934Y-2090000D01*
X8438719Y-2047142D01*
X8343481Y-2047142D01*
X8205981Y-2090000D01*
X8163719Y-2132857D01*
X13400029Y-4650000D02*
X13489910Y-4607142D01*
X13632767Y-4607142D01*
X13780982Y-4650000D01*
X13886934Y-4735714D01*
X13945267Y-4821428D01*
X14014315Y-4992857D01*
X14030386Y-5121428D01*
X14004196Y-5292857D01*
X13967291Y-5378571D01*
X13882767Y-5464285D01*
X13745267Y-5507142D01*
X13650029Y-5507142D01*
X13501815Y-5464285D01*
X13448839Y-5421428D01*
X13411339Y-5121428D01*
X13601815Y-5121428D01*
X13030982Y-5507142D02*
X12918482Y-4607142D01*
X12459553Y-5507142D01*
X12347053Y-4607142D01*
X11983363Y-5507142D02*
X11870863Y-4607142D01*
X11632767Y-4607142D01*
X11495267Y-4650000D01*
X11410744Y-4735714D01*
X11373839Y-4821428D01*
X11347648Y-4992857D01*
X11363720Y-5121428D01*
X11432767Y-5292857D01*
X11491101Y-5378571D01*
X11597053Y-5464285D01*
X11745267Y-5507142D01*
X11983363Y-5507142D01*
X14028005Y-7127142D02*
X13807172Y-8027142D01*
X13361339Y-7127142D01*
X13140505Y-8027142D02*
X13028005Y-7127142D01*
X12664315Y-8027142D02*
X12551815Y-7127142D01*
X12092886Y-8027142D01*
X11980386Y-7127142D01*
D12*
X900000Y-25000000D02*
X1450000Y-25000000D01*
X0Y-25900000D02*
X-1000000Y-25900000D01*
X0Y-25900000D02*
X900000Y-25000000D01*
X-2100000Y-15600000D02*
X-2100000Y-17650000D01*
X-1100000Y-14600000D02*
X-2100000Y-15600000D01*
X-9600000Y-11300000D02*
X-9350000Y-11300000D01*
X10100000Y-11300000D02*
X9600000Y-11300000D01*
X10800000Y-12000000D02*
X10100000Y-11300000D01*
X-10400000Y-12100000D02*
X-9600000Y-11300000D01*
X-10400000Y-12300000D02*
X-10400000Y-12100000D01*
X10800000Y-12000000D02*
X11200000Y-12400000D01*
D10*
X-4013000Y-24099190D02*
X-4013000Y-24575380D01*
X-3679667Y-23575380D02*
X-4013000Y-24099190D01*
X-4346334Y-23575380D01*
X201666Y-19887619D02*
X868333Y-18887619D01*
X868333Y-19887619D02*
X201666Y-18887619D01*
D12*
X-4001975Y-23221554D02*
X-3501974Y-22721553D01*
X-4001975Y-23221554D02*
X-4501975Y-22721553D01*
X-157000Y-19368000D02*
X-657000Y-19868000D01*
X-157000Y-19368000D02*
X-656999Y-18868000D01*
X-4001975Y-20221553D02*
X-4001975Y-23221554D01*
X-3157000Y-19368000D02*
X-157000Y-19368000D01*
D10*
X-5063667Y-18464380D02*
X-5730334Y-18464380D01*
X-5063667Y-19464380D01*
X-5730334Y-19464380D01*
D12*
X-3257000Y-19368000D02*
G75*
G03*
X-3257000Y-19368000I-750000J0D01*
G01*
X-3757000Y-19368000D02*
G75*
G03*
X-3757000Y-19368000I-250000J0D01*
G01*
D13*
G36*
X495040Y-23531840D02*
G01*
X759200Y-23531840D01*
X759200Y-23632774D01*
X530600Y-23638520D01*
X527504Y-23686780D01*
X524407Y-23735040D01*
X759200Y-23735040D01*
X759200Y-23846800D01*
X483767Y-23846800D01*
X486864Y-23895060D01*
X489960Y-23943320D01*
X881120Y-23948838D01*
X881120Y-23430240D01*
X495040Y-23430240D01*
X495040Y-23531840D01*
G37*
X495040Y-23531840D02*
X759200Y-23531840D01*
X759200Y-23632774D01*
X530600Y-23638520D01*
X527504Y-23686780D01*
X524407Y-23735040D01*
X759200Y-23735040D01*
X759200Y-23846800D01*
X483767Y-23846800D01*
X486864Y-23895060D01*
X489960Y-23943320D01*
X881120Y-23948838D01*
X881120Y-23430240D01*
X495040Y-23430240D01*
X495040Y-23531840D01*
G36*
X1220987Y-23431632D02*
G01*
X1160530Y-23436308D01*
X1113387Y-23445016D01*
X1076133Y-23458505D01*
X1045344Y-23477522D01*
X1032434Y-23488310D01*
X995628Y-23534167D01*
X977275Y-23588487D01*
X977427Y-23651108D01*
X977707Y-23653037D01*
X985632Y-23685082D01*
X1001433Y-23712363D01*
X1029689Y-23742776D01*
X1029825Y-23742907D01*
X1075034Y-23786335D01*
X1023797Y-23860452D01*
X1000936Y-23894253D01*
X983331Y-23921674D01*
X973637Y-23938518D01*
X972560Y-23941484D01*
X981781Y-23945171D01*
X1005694Y-23947680D01*
X1032030Y-23948400D01*
X1091499Y-23948400D01*
X1138791Y-23877280D01*
X1186082Y-23806160D01*
X1296752Y-23806160D01*
X1302760Y-23943320D01*
X1353951Y-23946316D01*
X1384740Y-23946714D01*
X1406629Y-23944413D01*
X1412371Y-23942083D01*
X1414359Y-23930328D01*
X1416139Y-23901089D01*
X1417630Y-23857200D01*
X1418754Y-23801496D01*
X1419432Y-23736811D01*
X1419600Y-23682546D01*
X1419600Y-23531840D01*
X1297680Y-23531840D01*
X1297680Y-23704560D01*
X1231136Y-23704560D01*
X1188016Y-23702077D01*
X1151711Y-23695479D01*
X1135847Y-23689695D01*
X1108321Y-23668904D01*
X1096046Y-23639954D01*
X1094480Y-23618200D01*
X1101013Y-23581222D01*
X1121551Y-23555167D01*
X1157506Y-23539143D01*
X1210291Y-23532258D01*
X1231136Y-23531840D01*
X1297680Y-23531840D01*
X1419600Y-23531840D01*
X1419600Y-23430240D01*
X1298181Y-23430240D01*
X1220987Y-23431632D01*
G37*
X1220987Y-23431632D02*
X1160530Y-23436308D01*
X1113387Y-23445016D01*
X1076133Y-23458505D01*
X1045344Y-23477522D01*
X1032434Y-23488310D01*
X995628Y-23534167D01*
X977275Y-23588487D01*
X977427Y-23651108D01*
X977707Y-23653037D01*
X985632Y-23685082D01*
X1001433Y-23712363D01*
X1029689Y-23742776D01*
X1029825Y-23742907D01*
X1075034Y-23786335D01*
X1023797Y-23860452D01*
X1000936Y-23894253D01*
X983331Y-23921674D01*
X973637Y-23938518D01*
X972560Y-23941484D01*
X981781Y-23945171D01*
X1005694Y-23947680D01*
X1032030Y-23948400D01*
X1091499Y-23948400D01*
X1138791Y-23877280D01*
X1186082Y-23806160D01*
X1296752Y-23806160D01*
X1302760Y-23943320D01*
X1353951Y-23946316D01*
X1384740Y-23946714D01*
X1406629Y-23944413D01*
X1412371Y-23942083D01*
X1414359Y-23930328D01*
X1416139Y-23901089D01*
X1417630Y-23857200D01*
X1418754Y-23801496D01*
X1419432Y-23736811D01*
X1419600Y-23682546D01*
X1419600Y-23531840D01*
X1297680Y-23531840D01*
X1297680Y-23704560D01*
X1231136Y-23704560D01*
X1188016Y-23702077D01*
X1151711Y-23695479D01*
X1135847Y-23689695D01*
X1108321Y-23668904D01*
X1096046Y-23639954D01*
X1094480Y-23618200D01*
X1101013Y-23581222D01*
X1121551Y-23555167D01*
X1157506Y-23539143D01*
X1210291Y-23532258D01*
X1231136Y-23531840D01*
X1297680Y-23531840D01*
X1419600Y-23531840D01*
X1419600Y-23430240D01*
X1298181Y-23430240D01*
X1220987Y-23431632D01*
G36*
X1876800Y-23598384D02*
G01*
X1875890Y-23676390D01*
X1872476Y-23736408D01*
X1865533Y-23780717D01*
X1854035Y-23811595D01*
X1836959Y-23831320D01*
X1813278Y-23842172D01*
X1781968Y-23846429D01*
X1765040Y-23846800D01*
X1729946Y-23844776D01*
X1702945Y-23837187D01*
X1683011Y-23821754D01*
X1669119Y-23796198D01*
X1660244Y-23758241D01*
X1655362Y-23705605D01*
X1653447Y-23636010D01*
X1653280Y-23598384D01*
X1653280Y-23430240D01*
X1529387Y-23430240D01*
X1532914Y-23610580D01*
X1534399Y-23676514D01*
X1536195Y-23725766D01*
X1538739Y-23761974D01*
X1542470Y-23788774D01*
X1547825Y-23809805D01*
X1555244Y-23828702D01*
X1560531Y-23839850D01*
X1588802Y-23884936D01*
X1624155Y-23916219D01*
X1670164Y-23935668D01*
X1730403Y-23945254D01*
X1754114Y-23946592D01*
X1799530Y-23947521D01*
X1831417Y-23945512D01*
X1856477Y-23939501D01*
X1881414Y-23928424D01*
X1886960Y-23925515D01*
X1937611Y-23887441D01*
X1973815Y-23835683D01*
X1988398Y-23797195D01*
X1991906Y-23774497D01*
X1994901Y-23735933D01*
X1997157Y-23685953D01*
X1998447Y-23629008D01*
X1998664Y-23595340D01*
X1998720Y-23430240D01*
X1876800Y-23430240D01*
X1876800Y-23598384D01*
G37*
X1876800Y-23598384D02*
X1875890Y-23676390D01*
X1872476Y-23736408D01*
X1865533Y-23780717D01*
X1854035Y-23811595D01*
X1836959Y-23831320D01*
X1813278Y-23842172D01*
X1781968Y-23846429D01*
X1765040Y-23846800D01*
X1729946Y-23844776D01*
X1702945Y-23837187D01*
X1683011Y-23821754D01*
X1669119Y-23796198D01*
X1660244Y-23758241D01*
X1655362Y-23705605D01*
X1653447Y-23636010D01*
X1653280Y-23598384D01*
X1653280Y-23430240D01*
X1529387Y-23430240D01*
X1532914Y-23610580D01*
X1534399Y-23676514D01*
X1536195Y-23725766D01*
X1538739Y-23761974D01*
X1542470Y-23788774D01*
X1547825Y-23809805D01*
X1555244Y-23828702D01*
X1560531Y-23839850D01*
X1588802Y-23884936D01*
X1624155Y-23916219D01*
X1670164Y-23935668D01*
X1730403Y-23945254D01*
X1754114Y-23946592D01*
X1799530Y-23947521D01*
X1831417Y-23945512D01*
X1856477Y-23939501D01*
X1881414Y-23928424D01*
X1886960Y-23925515D01*
X1937611Y-23887441D01*
X1973815Y-23835683D01*
X1988398Y-23797195D01*
X1991906Y-23774497D01*
X1994901Y-23735933D01*
X1997157Y-23685953D01*
X1998447Y-23629008D01*
X1998664Y-23595340D01*
X1998720Y-23430240D01*
X1876800Y-23430240D01*
X1876800Y-23598384D01*
G36*
X2049520Y-23531840D02*
G01*
X2212080Y-23531840D01*
X2212080Y-23948400D01*
X2266267Y-23948400D01*
X2297886Y-23947222D01*
X2320566Y-23944200D01*
X2327227Y-23941626D01*
X2329301Y-23929831D01*
X2331119Y-23900908D01*
X2332576Y-23858051D01*
X2333568Y-23804453D01*
X2333992Y-23743305D01*
X2334000Y-23733346D01*
X2334000Y-23531840D01*
X2496560Y-23531840D01*
X2496560Y-23430240D01*
X2049520Y-23430240D01*
X2049520Y-23531840D01*
G37*
X2049520Y-23531840D02*
X2212080Y-23531840D01*
X2212080Y-23948400D01*
X2266267Y-23948400D01*
X2297886Y-23947222D01*
X2320566Y-23944200D01*
X2327227Y-23941626D01*
X2329301Y-23929831D01*
X2331119Y-23900908D01*
X2332576Y-23858051D01*
X2333568Y-23804453D01*
X2333992Y-23743305D01*
X2334000Y-23733346D01*
X2334000Y-23531840D01*
X2496560Y-23531840D01*
X2496560Y-23430240D01*
X2049520Y-23430240D01*
X2049520Y-23531840D01*
G36*
X2579243Y-23682907D02*
G01*
X2549491Y-23749563D01*
X2522667Y-23810095D01*
X2499842Y-23862049D01*
X2482089Y-23902967D01*
X2470481Y-23930394D01*
X2466091Y-23941874D01*
X2466080Y-23941987D01*
X2475303Y-23945399D01*
X2499235Y-23947724D01*
X2525860Y-23948400D01*
X2585640Y-23948400D01*
X2608320Y-23892520D01*
X2631001Y-23836640D01*
X2870120Y-23836640D01*
X2892800Y-23892520D01*
X2915481Y-23948400D01*
X2976348Y-23948400D01*
X3011744Y-23947146D01*
X3029484Y-23943002D01*
X3032226Y-23935700D01*
X3026885Y-23923336D01*
X3014389Y-23895002D01*
X2995883Y-23853274D01*
X2972511Y-23800730D01*
X2947762Y-23745200D01*
X2829958Y-23745200D01*
X2669008Y-23745200D01*
X2685319Y-23707100D01*
X2698797Y-23674714D01*
X2714705Y-23635255D01*
X2722426Y-23615660D01*
X2734875Y-23586623D01*
X2745344Y-23567250D01*
X2750180Y-23562320D01*
X2756660Y-23571130D01*
X2768437Y-23594833D01*
X2783568Y-23629331D01*
X2793549Y-23653760D01*
X2829958Y-23745200D01*
X2947762Y-23745200D01*
X2945420Y-23739947D01*
X2917145Y-23676620D01*
X2807053Y-23430240D01*
X2692406Y-23430240D01*
X2579243Y-23682907D01*
G37*
X2579243Y-23682907D02*
X2549491Y-23749563D01*
X2522667Y-23810095D01*
X2499842Y-23862049D01*
X2482089Y-23902967D01*
X2470481Y-23930394D01*
X2466091Y-23941874D01*
X2466080Y-23941987D01*
X2475303Y-23945399D01*
X2499235Y-23947724D01*
X2525860Y-23948400D01*
X2585640Y-23948400D01*
X2608320Y-23892520D01*
X2631001Y-23836640D01*
X2870120Y-23836640D01*
X2892800Y-23892520D01*
X2915481Y-23948400D01*
X2976348Y-23948400D01*
X3011744Y-23947146D01*
X3029484Y-23943002D01*
X3032226Y-23935700D01*
X3026885Y-23923336D01*
X3014389Y-23895002D01*
X2995883Y-23853274D01*
X2972511Y-23800730D01*
X2947762Y-23745200D01*
X2829958Y-23745200D01*
X2669008Y-23745200D01*
X2685319Y-23707100D01*
X2698797Y-23674714D01*
X2714705Y-23635255D01*
X2722426Y-23615660D01*
X2734875Y-23586623D01*
X2745344Y-23567250D01*
X2750180Y-23562320D01*
X2756660Y-23571130D01*
X2768437Y-23594833D01*
X2783568Y-23629331D01*
X2793549Y-23653760D01*
X2829958Y-23745200D01*
X2947762Y-23745200D01*
X2945420Y-23739947D01*
X2917145Y-23676620D01*
X2807053Y-23430240D01*
X2692406Y-23430240D01*
X2579243Y-23682907D01*
G36*
X3352540Y-23432136D02*
G01*
X3291681Y-23434162D01*
X3247093Y-23436751D01*
X3214725Y-23440456D01*
X3190529Y-23445830D01*
X3170455Y-23453428D01*
X3160356Y-23458413D01*
X3113439Y-23491699D01*
X3083453Y-23534682D01*
X3068758Y-23589920D01*
X3067450Y-23603474D01*
X3070789Y-23665330D01*
X3090290Y-23715793D01*
X3125582Y-23753978D01*
X3132262Y-23758623D01*
X3165291Y-23780274D01*
X3110326Y-23860067D01*
X3086660Y-23894841D01*
X3068106Y-23922900D01*
X3057193Y-23940378D01*
X3055360Y-23944130D01*
X3064590Y-23946391D01*
X3088560Y-23947939D01*
X3115780Y-23948400D01*
X3176199Y-23948400D01*
X3225000Y-23877331D01*
X3273800Y-23806262D01*
X3390640Y-23806160D01*
X3390640Y-23948400D01*
X3502400Y-23948400D01*
X3502400Y-23531840D01*
X3390640Y-23531840D01*
X3390640Y-23704560D01*
X3315007Y-23704560D01*
X3273353Y-23703590D01*
X3245817Y-23699754D01*
X3226250Y-23691662D01*
X3212391Y-23681350D01*
X3192609Y-23657745D01*
X3185648Y-23627760D01*
X3185408Y-23618200D01*
X3189860Y-23585088D01*
X3206071Y-23560839D01*
X3212391Y-23555049D01*
X3230009Y-23542613D01*
X3250741Y-23535531D01*
X3280736Y-23532414D01*
X3315007Y-23531840D01*
X3390640Y-23531840D01*
X3502400Y-23531840D01*
X3502400Y-23428025D01*
X3352540Y-23432136D01*
G37*
X3352540Y-23432136D02*
X3291681Y-23434162D01*
X3247093Y-23436751D01*
X3214725Y-23440456D01*
X3190529Y-23445830D01*
X3170455Y-23453428D01*
X3160356Y-23458413D01*
X3113439Y-23491699D01*
X3083453Y-23534682D01*
X3068758Y-23589920D01*
X3067450Y-23603474D01*
X3070789Y-23665330D01*
X3090290Y-23715793D01*
X3125582Y-23753978D01*
X3132262Y-23758623D01*
X3165291Y-23780274D01*
X3110326Y-23860067D01*
X3086660Y-23894841D01*
X3068106Y-23922900D01*
X3057193Y-23940378D01*
X3055360Y-23944130D01*
X3064590Y-23946391D01*
X3088560Y-23947939D01*
X3115780Y-23948400D01*
X3176199Y-23948400D01*
X3225000Y-23877331D01*
X3273800Y-23806262D01*
X3390640Y-23806160D01*
X3390640Y-23948400D01*
X3502400Y-23948400D01*
X3502400Y-23531840D01*
X3390640Y-23531840D01*
X3390640Y-23704560D01*
X3315007Y-23704560D01*
X3273353Y-23703590D01*
X3245817Y-23699754D01*
X3226250Y-23691662D01*
X3212391Y-23681350D01*
X3192609Y-23657745D01*
X3185648Y-23627760D01*
X3185408Y-23618200D01*
X3189860Y-23585088D01*
X3206071Y-23560839D01*
X3212391Y-23555049D01*
X3230009Y-23542613D01*
X3250741Y-23535531D01*
X3280736Y-23532414D01*
X3315007Y-23531840D01*
X3390640Y-23531840D01*
X3502400Y-23531840D01*
X3502400Y-23428025D01*
X3352540Y-23432136D01*
G36*
X3609080Y-23526760D02*
G01*
X3743700Y-23529594D01*
X3878320Y-23532429D01*
X3878320Y-23632795D01*
X3758940Y-23635657D01*
X3639560Y-23638520D01*
X3639560Y-23729960D01*
X3878320Y-23735684D01*
X3878320Y-23846226D01*
X3598920Y-23851880D01*
X3598920Y-23943320D01*
X3794735Y-23946080D01*
X3865881Y-23946785D01*
X3918975Y-23946544D01*
X3956269Y-23945239D01*
X3980015Y-23942754D01*
X3992465Y-23938974D01*
X3995584Y-23935719D01*
X3996886Y-23922229D01*
X3997837Y-23891402D01*
X3998409Y-23846217D01*
X3998576Y-23789656D01*
X3998311Y-23724697D01*
X3997890Y-23678959D01*
X3995160Y-23435320D01*
X3609080Y-23435320D01*
X3609080Y-23526760D01*
G37*
X3609080Y-23526760D02*
X3743700Y-23529594D01*
X3878320Y-23532429D01*
X3878320Y-23632795D01*
X3758940Y-23635657D01*
X3639560Y-23638520D01*
X3639560Y-23729960D01*
X3878320Y-23735684D01*
X3878320Y-23846226D01*
X3598920Y-23851880D01*
X3598920Y-23943320D01*
X3794735Y-23946080D01*
X3865881Y-23946785D01*
X3918975Y-23946544D01*
X3956269Y-23945239D01*
X3980015Y-23942754D01*
X3992465Y-23938974D01*
X3995584Y-23935719D01*
X3996886Y-23922229D01*
X3997837Y-23891402D01*
X3998409Y-23846217D01*
X3998576Y-23789656D01*
X3998311Y-23724697D01*
X3997890Y-23678959D01*
X3995160Y-23435320D01*
X3609080Y-23435320D01*
X3609080Y-23526760D01*
G36*
X4368540Y-23432136D02*
G01*
X4294586Y-23435385D01*
X4237544Y-23441256D01*
X4194065Y-23450807D01*
X4160802Y-23465100D01*
X4134406Y-23485191D01*
X4111529Y-23512142D01*
X4110316Y-23513829D01*
X4092991Y-23552468D01*
X4085154Y-23601350D01*
X4086806Y-23652750D01*
X4097947Y-23698942D01*
X4110316Y-23722570D01*
X4142494Y-23756749D01*
X4184572Y-23780860D01*
X4239669Y-23796158D01*
X4310905Y-23803898D01*
X4312660Y-23803992D01*
X4406640Y-23808928D01*
X4406640Y-23948400D01*
X4518400Y-23948400D01*
X4518400Y-23531840D01*
X4406640Y-23531840D01*
X4406640Y-23704560D01*
X4331811Y-23704560D01*
X4288783Y-23703333D01*
X4259881Y-23698811D01*
X4239012Y-23689731D01*
X4230211Y-23683502D01*
X4212139Y-23664608D01*
X4204520Y-23640546D01*
X4203440Y-23618200D01*
X4208251Y-23581151D01*
X4224230Y-23555611D01*
X4253701Y-23540015D01*
X4298989Y-23532801D01*
X4331811Y-23531840D01*
X4406640Y-23531840D01*
X4518400Y-23531840D01*
X4518400Y-23428025D01*
X4368540Y-23432136D01*
G37*
X4368540Y-23432136D02*
X4294586Y-23435385D01*
X4237544Y-23441256D01*
X4194065Y-23450807D01*
X4160802Y-23465100D01*
X4134406Y-23485191D01*
X4111529Y-23512142D01*
X4110316Y-23513829D01*
X4092991Y-23552468D01*
X4085154Y-23601350D01*
X4086806Y-23652750D01*
X4097947Y-23698942D01*
X4110316Y-23722570D01*
X4142494Y-23756749D01*
X4184572Y-23780860D01*
X4239669Y-23796158D01*
X4310905Y-23803898D01*
X4312660Y-23803992D01*
X4406640Y-23808928D01*
X4406640Y-23948400D01*
X4518400Y-23948400D01*
X4518400Y-23531840D01*
X4406640Y-23531840D01*
X4406640Y-23704560D01*
X4331811Y-23704560D01*
X4288783Y-23703333D01*
X4259881Y-23698811D01*
X4239012Y-23689731D01*
X4230211Y-23683502D01*
X4212139Y-23664608D01*
X4204520Y-23640546D01*
X4203440Y-23618200D01*
X4208251Y-23581151D01*
X4224230Y-23555611D01*
X4253701Y-23540015D01*
X4298989Y-23532801D01*
X4331811Y-23531840D01*
X4406640Y-23531840D01*
X4518400Y-23531840D01*
X4518400Y-23428025D01*
X4368540Y-23432136D01*
G36*
X4689723Y-23430240D02*
G01*
X4639972Y-23430240D01*
X4645400Y-23943320D01*
X4698473Y-23946381D01*
X4751546Y-23949443D01*
X4754353Y-23796388D01*
X4757160Y-23643334D01*
X4828764Y-23762847D01*
X4858284Y-23811406D01*
X4880138Y-23845036D01*
X4896631Y-23866512D01*
X4910065Y-23878613D01*
X4922743Y-23884114D01*
X4930364Y-23885346D01*
X4942970Y-23885547D01*
X4954124Y-23881565D01*
X4966136Y-23870734D01*
X4981318Y-23850392D01*
X5001978Y-23817872D01*
X5030429Y-23770512D01*
X5031480Y-23768745D01*
X5102600Y-23649156D01*
X5108224Y-23948400D01*
X5157059Y-23948400D01*
X5187074Y-23947096D01*
X5207939Y-23943788D01*
X5212667Y-23941626D01*
X5214530Y-23930002D01*
X5216197Y-23900886D01*
X5217594Y-23857106D01*
X5218647Y-23801491D01*
X5219282Y-23736869D01*
X5219440Y-23682546D01*
X5219440Y-23430240D01*
X5120287Y-23430240D01*
X5026400Y-23587720D01*
X4996283Y-23638006D01*
X4969878Y-23681650D01*
X4948877Y-23715895D01*
X4934969Y-23737983D01*
X4929880Y-23745200D01*
X4924102Y-23736918D01*
X4909656Y-23713911D01*
X4888232Y-23678937D01*
X4861521Y-23634751D01*
X4833360Y-23587720D01*
X4739474Y-23430239D01*
X4689723Y-23430240D01*
G37*
X4689723Y-23430240D02*
X4639972Y-23430240D01*
X4645400Y-23943320D01*
X4698473Y-23946381D01*
X4751546Y-23949443D01*
X4754353Y-23796388D01*
X4757160Y-23643334D01*
X4828764Y-23762847D01*
X4858284Y-23811406D01*
X4880138Y-23845036D01*
X4896631Y-23866512D01*
X4910065Y-23878613D01*
X4922743Y-23884114D01*
X4930364Y-23885346D01*
X4942970Y-23885547D01*
X4954124Y-23881565D01*
X4966136Y-23870734D01*
X4981318Y-23850392D01*
X5001978Y-23817872D01*
X5030429Y-23770512D01*
X5031480Y-23768745D01*
X5102600Y-23649156D01*
X5108224Y-23948400D01*
X5157059Y-23948400D01*
X5187074Y-23947096D01*
X5207939Y-23943788D01*
X5212667Y-23941626D01*
X5214530Y-23930002D01*
X5216197Y-23900886D01*
X5217594Y-23857106D01*
X5218647Y-23801491D01*
X5219282Y-23736869D01*
X5219440Y-23682546D01*
X5219440Y-23430240D01*
X5120287Y-23430240D01*
X5026400Y-23587720D01*
X4996283Y-23638006D01*
X4969878Y-23681650D01*
X4948877Y-23715895D01*
X4934969Y-23737983D01*
X4929880Y-23745200D01*
X4924102Y-23736918D01*
X4909656Y-23713911D01*
X4888232Y-23678937D01*
X4861521Y-23634751D01*
X4833360Y-23587720D01*
X4739474Y-23430239D01*
X4689723Y-23430240D01*
G36*
X5321040Y-23531840D02*
G01*
X5585200Y-23531840D01*
X5585200Y-23632774D01*
X5356600Y-23638520D01*
X5353504Y-23686780D01*
X5350407Y-23735040D01*
X5585200Y-23735040D01*
X5585200Y-23846800D01*
X5309767Y-23846800D01*
X5312864Y-23895060D01*
X5315960Y-23943320D01*
X5707120Y-23948838D01*
X5707120Y-23430240D01*
X5321040Y-23430240D01*
X5321040Y-23531840D01*
G37*
X5321040Y-23531840D02*
X5585200Y-23531840D01*
X5585200Y-23632774D01*
X5356600Y-23638520D01*
X5353504Y-23686780D01*
X5350407Y-23735040D01*
X5585200Y-23735040D01*
X5585200Y-23846800D01*
X5309767Y-23846800D01*
X5312864Y-23895060D01*
X5315960Y-23943320D01*
X5707120Y-23948838D01*
X5707120Y-23430240D01*
X5321040Y-23430240D01*
X5321040Y-23531840D01*
G36*
X5768080Y-23531840D02*
G01*
X5930220Y-23531840D01*
X5935720Y-23943320D01*
X6052560Y-23949414D01*
X6052560Y-23531840D01*
X6215120Y-23531840D01*
X6215120Y-23430240D01*
X5768080Y-23430240D01*
X5768080Y-23531840D01*
G37*
X5768080Y-23531840D02*
X5930220Y-23531840D01*
X5935720Y-23943320D01*
X6052560Y-23949414D01*
X6052560Y-23531840D01*
X6215120Y-23531840D01*
X6215120Y-23430240D01*
X5768080Y-23430240D01*
X5768080Y-23531840D01*
G36*
X1048186Y-24305013D02*
G01*
X1028125Y-24307624D01*
X1023360Y-24310093D01*
X1028354Y-24320328D01*
X1042235Y-24345094D01*
X1063357Y-24381546D01*
X1090071Y-24426841D01*
X1119880Y-24476720D01*
X1216400Y-24637253D01*
X1216400Y-24812000D01*
X1338320Y-24812000D01*
X1338320Y-24627321D01*
X1423880Y-24484679D01*
X1455631Y-24432192D01*
X1478679Y-24395481D01*
X1494462Y-24372713D01*
X1504416Y-24362055D01*
X1509979Y-24361675D01*
X1512587Y-24369739D01*
X1512780Y-24371279D01*
X1515203Y-24385985D01*
X1521243Y-24394875D01*
X1535290Y-24399670D01*
X1561734Y-24402094D01*
X1594860Y-24403487D01*
X1673600Y-24406454D01*
X1673600Y-24812000D01*
X1795520Y-24812000D01*
X1795520Y-24405600D01*
X1958080Y-24405600D01*
X1958080Y-24304000D01*
X1681220Y-24304124D01*
X1404360Y-24304249D01*
X1361418Y-24377784D01*
X1337718Y-24418127D01*
X1314539Y-24457182D01*
X1296372Y-24487387D01*
X1294303Y-24490775D01*
X1270130Y-24530230D01*
X1133824Y-24304000D01*
X1078592Y-24304000D01*
X1048186Y-24305013D01*
G37*
X1048186Y-24305013D02*
X1028125Y-24307624D01*
X1023360Y-24310093D01*
X1028354Y-24320328D01*
X1042235Y-24345094D01*
X1063357Y-24381546D01*
X1090071Y-24426841D01*
X1119880Y-24476720D01*
X1216400Y-24637253D01*
X1216400Y-24812000D01*
X1338320Y-24812000D01*
X1338320Y-24627321D01*
X1423880Y-24484679D01*
X1455631Y-24432192D01*
X1478679Y-24395481D01*
X1494462Y-24372713D01*
X1504416Y-24362055D01*
X1509979Y-24361675D01*
X1512587Y-24369739D01*
X1512780Y-24371279D01*
X1515203Y-24385985D01*
X1521243Y-24394875D01*
X1535290Y-24399670D01*
X1561734Y-24402094D01*
X1594860Y-24403487D01*
X1673600Y-24406454D01*
X1673600Y-24812000D01*
X1795520Y-24812000D01*
X1795520Y-24405600D01*
X1958080Y-24405600D01*
X1958080Y-24304000D01*
X1681220Y-24304124D01*
X1404360Y-24304249D01*
X1361418Y-24377784D01*
X1337718Y-24418127D01*
X1314539Y-24457182D01*
X1296372Y-24487387D01*
X1294303Y-24490775D01*
X1270130Y-24530230D01*
X1133824Y-24304000D01*
X1078592Y-24304000D01*
X1048186Y-24305013D01*
G36*
X2019040Y-24812000D02*
G01*
X2140960Y-24812000D01*
X2140960Y-24304000D01*
X2019040Y-24304000D01*
X2019040Y-24812000D01*
G37*
X2019040Y-24812000D02*
X2140960Y-24812000D01*
X2140960Y-24304000D01*
X2019040Y-24304000D01*
X2019040Y-24812000D01*
G36*
X2521270Y-24305373D02*
G01*
X2459701Y-24310167D01*
X2410929Y-24319390D01*
X2371267Y-24334052D01*
X2337024Y-24355161D01*
X2304511Y-24383727D01*
X2303239Y-24384994D01*
X2261668Y-24439567D01*
X2237648Y-24500021D01*
X2230568Y-24563130D01*
X2239815Y-24625666D01*
X2264777Y-24684402D01*
X2304842Y-24736111D01*
X2359396Y-24777566D01*
X2379720Y-24788095D01*
X2401185Y-24797326D01*
X2422211Y-24803812D01*
X2446943Y-24808033D01*
X2479523Y-24810469D01*
X2524096Y-24811598D01*
X2584803Y-24811900D01*
X2585460Y-24811900D01*
X2740400Y-24812000D01*
X2740400Y-24723108D01*
X2628640Y-24723108D01*
X2544820Y-24718540D01*
X2490949Y-24713233D01*
X2447997Y-24704268D01*
X2427531Y-24696453D01*
X2390339Y-24666465D01*
X2365903Y-24625171D01*
X2354480Y-24577283D01*
X2356327Y-24527515D01*
X2371701Y-24480580D01*
X2400857Y-24441193D01*
X2413077Y-24431000D01*
X2431923Y-24420447D01*
X2457271Y-24413529D01*
X2494058Y-24409277D01*
X2534660Y-24407159D01*
X2628640Y-24403638D01*
X2628640Y-24723108D01*
X2740400Y-24723108D01*
X2740400Y-24304000D01*
X2599327Y-24304000D01*
X2521270Y-24305373D01*
G37*
X2521270Y-24305373D02*
X2459701Y-24310167D01*
X2410929Y-24319390D01*
X2371267Y-24334052D01*
X2337024Y-24355161D01*
X2304511Y-24383727D01*
X2303239Y-24384994D01*
X2261668Y-24439567D01*
X2237648Y-24500021D01*
X2230568Y-24563130D01*
X2239815Y-24625666D01*
X2264777Y-24684402D01*
X2304842Y-24736111D01*
X2359396Y-24777566D01*
X2379720Y-24788095D01*
X2401185Y-24797326D01*
X2422211Y-24803812D01*
X2446943Y-24808033D01*
X2479523Y-24810469D01*
X2524096Y-24811598D01*
X2584803Y-24811900D01*
X2585460Y-24811900D01*
X2740400Y-24812000D01*
X2740400Y-24723108D01*
X2628640Y-24723108D01*
X2544820Y-24718540D01*
X2490949Y-24713233D01*
X2447997Y-24704268D01*
X2427531Y-24696453D01*
X2390339Y-24666465D01*
X2365903Y-24625171D01*
X2354480Y-24577283D01*
X2356327Y-24527515D01*
X2371701Y-24480580D01*
X2400857Y-24441193D01*
X2413077Y-24431000D01*
X2431923Y-24420447D01*
X2457271Y-24413529D01*
X2494058Y-24409277D01*
X2534660Y-24407159D01*
X2628640Y-24403638D01*
X2628640Y-24723108D01*
X2740400Y-24723108D01*
X2740400Y-24304000D01*
X2599327Y-24304000D01*
X2521270Y-24305373D01*
G36*
X2862320Y-24812000D02*
G01*
X2984240Y-24812000D01*
X2984240Y-24304000D01*
X2862320Y-24304000D01*
X2862320Y-24812000D01*
G37*
X2862320Y-24812000D02*
X2984240Y-24812000D01*
X2984240Y-24304000D01*
X2862320Y-24304000D01*
X2862320Y-24812000D01*
G36*
X3579576Y-24309080D02*
G01*
X3486160Y-24464878D01*
X3392745Y-24620677D01*
X3297765Y-24462338D01*
X3202785Y-24304000D01*
X3106160Y-24304000D01*
X3106160Y-24812000D01*
X3217920Y-24812000D01*
X3218027Y-24662140D01*
X3218133Y-24512280D01*
X3291687Y-24636501D01*
X3321432Y-24686074D01*
X3343422Y-24720566D01*
X3359814Y-24742635D01*
X3372768Y-24754938D01*
X3384440Y-24760133D01*
X3392759Y-24760961D01*
X3406149Y-24759048D01*
X3418998Y-24751080D01*
X3433935Y-24734094D01*
X3453590Y-24705127D01*
X3479119Y-24663661D01*
X3513139Y-24607217D01*
X3537763Y-24567968D01*
X3554509Y-24545971D01*
X3564900Y-24541285D01*
X3570456Y-24553966D01*
X3572697Y-24584072D01*
X3573145Y-24631661D01*
X3573182Y-24667220D01*
X3573520Y-24812000D01*
X3685280Y-24812000D01*
X3685280Y-24302938D01*
X3579576Y-24309080D01*
G37*
X3579576Y-24309080D02*
X3486160Y-24464878D01*
X3392745Y-24620677D01*
X3297765Y-24462338D01*
X3202785Y-24304000D01*
X3106160Y-24304000D01*
X3106160Y-24812000D01*
X3217920Y-24812000D01*
X3218027Y-24662140D01*
X3218133Y-24512280D01*
X3291687Y-24636501D01*
X3321432Y-24686074D01*
X3343422Y-24720566D01*
X3359814Y-24742635D01*
X3372768Y-24754938D01*
X3384440Y-24760133D01*
X3392759Y-24760961D01*
X3406149Y-24759048D01*
X3418998Y-24751080D01*
X3433935Y-24734094D01*
X3453590Y-24705127D01*
X3479119Y-24663661D01*
X3513139Y-24607217D01*
X3537763Y-24567968D01*
X3554509Y-24545971D01*
X3564900Y-24541285D01*
X3570456Y-24553966D01*
X3572697Y-24584072D01*
X3573145Y-24631661D01*
X3573182Y-24667220D01*
X3573520Y-24812000D01*
X3685280Y-24812000D01*
X3685280Y-24302938D01*
X3579576Y-24309080D01*
G36*
X4721600Y-24507200D02*
G01*
X4498080Y-24507200D01*
X4498080Y-24304000D01*
X4376160Y-24304000D01*
X4376160Y-24812000D01*
X4498080Y-24812000D01*
X4498080Y-24608800D01*
X4721600Y-24608800D01*
X4721600Y-24812000D01*
X4843520Y-24812000D01*
X4843520Y-24304000D01*
X4721600Y-24304000D01*
X4721600Y-24507200D01*
G37*
X4721600Y-24507200D02*
X4498080Y-24507200D01*
X4498080Y-24304000D01*
X4376160Y-24304000D01*
X4376160Y-24812000D01*
X4498080Y-24812000D01*
X4498080Y-24608800D01*
X4721600Y-24608800D01*
X4721600Y-24812000D01*
X4843520Y-24812000D01*
X4843520Y-24304000D01*
X4721600Y-24304000D01*
X4721600Y-24507200D01*
G36*
X4140780Y-24479260D02*
G01*
X4139003Y-24549891D01*
X4136292Y-24603113D01*
X4131932Y-24641833D01*
X4125209Y-24668960D01*
X4115406Y-24687403D01*
X4101809Y-24700070D01*
X4084130Y-24709676D01*
X4040828Y-24720461D01*
X3996050Y-24717044D01*
X3957888Y-24700263D01*
X3952547Y-24696061D01*
X3924040Y-24671563D01*
X3920859Y-24487781D01*
X3917678Y-24304000D01*
X3797040Y-24304000D01*
X3797097Y-24469100D01*
X3797740Y-24528015D01*
X3799477Y-24582488D01*
X3802081Y-24628068D01*
X3805326Y-24660302D01*
X3807363Y-24670955D01*
X3832275Y-24727930D01*
X3870774Y-24773326D01*
X3903720Y-24795798D01*
X3948902Y-24811622D01*
X4003979Y-24819812D01*
X4061099Y-24820113D01*
X4112410Y-24812268D01*
X4137400Y-24803421D01*
X4186922Y-24771237D01*
X4226336Y-24728725D01*
X4245084Y-24695160D01*
X4250033Y-24673017D01*
X4254531Y-24633466D01*
X4258346Y-24579415D01*
X4261241Y-24513773D01*
X4262103Y-24484340D01*
X4266666Y-24304000D01*
X4144159Y-24304000D01*
X4140780Y-24479260D01*
G37*
X4140780Y-24479260D02*
X4139003Y-24549891D01*
X4136292Y-24603113D01*
X4131932Y-24641833D01*
X4125209Y-24668960D01*
X4115406Y-24687403D01*
X4101809Y-24700070D01*
X4084130Y-24709676D01*
X4040828Y-24720461D01*
X3996050Y-24717044D01*
X3957888Y-24700263D01*
X3952547Y-24696061D01*
X3924040Y-24671563D01*
X3920859Y-24487781D01*
X3917678Y-24304000D01*
X3797040Y-24304000D01*
X3797097Y-24469100D01*
X3797740Y-24528015D01*
X3799477Y-24582488D01*
X3802081Y-24628068D01*
X3805326Y-24660302D01*
X3807363Y-24670955D01*
X3832275Y-24727930D01*
X3870774Y-24773326D01*
X3903720Y-24795798D01*
X3948902Y-24811622D01*
X4003979Y-24819812D01*
X4061099Y-24820113D01*
X4112410Y-24812268D01*
X4137400Y-24803421D01*
X4186922Y-24771237D01*
X4226336Y-24728725D01*
X4245084Y-24695160D01*
X4250033Y-24673017D01*
X4254531Y-24633466D01*
X4258346Y-24579415D01*
X4261241Y-24513773D01*
X4262103Y-24484340D01*
X4266666Y-24304000D01*
X4144159Y-24304000D01*
X4140780Y-24479260D01*
G36*
X5359482Y-24302634D02*
G01*
X5311504Y-24319464D01*
X5285014Y-24337383D01*
X5260817Y-24370215D01*
X5252686Y-24409736D01*
X5259758Y-24451393D01*
X5281172Y-24490630D01*
X5316069Y-24522895D01*
X5320645Y-24525794D01*
X5350916Y-24544202D01*
X5306475Y-24587818D01*
X5281862Y-24611332D01*
X5267323Y-24622085D01*
X5258675Y-24621793D01*
X5251733Y-24612173D01*
X5250897Y-24610624D01*
X5241865Y-24587117D01*
X5239760Y-24573907D01*
X5236301Y-24562284D01*
X5223410Y-24558812D01*
X5197316Y-24563165D01*
X5177045Y-24568477D01*
X5153079Y-24576564D01*
X5144519Y-24586348D01*
X5146891Y-24603747D01*
X5147837Y-24607114D01*
X5158635Y-24637075D01*
X5171970Y-24666375D01*
X5181265Y-24686958D01*
X5180325Y-24701098D01*
X5167178Y-24717184D01*
X5157920Y-24726177D01*
X5127844Y-24754991D01*
X5192938Y-24822151D01*
X5219763Y-24796450D01*
X5246588Y-24770750D01*
X5301594Y-24796356D01*
X5363604Y-24816221D01*
X5430347Y-24822423D01*
X5494545Y-24814777D01*
X5531651Y-24802207D01*
X5576124Y-24772807D01*
X5603969Y-24734569D01*
X5614958Y-24690657D01*
X5613593Y-24680261D01*
X5502845Y-24680261D01*
X5490123Y-24707178D01*
X5481340Y-24714903D01*
X5452147Y-24726183D01*
X5412397Y-24730308D01*
X5370673Y-24726949D01*
X5345327Y-24720136D01*
X5317491Y-24709553D01*
X5372259Y-24654096D01*
X5400367Y-24627499D01*
X5424624Y-24607866D01*
X5440437Y-24598853D01*
X5441959Y-24598640D01*
X5459472Y-24605163D01*
X5480406Y-24620731D01*
X5499585Y-24649383D01*
X5502845Y-24680261D01*
X5613593Y-24680261D01*
X5608861Y-24644234D01*
X5585449Y-24598461D01*
X5549179Y-24560267D01*
X5512734Y-24530225D01*
X5533689Y-24495852D01*
X5550348Y-24453398D01*
X5552372Y-24423569D01*
X5451218Y-24423569D01*
X5440663Y-24455493D01*
X5437340Y-24460879D01*
X5424301Y-24479441D01*
X5413635Y-24484937D01*
X5398318Y-24477933D01*
X5380460Y-24465463D01*
X5358507Y-24441226D01*
X5352690Y-24415543D01*
X5360783Y-24393235D01*
X5380558Y-24379126D01*
X5409787Y-24378038D01*
X5419564Y-24380794D01*
X5443972Y-24397708D01*
X5451218Y-24423569D01*
X5552372Y-24423569D01*
X5553434Y-24407918D01*
X5542702Y-24367274D01*
X5537972Y-24359003D01*
X5505847Y-24327254D01*
X5461896Y-24306977D01*
X5411360Y-24298621D01*
X5359482Y-24302634D01*
G37*
X5359482Y-24302634D02*
X5311504Y-24319464D01*
X5285014Y-24337383D01*
X5260817Y-24370215D01*
X5252686Y-24409736D01*
X5259758Y-24451393D01*
X5281172Y-24490630D01*
X5316069Y-24522895D01*
X5320645Y-24525794D01*
X5350916Y-24544202D01*
X5306475Y-24587818D01*
X5281862Y-24611332D01*
X5267323Y-24622085D01*
X5258675Y-24621793D01*
X5251733Y-24612173D01*
X5250897Y-24610624D01*
X5241865Y-24587117D01*
X5239760Y-24573907D01*
X5236301Y-24562284D01*
X5223410Y-24558812D01*
X5197316Y-24563165D01*
X5177045Y-24568477D01*
X5153079Y-24576564D01*
X5144519Y-24586348D01*
X5146891Y-24603747D01*
X5147837Y-24607114D01*
X5158635Y-24637075D01*
X5171970Y-24666375D01*
X5181265Y-24686958D01*
X5180325Y-24701098D01*
X5167178Y-24717184D01*
X5157920Y-24726177D01*
X5127844Y-24754991D01*
X5192938Y-24822151D01*
X5219763Y-24796450D01*
X5246588Y-24770750D01*
X5301594Y-24796356D01*
X5363604Y-24816221D01*
X5430347Y-24822423D01*
X5494545Y-24814777D01*
X5531651Y-24802207D01*
X5576124Y-24772807D01*
X5603969Y-24734569D01*
X5614958Y-24690657D01*
X5613593Y-24680261D01*
X5502845Y-24680261D01*
X5490123Y-24707178D01*
X5481340Y-24714903D01*
X5452147Y-24726183D01*
X5412397Y-24730308D01*
X5370673Y-24726949D01*
X5345327Y-24720136D01*
X5317491Y-24709553D01*
X5372259Y-24654096D01*
X5400367Y-24627499D01*
X5424624Y-24607866D01*
X5440437Y-24598853D01*
X5441959Y-24598640D01*
X5459472Y-24605163D01*
X5480406Y-24620731D01*
X5499585Y-24649383D01*
X5502845Y-24680261D01*
X5613593Y-24680261D01*
X5608861Y-24644234D01*
X5585449Y-24598461D01*
X5549179Y-24560267D01*
X5512734Y-24530225D01*
X5533689Y-24495852D01*
X5550348Y-24453398D01*
X5552372Y-24423569D01*
X5451218Y-24423569D01*
X5440663Y-24455493D01*
X5437340Y-24460879D01*
X5424301Y-24479441D01*
X5413635Y-24484937D01*
X5398318Y-24477933D01*
X5380460Y-24465463D01*
X5358507Y-24441226D01*
X5352690Y-24415543D01*
X5360783Y-24393235D01*
X5380558Y-24379126D01*
X5409787Y-24378038D01*
X5419564Y-24380794D01*
X5443972Y-24397708D01*
X5451218Y-24423569D01*
X5552372Y-24423569D01*
X5553434Y-24407918D01*
X5542702Y-24367274D01*
X5537972Y-24359003D01*
X5505847Y-24327254D01*
X5461896Y-24306977D01*
X5411360Y-24298621D01*
X5359482Y-24302634D01*
G36*
X-9063840Y-10931840D02*
G01*
X-8799680Y-10931840D01*
X-8799680Y-11032774D01*
X-9028280Y-11038520D01*
X-9031376Y-11086780D01*
X-9034473Y-11135040D01*
X-8799680Y-11135040D01*
X-8799680Y-11246800D01*
X-9075113Y-11246800D01*
X-9072016Y-11295060D01*
X-9068920Y-11343320D01*
X-8677760Y-11348838D01*
X-8677760Y-10830240D01*
X-9063840Y-10830240D01*
X-9063840Y-10931840D01*
G37*
X-9063840Y-10931840D02*
X-8799680Y-10931840D01*
X-8799680Y-11032774D01*
X-9028280Y-11038520D01*
X-9031376Y-11086780D01*
X-9034473Y-11135040D01*
X-8799680Y-11135040D01*
X-8799680Y-11246800D01*
X-9075113Y-11246800D01*
X-9072016Y-11295060D01*
X-9068920Y-11343320D01*
X-8677760Y-11348838D01*
X-8677760Y-10830240D01*
X-9063840Y-10830240D01*
X-9063840Y-10931840D01*
G36*
X-8337893Y-10831632D02*
G01*
X-8398350Y-10836308D01*
X-8445493Y-10845016D01*
X-8482747Y-10858505D01*
X-8513536Y-10877522D01*
X-8526446Y-10888310D01*
X-8563252Y-10934167D01*
X-8581605Y-10988487D01*
X-8581453Y-11051108D01*
X-8581173Y-11053037D01*
X-8573285Y-11084988D01*
X-8557569Y-11112195D01*
X-8529463Y-11142514D01*
X-8528890Y-11143065D01*
X-8483515Y-11186651D01*
X-8529930Y-11251696D01*
X-8559002Y-11292891D01*
X-8576236Y-11320326D01*
X-8581576Y-11336797D01*
X-8574964Y-11345102D01*
X-8556341Y-11348037D01*
X-8527937Y-11348400D01*
X-8467381Y-11348400D01*
X-8420089Y-11277280D01*
X-8372798Y-11206160D01*
X-8262128Y-11206160D01*
X-8256120Y-11343320D01*
X-8204929Y-11346316D01*
X-8174140Y-11346714D01*
X-8152251Y-11344413D01*
X-8146509Y-11342083D01*
X-8144521Y-11330328D01*
X-8142741Y-11301089D01*
X-8141250Y-11257200D01*
X-8140126Y-11201496D01*
X-8139448Y-11136811D01*
X-8139280Y-11082546D01*
X-8139280Y-10931840D01*
X-8261200Y-10931840D01*
X-8261200Y-11106711D01*
X-8343475Y-11102975D01*
X-8385891Y-11100336D01*
X-8413186Y-11096175D01*
X-8430555Y-11089079D01*
X-8443196Y-11077637D01*
X-8445075Y-11075373D01*
X-8461026Y-11041470D01*
X-8463623Y-11001272D01*
X-8458088Y-10978015D01*
X-8439217Y-10956061D01*
X-8403525Y-10940637D01*
X-8353736Y-10932706D01*
X-8327744Y-10931840D01*
X-8261200Y-10931840D01*
X-8139280Y-10931840D01*
X-8139280Y-10830240D01*
X-8260699Y-10830240D01*
X-8337893Y-10831632D01*
G37*
X-8337893Y-10831632D02*
X-8398350Y-10836308D01*
X-8445493Y-10845016D01*
X-8482747Y-10858505D01*
X-8513536Y-10877522D01*
X-8526446Y-10888310D01*
X-8563252Y-10934167D01*
X-8581605Y-10988487D01*
X-8581453Y-11051108D01*
X-8581173Y-11053037D01*
X-8573285Y-11084988D01*
X-8557569Y-11112195D01*
X-8529463Y-11142514D01*
X-8528890Y-11143065D01*
X-8483515Y-11186651D01*
X-8529930Y-11251696D01*
X-8559002Y-11292891D01*
X-8576236Y-11320326D01*
X-8581576Y-11336797D01*
X-8574964Y-11345102D01*
X-8556341Y-11348037D01*
X-8527937Y-11348400D01*
X-8467381Y-11348400D01*
X-8420089Y-11277280D01*
X-8372798Y-11206160D01*
X-8262128Y-11206160D01*
X-8256120Y-11343320D01*
X-8204929Y-11346316D01*
X-8174140Y-11346714D01*
X-8152251Y-11344413D01*
X-8146509Y-11342083D01*
X-8144521Y-11330328D01*
X-8142741Y-11301089D01*
X-8141250Y-11257200D01*
X-8140126Y-11201496D01*
X-8139448Y-11136811D01*
X-8139280Y-11082546D01*
X-8139280Y-10931840D01*
X-8261200Y-10931840D01*
X-8261200Y-11106711D01*
X-8343475Y-11102975D01*
X-8385891Y-11100336D01*
X-8413186Y-11096175D01*
X-8430555Y-11089079D01*
X-8443196Y-11077637D01*
X-8445075Y-11075373D01*
X-8461026Y-11041470D01*
X-8463623Y-11001272D01*
X-8458088Y-10978015D01*
X-8439217Y-10956061D01*
X-8403525Y-10940637D01*
X-8353736Y-10932706D01*
X-8327744Y-10931840D01*
X-8261200Y-10931840D01*
X-8139280Y-10931840D01*
X-8139280Y-10830240D01*
X-8260699Y-10830240D01*
X-8337893Y-10831632D01*
G36*
X-7682080Y-10998384D02*
G01*
X-7682990Y-11076390D01*
X-7686404Y-11136408D01*
X-7693347Y-11180717D01*
X-7704845Y-11211595D01*
X-7721921Y-11231320D01*
X-7745602Y-11242172D01*
X-7776912Y-11246429D01*
X-7793840Y-11246800D01*
X-7828934Y-11244776D01*
X-7855935Y-11237187D01*
X-7875869Y-11221754D01*
X-7889761Y-11196198D01*
X-7898636Y-11158241D01*
X-7903518Y-11105605D01*
X-7905433Y-11036010D01*
X-7905600Y-10998384D01*
X-7905600Y-10830240D01*
X-8029165Y-10830240D01*
X-8025802Y-11010580D01*
X-8024379Y-11076489D01*
X-8022634Y-11125716D01*
X-8020130Y-11161896D01*
X-8016433Y-11188666D01*
X-8011108Y-11209664D01*
X-8003718Y-11228525D01*
X-7998349Y-11239850D01*
X-7970078Y-11284936D01*
X-7934725Y-11316219D01*
X-7888716Y-11335668D01*
X-7828477Y-11345254D01*
X-7804766Y-11346592D01*
X-7759350Y-11347521D01*
X-7727463Y-11345512D01*
X-7702403Y-11339501D01*
X-7677466Y-11328424D01*
X-7671920Y-11325515D01*
X-7621269Y-11287441D01*
X-7585065Y-11235683D01*
X-7570482Y-11197195D01*
X-7566974Y-11174497D01*
X-7563979Y-11135933D01*
X-7561723Y-11085953D01*
X-7560433Y-11029008D01*
X-7560216Y-10995340D01*
X-7560160Y-10830240D01*
X-7682080Y-10830240D01*
X-7682080Y-10998384D01*
G37*
X-7682080Y-10998384D02*
X-7682990Y-11076390D01*
X-7686404Y-11136408D01*
X-7693347Y-11180717D01*
X-7704845Y-11211595D01*
X-7721921Y-11231320D01*
X-7745602Y-11242172D01*
X-7776912Y-11246429D01*
X-7793840Y-11246800D01*
X-7828934Y-11244776D01*
X-7855935Y-11237187D01*
X-7875869Y-11221754D01*
X-7889761Y-11196198D01*
X-7898636Y-11158241D01*
X-7903518Y-11105605D01*
X-7905433Y-11036010D01*
X-7905600Y-10998384D01*
X-7905600Y-10830240D01*
X-8029165Y-10830240D01*
X-8025802Y-11010580D01*
X-8024379Y-11076489D01*
X-8022634Y-11125716D01*
X-8020130Y-11161896D01*
X-8016433Y-11188666D01*
X-8011108Y-11209664D01*
X-8003718Y-11228525D01*
X-7998349Y-11239850D01*
X-7970078Y-11284936D01*
X-7934725Y-11316219D01*
X-7888716Y-11335668D01*
X-7828477Y-11345254D01*
X-7804766Y-11346592D01*
X-7759350Y-11347521D01*
X-7727463Y-11345512D01*
X-7702403Y-11339501D01*
X-7677466Y-11328424D01*
X-7671920Y-11325515D01*
X-7621269Y-11287441D01*
X-7585065Y-11235683D01*
X-7570482Y-11197195D01*
X-7566974Y-11174497D01*
X-7563979Y-11135933D01*
X-7561723Y-11085953D01*
X-7560433Y-11029008D01*
X-7560216Y-10995340D01*
X-7560160Y-10830240D01*
X-7682080Y-10830240D01*
X-7682080Y-10998384D01*
G36*
X-7367943Y-10837510D02*
G01*
X-7435650Y-10867012D01*
X-7468720Y-10890089D01*
X-7494120Y-10910720D01*
X-7419748Y-10985552D01*
X-7392107Y-10963810D01*
X-7344642Y-10937645D01*
X-7293104Y-10927707D01*
X-7241832Y-10933048D01*
X-7195165Y-10952716D01*
X-7157444Y-10985763D01*
X-7137288Y-11019579D01*
X-7124158Y-11074779D01*
X-7129030Y-11129437D01*
X-7150651Y-11179061D01*
X-7187764Y-11219158D01*
X-7194394Y-11223940D01*
X-7238756Y-11242997D01*
X-7290417Y-11247960D01*
X-7342172Y-11238966D01*
X-7380988Y-11220363D01*
X-7419893Y-11193926D01*
X-7455209Y-11227983D01*
X-7490526Y-11262040D01*
X-7454479Y-11293374D01*
X-7422648Y-11315918D01*
X-7387791Y-11333451D01*
X-7378897Y-11336554D01*
X-7334604Y-11344713D01*
X-7281084Y-11347273D01*
X-7227148Y-11344385D01*
X-7181607Y-11336202D01*
X-7171575Y-11332988D01*
X-7110848Y-11300512D01*
X-7062247Y-11253956D01*
X-7027388Y-11196629D01*
X-7007885Y-11131843D01*
X-7005356Y-11062907D01*
X-7015036Y-11012276D01*
X-7043306Y-10947802D01*
X-7087069Y-10896043D01*
X-7147251Y-10855922D01*
X-7151065Y-10854028D01*
X-7221262Y-10830520D01*
X-7295017Y-10825180D01*
X-7367943Y-10837510D01*
G37*
X-7367943Y-10837510D02*
X-7435650Y-10867012D01*
X-7468720Y-10890089D01*
X-7494120Y-10910720D01*
X-7419748Y-10985552D01*
X-7392107Y-10963810D01*
X-7344642Y-10937645D01*
X-7293104Y-10927707D01*
X-7241832Y-10933048D01*
X-7195165Y-10952716D01*
X-7157444Y-10985763D01*
X-7137288Y-11019579D01*
X-7124158Y-11074779D01*
X-7129030Y-11129437D01*
X-7150651Y-11179061D01*
X-7187764Y-11219158D01*
X-7194394Y-11223940D01*
X-7238756Y-11242997D01*
X-7290417Y-11247960D01*
X-7342172Y-11238966D01*
X-7380988Y-11220363D01*
X-7419893Y-11193926D01*
X-7455209Y-11227983D01*
X-7490526Y-11262040D01*
X-7454479Y-11293374D01*
X-7422648Y-11315918D01*
X-7387791Y-11333451D01*
X-7378897Y-11336554D01*
X-7334604Y-11344713D01*
X-7281084Y-11347273D01*
X-7227148Y-11344385D01*
X-7181607Y-11336202D01*
X-7171575Y-11332988D01*
X-7110848Y-11300512D01*
X-7062247Y-11253956D01*
X-7027388Y-11196629D01*
X-7007885Y-11131843D01*
X-7005356Y-11062907D01*
X-7015036Y-11012276D01*
X-7043306Y-10947802D01*
X-7087069Y-10896043D01*
X-7147251Y-10855922D01*
X-7151065Y-10854028D01*
X-7221262Y-10830520D01*
X-7295017Y-10825180D01*
X-7367943Y-10837510D01*
G36*
X-6930240Y-10931840D02*
G01*
X-6666080Y-10931840D01*
X-6666080Y-11033440D01*
X-6899760Y-11033440D01*
X-6899760Y-11135040D01*
X-6666080Y-11135040D01*
X-6666080Y-11246800D01*
X-6940400Y-11246800D01*
X-6940400Y-11348400D01*
X-6749053Y-11348400D01*
X-6688652Y-11348056D01*
X-6635361Y-11347099D01*
X-6592465Y-11345642D01*
X-6563246Y-11343797D01*
X-6550988Y-11341676D01*
X-6550933Y-11341626D01*
X-6549070Y-11330002D01*
X-6547403Y-11300886D01*
X-6546006Y-11257106D01*
X-6544953Y-11201491D01*
X-6544318Y-11136869D01*
X-6544160Y-11082546D01*
X-6544160Y-10830240D01*
X-6930240Y-10830240D01*
X-6930240Y-10931840D01*
G37*
X-6930240Y-10931840D02*
X-6666080Y-10931840D01*
X-6666080Y-11033440D01*
X-6899760Y-11033440D01*
X-6899760Y-11135040D01*
X-6666080Y-11135040D01*
X-6666080Y-11246800D01*
X-6940400Y-11246800D01*
X-6940400Y-11348400D01*
X-6749053Y-11348400D01*
X-6688652Y-11348056D01*
X-6635361Y-11347099D01*
X-6592465Y-11345642D01*
X-6563246Y-11343797D01*
X-6550988Y-11341676D01*
X-6550933Y-11341626D01*
X-6549070Y-11330002D01*
X-6547403Y-11300886D01*
X-6546006Y-11257106D01*
X-6544953Y-11201491D01*
X-6544318Y-11136869D01*
X-6544160Y-11082546D01*
X-6544160Y-10830240D01*
X-6930240Y-10830240D01*
X-6930240Y-10931840D01*
G36*
X-6304082Y-10828611D02*
G01*
X-6345948Y-10834734D01*
X-6385489Y-10843468D01*
X-6417840Y-10853604D01*
X-6438132Y-10863934D01*
X-6442560Y-10870455D01*
X-6438522Y-10887736D01*
X-6428789Y-10911670D01*
X-6416936Y-10934874D01*
X-6406535Y-10949964D01*
X-6403024Y-10952160D01*
X-6388668Y-10948531D01*
X-6364188Y-10939548D01*
X-6357767Y-10936920D01*
X-6317116Y-10925422D01*
X-6272671Y-10921345D01*
X-6231028Y-10924489D01*
X-6198785Y-10934657D01*
X-6188560Y-10942000D01*
X-6171567Y-10964290D01*
X-6169446Y-10983819D01*
X-6183362Y-11001688D01*
X-6214482Y-11018998D01*
X-6263973Y-11036852D01*
X-6300320Y-11047547D01*
X-6349347Y-11062265D01*
X-6383607Y-11075643D01*
X-6408289Y-11090170D01*
X-6428582Y-11108334D01*
X-6429860Y-11109686D01*
X-6450773Y-11135442D01*
X-6460456Y-11160207D01*
X-6462878Y-11194330D01*
X-6462880Y-11195821D01*
X-6460691Y-11230048D01*
X-6451426Y-11255313D01*
X-6431033Y-11281959D01*
X-6427691Y-11285691D01*
X-6395514Y-11313989D01*
X-6360515Y-11333818D01*
X-6352852Y-11336520D01*
X-6319366Y-11342747D01*
X-6274136Y-11346333D01*
X-6224698Y-11347192D01*
X-6178589Y-11345243D01*
X-6143348Y-11340401D01*
X-6137694Y-11338907D01*
X-6106336Y-11327147D01*
X-6076804Y-11312494D01*
X-6054873Y-11298195D01*
X-6046320Y-11287523D01*
X-6050308Y-11271906D01*
X-6059920Y-11249477D01*
X-6071625Y-11227152D01*
X-6081890Y-11211847D01*
X-6086392Y-11209046D01*
X-6141759Y-11235183D01*
X-6198607Y-11248382D01*
X-6247778Y-11251322D01*
X-6288164Y-11250753D01*
X-6313404Y-11247569D01*
X-6328612Y-11240665D01*
X-6336678Y-11232158D01*
X-6348491Y-11209896D01*
X-6347266Y-11190913D01*
X-6331444Y-11173930D01*
X-6299468Y-11157669D01*
X-6249782Y-11140851D01*
X-6212851Y-11130503D01*
X-6166177Y-11116951D01*
X-6133876Y-11104223D01*
X-6110323Y-11089558D01*
X-6089889Y-11070194D01*
X-6089852Y-11070154D01*
X-6068179Y-11042639D01*
X-6058509Y-11016327D01*
X-6056517Y-10985329D01*
X-6065146Y-10930338D01*
X-6090452Y-10886391D01*
X-6131712Y-10854040D01*
X-6188200Y-10833839D01*
X-6259192Y-10826342D01*
X-6264760Y-10826307D01*
X-6304082Y-10828611D01*
G37*
X-6304082Y-10828611D02*
X-6345948Y-10834734D01*
X-6385489Y-10843468D01*
X-6417840Y-10853604D01*
X-6438132Y-10863934D01*
X-6442560Y-10870455D01*
X-6438522Y-10887736D01*
X-6428789Y-10911670D01*
X-6416936Y-10934874D01*
X-6406535Y-10949964D01*
X-6403024Y-10952160D01*
X-6388668Y-10948531D01*
X-6364188Y-10939548D01*
X-6357767Y-10936920D01*
X-6317116Y-10925422D01*
X-6272671Y-10921345D01*
X-6231028Y-10924489D01*
X-6198785Y-10934657D01*
X-6188560Y-10942000D01*
X-6171567Y-10964290D01*
X-6169446Y-10983819D01*
X-6183362Y-11001688D01*
X-6214482Y-11018998D01*
X-6263973Y-11036852D01*
X-6300320Y-11047547D01*
X-6349347Y-11062265D01*
X-6383607Y-11075643D01*
X-6408289Y-11090170D01*
X-6428582Y-11108334D01*
X-6429860Y-11109686D01*
X-6450773Y-11135442D01*
X-6460456Y-11160207D01*
X-6462878Y-11194330D01*
X-6462880Y-11195821D01*
X-6460691Y-11230048D01*
X-6451426Y-11255313D01*
X-6431033Y-11281959D01*
X-6427691Y-11285691D01*
X-6395514Y-11313989D01*
X-6360515Y-11333818D01*
X-6352852Y-11336520D01*
X-6319366Y-11342747D01*
X-6274136Y-11346333D01*
X-6224698Y-11347192D01*
X-6178589Y-11345243D01*
X-6143348Y-11340401D01*
X-6137694Y-11338907D01*
X-6106336Y-11327147D01*
X-6076804Y-11312494D01*
X-6054873Y-11298195D01*
X-6046320Y-11287523D01*
X-6050308Y-11271906D01*
X-6059920Y-11249477D01*
X-6071625Y-11227152D01*
X-6081890Y-11211847D01*
X-6086392Y-11209046D01*
X-6141759Y-11235183D01*
X-6198607Y-11248382D01*
X-6247778Y-11251322D01*
X-6288164Y-11250753D01*
X-6313404Y-11247569D01*
X-6328612Y-11240665D01*
X-6336678Y-11232158D01*
X-6348491Y-11209896D01*
X-6347266Y-11190913D01*
X-6331444Y-11173930D01*
X-6299468Y-11157669D01*
X-6249782Y-11140851D01*
X-6212851Y-11130503D01*
X-6166177Y-11116951D01*
X-6133876Y-11104223D01*
X-6110323Y-11089558D01*
X-6089889Y-11070194D01*
X-6089852Y-11070154D01*
X-6068179Y-11042639D01*
X-6058509Y-11016327D01*
X-6056517Y-10985329D01*
X-6065146Y-10930338D01*
X-6090452Y-10886391D01*
X-6131712Y-10854040D01*
X-6188200Y-10833839D01*
X-6259192Y-10826342D01*
X-6264760Y-10826307D01*
X-6304082Y-10828611D01*
G36*
X-9386976Y-11752260D02*
G01*
X-9383880Y-11800520D01*
X-9226400Y-11806454D01*
X-9226400Y-12212000D01*
X-9104480Y-12212000D01*
X-9104480Y-11805600D01*
X-8941920Y-11805600D01*
X-8941920Y-11704000D01*
X-9390073Y-11704000D01*
X-9386976Y-11752260D01*
G37*
X-9386976Y-11752260D02*
X-9383880Y-11800520D01*
X-9226400Y-11806454D01*
X-9226400Y-12212000D01*
X-9104480Y-12212000D01*
X-9104480Y-11805600D01*
X-8941920Y-11805600D01*
X-8941920Y-11704000D01*
X-9390073Y-11704000D01*
X-9386976Y-11752260D01*
G36*
X-8456410Y-11706009D02*
G01*
X-8509381Y-11709080D01*
X-8631670Y-11858395D01*
X-8753960Y-12007710D01*
X-8756764Y-11855855D01*
X-8759569Y-11704000D01*
X-8880960Y-11704000D01*
X-8880960Y-12212000D01*
X-8827620Y-12211892D01*
X-8774280Y-12211785D01*
X-8530440Y-11912509D01*
X-8527628Y-12062254D01*
X-8524816Y-12212000D01*
X-8403440Y-12212000D01*
X-8403440Y-11702938D01*
X-8456410Y-11706009D01*
G37*
X-8456410Y-11706009D02*
X-8509381Y-11709080D01*
X-8631670Y-11858395D01*
X-8753960Y-12007710D01*
X-8756764Y-11855855D01*
X-8759569Y-11704000D01*
X-8880960Y-11704000D01*
X-8880960Y-12212000D01*
X-8827620Y-12211892D01*
X-8774280Y-12211785D01*
X-8530440Y-11912509D01*
X-8527628Y-12062254D01*
X-8524816Y-12212000D01*
X-8403440Y-12212000D01*
X-8403440Y-11702938D01*
X-8456410Y-11706009D01*
G36*
X-8301840Y-11795440D02*
G01*
X-8037680Y-11795440D01*
X-8037680Y-11907200D01*
X-8271360Y-11907200D01*
X-8271360Y-11998640D01*
X-8037680Y-11998640D01*
X-8037680Y-12120560D01*
X-8312000Y-12120560D01*
X-8312000Y-12212000D01*
X-7915760Y-12212000D01*
X-7915760Y-11704000D01*
X-8301840Y-11704000D01*
X-8301840Y-11795440D01*
G37*
X-8301840Y-11795440D02*
X-8037680Y-11795440D01*
X-8037680Y-11907200D01*
X-8271360Y-11907200D01*
X-8271360Y-11998640D01*
X-8037680Y-11998640D01*
X-8037680Y-12120560D01*
X-8312000Y-12120560D01*
X-8312000Y-12212000D01*
X-7915760Y-12212000D01*
X-7915760Y-11704000D01*
X-8301840Y-11704000D01*
X-8301840Y-11795440D01*
G36*
X-7793840Y-12212000D02*
G01*
X-7682637Y-12212000D01*
X-7679818Y-12067455D01*
X-7677000Y-11922911D01*
X-7606129Y-12042055D01*
X-7576961Y-12090402D01*
X-7555490Y-12123730D01*
X-7539477Y-12144747D01*
X-7526682Y-12156159D01*
X-7514869Y-12160674D01*
X-7507614Y-12161200D01*
X-7495346Y-12159423D01*
X-7483342Y-12152297D01*
X-7469359Y-12137128D01*
X-7451159Y-12111222D01*
X-7426499Y-12071885D01*
X-7408334Y-12041820D01*
X-7336699Y-11922440D01*
X-7336669Y-12067220D01*
X-7336640Y-12212000D01*
X-7224880Y-12212000D01*
X-7224880Y-11704000D01*
X-7273140Y-11704239D01*
X-7321400Y-11704479D01*
X-7411502Y-11856639D01*
X-7441236Y-11906138D01*
X-7467737Y-11948906D01*
X-7489185Y-11982116D01*
X-7503764Y-12002943D01*
X-7509360Y-12008800D01*
X-7516806Y-12000485D01*
X-7532640Y-11977426D01*
X-7555045Y-11942448D01*
X-7582203Y-11898378D01*
X-7607217Y-11856639D01*
X-7697320Y-11704479D01*
X-7745580Y-11704239D01*
X-7793840Y-11704000D01*
X-7793840Y-12212000D01*
G37*
X-7793840Y-12212000D02*
X-7682637Y-12212000D01*
X-7679818Y-12067455D01*
X-7677000Y-11922911D01*
X-7606129Y-12042055D01*
X-7576961Y-12090402D01*
X-7555490Y-12123730D01*
X-7539477Y-12144747D01*
X-7526682Y-12156159D01*
X-7514869Y-12160674D01*
X-7507614Y-12161200D01*
X-7495346Y-12159423D01*
X-7483342Y-12152297D01*
X-7469359Y-12137128D01*
X-7451159Y-12111222D01*
X-7426499Y-12071885D01*
X-7408334Y-12041820D01*
X-7336699Y-11922440D01*
X-7336669Y-12067220D01*
X-7336640Y-12212000D01*
X-7224880Y-12212000D01*
X-7224880Y-11704000D01*
X-7273140Y-11704239D01*
X-7321400Y-11704479D01*
X-7411502Y-11856639D01*
X-7441236Y-11906138D01*
X-7467737Y-11948906D01*
X-7489185Y-11982116D01*
X-7503764Y-12002943D01*
X-7509360Y-12008800D01*
X-7516806Y-12000485D01*
X-7532640Y-11977426D01*
X-7555045Y-11942448D01*
X-7582203Y-11898378D01*
X-7607217Y-11856639D01*
X-7697320Y-11704479D01*
X-7745580Y-11704239D01*
X-7793840Y-11704000D01*
X-7793840Y-12212000D01*
G36*
X-7113120Y-11795440D02*
G01*
X-6848960Y-11795440D01*
X-6848960Y-11907200D01*
X-7082640Y-11907200D01*
X-7082640Y-11998640D01*
X-6848960Y-11998640D01*
X-6848960Y-12120560D01*
X-7123280Y-12120560D01*
X-7123280Y-12212000D01*
X-6727040Y-12212000D01*
X-6727040Y-11704000D01*
X-7113120Y-11704000D01*
X-7113120Y-11795440D01*
G37*
X-7113120Y-11795440D02*
X-6848960Y-11795440D01*
X-6848960Y-11907200D01*
X-7082640Y-11907200D01*
X-7082640Y-11998640D01*
X-6848960Y-11998640D01*
X-6848960Y-12120560D01*
X-7123280Y-12120560D01*
X-7123280Y-12212000D01*
X-6727040Y-12212000D01*
X-6727040Y-11704000D01*
X-7113120Y-11704000D01*
X-7113120Y-11795440D01*
G36*
X-6412080Y-12120560D02*
G01*
X-6666080Y-12120560D01*
X-6666080Y-12212000D01*
X-6290160Y-12212000D01*
X-6290160Y-11704000D01*
X-6412080Y-11704000D01*
X-6412080Y-12120560D01*
G37*
X-6412080Y-12120560D02*
X-6666080Y-12120560D01*
X-6666080Y-12212000D01*
X-6290160Y-12212000D01*
X-6290160Y-11704000D01*
X-6412080Y-11704000D01*
X-6412080Y-12120560D01*
G36*
X-6188560Y-11794850D02*
G01*
X-5919320Y-11800520D01*
X-5913178Y-11907200D01*
X-6158080Y-11907200D01*
X-6158080Y-11997995D01*
X-6038700Y-12000857D01*
X-5919320Y-12003720D01*
X-5916272Y-12062140D01*
X-5913225Y-12120560D01*
X-6198720Y-12120560D01*
X-6198720Y-12212000D01*
X-5802480Y-12212000D01*
X-5802480Y-11704000D01*
X-6188560Y-11704000D01*
X-6188560Y-11794850D01*
G37*
X-6188560Y-11794850D02*
X-5919320Y-11800520D01*
X-5913178Y-11907200D01*
X-6158080Y-11907200D01*
X-6158080Y-11997995D01*
X-6038700Y-12000857D01*
X-5919320Y-12003720D01*
X-5916272Y-12062140D01*
X-5913225Y-12120560D01*
X-6198720Y-12120560D01*
X-6198720Y-12212000D01*
X-5802480Y-12212000D01*
X-5802480Y-11704000D01*
X-6188560Y-11704000D01*
X-6188560Y-11794850D01*
G36*
X7386400Y-11083440D02*
G01*
X7152720Y-11083440D01*
X7152720Y-10880240D01*
X7030452Y-10880240D01*
X7035880Y-11393320D01*
X7147640Y-11393320D01*
X7150536Y-11289180D01*
X7153431Y-11185040D01*
X7386400Y-11185040D01*
X7386400Y-11398400D01*
X7498160Y-11398400D01*
X7498160Y-10880240D01*
X7386400Y-10880240D01*
X7386400Y-11083440D01*
G37*
X7386400Y-11083440D02*
X7152720Y-11083440D01*
X7152720Y-10880240D01*
X7030452Y-10880240D01*
X7035880Y-11393320D01*
X7147640Y-11393320D01*
X7150536Y-11289180D01*
X7153431Y-11185040D01*
X7386400Y-11185040D01*
X7386400Y-11398400D01*
X7498160Y-11398400D01*
X7498160Y-10880240D01*
X7386400Y-10880240D01*
X7386400Y-11083440D01*
G36*
X7728441Y-10880225D02*
G01*
X7673884Y-10889582D01*
X7631717Y-10903862D01*
X7620904Y-10909837D01*
X7613133Y-10918296D01*
X7613234Y-10932575D01*
X7621533Y-10958439D01*
X7624000Y-10964974D01*
X7641512Y-11010829D01*
X7684136Y-10991477D01*
X7724255Y-10978802D01*
X7769969Y-10972243D01*
X7780562Y-10971903D01*
X7816290Y-10973770D01*
X7840137Y-10981472D01*
X7859696Y-10997012D01*
X7876423Y-11019038D01*
X7878231Y-11038178D01*
X7863965Y-11055429D01*
X7832472Y-11071791D01*
X7782601Y-11088263D01*
X7742000Y-11098954D01*
X7700670Y-11111566D01*
X7661385Y-11127484D01*
X7638315Y-11139841D01*
X7604200Y-11172755D01*
X7586188Y-11213637D01*
X7584009Y-11258425D01*
X7597392Y-11303054D01*
X7626067Y-11343461D01*
X7653371Y-11365931D01*
X7675391Y-11379085D01*
X7697126Y-11387471D01*
X7724348Y-11392334D01*
X7762825Y-11394918D01*
X7792020Y-11395849D01*
X7845032Y-11396133D01*
X7884343Y-11393246D01*
X7916427Y-11386423D01*
X7939273Y-11378409D01*
X7975329Y-11362978D01*
X7994891Y-11350033D01*
X8000655Y-11335387D01*
X7995321Y-11314850D01*
X7989227Y-11300827D01*
X7977955Y-11276048D01*
X7971018Y-11260756D01*
X7970125Y-11258770D01*
X7961283Y-11261319D01*
X7939922Y-11270559D01*
X7924328Y-11277905D01*
X7883041Y-11292608D01*
X7835482Y-11301685D01*
X7788583Y-11304538D01*
X7749275Y-11300568D01*
X7731930Y-11294511D01*
X7707953Y-11274640D01*
X7702450Y-11252396D01*
X7714137Y-11230151D01*
X7741728Y-11210276D01*
X7783940Y-11195142D01*
X7786020Y-11194644D01*
X7862721Y-11173279D01*
X7920601Y-11149182D01*
X7961088Y-11121296D01*
X7985613Y-11088564D01*
X7995606Y-11049928D01*
X7996000Y-11039321D01*
X7987200Y-10984257D01*
X7961582Y-10939561D01*
X7920324Y-10906158D01*
X7864602Y-10884977D01*
X7795592Y-10876942D01*
X7789735Y-10876895D01*
X7728441Y-10880225D01*
G37*
X7728441Y-10880225D02*
X7673884Y-10889582D01*
X7631717Y-10903862D01*
X7620904Y-10909837D01*
X7613133Y-10918296D01*
X7613234Y-10932575D01*
X7621533Y-10958439D01*
X7624000Y-10964974D01*
X7641512Y-11010829D01*
X7684136Y-10991477D01*
X7724255Y-10978802D01*
X7769969Y-10972243D01*
X7780562Y-10971903D01*
X7816290Y-10973770D01*
X7840137Y-10981472D01*
X7859696Y-10997012D01*
X7876423Y-11019038D01*
X7878231Y-11038178D01*
X7863965Y-11055429D01*
X7832472Y-11071791D01*
X7782601Y-11088263D01*
X7742000Y-11098954D01*
X7700670Y-11111566D01*
X7661385Y-11127484D01*
X7638315Y-11139841D01*
X7604200Y-11172755D01*
X7586188Y-11213637D01*
X7584009Y-11258425D01*
X7597392Y-11303054D01*
X7626067Y-11343461D01*
X7653371Y-11365931D01*
X7675391Y-11379085D01*
X7697126Y-11387471D01*
X7724348Y-11392334D01*
X7762825Y-11394918D01*
X7792020Y-11395849D01*
X7845032Y-11396133D01*
X7884343Y-11393246D01*
X7916427Y-11386423D01*
X7939273Y-11378409D01*
X7975329Y-11362978D01*
X7994891Y-11350033D01*
X8000655Y-11335387D01*
X7995321Y-11314850D01*
X7989227Y-11300827D01*
X7977955Y-11276048D01*
X7971018Y-11260756D01*
X7970125Y-11258770D01*
X7961283Y-11261319D01*
X7939922Y-11270559D01*
X7924328Y-11277905D01*
X7883041Y-11292608D01*
X7835482Y-11301685D01*
X7788583Y-11304538D01*
X7749275Y-11300568D01*
X7731930Y-11294511D01*
X7707953Y-11274640D01*
X7702450Y-11252396D01*
X7714137Y-11230151D01*
X7741728Y-11210276D01*
X7783940Y-11195142D01*
X7786020Y-11194644D01*
X7862721Y-11173279D01*
X7920601Y-11149182D01*
X7961088Y-11121296D01*
X7985613Y-11088564D01*
X7995606Y-11049928D01*
X7996000Y-11039321D01*
X7987200Y-10984257D01*
X7961582Y-10939561D01*
X7920324Y-10906158D01*
X7864602Y-10884977D01*
X7795592Y-10876942D01*
X7789735Y-10876895D01*
X7728441Y-10880225D01*
G36*
X8137237Y-11132778D02*
G01*
X8107790Y-11198917D01*
X8081288Y-11259105D01*
X8058819Y-11310819D01*
X8041470Y-11351534D01*
X8030328Y-11378726D01*
X8026480Y-11389825D01*
X8035651Y-11394522D01*
X8059370Y-11396744D01*
X8083849Y-11396367D01*
X8116778Y-11393663D01*
X8137822Y-11387002D01*
X8152406Y-11372076D01*
X8165954Y-11344577D01*
X8174046Y-11324740D01*
X8189313Y-11286640D01*
X8430159Y-11286640D01*
X8470603Y-11393320D01*
X8527942Y-11396367D01*
X8562174Y-11396927D01*
X8580053Y-11393490D01*
X8585280Y-11385331D01*
X8585280Y-11385170D01*
X8581243Y-11372391D01*
X8569872Y-11343736D01*
X8552276Y-11301811D01*
X8529566Y-11249222D01*
X8505770Y-11195200D01*
X8390683Y-11195200D01*
X8310182Y-11195200D01*
X8272633Y-11194788D01*
X8244431Y-11193694D01*
X8230409Y-11192131D01*
X8229680Y-11191656D01*
X8233255Y-11181140D01*
X8242659Y-11157671D01*
X8255912Y-11125864D01*
X8271034Y-11090335D01*
X8286046Y-11055700D01*
X8298966Y-11026574D01*
X8307816Y-11007573D01*
X8310663Y-11002877D01*
X8314543Y-11014110D01*
X8324756Y-11039710D01*
X8339567Y-11075398D01*
X8350822Y-11101937D01*
X8390683Y-11195200D01*
X8505770Y-11195200D01*
X8502851Y-11188575D01*
X8475791Y-11128123D01*
X8366301Y-10885320D01*
X8247994Y-10885320D01*
X8137237Y-11132778D01*
G37*
X8137237Y-11132778D02*
X8107790Y-11198917D01*
X8081288Y-11259105D01*
X8058819Y-11310819D01*
X8041470Y-11351534D01*
X8030328Y-11378726D01*
X8026480Y-11389825D01*
X8035651Y-11394522D01*
X8059370Y-11396744D01*
X8083849Y-11396367D01*
X8116778Y-11393663D01*
X8137822Y-11387002D01*
X8152406Y-11372076D01*
X8165954Y-11344577D01*
X8174046Y-11324740D01*
X8189313Y-11286640D01*
X8430159Y-11286640D01*
X8470603Y-11393320D01*
X8527942Y-11396367D01*
X8562174Y-11396927D01*
X8580053Y-11393490D01*
X8585280Y-11385331D01*
X8585280Y-11385170D01*
X8581243Y-11372391D01*
X8569872Y-11343736D01*
X8552276Y-11301811D01*
X8529566Y-11249222D01*
X8505770Y-11195200D01*
X8390683Y-11195200D01*
X8310182Y-11195200D01*
X8272633Y-11194788D01*
X8244431Y-11193694D01*
X8230409Y-11192131D01*
X8229680Y-11191656D01*
X8233255Y-11181140D01*
X8242659Y-11157671D01*
X8255912Y-11125864D01*
X8271034Y-11090335D01*
X8286046Y-11055700D01*
X8298966Y-11026574D01*
X8307816Y-11007573D01*
X8310663Y-11002877D01*
X8314543Y-11014110D01*
X8324756Y-11039710D01*
X8339567Y-11075398D01*
X8350822Y-11101937D01*
X8390683Y-11195200D01*
X8505770Y-11195200D01*
X8502851Y-11188575D01*
X8475791Y-11128123D01*
X8366301Y-10885320D01*
X8247994Y-10885320D01*
X8137237Y-11132778D01*
G36*
X8849440Y-11296800D02*
G01*
X8594327Y-11296800D01*
X8597424Y-11345060D01*
X8600520Y-11393320D01*
X8971360Y-11398858D01*
X8971360Y-10880240D01*
X8849440Y-10880240D01*
X8849440Y-11296800D01*
G37*
X8849440Y-11296800D02*
X8594327Y-11296800D01*
X8597424Y-11345060D01*
X8600520Y-11393320D01*
X8971360Y-11398858D01*
X8971360Y-10880240D01*
X8849440Y-10880240D01*
X8849440Y-11296800D01*
G36*
X9052640Y-10981840D02*
G01*
X9316800Y-10981840D01*
X9316800Y-11113920D01*
X9083120Y-11113920D01*
X9083120Y-11205360D01*
X9316038Y-11205360D01*
X9321880Y-11393320D01*
X9438720Y-11399414D01*
X9438720Y-10880240D01*
X9052640Y-10880240D01*
X9052640Y-10981840D01*
G37*
X9052640Y-10981840D02*
X9316800Y-10981840D01*
X9316800Y-11113920D01*
X9083120Y-11113920D01*
X9083120Y-11205360D01*
X9316038Y-11205360D01*
X9321880Y-11393320D01*
X9438720Y-11399414D01*
X9438720Y-10880240D01*
X9052640Y-10880240D01*
X9052640Y-10981840D01*
G36*
X6786681Y-11864758D02*
G01*
X6761457Y-11906145D01*
X6739659Y-11939860D01*
X6723429Y-11962736D01*
X6714908Y-11971607D01*
X6714458Y-11971554D01*
X6707069Y-11961747D01*
X6691668Y-11937925D01*
X6670479Y-11903623D01*
X6645727Y-11862379D01*
X6644789Y-11860796D01*
X6581582Y-11754000D01*
X6461918Y-11754000D01*
X6563479Y-11920709D01*
X6665040Y-12087419D01*
X6665040Y-12262000D01*
X6776800Y-12262000D01*
X6776800Y-12090430D01*
X6979308Y-11754000D01*
X6852441Y-11754000D01*
X6786681Y-11864758D01*
G37*
X6786681Y-11864758D02*
X6761457Y-11906145D01*
X6739659Y-11939860D01*
X6723429Y-11962736D01*
X6714908Y-11971607D01*
X6714458Y-11971554D01*
X6707069Y-11961747D01*
X6691668Y-11937925D01*
X6670479Y-11903623D01*
X6645727Y-11862379D01*
X6644789Y-11860796D01*
X6581582Y-11754000D01*
X6461918Y-11754000D01*
X6563479Y-11920709D01*
X6665040Y-12087419D01*
X6665040Y-12262000D01*
X6776800Y-12262000D01*
X6776800Y-12090430D01*
X6979308Y-11754000D01*
X6852441Y-11754000D01*
X6786681Y-11864758D01*
G36*
X7302580Y-11754056D02*
G01*
X7231690Y-11755021D01*
X7177269Y-11758419D01*
X7135528Y-11765108D01*
X7102678Y-11775944D01*
X7074928Y-11791786D01*
X7051333Y-11810896D01*
X7015131Y-11856022D01*
X6996400Y-11907612D01*
X6995109Y-11961803D01*
X7011228Y-12014735D01*
X7044725Y-12062546D01*
X7053400Y-12071055D01*
X7094179Y-12108710D01*
X7049003Y-12172655D01*
X7026334Y-12205013D01*
X7007880Y-12231849D01*
X6997150Y-12248052D01*
X6996394Y-12249300D01*
X6997238Y-12256458D01*
X7012144Y-12260373D01*
X7043901Y-12261652D01*
X7053061Y-12261642D01*
X7117160Y-12261284D01*
X7208600Y-12124840D01*
X7315280Y-12118698D01*
X7315280Y-12262000D01*
X7437200Y-12262000D01*
X7437200Y-11855600D01*
X7315280Y-11855600D01*
X7315280Y-12028320D01*
X7243379Y-12028320D01*
X7204583Y-12027595D01*
X7179492Y-12024096D01*
X7161506Y-12015838D01*
X7144024Y-12000834D01*
X7140526Y-11997368D01*
X7120736Y-11974496D01*
X7113714Y-11954131D01*
X7115599Y-11928788D01*
X7125307Y-11895399D01*
X7143877Y-11873391D01*
X7174553Y-11860859D01*
X7220578Y-11855900D01*
X7240206Y-11855600D01*
X7315280Y-11855600D01*
X7437200Y-11855600D01*
X7437200Y-11754000D01*
X7302580Y-11754056D01*
G37*
X7302580Y-11754056D02*
X7231690Y-11755021D01*
X7177269Y-11758419D01*
X7135528Y-11765108D01*
X7102678Y-11775944D01*
X7074928Y-11791786D01*
X7051333Y-11810896D01*
X7015131Y-11856022D01*
X6996400Y-11907612D01*
X6995109Y-11961803D01*
X7011228Y-12014735D01*
X7044725Y-12062546D01*
X7053400Y-12071055D01*
X7094179Y-12108710D01*
X7049003Y-12172655D01*
X7026334Y-12205013D01*
X7007880Y-12231849D01*
X6997150Y-12248052D01*
X6996394Y-12249300D01*
X6997238Y-12256458D01*
X7012144Y-12260373D01*
X7043901Y-12261652D01*
X7053061Y-12261642D01*
X7117160Y-12261284D01*
X7208600Y-12124840D01*
X7315280Y-12118698D01*
X7315280Y-12262000D01*
X7437200Y-12262000D01*
X7437200Y-11855600D01*
X7315280Y-11855600D01*
X7315280Y-12028320D01*
X7243379Y-12028320D01*
X7204583Y-12027595D01*
X7179492Y-12024096D01*
X7161506Y-12015838D01*
X7144024Y-12000834D01*
X7140526Y-11997368D01*
X7120736Y-11974496D01*
X7113714Y-11954131D01*
X7115599Y-11928788D01*
X7125307Y-11895399D01*
X7143877Y-11873391D01*
X7174553Y-11860859D01*
X7220578Y-11855900D01*
X7240206Y-11855600D01*
X7315280Y-11855600D01*
X7437200Y-11855600D01*
X7437200Y-11754000D01*
X7302580Y-11754056D01*
G36*
X8556083Y-11912594D02*
G01*
X8460949Y-12071188D01*
X8368175Y-11913089D01*
X8275400Y-11754990D01*
X8178880Y-11754000D01*
X8178834Y-11893700D01*
X8178269Y-11958743D01*
X8176771Y-12029575D01*
X8174574Y-12097185D01*
X8172202Y-12147700D01*
X8165616Y-12262000D01*
X8223048Y-12262000D01*
X8254391Y-12260773D01*
X8275747Y-12257603D01*
X8281681Y-12254380D01*
X8282583Y-12241914D01*
X8284207Y-12213159D01*
X8286339Y-12172122D01*
X8288765Y-12122813D01*
X8289301Y-12111601D01*
X8295720Y-11976442D01*
X8365496Y-12093821D01*
X8394359Y-12141695D01*
X8415560Y-12174585D01*
X8431378Y-12195226D01*
X8444095Y-12206353D01*
X8455993Y-12210704D01*
X8463360Y-12211200D01*
X8475825Y-12209509D01*
X8487798Y-12202613D01*
X8501563Y-12187776D01*
X8519401Y-12162261D01*
X8543596Y-12123334D01*
X8561225Y-12093895D01*
X8631000Y-11976591D01*
X8633819Y-12119295D01*
X8636638Y-12262000D01*
X8747840Y-12262000D01*
X8747840Y-11754000D01*
X8651216Y-11754000D01*
X8556083Y-11912594D01*
G37*
X8556083Y-11912594D02*
X8460949Y-12071188D01*
X8368175Y-11913089D01*
X8275400Y-11754990D01*
X8178880Y-11754000D01*
X8178834Y-11893700D01*
X8178269Y-11958743D01*
X8176771Y-12029575D01*
X8174574Y-12097185D01*
X8172202Y-12147700D01*
X8165616Y-12262000D01*
X8223048Y-12262000D01*
X8254391Y-12260773D01*
X8275747Y-12257603D01*
X8281681Y-12254380D01*
X8282583Y-12241914D01*
X8284207Y-12213159D01*
X8286339Y-12172122D01*
X8288765Y-12122813D01*
X8289301Y-12111601D01*
X8295720Y-11976442D01*
X8365496Y-12093821D01*
X8394359Y-12141695D01*
X8415560Y-12174585D01*
X8431378Y-12195226D01*
X8444095Y-12206353D01*
X8455993Y-12210704D01*
X8463360Y-12211200D01*
X8475825Y-12209509D01*
X8487798Y-12202613D01*
X8501563Y-12187776D01*
X8519401Y-12162261D01*
X8543596Y-12123334D01*
X8561225Y-12093895D01*
X8631000Y-11976591D01*
X8633819Y-12119295D01*
X8636638Y-12262000D01*
X8747840Y-12262000D01*
X8747840Y-11754000D01*
X8651216Y-11754000D01*
X8556083Y-11912594D01*
G36*
X8849440Y-11844850D02*
G01*
X9118680Y-11850520D01*
X9124800Y-11956546D01*
X8885000Y-11962280D01*
X8881892Y-12005132D01*
X8878784Y-12047985D01*
X8998732Y-12050852D01*
X9118680Y-12053720D01*
X9121728Y-12112140D01*
X9124775Y-12170560D01*
X8839280Y-12170560D01*
X8839280Y-12262000D01*
X9235520Y-12262000D01*
X9235520Y-11754000D01*
X8849440Y-11754000D01*
X8849440Y-11844850D01*
G37*
X8849440Y-11844850D02*
X9118680Y-11850520D01*
X9124800Y-11956546D01*
X8885000Y-11962280D01*
X8881892Y-12005132D01*
X8878784Y-12047985D01*
X8998732Y-12050852D01*
X9118680Y-12053720D01*
X9121728Y-12112140D01*
X9124775Y-12170560D01*
X8839280Y-12170560D01*
X8839280Y-12262000D01*
X9235520Y-12262000D01*
X9235520Y-11754000D01*
X8849440Y-11754000D01*
X8849440Y-11844850D01*
G36*
X9743355Y-11911757D02*
G01*
X9709587Y-11967947D01*
X9684393Y-12008486D01*
X9666262Y-12035364D01*
X9653681Y-12050571D01*
X9645137Y-12056095D01*
X9639118Y-12053925D01*
X9637152Y-12051457D01*
X9627921Y-12036802D01*
X9610374Y-12008138D01*
X9586603Y-11968911D01*
X9558698Y-11922565D01*
X9541395Y-11893700D01*
X9457789Y-11754000D01*
X9357440Y-11754000D01*
X9357440Y-12262000D01*
X9468657Y-12262000D01*
X9471469Y-12112576D01*
X9474280Y-11963152D01*
X9548415Y-12087176D01*
X9583455Y-12144778D01*
X9610981Y-12184857D01*
X9633654Y-12207483D01*
X9654133Y-12212723D01*
X9675075Y-12200646D01*
X9699141Y-12171320D01*
X9728990Y-12124814D01*
X9748600Y-12092328D01*
X9819720Y-11973758D01*
X9825358Y-12262000D01*
X9936560Y-12262000D01*
X9936560Y-11754000D01*
X9837407Y-11754000D01*
X9743355Y-11911757D01*
G37*
X9743355Y-11911757D02*
X9709587Y-11967947D01*
X9684393Y-12008486D01*
X9666262Y-12035364D01*
X9653681Y-12050571D01*
X9645137Y-12056095D01*
X9639118Y-12053925D01*
X9637152Y-12051457D01*
X9627921Y-12036802D01*
X9610374Y-12008138D01*
X9586603Y-11968911D01*
X9558698Y-11922565D01*
X9541395Y-11893700D01*
X9457789Y-11754000D01*
X9357440Y-11754000D01*
X9357440Y-12262000D01*
X9468657Y-12262000D01*
X9471469Y-12112576D01*
X9474280Y-11963152D01*
X9548415Y-12087176D01*
X9583455Y-12144778D01*
X9610981Y-12184857D01*
X9633654Y-12207483D01*
X9654133Y-12212723D01*
X9675075Y-12200646D01*
X9699141Y-12171320D01*
X9728990Y-12124814D01*
X9748600Y-12092328D01*
X9819720Y-11973758D01*
X9825358Y-12262000D01*
X9936560Y-12262000D01*
X9936560Y-11754000D01*
X9837407Y-11754000D01*
X9743355Y-11911757D01*
G36*
X7737852Y-11753196D02*
G01*
X7717104Y-11758496D01*
X7668355Y-11779930D01*
X7620841Y-11813362D01*
X7579680Y-11854058D01*
X7549990Y-11897281D01*
X7539770Y-11922604D01*
X7528171Y-11997965D01*
X7535044Y-12069338D01*
X7559158Y-12134212D01*
X7599281Y-12190073D01*
X7654180Y-12234411D01*
X7704570Y-12258687D01*
X7735819Y-12265561D01*
X7778998Y-12269441D01*
X7825916Y-12270155D01*
X7868381Y-12267530D01*
X7894466Y-12262667D01*
X7960362Y-12232894D01*
X8013920Y-12189054D01*
X8053526Y-12134088D01*
X8077569Y-12070939D01*
X8084435Y-12002548D01*
X8083146Y-11994543D01*
X7962523Y-11994543D01*
X7958715Y-12047375D01*
X7939794Y-12096141D01*
X7908545Y-12135224D01*
X7884399Y-12152028D01*
X7837511Y-12167251D01*
X7786201Y-12169145D01*
X7738889Y-12157801D01*
X7724128Y-12150294D01*
X7683228Y-12114820D01*
X7658859Y-12068012D01*
X7650639Y-12009131D01*
X7650636Y-12008000D01*
X7657415Y-11951391D01*
X7678669Y-11908064D01*
X7715775Y-11875767D01*
X7738687Y-11863931D01*
X7793850Y-11849165D01*
X7846227Y-11852695D01*
X7892588Y-11872635D01*
X7929705Y-11907103D01*
X7954348Y-11954213D01*
X7962523Y-11994543D01*
X8083146Y-11994543D01*
X8073674Y-11935728D01*
X8045197Y-11872302D01*
X8001844Y-11820150D01*
X7946523Y-11780717D01*
X7882145Y-11755450D01*
X7811618Y-11745794D01*
X7737852Y-11753196D01*
G37*
X7737852Y-11753196D02*
X7717104Y-11758496D01*
X7668355Y-11779930D01*
X7620841Y-11813362D01*
X7579680Y-11854058D01*
X7549990Y-11897281D01*
X7539770Y-11922604D01*
X7528171Y-11997965D01*
X7535044Y-12069338D01*
X7559158Y-12134212D01*
X7599281Y-12190073D01*
X7654180Y-12234411D01*
X7704570Y-12258687D01*
X7735819Y-12265561D01*
X7778998Y-12269441D01*
X7825916Y-12270155D01*
X7868381Y-12267530D01*
X7894466Y-12262667D01*
X7960362Y-12232894D01*
X8013920Y-12189054D01*
X8053526Y-12134088D01*
X8077569Y-12070939D01*
X8084435Y-12002548D01*
X8083146Y-11994543D01*
X7962523Y-11994543D01*
X7958715Y-12047375D01*
X7939794Y-12096141D01*
X7908545Y-12135224D01*
X7884399Y-12152028D01*
X7837511Y-12167251D01*
X7786201Y-12169145D01*
X7738889Y-12157801D01*
X7724128Y-12150294D01*
X7683228Y-12114820D01*
X7658859Y-12068012D01*
X7650639Y-12009131D01*
X7650636Y-12008000D01*
X7657415Y-11951391D01*
X7678669Y-11908064D01*
X7715775Y-11875767D01*
X7738687Y-11863931D01*
X7793850Y-11849165D01*
X7846227Y-11852695D01*
X7892588Y-11872635D01*
X7929705Y-11907103D01*
X7954348Y-11954213D01*
X7962523Y-11994543D01*
X8083146Y-11994543D01*
X8073674Y-11935728D01*
X8045197Y-11872302D01*
X8001844Y-11820150D01*
X7946523Y-11780717D01*
X7882145Y-11755450D01*
X7811618Y-11745794D01*
X7737852Y-11753196D01*
G36*
X-3273021Y-17822346D02*
G01*
X-3315719Y-17823165D01*
X-3346168Y-17825227D01*
X-3368404Y-17829104D01*
X-3386462Y-17835365D01*
X-3404379Y-17844582D01*
X-3414717Y-17850578D01*
X-3460218Y-17887752D01*
X-3489891Y-17934057D01*
X-3503419Y-17985671D01*
X-3500485Y-18038773D01*
X-3480769Y-18089544D01*
X-3443955Y-18134161D01*
X-3438682Y-18138667D01*
X-3401720Y-18169134D01*
X-3452660Y-18241670D01*
X-3475528Y-18274818D01*
X-3493081Y-18301374D01*
X-3502626Y-18317215D01*
X-3503600Y-18319663D01*
X-3494367Y-18322543D01*
X-3470374Y-18324520D01*
X-3442720Y-18325120D01*
X-3381841Y-18325120D01*
X-3334550Y-18254000D01*
X-3287258Y-18182880D01*
X-3178480Y-18182880D01*
X-3178480Y-18325120D01*
X-3056205Y-18325120D01*
X-3058922Y-18073660D01*
X-3060596Y-17918720D01*
X-3178480Y-17918720D01*
X-3178480Y-18093591D01*
X-3260755Y-18089855D01*
X-3303171Y-18087216D01*
X-3330466Y-18083055D01*
X-3347835Y-18075959D01*
X-3360476Y-18064517D01*
X-3362355Y-18062253D01*
X-3379252Y-18026783D01*
X-3379679Y-17987597D01*
X-3363980Y-17951992D01*
X-3356741Y-17943658D01*
X-3341386Y-17930637D01*
X-3323884Y-17923107D01*
X-3298333Y-17919618D01*
X-3258833Y-17918723D01*
X-3255141Y-17918720D01*
X-3178480Y-17918720D01*
X-3060596Y-17918720D01*
X-3061640Y-17822200D01*
X-3214040Y-17822200D01*
X-3273021Y-17822346D01*
G37*
X-3273021Y-17822346D02*
X-3315719Y-17823165D01*
X-3346168Y-17825227D01*
X-3368404Y-17829104D01*
X-3386462Y-17835365D01*
X-3404379Y-17844582D01*
X-3414717Y-17850578D01*
X-3460218Y-17887752D01*
X-3489891Y-17934057D01*
X-3503419Y-17985671D01*
X-3500485Y-18038773D01*
X-3480769Y-18089544D01*
X-3443955Y-18134161D01*
X-3438682Y-18138667D01*
X-3401720Y-18169134D01*
X-3452660Y-18241670D01*
X-3475528Y-18274818D01*
X-3493081Y-18301374D01*
X-3502626Y-18317215D01*
X-3503600Y-18319663D01*
X-3494367Y-18322543D01*
X-3470374Y-18324520D01*
X-3442720Y-18325120D01*
X-3381841Y-18325120D01*
X-3334550Y-18254000D01*
X-3287258Y-18182880D01*
X-3178480Y-18182880D01*
X-3178480Y-18325120D01*
X-3056205Y-18325120D01*
X-3058922Y-18073660D01*
X-3060596Y-17918720D01*
X-3178480Y-17918720D01*
X-3178480Y-18093591D01*
X-3260755Y-18089855D01*
X-3303171Y-18087216D01*
X-3330466Y-18083055D01*
X-3347835Y-18075959D01*
X-3360476Y-18064517D01*
X-3362355Y-18062253D01*
X-3379252Y-18026783D01*
X-3379679Y-17987597D01*
X-3363980Y-17951992D01*
X-3356741Y-17943658D01*
X-3341386Y-17930637D01*
X-3323884Y-17923107D01*
X-3298333Y-17919618D01*
X-3258833Y-17918723D01*
X-3255141Y-17918720D01*
X-3178480Y-17918720D01*
X-3060596Y-17918720D01*
X-3061640Y-17822200D01*
X-3214040Y-17822200D01*
X-3273021Y-17822346D01*
G36*
X-2954960Y-17918720D02*
G01*
X-2690800Y-17918720D01*
X-2690800Y-18020320D01*
X-2924480Y-18020320D01*
X-2924480Y-18121920D01*
X-2690800Y-18121920D01*
X-2690800Y-18233680D01*
X-2965120Y-18233680D01*
X-2965120Y-18325120D01*
X-2568880Y-18325120D01*
X-2568880Y-17817120D01*
X-2954960Y-17817120D01*
X-2954960Y-17918720D01*
G37*
X-2954960Y-17918720D02*
X-2690800Y-17918720D01*
X-2690800Y-18020320D01*
X-2924480Y-18020320D01*
X-2924480Y-18121920D01*
X-2690800Y-18121920D01*
X-2690800Y-18233680D01*
X-2965120Y-18233680D01*
X-2965120Y-18325120D01*
X-2568880Y-18325120D01*
X-2568880Y-17817120D01*
X-2954960Y-17817120D01*
X-2954960Y-17918720D01*
G36*
X-2507920Y-17918720D02*
G01*
X-2345360Y-17918720D01*
X-2345360Y-18325120D01*
X-2223440Y-18325120D01*
X-2223440Y-17918720D01*
X-2060880Y-17918720D01*
X-2060880Y-17817120D01*
X-2507920Y-17817120D01*
X-2507920Y-17918720D01*
G37*
X-2507920Y-17918720D02*
X-2345360Y-17918720D01*
X-2345360Y-18325120D01*
X-2223440Y-18325120D01*
X-2223440Y-17918720D01*
X-2060880Y-17918720D01*
X-2060880Y-17817120D01*
X-2507920Y-17817120D01*
X-2507920Y-17918720D01*
G36*
X-2018256Y-17865380D02*
G01*
X-2015160Y-17913640D01*
X-1880540Y-17916474D01*
X-1745920Y-17919309D01*
X-1745920Y-18019675D01*
X-1865300Y-18022537D01*
X-1984680Y-18025400D01*
X-1984680Y-18116840D01*
X-1745920Y-18122564D01*
X-1745920Y-18233680D01*
X-2030400Y-18233680D01*
X-2030400Y-18325120D01*
X-1634160Y-18325120D01*
X-1634160Y-17817120D01*
X-2021353Y-17817120D01*
X-2018256Y-17865380D01*
G37*
X-2018256Y-17865380D02*
X-2015160Y-17913640D01*
X-1880540Y-17916474D01*
X-1745920Y-17919309D01*
X-1745920Y-18019675D01*
X-1865300Y-18022537D01*
X-1984680Y-18025400D01*
X-1984680Y-18116840D01*
X-1745920Y-18122564D01*
X-1745920Y-18233680D01*
X-2030400Y-18233680D01*
X-2030400Y-18325120D01*
X-1634160Y-18325120D01*
X-1634160Y-17817120D01*
X-2021353Y-17817120D01*
X-2018256Y-17865380D01*
G36*
X-1126160Y-17974600D02*
G01*
X-1156289Y-18024888D01*
X-1182724Y-18068534D01*
X-1203769Y-18102780D01*
X-1217730Y-18124867D01*
X-1222875Y-18132080D01*
X-1228677Y-18123774D01*
X-1243065Y-18100703D01*
X-1264355Y-18065636D01*
X-1290866Y-18021344D01*
X-1318553Y-17974600D01*
X-1411402Y-17817120D01*
X-1512240Y-17817120D01*
X-1512240Y-18325120D01*
X-1401023Y-18325120D01*
X-1398211Y-18177665D01*
X-1395400Y-18030210D01*
X-1323796Y-18149725D01*
X-1294313Y-18198237D01*
X-1272505Y-18231824D01*
X-1256070Y-18253257D01*
X-1242701Y-18265311D01*
X-1230094Y-18270758D01*
X-1222196Y-18271986D01*
X-1209541Y-18272059D01*
X-1198299Y-18267908D01*
X-1186148Y-18256862D01*
X-1170761Y-18236250D01*
X-1149813Y-18203399D01*
X-1121080Y-18155805D01*
X-1049960Y-18036878D01*
X-1044322Y-18325120D01*
X-933120Y-18325120D01*
X-933120Y-17817120D01*
X-1032273Y-17817120D01*
X-1126160Y-17974600D01*
G37*
X-1126160Y-17974600D02*
X-1156289Y-18024888D01*
X-1182724Y-18068534D01*
X-1203769Y-18102780D01*
X-1217730Y-18124867D01*
X-1222875Y-18132080D01*
X-1228677Y-18123774D01*
X-1243065Y-18100703D01*
X-1264355Y-18065636D01*
X-1290866Y-18021344D01*
X-1318553Y-17974600D01*
X-1411402Y-17817120D01*
X-1512240Y-17817120D01*
X-1512240Y-18325120D01*
X-1401023Y-18325120D01*
X-1398211Y-18177665D01*
X-1395400Y-18030210D01*
X-1323796Y-18149725D01*
X-1294313Y-18198237D01*
X-1272505Y-18231824D01*
X-1256070Y-18253257D01*
X-1242701Y-18265311D01*
X-1230094Y-18270758D01*
X-1222196Y-18271986D01*
X-1209541Y-18272059D01*
X-1198299Y-18267908D01*
X-1186148Y-18256862D01*
X-1170761Y-18236250D01*
X-1149813Y-18203399D01*
X-1121080Y-18155805D01*
X-1049960Y-18036878D01*
X-1044322Y-18325120D01*
X-933120Y-18325120D01*
X-933120Y-17817120D01*
X-1032273Y-17817120D01*
X-1126160Y-17974600D01*
G36*
X65100Y-17818728D02*
G01*
X5718Y-17820354D01*
X-37437Y-17822448D01*
X-68458Y-17825615D01*
X-91436Y-17830464D01*
X-110464Y-17837600D01*
X-129579Y-17847600D01*
X-174129Y-17878600D01*
X-201895Y-17913916D01*
X-216381Y-17959011D01*
X-219844Y-17988342D01*
X-216767Y-18051327D01*
X-197596Y-18102090D01*
X-162407Y-18140451D01*
X-155075Y-18145570D01*
X-121942Y-18167289D01*
X-177239Y-18246204D01*
X-232537Y-18325120D01*
X-103586Y-18325120D01*
X-54663Y-18253517D01*
X-5739Y-18181915D01*
X46191Y-18184937D01*
X98120Y-18187960D01*
X101125Y-18256540D01*
X104129Y-18325120D01*
X214960Y-18325120D01*
X214960Y-17918720D01*
X103200Y-17918720D01*
X103200Y-18091440D01*
X28371Y-18091440D01*
X-14657Y-18090213D01*
X-43559Y-18085691D01*
X-64428Y-18076611D01*
X-73229Y-18070382D01*
X-91301Y-18051488D01*
X-98920Y-18027426D01*
X-100000Y-18005080D01*
X-95189Y-17968031D01*
X-79210Y-17942491D01*
X-49739Y-17926895D01*
X-4451Y-17919681D01*
X28371Y-17918720D01*
X103200Y-17918720D01*
X214960Y-17918720D01*
X214960Y-17815256D01*
X65100Y-17818728D01*
G37*
X65100Y-17818728D02*
X5718Y-17820354D01*
X-37437Y-17822448D01*
X-68458Y-17825615D01*
X-91436Y-17830464D01*
X-110464Y-17837600D01*
X-129579Y-17847600D01*
X-174129Y-17878600D01*
X-201895Y-17913916D01*
X-216381Y-17959011D01*
X-219844Y-17988342D01*
X-216767Y-18051327D01*
X-197596Y-18102090D01*
X-162407Y-18140451D01*
X-155075Y-18145570D01*
X-121942Y-18167289D01*
X-177239Y-18246204D01*
X-232537Y-18325120D01*
X-103586Y-18325120D01*
X-54663Y-18253517D01*
X-5739Y-18181915D01*
X46191Y-18184937D01*
X98120Y-18187960D01*
X101125Y-18256540D01*
X104129Y-18325120D01*
X214960Y-18325120D01*
X214960Y-17918720D01*
X103200Y-17918720D01*
X103200Y-18091440D01*
X28371Y-18091440D01*
X-14657Y-18090213D01*
X-43559Y-18085691D01*
X-64428Y-18076611D01*
X-73229Y-18070382D01*
X-91301Y-18051488D01*
X-98920Y-18027426D01*
X-100000Y-18005080D01*
X-95189Y-17968031D01*
X-79210Y-17942491D01*
X-49739Y-17926895D01*
X-4451Y-17919681D01*
X28371Y-17918720D01*
X103200Y-17918720D01*
X214960Y-17918720D01*
X214960Y-17815256D01*
X65100Y-17818728D01*
G36*
X321640Y-17913640D02*
G01*
X456260Y-17916474D01*
X590880Y-17919309D01*
X590880Y-18020320D01*
X357200Y-18020320D01*
X357200Y-18121920D01*
X590880Y-18121920D01*
X590880Y-18233106D01*
X311480Y-18238760D01*
X305232Y-18325120D01*
X713155Y-18325120D01*
X710438Y-18073660D01*
X707720Y-17822200D01*
X321640Y-17822200D01*
X321640Y-17913640D01*
G37*
X321640Y-17913640D02*
X456260Y-17916474D01*
X590880Y-17919309D01*
X590880Y-18020320D01*
X357200Y-18020320D01*
X357200Y-18121920D01*
X590880Y-18121920D01*
X590880Y-18233106D01*
X311480Y-18238760D01*
X305232Y-18325120D01*
X713155Y-18325120D01*
X710438Y-18073660D01*
X707720Y-17822200D01*
X321640Y-17822200D01*
X321640Y-17913640D01*
G36*
X1027760Y-18233680D02*
G01*
X773760Y-18233680D01*
X773760Y-18325120D01*
X1149680Y-18325120D01*
X1149680Y-17817120D01*
X1027760Y-17817120D01*
X1027760Y-18233680D01*
G37*
X1027760Y-18233680D02*
X773760Y-18233680D01*
X773760Y-18325120D01*
X1149680Y-18325120D01*
X1149680Y-17817120D01*
X1027760Y-17817120D01*
X1027760Y-18233680D01*
G36*
X1253264Y-17865380D02*
G01*
X1256360Y-17913640D01*
X1385900Y-17916483D01*
X1515440Y-17919327D01*
X1515440Y-18020320D01*
X1280647Y-18020320D01*
X1283744Y-18068580D01*
X1286840Y-18116840D01*
X1401140Y-18119712D01*
X1515440Y-18122585D01*
X1515440Y-18233680D01*
X1241120Y-18233680D01*
X1241120Y-18325120D01*
X1637360Y-18325120D01*
X1637360Y-17817120D01*
X1250167Y-17817120D01*
X1253264Y-17865380D01*
G37*
X1253264Y-17865380D02*
X1256360Y-17913640D01*
X1385900Y-17916483D01*
X1515440Y-17919327D01*
X1515440Y-18020320D01*
X1280647Y-18020320D01*
X1283744Y-18068580D01*
X1286840Y-18116840D01*
X1401140Y-18119712D01*
X1515440Y-18122585D01*
X1515440Y-18233680D01*
X1241120Y-18233680D01*
X1241120Y-18325120D01*
X1637360Y-18325120D01*
X1637360Y-17817120D01*
X1250167Y-17817120D01*
X1253264Y-17865380D01*
G36*
X2883747Y-18012700D02*
G01*
X2855838Y-18075429D01*
X2829002Y-18135782D01*
X2804970Y-18189861D01*
X2785475Y-18233770D01*
X2772247Y-18263611D01*
X2770881Y-18266700D01*
X2745057Y-18325120D01*
X2867847Y-18325120D01*
X2889083Y-18274019D01*
X2910320Y-18222918D01*
X3031999Y-18225759D01*
X3153679Y-18228600D01*
X3171496Y-18274320D01*
X3189312Y-18320040D01*
X3251624Y-18323067D01*
X3313935Y-18326094D01*
X3287895Y-18267187D01*
X3275712Y-18239691D01*
X3257001Y-18197539D01*
X3233497Y-18144641D01*
X3227913Y-18132080D01*
X3110264Y-18132080D01*
X2949883Y-18132080D01*
X2986292Y-18040640D01*
X3002498Y-18001593D01*
X3016505Y-17970860D01*
X3026377Y-17952535D01*
X3029530Y-17949200D01*
X3037248Y-17957676D01*
X3048206Y-17978844D01*
X3051805Y-17987300D01*
X3064860Y-18019556D01*
X3080745Y-18058877D01*
X3088758Y-18078740D01*
X3110264Y-18132080D01*
X3227913Y-18132080D01*
X3206937Y-18084904D01*
X3179058Y-18022236D01*
X3174814Y-18012700D01*
X3087774Y-17817120D01*
X2970787Y-17817120D01*
X2883747Y-18012700D01*
G37*
X2883747Y-18012700D02*
X2855838Y-18075429D01*
X2829002Y-18135782D01*
X2804970Y-18189861D01*
X2785475Y-18233770D01*
X2772247Y-18263611D01*
X2770881Y-18266700D01*
X2745057Y-18325120D01*
X2867847Y-18325120D01*
X2889083Y-18274019D01*
X2910320Y-18222918D01*
X3031999Y-18225759D01*
X3153679Y-18228600D01*
X3171496Y-18274320D01*
X3189312Y-18320040D01*
X3251624Y-18323067D01*
X3313935Y-18326094D01*
X3287895Y-18267187D01*
X3275712Y-18239691D01*
X3257001Y-18197539D01*
X3233497Y-18144641D01*
X3227913Y-18132080D01*
X3110264Y-18132080D01*
X2949883Y-18132080D01*
X2986292Y-18040640D01*
X3002498Y-18001593D01*
X3016505Y-17970860D01*
X3026377Y-17952535D01*
X3029530Y-17949200D01*
X3037248Y-17957676D01*
X3048206Y-17978844D01*
X3051805Y-17987300D01*
X3064860Y-18019556D01*
X3080745Y-18058877D01*
X3088758Y-18078740D01*
X3110264Y-18132080D01*
X3227913Y-18132080D01*
X3206937Y-18084904D01*
X3179058Y-18022236D01*
X3174814Y-18012700D01*
X3087774Y-17817120D01*
X2970787Y-17817120D01*
X2883747Y-18012700D01*
G36*
X-661768Y-17824935D02*
G01*
X-726878Y-17858002D01*
X-783653Y-17909231D01*
X-805823Y-17937640D01*
X-822321Y-17963833D01*
X-832142Y-17988944D01*
X-837360Y-18020401D01*
X-839792Y-18059241D01*
X-840623Y-18102300D01*
X-837727Y-18133415D01*
X-829538Y-18160847D01*
X-814488Y-18192856D01*
X-814430Y-18192970D01*
X-777857Y-18246472D01*
X-730037Y-18290242D01*
X-676365Y-18319645D01*
X-661083Y-18324656D01*
X-600748Y-18334597D01*
X-535826Y-18334102D01*
X-474841Y-18323683D01*
X-440360Y-18311375D01*
X-379183Y-18272601D01*
X-332807Y-18222016D01*
X-302150Y-18162652D01*
X-288132Y-18097538D01*
X-288189Y-18096431D01*
X-408238Y-18096431D01*
X-420741Y-18144024D01*
X-448065Y-18186301D01*
X-474325Y-18209212D01*
X-498681Y-18223876D01*
X-522329Y-18230953D01*
X-553570Y-18232268D01*
X-574907Y-18231319D01*
X-612559Y-18227807D01*
X-638005Y-18220578D01*
X-659351Y-18206515D01*
X-673715Y-18193354D01*
X-704515Y-18150202D01*
X-720300Y-18098385D01*
X-720530Y-18043502D01*
X-704661Y-17991151D01*
X-694943Y-17974063D01*
X-664800Y-17944425D01*
X-622108Y-17923049D01*
X-573864Y-17912643D01*
X-538676Y-17913601D01*
X-489658Y-17929968D01*
X-451266Y-17960288D01*
X-424340Y-18000708D01*
X-409718Y-18047374D01*
X-408238Y-18096431D01*
X-288189Y-18096431D01*
X-291671Y-18029703D01*
X-313688Y-17962179D01*
X-326924Y-17937507D01*
X-371233Y-17882561D01*
X-429140Y-17842652D01*
X-500407Y-17817937D01*
X-512063Y-17815582D01*
X-589704Y-17810604D01*
X-661768Y-17824935D01*
G37*
X-661768Y-17824935D02*
X-726878Y-17858002D01*
X-783653Y-17909231D01*
X-805823Y-17937640D01*
X-822321Y-17963833D01*
X-832142Y-17988944D01*
X-837360Y-18020401D01*
X-839792Y-18059241D01*
X-840623Y-18102300D01*
X-837727Y-18133415D01*
X-829538Y-18160847D01*
X-814488Y-18192856D01*
X-814430Y-18192970D01*
X-777857Y-18246472D01*
X-730037Y-18290242D01*
X-676365Y-18319645D01*
X-661083Y-18324656D01*
X-600748Y-18334597D01*
X-535826Y-18334102D01*
X-474841Y-18323683D01*
X-440360Y-18311375D01*
X-379183Y-18272601D01*
X-332807Y-18222016D01*
X-302150Y-18162652D01*
X-288132Y-18097538D01*
X-288189Y-18096431D01*
X-408238Y-18096431D01*
X-420741Y-18144024D01*
X-448065Y-18186301D01*
X-474325Y-18209212D01*
X-498681Y-18223876D01*
X-522329Y-18230953D01*
X-553570Y-18232268D01*
X-574907Y-18231319D01*
X-612559Y-18227807D01*
X-638005Y-18220578D01*
X-659351Y-18206515D01*
X-673715Y-18193354D01*
X-704515Y-18150202D01*
X-720300Y-18098385D01*
X-720530Y-18043502D01*
X-704661Y-17991151D01*
X-694943Y-17974063D01*
X-664800Y-17944425D01*
X-622108Y-17923049D01*
X-573864Y-17912643D01*
X-538676Y-17913601D01*
X-489658Y-17929968D01*
X-451266Y-17960288D01*
X-424340Y-18000708D01*
X-409718Y-18047374D01*
X-408238Y-18096431D01*
X-288189Y-18096431D01*
X-291671Y-18029703D01*
X-313688Y-17962179D01*
X-326924Y-17937507D01*
X-371233Y-17882561D01*
X-429140Y-17842652D01*
X-500407Y-17817937D01*
X-512063Y-17815582D01*
X-589704Y-17810604D01*
X-661768Y-17824935D01*
G36*
X1878786Y-17814926D02*
G01*
X1840738Y-17822831D01*
X1801648Y-17838761D01*
X1797836Y-17840609D01*
X1755888Y-17862476D01*
X1731611Y-17879824D01*
X1723711Y-17895439D01*
X1730900Y-17912110D01*
X1751884Y-17932624D01*
X1754279Y-17934648D01*
X1778943Y-17953992D01*
X1794335Y-17961073D01*
X1805797Y-17957748D01*
X1810272Y-17954106D01*
X1850886Y-17928795D01*
X1900478Y-17914281D01*
X1948984Y-17913370D01*
X1999624Y-17929872D01*
X2039079Y-17960108D01*
X2066557Y-18000352D01*
X2081270Y-18046879D01*
X2082426Y-18095964D01*
X2069237Y-18143881D01*
X2040912Y-18186905D01*
X2012248Y-18211710D01*
X1972260Y-18228455D01*
X1923416Y-18233392D01*
X1873180Y-18226817D01*
X1829018Y-18209026D01*
X1821574Y-18204149D01*
X1788213Y-18180394D01*
X1753549Y-18213991D01*
X1733114Y-18234813D01*
X1725702Y-18247789D01*
X1729420Y-18258874D01*
X1736543Y-18267474D01*
X1774726Y-18297383D01*
X1826772Y-18319643D01*
X1887031Y-18332268D01*
X1926920Y-18334378D01*
X1967940Y-18332453D01*
X2005063Y-18328119D01*
X2028520Y-18322811D01*
X2091477Y-18290280D01*
X2141972Y-18243757D01*
X2178387Y-18186430D01*
X2199108Y-18121489D01*
X2202516Y-18052126D01*
X2192670Y-17998884D01*
X2163857Y-17933318D01*
X2120207Y-17880778D01*
X2063377Y-17842420D01*
X1995024Y-17819404D01*
X1926326Y-17812761D01*
X1878786Y-17814926D01*
G37*
X1878786Y-17814926D02*
X1840738Y-17822831D01*
X1801648Y-17838761D01*
X1797836Y-17840609D01*
X1755888Y-17862476D01*
X1731611Y-17879824D01*
X1723711Y-17895439D01*
X1730900Y-17912110D01*
X1751884Y-17932624D01*
X1754279Y-17934648D01*
X1778943Y-17953992D01*
X1794335Y-17961073D01*
X1805797Y-17957748D01*
X1810272Y-17954106D01*
X1850886Y-17928795D01*
X1900478Y-17914281D01*
X1948984Y-17913370D01*
X1999624Y-17929872D01*
X2039079Y-17960108D01*
X2066557Y-18000352D01*
X2081270Y-18046879D01*
X2082426Y-18095964D01*
X2069237Y-18143881D01*
X2040912Y-18186905D01*
X2012248Y-18211710D01*
X1972260Y-18228455D01*
X1923416Y-18233392D01*
X1873180Y-18226817D01*
X1829018Y-18209026D01*
X1821574Y-18204149D01*
X1788213Y-18180394D01*
X1753549Y-18213991D01*
X1733114Y-18234813D01*
X1725702Y-18247789D01*
X1729420Y-18258874D01*
X1736543Y-18267474D01*
X1774726Y-18297383D01*
X1826772Y-18319643D01*
X1887031Y-18332268D01*
X1926920Y-18334378D01*
X1967940Y-18332453D01*
X2005063Y-18328119D01*
X2028520Y-18322811D01*
X2091477Y-18290280D01*
X2141972Y-18243757D01*
X2178387Y-18186430D01*
X2199108Y-18121489D01*
X2202516Y-18052126D01*
X2192670Y-17998884D01*
X2163857Y-17933318D01*
X2120207Y-17880778D01*
X2063377Y-17842420D01*
X1995024Y-17819404D01*
X1926326Y-17812761D01*
X1878786Y-17814926D01*
G36*
X2379169Y-17819286D02*
G01*
X2318381Y-17838475D01*
X2271090Y-17869211D01*
X2261590Y-17878754D01*
X2251347Y-17891757D01*
X2250782Y-17902687D01*
X2261672Y-17917455D01*
X2278365Y-17934546D01*
X2313676Y-17969856D01*
X2347777Y-17944698D01*
X2398745Y-17919084D01*
X2454372Y-17912208D01*
X2509064Y-17924162D01*
X2555444Y-17952453D01*
X2587802Y-17992172D01*
X2605419Y-18039387D01*
X2607579Y-18090168D01*
X2593564Y-18140583D01*
X2562657Y-18186704D01*
X2557880Y-18191661D01*
X2535232Y-18212114D01*
X2513964Y-18223582D01*
X2486050Y-18229275D01*
X2458114Y-18231553D01*
X2419944Y-18232667D01*
X2393510Y-18228980D01*
X2370448Y-18218662D01*
X2355609Y-18209114D01*
X2316938Y-18182717D01*
X2281949Y-18209404D01*
X2256496Y-18231955D01*
X2249002Y-18249906D01*
X2259220Y-18267677D01*
X2277820Y-18283153D01*
X2335487Y-18314208D01*
X2402762Y-18331850D01*
X2473498Y-18335497D01*
X2541549Y-18324572D01*
X2577234Y-18311390D01*
X2628696Y-18278895D01*
X2673974Y-18234571D01*
X2706625Y-18184949D01*
X2710511Y-18176325D01*
X2720580Y-18136097D01*
X2724150Y-18085070D01*
X2721420Y-18031629D01*
X2712590Y-17984160D01*
X2705470Y-17964214D01*
X2667668Y-17903902D01*
X2616297Y-17858270D01*
X2552529Y-17828015D01*
X2477537Y-17813832D01*
X2450160Y-17812796D01*
X2379169Y-17819286D01*
G37*
X2379169Y-17819286D02*
X2318381Y-17838475D01*
X2271090Y-17869211D01*
X2261590Y-17878754D01*
X2251347Y-17891757D01*
X2250782Y-17902687D01*
X2261672Y-17917455D01*
X2278365Y-17934546D01*
X2313676Y-17969856D01*
X2347777Y-17944698D01*
X2398745Y-17919084D01*
X2454372Y-17912208D01*
X2509064Y-17924162D01*
X2555444Y-17952453D01*
X2587802Y-17992172D01*
X2605419Y-18039387D01*
X2607579Y-18090168D01*
X2593564Y-18140583D01*
X2562657Y-18186704D01*
X2557880Y-18191661D01*
X2535232Y-18212114D01*
X2513964Y-18223582D01*
X2486050Y-18229275D01*
X2458114Y-18231553D01*
X2419944Y-18232667D01*
X2393510Y-18228980D01*
X2370448Y-18218662D01*
X2355609Y-18209114D01*
X2316938Y-18182717D01*
X2281949Y-18209404D01*
X2256496Y-18231955D01*
X2249002Y-18249906D01*
X2259220Y-18267677D01*
X2277820Y-18283153D01*
X2335487Y-18314208D01*
X2402762Y-18331850D01*
X2473498Y-18335497D01*
X2541549Y-18324572D01*
X2577234Y-18311390D01*
X2628696Y-18278895D01*
X2673974Y-18234571D01*
X2706625Y-18184949D01*
X2710511Y-18176325D01*
X2720580Y-18136097D01*
X2724150Y-18085070D01*
X2721420Y-18031629D01*
X2712590Y-17984160D01*
X2705470Y-17964214D01*
X2667668Y-17903902D01*
X2616297Y-17858270D01*
X2552529Y-17828015D01*
X2477537Y-17813832D01*
X2450160Y-17812796D01*
X2379169Y-17819286D01*
D14*
X-1092000Y-14138803D02*
X-1092000Y-14638803D01*
X-1092000Y-14638803D02*
X-592000Y-14638803D01*
X-592000Y-14638803D02*
X-592000Y-14638803D01*
X608000Y-14638803D02*
X1108000Y-14638803D01*
X1108000Y-14638803D02*
X1108000Y-14138803D01*
X1108000Y-14138803D02*
X1108000Y-14138803D01*
X1108000Y-12938803D02*
X1108000Y-12438803D01*
X1108000Y-12438803D02*
X608000Y-12438803D01*
X608000Y-12438803D02*
X608000Y-12438803D01*
X-1092000Y-12938803D02*
X-1092000Y-12438803D01*
X-1092000Y-12438803D02*
X-1092000Y-12438803D01*
D12*
X-11800000Y-12363803D02*
X-8800000Y-12363803D01*
X-10300000Y-14613803D02*
X-8800000Y-14613803D01*
D14*
X1025400Y-28122900D02*
X-974600Y-28122900D01*
X25400Y-25902900D02*
X-974600Y-25902900D01*
D12*
X11212000Y-14627000D02*
X11212000Y-12427000D01*
X7812000Y-12427000D02*
X11212000Y-12427000D01*
X7800197Y-14627000D02*
X11212000Y-14627000D01*
X7812000Y-14627000D02*
X7812000Y-12427000D01*
X7923803Y-14627000D02*
G75*
G03*
X7923803Y-14627000I-111803J0D01*
G01*
D14*
X-7485000Y-2618641D02*
X-7485000Y-2311359D01*
X-8245000Y-2618641D02*
X-8245000Y-2311359D01*
X13846000Y7320000D02*
X13846000Y7920000D01*
X11746000Y6620000D02*
X13146000Y6620000D01*
X11046000Y7920000D02*
X11046000Y7320000D01*
X13146000Y8620000D02*
X11746000Y8620000D01*
X11746000Y8620000D02*
G75*
G03*
X11046000Y7920000I0J-700000D01*
G01*
X11046000Y7320000D02*
G75*
G03*
X11746000Y6620000I700000J0D01*
G01*
X13146000Y6620000D02*
G75*
G03*
X13846000Y7320000I0J700000D01*
G01*
X13846000Y7920000D02*
G75*
G03*
X13146000Y8620000I-700000J0D01*
G01*
X11046000Y2840000D02*
X11046000Y2240000D01*
X13146000Y3540000D02*
X11746000Y3540000D01*
X13846000Y2240000D02*
X13846000Y2840000D01*
X11746000Y1540000D02*
X13146000Y1540000D01*
X13146000Y1540000D02*
G75*
G03*
X13846000Y2240000I0J700000D01*
G01*
X13846000Y2840000D02*
G75*
G03*
X13146000Y3540000I-700000J0D01*
G01*
X11746000Y3540000D02*
G75*
G03*
X11046000Y2840000I0J-700000D01*
G01*
X11046000Y2240000D02*
G75*
G03*
X11746000Y1540000I700000J0D01*
G01*
X1221836Y-15011000D02*
X1006164Y-15011000D01*
X1221836Y-15731000D02*
X1006164Y-15731000D01*
X-20000Y-16520580D02*
X-20000Y-16239420D01*
X-1040000Y-16520580D02*
X-1040000Y-16239420D01*
X-5850000Y1450000D02*
X-5850000Y-1450000D01*
X-8150000Y1450000D02*
X-8150000Y-1450000D01*
X-7550000Y1450000D02*
X-8150000Y1450000D01*
X5219500Y-5238500D02*
X5219500Y-4438500D01*
X6519500Y-5238500D02*
X5219500Y-5238500D01*
X6519500Y-4438500D02*
X5219500Y-4438500D01*
X7970000Y11400000D02*
X7970000Y10800000D01*
X11420000Y12100000D02*
X8620000Y12100000D01*
X12070000Y10800000D02*
X12070000Y11400000D01*
X8620000Y10100000D02*
X11420000Y10100000D01*
X7970000Y10800000D02*
G75*
G03*
X8670000Y10100000I700000J0D01*
G01*
X8670000Y12100000D02*
G75*
G03*
X7970000Y11400000I0J-700000D01*
G01*
X12070000Y11400000D02*
G75*
G03*
X11370000Y12100000I-700000J0D01*
G01*
X11370000Y10100000D02*
G75*
G03*
X12070000Y10800000I0J700000D01*
G01*
X13146000Y6000000D02*
X11746000Y6000000D01*
X11046000Y5300000D02*
X11046000Y4700000D01*
X11746000Y4000000D02*
X13146000Y4000000D01*
X13846000Y4700000D02*
X13846000Y5300000D01*
X11746000Y6000000D02*
G75*
G03*
X11046000Y5300000I0J-700000D01*
G01*
X11046000Y4700000D02*
G75*
G03*
X11746000Y4000000I700000J0D01*
G01*
X13146000Y4000000D02*
G75*
G03*
X13846000Y4700000I0J700000D01*
G01*
X13846000Y5300000D02*
G75*
G03*
X13146000Y6000000I-700000J0D01*
G01*
X11746000Y-1000000D02*
X13146000Y-1000000D01*
X13846000Y-300000D02*
X13846000Y300000D01*
X13146000Y1000000D02*
X11746000Y1000000D01*
X11046000Y300000D02*
X11046000Y-300000D01*
X13146000Y-1000000D02*
G75*
G03*
X13846000Y-300000I0J700000D01*
G01*
X13846000Y300000D02*
G75*
G03*
X13146000Y1000000I-700000J0D01*
G01*
X11746000Y1000000D02*
G75*
G03*
X11046000Y300000I0J-700000D01*
G01*
X11046000Y-300000D02*
G75*
G03*
X11746000Y-1000000I700000J0D01*
G01*
X-7438641Y2639000D02*
X-7131359Y2639000D01*
X-7438641Y1879000D02*
X-7131359Y1879000D01*
X7750000Y-1250000D02*
X7750000Y1250000D01*
X6000000Y-2750000D02*
X4000000Y-2750000D01*
X2250000Y-1250000D02*
X2250000Y1250000D01*
X6000000Y2750000D02*
X4000000Y2750000D01*
X7300000Y-1700000D02*
X7750000Y-1250000D01*
X7300000Y1700000D02*
X7750000Y1250000D01*
X2700000Y1700000D02*
X2250000Y1250000D01*
X2700000Y-1700000D02*
X2250000Y-1250000D01*
X9610000Y-26910000D02*
G75*
G03*
X9610000Y-26910000I-950000J0D01*
G01*
X1140000Y-21500000D02*
G75*
G03*
X1140000Y-21500000I-950000J0D01*
G01*
X8425000Y-7625000D02*
G75*
G03*
X8425000Y-7625000I-950000J0D01*
G01*
X-3225000Y-11425000D02*
G75*
G03*
X-3225000Y-11425000I-950000J0D01*
G01*
X5850000Y-12580000D02*
G75*
G03*
X5850000Y-12580000I-950000J0D01*
G01*
X7370000Y-17710000D02*
G75*
G03*
X7370000Y-17710000I-950000J0D01*
G01*
X16250000Y-10380000D02*
G75*
G03*
X16250000Y-10380000I-950000J0D01*
G01*
X10390000Y-20170000D02*
G75*
G03*
X10390000Y-20170000I-950000J0D01*
G01*
X15810000Y-13490000D02*
G75*
G03*
X15810000Y-13490000I-950000J0D01*
G01*
X11987000Y-16824000D02*
G75*
G03*
X11987000Y-16824000I-950000J0D01*
G01*
X-3224000Y-15377000D02*
G75*
G03*
X-3224000Y-15377000I-950000J0D01*
G01*
X-6810000Y-6680000D02*
G75*
G03*
X-6810000Y-6680000I-950000J0D01*
G01*
X-10029000Y-9360000D02*
G75*
G03*
X-10029000Y-9360000I-950000J0D01*
G01*
D12*
X10452812Y8663734D02*
X10515312Y8163734D01*
X10565907Y8063734D01*
X10650431Y7997067D01*
X10768883Y7963734D01*
X10845074Y7963734D01*
X10159360Y7963734D02*
X10071860Y8663734D01*
X9767098Y8663734D01*
X9695074Y8630400D01*
X9661145Y8597067D01*
X9631383Y8530400D01*
X9643883Y8430400D01*
X9690312Y8363734D01*
X9732574Y8330400D01*
X9812931Y8297067D01*
X10117693Y8297067D01*
X8929002Y8663734D02*
X9081383Y8663734D01*
X9161741Y8630400D01*
X9204002Y8597067D01*
X9292693Y8497067D01*
X9347455Y8363734D01*
X9380788Y8097067D01*
X9351026Y8030400D01*
X9317098Y7997067D01*
X9245074Y7963734D01*
X9092693Y7963734D01*
X9012336Y7997067D01*
X8970074Y8030400D01*
X8923645Y8097067D01*
X8902812Y8263734D01*
X8932574Y8330400D01*
X8966502Y8363734D01*
X9038526Y8397067D01*
X9190907Y8397067D01*
X9271264Y8363734D01*
X9313526Y8330400D01*
X9359955Y8263734D01*
X10352812Y3383334D02*
X10415312Y2883334D01*
X10465907Y2783334D01*
X10550431Y2716667D01*
X10668883Y2683334D01*
X10745074Y2683334D01*
X10059360Y2683334D02*
X9971860Y3383334D01*
X9667098Y3383334D01*
X9595074Y3350000D01*
X9561145Y3316667D01*
X9531383Y3250000D01*
X9543883Y3150000D01*
X9590312Y3083334D01*
X9632574Y3050000D01*
X9712931Y3016667D01*
X10017693Y3016667D01*
X8858169Y3150000D02*
X8916502Y2683334D01*
X9015312Y3416667D02*
X9268288Y2916667D01*
X8773050Y2916667D01*
X10672812Y12983334D02*
X10735312Y12483334D01*
X10785907Y12383334D01*
X10870431Y12316667D01*
X10988883Y12283334D01*
X11065074Y12283334D01*
X10379360Y12283334D02*
X10291860Y12983334D01*
X9987098Y12983334D01*
X9915074Y12950000D01*
X9881145Y12916667D01*
X9851383Y12850000D01*
X9863883Y12750000D01*
X9910312Y12683334D01*
X9952574Y12650000D01*
X10032931Y12616667D01*
X10337693Y12616667D01*
X9160312Y12283334D02*
X9617455Y12283334D01*
X9388883Y12283334D02*
X9301383Y12983334D01*
X9390074Y12883334D01*
X9474598Y12816667D01*
X9554955Y12783334D01*
X7134285Y10647620D02*
X7705714Y10647620D01*
X7420000Y10647620D02*
X7420000Y11647620D01*
X7515238Y11504762D01*
X7610476Y11409524D01*
X7705714Y11361905D01*
X12953333Y11647620D02*
X12334285Y11647620D01*
X12667619Y11266667D01*
X12524761Y11266667D01*
X12429523Y11219048D01*
X12381904Y11171429D01*
X12334285Y11076191D01*
X12334285Y10838096D01*
X12381904Y10742858D01*
X12429523Y10695239D01*
X12524761Y10647620D01*
X12810476Y10647620D01*
X12905714Y10695239D01*
X12953333Y10742858D01*
X10252812Y6283334D02*
X10315312Y5783334D01*
X10365907Y5683334D01*
X10450431Y5616667D01*
X10568883Y5583334D01*
X10645074Y5583334D01*
X9959360Y5583334D02*
X9871860Y6283334D01*
X9567098Y6283334D01*
X9495074Y6250000D01*
X9461145Y6216667D01*
X9431383Y6150000D01*
X9443883Y6050000D01*
X9490312Y5983334D01*
X9532574Y5950000D01*
X9612931Y5916667D01*
X9917693Y5916667D01*
X9118288Y6216667D02*
X9076026Y6250000D01*
X8995669Y6283334D01*
X8805193Y6283334D01*
X8733169Y6250000D01*
X8699241Y6216667D01*
X8669479Y6150000D01*
X8677812Y6083334D01*
X8728407Y5983334D01*
X9235550Y5583334D01*
X8740312Y5583334D01*
X10452812Y980234D02*
X10515312Y480234D01*
X10565907Y380234D01*
X10650431Y313567D01*
X10768883Y280234D01*
X10845074Y280234D01*
X10159360Y280234D02*
X10071860Y980234D01*
X9767098Y980234D01*
X9695074Y946900D01*
X9661145Y913567D01*
X9631383Y846900D01*
X9643883Y746900D01*
X9690312Y680234D01*
X9732574Y646900D01*
X9812931Y613567D01*
X10117693Y613567D01*
X9348050Y980234D02*
X8852812Y980234D01*
X9152812Y713567D01*
X9038526Y713567D01*
X8966502Y680234D01*
X8932574Y646900D01*
X8902812Y580234D01*
X8923645Y413567D01*
X8970074Y346900D01*
X9012336Y313567D01*
X9092693Y280234D01*
X9321264Y280234D01*
X9393288Y313567D01*
X9427217Y346900D01*
X10163669Y-28174666D02*
X9706526Y-28174666D01*
X10022598Y-28874666D02*
X9935098Y-28174666D01*
X9527360Y-28874666D02*
X9439860Y-28174666D01*
X9135098Y-28174666D01*
X9063074Y-28208000D01*
X9029145Y-28241333D01*
X8999383Y-28308000D01*
X9011883Y-28408000D01*
X9058312Y-28474666D01*
X9100574Y-28508000D01*
X9180931Y-28541333D01*
X9485693Y-28541333D01*
X8308312Y-28874666D02*
X8765455Y-28874666D01*
X8536883Y-28874666D02*
X8449383Y-28174666D01*
X8538074Y-28274666D01*
X8622598Y-28341333D01*
X8702955Y-28374666D01*
X3289669Y-21066666D02*
X2832526Y-21066666D01*
X3148598Y-21766666D02*
X3061098Y-21066666D01*
X2653360Y-21766666D02*
X2565860Y-21066666D01*
X2261098Y-21066666D01*
X2189074Y-21100000D01*
X2155145Y-21133333D01*
X2125383Y-21200000D01*
X2137883Y-21300000D01*
X2184312Y-21366666D01*
X2226574Y-21400000D01*
X2306931Y-21433333D01*
X2611693Y-21433333D01*
X1812288Y-21133333D02*
X1770026Y-21100000D01*
X1689669Y-21066666D01*
X1499193Y-21066666D01*
X1427169Y-21100000D01*
X1393241Y-21133333D01*
X1363479Y-21200000D01*
X1371812Y-21266666D01*
X1422407Y-21366666D01*
X1929550Y-21766666D01*
X1434312Y-21766666D01*
X6395669Y-7816666D02*
X5938526Y-7816666D01*
X6254598Y-8516666D02*
X6167098Y-7816666D01*
X5759360Y-8516666D02*
X5671860Y-7816666D01*
X5367098Y-7816666D01*
X5295074Y-7850000D01*
X5261145Y-7883333D01*
X5231383Y-7950000D01*
X5243883Y-8050000D01*
X5290312Y-8116666D01*
X5332574Y-8150000D01*
X5412931Y-8183333D01*
X5717693Y-8183333D01*
X4948050Y-7816666D02*
X4452812Y-7816666D01*
X4752812Y-8083333D01*
X4638526Y-8083333D01*
X4566502Y-8116666D01*
X4532574Y-8150000D01*
X4502812Y-8216666D01*
X4523645Y-8383333D01*
X4570074Y-8450000D01*
X4612336Y-8483333D01*
X4692693Y-8516666D01*
X4921264Y-8516666D01*
X4993288Y-8483333D01*
X5027217Y-8450000D01*
X-3179331Y-9517666D02*
X-3636474Y-9517666D01*
X-3320402Y-10217666D02*
X-3407902Y-9517666D01*
X-3815640Y-10217666D02*
X-3903140Y-9517666D01*
X-4207902Y-9517666D01*
X-4279926Y-9551000D01*
X-4313855Y-9584333D01*
X-4343617Y-9651000D01*
X-4331117Y-9751000D01*
X-4284688Y-9817666D01*
X-4242426Y-9851000D01*
X-4162069Y-9884333D01*
X-3857307Y-9884333D01*
X-5016831Y-9751000D02*
X-4958498Y-10217666D01*
X-4859688Y-9484333D02*
X-4606712Y-9984333D01*
X-5101950Y-9984333D01*
X6255669Y-10766666D02*
X5798526Y-10766666D01*
X6114598Y-11466666D02*
X6027098Y-10766666D01*
X5619360Y-11466666D02*
X5531860Y-10766666D01*
X5227098Y-10766666D01*
X5155074Y-10800000D01*
X5121145Y-10833333D01*
X5091383Y-10900000D01*
X5103883Y-11000000D01*
X5150312Y-11066666D01*
X5192574Y-11100000D01*
X5272931Y-11133333D01*
X5577693Y-11133333D01*
X4350907Y-10766666D02*
X4731860Y-10766666D01*
X4811622Y-11100000D01*
X4769360Y-11066666D01*
X4689002Y-11033333D01*
X4498526Y-11033333D01*
X4426502Y-11066666D01*
X4392574Y-11100000D01*
X4362812Y-11166666D01*
X4383645Y-11333333D01*
X4430074Y-11400000D01*
X4472336Y-11433333D01*
X4552693Y-11466666D01*
X4743169Y-11466666D01*
X4815193Y-11433333D01*
X4849122Y-11400000D01*
X7495669Y-18816666D02*
X7038526Y-18816666D01*
X7354598Y-19516666D02*
X7267098Y-18816666D01*
X6859360Y-19516666D02*
X6771860Y-18816666D01*
X6467098Y-18816666D01*
X6395074Y-18850000D01*
X6361145Y-18883333D01*
X6331383Y-18950000D01*
X6343883Y-19050000D01*
X6390312Y-19116666D01*
X6432574Y-19150000D01*
X6512931Y-19183333D01*
X6817693Y-19183333D01*
X5629002Y-18816666D02*
X5781383Y-18816666D01*
X5861741Y-18850000D01*
X5904002Y-18883333D01*
X5992693Y-18983333D01*
X6047455Y-19116666D01*
X6080788Y-19383333D01*
X6051026Y-19450000D01*
X6017098Y-19483333D01*
X5945074Y-19516666D01*
X5792693Y-19516666D01*
X5712336Y-19483333D01*
X5670074Y-19450000D01*
X5623645Y-19383333D01*
X5602812Y-19216666D01*
X5632574Y-19150000D01*
X5666502Y-19116666D01*
X5738526Y-19083333D01*
X5890907Y-19083333D01*
X5971264Y-19116666D01*
X6013526Y-19150000D01*
X6059955Y-19216666D01*
X14295669Y-9616666D02*
X13838526Y-9616666D01*
X14154598Y-10316666D02*
X14067098Y-9616666D01*
X13659360Y-10316666D02*
X13571860Y-9616666D01*
X13267098Y-9616666D01*
X13195074Y-9650000D01*
X13161145Y-9683333D01*
X13131383Y-9750000D01*
X13143883Y-9850000D01*
X13190312Y-9916666D01*
X13232574Y-9950000D01*
X13312931Y-9983333D01*
X13617693Y-9983333D01*
X12848050Y-9616666D02*
X12314717Y-9616666D01*
X12745074Y-10316666D01*
X10695669Y-21316666D02*
X10238526Y-21316666D01*
X10554598Y-22016666D02*
X10467098Y-21316666D01*
X10059360Y-22016666D02*
X9971860Y-21316666D01*
X9667098Y-21316666D01*
X9595074Y-21350000D01*
X9561145Y-21383333D01*
X9531383Y-21450000D01*
X9543883Y-21550000D01*
X9590312Y-21616666D01*
X9632574Y-21650000D01*
X9712931Y-21683333D01*
X10017693Y-21683333D01*
X9095074Y-21616666D02*
X9167098Y-21583333D01*
X9201026Y-21550000D01*
X9230788Y-21483333D01*
X9226622Y-21450000D01*
X9180193Y-21383333D01*
X9137931Y-21350000D01*
X9057574Y-21316666D01*
X8905193Y-21316666D01*
X8833169Y-21350000D01*
X8799241Y-21383333D01*
X8769479Y-21450000D01*
X8773645Y-21483333D01*
X8820074Y-21550000D01*
X8862336Y-21583333D01*
X8942693Y-21616666D01*
X9095074Y-21616666D01*
X9175431Y-21650000D01*
X9217693Y-21683333D01*
X9264122Y-21750000D01*
X9280788Y-21883333D01*
X9251026Y-21950000D01*
X9217098Y-21983333D01*
X9145074Y-22016666D01*
X8992693Y-22016666D01*
X8912336Y-21983333D01*
X8870074Y-21950000D01*
X8823645Y-21883333D01*
X8806979Y-21750000D01*
X8836741Y-21683333D01*
X8870669Y-21650000D01*
X8942693Y-21616666D01*
X15995669Y-11716666D02*
X15538526Y-11716666D01*
X15854598Y-12416666D02*
X15767098Y-11716666D01*
X15359360Y-12416666D02*
X15271860Y-11716666D01*
X14967098Y-11716666D01*
X14895074Y-11750000D01*
X14861145Y-11783333D01*
X14831383Y-11850000D01*
X14843883Y-11950000D01*
X14890312Y-12016666D01*
X14932574Y-12050000D01*
X15012931Y-12083333D01*
X15317693Y-12083333D01*
X14521264Y-12416666D02*
X14368883Y-12416666D01*
X14288526Y-12383333D01*
X14246264Y-12350000D01*
X14157574Y-12250000D01*
X14102812Y-12116666D01*
X14069479Y-11850000D01*
X14099241Y-11783333D01*
X14133169Y-11750000D01*
X14205193Y-11716666D01*
X14357574Y-11716666D01*
X14437931Y-11750000D01*
X14480193Y-11783333D01*
X14526622Y-11850000D01*
X14547455Y-12016666D01*
X14517693Y-12083333D01*
X14483764Y-12116666D01*
X14411741Y-12150000D01*
X14259360Y-12150000D01*
X14179002Y-12116666D01*
X14136741Y-12083333D01*
X14090312Y-12016666D01*
X11526622Y-17966666D02*
X11069479Y-17966666D01*
X11385550Y-18666666D02*
X11298050Y-17966666D01*
X10890312Y-18666666D02*
X10802812Y-17966666D01*
X10498050Y-17966666D01*
X10426026Y-18000000D01*
X10392098Y-18033333D01*
X10362336Y-18100000D01*
X10374836Y-18200000D01*
X10421264Y-18266666D01*
X10463526Y-18300000D01*
X10543883Y-18333333D01*
X10848645Y-18333333D01*
X9671264Y-18666666D02*
X10128407Y-18666666D01*
X9899836Y-18666666D02*
X9812336Y-17966666D01*
X9901026Y-18066666D01*
X9985550Y-18133333D01*
X10065907Y-18166666D01*
X9088526Y-17966666D02*
X9012336Y-17966666D01*
X8940312Y-18000000D01*
X8906383Y-18033333D01*
X8876622Y-18100000D01*
X8855193Y-18233333D01*
X8876026Y-18400000D01*
X8930788Y-18533333D01*
X8977217Y-18600000D01*
X9019479Y-18633333D01*
X9099836Y-18666666D01*
X9176026Y-18666666D01*
X9248050Y-18633333D01*
X9281979Y-18600000D01*
X9311741Y-18533333D01*
X9333169Y-18400000D01*
X9312336Y-18233333D01*
X9257574Y-18100000D01*
X9211145Y-18033333D01*
X9168883Y-18000000D01*
X9088526Y-17966666D01*
X-2723378Y-13616666D02*
X-3180521Y-13616666D01*
X-2864450Y-14316666D02*
X-2951950Y-13616666D01*
X-3359688Y-14316666D02*
X-3447188Y-13616666D01*
X-3751950Y-13616666D01*
X-3823974Y-13650000D01*
X-3857902Y-13683333D01*
X-3887664Y-13750000D01*
X-3875164Y-13850000D01*
X-3828736Y-13916666D01*
X-3786474Y-13950000D01*
X-3706117Y-13983333D01*
X-3401355Y-13983333D01*
X-4578736Y-14316666D02*
X-4121593Y-14316666D01*
X-4350164Y-14316666D02*
X-4437664Y-13616666D01*
X-4348974Y-13716666D01*
X-4264450Y-13783333D01*
X-4184093Y-13816666D01*
X-5340640Y-14316666D02*
X-4883498Y-14316666D01*
X-5112069Y-14316666D02*
X-5199569Y-13616666D01*
X-5110878Y-13716666D01*
X-5026355Y-13783333D01*
X-4945998Y-13816666D01*
X-6473378Y-4866666D02*
X-6930521Y-4866666D01*
X-6614450Y-5566666D02*
X-6701950Y-4866666D01*
X-7109688Y-5566666D02*
X-7197188Y-4866666D01*
X-7501950Y-4866666D01*
X-7573974Y-4900000D01*
X-7607902Y-4933333D01*
X-7637664Y-5000000D01*
X-7625164Y-5100000D01*
X-7578736Y-5166666D01*
X-7536474Y-5200000D01*
X-7456117Y-5233333D01*
X-7151355Y-5233333D01*
X-8328736Y-5566666D02*
X-7871593Y-5566666D01*
X-8100164Y-5566666D02*
X-8187664Y-4866666D01*
X-8098974Y-4966666D01*
X-8014450Y-5033333D01*
X-7934093Y-5066666D01*
X-8712664Y-4933333D02*
X-8754926Y-4900000D01*
X-8835283Y-4866666D01*
X-9025759Y-4866666D01*
X-9097783Y-4900000D01*
X-9131712Y-4933333D01*
X-9161474Y-5000000D01*
X-9153140Y-5066666D01*
X-9102545Y-5166666D01*
X-8595402Y-5566666D01*
X-9090640Y-5566666D01*
X-11952378Y-8826666D02*
X-12409521Y-8826666D01*
X-12093450Y-9526666D02*
X-12180950Y-8826666D01*
X-12588688Y-9526666D02*
X-12676188Y-8826666D01*
X-12980950Y-8826666D01*
X-13052974Y-8860000D01*
X-13086902Y-8893333D01*
X-13116664Y-8960000D01*
X-13104164Y-9060000D01*
X-13057736Y-9126666D01*
X-13015474Y-9160000D01*
X-12935117Y-9193333D01*
X-12630355Y-9193333D01*
X-13807736Y-9526666D02*
X-13350593Y-9526666D01*
X-13579164Y-9526666D02*
X-13666664Y-8826666D01*
X-13577974Y-8926666D01*
X-13493450Y-8993333D01*
X-13413093Y-9026666D01*
X-14161902Y-8826666D02*
X-14657140Y-8826666D01*
X-14357140Y-9093333D01*
X-14471426Y-9093333D01*
X-14543450Y-9126666D01*
X-14577378Y-9160000D01*
X-14607140Y-9226666D01*
X-14586307Y-9393333D01*
X-14539878Y-9460000D01*
X-14497617Y-9493333D01*
X-14417259Y-9526666D01*
X-14188688Y-9526666D01*
X-14116664Y-9493333D01*
X-14082736Y-9460000D01*
M02*
