M48
; DRILL file {KiCad (5.1.7)-1} date 11/04/20 19:15:37
; FORMAT={-:-/ absolute / metric / decimal}
; #@! TF.CreationDate,2020-11-04T19:15:37+01:00
; #@! TF.GenerationSoftware,Kicad,Pcbnew,(5.1.7)-1
FMAT,2
METRIC
T1C0.300
T2C0.400
T3C0.650
T4C1.000
T5C2.500
%
G90
G05
T1
X-16.27Y18.42
X-16.27Y17.384
X-16.27Y16.349
X-16.27Y15.313
X-16.27Y14.278
X-16.27Y13.242
X-16.27Y12.207
X-16.27Y11.171
X-16.27Y10.136
X-16.27Y9.1
X-16.25Y19.25
X-16.1Y-14.5
X-15.739Y16.947
X-15.739Y13.447
X-15.739Y9.947
X-15.739Y-18.052
X-15.739Y-24.352
X-15.7Y-9.2
X-15.68Y19.25
X-15.554Y18.196
X-15.554Y14.684
X-15.554Y11.172
X-15.554Y-16.924
X-15.554Y-19.733
X-15.554Y-23.245
X-15.5Y-14.5
X-15.109Y19.25
X-14.995Y-11.441
X-14.8Y-9.2
X-14.78Y-13.24
X-14.539Y19.25
X-14.389Y-20.002
X-14.389Y-23.402
X-14.339Y14.147
X-14.339Y-16.652
X-14.2Y17.5
X-14.149Y9.768
X-14.149Y-18.328
X-14.149Y-21.138
X-14.149Y-24.65
X-14.05Y11.25
X-13.969Y19.25
X-13.9Y-9.2
X-13.447Y6.255
X-13.399Y19.25
X-13.073Y-12.533
X-12.939Y-18.052
X-12.939Y-20.852
X-12.829Y19.25
X-12.744Y11.172
X-12.744Y8.363
X-12.744Y-16.924
X-12.744Y-19.733
X-12.744Y-22.543
X-12.689Y9.747
X-12.55Y15.3
X-12.55Y13.5
X-12.28Y-23.87
X-12.258Y19.25
X-12.042Y16.791
X-12.042Y4.851
X-12.042Y-25.352
X-11.975Y13.525
X-11.9Y15.275
X-11.688Y19.25
X-11.539Y12.047
X-11.539Y8.547
X-11.539Y-16.652
X-11.539Y-19.453
X-11.375Y13.575
X-11.34Y9.768
X-11.34Y-18.328
X-11.34Y-21.138
X-11.25Y15.225
X-11.118Y19.25
X-11.09Y-22.8
X-11.06Y1.56
X-11.04Y-1.24
X-10.989Y3.797
X-10.989Y0.397
X-10.989Y-3.002
X-10.9Y-10.7
X-10.9Y-11.65
X-10.839Y16.247
X-10.8Y13.625
X-10.637Y-27.46
X-10.6Y15.15
X-10.547Y19.25
X-10.25Y13.65
X-10.0Y6.42
X-9.977Y19.25
X-9.962Y-1.472
X-9.95Y15.1
X-9.675Y13.675
X-9.439Y-22.953
X-9.407Y19.25
X-9.289Y-18.302
X-9.289Y-26.802
X-9.27Y-2.16
X-9.232Y-16.924
X-9.232Y-19.733
X-9.232Y-28.864
X-9.225Y15.1
X-9.15Y13.7
X-9.08Y-5.21
X-9.0Y-7.8
X-8.837Y19.25
X-8.739Y8.547
X-8.675Y15.25
X-8.55Y13.75
X-8.53Y12.577
X-8.53Y9.768
X-8.53Y6.958
X-8.45Y5.85
X-8.439Y11.447
X-8.27Y15.67
X-8.266Y19.25
X-8.039Y-29.252
X-7.925Y14.025
X-7.828Y4.851
X-7.8Y16.025
X-7.696Y19.25
X-7.55Y18.35
X-7.542Y17.5
X-7.51Y-13.49
X-7.475Y14.425
X-7.45Y-10.35
X-7.339Y9.947
X-7.25Y16.25
X-7.224Y-8.088
X-7.19Y-9.636
X-7.126Y19.25
X-7.125Y11.172
X-7.125Y8.363
X-7.125Y-26.757
X-7.0Y14.85
X-6.771Y-13.486
X-6.675Y16.3
X-6.639Y5.047
X-6.639Y-29.252
X-6.556Y19.25
X-6.45Y-9.309
X-6.423Y13.279
X-6.423Y6.255
X-6.423Y3.446
X-6.392Y14.9
X-6.281Y17.5
X-6.269Y-4.561
X-6.25Y18.4
X-6.125Y-19.375
X-6.1Y-16.7
X-6.1Y-21.525
X-6.092Y16.3
X-6.03Y-13.459
X-5.986Y19.25
X-5.939Y12.047
X-5.939Y10.647
X-5.939Y9.247
X-5.939Y7.847
X-5.91Y-1.89
X-5.9Y-2.61
X-5.894Y-7.999
X-5.808Y14.9
X-5.723Y2.0
X-5.508Y16.3
X-5.415Y19.25
X-5.225Y14.9
X-5.16Y17.5
X-4.925Y16.3
X-4.875Y12.8
X-4.875Y12.225
X-4.875Y11.675
X-4.875Y11.1
X-4.875Y10.5
X-4.875Y9.935
X-4.875Y9.315
X-4.875Y8.695
X-4.875Y8.075
X-4.875Y7.455
X-4.875Y6.835
X-4.875Y6.215
X-4.875Y5.595
X-4.875Y4.975
X-4.845Y19.25
X-4.725Y13.425
X-4.642Y14.9
X-4.63Y-23.43
X-4.63Y-24.23
X-4.62Y-25.21
X-4.609Y1.666
X-4.465Y-8.031
X-4.35Y18.4
X-4.342Y16.3
X-4.336Y-4.5
X-4.31Y-6.032
X-4.275Y19.25
X-4.1Y13.51
X-4.058Y14.9
X-4.039Y-12.595
X-3.797Y1.666
X-3.758Y16.3
X-3.704Y19.25
X-3.516Y17.5
X-3.49Y-5.702
X-3.475Y14.9
X-3.47Y13.52
X-3.403Y-2.702
X-3.382Y-1.543
X-3.375Y0.45
X-3.375Y-17.275
X-3.35Y-13.25
X-3.198Y-8.086
X-3.175Y16.3
X-3.134Y19.25
X-3.075Y-12.5
X-2.9Y14.9
X-2.865Y0.056
X-2.77Y13.48
X-2.564Y19.25
X-2.55Y11.375
X-2.525Y16.3
X-2.525Y11.925
X-2.525Y10.0
X-2.525Y9.475
X-2.525Y8.9
X-2.525Y8.35
X-2.525Y7.8
X-2.525Y7.2
X-2.5Y10.6
X-2.5Y6.425
X-2.475Y5.4
X-2.325Y14.775
X-2.3Y-11.5
X-2.11Y13.37
X-2.065Y-27.82
X-1.994Y19.25
X-1.954Y-9.092
X-1.925Y14.4
X-1.925Y12.175
X-1.92Y-7.683
X-1.9Y4.94
X-1.875Y16.18
X-1.86Y3.35
X-1.617Y9.535
X-1.6Y13.925
X-1.475Y13.35
X-1.439Y7.764
X-1.435Y8.474
X-1.423Y19.25
X-1.36Y15.8
X-1.356Y-11.517
X-1.14Y-21.5
X-0.9Y2.81
X-0.875Y15.34
X-0.865Y3.503
X-0.853Y19.25
X-0.68Y11.03
X-0.507Y-11.463
X-0.4Y15.85
X-0.349Y-18.918
X-0.283Y19.25
X-0.266Y-2.036
X-0.266Y-3.407
X-0.266Y-4.779
X-0.264Y7.665
X-0.19Y14.03
X-0.025Y18.7
X0.001Y-23.693
X0.015Y8.704
X0.022Y11.051
X0.075Y16.2
X0.2Y11.85
X0.22Y14.39
X0.287Y19.25
X0.361Y-29.252
X0.471Y3.437
X0.614Y-11.52
X0.616Y-7.969
X0.654Y14.755
X0.675Y16.3
X0.725Y9.15
X0.75Y7.96
X0.75Y6.175
X0.76Y8.555
X0.77Y4.94
X0.775Y10.475
X0.775Y7.365
X0.775Y6.77
X0.8Y11.975
X0.8Y10.975
X0.825Y11.5
X0.857Y19.25
X1.12Y-3.408
X1.157Y-2.036
X1.157Y-4.779
X1.2Y14.85
X1.277Y16.3
X1.316Y-8.034
X1.428Y19.25
X1.825Y14.875
X1.88Y16.3
X1.936Y-27.146
X1.97Y-13.15
X1.998Y19.25
X2.061Y-28.062
X2.3Y-11.525
X2.478Y-2.036
X2.478Y-3.407
X2.478Y-4.779
X2.482Y16.3
X2.5Y14.875
X2.546Y-7.954
X2.568Y19.25
X2.62Y-19.08
X2.64Y-13.27
X3.085Y16.3
X3.1Y12.05
X3.1Y11.5
X3.1Y10.935
X3.1Y10.315
X3.1Y9.695
X3.1Y9.075
X3.1Y8.455
X3.1Y7.835
X3.1Y7.215
X3.1Y6.595
X3.1Y5.975
X3.139Y19.25
X3.15Y14.875
X3.25Y18.45
X3.45Y-19.11
X3.688Y16.3
X3.7Y14.85
X3.709Y19.25
X3.9Y17.2
X3.975Y12.0
X3.975Y11.3
X3.975Y10.675
X3.975Y9.935
X3.975Y9.315
X3.975Y8.695
X3.975Y8.075
X3.975Y7.455
X3.975Y6.835
X4.22Y14.41
X4.279Y19.25
X4.29Y16.3
X4.3Y-14.2
X4.3Y-15.05
X4.3Y-16.0
X4.35Y18.4
X4.425Y14.875
X4.5Y-6.93
X4.643Y0.727
X4.675Y14.018
X4.849Y19.25
X4.893Y16.3
X4.925Y0.025
X5.05Y14.875
X5.15Y-19.15
X5.2Y-14.2
X5.2Y-15.1
X5.2Y-16.0
X5.25Y17.2
X5.405Y12.05
X5.405Y11.5
X5.405Y10.935
X5.405Y10.315
X5.405Y9.695
X5.405Y9.075
X5.405Y8.455
X5.405Y7.835
X5.405Y7.215
X5.405Y6.595
X5.405Y5.975
X5.419Y19.25
X5.495Y16.3
X5.525Y-6.875
X5.549Y-9.149
X5.575Y-9.85
X5.625Y14.875
X5.75Y18.25
X5.8Y14.3
X5.811Y0.35
X5.99Y19.25
X6.098Y16.3
X6.1Y-14.2
X6.1Y-15.1
X6.1Y-16.0
X6.2Y-10.8
X6.213Y-10.113
X6.22Y-20.436
X6.3Y-6.88
X6.323Y2.078
X6.425Y-22.9
X6.5Y4.53
X6.525Y-0.825
X6.548Y13.984
X6.566Y-1.887
X6.6Y19.25
X6.7Y18.7
X6.7Y18.1
X6.7Y17.5
X6.7Y16.9
X6.7Y16.3
X6.95Y-11.7
X7.16Y14.26
X7.18Y4.356
X7.2Y14.822
X7.25Y-0.85
X7.35Y-16.55
X7.385Y0.588
X7.4Y12.25
X7.45Y-2.075
X7.52Y-28.98
X7.525Y2.025
X7.567Y1.269
X7.69Y3.15
X7.75Y14.88
X7.75Y13.5
X7.814Y-5.696
X7.895Y7.675
X7.9Y-18.15
X7.9Y-19.2
X7.9Y-20.15
X7.9Y-21.2
X7.96Y-25.58
X8.1Y18.7
X8.1Y18.13
X8.1Y16.8
X8.1Y16.3
X8.1Y15.8
X8.1Y15.3
X8.15Y19.25
X8.16Y-4.59
X8.375Y12.35
X8.376Y-3.179
X8.443Y5.193
X8.55Y-5.325
X8.596Y7.642
X8.68Y-25.58
X8.75Y19.25
X8.8Y18.15
X8.8Y16.85
X8.85Y14.85
X8.95Y16.0
X8.97Y10.11
X9.065Y-17.665
X9.1Y17.5
X9.1Y-6.975
X9.173Y-7.8
X9.3Y19.25
X9.375Y-16.025
X9.475Y-15.175
X9.48Y-25.58
X9.7Y18.45
X9.732Y-21.84
X9.866Y19.25
X9.96Y-9.7
X10.0Y17.4
X10.0Y15.9
X10.0Y14.54
X10.0Y6.65
X10.446Y19.25
X10.53Y-20.31
X10.73Y-29.51
X10.861Y-22.252
X10.9Y-11.8
X10.944Y3.785
X11.027Y19.25
X11.069Y9.675
X11.1Y17.45
X11.111Y16.547
X11.137Y18.196
X11.15Y15.35
X11.172Y14.228
X11.288Y-11.009
X11.3Y6.15
X11.31Y-18.46
X11.4Y12.6
X11.4Y1.25
X11.543Y-4.957
X11.55Y-9.3
X11.6Y-5.975
X11.607Y19.25
X11.75Y-11.65
X11.757Y3.75
X11.81Y-15.95
X11.82Y-15.14
X11.96Y-17.99
X12.1Y16.9
X12.187Y19.25
X12.768Y19.25
X13.075Y-10.675
X13.244Y-22.543
X13.348Y19.25
X13.4Y-17.47
X13.929Y19.25
X13.947Y18.196
X14.025Y13.975
X14.05Y15.65
X14.425Y-15.525
X14.425Y-16.5
X14.509Y19.25
X14.52Y-9.2
X14.649Y11.875
X14.649Y-21.138
X15.061Y9.947
X15.089Y19.25
X15.1Y18.5
X15.145Y-14.93
X15.245Y13.975
X15.67Y19.25
X16.02Y11.62
X16.15Y18.4
X16.25Y19.25
T2
X-5.3Y-28.0
X-2.45Y-23.7
X-2.45Y-25.75
X-2.35Y-29.9
X-1.0Y-29.3
X1.95Y-29.7
X4.85Y-28.05
T3
X15.494Y16.764
X15.494Y15.494
T4
X15.24Y7.62
X15.24Y5.08
X15.24Y2.54
X15.24Y0.0
X15.24Y-2.54
X15.24Y-5.08
X15.24Y-7.62
X-15.24Y7.62
X-15.24Y5.08
X-15.24Y2.54
X-15.24Y0.0
X-15.24Y-2.54
X-15.24Y-5.08
X-15.24Y-7.62
T5
X12.5Y-20.0
X-12.5Y21.0
T0
M30
