G04 #@! TF.GenerationSoftware,KiCad,Pcbnew,(5.1.7)-1*
G04 #@! TF.CreationDate,2020-11-04T19:15:34+01:00*
G04 #@! TF.ProjectId,generic_node,67656e65-7269-4635-9f6e-6f64652e6b69,2.0.2*
G04 #@! TF.SameCoordinates,PX510ff40PY6422c40*
G04 #@! TF.FileFunction,Other,Fab,Bot*
%FSLAX46Y46*%
G04 Gerber Fmt 4.6, Leading zero omitted, Abs format (unit mm)*
G04 Created by KiCad (PCBNEW (5.1.7)-1) date 2020-11-04 19:15:34*
%MOMM*%
%LPD*%
G01*
G04 APERTURE LIST*
%ADD10C,0.100000*%
%ADD11C,0.150000*%
%ADD12C,0.120000*%
G04 APERTURE END LIST*
D10*
X-992000Y-14538803D02*
X1008000Y-14538803D01*
X1008000Y-14538803D02*
X1008000Y-12538803D01*
X1008000Y-12538803D02*
X-492000Y-12538803D01*
X-492000Y-12538803D02*
X-992000Y-13038803D01*
X-992000Y-13038803D02*
X-992000Y-14538803D01*
D11*
X-10800000Y-14488803D02*
X-8800000Y-14488803D01*
X-8800000Y-14488803D02*
X-8800000Y-12488803D01*
X-8800000Y-12488803D02*
X-11800000Y-12488803D01*
X-11800000Y-12488803D02*
X-11800000Y-13488803D01*
X-11800000Y-13488803D02*
X-10800000Y-14488803D01*
D10*
X1025400Y-26512900D02*
X525400Y-26012900D01*
X1025400Y-28012900D02*
X1025400Y-26512900D01*
X-974600Y-28012900D02*
X1025400Y-28012900D01*
X-974600Y-26012900D02*
X-974600Y-28012900D01*
X525400Y-26012900D02*
X-974600Y-26012900D01*
D12*
X8012000Y-14227000D02*
X8012000Y-12527000D01*
X8012000Y-12527000D02*
X11012000Y-12527000D01*
X11012000Y-12527000D02*
X11012000Y-14527000D01*
X11012000Y-14527000D02*
X8212000Y-14527000D01*
X8012000Y-14227000D02*
X8212000Y-14527000D01*
D10*
X-8135000Y-2990000D02*
X-7595000Y-2990000D01*
X-7595000Y-2990000D02*
X-7595000Y-1940000D01*
X-7595000Y-1940000D02*
X-8135000Y-1940000D01*
X-8135000Y-1940000D02*
X-8135000Y-2990000D01*
X1614000Y-15621000D02*
X1614000Y-15121000D01*
X1614000Y-15121000D02*
X614000Y-15121000D01*
X614000Y-15121000D02*
X614000Y-15621000D01*
X614000Y-15621000D02*
X1614000Y-15621000D01*
X-930000Y-17180000D02*
X-130000Y-17180000D01*
X-130000Y-17180000D02*
X-130000Y-15580000D01*
X-130000Y-15580000D02*
X-930000Y-15580000D01*
X-930000Y-15580000D02*
X-930000Y-17180000D01*
X13010000Y-14580000D02*
X13010000Y-14080000D01*
X13010000Y-14080000D02*
X12010000Y-14080000D01*
X12010000Y-14080000D02*
X12010000Y-14580000D01*
X12010000Y-14580000D02*
X13010000Y-14580000D01*
X-1845000Y-13059000D02*
X-2345000Y-13059000D01*
X-2345000Y-13059000D02*
X-2345000Y-14059000D01*
X-2345000Y-14059000D02*
X-1845000Y-14059000D01*
X-1845000Y-14059000D02*
X-1845000Y-13059000D01*
X2203000Y-26509000D02*
X2203000Y-25509000D01*
X1703000Y-26509000D02*
X2203000Y-26509000D01*
X1703000Y-25509000D02*
X1703000Y-26509000D01*
X2203000Y-25509000D02*
X1703000Y-25509000D01*
X-7770000Y-14450000D02*
X-7770000Y-15450000D01*
X-7270000Y-14450000D02*
X-7770000Y-14450000D01*
X-7270000Y-15450000D02*
X-7270000Y-14450000D01*
X-7770000Y-15450000D02*
X-7270000Y-15450000D01*
X4551000Y-4525000D02*
X3551000Y-4525000D01*
X4551000Y-5025000D02*
X4551000Y-4525000D01*
X3551000Y-5025000D02*
X4551000Y-5025000D01*
X3551000Y-4525000D02*
X3551000Y-5025000D01*
X12014000Y-13619000D02*
X13014000Y-13619000D01*
X12014000Y-13119000D02*
X12014000Y-13619000D01*
X13014000Y-13119000D02*
X12014000Y-13119000D01*
X13014000Y-13619000D02*
X13014000Y-13119000D01*
X13204000Y-3088000D02*
X13204000Y-2088000D01*
X12704000Y-3088000D02*
X13204000Y-3088000D01*
X12704000Y-2088000D02*
X12704000Y-3088000D01*
X13204000Y-2088000D02*
X12704000Y-2088000D01*
X12000000Y-12650000D02*
X13000000Y-12650000D01*
X12000000Y-12150000D02*
X12000000Y-12650000D01*
X13000000Y-12150000D02*
X12000000Y-12150000D01*
X13000000Y-12650000D02*
X13000000Y-12150000D01*
X8660000Y4140000D02*
X8160000Y4140000D01*
X8160000Y4140000D02*
X8160000Y3140000D01*
X8160000Y3140000D02*
X8660000Y3140000D01*
X8660000Y3140000D02*
X8660000Y4140000D01*
X-7099000Y-1965000D02*
X-7099000Y-2965000D01*
X-6599000Y-1965000D02*
X-7099000Y-1965000D01*
X-6599000Y-2965000D02*
X-6599000Y-1965000D01*
X-7099000Y-2965000D02*
X-6599000Y-2965000D01*
X-8000000Y-1000000D02*
X-8000000Y1000000D01*
X-6000000Y-1000000D02*
X-8000000Y-1000000D01*
X-6000000Y1000000D02*
X-6000000Y-1000000D01*
X-8000000Y1000000D02*
X-6000000Y1000000D01*
X-8000000Y0D02*
X-7000000Y1000000D01*
X-6200000Y0D02*
G75*
G03*
X-6200000Y0I-800000J0D01*
G01*
X8000000Y-15400000D02*
X8000000Y-16400000D01*
X8500000Y-15400000D02*
X8000000Y-15400000D01*
X8500000Y-16400000D02*
X8500000Y-15400000D01*
X8000000Y-16400000D02*
X8500000Y-16400000D01*
X11688000Y-2088000D02*
X11688000Y-3088000D01*
X12188000Y-2088000D02*
X11688000Y-2088000D01*
X12188000Y-3088000D02*
X12188000Y-2088000D01*
X11688000Y-3088000D02*
X12188000Y-3088000D01*
X6169500Y-4838500D02*
X6269500Y-4838500D01*
X6169500Y-5038500D02*
X5869500Y-4838500D01*
X6169500Y-4638500D02*
X6169500Y-5038500D01*
X5869500Y-4838500D02*
X6169500Y-4638500D01*
X5869500Y-4838500D02*
X5769500Y-4838500D01*
X5869500Y-4638500D02*
X5869500Y-5038500D01*
X6419500Y-5138500D02*
X6419500Y-4538500D01*
X5619500Y-5138500D02*
X6419500Y-5138500D01*
X5619500Y-4538500D02*
X5619500Y-5138500D01*
X6419500Y-4538500D02*
X5619500Y-4538500D01*
X-6750000Y-28000000D02*
G75*
G03*
X-6750000Y-28000000I-750000J0D01*
G01*
X-6760000Y2529000D02*
X-7810000Y2529000D01*
X-6760000Y1989000D02*
X-6760000Y2529000D01*
X-7810000Y1989000D02*
X-6760000Y1989000D01*
X-7810000Y2529000D02*
X-7810000Y1989000D01*
X6000000Y0D02*
G75*
G03*
X6000000Y0I-1000000J0D01*
G01*
X7600000Y-1200000D02*
X6200000Y-2600000D01*
X7600000Y1200000D02*
X7600000Y-1200000D01*
X6200000Y2600000D02*
X7600000Y1200000D01*
X3800000Y2600000D02*
X6200000Y2600000D01*
X2400000Y1200000D02*
X3800000Y2600000D01*
X2400000Y-1200000D02*
X2400000Y1200000D01*
X3800000Y-2600000D02*
X2400000Y-1200000D01*
X6200000Y-2600000D02*
X3800000Y-2600000D01*
X4000000Y-2000000D02*
X6000000Y-2000000D01*
X3000000Y-1000000D02*
X4000000Y-2000000D01*
X3000000Y1000000D02*
X3000000Y-1000000D01*
X4000000Y2000000D02*
X3000000Y1000000D01*
X6000000Y2000000D02*
X4000000Y2000000D01*
X7000000Y1000000D02*
X6000000Y2000000D01*
X7000000Y-1000000D02*
X7000000Y1000000D01*
X6000000Y-2000000D02*
X7000000Y-1000000D01*
X3400000Y3200000D02*
X3400000Y2200000D01*
X2900000Y2700000D02*
X3400000Y2700000D01*
X2900000Y1700000D02*
X2900000Y3200000D01*
X2900000Y-1700000D02*
X2900000Y-3200000D01*
X3400000Y-3200000D02*
X3400000Y-2200000D01*
X2900000Y-2700000D02*
X3400000Y-2700000D01*
X6600000Y-3200000D02*
X6600000Y-2200000D01*
X7100000Y-1700000D02*
X7100000Y-3200000D01*
X7100000Y-2700000D02*
X6600000Y-2700000D01*
X6600000Y3200000D02*
X6600000Y2200000D01*
X7100000Y1700000D02*
X7100000Y3200000D01*
X7100000Y2700000D02*
X6600000Y2700000D01*
X7100000Y-3200000D02*
X6600000Y-3200000D01*
X2900000Y-3200000D02*
X3400000Y-3200000D01*
X7100000Y3200000D02*
X6600000Y3200000D01*
X2900000Y3200000D02*
X3400000Y3200000D01*
X-11600000Y18250000D02*
G75*
G03*
X-11600000Y18250000I-750000J0D01*
G01*
X13400000Y18250000D02*
G75*
G03*
X13400000Y18250000I-750000J0D01*
G01*
X312761Y-13319755D02*
X312761Y-13643564D01*
X293714Y-13681660D01*
X274666Y-13700707D01*
X236571Y-13719755D01*
X160380Y-13719755D01*
X122285Y-13700707D01*
X103238Y-13681660D01*
X84190Y-13643564D01*
X84190Y-13319755D01*
X-125334Y-13719755D02*
X-201524Y-13719755D01*
X-239620Y-13700707D01*
X-258667Y-13681660D01*
X-296762Y-13624517D01*
X-315810Y-13548326D01*
X-315810Y-13395945D01*
X-296762Y-13357850D01*
X-277715Y-13338803D01*
X-239620Y-13319755D01*
X-163429Y-13319755D01*
X-125334Y-13338803D01*
X-106286Y-13357850D01*
X-87239Y-13395945D01*
X-87239Y-13491183D01*
X-106286Y-13529279D01*
X-125334Y-13548326D01*
X-163429Y-13567374D01*
X-239620Y-13567374D01*
X-277715Y-13548326D01*
X-296762Y-13529279D01*
X-315810Y-13491183D01*
X-9811518Y-13269755D02*
X-9771042Y-13593564D01*
X-9785328Y-13631660D01*
X-9801995Y-13650707D01*
X-9837709Y-13669755D01*
X-9913899Y-13669755D01*
X-9954375Y-13650707D01*
X-9975804Y-13631660D01*
X-9999614Y-13593564D01*
X-10040090Y-13269755D01*
X-10390090Y-13669755D02*
X-10161518Y-13669755D01*
X-10275804Y-13669755D02*
X-10325804Y-13269755D01*
X-10280566Y-13326898D01*
X-10237709Y-13364993D01*
X-10197233Y-13384041D01*
X-10771042Y-13669755D02*
X-10542471Y-13669755D01*
X-10656756Y-13669755D02*
X-10706756Y-13269755D01*
X-10661518Y-13326898D01*
X-10618661Y-13364993D01*
X-10578185Y-13384041D01*
X513882Y-26793852D02*
X554358Y-27117661D01*
X540072Y-27155757D01*
X523405Y-27174804D01*
X487691Y-27193852D01*
X411501Y-27193852D01*
X371025Y-27174804D01*
X349596Y-27155757D01*
X325786Y-27117661D01*
X285310Y-26793852D01*
X-64690Y-27193852D02*
X163882Y-27193852D01*
X49596Y-27193852D02*
X-404Y-26793852D01*
X44834Y-26850995D01*
X87691Y-26889090D01*
X128167Y-26908138D01*
X-362309Y-26793852D02*
X-400404Y-26793852D01*
X-436118Y-26812900D01*
X-452785Y-26831947D01*
X-467071Y-26870042D01*
X-476595Y-26946233D01*
X-464690Y-27041471D01*
X-436118Y-27117661D01*
X-412309Y-27155757D01*
X-390880Y-27174804D01*
X-350404Y-27193852D01*
X-312309Y-27193852D01*
X-276595Y-27174804D01*
X-259928Y-27155757D01*
X-245642Y-27117661D01*
X-236118Y-27041471D01*
X-248023Y-26946233D01*
X-276595Y-26870042D01*
X-300404Y-26831947D01*
X-321833Y-26812900D01*
X-362309Y-26793852D01*
X9810005Y-13307952D02*
X9850482Y-13631761D01*
X9836196Y-13669857D01*
X9819529Y-13688904D01*
X9783815Y-13707952D01*
X9707625Y-13707952D01*
X9667148Y-13688904D01*
X9645720Y-13669857D01*
X9621910Y-13631761D01*
X9581434Y-13307952D01*
X9355244Y-13479380D02*
X9390958Y-13460333D01*
X9407625Y-13441285D01*
X9421910Y-13403190D01*
X9419529Y-13384142D01*
X9395720Y-13346047D01*
X9374291Y-13327000D01*
X9333815Y-13307952D01*
X9257625Y-13307952D01*
X9221910Y-13327000D01*
X9205244Y-13346047D01*
X9190958Y-13384142D01*
X9193339Y-13403190D01*
X9217148Y-13441285D01*
X9238577Y-13460333D01*
X9279053Y-13479380D01*
X9355244Y-13479380D01*
X9395720Y-13498428D01*
X9417148Y-13517476D01*
X9440958Y-13555571D01*
X9450482Y-13631761D01*
X9436196Y-13669857D01*
X9419529Y-13688904D01*
X9383815Y-13707952D01*
X9307625Y-13707952D01*
X9267148Y-13688904D01*
X9245720Y-13669857D01*
X9221910Y-13631761D01*
X9212386Y-13555571D01*
X9226672Y-13517476D01*
X9243339Y-13498428D01*
X9279053Y-13479380D01*
X-7799614Y-3530952D02*
X-7690090Y-3340476D01*
X-7571042Y-3530952D02*
X-7621042Y-3130952D01*
X-7773423Y-3130952D01*
X-7809137Y-3150000D01*
X-7825804Y-3169047D01*
X-7840090Y-3207142D01*
X-7832947Y-3264285D01*
X-7809137Y-3302380D01*
X-7787709Y-3321428D01*
X-7747233Y-3340476D01*
X-7594852Y-3340476D01*
X-7997233Y-3169047D02*
X-8018661Y-3150000D01*
X-8059137Y-3130952D01*
X-8154375Y-3130952D01*
X-8190090Y-3150000D01*
X-8206756Y-3169047D01*
X-8221042Y-3207142D01*
X-8216280Y-3245238D01*
X-8190090Y-3302380D01*
X-7932947Y-3530952D01*
X-8180566Y-3530952D01*
X-8561518Y-3530952D02*
X-8332947Y-3530952D01*
X-8447233Y-3530952D02*
X-8497233Y-3130952D01*
X-8451995Y-3188095D01*
X-8409137Y-3226190D01*
X-8368661Y-3245238D01*
X1395625Y-16242857D02*
X1417053Y-16261904D01*
X1476577Y-16280952D01*
X1514672Y-16280952D01*
X1569434Y-16261904D01*
X1602767Y-16223809D01*
X1617053Y-16185714D01*
X1626577Y-16109523D01*
X1619434Y-16052380D01*
X1590863Y-15976190D01*
X1567053Y-15938095D01*
X1524196Y-15900000D01*
X1464672Y-15880952D01*
X1426577Y-15880952D01*
X1371815Y-15900000D01*
X1355148Y-15919047D01*
X988482Y-15880952D02*
X1178958Y-15880952D01*
X1221815Y-16071428D01*
X1200386Y-16052380D01*
X1159910Y-16033333D01*
X1064672Y-16033333D01*
X1028958Y-16052380D01*
X1012291Y-16071428D01*
X998005Y-16109523D01*
X1009910Y-16204761D01*
X1033720Y-16242857D01*
X1055148Y-16261904D01*
X1095625Y-16280952D01*
X1190863Y-16280952D01*
X1226577Y-16261904D01*
X1243244Y-16242857D01*
X828958Y-16280952D02*
X752767Y-16280952D01*
X712291Y-16261904D01*
X690863Y-16242857D01*
X645625Y-16185714D01*
X617053Y-16109523D01*
X598005Y-15957142D01*
X612291Y-15919047D01*
X628958Y-15900000D01*
X664672Y-15880952D01*
X740863Y-15880952D01*
X781339Y-15900000D01*
X802767Y-15919047D01*
X826577Y-15957142D01*
X838482Y-16052380D01*
X824196Y-16090476D01*
X807529Y-16109523D01*
X771815Y-16128571D01*
X695625Y-16128571D01*
X655148Y-16109523D01*
X633720Y-16090476D01*
X609910Y-16052380D01*
X-304375Y-17692857D02*
X-282947Y-17711904D01*
X-223423Y-17730952D01*
X-185328Y-17730952D01*
X-130566Y-17711904D01*
X-97233Y-17673809D01*
X-82947Y-17635714D01*
X-73423Y-17559523D01*
X-80566Y-17502380D01*
X-109137Y-17426190D01*
X-132947Y-17388095D01*
X-175804Y-17350000D01*
X-235328Y-17330952D01*
X-273423Y-17330952D01*
X-328185Y-17350000D01*
X-344852Y-17369047D01*
X-711518Y-17330952D02*
X-521042Y-17330952D01*
X-478185Y-17521428D01*
X-499614Y-17502380D01*
X-540090Y-17483333D01*
X-635328Y-17483333D01*
X-671042Y-17502380D01*
X-687709Y-17521428D01*
X-701995Y-17559523D01*
X-690090Y-17654761D01*
X-666280Y-17692857D01*
X-644852Y-17711904D01*
X-604375Y-17730952D01*
X-509137Y-17730952D01*
X-473423Y-17711904D01*
X-456756Y-17692857D01*
X-937709Y-17502380D02*
X-901995Y-17483333D01*
X-885328Y-17464285D01*
X-871042Y-17426190D01*
X-873423Y-17407142D01*
X-897233Y-17369047D01*
X-918661Y-17350000D01*
X-959137Y-17330952D01*
X-1035328Y-17330952D01*
X-1071042Y-17350000D01*
X-1087709Y-17369047D01*
X-1101995Y-17407142D01*
X-1099614Y-17426190D01*
X-1075804Y-17464285D01*
X-1054375Y-17483333D01*
X-1013899Y-17502380D01*
X-937709Y-17502380D01*
X-897233Y-17521428D01*
X-875804Y-17540476D01*
X-851995Y-17578571D01*
X-842471Y-17654761D01*
X-856756Y-17692857D01*
X-873423Y-17711904D01*
X-909137Y-17730952D01*
X-985328Y-17730952D01*
X-1025804Y-17711904D01*
X-1047233Y-17692857D01*
X-1071042Y-17654761D01*
X-1080566Y-17578571D01*
X-1066280Y-17540476D01*
X-1049614Y-17521428D01*
X-1013899Y-17502380D01*
X13945625Y-14492857D02*
X13967053Y-14511904D01*
X14026577Y-14530952D01*
X14064672Y-14530952D01*
X14119434Y-14511904D01*
X14152767Y-14473809D01*
X14167053Y-14435714D01*
X14176577Y-14359523D01*
X14169434Y-14302380D01*
X14140863Y-14226190D01*
X14117053Y-14188095D01*
X14074196Y-14150000D01*
X14014672Y-14130952D01*
X13976577Y-14130952D01*
X13921815Y-14150000D01*
X13905148Y-14169047D01*
X13557529Y-14130952D02*
X13633720Y-14130952D01*
X13674196Y-14150000D01*
X13695625Y-14169047D01*
X13740863Y-14226190D01*
X13769434Y-14302380D01*
X13788482Y-14454761D01*
X13774196Y-14492857D01*
X13757529Y-14511904D01*
X13721815Y-14530952D01*
X13645625Y-14530952D01*
X13605148Y-14511904D01*
X13583720Y-14492857D01*
X13559910Y-14454761D01*
X13548005Y-14359523D01*
X13562291Y-14321428D01*
X13578958Y-14302380D01*
X13614672Y-14283333D01*
X13690863Y-14283333D01*
X13731339Y-14302380D01*
X13752767Y-14321428D01*
X13776577Y-14359523D01*
X13271815Y-14130952D02*
X13233720Y-14130952D01*
X13198005Y-14150000D01*
X13181339Y-14169047D01*
X13167053Y-14207142D01*
X13157529Y-14283333D01*
X13169434Y-14378571D01*
X13198005Y-14454761D01*
X13221815Y-14492857D01*
X13243244Y-14511904D01*
X13283720Y-14530952D01*
X13321815Y-14530952D01*
X13357529Y-14511904D01*
X13374196Y-14492857D01*
X13388482Y-14454761D01*
X13398005Y-14378571D01*
X13386101Y-14283333D01*
X13357529Y-14207142D01*
X13333720Y-14169047D01*
X13312291Y-14150000D01*
X13271815Y-14130952D01*
X-1804375Y-14592857D02*
X-1782947Y-14611904D01*
X-1723423Y-14630952D01*
X-1685328Y-14630952D01*
X-1630566Y-14611904D01*
X-1597233Y-14573809D01*
X-1582947Y-14535714D01*
X-1573423Y-14459523D01*
X-1580566Y-14402380D01*
X-1609137Y-14326190D01*
X-1632947Y-14288095D01*
X-1675804Y-14250000D01*
X-1735328Y-14230952D01*
X-1773423Y-14230952D01*
X-1828185Y-14250000D01*
X-1844852Y-14269047D01*
X-2192471Y-14230952D02*
X-2116280Y-14230952D01*
X-2075804Y-14250000D01*
X-2054375Y-14269047D01*
X-2009137Y-14326190D01*
X-1980566Y-14402380D01*
X-1961518Y-14554761D01*
X-1975804Y-14592857D01*
X-1992471Y-14611904D01*
X-2028185Y-14630952D01*
X-2104375Y-14630952D01*
X-2144852Y-14611904D01*
X-2166280Y-14592857D01*
X-2190090Y-14554761D01*
X-2201995Y-14459523D01*
X-2187709Y-14421428D01*
X-2171042Y-14402380D01*
X-2135328Y-14383333D01*
X-2059137Y-14383333D01*
X-2018661Y-14402380D01*
X-1997233Y-14421428D01*
X-1973423Y-14459523D01*
X-2561518Y-14630952D02*
X-2332947Y-14630952D01*
X-2447233Y-14630952D02*
X-2497233Y-14230952D01*
X-2451995Y-14288095D01*
X-2409137Y-14326190D01*
X-2368661Y-14345238D01*
X2248625Y-27092857D02*
X2270053Y-27111904D01*
X2329577Y-27130952D01*
X2367672Y-27130952D01*
X2422434Y-27111904D01*
X2455767Y-27073809D01*
X2470053Y-27035714D01*
X2479577Y-26959523D01*
X2472434Y-26902380D01*
X2443863Y-26826190D01*
X2420053Y-26788095D01*
X2377196Y-26750000D01*
X2317672Y-26730952D01*
X2279577Y-26730952D01*
X2224815Y-26750000D01*
X2208148Y-26769047D01*
X1860529Y-26730952D02*
X1936720Y-26730952D01*
X1977196Y-26750000D01*
X1998625Y-26769047D01*
X2043863Y-26826190D01*
X2072434Y-26902380D01*
X2091482Y-27054761D01*
X2077196Y-27092857D01*
X2060529Y-27111904D01*
X2024815Y-27130952D01*
X1948625Y-27130952D01*
X1908148Y-27111904D01*
X1886720Y-27092857D01*
X1862910Y-27054761D01*
X1851005Y-26959523D01*
X1865291Y-26921428D01*
X1881958Y-26902380D01*
X1917672Y-26883333D01*
X1993863Y-26883333D01*
X2034339Y-26902380D01*
X2055767Y-26921428D01*
X2079577Y-26959523D01*
X1689101Y-26730952D02*
X1441482Y-26730952D01*
X1593863Y-26883333D01*
X1536720Y-26883333D01*
X1501005Y-26902380D01*
X1484339Y-26921428D01*
X1470053Y-26959523D01*
X1481958Y-27054761D01*
X1505767Y-27092857D01*
X1527196Y-27111904D01*
X1567672Y-27130952D01*
X1681958Y-27130952D01*
X1717672Y-27111904D01*
X1734339Y-27092857D01*
X-7204375Y-15992857D02*
X-7182947Y-16011904D01*
X-7123423Y-16030952D01*
X-7085328Y-16030952D01*
X-7030566Y-16011904D01*
X-6997233Y-15973809D01*
X-6982947Y-15935714D01*
X-6973423Y-15859523D01*
X-6980566Y-15802380D01*
X-7009137Y-15726190D01*
X-7032947Y-15688095D01*
X-7075804Y-15650000D01*
X-7135328Y-15630952D01*
X-7173423Y-15630952D01*
X-7228185Y-15650000D01*
X-7244852Y-15669047D01*
X-7592471Y-15630952D02*
X-7516280Y-15630952D01*
X-7475804Y-15650000D01*
X-7454375Y-15669047D01*
X-7409137Y-15726190D01*
X-7380566Y-15802380D01*
X-7361518Y-15954761D01*
X-7375804Y-15992857D01*
X-7392471Y-16011904D01*
X-7428185Y-16030952D01*
X-7504375Y-16030952D01*
X-7544852Y-16011904D01*
X-7566280Y-15992857D01*
X-7590090Y-15954761D01*
X-7601995Y-15859523D01*
X-7587709Y-15821428D01*
X-7571042Y-15802380D01*
X-7535328Y-15783333D01*
X-7459137Y-15783333D01*
X-7418661Y-15802380D01*
X-7397233Y-15821428D01*
X-7373423Y-15859523D01*
X-7778185Y-15669047D02*
X-7799614Y-15650000D01*
X-7840090Y-15630952D01*
X-7935328Y-15630952D01*
X-7971042Y-15650000D01*
X-7987709Y-15669047D01*
X-8001995Y-15707142D01*
X-7997233Y-15745238D01*
X-7971042Y-15802380D01*
X-7713899Y-16030952D01*
X-7961518Y-16030952D01*
X4346625Y-5542857D02*
X4368053Y-5561904D01*
X4427577Y-5580952D01*
X4465672Y-5580952D01*
X4520434Y-5561904D01*
X4553767Y-5523809D01*
X4568053Y-5485714D01*
X4577577Y-5409523D01*
X4570434Y-5352380D01*
X4541863Y-5276190D01*
X4518053Y-5238095D01*
X4475196Y-5200000D01*
X4415672Y-5180952D01*
X4377577Y-5180952D01*
X4322815Y-5200000D01*
X4306148Y-5219047D01*
X3958529Y-5180952D02*
X4034720Y-5180952D01*
X4075196Y-5200000D01*
X4096625Y-5219047D01*
X4141863Y-5276190D01*
X4170434Y-5352380D01*
X4189482Y-5504761D01*
X4175196Y-5542857D01*
X4158529Y-5561904D01*
X4122815Y-5580952D01*
X4046625Y-5580952D01*
X4006148Y-5561904D01*
X3984720Y-5542857D01*
X3960910Y-5504761D01*
X3949005Y-5409523D01*
X3963291Y-5371428D01*
X3979958Y-5352380D01*
X4015672Y-5333333D01*
X4091863Y-5333333D01*
X4132339Y-5352380D01*
X4153767Y-5371428D01*
X4177577Y-5409523D01*
X3594244Y-5314285D02*
X3627577Y-5580952D01*
X3670434Y-5161904D02*
X3801386Y-5447619D01*
X3553767Y-5447619D01*
X13900386Y-13530952D02*
X14009910Y-13340476D01*
X14128958Y-13530952D02*
X14078958Y-13130952D01*
X13926577Y-13130952D01*
X13890863Y-13150000D01*
X13874196Y-13169047D01*
X13859910Y-13207142D01*
X13867053Y-13264285D01*
X13890863Y-13302380D01*
X13912291Y-13321428D01*
X13952767Y-13340476D01*
X14105148Y-13340476D01*
X13519434Y-13530952D02*
X13748005Y-13530952D01*
X13633720Y-13530952D02*
X13583720Y-13130952D01*
X13628958Y-13188095D01*
X13671815Y-13226190D01*
X13712291Y-13245238D01*
X13138482Y-13530952D02*
X13367053Y-13530952D01*
X13252767Y-13530952D02*
X13202767Y-13130952D01*
X13248005Y-13188095D01*
X13290863Y-13226190D01*
X13331339Y-13245238D01*
X13550386Y-3680952D02*
X13659910Y-3490476D01*
X13778958Y-3680952D02*
X13728958Y-3280952D01*
X13576577Y-3280952D01*
X13540863Y-3300000D01*
X13524196Y-3319047D01*
X13509910Y-3357142D01*
X13517053Y-3414285D01*
X13540863Y-3452380D01*
X13562291Y-3471428D01*
X13602767Y-3490476D01*
X13755148Y-3490476D01*
X13169434Y-3680952D02*
X13398005Y-3680952D01*
X13283720Y-3680952D02*
X13233720Y-3280952D01*
X13278958Y-3338095D01*
X13321815Y-3376190D01*
X13362291Y-3395238D01*
X12757529Y-3280952D02*
X12948005Y-3280952D01*
X12990863Y-3471428D01*
X12969434Y-3452380D01*
X12928958Y-3433333D01*
X12833720Y-3433333D01*
X12798005Y-3452380D01*
X12781339Y-3471428D01*
X12767053Y-3509523D01*
X12778958Y-3604761D01*
X12802767Y-3642857D01*
X12824196Y-3661904D01*
X12864672Y-3680952D01*
X12959910Y-3680952D01*
X12995625Y-3661904D01*
X13012291Y-3642857D01*
X13950386Y-12580952D02*
X14059910Y-12390476D01*
X14178958Y-12580952D02*
X14128958Y-12180952D01*
X13976577Y-12180952D01*
X13940863Y-12200000D01*
X13924196Y-12219047D01*
X13909910Y-12257142D01*
X13917053Y-12314285D01*
X13940863Y-12352380D01*
X13962291Y-12371428D01*
X14002767Y-12390476D01*
X14155148Y-12390476D01*
X13569434Y-12580952D02*
X13798005Y-12580952D01*
X13683720Y-12580952D02*
X13633720Y-12180952D01*
X13678958Y-12238095D01*
X13721815Y-12276190D01*
X13762291Y-12295238D01*
X13371815Y-12219047D02*
X13350386Y-12200000D01*
X13309910Y-12180952D01*
X13214672Y-12180952D01*
X13178958Y-12200000D01*
X13162291Y-12219047D01*
X13148005Y-12257142D01*
X13152767Y-12295238D01*
X13178958Y-12352380D01*
X13436101Y-12580952D01*
X13188482Y-12580952D01*
X8650386Y2569048D02*
X8759910Y2759524D01*
X8878958Y2569048D02*
X8828958Y2969048D01*
X8676577Y2969048D01*
X8640863Y2950000D01*
X8624196Y2930953D01*
X8609910Y2892858D01*
X8617053Y2835715D01*
X8640863Y2797620D01*
X8662291Y2778572D01*
X8702767Y2759524D01*
X8855148Y2759524D01*
X8452767Y2930953D02*
X8431339Y2950000D01*
X8390863Y2969048D01*
X8295625Y2969048D01*
X8259910Y2950000D01*
X8243244Y2930953D01*
X8228958Y2892858D01*
X8233720Y2854762D01*
X8259910Y2797620D01*
X8517053Y2569048D01*
X8269434Y2569048D01*
X7893244Y2835715D02*
X7926577Y2569048D01*
X7969434Y2988096D02*
X8100386Y2702381D01*
X7852767Y2702381D01*
X-6299614Y-3530952D02*
X-6190090Y-3340476D01*
X-6071042Y-3530952D02*
X-6121042Y-3130952D01*
X-6273423Y-3130952D01*
X-6309137Y-3150000D01*
X-6325804Y-3169047D01*
X-6340090Y-3207142D01*
X-6332947Y-3264285D01*
X-6309137Y-3302380D01*
X-6287709Y-3321428D01*
X-6247233Y-3340476D01*
X-6094852Y-3340476D01*
X-6497233Y-3169047D02*
X-6518661Y-3150000D01*
X-6559137Y-3130952D01*
X-6654375Y-3130952D01*
X-6690090Y-3150000D01*
X-6706756Y-3169047D01*
X-6721042Y-3207142D01*
X-6716280Y-3245238D01*
X-6690090Y-3302380D01*
X-6432947Y-3530952D01*
X-6680566Y-3530952D01*
X-6863899Y-3130952D02*
X-7111518Y-3130952D01*
X-6959137Y-3283333D01*
X-7016280Y-3283333D01*
X-7051995Y-3302380D01*
X-7068661Y-3321428D01*
X-7082947Y-3359523D01*
X-7071042Y-3454761D01*
X-7047233Y-3492857D01*
X-7025804Y-3511904D01*
X-6985328Y-3530952D01*
X-6871042Y-3530952D01*
X-6835328Y-3511904D01*
X-6818661Y-3492857D01*
X-6661518Y-180952D02*
X-6711518Y219048D01*
X-6806756Y219048D01*
X-6861518Y200000D01*
X-6894852Y161905D01*
X-6909137Y123810D01*
X-6918661Y47620D01*
X-6911518Y-9523D01*
X-6882947Y-85714D01*
X-6859137Y-123809D01*
X-6816280Y-161904D01*
X-6756756Y-180952D01*
X-6661518Y-180952D01*
X-7073423Y219048D02*
X-7321042Y219048D01*
X-7168661Y66667D01*
X-7225804Y66667D01*
X-7261518Y47620D01*
X-7278185Y28572D01*
X-7292471Y-9523D01*
X-7280566Y-104761D01*
X-7256756Y-142857D01*
X-7235328Y-161904D01*
X-7194852Y-180952D01*
X-7080566Y-180952D01*
X-7044852Y-161904D01*
X-7028185Y-142857D01*
X8550386Y-16980952D02*
X8659910Y-16790476D01*
X8778958Y-16980952D02*
X8728958Y-16580952D01*
X8576577Y-16580952D01*
X8540863Y-16600000D01*
X8524196Y-16619047D01*
X8509910Y-16657142D01*
X8517053Y-16714285D01*
X8540863Y-16752380D01*
X8562291Y-16771428D01*
X8602767Y-16790476D01*
X8755148Y-16790476D01*
X8169434Y-16980952D02*
X8398005Y-16980952D01*
X8283720Y-16980952D02*
X8233720Y-16580952D01*
X8278958Y-16638095D01*
X8321815Y-16676190D01*
X8362291Y-16695238D01*
X7986101Y-16580952D02*
X7738482Y-16580952D01*
X7890863Y-16733333D01*
X7833720Y-16733333D01*
X7798005Y-16752380D01*
X7781339Y-16771428D01*
X7767053Y-16809523D01*
X7778958Y-16904761D01*
X7802767Y-16942857D01*
X7824196Y-16961904D01*
X7864672Y-16980952D01*
X7978958Y-16980952D01*
X8014672Y-16961904D01*
X8031339Y-16942857D01*
X12000386Y-3680952D02*
X12109910Y-3490476D01*
X12228958Y-3680952D02*
X12178958Y-3280952D01*
X12026577Y-3280952D01*
X11990863Y-3300000D01*
X11974196Y-3319047D01*
X11959910Y-3357142D01*
X11967053Y-3414285D01*
X11990863Y-3452380D01*
X12012291Y-3471428D01*
X12052767Y-3490476D01*
X12205148Y-3490476D01*
X11619434Y-3680952D02*
X11848005Y-3680952D01*
X11733720Y-3680952D02*
X11683720Y-3280952D01*
X11728958Y-3338095D01*
X11771815Y-3376190D01*
X11812291Y-3395238D01*
X11362291Y-3452380D02*
X11398005Y-3433333D01*
X11414672Y-3414285D01*
X11428958Y-3376190D01*
X11426577Y-3357142D01*
X11402767Y-3319047D01*
X11381339Y-3300000D01*
X11340863Y-3280952D01*
X11264672Y-3280952D01*
X11228958Y-3300000D01*
X11212291Y-3319047D01*
X11198005Y-3357142D01*
X11200386Y-3376190D01*
X11224196Y-3414285D01*
X11245625Y-3433333D01*
X11286101Y-3452380D01*
X11362291Y-3452380D01*
X11402767Y-3471428D01*
X11424196Y-3490476D01*
X11448005Y-3528571D01*
X11457529Y-3604761D01*
X11443244Y-3642857D01*
X11426577Y-3661904D01*
X11390863Y-3680952D01*
X11314672Y-3680952D01*
X11274196Y-3661904D01*
X11252767Y-3642857D01*
X11228958Y-3604761D01*
X11219434Y-3528571D01*
X11233720Y-3490476D01*
X11250386Y-3471428D01*
X11286101Y-3452380D01*
X6357982Y-5680952D02*
X6307982Y-5280952D01*
X6212744Y-5280952D01*
X6157982Y-5300000D01*
X6124648Y-5338095D01*
X6110363Y-5376190D01*
X6100839Y-5452380D01*
X6107982Y-5509523D01*
X6136553Y-5585714D01*
X6160363Y-5623809D01*
X6203220Y-5661904D01*
X6262744Y-5680952D01*
X6357982Y-5680952D01*
X5753220Y-5414285D02*
X5786553Y-5680952D01*
X5829410Y-5261904D02*
X5960363Y-5547619D01*
X5712744Y-5547619D01*
X-7054375Y-27971428D02*
X-6921042Y-27971428D01*
X-6894852Y-28180952D02*
X-6944852Y-27780952D01*
X-7135328Y-27780952D01*
X-7237709Y-28180952D02*
X-7287709Y-27780952D01*
X-7428185Y-28180952D02*
X-7478185Y-27780952D01*
X-7573423Y-27780952D01*
X-7628185Y-27800000D01*
X-7661518Y-27838095D01*
X-7675804Y-27876190D01*
X-7685328Y-27952380D01*
X-7678185Y-28009523D01*
X-7649614Y-28085714D01*
X-7625804Y-28123809D01*
X-7582947Y-28161904D01*
X-7523423Y-28180952D01*
X-7428185Y-28180952D01*
X-7854375Y-27819047D02*
X-7875804Y-27800000D01*
X-7916280Y-27780952D01*
X-8011518Y-27780952D01*
X-8047233Y-27800000D01*
X-8063899Y-27819047D01*
X-8078185Y-27857142D01*
X-8073423Y-27895238D01*
X-8047233Y-27952380D01*
X-7790090Y-28180952D01*
X-8037709Y-28180952D01*
X-6949614Y2769048D02*
X-6840090Y2959524D01*
X-6721042Y2769048D02*
X-6771042Y3169048D01*
X-6923423Y3169048D01*
X-6959137Y3150000D01*
X-6975804Y3130953D01*
X-6990090Y3092858D01*
X-6982947Y3035715D01*
X-6959137Y2997620D01*
X-6937709Y2978572D01*
X-6897233Y2959524D01*
X-6744852Y2959524D01*
X-7147233Y3130953D02*
X-7168661Y3150000D01*
X-7209137Y3169048D01*
X-7304375Y3169048D01*
X-7340090Y3150000D01*
X-7356756Y3130953D01*
X-7371042Y3092858D01*
X-7366280Y3054762D01*
X-7340090Y2997620D01*
X-7082947Y2769048D01*
X-7330566Y2769048D01*
X-7528185Y3130953D02*
X-7549614Y3150000D01*
X-7590090Y3169048D01*
X-7685328Y3169048D01*
X-7721042Y3150000D01*
X-7737709Y3130953D01*
X-7751995Y3092858D01*
X-7747233Y3054762D01*
X-7721042Y2997620D01*
X-7463899Y2769048D01*
X-7711518Y2769048D01*
X5524196Y-3161904D02*
X5469434Y-3180952D01*
X5374196Y-3180952D01*
X5333720Y-3161904D01*
X5312291Y-3142857D01*
X5288482Y-3104761D01*
X5283720Y-3066666D01*
X5298005Y-3028571D01*
X5314672Y-3009523D01*
X5350386Y-2990476D01*
X5424196Y-2971428D01*
X5459910Y-2952380D01*
X5476577Y-2933333D01*
X5490863Y-2895238D01*
X5486101Y-2857142D01*
X5462291Y-2819047D01*
X5440863Y-2800000D01*
X5400386Y-2780952D01*
X5305148Y-2780952D01*
X5250386Y-2800000D01*
X5114672Y-2780952D02*
X5069434Y-3180952D01*
X4957529Y-2895238D01*
X4917053Y-3180952D01*
X4771815Y-2780952D01*
X4459910Y-3180952D02*
X4688482Y-3180952D01*
X4574196Y-3180952D02*
X4524196Y-2780952D01*
X4569434Y-2838095D01*
X4612291Y-2876190D01*
X4652767Y-2895238D01*
X-11904375Y18278572D02*
X-11771042Y18278572D01*
X-11744852Y18069048D02*
X-11794852Y18469048D01*
X-11985328Y18469048D01*
X-12087709Y18069048D02*
X-12137709Y18469048D01*
X-12278185Y18069048D02*
X-12328185Y18469048D01*
X-12423423Y18469048D01*
X-12478185Y18450000D01*
X-12511518Y18411905D01*
X-12525804Y18373810D01*
X-12535328Y18297620D01*
X-12528185Y18240477D01*
X-12499614Y18164286D01*
X-12475804Y18126191D01*
X-12432947Y18088096D01*
X-12373423Y18069048D01*
X-12278185Y18069048D01*
X-12882947Y18335715D02*
X-12849614Y18069048D01*
X-12806756Y18488096D02*
X-12675804Y18202381D01*
X-12923423Y18202381D01*
X13078571Y18228572D02*
X13211904Y18228572D01*
X13211904Y18019048D02*
X13211904Y18419048D01*
X13021428Y18419048D01*
X12869047Y18019048D02*
X12869047Y18419048D01*
X12678571Y18019048D02*
X12678571Y18419048D01*
X12583333Y18419048D01*
X12526190Y18400000D01*
X12488095Y18361905D01*
X12469047Y18323810D01*
X12450000Y18247620D01*
X12450000Y18190477D01*
X12469047Y18114286D01*
X12488095Y18076191D01*
X12526190Y18038096D01*
X12583333Y18019048D01*
X12678571Y18019048D01*
X12107142Y18419048D02*
X12183333Y18419048D01*
X12221428Y18400000D01*
X12240476Y18380953D01*
X12278571Y18323810D01*
X12297619Y18247620D01*
X12297619Y18095239D01*
X12278571Y18057143D01*
X12259523Y18038096D01*
X12221428Y18019048D01*
X12145238Y18019048D01*
X12107142Y18038096D01*
X12088095Y18057143D01*
X12069047Y18095239D01*
X12069047Y18190477D01*
X12088095Y18228572D01*
X12107142Y18247620D01*
X12145238Y18266667D01*
X12221428Y18266667D01*
X12259523Y18247620D01*
X12278571Y18228572D01*
X12297619Y18190477D01*
M02*
