G04 #@! TF.GenerationSoftware,KiCad,Pcbnew,(5.1.6)-1*
G04 #@! TF.CreationDate,2020-06-24T13:46:23+02:00*
G04 #@! TF.ProjectId,ST-Node-V0.1,53542d4e-6f64-4652-9d56-302e312e6b69,rev?*
G04 #@! TF.SameCoordinates,Original*
G04 #@! TF.FileFunction,Copper,L2,Inr*
G04 #@! TF.FilePolarity,Positive*
%FSLAX46Y46*%
G04 Gerber Fmt 4.6, Leading zero omitted, Abs format (unit mm)*
G04 Created by KiCad (PCBNEW (5.1.6)-1) date 2020-06-24 13:46:23*
%MOMM*%
%LPD*%
G01*
G04 APERTURE LIST*
G04 #@! TA.AperFunction,ViaPad*
%ADD10C,2.550000*%
G04 #@! TD*
G04 #@! TA.AperFunction,ViaPad*
%ADD11R,1.524000X1.524000*%
G04 #@! TD*
G04 #@! TA.AperFunction,ViaPad*
%ADD12C,1.524000*%
G04 #@! TD*
G04 #@! TA.AperFunction,ViaPad*
%ADD13C,0.500000*%
G04 #@! TD*
G04 #@! TA.AperFunction,ViaPad*
%ADD14C,0.450000*%
G04 #@! TD*
G04 #@! TA.AperFunction,Conductor*
%ADD15C,0.254000*%
G04 #@! TD*
G04 APERTURE END LIST*
D10*
X147759040Y-121153300D03*
X147759040Y-128773300D03*
X131519040Y-121153300D03*
X131519040Y-128773300D03*
X147759040Y-87589740D03*
X147759040Y-79969740D03*
X131519040Y-87589740D03*
X131519040Y-79969740D03*
D11*
X125703000Y-86677000D03*
D12*
X125703000Y-84677000D03*
X125703000Y-82677000D03*
X125703000Y-80677000D03*
D13*
X139698380Y-115347340D03*
X139700920Y-118982080D03*
X145573400Y-119757800D03*
X143573400Y-119757800D03*
X141573400Y-119757800D03*
X138073400Y-119757800D03*
X136073400Y-119757800D03*
X134073400Y-119757800D03*
X134073400Y-121257800D03*
X136073400Y-121257800D03*
X138073400Y-121257800D03*
X139573400Y-121257800D03*
X141573400Y-121257800D03*
X143573400Y-121257800D03*
X145573400Y-121257800D03*
X145573400Y-122757800D03*
X143573400Y-122757800D03*
X141573400Y-122757800D03*
X139573400Y-122757800D03*
X138073400Y-122757800D03*
X136073400Y-122757800D03*
X134073400Y-122757800D03*
X130073400Y-122757800D03*
X145807080Y-95568360D03*
X127733480Y-93567960D03*
X150266400Y-106959400D03*
X150317200Y-107873800D03*
X149250400Y-101498400D03*
X152755600Y-88887300D03*
X143764000Y-87909400D03*
X143925000Y-88519000D03*
X143975000Y-89200000D03*
X143975000Y-90425000D03*
X143954500Y-91376500D03*
X141414500Y-88519000D03*
X141414500Y-89471500D03*
X141414500Y-90424000D03*
X141249400Y-91948000D03*
X141287500Y-87630000D03*
X142646400Y-86563200D03*
X143764000Y-86563200D03*
X143764000Y-87223600D03*
X142646400Y-87223600D03*
X142646400Y-87884000D03*
X143764000Y-85852000D03*
X143764000Y-85140800D03*
X143764000Y-84429600D03*
X143764000Y-83616800D03*
X143560800Y-82804000D03*
X143078200Y-82225000D03*
X142525000Y-81725000D03*
X141775000Y-81450000D03*
X141020800Y-81457800D03*
X140284200Y-81457800D03*
X139573000Y-81470500D03*
X139014200Y-81686400D03*
X142646400Y-85902800D03*
X142646400Y-85191600D03*
X142646400Y-84429600D03*
X142646400Y-83667600D03*
X142341600Y-83108800D03*
X141884400Y-82675000D03*
X141224000Y-82600800D03*
X134823200Y-91414600D03*
X134823200Y-90449400D03*
X134800000Y-89500000D03*
X135153400Y-82270600D03*
X138582400Y-82042000D03*
X137160000Y-85090000D03*
X137185400Y-87706200D03*
X137185400Y-88595200D03*
X137185400Y-89255600D03*
X137642600Y-89763600D03*
X138379200Y-89763600D03*
X138887200Y-88569800D03*
X138850000Y-87630000D03*
X138875000Y-86664800D03*
X138825000Y-85775800D03*
X138874500Y-84983320D03*
X141249400Y-83362800D03*
X141249400Y-83997800D03*
X141249400Y-84734400D03*
X141249400Y-85521800D03*
X141249400Y-86969600D03*
X136169400Y-91998800D03*
X136271000Y-92633800D03*
X136753600Y-93116400D03*
X137236200Y-93599000D03*
X139801600Y-91236800D03*
X139827000Y-91821000D03*
X137693400Y-93980000D03*
D14*
X138912600Y-89230200D03*
D13*
X155371800Y-90627200D03*
X131851400Y-99339400D03*
X128219200Y-109067600D03*
X131318000Y-93014800D03*
D14*
X136271000Y-94284800D03*
X135788400Y-93802200D03*
X135229600Y-93167200D03*
D13*
X146888200Y-94284802D03*
X155244800Y-107416600D03*
D14*
X143537940Y-92095320D03*
X143095980Y-92532200D03*
X142687040Y-92943680D03*
D13*
X121409460Y-97548700D03*
X128097280Y-98945700D03*
X126725680Y-98313240D03*
X125671580Y-103169720D03*
X130016030Y-101714300D03*
X137081260Y-83538060D03*
X127287020Y-117015260D03*
X127287020Y-114419380D03*
X135757448Y-108499467D03*
X134950000Y-108583899D03*
D14*
X133541969Y-105311387D03*
D13*
X129999740Y-106138980D03*
X143743680Y-107518200D03*
X152781000Y-98653600D03*
X146285886Y-106639834D03*
X129540000Y-96469200D03*
X144462500Y-107505498D03*
D14*
X151015700Y-90233500D03*
D13*
X150291800Y-92773500D03*
X134579360Y-71348600D03*
X148244560Y-68816220D03*
X144332960Y-78359000D03*
X129176780Y-89595960D03*
X124714000Y-109347000D03*
X138700000Y-79650000D03*
X139325000Y-78975000D03*
X139875000Y-78350000D03*
X140450000Y-77800000D03*
X141300000Y-77275000D03*
X142200000Y-77175000D03*
X142976600Y-77100000D03*
X144025000Y-77100000D03*
X144881600Y-77175000D03*
X145750000Y-77175000D03*
X146583400Y-77175000D03*
X147425000Y-77175000D03*
X147825000Y-76650000D03*
X148005800Y-76022200D03*
X149783800Y-77724000D03*
X149125000Y-77900000D03*
X148513800Y-78028800D03*
X147015200Y-78333600D03*
X146329400Y-78350000D03*
X145700000Y-78350000D03*
X144975000Y-78359000D03*
X147950000Y-78300000D03*
X142650000Y-78325000D03*
X142025000Y-78325000D03*
X141575000Y-78775000D03*
X141046200Y-79197200D03*
X140589000Y-79730600D03*
X131597400Y-83693000D03*
X124678399Y-70033599D03*
X124678399Y-75905199D03*
X124678399Y-93519999D03*
X124678399Y-119615999D03*
X124678399Y-125487599D03*
X127940399Y-72643199D03*
X128592799Y-127444799D03*
X129897599Y-68728799D03*
X131202399Y-75252799D03*
X133159599Y-71338399D03*
X133811999Y-126139999D03*
X135769199Y-130054399D03*
X139031199Y-127444799D03*
X141640799Y-124182799D03*
X144250399Y-130054399D03*
X146859999Y-111134799D03*
X149469599Y-114396799D03*
X150121999Y-130054399D03*
X150774399Y-73295599D03*
X150774399Y-79167199D03*
X150774399Y-85038799D03*
X152079199Y-123530399D03*
X153383999Y-69381199D03*
X154036399Y-75905199D03*
X154036399Y-87648399D03*
X154036399Y-96129599D03*
X154036399Y-102001199D03*
X154036399Y-112439599D03*
X154036399Y-127444799D03*
X154688799Y-117658799D03*
X138040000Y-80040000D03*
X137950000Y-79325000D03*
X136300000Y-78900000D03*
X136600000Y-78400000D03*
X137950000Y-78350000D03*
X138010000Y-77750000D03*
X138180000Y-77030000D03*
X138910000Y-77030000D03*
X139600000Y-77000000D03*
X140400000Y-77000000D03*
X147400000Y-76000000D03*
X147400000Y-75000000D03*
X147400000Y-74000000D03*
X147400000Y-73000000D03*
X147400000Y-71800000D03*
X147400000Y-70800000D03*
X147400000Y-69800000D03*
X135200000Y-77000000D03*
X135200000Y-75400000D03*
X135200000Y-73400000D03*
X135200000Y-70000000D03*
X135200000Y-69200000D03*
X134600000Y-68600000D03*
X136450000Y-77800000D03*
X134775000Y-88550000D03*
X134750000Y-87650000D03*
X134750000Y-86700000D03*
X134750000Y-85750000D03*
X134725000Y-84850000D03*
X134725000Y-83925000D03*
X134725000Y-82900000D03*
X135850000Y-82225000D03*
X136475000Y-82250000D03*
X137075000Y-82400000D03*
X137431780Y-81875000D03*
X137250000Y-85925000D03*
X137225000Y-86741000D03*
X141250000Y-86275000D03*
X138175000Y-93525000D03*
X138734800Y-92975000D03*
X139300000Y-92375000D03*
X137795000Y-97155000D03*
X139065000Y-97155000D03*
X140335000Y-97155000D03*
X141605000Y-97155000D03*
X137795000Y-98425000D03*
X139065000Y-98425000D03*
X140335000Y-98425000D03*
X141605000Y-98425000D03*
X137795000Y-99695000D03*
X139065000Y-99695000D03*
X140335000Y-99695000D03*
X141605000Y-99695000D03*
X141605000Y-100965000D03*
X140335000Y-100965000D03*
X139065000Y-100965000D03*
X137795000Y-100965000D03*
X126441200Y-97485200D03*
X144350000Y-114030000D03*
X145130000Y-114000000D03*
X143590000Y-114040000D03*
X134173400Y-111957800D03*
X134173400Y-112757800D03*
X135973400Y-112757800D03*
X135973400Y-111957800D03*
X136973400Y-112757800D03*
X135073400Y-111957800D03*
X127373400Y-111857800D03*
X141082680Y-105296560D03*
X144283080Y-96457358D03*
X141433200Y-104422800D03*
X127355600Y-113055400D03*
X150317200Y-105156000D03*
X140512800Y-111480600D03*
X132613400Y-90652600D03*
X137820400Y-92913200D03*
X145821400Y-124155200D03*
X145846800Y-125298200D03*
X126492000Y-106984800D03*
X150266400Y-94691200D03*
X150266400Y-95504000D03*
X154736800Y-94691200D03*
X156768800Y-105079800D03*
X122646440Y-104472740D03*
X136839372Y-112036364D03*
X149243870Y-105181400D03*
X131378960Y-97142300D03*
X131772660Y-97701100D03*
X126486920Y-106047540D03*
X144381449Y-97112819D03*
X152057100Y-90246200D03*
X154457400Y-92532200D03*
X147140030Y-91743346D03*
X155016200Y-103352600D03*
X148937980Y-98521520D03*
D14*
X140658980Y-94402911D03*
X127365760Y-118016020D03*
D13*
X144745360Y-103523640D03*
X145527678Y-103518560D03*
D14*
X130556000Y-90126388D03*
D13*
X134763150Y-98386698D03*
X141210984Y-103542183D03*
D14*
X130454400Y-91516200D03*
D13*
X143664940Y-104099360D03*
X135191500Y-97713800D03*
X142240000Y-104076498D03*
X133946900Y-96443800D03*
D14*
X139166600Y-91744800D03*
X145170306Y-94360853D03*
D13*
X145712400Y-86677500D03*
X133243320Y-88595200D03*
D14*
X144703800Y-94742000D03*
D13*
X132179060Y-84696300D03*
X145120360Y-90413840D03*
X137972800Y-118287800D03*
D14*
X132207000Y-114249200D03*
X135462087Y-99318878D03*
D13*
X130578860Y-102989380D03*
X156641800Y-106235500D03*
D14*
X144884140Y-109334300D03*
D13*
X136495610Y-103374010D03*
X136956800Y-92151200D03*
X134035800Y-93421200D03*
X135934639Y-94834479D03*
X138861800Y-84228940D03*
X145271270Y-84282551D03*
X137998200Y-84251800D03*
X133949440Y-85476080D03*
X137231120Y-84259420D03*
X133936740Y-82001360D03*
X138760200Y-118846600D03*
D14*
X145808746Y-109417070D03*
X132244145Y-118647295D03*
X146354800Y-100871020D03*
D13*
X146945508Y-108000800D03*
D14*
X146286540Y-99773089D03*
D13*
X123863100Y-106578400D03*
D14*
X128297940Y-97650300D03*
D13*
X130495040Y-100683060D03*
D14*
X129458720Y-98013520D03*
D13*
X124805982Y-106576402D03*
X125531880Y-100573840D03*
D14*
X141247274Y-94272983D03*
D13*
X153677620Y-110131860D03*
X152933400Y-103738680D03*
D14*
X136164320Y-109392720D03*
X146587441Y-112571818D03*
D13*
X154627580Y-110098840D03*
X152915998Y-104505382D03*
D14*
X135531860Y-109890560D03*
X147158490Y-113050828D03*
X145784696Y-108160039D03*
X146592013Y-100292306D03*
D13*
X147713700Y-90474800D03*
X145273673Y-92917190D03*
D14*
X128694485Y-100497185D03*
X135001000Y-102260400D03*
X131215433Y-111843195D03*
D13*
X139463839Y-103326410D03*
X131699050Y-107085438D03*
X127332740Y-115610640D03*
X130987800Y-115519200D03*
D14*
X133119099Y-110001791D03*
X144575013Y-98057739D03*
X132652789Y-110388532D03*
X145084800Y-97591429D03*
D13*
X139821203Y-103872241D03*
X129057400Y-125349000D03*
X133096000Y-116687600D03*
X146024600Y-102920800D03*
D14*
X128095044Y-100437429D03*
X142356840Y-94197967D03*
D13*
X154228800Y-86360000D03*
D14*
X146596100Y-90881200D03*
D13*
X125603000Y-90932000D03*
D14*
X145630192Y-93849410D03*
X135462087Y-99921291D03*
X130673783Y-106801595D03*
D13*
X146397611Y-92057589D03*
X144141380Y-95191499D03*
X121574560Y-100604320D03*
X126740920Y-99273360D03*
X121343420Y-104383840D03*
D14*
X129547620Y-99001580D03*
D13*
X126735840Y-99857560D03*
D14*
X127533297Y-100655023D03*
D15*
G36*
X135446400Y-76657800D02*
G01*
X135448840Y-76682576D01*
X135456067Y-76706401D01*
X135467803Y-76728357D01*
X135483597Y-76747603D01*
X135502843Y-76763397D01*
X135524799Y-76775133D01*
X135548624Y-76782360D01*
X135573400Y-76784800D01*
X147073400Y-76784800D01*
X147098176Y-76782360D01*
X147122001Y-76775133D01*
X147143957Y-76763397D01*
X147163203Y-76747603D01*
X147178997Y-76728357D01*
X147190733Y-76706401D01*
X147197960Y-76682576D01*
X147200400Y-76657800D01*
X147200400Y-68249800D01*
X152282120Y-68249800D01*
X152749588Y-68430427D01*
X154802650Y-69388929D01*
X155600400Y-69829787D01*
X155600400Y-73332812D01*
X155454072Y-73479140D01*
X155261681Y-73767075D01*
X155129159Y-74087010D01*
X155061600Y-74426652D01*
X155061600Y-74772948D01*
X155129159Y-75112590D01*
X155261681Y-75432525D01*
X155454072Y-75720460D01*
X155600400Y-75866788D01*
X155600400Y-81458569D01*
X155588092Y-81500683D01*
X155572953Y-81568738D01*
X155384976Y-82784203D01*
X155378849Y-82853653D01*
X155351130Y-84083255D01*
X155352797Y-84122069D01*
X155354121Y-84152910D01*
X155487135Y-85375611D01*
X155499192Y-85444280D01*
X155600400Y-85859181D01*
X155600400Y-102864826D01*
X155499397Y-102763823D01*
X155375248Y-102680869D01*
X155237301Y-102623729D01*
X155090857Y-102594600D01*
X154941543Y-102594600D01*
X154795099Y-102623729D01*
X154657152Y-102680869D01*
X154533003Y-102763823D01*
X154427423Y-102869403D01*
X154344469Y-102993552D01*
X154287329Y-103131499D01*
X154258200Y-103277943D01*
X154258200Y-103427257D01*
X154287329Y-103573701D01*
X154344469Y-103711648D01*
X154427423Y-103835797D01*
X154533003Y-103941377D01*
X154657152Y-104024331D01*
X154795099Y-104081471D01*
X154941543Y-104110600D01*
X155090857Y-104110600D01*
X155237301Y-104081471D01*
X155375248Y-104024331D01*
X155499397Y-103941377D01*
X155600400Y-103840374D01*
X155600400Y-112206622D01*
X155401600Y-113375525D01*
X155394809Y-113441223D01*
X155394431Y-113444875D01*
X155348228Y-114674330D01*
X155350172Y-114744022D01*
X155464840Y-115968989D01*
X155464840Y-115968990D01*
X155475864Y-116037832D01*
X155600400Y-116583871D01*
X155600400Y-122235432D01*
X155446452Y-122389380D01*
X155254061Y-122677315D01*
X155121539Y-122997250D01*
X155053980Y-123336892D01*
X155053980Y-123683188D01*
X155121539Y-124022830D01*
X155254061Y-124342765D01*
X155446452Y-124630700D01*
X155600400Y-124784648D01*
X155600400Y-128302139D01*
X155221945Y-128518315D01*
X153182374Y-129505832D01*
X151080383Y-130352331D01*
X150298846Y-130606800D01*
X129066926Y-130606800D01*
X128851313Y-130540614D01*
X127334186Y-129959315D01*
X130350985Y-129959315D01*
X130476249Y-130230185D01*
X130780510Y-130405630D01*
X131113152Y-130518345D01*
X131461393Y-130563999D01*
X131811849Y-130540838D01*
X132151052Y-130449751D01*
X132465967Y-130294239D01*
X132561831Y-130230185D01*
X132687095Y-129959315D01*
X131519040Y-128791261D01*
X130350985Y-129959315D01*
X127334186Y-129959315D01*
X126735270Y-129729836D01*
X124679276Y-128777015D01*
X124567496Y-128715653D01*
X129728341Y-128715653D01*
X129751502Y-129066109D01*
X129842589Y-129405312D01*
X129998101Y-129720227D01*
X130062155Y-129816091D01*
X130333025Y-129941355D01*
X131501079Y-128773300D01*
X131537001Y-128773300D01*
X132705055Y-129941355D01*
X132975925Y-129816091D01*
X133151370Y-129511830D01*
X133264085Y-129179188D01*
X133309739Y-128830947D01*
X133294324Y-128597690D01*
X145976040Y-128597690D01*
X145976040Y-128948910D01*
X146044560Y-129293382D01*
X146178966Y-129617867D01*
X146374094Y-129909896D01*
X146622444Y-130158246D01*
X146914473Y-130353374D01*
X147238958Y-130487780D01*
X147583430Y-130556300D01*
X147934650Y-130556300D01*
X148279122Y-130487780D01*
X148603607Y-130353374D01*
X148895636Y-130158246D01*
X149143986Y-129909896D01*
X149339114Y-129617867D01*
X149473520Y-129293382D01*
X149542040Y-128948910D01*
X149542040Y-128597690D01*
X149473520Y-128253218D01*
X149339114Y-127928733D01*
X149143986Y-127636704D01*
X148895636Y-127388354D01*
X148603607Y-127193226D01*
X148279122Y-127058820D01*
X147934650Y-126990300D01*
X147583430Y-126990300D01*
X147238958Y-127058820D01*
X146914473Y-127193226D01*
X146622444Y-127388354D01*
X146374094Y-127636704D01*
X146178966Y-127928733D01*
X146044560Y-128253218D01*
X145976040Y-128597690D01*
X133294324Y-128597690D01*
X133286578Y-128480491D01*
X133195491Y-128141288D01*
X133039979Y-127826373D01*
X132975925Y-127730509D01*
X132705055Y-127605245D01*
X131537001Y-128773300D01*
X131501079Y-128773300D01*
X130333025Y-127605245D01*
X130062155Y-127730509D01*
X129886710Y-128034770D01*
X129773995Y-128367412D01*
X129728341Y-128715653D01*
X124567496Y-128715653D01*
X123849586Y-128321554D01*
X123848013Y-127587285D01*
X130350985Y-127587285D01*
X131519040Y-128755339D01*
X132687095Y-127587285D01*
X132561831Y-127316415D01*
X132257570Y-127140970D01*
X131924928Y-127028255D01*
X131576687Y-126982601D01*
X131226231Y-127005762D01*
X130887028Y-127096849D01*
X130572113Y-127252361D01*
X130476249Y-127316415D01*
X130350985Y-127587285D01*
X123848013Y-127587285D01*
X123843054Y-125274343D01*
X128299400Y-125274343D01*
X128299400Y-125423657D01*
X128328529Y-125570101D01*
X128385669Y-125708048D01*
X128468623Y-125832197D01*
X128574203Y-125937777D01*
X128698352Y-126020731D01*
X128836299Y-126077871D01*
X128982743Y-126107000D01*
X129132057Y-126107000D01*
X129278501Y-126077871D01*
X129416448Y-126020731D01*
X129540597Y-125937777D01*
X129646177Y-125832197D01*
X129729131Y-125708048D01*
X129786271Y-125570101D01*
X129815400Y-125423657D01*
X129815400Y-125274343D01*
X129786271Y-125127899D01*
X129729131Y-124989952D01*
X129646177Y-124865803D01*
X129540597Y-124760223D01*
X129416448Y-124677269D01*
X129278501Y-124620129D01*
X129132057Y-124591000D01*
X128982743Y-124591000D01*
X128836299Y-124620129D01*
X128698352Y-124677269D01*
X128574203Y-124760223D01*
X128468623Y-124865803D01*
X128385669Y-124989952D01*
X128328529Y-125127899D01*
X128299400Y-125274343D01*
X123843054Y-125274343D01*
X123841913Y-124742335D01*
X123953548Y-124630700D01*
X124145939Y-124342765D01*
X124254555Y-124080543D01*
X145063400Y-124080543D01*
X145063400Y-124229857D01*
X145092529Y-124376301D01*
X145149669Y-124514248D01*
X145232623Y-124638397D01*
X145333626Y-124739400D01*
X145258023Y-124815003D01*
X145175069Y-124939152D01*
X145117929Y-125077099D01*
X145088800Y-125223543D01*
X145088800Y-125372857D01*
X145117929Y-125519301D01*
X145175069Y-125657248D01*
X145258023Y-125781397D01*
X145363603Y-125886977D01*
X145487752Y-125969931D01*
X145625699Y-126027071D01*
X145772143Y-126056200D01*
X145921457Y-126056200D01*
X146067901Y-126027071D01*
X146205848Y-125969931D01*
X146329997Y-125886977D01*
X146435577Y-125781397D01*
X146518531Y-125657248D01*
X146575671Y-125519301D01*
X146604800Y-125372857D01*
X146604800Y-125223543D01*
X146575671Y-125077099D01*
X146518531Y-124939152D01*
X146435577Y-124815003D01*
X146334574Y-124714000D01*
X146410177Y-124638397D01*
X146493131Y-124514248D01*
X146550271Y-124376301D01*
X146579400Y-124229857D01*
X146579400Y-124080543D01*
X146550271Y-123934099D01*
X146493131Y-123796152D01*
X146410177Y-123672003D01*
X146304597Y-123566423D01*
X146180448Y-123483469D01*
X146042501Y-123426329D01*
X145896057Y-123397200D01*
X145746743Y-123397200D01*
X145600299Y-123426329D01*
X145462352Y-123483469D01*
X145338203Y-123566423D01*
X145232623Y-123672003D01*
X145149669Y-123796152D01*
X145092529Y-123934099D01*
X145063400Y-124080543D01*
X124254555Y-124080543D01*
X124278461Y-124022830D01*
X124346020Y-123683188D01*
X124346020Y-123336892D01*
X124278461Y-122997250D01*
X124145939Y-122677315D01*
X123953548Y-122389380D01*
X123903483Y-122339315D01*
X130350985Y-122339315D01*
X130476249Y-122610185D01*
X130780510Y-122785630D01*
X131113152Y-122898345D01*
X131461393Y-122943999D01*
X131811849Y-122920838D01*
X132151052Y-122829751D01*
X132465967Y-122674239D01*
X132561831Y-122610185D01*
X132687095Y-122339315D01*
X131519040Y-121171261D01*
X130350985Y-122339315D01*
X123903483Y-122339315D01*
X123836619Y-122272451D01*
X123834097Y-121095653D01*
X129728341Y-121095653D01*
X129751502Y-121446109D01*
X129842589Y-121785312D01*
X129998101Y-122100227D01*
X130062155Y-122196091D01*
X130333025Y-122321355D01*
X131501079Y-121153300D01*
X131537001Y-121153300D01*
X132705055Y-122321355D01*
X132975925Y-122196091D01*
X133151370Y-121891830D01*
X133264085Y-121559188D01*
X133309739Y-121210947D01*
X133294324Y-120977690D01*
X145976040Y-120977690D01*
X145976040Y-121328910D01*
X146044560Y-121673382D01*
X146178966Y-121997867D01*
X146374094Y-122289896D01*
X146622444Y-122538246D01*
X146914473Y-122733374D01*
X147238958Y-122867780D01*
X147583430Y-122936300D01*
X147934650Y-122936300D01*
X148279122Y-122867780D01*
X148603607Y-122733374D01*
X148895636Y-122538246D01*
X149143986Y-122289896D01*
X149339114Y-121997867D01*
X149473520Y-121673382D01*
X149542040Y-121328910D01*
X149542040Y-120977690D01*
X149473520Y-120633218D01*
X149339114Y-120308733D01*
X149143986Y-120016704D01*
X148895636Y-119768354D01*
X148603607Y-119573226D01*
X148279122Y-119438820D01*
X147934650Y-119370300D01*
X147583430Y-119370300D01*
X147238958Y-119438820D01*
X146914473Y-119573226D01*
X146622444Y-119768354D01*
X146374094Y-120016704D01*
X146178966Y-120308733D01*
X146044560Y-120633218D01*
X145976040Y-120977690D01*
X133294324Y-120977690D01*
X133286578Y-120860491D01*
X133195491Y-120521288D01*
X133039979Y-120206373D01*
X132975925Y-120110509D01*
X132705055Y-119985245D01*
X131537001Y-121153300D01*
X131501079Y-121153300D01*
X130333025Y-119985245D01*
X130062155Y-120110509D01*
X129886710Y-120414770D01*
X129773995Y-120747412D01*
X129728341Y-121095653D01*
X123834097Y-121095653D01*
X123831678Y-119967285D01*
X130350985Y-119967285D01*
X131519040Y-121135339D01*
X132687095Y-119967285D01*
X132561831Y-119696415D01*
X132257570Y-119520970D01*
X131924928Y-119408255D01*
X131576687Y-119362601D01*
X131226231Y-119385762D01*
X130887028Y-119476849D01*
X130572113Y-119632361D01*
X130476249Y-119696415D01*
X130350985Y-119967285D01*
X123831678Y-119967285D01*
X123827340Y-117943826D01*
X126632760Y-117943826D01*
X126632760Y-118088214D01*
X126660928Y-118229828D01*
X126716184Y-118363226D01*
X126796401Y-118483280D01*
X126898500Y-118585379D01*
X127018554Y-118665596D01*
X127151952Y-118720852D01*
X127293566Y-118749020D01*
X127437954Y-118749020D01*
X127579568Y-118720852D01*
X127712966Y-118665596D01*
X127833020Y-118585379D01*
X127843298Y-118575101D01*
X131511145Y-118575101D01*
X131511145Y-118719489D01*
X131539313Y-118861103D01*
X131594569Y-118994501D01*
X131674786Y-119114555D01*
X131776885Y-119216654D01*
X131896939Y-119296871D01*
X132030337Y-119352127D01*
X132171951Y-119380295D01*
X132316339Y-119380295D01*
X132457953Y-119352127D01*
X132591351Y-119296871D01*
X132711405Y-119216654D01*
X132813504Y-119114555D01*
X132893721Y-118994501D01*
X132948977Y-118861103D01*
X132977145Y-118719489D01*
X132977145Y-118575101D01*
X132948977Y-118433487D01*
X132893721Y-118300089D01*
X132835626Y-118213143D01*
X137214800Y-118213143D01*
X137214800Y-118362457D01*
X137243929Y-118508901D01*
X137301069Y-118646848D01*
X137384023Y-118770997D01*
X137489603Y-118876577D01*
X137613752Y-118959531D01*
X137751699Y-119016671D01*
X137898143Y-119045800D01*
X138026973Y-119045800D01*
X138031329Y-119067701D01*
X138088469Y-119205648D01*
X138171423Y-119329797D01*
X138277003Y-119435377D01*
X138401152Y-119518331D01*
X138539099Y-119575471D01*
X138685543Y-119604600D01*
X138834857Y-119604600D01*
X138981301Y-119575471D01*
X139119248Y-119518331D01*
X139243397Y-119435377D01*
X139348977Y-119329797D01*
X139431931Y-119205648D01*
X139489071Y-119067701D01*
X139518200Y-118921257D01*
X139518200Y-118771943D01*
X139489071Y-118625499D01*
X139431931Y-118487552D01*
X139348977Y-118363403D01*
X139243397Y-118257823D01*
X139119248Y-118174869D01*
X138981301Y-118117729D01*
X138834857Y-118088600D01*
X138706027Y-118088600D01*
X138701671Y-118066699D01*
X138644531Y-117928752D01*
X138561577Y-117804603D01*
X138455997Y-117699023D01*
X138331848Y-117616069D01*
X138193901Y-117558929D01*
X138047457Y-117529800D01*
X137898143Y-117529800D01*
X137751699Y-117558929D01*
X137613752Y-117616069D01*
X137489603Y-117699023D01*
X137384023Y-117804603D01*
X137301069Y-117928752D01*
X137243929Y-118066699D01*
X137214800Y-118213143D01*
X132835626Y-118213143D01*
X132813504Y-118180035D01*
X132711405Y-118077936D01*
X132591351Y-117997719D01*
X132457953Y-117942463D01*
X132316339Y-117914295D01*
X132171951Y-117914295D01*
X132030337Y-117942463D01*
X131896939Y-117997719D01*
X131776885Y-118077936D01*
X131674786Y-118180035D01*
X131594569Y-118300089D01*
X131539313Y-118433487D01*
X131511145Y-118575101D01*
X127843298Y-118575101D01*
X127935119Y-118483280D01*
X128015336Y-118363226D01*
X128070592Y-118229828D01*
X128098760Y-118088214D01*
X128098760Y-117943826D01*
X128070592Y-117802212D01*
X128015336Y-117668814D01*
X127935119Y-117548760D01*
X127833020Y-117446661D01*
X127712966Y-117366444D01*
X127579568Y-117311188D01*
X127437954Y-117283020D01*
X127293566Y-117283020D01*
X127151952Y-117311188D01*
X127018554Y-117366444D01*
X126898500Y-117446661D01*
X126796401Y-117548760D01*
X126716184Y-117668814D01*
X126660928Y-117802212D01*
X126632760Y-117943826D01*
X123827340Y-117943826D01*
X123824488Y-116612943D01*
X132338000Y-116612943D01*
X132338000Y-116762257D01*
X132367129Y-116908701D01*
X132424269Y-117046648D01*
X132507223Y-117170797D01*
X132612803Y-117276377D01*
X132736952Y-117359331D01*
X132874899Y-117416471D01*
X133021343Y-117445600D01*
X133170657Y-117445600D01*
X133317101Y-117416471D01*
X133455048Y-117359331D01*
X133579197Y-117276377D01*
X133684777Y-117170797D01*
X133767731Y-117046648D01*
X133824871Y-116908701D01*
X133854000Y-116762257D01*
X133854000Y-116612943D01*
X133824871Y-116466499D01*
X133767731Y-116328552D01*
X133684777Y-116204403D01*
X133579197Y-116098823D01*
X133455048Y-116015869D01*
X133317101Y-115958729D01*
X133170657Y-115929600D01*
X133021343Y-115929600D01*
X132874899Y-115958729D01*
X132736952Y-116015869D01*
X132612803Y-116098823D01*
X132507223Y-116204403D01*
X132424269Y-116328552D01*
X132367129Y-116466499D01*
X132338000Y-116612943D01*
X123824488Y-116612943D01*
X123824164Y-116462256D01*
X123968258Y-115726151D01*
X123977148Y-115657000D01*
X123984710Y-115535983D01*
X126574740Y-115535983D01*
X126574740Y-115685297D01*
X126603869Y-115831741D01*
X126661009Y-115969688D01*
X126743963Y-116093837D01*
X126849543Y-116199417D01*
X126973692Y-116282371D01*
X127111639Y-116339511D01*
X127258083Y-116368640D01*
X127407397Y-116368640D01*
X127553841Y-116339511D01*
X127691788Y-116282371D01*
X127815937Y-116199417D01*
X127921517Y-116093837D01*
X128004471Y-115969688D01*
X128061611Y-115831741D01*
X128090740Y-115685297D01*
X128090740Y-115535983D01*
X128072552Y-115444543D01*
X130229800Y-115444543D01*
X130229800Y-115593857D01*
X130258929Y-115740301D01*
X130316069Y-115878248D01*
X130399023Y-116002397D01*
X130504603Y-116107977D01*
X130628752Y-116190931D01*
X130766699Y-116248071D01*
X130913143Y-116277200D01*
X131062457Y-116277200D01*
X131208901Y-116248071D01*
X131346848Y-116190931D01*
X131470997Y-116107977D01*
X131576577Y-116002397D01*
X131659531Y-115878248D01*
X131716671Y-115740301D01*
X131745800Y-115593857D01*
X131745800Y-115444543D01*
X131716671Y-115298099D01*
X131659531Y-115160152D01*
X131576577Y-115036003D01*
X131470997Y-114930423D01*
X131346848Y-114847469D01*
X131208901Y-114790329D01*
X131062457Y-114761200D01*
X130913143Y-114761200D01*
X130766699Y-114790329D01*
X130628752Y-114847469D01*
X130504603Y-114930423D01*
X130399023Y-115036003D01*
X130316069Y-115160152D01*
X130258929Y-115298099D01*
X130229800Y-115444543D01*
X128072552Y-115444543D01*
X128061611Y-115389539D01*
X128004471Y-115251592D01*
X127921517Y-115127443D01*
X127815937Y-115021863D01*
X127691788Y-114938909D01*
X127553841Y-114881769D01*
X127407397Y-114852640D01*
X127258083Y-114852640D01*
X127111639Y-114881769D01*
X126973692Y-114938909D01*
X126849543Y-115021863D01*
X126743963Y-115127443D01*
X126661009Y-115251592D01*
X126603869Y-115389539D01*
X126574740Y-115535983D01*
X123984710Y-115535983D01*
X124053707Y-114431844D01*
X124053495Y-114362125D01*
X124040797Y-114177006D01*
X131474000Y-114177006D01*
X131474000Y-114321394D01*
X131502168Y-114463008D01*
X131557424Y-114596406D01*
X131637641Y-114716460D01*
X131739740Y-114818559D01*
X131859794Y-114898776D01*
X131993192Y-114954032D01*
X132134806Y-114982200D01*
X132279194Y-114982200D01*
X132420808Y-114954032D01*
X132554206Y-114898776D01*
X132674260Y-114818559D01*
X132776359Y-114716460D01*
X132856576Y-114596406D01*
X132911832Y-114463008D01*
X132940000Y-114321394D01*
X132940000Y-114177006D01*
X132911832Y-114035392D01*
X132882817Y-113965343D01*
X142832000Y-113965343D01*
X142832000Y-114114657D01*
X142861129Y-114261101D01*
X142918269Y-114399048D01*
X143001223Y-114523197D01*
X143106803Y-114628777D01*
X143230952Y-114711731D01*
X143368899Y-114768871D01*
X143515343Y-114798000D01*
X143664657Y-114798000D01*
X143811101Y-114768871D01*
X143949048Y-114711731D01*
X143977483Y-114692731D01*
X143990952Y-114701731D01*
X144128899Y-114758871D01*
X144275343Y-114788000D01*
X144424657Y-114788000D01*
X144571101Y-114758871D01*
X144709048Y-114701731D01*
X144762449Y-114666049D01*
X144770952Y-114671731D01*
X144908899Y-114728871D01*
X145055343Y-114758000D01*
X145204657Y-114758000D01*
X145351101Y-114728871D01*
X145489048Y-114671731D01*
X145613197Y-114588777D01*
X145718777Y-114483197D01*
X145801731Y-114359048D01*
X145858871Y-114221101D01*
X145888000Y-114074657D01*
X145888000Y-113925343D01*
X145858871Y-113778899D01*
X145801731Y-113640952D01*
X145718777Y-113516803D01*
X145613197Y-113411223D01*
X145489048Y-113328269D01*
X145351101Y-113271129D01*
X145204657Y-113242000D01*
X145055343Y-113242000D01*
X144908899Y-113271129D01*
X144770952Y-113328269D01*
X144717551Y-113363951D01*
X144709048Y-113358269D01*
X144571101Y-113301129D01*
X144424657Y-113272000D01*
X144275343Y-113272000D01*
X144128899Y-113301129D01*
X143990952Y-113358269D01*
X143962517Y-113377269D01*
X143949048Y-113368269D01*
X143811101Y-113311129D01*
X143664657Y-113282000D01*
X143515343Y-113282000D01*
X143368899Y-113311129D01*
X143230952Y-113368269D01*
X143106803Y-113451223D01*
X143001223Y-113556803D01*
X142918269Y-113680952D01*
X142861129Y-113818899D01*
X142832000Y-113965343D01*
X132882817Y-113965343D01*
X132856576Y-113901994D01*
X132776359Y-113781940D01*
X132674260Y-113679841D01*
X132554206Y-113599624D01*
X132420808Y-113544368D01*
X132279194Y-113516200D01*
X132134806Y-113516200D01*
X131993192Y-113544368D01*
X131859794Y-113599624D01*
X131739740Y-113679841D01*
X131637641Y-113781940D01*
X131557424Y-113901994D01*
X131502168Y-114035392D01*
X131474000Y-114177006D01*
X124040797Y-114177006D01*
X123969485Y-113137458D01*
X123968488Y-113130057D01*
X123960175Y-113068362D01*
X123942470Y-112980743D01*
X126597600Y-112980743D01*
X126597600Y-113130057D01*
X126626729Y-113276501D01*
X126683869Y-113414448D01*
X126766823Y-113538597D01*
X126872403Y-113644177D01*
X126996552Y-113727131D01*
X127134499Y-113784271D01*
X127280943Y-113813400D01*
X127430257Y-113813400D01*
X127576701Y-113784271D01*
X127714648Y-113727131D01*
X127838797Y-113644177D01*
X127944377Y-113538597D01*
X128027331Y-113414448D01*
X128084471Y-113276501D01*
X128113600Y-113130057D01*
X128113600Y-112980743D01*
X128084471Y-112834299D01*
X128027331Y-112696352D01*
X127944377Y-112572203D01*
X127838797Y-112466623D01*
X127832697Y-112462547D01*
X127856597Y-112446577D01*
X127962177Y-112340997D01*
X128045131Y-112216848D01*
X128102271Y-112078901D01*
X128131400Y-111932457D01*
X128131400Y-111783143D01*
X128128985Y-111771001D01*
X130482433Y-111771001D01*
X130482433Y-111915389D01*
X130510601Y-112057003D01*
X130565857Y-112190401D01*
X130646074Y-112310455D01*
X130748173Y-112412554D01*
X130868227Y-112492771D01*
X131001625Y-112548027D01*
X131143239Y-112576195D01*
X131287627Y-112576195D01*
X131429241Y-112548027D01*
X131562639Y-112492771D01*
X131682693Y-112412554D01*
X131784792Y-112310455D01*
X131865009Y-112190401D01*
X131920265Y-112057003D01*
X131948433Y-111915389D01*
X131948433Y-111883143D01*
X133415400Y-111883143D01*
X133415400Y-112032457D01*
X133444529Y-112178901D01*
X133501669Y-112316848D01*
X133529032Y-112357800D01*
X133501669Y-112398752D01*
X133444529Y-112536699D01*
X133415400Y-112683143D01*
X133415400Y-112832457D01*
X133444529Y-112978901D01*
X133501669Y-113116848D01*
X133584623Y-113240997D01*
X133690203Y-113346577D01*
X133814352Y-113429531D01*
X133952299Y-113486671D01*
X134098743Y-113515800D01*
X134248057Y-113515800D01*
X134394501Y-113486671D01*
X134532448Y-113429531D01*
X134656597Y-113346577D01*
X134762177Y-113240997D01*
X134845131Y-113116848D01*
X134902271Y-112978901D01*
X134931400Y-112832457D01*
X134931400Y-112702405D01*
X134998743Y-112715800D01*
X135148057Y-112715800D01*
X135215400Y-112702405D01*
X135215400Y-112832457D01*
X135244529Y-112978901D01*
X135301669Y-113116848D01*
X135384623Y-113240997D01*
X135490203Y-113346577D01*
X135614352Y-113429531D01*
X135752299Y-113486671D01*
X135898743Y-113515800D01*
X136048057Y-113515800D01*
X136194501Y-113486671D01*
X136332448Y-113429531D01*
X136456597Y-113346577D01*
X136473400Y-113329774D01*
X136490203Y-113346577D01*
X136614352Y-113429531D01*
X136752299Y-113486671D01*
X136898743Y-113515800D01*
X137048057Y-113515800D01*
X137194501Y-113486671D01*
X137332448Y-113429531D01*
X137456597Y-113346577D01*
X137562177Y-113240997D01*
X137645131Y-113116848D01*
X137702271Y-112978901D01*
X137731400Y-112832457D01*
X137731400Y-112683143D01*
X137702271Y-112536699D01*
X137686914Y-112499624D01*
X145854441Y-112499624D01*
X145854441Y-112644012D01*
X145882609Y-112785626D01*
X145937865Y-112919024D01*
X146018082Y-113039078D01*
X146120181Y-113141177D01*
X146240235Y-113221394D01*
X146373633Y-113276650D01*
X146466267Y-113295075D01*
X146508914Y-113398034D01*
X146589131Y-113518088D01*
X146691230Y-113620187D01*
X146811284Y-113700404D01*
X146944682Y-113755660D01*
X147086296Y-113783828D01*
X147230684Y-113783828D01*
X147372298Y-113755660D01*
X147505696Y-113700404D01*
X147625750Y-113620187D01*
X147727849Y-113518088D01*
X147808066Y-113398034D01*
X147863322Y-113264636D01*
X147891490Y-113123022D01*
X147891490Y-112978634D01*
X147863322Y-112837020D01*
X147808066Y-112703622D01*
X147727849Y-112583568D01*
X147625750Y-112481469D01*
X147505696Y-112401252D01*
X147372298Y-112345996D01*
X147279664Y-112327571D01*
X147237017Y-112224612D01*
X147156800Y-112104558D01*
X147054701Y-112002459D01*
X146934647Y-111922242D01*
X146801249Y-111866986D01*
X146659635Y-111838818D01*
X146515247Y-111838818D01*
X146373633Y-111866986D01*
X146240235Y-111922242D01*
X146120181Y-112002459D01*
X146018082Y-112104558D01*
X145937865Y-112224612D01*
X145882609Y-112358010D01*
X145854441Y-112499624D01*
X137686914Y-112499624D01*
X137645131Y-112398752D01*
X137562177Y-112274603D01*
X137561447Y-112273873D01*
X137568243Y-112257465D01*
X137597372Y-112111021D01*
X137597372Y-111961707D01*
X137568243Y-111815263D01*
X137511103Y-111677316D01*
X137428149Y-111553167D01*
X137322569Y-111447587D01*
X137260245Y-111405943D01*
X139754800Y-111405943D01*
X139754800Y-111555257D01*
X139783929Y-111701701D01*
X139841069Y-111839648D01*
X139924023Y-111963797D01*
X140029603Y-112069377D01*
X140153752Y-112152331D01*
X140291699Y-112209471D01*
X140438143Y-112238600D01*
X140587457Y-112238600D01*
X140733901Y-112209471D01*
X140871848Y-112152331D01*
X140995997Y-112069377D01*
X141101577Y-111963797D01*
X141184531Y-111839648D01*
X141241671Y-111701701D01*
X141270800Y-111555257D01*
X141270800Y-111405943D01*
X141241671Y-111259499D01*
X141184531Y-111121552D01*
X141101577Y-110997403D01*
X140995997Y-110891823D01*
X140871848Y-110808869D01*
X140733901Y-110751729D01*
X140587457Y-110722600D01*
X140438143Y-110722600D01*
X140291699Y-110751729D01*
X140153752Y-110808869D01*
X140029603Y-110891823D01*
X139924023Y-110997403D01*
X139841069Y-111121552D01*
X139783929Y-111259499D01*
X139754800Y-111405943D01*
X137260245Y-111405943D01*
X137198420Y-111364633D01*
X137060473Y-111307493D01*
X136914029Y-111278364D01*
X136764715Y-111278364D01*
X136618271Y-111307493D01*
X136480324Y-111364633D01*
X136463469Y-111375895D01*
X136456597Y-111369023D01*
X136332448Y-111286069D01*
X136194501Y-111228929D01*
X136048057Y-111199800D01*
X135898743Y-111199800D01*
X135752299Y-111228929D01*
X135614352Y-111286069D01*
X135523400Y-111346841D01*
X135432448Y-111286069D01*
X135294501Y-111228929D01*
X135148057Y-111199800D01*
X134998743Y-111199800D01*
X134852299Y-111228929D01*
X134714352Y-111286069D01*
X134623400Y-111346841D01*
X134532448Y-111286069D01*
X134394501Y-111228929D01*
X134248057Y-111199800D01*
X134098743Y-111199800D01*
X133952299Y-111228929D01*
X133814352Y-111286069D01*
X133690203Y-111369023D01*
X133584623Y-111474603D01*
X133501669Y-111598752D01*
X133444529Y-111736699D01*
X133415400Y-111883143D01*
X131948433Y-111883143D01*
X131948433Y-111771001D01*
X131920265Y-111629387D01*
X131865009Y-111495989D01*
X131784792Y-111375935D01*
X131682693Y-111273836D01*
X131562639Y-111193619D01*
X131429241Y-111138363D01*
X131287627Y-111110195D01*
X131143239Y-111110195D01*
X131001625Y-111138363D01*
X130868227Y-111193619D01*
X130748173Y-111273836D01*
X130646074Y-111375935D01*
X130565857Y-111495989D01*
X130510601Y-111629387D01*
X130482433Y-111771001D01*
X128128985Y-111771001D01*
X128102271Y-111636699D01*
X128045131Y-111498752D01*
X127962177Y-111374603D01*
X127856597Y-111269023D01*
X127732448Y-111186069D01*
X127594501Y-111128929D01*
X127448057Y-111099800D01*
X127298743Y-111099800D01*
X127152299Y-111128929D01*
X127014352Y-111186069D01*
X126890203Y-111269023D01*
X126784623Y-111374603D01*
X126701669Y-111498752D01*
X126644529Y-111636699D01*
X126615400Y-111783143D01*
X126615400Y-111932457D01*
X126644529Y-112078901D01*
X126701669Y-112216848D01*
X126784623Y-112340997D01*
X126890203Y-112446577D01*
X126896303Y-112450653D01*
X126872403Y-112466623D01*
X126766823Y-112572203D01*
X126683869Y-112696352D01*
X126626729Y-112834299D01*
X126597600Y-112980743D01*
X123942470Y-112980743D01*
X123815352Y-112351691D01*
X123810989Y-110316338D01*
X131919789Y-110316338D01*
X131919789Y-110460726D01*
X131947957Y-110602340D01*
X132003213Y-110735738D01*
X132083430Y-110855792D01*
X132185529Y-110957891D01*
X132305583Y-111038108D01*
X132438981Y-111093364D01*
X132580595Y-111121532D01*
X132724983Y-111121532D01*
X132866597Y-111093364D01*
X132999995Y-111038108D01*
X133120049Y-110957891D01*
X133222148Y-110855792D01*
X133302365Y-110735738D01*
X133312766Y-110710629D01*
X133332907Y-110706623D01*
X133466305Y-110651367D01*
X133586359Y-110571150D01*
X133688458Y-110469051D01*
X133768675Y-110348997D01*
X133823931Y-110215599D01*
X133852099Y-110073985D01*
X133852099Y-109929597D01*
X133829975Y-109818366D01*
X134798860Y-109818366D01*
X134798860Y-109962754D01*
X134827028Y-110104368D01*
X134882284Y-110237766D01*
X134962501Y-110357820D01*
X135064600Y-110459919D01*
X135184654Y-110540136D01*
X135318052Y-110595392D01*
X135459666Y-110623560D01*
X135604054Y-110623560D01*
X135745668Y-110595392D01*
X135879066Y-110540136D01*
X135999120Y-110459919D01*
X136101219Y-110357820D01*
X136181436Y-110237766D01*
X136227848Y-110125720D01*
X136236514Y-110125720D01*
X136378128Y-110097552D01*
X136511526Y-110042296D01*
X136631580Y-109962079D01*
X136733679Y-109859980D01*
X136813896Y-109739926D01*
X136869152Y-109606528D01*
X136897320Y-109464914D01*
X136897320Y-109320526D01*
X136885700Y-109262106D01*
X144151140Y-109262106D01*
X144151140Y-109406494D01*
X144179308Y-109548108D01*
X144234564Y-109681506D01*
X144314781Y-109801560D01*
X144416880Y-109903659D01*
X144536934Y-109983876D01*
X144670332Y-110039132D01*
X144811946Y-110067300D01*
X144956334Y-110067300D01*
X145097948Y-110039132D01*
X145231346Y-109983876D01*
X145295840Y-109940783D01*
X145341486Y-109986429D01*
X145461540Y-110066646D01*
X145594938Y-110121902D01*
X145736552Y-110150070D01*
X145880940Y-110150070D01*
X146022554Y-110121902D01*
X146155952Y-110066646D01*
X146170084Y-110057203D01*
X152919620Y-110057203D01*
X152919620Y-110206517D01*
X152948749Y-110352961D01*
X153005889Y-110490908D01*
X153088843Y-110615057D01*
X153194423Y-110720637D01*
X153318572Y-110803591D01*
X153456519Y-110860731D01*
X153602963Y-110889860D01*
X153752277Y-110889860D01*
X153898721Y-110860731D01*
X154036668Y-110803591D01*
X154160817Y-110720637D01*
X154174028Y-110707426D01*
X154268532Y-110770571D01*
X154406479Y-110827711D01*
X154552923Y-110856840D01*
X154702237Y-110856840D01*
X154848681Y-110827711D01*
X154986628Y-110770571D01*
X155110777Y-110687617D01*
X155216357Y-110582037D01*
X155299311Y-110457888D01*
X155356451Y-110319941D01*
X155385580Y-110173497D01*
X155385580Y-110024183D01*
X155356451Y-109877739D01*
X155299311Y-109739792D01*
X155216357Y-109615643D01*
X155110777Y-109510063D01*
X154986628Y-109427109D01*
X154848681Y-109369969D01*
X154702237Y-109340840D01*
X154552923Y-109340840D01*
X154406479Y-109369969D01*
X154268532Y-109427109D01*
X154144383Y-109510063D01*
X154131172Y-109523274D01*
X154036668Y-109460129D01*
X153898721Y-109402989D01*
X153752277Y-109373860D01*
X153602963Y-109373860D01*
X153456519Y-109402989D01*
X153318572Y-109460129D01*
X153194423Y-109543083D01*
X153088843Y-109648663D01*
X153005889Y-109772812D01*
X152948749Y-109910759D01*
X152919620Y-110057203D01*
X146170084Y-110057203D01*
X146276006Y-109986429D01*
X146378105Y-109884330D01*
X146458322Y-109764276D01*
X146513578Y-109630878D01*
X146541746Y-109489264D01*
X146541746Y-109344876D01*
X146513578Y-109203262D01*
X146458322Y-109069864D01*
X146378105Y-108949810D01*
X146276006Y-108847711D01*
X146175446Y-108780520D01*
X146251956Y-108729398D01*
X146354055Y-108627299D01*
X146412525Y-108539791D01*
X146462311Y-108589577D01*
X146586460Y-108672531D01*
X146724407Y-108729671D01*
X146870851Y-108758800D01*
X147020165Y-108758800D01*
X147166609Y-108729671D01*
X147304556Y-108672531D01*
X147428705Y-108589577D01*
X147534285Y-108483997D01*
X147617239Y-108359848D01*
X147674379Y-108221901D01*
X147703508Y-108075457D01*
X147703508Y-107926143D01*
X147674379Y-107779699D01*
X147617239Y-107641752D01*
X147534285Y-107517603D01*
X147428705Y-107412023D01*
X147304556Y-107329069D01*
X147166609Y-107271929D01*
X147020165Y-107242800D01*
X146870851Y-107242800D01*
X146724407Y-107271929D01*
X146586460Y-107329069D01*
X146462311Y-107412023D01*
X146356731Y-107517603D01*
X146285493Y-107624217D01*
X146251956Y-107590680D01*
X146131902Y-107510463D01*
X145998504Y-107455207D01*
X145856890Y-107427039D01*
X145712502Y-107427039D01*
X145570888Y-107455207D01*
X145437490Y-107510463D01*
X145317436Y-107590680D01*
X145215337Y-107692779D01*
X145135120Y-107812833D01*
X145079864Y-107946231D01*
X145051696Y-108087845D01*
X145051696Y-108232233D01*
X145079864Y-108373847D01*
X145135120Y-108507245D01*
X145215337Y-108627299D01*
X145317436Y-108729398D01*
X145417996Y-108796589D01*
X145397046Y-108810587D01*
X145351400Y-108764941D01*
X145231346Y-108684724D01*
X145097948Y-108629468D01*
X144956334Y-108601300D01*
X144811946Y-108601300D01*
X144670332Y-108629468D01*
X144536934Y-108684724D01*
X144416880Y-108764941D01*
X144314781Y-108867040D01*
X144234564Y-108987094D01*
X144179308Y-109120492D01*
X144151140Y-109262106D01*
X136885700Y-109262106D01*
X136869152Y-109178912D01*
X136813896Y-109045514D01*
X136733679Y-108925460D01*
X136631580Y-108823361D01*
X136511526Y-108743144D01*
X136378128Y-108687888D01*
X136236514Y-108659720D01*
X136092126Y-108659720D01*
X135950512Y-108687888D01*
X135817114Y-108743144D01*
X135697060Y-108823361D01*
X135594961Y-108925460D01*
X135514744Y-109045514D01*
X135468332Y-109157560D01*
X135459666Y-109157560D01*
X135318052Y-109185728D01*
X135184654Y-109240984D01*
X135064600Y-109321201D01*
X134962501Y-109423300D01*
X134882284Y-109543354D01*
X134827028Y-109676752D01*
X134798860Y-109818366D01*
X133829975Y-109818366D01*
X133823931Y-109787983D01*
X133768675Y-109654585D01*
X133688458Y-109534531D01*
X133586359Y-109432432D01*
X133466305Y-109352215D01*
X133332907Y-109296959D01*
X133191293Y-109268791D01*
X133046905Y-109268791D01*
X132905291Y-109296959D01*
X132771893Y-109352215D01*
X132651839Y-109432432D01*
X132549740Y-109534531D01*
X132469523Y-109654585D01*
X132459122Y-109679694D01*
X132438981Y-109683700D01*
X132305583Y-109738956D01*
X132185529Y-109819173D01*
X132083430Y-109921272D01*
X132003213Y-110041326D01*
X131947957Y-110174724D01*
X131919789Y-110316338D01*
X123810989Y-110316338D01*
X123804601Y-107336400D01*
X123937757Y-107336400D01*
X124084201Y-107307271D01*
X124222148Y-107250131D01*
X124336036Y-107174033D01*
X124446934Y-107248133D01*
X124584881Y-107305273D01*
X124731325Y-107334402D01*
X124880639Y-107334402D01*
X125027083Y-107305273D01*
X125165030Y-107248133D01*
X125289179Y-107165179D01*
X125394759Y-107059599D01*
X125477713Y-106935450D01*
X125534853Y-106797503D01*
X125563982Y-106651059D01*
X125563982Y-106501745D01*
X125534853Y-106355301D01*
X125477713Y-106217354D01*
X125394759Y-106093205D01*
X125289179Y-105987625D01*
X125267117Y-105972883D01*
X125728920Y-105972883D01*
X125728920Y-106122197D01*
X125758049Y-106268641D01*
X125815189Y-106406588D01*
X125890950Y-106519971D01*
X125820269Y-106625752D01*
X125763129Y-106763699D01*
X125734000Y-106910143D01*
X125734000Y-107059457D01*
X125763129Y-107205901D01*
X125820269Y-107343848D01*
X125903223Y-107467997D01*
X126008803Y-107573577D01*
X126132952Y-107656531D01*
X126270899Y-107713671D01*
X126417343Y-107742800D01*
X126566657Y-107742800D01*
X126713101Y-107713671D01*
X126851048Y-107656531D01*
X126975197Y-107573577D01*
X127080777Y-107467997D01*
X127163731Y-107343848D01*
X127220871Y-107205901D01*
X127250000Y-107059457D01*
X127250000Y-106910143D01*
X127220871Y-106763699D01*
X127206665Y-106729401D01*
X129940783Y-106729401D01*
X129940783Y-106873789D01*
X129968951Y-107015403D01*
X130024207Y-107148801D01*
X130104424Y-107268855D01*
X130206523Y-107370954D01*
X130326577Y-107451171D01*
X130459975Y-107506427D01*
X130601589Y-107534595D01*
X130745977Y-107534595D01*
X130887591Y-107506427D01*
X131020989Y-107451171D01*
X131028453Y-107446184D01*
X131110273Y-107568635D01*
X131215853Y-107674215D01*
X131340002Y-107757169D01*
X131477949Y-107814309D01*
X131624393Y-107843438D01*
X131773707Y-107843438D01*
X131920151Y-107814309D01*
X132058098Y-107757169D01*
X132182247Y-107674215D01*
X132287827Y-107568635D01*
X132370781Y-107444486D01*
X132427921Y-107306539D01*
X132457050Y-107160095D01*
X132457050Y-107010781D01*
X132427921Y-106864337D01*
X132370781Y-106726390D01*
X132287827Y-106602241D01*
X132182247Y-106496661D01*
X132058098Y-106413707D01*
X131920151Y-106356567D01*
X131773707Y-106327438D01*
X131624393Y-106327438D01*
X131477949Y-106356567D01*
X131340002Y-106413707D01*
X131309703Y-106433952D01*
X131243142Y-106334335D01*
X131141043Y-106232236D01*
X131020989Y-106152019D01*
X130887591Y-106096763D01*
X130745977Y-106068595D01*
X130601589Y-106068595D01*
X130459975Y-106096763D01*
X130326577Y-106152019D01*
X130206523Y-106232236D01*
X130104424Y-106334335D01*
X130024207Y-106454389D01*
X129968951Y-106587787D01*
X129940783Y-106729401D01*
X127206665Y-106729401D01*
X127163731Y-106625752D01*
X127087970Y-106512369D01*
X127158651Y-106406588D01*
X127215791Y-106268641D01*
X127244920Y-106122197D01*
X127244920Y-105972883D01*
X127215791Y-105826439D01*
X127158651Y-105688492D01*
X127075697Y-105564343D01*
X126970117Y-105458763D01*
X126845968Y-105375809D01*
X126708021Y-105318669D01*
X126561577Y-105289540D01*
X126412263Y-105289540D01*
X126265819Y-105318669D01*
X126127872Y-105375809D01*
X126003723Y-105458763D01*
X125898143Y-105564343D01*
X125815189Y-105688492D01*
X125758049Y-105826439D01*
X125728920Y-105972883D01*
X125267117Y-105972883D01*
X125165030Y-105904671D01*
X125027083Y-105847531D01*
X124880639Y-105818402D01*
X124731325Y-105818402D01*
X124584881Y-105847531D01*
X124446934Y-105904671D01*
X124333046Y-105980769D01*
X124222148Y-105906669D01*
X124084201Y-105849529D01*
X123937757Y-105820400D01*
X123801352Y-105820400D01*
X123795124Y-102914723D01*
X129820860Y-102914723D01*
X129820860Y-103064037D01*
X129849989Y-103210481D01*
X129907129Y-103348428D01*
X129990083Y-103472577D01*
X130095663Y-103578157D01*
X130219812Y-103661111D01*
X130357759Y-103718251D01*
X130504203Y-103747380D01*
X130653517Y-103747380D01*
X130799961Y-103718251D01*
X130937908Y-103661111D01*
X131062057Y-103578157D01*
X131167637Y-103472577D01*
X131250591Y-103348428D01*
X131270918Y-103299353D01*
X135737610Y-103299353D01*
X135737610Y-103448667D01*
X135766739Y-103595111D01*
X135823879Y-103733058D01*
X135906833Y-103857207D01*
X136012413Y-103962787D01*
X136136562Y-104045741D01*
X136274509Y-104102881D01*
X136420953Y-104132010D01*
X136570267Y-104132010D01*
X136716711Y-104102881D01*
X136854658Y-104045741D01*
X136978807Y-103962787D01*
X137084387Y-103857207D01*
X137167341Y-103733058D01*
X137224481Y-103595111D01*
X137253610Y-103448667D01*
X137253610Y-103299353D01*
X137244142Y-103251753D01*
X138705839Y-103251753D01*
X138705839Y-103401067D01*
X138734968Y-103547511D01*
X138792108Y-103685458D01*
X138875062Y-103809607D01*
X138980642Y-103915187D01*
X139068583Y-103973948D01*
X139092332Y-104093342D01*
X139149472Y-104231289D01*
X139232426Y-104355438D01*
X139338006Y-104461018D01*
X139462155Y-104543972D01*
X139600102Y-104601112D01*
X139746546Y-104630241D01*
X139895860Y-104630241D01*
X140042304Y-104601112D01*
X140180251Y-104543972D01*
X140304400Y-104461018D01*
X140409980Y-104355438D01*
X140492934Y-104231289D01*
X140550074Y-104093342D01*
X140577038Y-103957781D01*
X140622207Y-104025380D01*
X140727787Y-104130960D01*
X140732364Y-104134018D01*
X140704329Y-104201699D01*
X140675200Y-104348143D01*
X140675200Y-104497457D01*
X140703245Y-104638451D01*
X140599483Y-104707783D01*
X140493903Y-104813363D01*
X140410949Y-104937512D01*
X140353809Y-105075459D01*
X140324680Y-105221903D01*
X140324680Y-105371217D01*
X140353809Y-105517661D01*
X140410949Y-105655608D01*
X140493903Y-105779757D01*
X140599483Y-105885337D01*
X140723632Y-105968291D01*
X140861579Y-106025431D01*
X141008023Y-106054560D01*
X141157337Y-106054560D01*
X141303781Y-106025431D01*
X141441728Y-105968291D01*
X141565877Y-105885337D01*
X141671457Y-105779757D01*
X141754411Y-105655608D01*
X141811551Y-105517661D01*
X141840680Y-105371217D01*
X141840680Y-105221903D01*
X141817774Y-105106743D01*
X148485870Y-105106743D01*
X148485870Y-105256057D01*
X148514999Y-105402501D01*
X148572139Y-105540448D01*
X148655093Y-105664597D01*
X148760673Y-105770177D01*
X148884822Y-105853131D01*
X149022769Y-105910271D01*
X149169213Y-105939400D01*
X149318527Y-105939400D01*
X149464971Y-105910271D01*
X149602918Y-105853131D01*
X149727067Y-105770177D01*
X149793235Y-105704009D01*
X149834003Y-105744777D01*
X149958152Y-105827731D01*
X150096099Y-105884871D01*
X150242543Y-105914000D01*
X150391857Y-105914000D01*
X150538301Y-105884871D01*
X150676248Y-105827731D01*
X150800397Y-105744777D01*
X150905977Y-105639197D01*
X150988931Y-105515048D01*
X151046071Y-105377101D01*
X151075200Y-105230657D01*
X151075200Y-105081343D01*
X151046071Y-104934899D01*
X150988931Y-104796952D01*
X150905977Y-104672803D01*
X150800397Y-104567223D01*
X150676248Y-104484269D01*
X150546983Y-104430725D01*
X152157998Y-104430725D01*
X152157998Y-104580039D01*
X152187127Y-104726483D01*
X152244267Y-104864430D01*
X152327221Y-104988579D01*
X152432801Y-105094159D01*
X152556950Y-105177113D01*
X152694897Y-105234253D01*
X152841341Y-105263382D01*
X152990655Y-105263382D01*
X153137099Y-105234253D01*
X153275046Y-105177113D01*
X153399195Y-105094159D01*
X153504775Y-104988579D01*
X153587729Y-104864430D01*
X153644869Y-104726483D01*
X153673998Y-104580039D01*
X153673998Y-104430725D01*
X153644869Y-104284281D01*
X153587729Y-104146334D01*
X153580191Y-104135053D01*
X153605131Y-104097728D01*
X153662271Y-103959781D01*
X153691400Y-103813337D01*
X153691400Y-103664023D01*
X153662271Y-103517579D01*
X153605131Y-103379632D01*
X153522177Y-103255483D01*
X153416597Y-103149903D01*
X153292448Y-103066949D01*
X153154501Y-103009809D01*
X153008057Y-102980680D01*
X152858743Y-102980680D01*
X152712299Y-103009809D01*
X152574352Y-103066949D01*
X152450203Y-103149903D01*
X152344623Y-103255483D01*
X152261669Y-103379632D01*
X152204529Y-103517579D01*
X152175400Y-103664023D01*
X152175400Y-103813337D01*
X152204529Y-103959781D01*
X152261669Y-104097728D01*
X152269207Y-104109009D01*
X152244267Y-104146334D01*
X152187127Y-104284281D01*
X152157998Y-104430725D01*
X150546983Y-104430725D01*
X150538301Y-104427129D01*
X150391857Y-104398000D01*
X150242543Y-104398000D01*
X150096099Y-104427129D01*
X149958152Y-104484269D01*
X149834003Y-104567223D01*
X149767835Y-104633391D01*
X149727067Y-104592623D01*
X149602918Y-104509669D01*
X149464971Y-104452529D01*
X149318527Y-104423400D01*
X149169213Y-104423400D01*
X149022769Y-104452529D01*
X148884822Y-104509669D01*
X148760673Y-104592623D01*
X148655093Y-104698203D01*
X148572139Y-104822352D01*
X148514999Y-104960299D01*
X148485870Y-105106743D01*
X141817774Y-105106743D01*
X141812635Y-105080909D01*
X141916397Y-105011577D01*
X142021977Y-104905997D01*
X142080966Y-104817715D01*
X142165343Y-104834498D01*
X142314657Y-104834498D01*
X142461101Y-104805369D01*
X142599048Y-104748229D01*
X142723197Y-104665275D01*
X142828777Y-104559695D01*
X142911731Y-104435546D01*
X142947735Y-104348625D01*
X142993209Y-104458408D01*
X143076163Y-104582557D01*
X143181743Y-104688137D01*
X143305892Y-104771091D01*
X143443839Y-104828231D01*
X143590283Y-104857360D01*
X143739597Y-104857360D01*
X143886041Y-104828231D01*
X144023988Y-104771091D01*
X144148137Y-104688137D01*
X144253717Y-104582557D01*
X144336671Y-104458408D01*
X144393811Y-104320461D01*
X144416228Y-104207763D01*
X144524259Y-104252511D01*
X144670703Y-104281640D01*
X144820017Y-104281640D01*
X144966461Y-104252511D01*
X145104408Y-104195371D01*
X145140320Y-104171375D01*
X145168630Y-104190291D01*
X145306577Y-104247431D01*
X145453021Y-104276560D01*
X145602335Y-104276560D01*
X145748779Y-104247431D01*
X145886726Y-104190291D01*
X146010875Y-104107337D01*
X146116455Y-104001757D01*
X146199409Y-103877608D01*
X146256549Y-103739661D01*
X146277030Y-103636694D01*
X146383648Y-103592531D01*
X146507797Y-103509577D01*
X146613377Y-103403997D01*
X146696331Y-103279848D01*
X146753471Y-103141901D01*
X146782600Y-102995457D01*
X146782600Y-102846143D01*
X146753471Y-102699699D01*
X146696331Y-102561752D01*
X146613377Y-102437603D01*
X146507797Y-102332023D01*
X146383648Y-102249069D01*
X146245701Y-102191929D01*
X146099257Y-102162800D01*
X145949943Y-102162800D01*
X145803499Y-102191929D01*
X145665552Y-102249069D01*
X145541403Y-102332023D01*
X145435823Y-102437603D01*
X145352869Y-102561752D01*
X145295729Y-102699699D01*
X145275248Y-102802666D01*
X145168630Y-102846829D01*
X145132718Y-102870825D01*
X145104408Y-102851909D01*
X144966461Y-102794769D01*
X144820017Y-102765640D01*
X144670703Y-102765640D01*
X144524259Y-102794769D01*
X144386312Y-102851909D01*
X144262163Y-102934863D01*
X144156583Y-103040443D01*
X144073629Y-103164592D01*
X144016489Y-103302539D01*
X143994072Y-103415237D01*
X143886041Y-103370489D01*
X143739597Y-103341360D01*
X143590283Y-103341360D01*
X143443839Y-103370489D01*
X143305892Y-103427629D01*
X143181743Y-103510583D01*
X143076163Y-103616163D01*
X142993209Y-103740312D01*
X142957205Y-103827233D01*
X142911731Y-103717450D01*
X142828777Y-103593301D01*
X142723197Y-103487721D01*
X142599048Y-103404767D01*
X142461101Y-103347627D01*
X142314657Y-103318498D01*
X142165343Y-103318498D01*
X142018899Y-103347627D01*
X141950750Y-103375856D01*
X141939855Y-103321082D01*
X141882715Y-103183135D01*
X141799761Y-103058986D01*
X141694181Y-102953406D01*
X141570032Y-102870452D01*
X141432085Y-102813312D01*
X141285641Y-102784183D01*
X141136327Y-102784183D01*
X140989883Y-102813312D01*
X140851936Y-102870452D01*
X140727787Y-102953406D01*
X140622207Y-103058986D01*
X140539253Y-103183135D01*
X140482113Y-103321082D01*
X140455149Y-103456643D01*
X140409980Y-103389044D01*
X140304400Y-103283464D01*
X140216459Y-103224703D01*
X140192710Y-103105309D01*
X140135570Y-102967362D01*
X140052616Y-102843213D01*
X139947036Y-102737633D01*
X139822887Y-102654679D01*
X139684940Y-102597539D01*
X139538496Y-102568410D01*
X139389182Y-102568410D01*
X139242738Y-102597539D01*
X139104791Y-102654679D01*
X138980642Y-102737633D01*
X138875062Y-102843213D01*
X138792108Y-102967362D01*
X138734968Y-103105309D01*
X138705839Y-103251753D01*
X137244142Y-103251753D01*
X137224481Y-103152909D01*
X137167341Y-103014962D01*
X137084387Y-102890813D01*
X136978807Y-102785233D01*
X136854658Y-102702279D01*
X136716711Y-102645139D01*
X136570267Y-102616010D01*
X136420953Y-102616010D01*
X136274509Y-102645139D01*
X136136562Y-102702279D01*
X136012413Y-102785233D01*
X135906833Y-102890813D01*
X135823879Y-103014962D01*
X135766739Y-103152909D01*
X135737610Y-103299353D01*
X131270918Y-103299353D01*
X131307731Y-103210481D01*
X131336860Y-103064037D01*
X131336860Y-102914723D01*
X131307731Y-102768279D01*
X131250591Y-102630332D01*
X131167637Y-102506183D01*
X131062057Y-102400603D01*
X130937908Y-102317649D01*
X130799961Y-102260509D01*
X130653517Y-102231380D01*
X130504203Y-102231380D01*
X130357759Y-102260509D01*
X130219812Y-102317649D01*
X130095663Y-102400603D01*
X129990083Y-102506183D01*
X129907129Y-102630332D01*
X129849989Y-102768279D01*
X129820860Y-102914723D01*
X123795124Y-102914723D01*
X123794841Y-102783000D01*
X124526175Y-102783000D01*
X124548786Y-102780773D01*
X124551797Y-102780794D01*
X124559204Y-102780068D01*
X124656252Y-102769868D01*
X124703513Y-102760167D01*
X124751026Y-102751103D01*
X124758151Y-102748952D01*
X124851370Y-102720096D01*
X124895915Y-102701371D01*
X124940697Y-102683277D01*
X124947261Y-102679787D01*
X124947265Y-102679785D01*
X124947268Y-102679783D01*
X125033106Y-102633371D01*
X125073165Y-102606350D01*
X125113576Y-102579906D01*
X125119344Y-102575202D01*
X125194533Y-102513000D01*
X125228568Y-102478727D01*
X125263084Y-102444926D01*
X125267828Y-102439192D01*
X125329504Y-102363571D01*
X125356232Y-102323343D01*
X125383534Y-102283468D01*
X125387073Y-102276922D01*
X125432885Y-102190761D01*
X125433938Y-102188206D01*
X134268000Y-102188206D01*
X134268000Y-102332594D01*
X134296168Y-102474208D01*
X134351424Y-102607606D01*
X134431641Y-102727660D01*
X134533740Y-102829759D01*
X134653794Y-102909976D01*
X134787192Y-102965232D01*
X134928806Y-102993400D01*
X135073194Y-102993400D01*
X135214808Y-102965232D01*
X135348206Y-102909976D01*
X135468260Y-102829759D01*
X135570359Y-102727660D01*
X135650576Y-102607606D01*
X135705832Y-102474208D01*
X135734000Y-102332594D01*
X135734000Y-102188206D01*
X135705832Y-102046592D01*
X135650576Y-101913194D01*
X135570359Y-101793140D01*
X135468260Y-101691041D01*
X135348206Y-101610824D01*
X135214808Y-101555568D01*
X135073194Y-101527400D01*
X134928806Y-101527400D01*
X134787192Y-101555568D01*
X134653794Y-101610824D01*
X134533740Y-101691041D01*
X134431641Y-101793140D01*
X134351424Y-101913194D01*
X134296168Y-102046592D01*
X134268000Y-102188206D01*
X125433938Y-102188206D01*
X125451278Y-102146136D01*
X125470323Y-102101700D01*
X125472524Y-102094591D01*
X125500729Y-102001173D01*
X125510114Y-101953773D01*
X125520156Y-101906528D01*
X125520933Y-101899137D01*
X125520934Y-101899131D01*
X125520934Y-101899126D01*
X125530456Y-101802009D01*
X125530456Y-101802004D01*
X125533000Y-101776174D01*
X125533000Y-101331840D01*
X125606537Y-101331840D01*
X125752981Y-101302711D01*
X125890928Y-101245571D01*
X126015077Y-101162617D01*
X126120657Y-101057037D01*
X126203611Y-100932888D01*
X126260751Y-100794941D01*
X126289880Y-100648497D01*
X126289880Y-100499183D01*
X126283465Y-100466932D01*
X126376792Y-100529291D01*
X126514739Y-100586431D01*
X126661183Y-100615560D01*
X126800297Y-100615560D01*
X126800297Y-100727217D01*
X126828465Y-100868831D01*
X126883721Y-101002229D01*
X126963938Y-101122283D01*
X127066037Y-101224382D01*
X127186091Y-101304599D01*
X127319489Y-101359855D01*
X127461103Y-101388023D01*
X127605491Y-101388023D01*
X127747105Y-101359855D01*
X127880503Y-101304599D01*
X128000557Y-101224382D01*
X128054510Y-101170429D01*
X128167238Y-101170429D01*
X128308852Y-101142261D01*
X128328416Y-101134157D01*
X128347279Y-101146761D01*
X128480677Y-101202017D01*
X128622291Y-101230185D01*
X128766679Y-101230185D01*
X128908293Y-101202017D01*
X129041691Y-101146761D01*
X129161745Y-101066544D01*
X129263844Y-100964445D01*
X129344061Y-100844391D01*
X129399317Y-100710993D01*
X129419722Y-100608403D01*
X129737040Y-100608403D01*
X129737040Y-100757717D01*
X129766169Y-100904161D01*
X129823309Y-101042108D01*
X129906263Y-101166257D01*
X130011843Y-101271837D01*
X130135992Y-101354791D01*
X130273939Y-101411931D01*
X130420383Y-101441060D01*
X130569697Y-101441060D01*
X130716141Y-101411931D01*
X130854088Y-101354791D01*
X130978237Y-101271837D01*
X131083817Y-101166257D01*
X131166771Y-101042108D01*
X131223911Y-100904161D01*
X131253040Y-100757717D01*
X131253040Y-100608403D01*
X131223911Y-100461959D01*
X131166771Y-100324012D01*
X131083817Y-100199863D01*
X130978237Y-100094283D01*
X130854088Y-100011329D01*
X130716141Y-99954189D01*
X130569697Y-99925060D01*
X130420383Y-99925060D01*
X130273939Y-99954189D01*
X130135992Y-100011329D01*
X130011843Y-100094283D01*
X129906263Y-100199863D01*
X129823309Y-100324012D01*
X129766169Y-100461959D01*
X129737040Y-100608403D01*
X129419722Y-100608403D01*
X129427485Y-100569379D01*
X129427485Y-100424991D01*
X129399317Y-100283377D01*
X129344061Y-100149979D01*
X129263844Y-100029925D01*
X129161745Y-99927826D01*
X129041691Y-99847609D01*
X128908293Y-99792353D01*
X128766679Y-99764185D01*
X128622291Y-99764185D01*
X128480677Y-99792353D01*
X128461113Y-99800457D01*
X128442250Y-99787853D01*
X128308852Y-99732597D01*
X128167238Y-99704429D01*
X128022850Y-99704429D01*
X127881236Y-99732597D01*
X127747838Y-99787853D01*
X127627784Y-99868070D01*
X127573831Y-99922023D01*
X127493840Y-99922023D01*
X127493840Y-99782903D01*
X127464711Y-99636459D01*
X127437842Y-99571592D01*
X127469791Y-99494461D01*
X127498920Y-99348017D01*
X127498920Y-99198703D01*
X127469791Y-99052259D01*
X127412651Y-98914312D01*
X127329697Y-98790163D01*
X127224117Y-98684583D01*
X127099968Y-98601629D01*
X126962021Y-98544489D01*
X126815577Y-98515360D01*
X126666263Y-98515360D01*
X126519819Y-98544489D01*
X126381872Y-98601629D01*
X126257723Y-98684583D01*
X126152143Y-98790163D01*
X126069189Y-98914312D01*
X126012049Y-99052259D01*
X125982920Y-99198703D01*
X125982920Y-99348017D01*
X126012049Y-99494461D01*
X126038918Y-99559328D01*
X126006969Y-99636459D01*
X125977840Y-99782903D01*
X125977840Y-99932217D01*
X125984255Y-99964468D01*
X125890928Y-99902109D01*
X125752981Y-99844969D01*
X125606537Y-99815840D01*
X125457223Y-99815840D01*
X125437195Y-99819824D01*
X125430179Y-99802801D01*
X125426640Y-99796255D01*
X125379629Y-99710742D01*
X125352352Y-99670906D01*
X125325601Y-99630642D01*
X125320857Y-99624908D01*
X125258132Y-99550156D01*
X125223615Y-99516355D01*
X125189580Y-99482081D01*
X125183813Y-99477377D01*
X125107763Y-99416231D01*
X125067340Y-99389779D01*
X125027290Y-99362765D01*
X125020719Y-99359271D01*
X124968000Y-99331711D01*
X124968000Y-98918573D01*
X125033106Y-98883371D01*
X125073165Y-98856350D01*
X125113576Y-98829906D01*
X125119344Y-98825202D01*
X125194533Y-98763000D01*
X125228568Y-98728727D01*
X125263084Y-98694926D01*
X125267828Y-98689192D01*
X125329504Y-98613571D01*
X125356232Y-98573343D01*
X125383534Y-98533468D01*
X125387073Y-98526922D01*
X125432885Y-98440761D01*
X125451278Y-98396136D01*
X125470323Y-98351700D01*
X125472524Y-98344591D01*
X125500729Y-98251173D01*
X125510114Y-98203773D01*
X125520156Y-98156528D01*
X125520933Y-98149137D01*
X125520934Y-98149131D01*
X125520934Y-98149126D01*
X125530456Y-98052009D01*
X125530456Y-98052005D01*
X125533000Y-98026175D01*
X125533000Y-97578106D01*
X127564940Y-97578106D01*
X127564940Y-97722494D01*
X127593108Y-97864108D01*
X127648364Y-97997506D01*
X127728581Y-98117560D01*
X127830680Y-98219659D01*
X127950734Y-98299876D01*
X128084132Y-98355132D01*
X128225746Y-98383300D01*
X128370134Y-98383300D01*
X128511748Y-98355132D01*
X128645146Y-98299876D01*
X128753869Y-98227230D01*
X128753888Y-98227328D01*
X128809144Y-98360726D01*
X128889361Y-98480780D01*
X128964098Y-98555517D01*
X128898044Y-98654374D01*
X128842788Y-98787772D01*
X128814620Y-98929386D01*
X128814620Y-99073774D01*
X128842788Y-99215388D01*
X128898044Y-99348786D01*
X128978261Y-99468840D01*
X129080360Y-99570939D01*
X129200414Y-99651156D01*
X129333812Y-99706412D01*
X129475426Y-99734580D01*
X129619814Y-99734580D01*
X129761428Y-99706412D01*
X129894826Y-99651156D01*
X130014880Y-99570939D01*
X130116979Y-99468840D01*
X130197196Y-99348786D01*
X130252452Y-99215388D01*
X130280620Y-99073774D01*
X130280620Y-98929386D01*
X130252452Y-98787772D01*
X130197196Y-98654374D01*
X130116979Y-98534320D01*
X130042242Y-98459583D01*
X130108296Y-98360726D01*
X130163552Y-98227328D01*
X130191720Y-98085714D01*
X130191720Y-97941326D01*
X130163552Y-97799712D01*
X130108296Y-97666314D01*
X130028079Y-97546260D01*
X129925980Y-97444161D01*
X129805926Y-97363944D01*
X129672528Y-97308688D01*
X129530914Y-97280520D01*
X129386526Y-97280520D01*
X129244912Y-97308688D01*
X129111514Y-97363944D01*
X129002791Y-97436590D01*
X129002772Y-97436492D01*
X128947516Y-97303094D01*
X128867299Y-97183040D01*
X128765200Y-97080941D01*
X128745299Y-97067643D01*
X130620960Y-97067643D01*
X130620960Y-97216957D01*
X130650089Y-97363401D01*
X130707229Y-97501348D01*
X130790183Y-97625497D01*
X130895763Y-97731077D01*
X131019912Y-97814031D01*
X131022485Y-97815097D01*
X131043789Y-97922201D01*
X131100929Y-98060148D01*
X131183883Y-98184297D01*
X131289463Y-98289877D01*
X131413612Y-98372831D01*
X131551559Y-98429971D01*
X131698003Y-98459100D01*
X131847317Y-98459100D01*
X131993761Y-98429971D01*
X132131708Y-98372831D01*
X132222686Y-98312041D01*
X134005150Y-98312041D01*
X134005150Y-98461355D01*
X134034279Y-98607799D01*
X134091419Y-98745746D01*
X134174373Y-98869895D01*
X134279953Y-98975475D01*
X134404102Y-99058429D01*
X134542049Y-99115569D01*
X134688493Y-99144698D01*
X134749373Y-99144698D01*
X134729087Y-99246684D01*
X134729087Y-99391072D01*
X134757255Y-99532686D01*
X134793457Y-99620084D01*
X134757255Y-99707483D01*
X134729087Y-99849097D01*
X134729087Y-99993485D01*
X134757255Y-100135099D01*
X134812511Y-100268497D01*
X134892728Y-100388551D01*
X134994827Y-100490650D01*
X135114881Y-100570867D01*
X135248279Y-100626123D01*
X135389893Y-100654291D01*
X135534281Y-100654291D01*
X135675895Y-100626123D01*
X135809293Y-100570867D01*
X135929347Y-100490650D01*
X136031446Y-100388551D01*
X136111663Y-100268497D01*
X136166919Y-100135099D01*
X136195087Y-99993485D01*
X136195087Y-99849097D01*
X136166919Y-99707483D01*
X136164191Y-99700895D01*
X145553540Y-99700895D01*
X145553540Y-99845283D01*
X145581708Y-99986897D01*
X145636964Y-100120295D01*
X145717181Y-100240349D01*
X145819280Y-100342448D01*
X145835749Y-100353452D01*
X145785441Y-100403760D01*
X145705224Y-100523814D01*
X145649968Y-100657212D01*
X145621800Y-100798826D01*
X145621800Y-100943214D01*
X145649968Y-101084828D01*
X145705224Y-101218226D01*
X145785441Y-101338280D01*
X145887540Y-101440379D01*
X146007594Y-101520596D01*
X146140992Y-101575852D01*
X146282606Y-101604020D01*
X146426994Y-101604020D01*
X146568608Y-101575852D01*
X146702006Y-101520596D01*
X146822060Y-101440379D01*
X146924159Y-101338280D01*
X147004376Y-101218226D01*
X147059632Y-101084828D01*
X147087800Y-100943214D01*
X147087800Y-100833138D01*
X147161372Y-100759566D01*
X147241589Y-100639512D01*
X147296845Y-100506114D01*
X147325013Y-100364500D01*
X147325013Y-100220112D01*
X147296845Y-100078498D01*
X147241589Y-99945100D01*
X147161372Y-99825046D01*
X147059273Y-99722947D01*
X147018509Y-99695709D01*
X146991372Y-99559281D01*
X146936116Y-99425883D01*
X146855899Y-99305829D01*
X146753800Y-99203730D01*
X146633746Y-99123513D01*
X146500348Y-99068257D01*
X146358734Y-99040089D01*
X146214346Y-99040089D01*
X146072732Y-99068257D01*
X145939334Y-99123513D01*
X145819280Y-99203730D01*
X145717181Y-99305829D01*
X145636964Y-99425883D01*
X145581708Y-99559281D01*
X145553540Y-99700895D01*
X136164191Y-99700895D01*
X136130717Y-99620084D01*
X136166919Y-99532686D01*
X136195087Y-99391072D01*
X136195087Y-99246684D01*
X136166919Y-99105070D01*
X136111663Y-98971672D01*
X136031446Y-98851618D01*
X135929347Y-98749519D01*
X135809293Y-98669302D01*
X135675895Y-98614046D01*
X135534281Y-98585878D01*
X135496381Y-98585878D01*
X135521150Y-98461355D01*
X135521150Y-98397708D01*
X135550548Y-98385531D01*
X135674697Y-98302577D01*
X135780277Y-98196997D01*
X135863231Y-98072848D01*
X135920371Y-97934901D01*
X135949500Y-97788457D01*
X135949500Y-97639143D01*
X135920371Y-97492699D01*
X135863231Y-97354752D01*
X135780277Y-97230603D01*
X135674697Y-97125023D01*
X135550548Y-97042069D01*
X135412601Y-96984929D01*
X135266157Y-96955800D01*
X135116843Y-96955800D01*
X134970399Y-96984929D01*
X134832452Y-97042069D01*
X134708303Y-97125023D01*
X134602723Y-97230603D01*
X134519769Y-97354752D01*
X134462629Y-97492699D01*
X134433500Y-97639143D01*
X134433500Y-97702790D01*
X134404102Y-97714967D01*
X134279953Y-97797921D01*
X134174373Y-97903501D01*
X134091419Y-98027650D01*
X134034279Y-98165597D01*
X134005150Y-98312041D01*
X132222686Y-98312041D01*
X132255857Y-98289877D01*
X132361437Y-98184297D01*
X132444391Y-98060148D01*
X132501531Y-97922201D01*
X132530660Y-97775757D01*
X132530660Y-97626443D01*
X132501531Y-97479999D01*
X132444391Y-97342052D01*
X132361437Y-97217903D01*
X132255857Y-97112323D01*
X132131708Y-97029369D01*
X132129135Y-97028303D01*
X132107831Y-96921199D01*
X132050691Y-96783252D01*
X131967737Y-96659103D01*
X131862157Y-96553523D01*
X131738008Y-96470569D01*
X131600061Y-96413429D01*
X131453617Y-96384300D01*
X131304303Y-96384300D01*
X131157859Y-96413429D01*
X131019912Y-96470569D01*
X130895763Y-96553523D01*
X130790183Y-96659103D01*
X130707229Y-96783252D01*
X130650089Y-96921199D01*
X130620960Y-97067643D01*
X128745299Y-97067643D01*
X128645146Y-97000724D01*
X128511748Y-96945468D01*
X128370134Y-96917300D01*
X128225746Y-96917300D01*
X128084132Y-96945468D01*
X127950734Y-97000724D01*
X127830680Y-97080941D01*
X127728581Y-97183040D01*
X127648364Y-97303094D01*
X127593108Y-97436492D01*
X127564940Y-97578106D01*
X125533000Y-97578106D01*
X125533000Y-96473825D01*
X125530773Y-96451214D01*
X125530794Y-96448203D01*
X125530068Y-96440797D01*
X125522538Y-96369143D01*
X133188900Y-96369143D01*
X133188900Y-96518457D01*
X133218029Y-96664901D01*
X133275169Y-96802848D01*
X133358123Y-96926997D01*
X133463703Y-97032577D01*
X133587852Y-97115531D01*
X133725799Y-97172671D01*
X133872243Y-97201800D01*
X134021557Y-97201800D01*
X134168001Y-97172671D01*
X134305948Y-97115531D01*
X134430097Y-97032577D01*
X134535677Y-96926997D01*
X134618631Y-96802848D01*
X134675771Y-96664901D01*
X134704900Y-96518457D01*
X134704900Y-96369143D01*
X134675771Y-96222699D01*
X134618631Y-96084752D01*
X134535677Y-95960603D01*
X134430097Y-95855023D01*
X134305948Y-95772069D01*
X134168001Y-95714929D01*
X134021557Y-95685800D01*
X133872243Y-95685800D01*
X133725799Y-95714929D01*
X133587852Y-95772069D01*
X133463703Y-95855023D01*
X133358123Y-95960603D01*
X133275169Y-96084752D01*
X133218029Y-96222699D01*
X133188900Y-96369143D01*
X125522538Y-96369143D01*
X125519868Y-96343748D01*
X125510153Y-96296418D01*
X125501102Y-96248974D01*
X125498952Y-96241849D01*
X125470096Y-96148630D01*
X125451371Y-96104085D01*
X125433277Y-96059303D01*
X125429783Y-96052732D01*
X125383370Y-95966894D01*
X125356361Y-95926852D01*
X125329905Y-95886423D01*
X125325202Y-95880656D01*
X125263000Y-95805467D01*
X125228727Y-95771432D01*
X125194926Y-95736916D01*
X125189192Y-95732172D01*
X125113571Y-95670496D01*
X125073343Y-95643768D01*
X125033468Y-95616466D01*
X125026922Y-95612927D01*
X124940761Y-95567115D01*
X124896136Y-95548722D01*
X124851700Y-95529677D01*
X124844591Y-95527476D01*
X124751173Y-95499271D01*
X124703773Y-95489886D01*
X124656528Y-95479844D01*
X124649136Y-95479067D01*
X124649131Y-95479066D01*
X124649127Y-95479066D01*
X124552009Y-95469544D01*
X124552005Y-95469544D01*
X124526175Y-95467000D01*
X123779158Y-95467000D01*
X123777643Y-94759822D01*
X135176639Y-94759822D01*
X135176639Y-94909136D01*
X135205768Y-95055580D01*
X135262908Y-95193527D01*
X135345862Y-95317676D01*
X135451442Y-95423256D01*
X135575591Y-95506210D01*
X135713538Y-95563350D01*
X135859982Y-95592479D01*
X136009296Y-95592479D01*
X136155740Y-95563350D01*
X136293687Y-95506210D01*
X136417836Y-95423256D01*
X136523416Y-95317676D01*
X136606370Y-95193527D01*
X136663510Y-95055580D01*
X136692639Y-94909136D01*
X136692639Y-94759822D01*
X136663510Y-94613378D01*
X136606370Y-94475431D01*
X136523416Y-94351282D01*
X136502851Y-94330717D01*
X139925980Y-94330717D01*
X139925980Y-94475105D01*
X139954148Y-94616719D01*
X140009404Y-94750117D01*
X140089621Y-94870171D01*
X140191720Y-94972270D01*
X140311774Y-95052487D01*
X140445172Y-95107743D01*
X140586786Y-95135911D01*
X140731174Y-95135911D01*
X140827042Y-95116842D01*
X143383380Y-95116842D01*
X143383380Y-95266156D01*
X143412509Y-95412600D01*
X143469649Y-95550547D01*
X143552603Y-95674696D01*
X143658183Y-95780276D01*
X143782332Y-95863230D01*
X143798526Y-95869938D01*
X143694303Y-95974161D01*
X143611349Y-96098310D01*
X143554209Y-96236257D01*
X143525080Y-96382701D01*
X143525080Y-96532015D01*
X143554209Y-96678459D01*
X143611349Y-96816406D01*
X143656058Y-96883317D01*
X143652578Y-96891718D01*
X143623449Y-97038162D01*
X143623449Y-97187476D01*
X143652578Y-97333920D01*
X143709718Y-97471867D01*
X143792672Y-97596016D01*
X143898252Y-97701596D01*
X143922443Y-97717760D01*
X143870181Y-97843931D01*
X143842013Y-97985545D01*
X143842013Y-98129933D01*
X143870181Y-98271547D01*
X143925437Y-98404945D01*
X144005654Y-98524999D01*
X144107753Y-98627098D01*
X144227807Y-98707315D01*
X144361205Y-98762571D01*
X144502819Y-98790739D01*
X144647207Y-98790739D01*
X144788821Y-98762571D01*
X144922219Y-98707315D01*
X145042273Y-98627098D01*
X145144372Y-98524999D01*
X145196580Y-98446863D01*
X148179980Y-98446863D01*
X148179980Y-98596177D01*
X148209109Y-98742621D01*
X148266249Y-98880568D01*
X148349203Y-99004717D01*
X148454783Y-99110297D01*
X148578932Y-99193251D01*
X148716879Y-99250391D01*
X148863323Y-99279520D01*
X149012637Y-99279520D01*
X149159081Y-99250391D01*
X149297028Y-99193251D01*
X149421177Y-99110297D01*
X149526757Y-99004717D01*
X149609711Y-98880568D01*
X149666851Y-98742621D01*
X149695980Y-98596177D01*
X149695980Y-98446863D01*
X149666851Y-98300419D01*
X149609711Y-98162472D01*
X149526757Y-98038323D01*
X149421177Y-97932743D01*
X149297028Y-97849789D01*
X149159081Y-97792649D01*
X149012637Y-97763520D01*
X148863323Y-97763520D01*
X148716879Y-97792649D01*
X148578932Y-97849789D01*
X148454783Y-97932743D01*
X148349203Y-98038323D01*
X148266249Y-98162472D01*
X148209109Y-98300419D01*
X148179980Y-98446863D01*
X145196580Y-98446863D01*
X145224589Y-98404945D01*
X145267004Y-98302547D01*
X145298608Y-98296261D01*
X145432006Y-98241005D01*
X145552060Y-98160788D01*
X145654159Y-98058689D01*
X145734376Y-97938635D01*
X145789632Y-97805237D01*
X145817800Y-97663623D01*
X145817800Y-97519235D01*
X145789632Y-97377621D01*
X145734376Y-97244223D01*
X145654159Y-97124169D01*
X145552060Y-97022070D01*
X145432006Y-96941853D01*
X145298608Y-96886597D01*
X145156994Y-96858429D01*
X145096531Y-96858429D01*
X145053180Y-96753771D01*
X145008471Y-96686860D01*
X145011951Y-96678459D01*
X145041080Y-96532015D01*
X145041080Y-96382701D01*
X145011951Y-96236257D01*
X144954811Y-96098310D01*
X144871857Y-95974161D01*
X144766277Y-95868581D01*
X144642128Y-95785627D01*
X144625934Y-95778919D01*
X144730157Y-95674696D01*
X144813111Y-95550547D01*
X144850546Y-95460171D01*
X144917608Y-95446832D01*
X145051006Y-95391576D01*
X145171060Y-95311359D01*
X145273159Y-95209260D01*
X145353376Y-95089206D01*
X145361234Y-95070236D01*
X145384114Y-95065685D01*
X145517512Y-95010429D01*
X145637566Y-94930212D01*
X145739665Y-94828113D01*
X145819882Y-94708059D01*
X145857789Y-94616543D01*
X149508400Y-94616543D01*
X149508400Y-94765857D01*
X149537529Y-94912301D01*
X149594669Y-95050248D01*
X149626309Y-95097600D01*
X149594669Y-95144952D01*
X149537529Y-95282899D01*
X149508400Y-95429343D01*
X149508400Y-95578657D01*
X149537529Y-95725101D01*
X149594669Y-95863048D01*
X149677623Y-95987197D01*
X149783203Y-96092777D01*
X149907352Y-96175731D01*
X150045299Y-96232871D01*
X150191743Y-96262000D01*
X150341057Y-96262000D01*
X150487501Y-96232871D01*
X150625448Y-96175731D01*
X150749597Y-96092777D01*
X150855177Y-95987197D01*
X150938131Y-95863048D01*
X150995271Y-95725101D01*
X151024400Y-95578657D01*
X151024400Y-95429343D01*
X150995271Y-95282899D01*
X150938131Y-95144952D01*
X150906491Y-95097600D01*
X150938131Y-95050248D01*
X150995271Y-94912301D01*
X151024400Y-94765857D01*
X151024400Y-94616543D01*
X153978800Y-94616543D01*
X153978800Y-94765857D01*
X154007929Y-94912301D01*
X154065069Y-95050248D01*
X154148023Y-95174397D01*
X154253603Y-95279977D01*
X154377752Y-95362931D01*
X154515699Y-95420071D01*
X154662143Y-95449200D01*
X154811457Y-95449200D01*
X154957901Y-95420071D01*
X155095848Y-95362931D01*
X155219997Y-95279977D01*
X155325577Y-95174397D01*
X155408531Y-95050248D01*
X155465671Y-94912301D01*
X155494800Y-94765857D01*
X155494800Y-94616543D01*
X155465671Y-94470099D01*
X155408531Y-94332152D01*
X155325577Y-94208003D01*
X155219997Y-94102423D01*
X155095848Y-94019469D01*
X154957901Y-93962329D01*
X154811457Y-93933200D01*
X154662143Y-93933200D01*
X154515699Y-93962329D01*
X154377752Y-94019469D01*
X154253603Y-94102423D01*
X154148023Y-94208003D01*
X154065069Y-94332152D01*
X154007929Y-94470099D01*
X153978800Y-94616543D01*
X151024400Y-94616543D01*
X150995271Y-94470099D01*
X150938131Y-94332152D01*
X150855177Y-94208003D01*
X150749597Y-94102423D01*
X150625448Y-94019469D01*
X150487501Y-93962329D01*
X150341057Y-93933200D01*
X150191743Y-93933200D01*
X150045299Y-93962329D01*
X149907352Y-94019469D01*
X149783203Y-94102423D01*
X149677623Y-94208003D01*
X149594669Y-94332152D01*
X149537529Y-94470099D01*
X149508400Y-94616543D01*
X145857789Y-94616543D01*
X145875138Y-94574661D01*
X145882360Y-94538353D01*
X145977398Y-94498986D01*
X146097452Y-94418769D01*
X146199551Y-94316670D01*
X146279768Y-94196616D01*
X146335024Y-94063218D01*
X146363192Y-93921604D01*
X146363192Y-93777216D01*
X146335024Y-93635602D01*
X146279768Y-93502204D01*
X146199551Y-93382150D01*
X146097452Y-93280051D01*
X145977398Y-93199834D01*
X145977103Y-93199712D01*
X146002544Y-93138291D01*
X146031673Y-92991847D01*
X146031673Y-92842533D01*
X146004646Y-92706657D01*
X146038563Y-92729320D01*
X146176510Y-92786460D01*
X146322954Y-92815589D01*
X146472268Y-92815589D01*
X146618712Y-92786460D01*
X146756659Y-92729320D01*
X146880808Y-92646366D01*
X146986388Y-92540786D01*
X147018916Y-92492105D01*
X147065373Y-92501346D01*
X147214687Y-92501346D01*
X147361131Y-92472217D01*
X147396556Y-92457543D01*
X153699400Y-92457543D01*
X153699400Y-92606857D01*
X153728529Y-92753301D01*
X153785669Y-92891248D01*
X153868623Y-93015397D01*
X153974203Y-93120977D01*
X154098352Y-93203931D01*
X154236299Y-93261071D01*
X154382743Y-93290200D01*
X154532057Y-93290200D01*
X154678501Y-93261071D01*
X154816448Y-93203931D01*
X154940597Y-93120977D01*
X155046177Y-93015397D01*
X155129131Y-92891248D01*
X155186271Y-92753301D01*
X155215400Y-92606857D01*
X155215400Y-92457543D01*
X155186271Y-92311099D01*
X155129131Y-92173152D01*
X155046177Y-92049003D01*
X154940597Y-91943423D01*
X154816448Y-91860469D01*
X154678501Y-91803329D01*
X154532057Y-91774200D01*
X154382743Y-91774200D01*
X154236299Y-91803329D01*
X154098352Y-91860469D01*
X153974203Y-91943423D01*
X153868623Y-92049003D01*
X153785669Y-92173152D01*
X153728529Y-92311099D01*
X153699400Y-92457543D01*
X147396556Y-92457543D01*
X147499078Y-92415077D01*
X147623227Y-92332123D01*
X147728807Y-92226543D01*
X147811761Y-92102394D01*
X147868901Y-91964447D01*
X147898030Y-91818003D01*
X147898030Y-91668689D01*
X147868901Y-91522245D01*
X147811761Y-91384298D01*
X147728807Y-91260149D01*
X147701458Y-91232800D01*
X147788357Y-91232800D01*
X147934801Y-91203671D01*
X148072748Y-91146531D01*
X148196897Y-91063577D01*
X148302477Y-90957997D01*
X148385431Y-90833848D01*
X148442571Y-90695901D01*
X148471700Y-90549457D01*
X148471700Y-90400143D01*
X148442571Y-90253699D01*
X148408541Y-90171543D01*
X151299100Y-90171543D01*
X151299100Y-90320857D01*
X151328229Y-90467301D01*
X151385369Y-90605248D01*
X151468323Y-90729397D01*
X151573903Y-90834977D01*
X151698052Y-90917931D01*
X151835999Y-90975071D01*
X151982443Y-91004200D01*
X152131757Y-91004200D01*
X152278201Y-90975071D01*
X152416148Y-90917931D01*
X152540297Y-90834977D01*
X152645877Y-90729397D01*
X152728831Y-90605248D01*
X152785971Y-90467301D01*
X152815100Y-90320857D01*
X152815100Y-90171543D01*
X152785971Y-90025099D01*
X152728831Y-89887152D01*
X152645877Y-89763003D01*
X152540297Y-89657423D01*
X152416148Y-89574469D01*
X152278201Y-89517329D01*
X152131757Y-89488200D01*
X151982443Y-89488200D01*
X151835999Y-89517329D01*
X151698052Y-89574469D01*
X151573903Y-89657423D01*
X151468323Y-89763003D01*
X151385369Y-89887152D01*
X151328229Y-90025099D01*
X151299100Y-90171543D01*
X148408541Y-90171543D01*
X148385431Y-90115752D01*
X148302477Y-89991603D01*
X148196897Y-89886023D01*
X148072748Y-89803069D01*
X147934801Y-89745929D01*
X147788357Y-89716800D01*
X147639043Y-89716800D01*
X147492599Y-89745929D01*
X147354652Y-89803069D01*
X147230503Y-89886023D01*
X147124923Y-89991603D01*
X147041969Y-90115752D01*
X146984829Y-90253699D01*
X146983834Y-90258703D01*
X146943306Y-90231624D01*
X146809908Y-90176368D01*
X146668294Y-90148200D01*
X146523906Y-90148200D01*
X146382292Y-90176368D01*
X146248894Y-90231624D01*
X146128840Y-90311841D01*
X146026741Y-90413940D01*
X145946524Y-90533994D01*
X145891268Y-90667392D01*
X145863100Y-90809006D01*
X145863100Y-90953394D01*
X145891268Y-91095008D01*
X145946524Y-91228406D01*
X146026741Y-91348460D01*
X146056648Y-91378367D01*
X146038563Y-91385858D01*
X145914414Y-91468812D01*
X145808834Y-91574392D01*
X145725880Y-91698541D01*
X145668740Y-91836488D01*
X145639611Y-91982932D01*
X145639611Y-92132246D01*
X145666638Y-92268122D01*
X145632721Y-92245459D01*
X145494774Y-92188319D01*
X145348330Y-92159190D01*
X145199016Y-92159190D01*
X145052572Y-92188319D01*
X144914625Y-92245459D01*
X144790476Y-92328413D01*
X144684896Y-92433993D01*
X144601942Y-92558142D01*
X144544802Y-92696089D01*
X144515673Y-92842533D01*
X144515673Y-92991847D01*
X144544802Y-93138291D01*
X144601942Y-93276238D01*
X144684896Y-93400387D01*
X144790476Y-93505967D01*
X144914625Y-93588921D01*
X144940292Y-93599553D01*
X144925360Y-93635602D01*
X144918138Y-93671910D01*
X144823100Y-93711277D01*
X144703046Y-93791494D01*
X144600947Y-93893593D01*
X144520730Y-94013647D01*
X144512872Y-94032617D01*
X144489992Y-94037168D01*
X144356594Y-94092424D01*
X144236540Y-94172641D01*
X144134441Y-94274740D01*
X144054224Y-94394794D01*
X144035630Y-94439684D01*
X143920279Y-94462628D01*
X143782332Y-94519768D01*
X143658183Y-94602722D01*
X143552603Y-94708302D01*
X143469649Y-94832451D01*
X143412509Y-94970398D01*
X143383380Y-95116842D01*
X140827042Y-95116842D01*
X140872788Y-95107743D01*
X141006186Y-95052487D01*
X141098563Y-94990763D01*
X141175080Y-95005983D01*
X141319468Y-95005983D01*
X141461082Y-94977815D01*
X141594480Y-94922559D01*
X141714534Y-94842342D01*
X141816633Y-94740243D01*
X141835003Y-94712749D01*
X141889580Y-94767326D01*
X142009634Y-94847543D01*
X142143032Y-94902799D01*
X142284646Y-94930967D01*
X142429034Y-94930967D01*
X142570648Y-94902799D01*
X142704046Y-94847543D01*
X142824100Y-94767326D01*
X142926199Y-94665227D01*
X143006416Y-94545173D01*
X143061672Y-94411775D01*
X143089840Y-94270161D01*
X143089840Y-94125773D01*
X143061672Y-93984159D01*
X143006416Y-93850761D01*
X142926199Y-93730707D01*
X142824100Y-93628608D01*
X142704046Y-93548391D01*
X142570648Y-93493135D01*
X142429034Y-93464967D01*
X142284646Y-93464967D01*
X142143032Y-93493135D01*
X142009634Y-93548391D01*
X141889580Y-93628608D01*
X141787481Y-93730707D01*
X141769111Y-93758201D01*
X141714534Y-93703624D01*
X141594480Y-93623407D01*
X141461082Y-93568151D01*
X141319468Y-93539983D01*
X141175080Y-93539983D01*
X141033466Y-93568151D01*
X140900068Y-93623407D01*
X140807691Y-93685131D01*
X140731174Y-93669911D01*
X140586786Y-93669911D01*
X140445172Y-93698079D01*
X140311774Y-93753335D01*
X140191720Y-93833552D01*
X140089621Y-93935651D01*
X140009404Y-94055705D01*
X139954148Y-94189103D01*
X139925980Y-94330717D01*
X136502851Y-94330717D01*
X136417836Y-94245702D01*
X136293687Y-94162748D01*
X136155740Y-94105608D01*
X136009296Y-94076479D01*
X135859982Y-94076479D01*
X135713538Y-94105608D01*
X135575591Y-94162748D01*
X135451442Y-94245702D01*
X135345862Y-94351282D01*
X135262908Y-94475431D01*
X135205768Y-94613378D01*
X135176639Y-94759822D01*
X123777643Y-94759822D01*
X123774613Y-93346543D01*
X133277800Y-93346543D01*
X133277800Y-93495857D01*
X133306929Y-93642301D01*
X133364069Y-93780248D01*
X133447023Y-93904397D01*
X133552603Y-94009977D01*
X133676752Y-94092931D01*
X133814699Y-94150071D01*
X133961143Y-94179200D01*
X134110457Y-94179200D01*
X134256901Y-94150071D01*
X134394848Y-94092931D01*
X134518997Y-94009977D01*
X134624577Y-93904397D01*
X134707531Y-93780248D01*
X134764671Y-93642301D01*
X134793800Y-93495857D01*
X134793800Y-93346543D01*
X134764671Y-93200099D01*
X134707531Y-93062152D01*
X134624577Y-92938003D01*
X134518997Y-92832423D01*
X134394848Y-92749469D01*
X134256901Y-92692329D01*
X134110457Y-92663200D01*
X133961143Y-92663200D01*
X133814699Y-92692329D01*
X133676752Y-92749469D01*
X133552603Y-92832423D01*
X133447023Y-92938003D01*
X133364069Y-93062152D01*
X133306929Y-93200099D01*
X133277800Y-93346543D01*
X123774613Y-93346543D01*
X123769277Y-90857343D01*
X124845000Y-90857343D01*
X124845000Y-91006657D01*
X124874129Y-91153101D01*
X124931269Y-91291048D01*
X125014223Y-91415197D01*
X125119803Y-91520777D01*
X125243952Y-91603731D01*
X125381899Y-91660871D01*
X125528343Y-91690000D01*
X125677657Y-91690000D01*
X125824101Y-91660871D01*
X125962048Y-91603731D01*
X126086197Y-91520777D01*
X126162968Y-91444006D01*
X129721400Y-91444006D01*
X129721400Y-91588394D01*
X129749568Y-91730008D01*
X129804824Y-91863406D01*
X129885041Y-91983460D01*
X129987140Y-92085559D01*
X130107194Y-92165776D01*
X130240592Y-92221032D01*
X130382206Y-92249200D01*
X130526594Y-92249200D01*
X130668208Y-92221032D01*
X130801606Y-92165776D01*
X130921660Y-92085559D01*
X130930676Y-92076543D01*
X136198800Y-92076543D01*
X136198800Y-92225857D01*
X136227929Y-92372301D01*
X136285069Y-92510248D01*
X136368023Y-92634397D01*
X136473603Y-92739977D01*
X136597752Y-92822931D01*
X136735699Y-92880071D01*
X136882143Y-92909200D01*
X137031457Y-92909200D01*
X137062400Y-92903045D01*
X137062400Y-92987857D01*
X137091529Y-93134301D01*
X137148669Y-93272248D01*
X137231623Y-93396397D01*
X137337203Y-93501977D01*
X137461352Y-93584931D01*
X137599299Y-93642071D01*
X137745743Y-93671200D01*
X137895057Y-93671200D01*
X138041501Y-93642071D01*
X138179448Y-93584931D01*
X138303597Y-93501977D01*
X138409177Y-93396397D01*
X138492131Y-93272248D01*
X138549271Y-93134301D01*
X138578400Y-92987857D01*
X138578400Y-92838543D01*
X138549271Y-92692099D01*
X138492131Y-92554152D01*
X138409177Y-92430003D01*
X138303597Y-92324423D01*
X138179448Y-92241469D01*
X138041501Y-92184329D01*
X137895057Y-92155200D01*
X137745743Y-92155200D01*
X137714800Y-92161355D01*
X137714800Y-92076543D01*
X137685671Y-91930099D01*
X137628531Y-91792152D01*
X137548653Y-91672606D01*
X138433600Y-91672606D01*
X138433600Y-91816994D01*
X138461768Y-91958608D01*
X138517024Y-92092006D01*
X138597241Y-92212060D01*
X138699340Y-92314159D01*
X138819394Y-92394376D01*
X138952792Y-92449632D01*
X139094406Y-92477800D01*
X139238794Y-92477800D01*
X139380408Y-92449632D01*
X139513806Y-92394376D01*
X139633860Y-92314159D01*
X139735959Y-92212060D01*
X139816176Y-92092006D01*
X139871432Y-91958608D01*
X139899600Y-91816994D01*
X139899600Y-91672606D01*
X139871432Y-91530992D01*
X139816176Y-91397594D01*
X139735959Y-91277540D01*
X139633860Y-91175441D01*
X139513806Y-91095224D01*
X139380408Y-91039968D01*
X139238794Y-91011800D01*
X139094406Y-91011800D01*
X138952792Y-91039968D01*
X138819394Y-91095224D01*
X138699340Y-91175441D01*
X138597241Y-91277540D01*
X138517024Y-91397594D01*
X138461768Y-91530992D01*
X138433600Y-91672606D01*
X137548653Y-91672606D01*
X137545577Y-91668003D01*
X137439997Y-91562423D01*
X137315848Y-91479469D01*
X137177901Y-91422329D01*
X137031457Y-91393200D01*
X136882143Y-91393200D01*
X136735699Y-91422329D01*
X136597752Y-91479469D01*
X136473603Y-91562423D01*
X136368023Y-91668003D01*
X136285069Y-91792152D01*
X136227929Y-91930099D01*
X136198800Y-92076543D01*
X130930676Y-92076543D01*
X131023759Y-91983460D01*
X131103976Y-91863406D01*
X131159232Y-91730008D01*
X131187400Y-91588394D01*
X131187400Y-91444006D01*
X131159232Y-91302392D01*
X131103976Y-91168994D01*
X131023759Y-91048940D01*
X130921660Y-90946841D01*
X130801606Y-90866624D01*
X130733547Y-90838433D01*
X130769808Y-90831220D01*
X130903206Y-90775964D01*
X131023260Y-90695747D01*
X131125359Y-90593648D01*
X131135852Y-90577943D01*
X131855400Y-90577943D01*
X131855400Y-90727257D01*
X131884529Y-90873701D01*
X131941669Y-91011648D01*
X132024623Y-91135797D01*
X132130203Y-91241377D01*
X132254352Y-91324331D01*
X132392299Y-91381471D01*
X132538743Y-91410600D01*
X132688057Y-91410600D01*
X132834501Y-91381471D01*
X132972448Y-91324331D01*
X133096597Y-91241377D01*
X133202177Y-91135797D01*
X133285131Y-91011648D01*
X133342271Y-90873701D01*
X133371400Y-90727257D01*
X133371400Y-90577943D01*
X133342271Y-90431499D01*
X133304033Y-90339183D01*
X144362360Y-90339183D01*
X144362360Y-90488497D01*
X144391489Y-90634941D01*
X144448629Y-90772888D01*
X144531583Y-90897037D01*
X144637163Y-91002617D01*
X144761312Y-91085571D01*
X144899259Y-91142711D01*
X145045703Y-91171840D01*
X145195017Y-91171840D01*
X145341461Y-91142711D01*
X145479408Y-91085571D01*
X145603557Y-91002617D01*
X145709137Y-90897037D01*
X145792091Y-90772888D01*
X145849231Y-90634941D01*
X145878360Y-90488497D01*
X145878360Y-90339183D01*
X145849231Y-90192739D01*
X145792091Y-90054792D01*
X145709137Y-89930643D01*
X145603557Y-89825063D01*
X145479408Y-89742109D01*
X145341461Y-89684969D01*
X145195017Y-89655840D01*
X145045703Y-89655840D01*
X144899259Y-89684969D01*
X144761312Y-89742109D01*
X144637163Y-89825063D01*
X144531583Y-89930643D01*
X144448629Y-90054792D01*
X144391489Y-90192739D01*
X144362360Y-90339183D01*
X133304033Y-90339183D01*
X133285131Y-90293552D01*
X133202177Y-90169403D01*
X133096597Y-90063823D01*
X132972448Y-89980869D01*
X132834501Y-89923729D01*
X132688057Y-89894600D01*
X132538743Y-89894600D01*
X132392299Y-89923729D01*
X132254352Y-89980869D01*
X132130203Y-90063823D01*
X132024623Y-90169403D01*
X131941669Y-90293552D01*
X131884529Y-90431499D01*
X131855400Y-90577943D01*
X131135852Y-90577943D01*
X131205576Y-90473594D01*
X131260832Y-90340196D01*
X131289000Y-90198582D01*
X131289000Y-90054194D01*
X131260832Y-89912580D01*
X131205576Y-89779182D01*
X131125359Y-89659128D01*
X131023260Y-89557029D01*
X130903206Y-89476812D01*
X130769808Y-89421556D01*
X130628194Y-89393388D01*
X130483806Y-89393388D01*
X130342192Y-89421556D01*
X130208794Y-89476812D01*
X130088740Y-89557029D01*
X129986641Y-89659128D01*
X129906424Y-89779182D01*
X129851168Y-89912580D01*
X129823000Y-90054194D01*
X129823000Y-90198582D01*
X129851168Y-90340196D01*
X129906424Y-90473594D01*
X129986641Y-90593648D01*
X130088740Y-90695747D01*
X130208794Y-90775964D01*
X130276853Y-90804155D01*
X130240592Y-90811368D01*
X130107194Y-90866624D01*
X129987140Y-90946841D01*
X129885041Y-91048940D01*
X129804824Y-91168994D01*
X129749568Y-91302392D01*
X129721400Y-91444006D01*
X126162968Y-91444006D01*
X126191777Y-91415197D01*
X126274731Y-91291048D01*
X126331871Y-91153101D01*
X126361000Y-91006657D01*
X126361000Y-90857343D01*
X126331871Y-90710899D01*
X126274731Y-90572952D01*
X126191777Y-90448803D01*
X126086197Y-90343223D01*
X125962048Y-90260269D01*
X125824101Y-90203129D01*
X125677657Y-90174000D01*
X125528343Y-90174000D01*
X125381899Y-90203129D01*
X125243952Y-90260269D01*
X125119803Y-90343223D01*
X125014223Y-90448803D01*
X124931269Y-90572952D01*
X124874129Y-90710899D01*
X124845000Y-90857343D01*
X123769277Y-90857343D01*
X123758948Y-86039155D01*
X123790665Y-85915000D01*
X124430543Y-85915000D01*
X124430543Y-87439000D01*
X124440351Y-87538585D01*
X124469399Y-87634343D01*
X124516571Y-87722595D01*
X124580052Y-87799948D01*
X124657405Y-87863429D01*
X124745657Y-87910601D01*
X124841415Y-87939649D01*
X124941000Y-87949457D01*
X126465000Y-87949457D01*
X126564585Y-87939649D01*
X126660343Y-87910601D01*
X126748595Y-87863429D01*
X126825948Y-87799948D01*
X126889429Y-87722595D01*
X126936601Y-87634343D01*
X126965649Y-87538585D01*
X126975457Y-87439000D01*
X126975457Y-87414130D01*
X129736040Y-87414130D01*
X129736040Y-87765350D01*
X129804560Y-88109822D01*
X129938966Y-88434307D01*
X130134094Y-88726336D01*
X130382444Y-88974686D01*
X130674473Y-89169814D01*
X130998958Y-89304220D01*
X131343430Y-89372740D01*
X131694650Y-89372740D01*
X132039122Y-89304220D01*
X132363607Y-89169814D01*
X132606972Y-89007202D01*
X132654543Y-89078397D01*
X132760123Y-89183977D01*
X132884272Y-89266931D01*
X133022219Y-89324071D01*
X133168663Y-89353200D01*
X133317977Y-89353200D01*
X133464421Y-89324071D01*
X133602368Y-89266931D01*
X133726517Y-89183977D01*
X133832097Y-89078397D01*
X133915051Y-88954248D01*
X133972191Y-88816301D01*
X134001320Y-88669857D01*
X134001320Y-88520543D01*
X133972191Y-88374099D01*
X133915051Y-88236152D01*
X133832097Y-88112003D01*
X133726517Y-88006423D01*
X133602368Y-87923469D01*
X133464421Y-87866329D01*
X133317977Y-87837200D01*
X133287748Y-87837200D01*
X133302040Y-87765350D01*
X133302040Y-87414130D01*
X133233520Y-87069658D01*
X133099114Y-86745173D01*
X133004012Y-86602843D01*
X144954400Y-86602843D01*
X144954400Y-86752157D01*
X144983529Y-86898601D01*
X145040669Y-87036548D01*
X145123623Y-87160697D01*
X145229203Y-87266277D01*
X145353352Y-87349231D01*
X145491299Y-87406371D01*
X145637743Y-87435500D01*
X145787057Y-87435500D01*
X145933501Y-87406371D01*
X145981542Y-87386472D01*
X145976040Y-87414130D01*
X145976040Y-87765350D01*
X146044560Y-88109822D01*
X146178966Y-88434307D01*
X146374094Y-88726336D01*
X146622444Y-88974686D01*
X146914473Y-89169814D01*
X147238958Y-89304220D01*
X147583430Y-89372740D01*
X147934650Y-89372740D01*
X148279122Y-89304220D01*
X148603607Y-89169814D01*
X148895636Y-88974686D01*
X149143986Y-88726336D01*
X149339114Y-88434307D01*
X149473520Y-88109822D01*
X149542040Y-87765350D01*
X149542040Y-87414130D01*
X149473520Y-87069658D01*
X149339114Y-86745173D01*
X149143986Y-86453144D01*
X148976185Y-86285343D01*
X153470800Y-86285343D01*
X153470800Y-86434657D01*
X153499929Y-86581101D01*
X153557069Y-86719048D01*
X153640023Y-86843197D01*
X153745603Y-86948777D01*
X153869752Y-87031731D01*
X154007699Y-87088871D01*
X154154143Y-87118000D01*
X154303457Y-87118000D01*
X154449901Y-87088871D01*
X154587848Y-87031731D01*
X154711997Y-86948777D01*
X154817577Y-86843197D01*
X154900531Y-86719048D01*
X154957671Y-86581101D01*
X154986800Y-86434657D01*
X154986800Y-86285343D01*
X154957671Y-86138899D01*
X154900531Y-86000952D01*
X154817577Y-85876803D01*
X154711997Y-85771223D01*
X154587848Y-85688269D01*
X154449901Y-85631129D01*
X154303457Y-85602000D01*
X154154143Y-85602000D01*
X154007699Y-85631129D01*
X153869752Y-85688269D01*
X153745603Y-85771223D01*
X153640023Y-85876803D01*
X153557069Y-86000952D01*
X153499929Y-86138899D01*
X153470800Y-86285343D01*
X148976185Y-86285343D01*
X148895636Y-86204794D01*
X148603607Y-86009666D01*
X148279122Y-85875260D01*
X147934650Y-85806740D01*
X147583430Y-85806740D01*
X147238958Y-85875260D01*
X146914473Y-86009666D01*
X146622444Y-86204794D01*
X146420642Y-86406596D01*
X146384131Y-86318452D01*
X146301177Y-86194303D01*
X146195597Y-86088723D01*
X146071448Y-86005769D01*
X145933501Y-85948629D01*
X145787057Y-85919500D01*
X145637743Y-85919500D01*
X145491299Y-85948629D01*
X145353352Y-86005769D01*
X145229203Y-86088723D01*
X145123623Y-86194303D01*
X145040669Y-86318452D01*
X144983529Y-86456399D01*
X144954400Y-86602843D01*
X133004012Y-86602843D01*
X132903986Y-86453144D01*
X132655636Y-86204794D01*
X132363607Y-86009666D01*
X132039122Y-85875260D01*
X131694650Y-85806740D01*
X131343430Y-85806740D01*
X130998958Y-85875260D01*
X130674473Y-86009666D01*
X130382444Y-86204794D01*
X130134094Y-86453144D01*
X129938966Y-86745173D01*
X129804560Y-87069658D01*
X129736040Y-87414130D01*
X126975457Y-87414130D01*
X126975457Y-85915000D01*
X126965649Y-85815415D01*
X126936601Y-85719657D01*
X126889429Y-85631405D01*
X126825948Y-85554052D01*
X126748595Y-85490571D01*
X126703066Y-85466235D01*
X126828459Y-85278571D01*
X126924195Y-85047445D01*
X126973000Y-84802084D01*
X126973000Y-84621643D01*
X131421060Y-84621643D01*
X131421060Y-84770957D01*
X131450189Y-84917401D01*
X131507329Y-85055348D01*
X131590283Y-85179497D01*
X131695863Y-85285077D01*
X131820012Y-85368031D01*
X131957959Y-85425171D01*
X132104403Y-85454300D01*
X132253717Y-85454300D01*
X132400161Y-85425171D01*
X132457493Y-85401423D01*
X133191440Y-85401423D01*
X133191440Y-85550737D01*
X133220569Y-85697181D01*
X133277709Y-85835128D01*
X133360663Y-85959277D01*
X133466243Y-86064857D01*
X133590392Y-86147811D01*
X133728339Y-86204951D01*
X133874783Y-86234080D01*
X134024097Y-86234080D01*
X134170541Y-86204951D01*
X134308488Y-86147811D01*
X134432637Y-86064857D01*
X134538217Y-85959277D01*
X134621171Y-85835128D01*
X134678311Y-85697181D01*
X134707440Y-85550737D01*
X134707440Y-85401423D01*
X134678311Y-85254979D01*
X134621171Y-85117032D01*
X134538217Y-84992883D01*
X134432637Y-84887303D01*
X134308488Y-84804349D01*
X134170541Y-84747209D01*
X134024097Y-84718080D01*
X133874783Y-84718080D01*
X133728339Y-84747209D01*
X133590392Y-84804349D01*
X133466243Y-84887303D01*
X133360663Y-84992883D01*
X133277709Y-85117032D01*
X133220569Y-85254979D01*
X133191440Y-85401423D01*
X132457493Y-85401423D01*
X132538108Y-85368031D01*
X132662257Y-85285077D01*
X132767837Y-85179497D01*
X132850791Y-85055348D01*
X132907931Y-84917401D01*
X132937060Y-84770957D01*
X132937060Y-84621643D01*
X132907931Y-84475199D01*
X132850791Y-84337252D01*
X132767837Y-84213103D01*
X132739497Y-84184763D01*
X136473120Y-84184763D01*
X136473120Y-84334077D01*
X136502249Y-84480521D01*
X136559389Y-84618468D01*
X136642343Y-84742617D01*
X136747923Y-84848197D01*
X136872072Y-84931151D01*
X137010019Y-84988291D01*
X137156463Y-85017420D01*
X137305777Y-85017420D01*
X137452221Y-84988291D01*
X137590168Y-84931151D01*
X137620362Y-84910976D01*
X137639152Y-84923531D01*
X137777099Y-84980671D01*
X137923543Y-85009800D01*
X138072857Y-85009800D01*
X138219301Y-84980671D01*
X138357248Y-84923531D01*
X138447106Y-84863489D01*
X138502752Y-84900671D01*
X138640699Y-84957811D01*
X138787143Y-84986940D01*
X138936457Y-84986940D01*
X139082901Y-84957811D01*
X139220848Y-84900671D01*
X139344997Y-84817717D01*
X139450577Y-84712137D01*
X139533531Y-84587988D01*
X139590671Y-84450041D01*
X139619800Y-84303597D01*
X139619800Y-84207894D01*
X144513270Y-84207894D01*
X144513270Y-84357208D01*
X144542399Y-84503652D01*
X144599539Y-84641599D01*
X144682493Y-84765748D01*
X144788073Y-84871328D01*
X144912222Y-84954282D01*
X145050169Y-85011422D01*
X145196613Y-85040551D01*
X145345927Y-85040551D01*
X145492371Y-85011422D01*
X145630318Y-84954282D01*
X145754467Y-84871328D01*
X145860047Y-84765748D01*
X145943001Y-84641599D01*
X146000141Y-84503652D01*
X146029270Y-84357208D01*
X146029270Y-84207894D01*
X146000141Y-84061450D01*
X145943001Y-83923503D01*
X145860047Y-83799354D01*
X145754467Y-83693774D01*
X145630318Y-83610820D01*
X145492371Y-83553680D01*
X145345927Y-83524551D01*
X145196613Y-83524551D01*
X145050169Y-83553680D01*
X144912222Y-83610820D01*
X144788073Y-83693774D01*
X144682493Y-83799354D01*
X144599539Y-83923503D01*
X144542399Y-84061450D01*
X144513270Y-84207894D01*
X139619800Y-84207894D01*
X139619800Y-84154283D01*
X139590671Y-84007839D01*
X139533531Y-83869892D01*
X139450577Y-83745743D01*
X139344997Y-83640163D01*
X139220848Y-83557209D01*
X139082901Y-83500069D01*
X138936457Y-83470940D01*
X138787143Y-83470940D01*
X138640699Y-83500069D01*
X138502752Y-83557209D01*
X138412894Y-83617251D01*
X138357248Y-83580069D01*
X138219301Y-83522929D01*
X138072857Y-83493800D01*
X137923543Y-83493800D01*
X137777099Y-83522929D01*
X137639152Y-83580069D01*
X137608958Y-83600244D01*
X137590168Y-83587689D01*
X137452221Y-83530549D01*
X137305777Y-83501420D01*
X137156463Y-83501420D01*
X137010019Y-83530549D01*
X136872072Y-83587689D01*
X136747923Y-83670643D01*
X136642343Y-83776223D01*
X136559389Y-83900372D01*
X136502249Y-84038319D01*
X136473120Y-84184763D01*
X132739497Y-84184763D01*
X132662257Y-84107523D01*
X132538108Y-84024569D01*
X132400161Y-83967429D01*
X132253717Y-83938300D01*
X132104403Y-83938300D01*
X131957959Y-83967429D01*
X131820012Y-84024569D01*
X131695863Y-84107523D01*
X131590283Y-84213103D01*
X131507329Y-84337252D01*
X131450189Y-84475199D01*
X131421060Y-84621643D01*
X126973000Y-84621643D01*
X126973000Y-84551916D01*
X126924195Y-84306555D01*
X126828459Y-84075429D01*
X126689473Y-83867422D01*
X126512578Y-83690527D01*
X126492333Y-83677000D01*
X126512578Y-83663473D01*
X126689473Y-83486578D01*
X126828459Y-83278571D01*
X126924195Y-83047445D01*
X126973000Y-82802084D01*
X126973000Y-82551916D01*
X126924195Y-82306555D01*
X126828459Y-82075429D01*
X126729084Y-81926703D01*
X133178740Y-81926703D01*
X133178740Y-82076017D01*
X133207869Y-82222461D01*
X133265009Y-82360408D01*
X133347963Y-82484557D01*
X133453543Y-82590137D01*
X133577692Y-82673091D01*
X133715639Y-82730231D01*
X133862083Y-82759360D01*
X134011397Y-82759360D01*
X134157841Y-82730231D01*
X134295788Y-82673091D01*
X134419937Y-82590137D01*
X134525517Y-82484557D01*
X134608471Y-82360408D01*
X134665611Y-82222461D01*
X134694740Y-82076017D01*
X134694740Y-81926703D01*
X134665611Y-81780259D01*
X134608471Y-81642312D01*
X134525517Y-81518163D01*
X134419937Y-81412583D01*
X134295788Y-81329629D01*
X134157841Y-81272489D01*
X134011397Y-81243360D01*
X133862083Y-81243360D01*
X133715639Y-81272489D01*
X133577692Y-81329629D01*
X133453543Y-81412583D01*
X133347963Y-81518163D01*
X133265009Y-81642312D01*
X133207869Y-81780259D01*
X133178740Y-81926703D01*
X126729084Y-81926703D01*
X126689473Y-81867422D01*
X126512578Y-81690527D01*
X126460609Y-81655802D01*
X126506538Y-81498499D01*
X125703000Y-80694961D01*
X124899462Y-81498499D01*
X124945391Y-81655802D01*
X124893422Y-81690527D01*
X124716527Y-81867422D01*
X124577541Y-82075429D01*
X124481805Y-82306555D01*
X124433000Y-82551916D01*
X124433000Y-82802084D01*
X124481805Y-83047445D01*
X124577541Y-83278571D01*
X124716527Y-83486578D01*
X124893422Y-83663473D01*
X124913667Y-83677000D01*
X124893422Y-83690527D01*
X124716527Y-83867422D01*
X124577541Y-84075429D01*
X124481805Y-84306555D01*
X124433000Y-84551916D01*
X124433000Y-84802084D01*
X124481805Y-85047445D01*
X124577541Y-85278571D01*
X124702934Y-85466235D01*
X124657405Y-85490571D01*
X124580052Y-85554052D01*
X124516571Y-85631405D01*
X124469399Y-85719657D01*
X124440351Y-85815415D01*
X124430543Y-85915000D01*
X123790665Y-85915000D01*
X123886306Y-85540626D01*
X123891879Y-85510788D01*
X123899108Y-85472091D01*
X124044156Y-84261201D01*
X124046288Y-84221580D01*
X124047903Y-84191582D01*
X124033658Y-82972119D01*
X124028285Y-82902607D01*
X124028285Y-82902606D01*
X123854989Y-81695436D01*
X123840590Y-81627220D01*
X123748789Y-81299954D01*
X123747374Y-80639591D01*
X124427402Y-80639591D01*
X124444614Y-80889167D01*
X124510185Y-81130588D01*
X124621595Y-81354580D01*
X124663163Y-81416788D01*
X124881501Y-81480538D01*
X125685039Y-80677000D01*
X125720961Y-80677000D01*
X126524499Y-81480538D01*
X126742837Y-81416788D01*
X126867183Y-81199711D01*
X126946790Y-80962547D01*
X126978598Y-80714409D01*
X126961386Y-80464833D01*
X126895815Y-80223412D01*
X126784405Y-79999420D01*
X126742837Y-79937212D01*
X126524499Y-79873462D01*
X125720961Y-80677000D01*
X125685039Y-80677000D01*
X124881501Y-79873462D01*
X124663163Y-79937212D01*
X124538817Y-80154289D01*
X124459210Y-80391453D01*
X124427402Y-80639591D01*
X123747374Y-80639591D01*
X123745694Y-79855501D01*
X124899462Y-79855501D01*
X125703000Y-80659039D01*
X126506538Y-79855501D01*
X126488619Y-79794130D01*
X129736040Y-79794130D01*
X129736040Y-80145350D01*
X129804560Y-80489822D01*
X129938966Y-80814307D01*
X130134094Y-81106336D01*
X130382444Y-81354686D01*
X130674473Y-81549814D01*
X130998958Y-81684220D01*
X131343430Y-81752740D01*
X131694650Y-81752740D01*
X132039122Y-81684220D01*
X132363607Y-81549814D01*
X132655636Y-81354686D01*
X132903986Y-81106336D01*
X133099114Y-80814307D01*
X133233520Y-80489822D01*
X133302040Y-80145350D01*
X133302040Y-79794130D01*
X145976040Y-79794130D01*
X145976040Y-80145350D01*
X146044560Y-80489822D01*
X146178966Y-80814307D01*
X146374094Y-81106336D01*
X146622444Y-81354686D01*
X146914473Y-81549814D01*
X147238958Y-81684220D01*
X147583430Y-81752740D01*
X147934650Y-81752740D01*
X148279122Y-81684220D01*
X148603607Y-81549814D01*
X148895636Y-81354686D01*
X149143986Y-81106336D01*
X149339114Y-80814307D01*
X149473520Y-80489822D01*
X149542040Y-80145350D01*
X149542040Y-79794130D01*
X149473520Y-79449658D01*
X149339114Y-79125173D01*
X149143986Y-78833144D01*
X148895636Y-78584794D01*
X148603607Y-78389666D01*
X148279122Y-78255260D01*
X147934650Y-78186740D01*
X147583430Y-78186740D01*
X147238958Y-78255260D01*
X146914473Y-78389666D01*
X146622444Y-78584794D01*
X146374094Y-78833144D01*
X146178966Y-79125173D01*
X146044560Y-79449658D01*
X145976040Y-79794130D01*
X133302040Y-79794130D01*
X133233520Y-79449658D01*
X133099114Y-79125173D01*
X132903986Y-78833144D01*
X132655636Y-78584794D01*
X132363607Y-78389666D01*
X132039122Y-78255260D01*
X131694650Y-78186740D01*
X131343430Y-78186740D01*
X130998958Y-78255260D01*
X130674473Y-78389666D01*
X130382444Y-78584794D01*
X130134094Y-78833144D01*
X129938966Y-79125173D01*
X129804560Y-79449658D01*
X129736040Y-79794130D01*
X126488619Y-79794130D01*
X126442788Y-79637163D01*
X126225711Y-79512817D01*
X125988547Y-79433210D01*
X125740409Y-79401402D01*
X125490833Y-79418614D01*
X125249412Y-79484185D01*
X125025420Y-79595595D01*
X124963212Y-79637163D01*
X124899462Y-79855501D01*
X123745694Y-79855501D01*
X123737276Y-75929112D01*
X123945928Y-75720460D01*
X124138319Y-75432525D01*
X124270841Y-75112590D01*
X124338400Y-74772948D01*
X124338400Y-74426652D01*
X124270841Y-74087010D01*
X124138319Y-73767075D01*
X123945928Y-73479140D01*
X123731564Y-73264776D01*
X123724281Y-69867207D01*
X124262959Y-69561522D01*
X126305066Y-68579871D01*
X127131399Y-68249800D01*
X135446400Y-68249800D01*
X135446400Y-76657800D01*
G37*
X135446400Y-76657800D02*
X135448840Y-76682576D01*
X135456067Y-76706401D01*
X135467803Y-76728357D01*
X135483597Y-76747603D01*
X135502843Y-76763397D01*
X135524799Y-76775133D01*
X135548624Y-76782360D01*
X135573400Y-76784800D01*
X147073400Y-76784800D01*
X147098176Y-76782360D01*
X147122001Y-76775133D01*
X147143957Y-76763397D01*
X147163203Y-76747603D01*
X147178997Y-76728357D01*
X147190733Y-76706401D01*
X147197960Y-76682576D01*
X147200400Y-76657800D01*
X147200400Y-68249800D01*
X152282120Y-68249800D01*
X152749588Y-68430427D01*
X154802650Y-69388929D01*
X155600400Y-69829787D01*
X155600400Y-73332812D01*
X155454072Y-73479140D01*
X155261681Y-73767075D01*
X155129159Y-74087010D01*
X155061600Y-74426652D01*
X155061600Y-74772948D01*
X155129159Y-75112590D01*
X155261681Y-75432525D01*
X155454072Y-75720460D01*
X155600400Y-75866788D01*
X155600400Y-81458569D01*
X155588092Y-81500683D01*
X155572953Y-81568738D01*
X155384976Y-82784203D01*
X155378849Y-82853653D01*
X155351130Y-84083255D01*
X155352797Y-84122069D01*
X155354121Y-84152910D01*
X155487135Y-85375611D01*
X155499192Y-85444280D01*
X155600400Y-85859181D01*
X155600400Y-102864826D01*
X155499397Y-102763823D01*
X155375248Y-102680869D01*
X155237301Y-102623729D01*
X155090857Y-102594600D01*
X154941543Y-102594600D01*
X154795099Y-102623729D01*
X154657152Y-102680869D01*
X154533003Y-102763823D01*
X154427423Y-102869403D01*
X154344469Y-102993552D01*
X154287329Y-103131499D01*
X154258200Y-103277943D01*
X154258200Y-103427257D01*
X154287329Y-103573701D01*
X154344469Y-103711648D01*
X154427423Y-103835797D01*
X154533003Y-103941377D01*
X154657152Y-104024331D01*
X154795099Y-104081471D01*
X154941543Y-104110600D01*
X155090857Y-104110600D01*
X155237301Y-104081471D01*
X155375248Y-104024331D01*
X155499397Y-103941377D01*
X155600400Y-103840374D01*
X155600400Y-112206622D01*
X155401600Y-113375525D01*
X155394809Y-113441223D01*
X155394431Y-113444875D01*
X155348228Y-114674330D01*
X155350172Y-114744022D01*
X155464840Y-115968989D01*
X155464840Y-115968990D01*
X155475864Y-116037832D01*
X155600400Y-116583871D01*
X155600400Y-122235432D01*
X155446452Y-122389380D01*
X155254061Y-122677315D01*
X155121539Y-122997250D01*
X155053980Y-123336892D01*
X155053980Y-123683188D01*
X155121539Y-124022830D01*
X155254061Y-124342765D01*
X155446452Y-124630700D01*
X155600400Y-124784648D01*
X155600400Y-128302139D01*
X155221945Y-128518315D01*
X153182374Y-129505832D01*
X151080383Y-130352331D01*
X150298846Y-130606800D01*
X129066926Y-130606800D01*
X128851313Y-130540614D01*
X127334186Y-129959315D01*
X130350985Y-129959315D01*
X130476249Y-130230185D01*
X130780510Y-130405630D01*
X131113152Y-130518345D01*
X131461393Y-130563999D01*
X131811849Y-130540838D01*
X132151052Y-130449751D01*
X132465967Y-130294239D01*
X132561831Y-130230185D01*
X132687095Y-129959315D01*
X131519040Y-128791261D01*
X130350985Y-129959315D01*
X127334186Y-129959315D01*
X126735270Y-129729836D01*
X124679276Y-128777015D01*
X124567496Y-128715653D01*
X129728341Y-128715653D01*
X129751502Y-129066109D01*
X129842589Y-129405312D01*
X129998101Y-129720227D01*
X130062155Y-129816091D01*
X130333025Y-129941355D01*
X131501079Y-128773300D01*
X131537001Y-128773300D01*
X132705055Y-129941355D01*
X132975925Y-129816091D01*
X133151370Y-129511830D01*
X133264085Y-129179188D01*
X133309739Y-128830947D01*
X133294324Y-128597690D01*
X145976040Y-128597690D01*
X145976040Y-128948910D01*
X146044560Y-129293382D01*
X146178966Y-129617867D01*
X146374094Y-129909896D01*
X146622444Y-130158246D01*
X146914473Y-130353374D01*
X147238958Y-130487780D01*
X147583430Y-130556300D01*
X147934650Y-130556300D01*
X148279122Y-130487780D01*
X148603607Y-130353374D01*
X148895636Y-130158246D01*
X149143986Y-129909896D01*
X149339114Y-129617867D01*
X149473520Y-129293382D01*
X149542040Y-128948910D01*
X149542040Y-128597690D01*
X149473520Y-128253218D01*
X149339114Y-127928733D01*
X149143986Y-127636704D01*
X148895636Y-127388354D01*
X148603607Y-127193226D01*
X148279122Y-127058820D01*
X147934650Y-126990300D01*
X147583430Y-126990300D01*
X147238958Y-127058820D01*
X146914473Y-127193226D01*
X146622444Y-127388354D01*
X146374094Y-127636704D01*
X146178966Y-127928733D01*
X146044560Y-128253218D01*
X145976040Y-128597690D01*
X133294324Y-128597690D01*
X133286578Y-128480491D01*
X133195491Y-128141288D01*
X133039979Y-127826373D01*
X132975925Y-127730509D01*
X132705055Y-127605245D01*
X131537001Y-128773300D01*
X131501079Y-128773300D01*
X130333025Y-127605245D01*
X130062155Y-127730509D01*
X129886710Y-128034770D01*
X129773995Y-128367412D01*
X129728341Y-128715653D01*
X124567496Y-128715653D01*
X123849586Y-128321554D01*
X123848013Y-127587285D01*
X130350985Y-127587285D01*
X131519040Y-128755339D01*
X132687095Y-127587285D01*
X132561831Y-127316415D01*
X132257570Y-127140970D01*
X131924928Y-127028255D01*
X131576687Y-126982601D01*
X131226231Y-127005762D01*
X130887028Y-127096849D01*
X130572113Y-127252361D01*
X130476249Y-127316415D01*
X130350985Y-127587285D01*
X123848013Y-127587285D01*
X123843054Y-125274343D01*
X128299400Y-125274343D01*
X128299400Y-125423657D01*
X128328529Y-125570101D01*
X128385669Y-125708048D01*
X128468623Y-125832197D01*
X128574203Y-125937777D01*
X128698352Y-126020731D01*
X128836299Y-126077871D01*
X128982743Y-126107000D01*
X129132057Y-126107000D01*
X129278501Y-126077871D01*
X129416448Y-126020731D01*
X129540597Y-125937777D01*
X129646177Y-125832197D01*
X129729131Y-125708048D01*
X129786271Y-125570101D01*
X129815400Y-125423657D01*
X129815400Y-125274343D01*
X129786271Y-125127899D01*
X129729131Y-124989952D01*
X129646177Y-124865803D01*
X129540597Y-124760223D01*
X129416448Y-124677269D01*
X129278501Y-124620129D01*
X129132057Y-124591000D01*
X128982743Y-124591000D01*
X128836299Y-124620129D01*
X128698352Y-124677269D01*
X128574203Y-124760223D01*
X128468623Y-124865803D01*
X128385669Y-124989952D01*
X128328529Y-125127899D01*
X128299400Y-125274343D01*
X123843054Y-125274343D01*
X123841913Y-124742335D01*
X123953548Y-124630700D01*
X124145939Y-124342765D01*
X124254555Y-124080543D01*
X145063400Y-124080543D01*
X145063400Y-124229857D01*
X145092529Y-124376301D01*
X145149669Y-124514248D01*
X145232623Y-124638397D01*
X145333626Y-124739400D01*
X145258023Y-124815003D01*
X145175069Y-124939152D01*
X145117929Y-125077099D01*
X145088800Y-125223543D01*
X145088800Y-125372857D01*
X145117929Y-125519301D01*
X145175069Y-125657248D01*
X145258023Y-125781397D01*
X145363603Y-125886977D01*
X145487752Y-125969931D01*
X145625699Y-126027071D01*
X145772143Y-126056200D01*
X145921457Y-126056200D01*
X146067901Y-126027071D01*
X146205848Y-125969931D01*
X146329997Y-125886977D01*
X146435577Y-125781397D01*
X146518531Y-125657248D01*
X146575671Y-125519301D01*
X146604800Y-125372857D01*
X146604800Y-125223543D01*
X146575671Y-125077099D01*
X146518531Y-124939152D01*
X146435577Y-124815003D01*
X146334574Y-124714000D01*
X146410177Y-124638397D01*
X146493131Y-124514248D01*
X146550271Y-124376301D01*
X146579400Y-124229857D01*
X146579400Y-124080543D01*
X146550271Y-123934099D01*
X146493131Y-123796152D01*
X146410177Y-123672003D01*
X146304597Y-123566423D01*
X146180448Y-123483469D01*
X146042501Y-123426329D01*
X145896057Y-123397200D01*
X145746743Y-123397200D01*
X145600299Y-123426329D01*
X145462352Y-123483469D01*
X145338203Y-123566423D01*
X145232623Y-123672003D01*
X145149669Y-123796152D01*
X145092529Y-123934099D01*
X145063400Y-124080543D01*
X124254555Y-124080543D01*
X124278461Y-124022830D01*
X124346020Y-123683188D01*
X124346020Y-123336892D01*
X124278461Y-122997250D01*
X124145939Y-122677315D01*
X123953548Y-122389380D01*
X123903483Y-122339315D01*
X130350985Y-122339315D01*
X130476249Y-122610185D01*
X130780510Y-122785630D01*
X131113152Y-122898345D01*
X131461393Y-122943999D01*
X131811849Y-122920838D01*
X132151052Y-122829751D01*
X132465967Y-122674239D01*
X132561831Y-122610185D01*
X132687095Y-122339315D01*
X131519040Y-121171261D01*
X130350985Y-122339315D01*
X123903483Y-122339315D01*
X123836619Y-122272451D01*
X123834097Y-121095653D01*
X129728341Y-121095653D01*
X129751502Y-121446109D01*
X129842589Y-121785312D01*
X129998101Y-122100227D01*
X130062155Y-122196091D01*
X130333025Y-122321355D01*
X131501079Y-121153300D01*
X131537001Y-121153300D01*
X132705055Y-122321355D01*
X132975925Y-122196091D01*
X133151370Y-121891830D01*
X133264085Y-121559188D01*
X133309739Y-121210947D01*
X133294324Y-120977690D01*
X145976040Y-120977690D01*
X145976040Y-121328910D01*
X146044560Y-121673382D01*
X146178966Y-121997867D01*
X146374094Y-122289896D01*
X146622444Y-122538246D01*
X146914473Y-122733374D01*
X147238958Y-122867780D01*
X147583430Y-122936300D01*
X147934650Y-122936300D01*
X148279122Y-122867780D01*
X148603607Y-122733374D01*
X148895636Y-122538246D01*
X149143986Y-122289896D01*
X149339114Y-121997867D01*
X149473520Y-121673382D01*
X149542040Y-121328910D01*
X149542040Y-120977690D01*
X149473520Y-120633218D01*
X149339114Y-120308733D01*
X149143986Y-120016704D01*
X148895636Y-119768354D01*
X148603607Y-119573226D01*
X148279122Y-119438820D01*
X147934650Y-119370300D01*
X147583430Y-119370300D01*
X147238958Y-119438820D01*
X146914473Y-119573226D01*
X146622444Y-119768354D01*
X146374094Y-120016704D01*
X146178966Y-120308733D01*
X146044560Y-120633218D01*
X145976040Y-120977690D01*
X133294324Y-120977690D01*
X133286578Y-120860491D01*
X133195491Y-120521288D01*
X133039979Y-120206373D01*
X132975925Y-120110509D01*
X132705055Y-119985245D01*
X131537001Y-121153300D01*
X131501079Y-121153300D01*
X130333025Y-119985245D01*
X130062155Y-120110509D01*
X129886710Y-120414770D01*
X129773995Y-120747412D01*
X129728341Y-121095653D01*
X123834097Y-121095653D01*
X123831678Y-119967285D01*
X130350985Y-119967285D01*
X131519040Y-121135339D01*
X132687095Y-119967285D01*
X132561831Y-119696415D01*
X132257570Y-119520970D01*
X131924928Y-119408255D01*
X131576687Y-119362601D01*
X131226231Y-119385762D01*
X130887028Y-119476849D01*
X130572113Y-119632361D01*
X130476249Y-119696415D01*
X130350985Y-119967285D01*
X123831678Y-119967285D01*
X123827340Y-117943826D01*
X126632760Y-117943826D01*
X126632760Y-118088214D01*
X126660928Y-118229828D01*
X126716184Y-118363226D01*
X126796401Y-118483280D01*
X126898500Y-118585379D01*
X127018554Y-118665596D01*
X127151952Y-118720852D01*
X127293566Y-118749020D01*
X127437954Y-118749020D01*
X127579568Y-118720852D01*
X127712966Y-118665596D01*
X127833020Y-118585379D01*
X127843298Y-118575101D01*
X131511145Y-118575101D01*
X131511145Y-118719489D01*
X131539313Y-118861103D01*
X131594569Y-118994501D01*
X131674786Y-119114555D01*
X131776885Y-119216654D01*
X131896939Y-119296871D01*
X132030337Y-119352127D01*
X132171951Y-119380295D01*
X132316339Y-119380295D01*
X132457953Y-119352127D01*
X132591351Y-119296871D01*
X132711405Y-119216654D01*
X132813504Y-119114555D01*
X132893721Y-118994501D01*
X132948977Y-118861103D01*
X132977145Y-118719489D01*
X132977145Y-118575101D01*
X132948977Y-118433487D01*
X132893721Y-118300089D01*
X132835626Y-118213143D01*
X137214800Y-118213143D01*
X137214800Y-118362457D01*
X137243929Y-118508901D01*
X137301069Y-118646848D01*
X137384023Y-118770997D01*
X137489603Y-118876577D01*
X137613752Y-118959531D01*
X137751699Y-119016671D01*
X137898143Y-119045800D01*
X138026973Y-119045800D01*
X138031329Y-119067701D01*
X138088469Y-119205648D01*
X138171423Y-119329797D01*
X138277003Y-119435377D01*
X138401152Y-119518331D01*
X138539099Y-119575471D01*
X138685543Y-119604600D01*
X138834857Y-119604600D01*
X138981301Y-119575471D01*
X139119248Y-119518331D01*
X139243397Y-119435377D01*
X139348977Y-119329797D01*
X139431931Y-119205648D01*
X139489071Y-119067701D01*
X139518200Y-118921257D01*
X139518200Y-118771943D01*
X139489071Y-118625499D01*
X139431931Y-118487552D01*
X139348977Y-118363403D01*
X139243397Y-118257823D01*
X139119248Y-118174869D01*
X138981301Y-118117729D01*
X138834857Y-118088600D01*
X138706027Y-118088600D01*
X138701671Y-118066699D01*
X138644531Y-117928752D01*
X138561577Y-117804603D01*
X138455997Y-117699023D01*
X138331848Y-117616069D01*
X138193901Y-117558929D01*
X138047457Y-117529800D01*
X137898143Y-117529800D01*
X137751699Y-117558929D01*
X137613752Y-117616069D01*
X137489603Y-117699023D01*
X137384023Y-117804603D01*
X137301069Y-117928752D01*
X137243929Y-118066699D01*
X137214800Y-118213143D01*
X132835626Y-118213143D01*
X132813504Y-118180035D01*
X132711405Y-118077936D01*
X132591351Y-117997719D01*
X132457953Y-117942463D01*
X132316339Y-117914295D01*
X132171951Y-117914295D01*
X132030337Y-117942463D01*
X131896939Y-117997719D01*
X131776885Y-118077936D01*
X131674786Y-118180035D01*
X131594569Y-118300089D01*
X131539313Y-118433487D01*
X131511145Y-118575101D01*
X127843298Y-118575101D01*
X127935119Y-118483280D01*
X128015336Y-118363226D01*
X128070592Y-118229828D01*
X128098760Y-118088214D01*
X128098760Y-117943826D01*
X128070592Y-117802212D01*
X128015336Y-117668814D01*
X127935119Y-117548760D01*
X127833020Y-117446661D01*
X127712966Y-117366444D01*
X127579568Y-117311188D01*
X127437954Y-117283020D01*
X127293566Y-117283020D01*
X127151952Y-117311188D01*
X127018554Y-117366444D01*
X126898500Y-117446661D01*
X126796401Y-117548760D01*
X126716184Y-117668814D01*
X126660928Y-117802212D01*
X126632760Y-117943826D01*
X123827340Y-117943826D01*
X123824488Y-116612943D01*
X132338000Y-116612943D01*
X132338000Y-116762257D01*
X132367129Y-116908701D01*
X132424269Y-117046648D01*
X132507223Y-117170797D01*
X132612803Y-117276377D01*
X132736952Y-117359331D01*
X132874899Y-117416471D01*
X133021343Y-117445600D01*
X133170657Y-117445600D01*
X133317101Y-117416471D01*
X133455048Y-117359331D01*
X133579197Y-117276377D01*
X133684777Y-117170797D01*
X133767731Y-117046648D01*
X133824871Y-116908701D01*
X133854000Y-116762257D01*
X133854000Y-116612943D01*
X133824871Y-116466499D01*
X133767731Y-116328552D01*
X133684777Y-116204403D01*
X133579197Y-116098823D01*
X133455048Y-116015869D01*
X133317101Y-115958729D01*
X133170657Y-115929600D01*
X133021343Y-115929600D01*
X132874899Y-115958729D01*
X132736952Y-116015869D01*
X132612803Y-116098823D01*
X132507223Y-116204403D01*
X132424269Y-116328552D01*
X132367129Y-116466499D01*
X132338000Y-116612943D01*
X123824488Y-116612943D01*
X123824164Y-116462256D01*
X123968258Y-115726151D01*
X123977148Y-115657000D01*
X123984710Y-115535983D01*
X126574740Y-115535983D01*
X126574740Y-115685297D01*
X126603869Y-115831741D01*
X126661009Y-115969688D01*
X126743963Y-116093837D01*
X126849543Y-116199417D01*
X126973692Y-116282371D01*
X127111639Y-116339511D01*
X127258083Y-116368640D01*
X127407397Y-116368640D01*
X127553841Y-116339511D01*
X127691788Y-116282371D01*
X127815937Y-116199417D01*
X127921517Y-116093837D01*
X128004471Y-115969688D01*
X128061611Y-115831741D01*
X128090740Y-115685297D01*
X128090740Y-115535983D01*
X128072552Y-115444543D01*
X130229800Y-115444543D01*
X130229800Y-115593857D01*
X130258929Y-115740301D01*
X130316069Y-115878248D01*
X130399023Y-116002397D01*
X130504603Y-116107977D01*
X130628752Y-116190931D01*
X130766699Y-116248071D01*
X130913143Y-116277200D01*
X131062457Y-116277200D01*
X131208901Y-116248071D01*
X131346848Y-116190931D01*
X131470997Y-116107977D01*
X131576577Y-116002397D01*
X131659531Y-115878248D01*
X131716671Y-115740301D01*
X131745800Y-115593857D01*
X131745800Y-115444543D01*
X131716671Y-115298099D01*
X131659531Y-115160152D01*
X131576577Y-115036003D01*
X131470997Y-114930423D01*
X131346848Y-114847469D01*
X131208901Y-114790329D01*
X131062457Y-114761200D01*
X130913143Y-114761200D01*
X130766699Y-114790329D01*
X130628752Y-114847469D01*
X130504603Y-114930423D01*
X130399023Y-115036003D01*
X130316069Y-115160152D01*
X130258929Y-115298099D01*
X130229800Y-115444543D01*
X128072552Y-115444543D01*
X128061611Y-115389539D01*
X128004471Y-115251592D01*
X127921517Y-115127443D01*
X127815937Y-115021863D01*
X127691788Y-114938909D01*
X127553841Y-114881769D01*
X127407397Y-114852640D01*
X127258083Y-114852640D01*
X127111639Y-114881769D01*
X126973692Y-114938909D01*
X126849543Y-115021863D01*
X126743963Y-115127443D01*
X126661009Y-115251592D01*
X126603869Y-115389539D01*
X126574740Y-115535983D01*
X123984710Y-115535983D01*
X124053707Y-114431844D01*
X124053495Y-114362125D01*
X124040797Y-114177006D01*
X131474000Y-114177006D01*
X131474000Y-114321394D01*
X131502168Y-114463008D01*
X131557424Y-114596406D01*
X131637641Y-114716460D01*
X131739740Y-114818559D01*
X131859794Y-114898776D01*
X131993192Y-114954032D01*
X132134806Y-114982200D01*
X132279194Y-114982200D01*
X132420808Y-114954032D01*
X132554206Y-114898776D01*
X132674260Y-114818559D01*
X132776359Y-114716460D01*
X132856576Y-114596406D01*
X132911832Y-114463008D01*
X132940000Y-114321394D01*
X132940000Y-114177006D01*
X132911832Y-114035392D01*
X132882817Y-113965343D01*
X142832000Y-113965343D01*
X142832000Y-114114657D01*
X142861129Y-114261101D01*
X142918269Y-114399048D01*
X143001223Y-114523197D01*
X143106803Y-114628777D01*
X143230952Y-114711731D01*
X143368899Y-114768871D01*
X143515343Y-114798000D01*
X143664657Y-114798000D01*
X143811101Y-114768871D01*
X143949048Y-114711731D01*
X143977483Y-114692731D01*
X143990952Y-114701731D01*
X144128899Y-114758871D01*
X144275343Y-114788000D01*
X144424657Y-114788000D01*
X144571101Y-114758871D01*
X144709048Y-114701731D01*
X144762449Y-114666049D01*
X144770952Y-114671731D01*
X144908899Y-114728871D01*
X145055343Y-114758000D01*
X145204657Y-114758000D01*
X145351101Y-114728871D01*
X145489048Y-114671731D01*
X145613197Y-114588777D01*
X145718777Y-114483197D01*
X145801731Y-114359048D01*
X145858871Y-114221101D01*
X145888000Y-114074657D01*
X145888000Y-113925343D01*
X145858871Y-113778899D01*
X145801731Y-113640952D01*
X145718777Y-113516803D01*
X145613197Y-113411223D01*
X145489048Y-113328269D01*
X145351101Y-113271129D01*
X145204657Y-113242000D01*
X145055343Y-113242000D01*
X144908899Y-113271129D01*
X144770952Y-113328269D01*
X144717551Y-113363951D01*
X144709048Y-113358269D01*
X144571101Y-113301129D01*
X144424657Y-113272000D01*
X144275343Y-113272000D01*
X144128899Y-113301129D01*
X143990952Y-113358269D01*
X143962517Y-113377269D01*
X143949048Y-113368269D01*
X143811101Y-113311129D01*
X143664657Y-113282000D01*
X143515343Y-113282000D01*
X143368899Y-113311129D01*
X143230952Y-113368269D01*
X143106803Y-113451223D01*
X143001223Y-113556803D01*
X142918269Y-113680952D01*
X142861129Y-113818899D01*
X142832000Y-113965343D01*
X132882817Y-113965343D01*
X132856576Y-113901994D01*
X132776359Y-113781940D01*
X132674260Y-113679841D01*
X132554206Y-113599624D01*
X132420808Y-113544368D01*
X132279194Y-113516200D01*
X132134806Y-113516200D01*
X131993192Y-113544368D01*
X131859794Y-113599624D01*
X131739740Y-113679841D01*
X131637641Y-113781940D01*
X131557424Y-113901994D01*
X131502168Y-114035392D01*
X131474000Y-114177006D01*
X124040797Y-114177006D01*
X123969485Y-113137458D01*
X123968488Y-113130057D01*
X123960175Y-113068362D01*
X123942470Y-112980743D01*
X126597600Y-112980743D01*
X126597600Y-113130057D01*
X126626729Y-113276501D01*
X126683869Y-113414448D01*
X126766823Y-113538597D01*
X126872403Y-113644177D01*
X126996552Y-113727131D01*
X127134499Y-113784271D01*
X127280943Y-113813400D01*
X127430257Y-113813400D01*
X127576701Y-113784271D01*
X127714648Y-113727131D01*
X127838797Y-113644177D01*
X127944377Y-113538597D01*
X128027331Y-113414448D01*
X128084471Y-113276501D01*
X128113600Y-113130057D01*
X128113600Y-112980743D01*
X128084471Y-112834299D01*
X128027331Y-112696352D01*
X127944377Y-112572203D01*
X127838797Y-112466623D01*
X127832697Y-112462547D01*
X127856597Y-112446577D01*
X127962177Y-112340997D01*
X128045131Y-112216848D01*
X128102271Y-112078901D01*
X128131400Y-111932457D01*
X128131400Y-111783143D01*
X128128985Y-111771001D01*
X130482433Y-111771001D01*
X130482433Y-111915389D01*
X130510601Y-112057003D01*
X130565857Y-112190401D01*
X130646074Y-112310455D01*
X130748173Y-112412554D01*
X130868227Y-112492771D01*
X131001625Y-112548027D01*
X131143239Y-112576195D01*
X131287627Y-112576195D01*
X131429241Y-112548027D01*
X131562639Y-112492771D01*
X131682693Y-112412554D01*
X131784792Y-112310455D01*
X131865009Y-112190401D01*
X131920265Y-112057003D01*
X131948433Y-111915389D01*
X131948433Y-111883143D01*
X133415400Y-111883143D01*
X133415400Y-112032457D01*
X133444529Y-112178901D01*
X133501669Y-112316848D01*
X133529032Y-112357800D01*
X133501669Y-112398752D01*
X133444529Y-112536699D01*
X133415400Y-112683143D01*
X133415400Y-112832457D01*
X133444529Y-112978901D01*
X133501669Y-113116848D01*
X133584623Y-113240997D01*
X133690203Y-113346577D01*
X133814352Y-113429531D01*
X133952299Y-113486671D01*
X134098743Y-113515800D01*
X134248057Y-113515800D01*
X134394501Y-113486671D01*
X134532448Y-113429531D01*
X134656597Y-113346577D01*
X134762177Y-113240997D01*
X134845131Y-113116848D01*
X134902271Y-112978901D01*
X134931400Y-112832457D01*
X134931400Y-112702405D01*
X134998743Y-112715800D01*
X135148057Y-112715800D01*
X135215400Y-112702405D01*
X135215400Y-112832457D01*
X135244529Y-112978901D01*
X135301669Y-113116848D01*
X135384623Y-113240997D01*
X135490203Y-113346577D01*
X135614352Y-113429531D01*
X135752299Y-113486671D01*
X135898743Y-113515800D01*
X136048057Y-113515800D01*
X136194501Y-113486671D01*
X136332448Y-113429531D01*
X136456597Y-113346577D01*
X136473400Y-113329774D01*
X136490203Y-113346577D01*
X136614352Y-113429531D01*
X136752299Y-113486671D01*
X136898743Y-113515800D01*
X137048057Y-113515800D01*
X137194501Y-113486671D01*
X137332448Y-113429531D01*
X137456597Y-113346577D01*
X137562177Y-113240997D01*
X137645131Y-113116848D01*
X137702271Y-112978901D01*
X137731400Y-112832457D01*
X137731400Y-112683143D01*
X137702271Y-112536699D01*
X137686914Y-112499624D01*
X145854441Y-112499624D01*
X145854441Y-112644012D01*
X145882609Y-112785626D01*
X145937865Y-112919024D01*
X146018082Y-113039078D01*
X146120181Y-113141177D01*
X146240235Y-113221394D01*
X146373633Y-113276650D01*
X146466267Y-113295075D01*
X146508914Y-113398034D01*
X146589131Y-113518088D01*
X146691230Y-113620187D01*
X146811284Y-113700404D01*
X146944682Y-113755660D01*
X147086296Y-113783828D01*
X147230684Y-113783828D01*
X147372298Y-113755660D01*
X147505696Y-113700404D01*
X147625750Y-113620187D01*
X147727849Y-113518088D01*
X147808066Y-113398034D01*
X147863322Y-113264636D01*
X147891490Y-113123022D01*
X147891490Y-112978634D01*
X147863322Y-112837020D01*
X147808066Y-112703622D01*
X147727849Y-112583568D01*
X147625750Y-112481469D01*
X147505696Y-112401252D01*
X147372298Y-112345996D01*
X147279664Y-112327571D01*
X147237017Y-112224612D01*
X147156800Y-112104558D01*
X147054701Y-112002459D01*
X146934647Y-111922242D01*
X146801249Y-111866986D01*
X146659635Y-111838818D01*
X146515247Y-111838818D01*
X146373633Y-111866986D01*
X146240235Y-111922242D01*
X146120181Y-112002459D01*
X146018082Y-112104558D01*
X145937865Y-112224612D01*
X145882609Y-112358010D01*
X145854441Y-112499624D01*
X137686914Y-112499624D01*
X137645131Y-112398752D01*
X137562177Y-112274603D01*
X137561447Y-112273873D01*
X137568243Y-112257465D01*
X137597372Y-112111021D01*
X137597372Y-111961707D01*
X137568243Y-111815263D01*
X137511103Y-111677316D01*
X137428149Y-111553167D01*
X137322569Y-111447587D01*
X137260245Y-111405943D01*
X139754800Y-111405943D01*
X139754800Y-111555257D01*
X139783929Y-111701701D01*
X139841069Y-111839648D01*
X139924023Y-111963797D01*
X140029603Y-112069377D01*
X140153752Y-112152331D01*
X140291699Y-112209471D01*
X140438143Y-112238600D01*
X140587457Y-112238600D01*
X140733901Y-112209471D01*
X140871848Y-112152331D01*
X140995997Y-112069377D01*
X141101577Y-111963797D01*
X141184531Y-111839648D01*
X141241671Y-111701701D01*
X141270800Y-111555257D01*
X141270800Y-111405943D01*
X141241671Y-111259499D01*
X141184531Y-111121552D01*
X141101577Y-110997403D01*
X140995997Y-110891823D01*
X140871848Y-110808869D01*
X140733901Y-110751729D01*
X140587457Y-110722600D01*
X140438143Y-110722600D01*
X140291699Y-110751729D01*
X140153752Y-110808869D01*
X140029603Y-110891823D01*
X139924023Y-110997403D01*
X139841069Y-111121552D01*
X139783929Y-111259499D01*
X139754800Y-111405943D01*
X137260245Y-111405943D01*
X137198420Y-111364633D01*
X137060473Y-111307493D01*
X136914029Y-111278364D01*
X136764715Y-111278364D01*
X136618271Y-111307493D01*
X136480324Y-111364633D01*
X136463469Y-111375895D01*
X136456597Y-111369023D01*
X136332448Y-111286069D01*
X136194501Y-111228929D01*
X136048057Y-111199800D01*
X135898743Y-111199800D01*
X135752299Y-111228929D01*
X135614352Y-111286069D01*
X135523400Y-111346841D01*
X135432448Y-111286069D01*
X135294501Y-111228929D01*
X135148057Y-111199800D01*
X134998743Y-111199800D01*
X134852299Y-111228929D01*
X134714352Y-111286069D01*
X134623400Y-111346841D01*
X134532448Y-111286069D01*
X134394501Y-111228929D01*
X134248057Y-111199800D01*
X134098743Y-111199800D01*
X133952299Y-111228929D01*
X133814352Y-111286069D01*
X133690203Y-111369023D01*
X133584623Y-111474603D01*
X133501669Y-111598752D01*
X133444529Y-111736699D01*
X133415400Y-111883143D01*
X131948433Y-111883143D01*
X131948433Y-111771001D01*
X131920265Y-111629387D01*
X131865009Y-111495989D01*
X131784792Y-111375935D01*
X131682693Y-111273836D01*
X131562639Y-111193619D01*
X131429241Y-111138363D01*
X131287627Y-111110195D01*
X131143239Y-111110195D01*
X131001625Y-111138363D01*
X130868227Y-111193619D01*
X130748173Y-111273836D01*
X130646074Y-111375935D01*
X130565857Y-111495989D01*
X130510601Y-111629387D01*
X130482433Y-111771001D01*
X128128985Y-111771001D01*
X128102271Y-111636699D01*
X128045131Y-111498752D01*
X127962177Y-111374603D01*
X127856597Y-111269023D01*
X127732448Y-111186069D01*
X127594501Y-111128929D01*
X127448057Y-111099800D01*
X127298743Y-111099800D01*
X127152299Y-111128929D01*
X127014352Y-111186069D01*
X126890203Y-111269023D01*
X126784623Y-111374603D01*
X126701669Y-111498752D01*
X126644529Y-111636699D01*
X126615400Y-111783143D01*
X126615400Y-111932457D01*
X126644529Y-112078901D01*
X126701669Y-112216848D01*
X126784623Y-112340997D01*
X126890203Y-112446577D01*
X126896303Y-112450653D01*
X126872403Y-112466623D01*
X126766823Y-112572203D01*
X126683869Y-112696352D01*
X126626729Y-112834299D01*
X126597600Y-112980743D01*
X123942470Y-112980743D01*
X123815352Y-112351691D01*
X123810989Y-110316338D01*
X131919789Y-110316338D01*
X131919789Y-110460726D01*
X131947957Y-110602340D01*
X132003213Y-110735738D01*
X132083430Y-110855792D01*
X132185529Y-110957891D01*
X132305583Y-111038108D01*
X132438981Y-111093364D01*
X132580595Y-111121532D01*
X132724983Y-111121532D01*
X132866597Y-111093364D01*
X132999995Y-111038108D01*
X133120049Y-110957891D01*
X133222148Y-110855792D01*
X133302365Y-110735738D01*
X133312766Y-110710629D01*
X133332907Y-110706623D01*
X133466305Y-110651367D01*
X133586359Y-110571150D01*
X133688458Y-110469051D01*
X133768675Y-110348997D01*
X133823931Y-110215599D01*
X133852099Y-110073985D01*
X133852099Y-109929597D01*
X133829975Y-109818366D01*
X134798860Y-109818366D01*
X134798860Y-109962754D01*
X134827028Y-110104368D01*
X134882284Y-110237766D01*
X134962501Y-110357820D01*
X135064600Y-110459919D01*
X135184654Y-110540136D01*
X135318052Y-110595392D01*
X135459666Y-110623560D01*
X135604054Y-110623560D01*
X135745668Y-110595392D01*
X135879066Y-110540136D01*
X135999120Y-110459919D01*
X136101219Y-110357820D01*
X136181436Y-110237766D01*
X136227848Y-110125720D01*
X136236514Y-110125720D01*
X136378128Y-110097552D01*
X136511526Y-110042296D01*
X136631580Y-109962079D01*
X136733679Y-109859980D01*
X136813896Y-109739926D01*
X136869152Y-109606528D01*
X136897320Y-109464914D01*
X136897320Y-109320526D01*
X136885700Y-109262106D01*
X144151140Y-109262106D01*
X144151140Y-109406494D01*
X144179308Y-109548108D01*
X144234564Y-109681506D01*
X144314781Y-109801560D01*
X144416880Y-109903659D01*
X144536934Y-109983876D01*
X144670332Y-110039132D01*
X144811946Y-110067300D01*
X144956334Y-110067300D01*
X145097948Y-110039132D01*
X145231346Y-109983876D01*
X145295840Y-109940783D01*
X145341486Y-109986429D01*
X145461540Y-110066646D01*
X145594938Y-110121902D01*
X145736552Y-110150070D01*
X145880940Y-110150070D01*
X146022554Y-110121902D01*
X146155952Y-110066646D01*
X146170084Y-110057203D01*
X152919620Y-110057203D01*
X152919620Y-110206517D01*
X152948749Y-110352961D01*
X153005889Y-110490908D01*
X153088843Y-110615057D01*
X153194423Y-110720637D01*
X153318572Y-110803591D01*
X153456519Y-110860731D01*
X153602963Y-110889860D01*
X153752277Y-110889860D01*
X153898721Y-110860731D01*
X154036668Y-110803591D01*
X154160817Y-110720637D01*
X154174028Y-110707426D01*
X154268532Y-110770571D01*
X154406479Y-110827711D01*
X154552923Y-110856840D01*
X154702237Y-110856840D01*
X154848681Y-110827711D01*
X154986628Y-110770571D01*
X155110777Y-110687617D01*
X155216357Y-110582037D01*
X155299311Y-110457888D01*
X155356451Y-110319941D01*
X155385580Y-110173497D01*
X155385580Y-110024183D01*
X155356451Y-109877739D01*
X155299311Y-109739792D01*
X155216357Y-109615643D01*
X155110777Y-109510063D01*
X154986628Y-109427109D01*
X154848681Y-109369969D01*
X154702237Y-109340840D01*
X154552923Y-109340840D01*
X154406479Y-109369969D01*
X154268532Y-109427109D01*
X154144383Y-109510063D01*
X154131172Y-109523274D01*
X154036668Y-109460129D01*
X153898721Y-109402989D01*
X153752277Y-109373860D01*
X153602963Y-109373860D01*
X153456519Y-109402989D01*
X153318572Y-109460129D01*
X153194423Y-109543083D01*
X153088843Y-109648663D01*
X153005889Y-109772812D01*
X152948749Y-109910759D01*
X152919620Y-110057203D01*
X146170084Y-110057203D01*
X146276006Y-109986429D01*
X146378105Y-109884330D01*
X146458322Y-109764276D01*
X146513578Y-109630878D01*
X146541746Y-109489264D01*
X146541746Y-109344876D01*
X146513578Y-109203262D01*
X146458322Y-109069864D01*
X146378105Y-108949810D01*
X146276006Y-108847711D01*
X146175446Y-108780520D01*
X146251956Y-108729398D01*
X146354055Y-108627299D01*
X146412525Y-108539791D01*
X146462311Y-108589577D01*
X146586460Y-108672531D01*
X146724407Y-108729671D01*
X146870851Y-108758800D01*
X147020165Y-108758800D01*
X147166609Y-108729671D01*
X147304556Y-108672531D01*
X147428705Y-108589577D01*
X147534285Y-108483997D01*
X147617239Y-108359848D01*
X147674379Y-108221901D01*
X147703508Y-108075457D01*
X147703508Y-107926143D01*
X147674379Y-107779699D01*
X147617239Y-107641752D01*
X147534285Y-107517603D01*
X147428705Y-107412023D01*
X147304556Y-107329069D01*
X147166609Y-107271929D01*
X147020165Y-107242800D01*
X146870851Y-107242800D01*
X146724407Y-107271929D01*
X146586460Y-107329069D01*
X146462311Y-107412023D01*
X146356731Y-107517603D01*
X146285493Y-107624217D01*
X146251956Y-107590680D01*
X146131902Y-107510463D01*
X145998504Y-107455207D01*
X145856890Y-107427039D01*
X145712502Y-107427039D01*
X145570888Y-107455207D01*
X145437490Y-107510463D01*
X145317436Y-107590680D01*
X145215337Y-107692779D01*
X145135120Y-107812833D01*
X145079864Y-107946231D01*
X145051696Y-108087845D01*
X145051696Y-108232233D01*
X145079864Y-108373847D01*
X145135120Y-108507245D01*
X145215337Y-108627299D01*
X145317436Y-108729398D01*
X145417996Y-108796589D01*
X145397046Y-108810587D01*
X145351400Y-108764941D01*
X145231346Y-108684724D01*
X145097948Y-108629468D01*
X144956334Y-108601300D01*
X144811946Y-108601300D01*
X144670332Y-108629468D01*
X144536934Y-108684724D01*
X144416880Y-108764941D01*
X144314781Y-108867040D01*
X144234564Y-108987094D01*
X144179308Y-109120492D01*
X144151140Y-109262106D01*
X136885700Y-109262106D01*
X136869152Y-109178912D01*
X136813896Y-109045514D01*
X136733679Y-108925460D01*
X136631580Y-108823361D01*
X136511526Y-108743144D01*
X136378128Y-108687888D01*
X136236514Y-108659720D01*
X136092126Y-108659720D01*
X135950512Y-108687888D01*
X135817114Y-108743144D01*
X135697060Y-108823361D01*
X135594961Y-108925460D01*
X135514744Y-109045514D01*
X135468332Y-109157560D01*
X135459666Y-109157560D01*
X135318052Y-109185728D01*
X135184654Y-109240984D01*
X135064600Y-109321201D01*
X134962501Y-109423300D01*
X134882284Y-109543354D01*
X134827028Y-109676752D01*
X134798860Y-109818366D01*
X133829975Y-109818366D01*
X133823931Y-109787983D01*
X133768675Y-109654585D01*
X133688458Y-109534531D01*
X133586359Y-109432432D01*
X133466305Y-109352215D01*
X133332907Y-109296959D01*
X133191293Y-109268791D01*
X133046905Y-109268791D01*
X132905291Y-109296959D01*
X132771893Y-109352215D01*
X132651839Y-109432432D01*
X132549740Y-109534531D01*
X132469523Y-109654585D01*
X132459122Y-109679694D01*
X132438981Y-109683700D01*
X132305583Y-109738956D01*
X132185529Y-109819173D01*
X132083430Y-109921272D01*
X132003213Y-110041326D01*
X131947957Y-110174724D01*
X131919789Y-110316338D01*
X123810989Y-110316338D01*
X123804601Y-107336400D01*
X123937757Y-107336400D01*
X124084201Y-107307271D01*
X124222148Y-107250131D01*
X124336036Y-107174033D01*
X124446934Y-107248133D01*
X124584881Y-107305273D01*
X124731325Y-107334402D01*
X124880639Y-107334402D01*
X125027083Y-107305273D01*
X125165030Y-107248133D01*
X125289179Y-107165179D01*
X125394759Y-107059599D01*
X125477713Y-106935450D01*
X125534853Y-106797503D01*
X125563982Y-106651059D01*
X125563982Y-106501745D01*
X125534853Y-106355301D01*
X125477713Y-106217354D01*
X125394759Y-106093205D01*
X125289179Y-105987625D01*
X125267117Y-105972883D01*
X125728920Y-105972883D01*
X125728920Y-106122197D01*
X125758049Y-106268641D01*
X125815189Y-106406588D01*
X125890950Y-106519971D01*
X125820269Y-106625752D01*
X125763129Y-106763699D01*
X125734000Y-106910143D01*
X125734000Y-107059457D01*
X125763129Y-107205901D01*
X125820269Y-107343848D01*
X125903223Y-107467997D01*
X126008803Y-107573577D01*
X126132952Y-107656531D01*
X126270899Y-107713671D01*
X126417343Y-107742800D01*
X126566657Y-107742800D01*
X126713101Y-107713671D01*
X126851048Y-107656531D01*
X126975197Y-107573577D01*
X127080777Y-107467997D01*
X127163731Y-107343848D01*
X127220871Y-107205901D01*
X127250000Y-107059457D01*
X127250000Y-106910143D01*
X127220871Y-106763699D01*
X127206665Y-106729401D01*
X129940783Y-106729401D01*
X129940783Y-106873789D01*
X129968951Y-107015403D01*
X130024207Y-107148801D01*
X130104424Y-107268855D01*
X130206523Y-107370954D01*
X130326577Y-107451171D01*
X130459975Y-107506427D01*
X130601589Y-107534595D01*
X130745977Y-107534595D01*
X130887591Y-107506427D01*
X131020989Y-107451171D01*
X131028453Y-107446184D01*
X131110273Y-107568635D01*
X131215853Y-107674215D01*
X131340002Y-107757169D01*
X131477949Y-107814309D01*
X131624393Y-107843438D01*
X131773707Y-107843438D01*
X131920151Y-107814309D01*
X132058098Y-107757169D01*
X132182247Y-107674215D01*
X132287827Y-107568635D01*
X132370781Y-107444486D01*
X132427921Y-107306539D01*
X132457050Y-107160095D01*
X132457050Y-107010781D01*
X132427921Y-106864337D01*
X132370781Y-106726390D01*
X132287827Y-106602241D01*
X132182247Y-106496661D01*
X132058098Y-106413707D01*
X131920151Y-106356567D01*
X131773707Y-106327438D01*
X131624393Y-106327438D01*
X131477949Y-106356567D01*
X131340002Y-106413707D01*
X131309703Y-106433952D01*
X131243142Y-106334335D01*
X131141043Y-106232236D01*
X131020989Y-106152019D01*
X130887591Y-106096763D01*
X130745977Y-106068595D01*
X130601589Y-106068595D01*
X130459975Y-106096763D01*
X130326577Y-106152019D01*
X130206523Y-106232236D01*
X130104424Y-106334335D01*
X130024207Y-106454389D01*
X129968951Y-106587787D01*
X129940783Y-106729401D01*
X127206665Y-106729401D01*
X127163731Y-106625752D01*
X127087970Y-106512369D01*
X127158651Y-106406588D01*
X127215791Y-106268641D01*
X127244920Y-106122197D01*
X127244920Y-105972883D01*
X127215791Y-105826439D01*
X127158651Y-105688492D01*
X127075697Y-105564343D01*
X126970117Y-105458763D01*
X126845968Y-105375809D01*
X126708021Y-105318669D01*
X126561577Y-105289540D01*
X126412263Y-105289540D01*
X126265819Y-105318669D01*
X126127872Y-105375809D01*
X126003723Y-105458763D01*
X125898143Y-105564343D01*
X125815189Y-105688492D01*
X125758049Y-105826439D01*
X125728920Y-105972883D01*
X125267117Y-105972883D01*
X125165030Y-105904671D01*
X125027083Y-105847531D01*
X124880639Y-105818402D01*
X124731325Y-105818402D01*
X124584881Y-105847531D01*
X124446934Y-105904671D01*
X124333046Y-105980769D01*
X124222148Y-105906669D01*
X124084201Y-105849529D01*
X123937757Y-105820400D01*
X123801352Y-105820400D01*
X123795124Y-102914723D01*
X129820860Y-102914723D01*
X129820860Y-103064037D01*
X129849989Y-103210481D01*
X129907129Y-103348428D01*
X129990083Y-103472577D01*
X130095663Y-103578157D01*
X130219812Y-103661111D01*
X130357759Y-103718251D01*
X130504203Y-103747380D01*
X130653517Y-103747380D01*
X130799961Y-103718251D01*
X130937908Y-103661111D01*
X131062057Y-103578157D01*
X131167637Y-103472577D01*
X131250591Y-103348428D01*
X131270918Y-103299353D01*
X135737610Y-103299353D01*
X135737610Y-103448667D01*
X135766739Y-103595111D01*
X135823879Y-103733058D01*
X135906833Y-103857207D01*
X136012413Y-103962787D01*
X136136562Y-104045741D01*
X136274509Y-104102881D01*
X136420953Y-104132010D01*
X136570267Y-104132010D01*
X136716711Y-104102881D01*
X136854658Y-104045741D01*
X136978807Y-103962787D01*
X137084387Y-103857207D01*
X137167341Y-103733058D01*
X137224481Y-103595111D01*
X137253610Y-103448667D01*
X137253610Y-103299353D01*
X137244142Y-103251753D01*
X138705839Y-103251753D01*
X138705839Y-103401067D01*
X138734968Y-103547511D01*
X138792108Y-103685458D01*
X138875062Y-103809607D01*
X138980642Y-103915187D01*
X139068583Y-103973948D01*
X139092332Y-104093342D01*
X139149472Y-104231289D01*
X139232426Y-104355438D01*
X139338006Y-104461018D01*
X139462155Y-104543972D01*
X139600102Y-104601112D01*
X139746546Y-104630241D01*
X139895860Y-104630241D01*
X140042304Y-104601112D01*
X140180251Y-104543972D01*
X140304400Y-104461018D01*
X140409980Y-104355438D01*
X140492934Y-104231289D01*
X140550074Y-104093342D01*
X140577038Y-103957781D01*
X140622207Y-104025380D01*
X140727787Y-104130960D01*
X140732364Y-104134018D01*
X140704329Y-104201699D01*
X140675200Y-104348143D01*
X140675200Y-104497457D01*
X140703245Y-104638451D01*
X140599483Y-104707783D01*
X140493903Y-104813363D01*
X140410949Y-104937512D01*
X140353809Y-105075459D01*
X140324680Y-105221903D01*
X140324680Y-105371217D01*
X140353809Y-105517661D01*
X140410949Y-105655608D01*
X140493903Y-105779757D01*
X140599483Y-105885337D01*
X140723632Y-105968291D01*
X140861579Y-106025431D01*
X141008023Y-106054560D01*
X141157337Y-106054560D01*
X141303781Y-106025431D01*
X141441728Y-105968291D01*
X141565877Y-105885337D01*
X141671457Y-105779757D01*
X141754411Y-105655608D01*
X141811551Y-105517661D01*
X141840680Y-105371217D01*
X141840680Y-105221903D01*
X141817774Y-105106743D01*
X148485870Y-105106743D01*
X148485870Y-105256057D01*
X148514999Y-105402501D01*
X148572139Y-105540448D01*
X148655093Y-105664597D01*
X148760673Y-105770177D01*
X148884822Y-105853131D01*
X149022769Y-105910271D01*
X149169213Y-105939400D01*
X149318527Y-105939400D01*
X149464971Y-105910271D01*
X149602918Y-105853131D01*
X149727067Y-105770177D01*
X149793235Y-105704009D01*
X149834003Y-105744777D01*
X149958152Y-105827731D01*
X150096099Y-105884871D01*
X150242543Y-105914000D01*
X150391857Y-105914000D01*
X150538301Y-105884871D01*
X150676248Y-105827731D01*
X150800397Y-105744777D01*
X150905977Y-105639197D01*
X150988931Y-105515048D01*
X151046071Y-105377101D01*
X151075200Y-105230657D01*
X151075200Y-105081343D01*
X151046071Y-104934899D01*
X150988931Y-104796952D01*
X150905977Y-104672803D01*
X150800397Y-104567223D01*
X150676248Y-104484269D01*
X150546983Y-104430725D01*
X152157998Y-104430725D01*
X152157998Y-104580039D01*
X152187127Y-104726483D01*
X152244267Y-104864430D01*
X152327221Y-104988579D01*
X152432801Y-105094159D01*
X152556950Y-105177113D01*
X152694897Y-105234253D01*
X152841341Y-105263382D01*
X152990655Y-105263382D01*
X153137099Y-105234253D01*
X153275046Y-105177113D01*
X153399195Y-105094159D01*
X153504775Y-104988579D01*
X153587729Y-104864430D01*
X153644869Y-104726483D01*
X153673998Y-104580039D01*
X153673998Y-104430725D01*
X153644869Y-104284281D01*
X153587729Y-104146334D01*
X153580191Y-104135053D01*
X153605131Y-104097728D01*
X153662271Y-103959781D01*
X153691400Y-103813337D01*
X153691400Y-103664023D01*
X153662271Y-103517579D01*
X153605131Y-103379632D01*
X153522177Y-103255483D01*
X153416597Y-103149903D01*
X153292448Y-103066949D01*
X153154501Y-103009809D01*
X153008057Y-102980680D01*
X152858743Y-102980680D01*
X152712299Y-103009809D01*
X152574352Y-103066949D01*
X152450203Y-103149903D01*
X152344623Y-103255483D01*
X152261669Y-103379632D01*
X152204529Y-103517579D01*
X152175400Y-103664023D01*
X152175400Y-103813337D01*
X152204529Y-103959781D01*
X152261669Y-104097728D01*
X152269207Y-104109009D01*
X152244267Y-104146334D01*
X152187127Y-104284281D01*
X152157998Y-104430725D01*
X150546983Y-104430725D01*
X150538301Y-104427129D01*
X150391857Y-104398000D01*
X150242543Y-104398000D01*
X150096099Y-104427129D01*
X149958152Y-104484269D01*
X149834003Y-104567223D01*
X149767835Y-104633391D01*
X149727067Y-104592623D01*
X149602918Y-104509669D01*
X149464971Y-104452529D01*
X149318527Y-104423400D01*
X149169213Y-104423400D01*
X149022769Y-104452529D01*
X148884822Y-104509669D01*
X148760673Y-104592623D01*
X148655093Y-104698203D01*
X148572139Y-104822352D01*
X148514999Y-104960299D01*
X148485870Y-105106743D01*
X141817774Y-105106743D01*
X141812635Y-105080909D01*
X141916397Y-105011577D01*
X142021977Y-104905997D01*
X142080966Y-104817715D01*
X142165343Y-104834498D01*
X142314657Y-104834498D01*
X142461101Y-104805369D01*
X142599048Y-104748229D01*
X142723197Y-104665275D01*
X142828777Y-104559695D01*
X142911731Y-104435546D01*
X142947735Y-104348625D01*
X142993209Y-104458408D01*
X143076163Y-104582557D01*
X143181743Y-104688137D01*
X143305892Y-104771091D01*
X143443839Y-104828231D01*
X143590283Y-104857360D01*
X143739597Y-104857360D01*
X143886041Y-104828231D01*
X144023988Y-104771091D01*
X144148137Y-104688137D01*
X144253717Y-104582557D01*
X144336671Y-104458408D01*
X144393811Y-104320461D01*
X144416228Y-104207763D01*
X144524259Y-104252511D01*
X144670703Y-104281640D01*
X144820017Y-104281640D01*
X144966461Y-104252511D01*
X145104408Y-104195371D01*
X145140320Y-104171375D01*
X145168630Y-104190291D01*
X145306577Y-104247431D01*
X145453021Y-104276560D01*
X145602335Y-104276560D01*
X145748779Y-104247431D01*
X145886726Y-104190291D01*
X146010875Y-104107337D01*
X146116455Y-104001757D01*
X146199409Y-103877608D01*
X146256549Y-103739661D01*
X146277030Y-103636694D01*
X146383648Y-103592531D01*
X146507797Y-103509577D01*
X146613377Y-103403997D01*
X146696331Y-103279848D01*
X146753471Y-103141901D01*
X146782600Y-102995457D01*
X146782600Y-102846143D01*
X146753471Y-102699699D01*
X146696331Y-102561752D01*
X146613377Y-102437603D01*
X146507797Y-102332023D01*
X146383648Y-102249069D01*
X146245701Y-102191929D01*
X146099257Y-102162800D01*
X145949943Y-102162800D01*
X145803499Y-102191929D01*
X145665552Y-102249069D01*
X145541403Y-102332023D01*
X145435823Y-102437603D01*
X145352869Y-102561752D01*
X145295729Y-102699699D01*
X145275248Y-102802666D01*
X145168630Y-102846829D01*
X145132718Y-102870825D01*
X145104408Y-102851909D01*
X144966461Y-102794769D01*
X144820017Y-102765640D01*
X144670703Y-102765640D01*
X144524259Y-102794769D01*
X144386312Y-102851909D01*
X144262163Y-102934863D01*
X144156583Y-103040443D01*
X144073629Y-103164592D01*
X144016489Y-103302539D01*
X143994072Y-103415237D01*
X143886041Y-103370489D01*
X143739597Y-103341360D01*
X143590283Y-103341360D01*
X143443839Y-103370489D01*
X143305892Y-103427629D01*
X143181743Y-103510583D01*
X143076163Y-103616163D01*
X142993209Y-103740312D01*
X142957205Y-103827233D01*
X142911731Y-103717450D01*
X142828777Y-103593301D01*
X142723197Y-103487721D01*
X142599048Y-103404767D01*
X142461101Y-103347627D01*
X142314657Y-103318498D01*
X142165343Y-103318498D01*
X142018899Y-103347627D01*
X141950750Y-103375856D01*
X141939855Y-103321082D01*
X141882715Y-103183135D01*
X141799761Y-103058986D01*
X141694181Y-102953406D01*
X141570032Y-102870452D01*
X141432085Y-102813312D01*
X141285641Y-102784183D01*
X141136327Y-102784183D01*
X140989883Y-102813312D01*
X140851936Y-102870452D01*
X140727787Y-102953406D01*
X140622207Y-103058986D01*
X140539253Y-103183135D01*
X140482113Y-103321082D01*
X140455149Y-103456643D01*
X140409980Y-103389044D01*
X140304400Y-103283464D01*
X140216459Y-103224703D01*
X140192710Y-103105309D01*
X140135570Y-102967362D01*
X140052616Y-102843213D01*
X139947036Y-102737633D01*
X139822887Y-102654679D01*
X139684940Y-102597539D01*
X139538496Y-102568410D01*
X139389182Y-102568410D01*
X139242738Y-102597539D01*
X139104791Y-102654679D01*
X138980642Y-102737633D01*
X138875062Y-102843213D01*
X138792108Y-102967362D01*
X138734968Y-103105309D01*
X138705839Y-103251753D01*
X137244142Y-103251753D01*
X137224481Y-103152909D01*
X137167341Y-103014962D01*
X137084387Y-102890813D01*
X136978807Y-102785233D01*
X136854658Y-102702279D01*
X136716711Y-102645139D01*
X136570267Y-102616010D01*
X136420953Y-102616010D01*
X136274509Y-102645139D01*
X136136562Y-102702279D01*
X136012413Y-102785233D01*
X135906833Y-102890813D01*
X135823879Y-103014962D01*
X135766739Y-103152909D01*
X135737610Y-103299353D01*
X131270918Y-103299353D01*
X131307731Y-103210481D01*
X131336860Y-103064037D01*
X131336860Y-102914723D01*
X131307731Y-102768279D01*
X131250591Y-102630332D01*
X131167637Y-102506183D01*
X131062057Y-102400603D01*
X130937908Y-102317649D01*
X130799961Y-102260509D01*
X130653517Y-102231380D01*
X130504203Y-102231380D01*
X130357759Y-102260509D01*
X130219812Y-102317649D01*
X130095663Y-102400603D01*
X129990083Y-102506183D01*
X129907129Y-102630332D01*
X129849989Y-102768279D01*
X129820860Y-102914723D01*
X123795124Y-102914723D01*
X123794841Y-102783000D01*
X124526175Y-102783000D01*
X124548786Y-102780773D01*
X124551797Y-102780794D01*
X124559204Y-102780068D01*
X124656252Y-102769868D01*
X124703513Y-102760167D01*
X124751026Y-102751103D01*
X124758151Y-102748952D01*
X124851370Y-102720096D01*
X124895915Y-102701371D01*
X124940697Y-102683277D01*
X124947261Y-102679787D01*
X124947265Y-102679785D01*
X124947268Y-102679783D01*
X125033106Y-102633371D01*
X125073165Y-102606350D01*
X125113576Y-102579906D01*
X125119344Y-102575202D01*
X125194533Y-102513000D01*
X125228568Y-102478727D01*
X125263084Y-102444926D01*
X125267828Y-102439192D01*
X125329504Y-102363571D01*
X125356232Y-102323343D01*
X125383534Y-102283468D01*
X125387073Y-102276922D01*
X125432885Y-102190761D01*
X125433938Y-102188206D01*
X134268000Y-102188206D01*
X134268000Y-102332594D01*
X134296168Y-102474208D01*
X134351424Y-102607606D01*
X134431641Y-102727660D01*
X134533740Y-102829759D01*
X134653794Y-102909976D01*
X134787192Y-102965232D01*
X134928806Y-102993400D01*
X135073194Y-102993400D01*
X135214808Y-102965232D01*
X135348206Y-102909976D01*
X135468260Y-102829759D01*
X135570359Y-102727660D01*
X135650576Y-102607606D01*
X135705832Y-102474208D01*
X135734000Y-102332594D01*
X135734000Y-102188206D01*
X135705832Y-102046592D01*
X135650576Y-101913194D01*
X135570359Y-101793140D01*
X135468260Y-101691041D01*
X135348206Y-101610824D01*
X135214808Y-101555568D01*
X135073194Y-101527400D01*
X134928806Y-101527400D01*
X134787192Y-101555568D01*
X134653794Y-101610824D01*
X134533740Y-101691041D01*
X134431641Y-101793140D01*
X134351424Y-101913194D01*
X134296168Y-102046592D01*
X134268000Y-102188206D01*
X125433938Y-102188206D01*
X125451278Y-102146136D01*
X125470323Y-102101700D01*
X125472524Y-102094591D01*
X125500729Y-102001173D01*
X125510114Y-101953773D01*
X125520156Y-101906528D01*
X125520933Y-101899137D01*
X125520934Y-101899131D01*
X125520934Y-101899126D01*
X125530456Y-101802009D01*
X125530456Y-101802004D01*
X125533000Y-101776174D01*
X125533000Y-101331840D01*
X125606537Y-101331840D01*
X125752981Y-101302711D01*
X125890928Y-101245571D01*
X126015077Y-101162617D01*
X126120657Y-101057037D01*
X126203611Y-100932888D01*
X126260751Y-100794941D01*
X126289880Y-100648497D01*
X126289880Y-100499183D01*
X126283465Y-100466932D01*
X126376792Y-100529291D01*
X126514739Y-100586431D01*
X126661183Y-100615560D01*
X126800297Y-100615560D01*
X126800297Y-100727217D01*
X126828465Y-100868831D01*
X126883721Y-101002229D01*
X126963938Y-101122283D01*
X127066037Y-101224382D01*
X127186091Y-101304599D01*
X127319489Y-101359855D01*
X127461103Y-101388023D01*
X127605491Y-101388023D01*
X127747105Y-101359855D01*
X127880503Y-101304599D01*
X128000557Y-101224382D01*
X128054510Y-101170429D01*
X128167238Y-101170429D01*
X128308852Y-101142261D01*
X128328416Y-101134157D01*
X128347279Y-101146761D01*
X128480677Y-101202017D01*
X128622291Y-101230185D01*
X128766679Y-101230185D01*
X128908293Y-101202017D01*
X129041691Y-101146761D01*
X129161745Y-101066544D01*
X129263844Y-100964445D01*
X129344061Y-100844391D01*
X129399317Y-100710993D01*
X129419722Y-100608403D01*
X129737040Y-100608403D01*
X129737040Y-100757717D01*
X129766169Y-100904161D01*
X129823309Y-101042108D01*
X129906263Y-101166257D01*
X130011843Y-101271837D01*
X130135992Y-101354791D01*
X130273939Y-101411931D01*
X130420383Y-101441060D01*
X130569697Y-101441060D01*
X130716141Y-101411931D01*
X130854088Y-101354791D01*
X130978237Y-101271837D01*
X131083817Y-101166257D01*
X131166771Y-101042108D01*
X131223911Y-100904161D01*
X131253040Y-100757717D01*
X131253040Y-100608403D01*
X131223911Y-100461959D01*
X131166771Y-100324012D01*
X131083817Y-100199863D01*
X130978237Y-100094283D01*
X130854088Y-100011329D01*
X130716141Y-99954189D01*
X130569697Y-99925060D01*
X130420383Y-99925060D01*
X130273939Y-99954189D01*
X130135992Y-100011329D01*
X130011843Y-100094283D01*
X129906263Y-100199863D01*
X129823309Y-100324012D01*
X129766169Y-100461959D01*
X129737040Y-100608403D01*
X129419722Y-100608403D01*
X129427485Y-100569379D01*
X129427485Y-100424991D01*
X129399317Y-100283377D01*
X129344061Y-100149979D01*
X129263844Y-100029925D01*
X129161745Y-99927826D01*
X129041691Y-99847609D01*
X128908293Y-99792353D01*
X128766679Y-99764185D01*
X128622291Y-99764185D01*
X128480677Y-99792353D01*
X128461113Y-99800457D01*
X128442250Y-99787853D01*
X128308852Y-99732597D01*
X128167238Y-99704429D01*
X128022850Y-99704429D01*
X127881236Y-99732597D01*
X127747838Y-99787853D01*
X127627784Y-99868070D01*
X127573831Y-99922023D01*
X127493840Y-99922023D01*
X127493840Y-99782903D01*
X127464711Y-99636459D01*
X127437842Y-99571592D01*
X127469791Y-99494461D01*
X127498920Y-99348017D01*
X127498920Y-99198703D01*
X127469791Y-99052259D01*
X127412651Y-98914312D01*
X127329697Y-98790163D01*
X127224117Y-98684583D01*
X127099968Y-98601629D01*
X126962021Y-98544489D01*
X126815577Y-98515360D01*
X126666263Y-98515360D01*
X126519819Y-98544489D01*
X126381872Y-98601629D01*
X126257723Y-98684583D01*
X126152143Y-98790163D01*
X126069189Y-98914312D01*
X126012049Y-99052259D01*
X125982920Y-99198703D01*
X125982920Y-99348017D01*
X126012049Y-99494461D01*
X126038918Y-99559328D01*
X126006969Y-99636459D01*
X125977840Y-99782903D01*
X125977840Y-99932217D01*
X125984255Y-99964468D01*
X125890928Y-99902109D01*
X125752981Y-99844969D01*
X125606537Y-99815840D01*
X125457223Y-99815840D01*
X125437195Y-99819824D01*
X125430179Y-99802801D01*
X125426640Y-99796255D01*
X125379629Y-99710742D01*
X125352352Y-99670906D01*
X125325601Y-99630642D01*
X125320857Y-99624908D01*
X125258132Y-99550156D01*
X125223615Y-99516355D01*
X125189580Y-99482081D01*
X125183813Y-99477377D01*
X125107763Y-99416231D01*
X125067340Y-99389779D01*
X125027290Y-99362765D01*
X125020719Y-99359271D01*
X124968000Y-99331711D01*
X124968000Y-98918573D01*
X125033106Y-98883371D01*
X125073165Y-98856350D01*
X125113576Y-98829906D01*
X125119344Y-98825202D01*
X125194533Y-98763000D01*
X125228568Y-98728727D01*
X125263084Y-98694926D01*
X125267828Y-98689192D01*
X125329504Y-98613571D01*
X125356232Y-98573343D01*
X125383534Y-98533468D01*
X125387073Y-98526922D01*
X125432885Y-98440761D01*
X125451278Y-98396136D01*
X125470323Y-98351700D01*
X125472524Y-98344591D01*
X125500729Y-98251173D01*
X125510114Y-98203773D01*
X125520156Y-98156528D01*
X125520933Y-98149137D01*
X125520934Y-98149131D01*
X125520934Y-98149126D01*
X125530456Y-98052009D01*
X125530456Y-98052005D01*
X125533000Y-98026175D01*
X125533000Y-97578106D01*
X127564940Y-97578106D01*
X127564940Y-97722494D01*
X127593108Y-97864108D01*
X127648364Y-97997506D01*
X127728581Y-98117560D01*
X127830680Y-98219659D01*
X127950734Y-98299876D01*
X128084132Y-98355132D01*
X128225746Y-98383300D01*
X128370134Y-98383300D01*
X128511748Y-98355132D01*
X128645146Y-98299876D01*
X128753869Y-98227230D01*
X128753888Y-98227328D01*
X128809144Y-98360726D01*
X128889361Y-98480780D01*
X128964098Y-98555517D01*
X128898044Y-98654374D01*
X128842788Y-98787772D01*
X128814620Y-98929386D01*
X128814620Y-99073774D01*
X128842788Y-99215388D01*
X128898044Y-99348786D01*
X128978261Y-99468840D01*
X129080360Y-99570939D01*
X129200414Y-99651156D01*
X129333812Y-99706412D01*
X129475426Y-99734580D01*
X129619814Y-99734580D01*
X129761428Y-99706412D01*
X129894826Y-99651156D01*
X130014880Y-99570939D01*
X130116979Y-99468840D01*
X130197196Y-99348786D01*
X130252452Y-99215388D01*
X130280620Y-99073774D01*
X130280620Y-98929386D01*
X130252452Y-98787772D01*
X130197196Y-98654374D01*
X130116979Y-98534320D01*
X130042242Y-98459583D01*
X130108296Y-98360726D01*
X130163552Y-98227328D01*
X130191720Y-98085714D01*
X130191720Y-97941326D01*
X130163552Y-97799712D01*
X130108296Y-97666314D01*
X130028079Y-97546260D01*
X129925980Y-97444161D01*
X129805926Y-97363944D01*
X129672528Y-97308688D01*
X129530914Y-97280520D01*
X129386526Y-97280520D01*
X129244912Y-97308688D01*
X129111514Y-97363944D01*
X129002791Y-97436590D01*
X129002772Y-97436492D01*
X128947516Y-97303094D01*
X128867299Y-97183040D01*
X128765200Y-97080941D01*
X128745299Y-97067643D01*
X130620960Y-97067643D01*
X130620960Y-97216957D01*
X130650089Y-97363401D01*
X130707229Y-97501348D01*
X130790183Y-97625497D01*
X130895763Y-97731077D01*
X131019912Y-97814031D01*
X131022485Y-97815097D01*
X131043789Y-97922201D01*
X131100929Y-98060148D01*
X131183883Y-98184297D01*
X131289463Y-98289877D01*
X131413612Y-98372831D01*
X131551559Y-98429971D01*
X131698003Y-98459100D01*
X131847317Y-98459100D01*
X131993761Y-98429971D01*
X132131708Y-98372831D01*
X132222686Y-98312041D01*
X134005150Y-98312041D01*
X134005150Y-98461355D01*
X134034279Y-98607799D01*
X134091419Y-98745746D01*
X134174373Y-98869895D01*
X134279953Y-98975475D01*
X134404102Y-99058429D01*
X134542049Y-99115569D01*
X134688493Y-99144698D01*
X134749373Y-99144698D01*
X134729087Y-99246684D01*
X134729087Y-99391072D01*
X134757255Y-99532686D01*
X134793457Y-99620084D01*
X134757255Y-99707483D01*
X134729087Y-99849097D01*
X134729087Y-99993485D01*
X134757255Y-100135099D01*
X134812511Y-100268497D01*
X134892728Y-100388551D01*
X134994827Y-100490650D01*
X135114881Y-100570867D01*
X135248279Y-100626123D01*
X135389893Y-100654291D01*
X135534281Y-100654291D01*
X135675895Y-100626123D01*
X135809293Y-100570867D01*
X135929347Y-100490650D01*
X136031446Y-100388551D01*
X136111663Y-100268497D01*
X136166919Y-100135099D01*
X136195087Y-99993485D01*
X136195087Y-99849097D01*
X136166919Y-99707483D01*
X136164191Y-99700895D01*
X145553540Y-99700895D01*
X145553540Y-99845283D01*
X145581708Y-99986897D01*
X145636964Y-100120295D01*
X145717181Y-100240349D01*
X145819280Y-100342448D01*
X145835749Y-100353452D01*
X145785441Y-100403760D01*
X145705224Y-100523814D01*
X145649968Y-100657212D01*
X145621800Y-100798826D01*
X145621800Y-100943214D01*
X145649968Y-101084828D01*
X145705224Y-101218226D01*
X145785441Y-101338280D01*
X145887540Y-101440379D01*
X146007594Y-101520596D01*
X146140992Y-101575852D01*
X146282606Y-101604020D01*
X146426994Y-101604020D01*
X146568608Y-101575852D01*
X146702006Y-101520596D01*
X146822060Y-101440379D01*
X146924159Y-101338280D01*
X147004376Y-101218226D01*
X147059632Y-101084828D01*
X147087800Y-100943214D01*
X147087800Y-100833138D01*
X147161372Y-100759566D01*
X147241589Y-100639512D01*
X147296845Y-100506114D01*
X147325013Y-100364500D01*
X147325013Y-100220112D01*
X147296845Y-100078498D01*
X147241589Y-99945100D01*
X147161372Y-99825046D01*
X147059273Y-99722947D01*
X147018509Y-99695709D01*
X146991372Y-99559281D01*
X146936116Y-99425883D01*
X146855899Y-99305829D01*
X146753800Y-99203730D01*
X146633746Y-99123513D01*
X146500348Y-99068257D01*
X146358734Y-99040089D01*
X146214346Y-99040089D01*
X146072732Y-99068257D01*
X145939334Y-99123513D01*
X145819280Y-99203730D01*
X145717181Y-99305829D01*
X145636964Y-99425883D01*
X145581708Y-99559281D01*
X145553540Y-99700895D01*
X136164191Y-99700895D01*
X136130717Y-99620084D01*
X136166919Y-99532686D01*
X136195087Y-99391072D01*
X136195087Y-99246684D01*
X136166919Y-99105070D01*
X136111663Y-98971672D01*
X136031446Y-98851618D01*
X135929347Y-98749519D01*
X135809293Y-98669302D01*
X135675895Y-98614046D01*
X135534281Y-98585878D01*
X135496381Y-98585878D01*
X135521150Y-98461355D01*
X135521150Y-98397708D01*
X135550548Y-98385531D01*
X135674697Y-98302577D01*
X135780277Y-98196997D01*
X135863231Y-98072848D01*
X135920371Y-97934901D01*
X135949500Y-97788457D01*
X135949500Y-97639143D01*
X135920371Y-97492699D01*
X135863231Y-97354752D01*
X135780277Y-97230603D01*
X135674697Y-97125023D01*
X135550548Y-97042069D01*
X135412601Y-96984929D01*
X135266157Y-96955800D01*
X135116843Y-96955800D01*
X134970399Y-96984929D01*
X134832452Y-97042069D01*
X134708303Y-97125023D01*
X134602723Y-97230603D01*
X134519769Y-97354752D01*
X134462629Y-97492699D01*
X134433500Y-97639143D01*
X134433500Y-97702790D01*
X134404102Y-97714967D01*
X134279953Y-97797921D01*
X134174373Y-97903501D01*
X134091419Y-98027650D01*
X134034279Y-98165597D01*
X134005150Y-98312041D01*
X132222686Y-98312041D01*
X132255857Y-98289877D01*
X132361437Y-98184297D01*
X132444391Y-98060148D01*
X132501531Y-97922201D01*
X132530660Y-97775757D01*
X132530660Y-97626443D01*
X132501531Y-97479999D01*
X132444391Y-97342052D01*
X132361437Y-97217903D01*
X132255857Y-97112323D01*
X132131708Y-97029369D01*
X132129135Y-97028303D01*
X132107831Y-96921199D01*
X132050691Y-96783252D01*
X131967737Y-96659103D01*
X131862157Y-96553523D01*
X131738008Y-96470569D01*
X131600061Y-96413429D01*
X131453617Y-96384300D01*
X131304303Y-96384300D01*
X131157859Y-96413429D01*
X131019912Y-96470569D01*
X130895763Y-96553523D01*
X130790183Y-96659103D01*
X130707229Y-96783252D01*
X130650089Y-96921199D01*
X130620960Y-97067643D01*
X128745299Y-97067643D01*
X128645146Y-97000724D01*
X128511748Y-96945468D01*
X128370134Y-96917300D01*
X128225746Y-96917300D01*
X128084132Y-96945468D01*
X127950734Y-97000724D01*
X127830680Y-97080941D01*
X127728581Y-97183040D01*
X127648364Y-97303094D01*
X127593108Y-97436492D01*
X127564940Y-97578106D01*
X125533000Y-97578106D01*
X125533000Y-96473825D01*
X125530773Y-96451214D01*
X125530794Y-96448203D01*
X125530068Y-96440797D01*
X125522538Y-96369143D01*
X133188900Y-96369143D01*
X133188900Y-96518457D01*
X133218029Y-96664901D01*
X133275169Y-96802848D01*
X133358123Y-96926997D01*
X133463703Y-97032577D01*
X133587852Y-97115531D01*
X133725799Y-97172671D01*
X133872243Y-97201800D01*
X134021557Y-97201800D01*
X134168001Y-97172671D01*
X134305948Y-97115531D01*
X134430097Y-97032577D01*
X134535677Y-96926997D01*
X134618631Y-96802848D01*
X134675771Y-96664901D01*
X134704900Y-96518457D01*
X134704900Y-96369143D01*
X134675771Y-96222699D01*
X134618631Y-96084752D01*
X134535677Y-95960603D01*
X134430097Y-95855023D01*
X134305948Y-95772069D01*
X134168001Y-95714929D01*
X134021557Y-95685800D01*
X133872243Y-95685800D01*
X133725799Y-95714929D01*
X133587852Y-95772069D01*
X133463703Y-95855023D01*
X133358123Y-95960603D01*
X133275169Y-96084752D01*
X133218029Y-96222699D01*
X133188900Y-96369143D01*
X125522538Y-96369143D01*
X125519868Y-96343748D01*
X125510153Y-96296418D01*
X125501102Y-96248974D01*
X125498952Y-96241849D01*
X125470096Y-96148630D01*
X125451371Y-96104085D01*
X125433277Y-96059303D01*
X125429783Y-96052732D01*
X125383370Y-95966894D01*
X125356361Y-95926852D01*
X125329905Y-95886423D01*
X125325202Y-95880656D01*
X125263000Y-95805467D01*
X125228727Y-95771432D01*
X125194926Y-95736916D01*
X125189192Y-95732172D01*
X125113571Y-95670496D01*
X125073343Y-95643768D01*
X125033468Y-95616466D01*
X125026922Y-95612927D01*
X124940761Y-95567115D01*
X124896136Y-95548722D01*
X124851700Y-95529677D01*
X124844591Y-95527476D01*
X124751173Y-95499271D01*
X124703773Y-95489886D01*
X124656528Y-95479844D01*
X124649136Y-95479067D01*
X124649131Y-95479066D01*
X124649127Y-95479066D01*
X124552009Y-95469544D01*
X124552005Y-95469544D01*
X124526175Y-95467000D01*
X123779158Y-95467000D01*
X123777643Y-94759822D01*
X135176639Y-94759822D01*
X135176639Y-94909136D01*
X135205768Y-95055580D01*
X135262908Y-95193527D01*
X135345862Y-95317676D01*
X135451442Y-95423256D01*
X135575591Y-95506210D01*
X135713538Y-95563350D01*
X135859982Y-95592479D01*
X136009296Y-95592479D01*
X136155740Y-95563350D01*
X136293687Y-95506210D01*
X136417836Y-95423256D01*
X136523416Y-95317676D01*
X136606370Y-95193527D01*
X136663510Y-95055580D01*
X136692639Y-94909136D01*
X136692639Y-94759822D01*
X136663510Y-94613378D01*
X136606370Y-94475431D01*
X136523416Y-94351282D01*
X136502851Y-94330717D01*
X139925980Y-94330717D01*
X139925980Y-94475105D01*
X139954148Y-94616719D01*
X140009404Y-94750117D01*
X140089621Y-94870171D01*
X140191720Y-94972270D01*
X140311774Y-95052487D01*
X140445172Y-95107743D01*
X140586786Y-95135911D01*
X140731174Y-95135911D01*
X140827042Y-95116842D01*
X143383380Y-95116842D01*
X143383380Y-95266156D01*
X143412509Y-95412600D01*
X143469649Y-95550547D01*
X143552603Y-95674696D01*
X143658183Y-95780276D01*
X143782332Y-95863230D01*
X143798526Y-95869938D01*
X143694303Y-95974161D01*
X143611349Y-96098310D01*
X143554209Y-96236257D01*
X143525080Y-96382701D01*
X143525080Y-96532015D01*
X143554209Y-96678459D01*
X143611349Y-96816406D01*
X143656058Y-96883317D01*
X143652578Y-96891718D01*
X143623449Y-97038162D01*
X143623449Y-97187476D01*
X143652578Y-97333920D01*
X143709718Y-97471867D01*
X143792672Y-97596016D01*
X143898252Y-97701596D01*
X143922443Y-97717760D01*
X143870181Y-97843931D01*
X143842013Y-97985545D01*
X143842013Y-98129933D01*
X143870181Y-98271547D01*
X143925437Y-98404945D01*
X144005654Y-98524999D01*
X144107753Y-98627098D01*
X144227807Y-98707315D01*
X144361205Y-98762571D01*
X144502819Y-98790739D01*
X144647207Y-98790739D01*
X144788821Y-98762571D01*
X144922219Y-98707315D01*
X145042273Y-98627098D01*
X145144372Y-98524999D01*
X145196580Y-98446863D01*
X148179980Y-98446863D01*
X148179980Y-98596177D01*
X148209109Y-98742621D01*
X148266249Y-98880568D01*
X148349203Y-99004717D01*
X148454783Y-99110297D01*
X148578932Y-99193251D01*
X148716879Y-99250391D01*
X148863323Y-99279520D01*
X149012637Y-99279520D01*
X149159081Y-99250391D01*
X149297028Y-99193251D01*
X149421177Y-99110297D01*
X149526757Y-99004717D01*
X149609711Y-98880568D01*
X149666851Y-98742621D01*
X149695980Y-98596177D01*
X149695980Y-98446863D01*
X149666851Y-98300419D01*
X149609711Y-98162472D01*
X149526757Y-98038323D01*
X149421177Y-97932743D01*
X149297028Y-97849789D01*
X149159081Y-97792649D01*
X149012637Y-97763520D01*
X148863323Y-97763520D01*
X148716879Y-97792649D01*
X148578932Y-97849789D01*
X148454783Y-97932743D01*
X148349203Y-98038323D01*
X148266249Y-98162472D01*
X148209109Y-98300419D01*
X148179980Y-98446863D01*
X145196580Y-98446863D01*
X145224589Y-98404945D01*
X145267004Y-98302547D01*
X145298608Y-98296261D01*
X145432006Y-98241005D01*
X145552060Y-98160788D01*
X145654159Y-98058689D01*
X145734376Y-97938635D01*
X145789632Y-97805237D01*
X145817800Y-97663623D01*
X145817800Y-97519235D01*
X145789632Y-97377621D01*
X145734376Y-97244223D01*
X145654159Y-97124169D01*
X145552060Y-97022070D01*
X145432006Y-96941853D01*
X145298608Y-96886597D01*
X145156994Y-96858429D01*
X145096531Y-96858429D01*
X145053180Y-96753771D01*
X145008471Y-96686860D01*
X145011951Y-96678459D01*
X145041080Y-96532015D01*
X145041080Y-96382701D01*
X145011951Y-96236257D01*
X144954811Y-96098310D01*
X144871857Y-95974161D01*
X144766277Y-95868581D01*
X144642128Y-95785627D01*
X144625934Y-95778919D01*
X144730157Y-95674696D01*
X144813111Y-95550547D01*
X144850546Y-95460171D01*
X144917608Y-95446832D01*
X145051006Y-95391576D01*
X145171060Y-95311359D01*
X145273159Y-95209260D01*
X145353376Y-95089206D01*
X145361234Y-95070236D01*
X145384114Y-95065685D01*
X145517512Y-95010429D01*
X145637566Y-94930212D01*
X145739665Y-94828113D01*
X145819882Y-94708059D01*
X145857789Y-94616543D01*
X149508400Y-94616543D01*
X149508400Y-94765857D01*
X149537529Y-94912301D01*
X149594669Y-95050248D01*
X149626309Y-95097600D01*
X149594669Y-95144952D01*
X149537529Y-95282899D01*
X149508400Y-95429343D01*
X149508400Y-95578657D01*
X149537529Y-95725101D01*
X149594669Y-95863048D01*
X149677623Y-95987197D01*
X149783203Y-96092777D01*
X149907352Y-96175731D01*
X150045299Y-96232871D01*
X150191743Y-96262000D01*
X150341057Y-96262000D01*
X150487501Y-96232871D01*
X150625448Y-96175731D01*
X150749597Y-96092777D01*
X150855177Y-95987197D01*
X150938131Y-95863048D01*
X150995271Y-95725101D01*
X151024400Y-95578657D01*
X151024400Y-95429343D01*
X150995271Y-95282899D01*
X150938131Y-95144952D01*
X150906491Y-95097600D01*
X150938131Y-95050248D01*
X150995271Y-94912301D01*
X151024400Y-94765857D01*
X151024400Y-94616543D01*
X153978800Y-94616543D01*
X153978800Y-94765857D01*
X154007929Y-94912301D01*
X154065069Y-95050248D01*
X154148023Y-95174397D01*
X154253603Y-95279977D01*
X154377752Y-95362931D01*
X154515699Y-95420071D01*
X154662143Y-95449200D01*
X154811457Y-95449200D01*
X154957901Y-95420071D01*
X155095848Y-95362931D01*
X155219997Y-95279977D01*
X155325577Y-95174397D01*
X155408531Y-95050248D01*
X155465671Y-94912301D01*
X155494800Y-94765857D01*
X155494800Y-94616543D01*
X155465671Y-94470099D01*
X155408531Y-94332152D01*
X155325577Y-94208003D01*
X155219997Y-94102423D01*
X155095848Y-94019469D01*
X154957901Y-93962329D01*
X154811457Y-93933200D01*
X154662143Y-93933200D01*
X154515699Y-93962329D01*
X154377752Y-94019469D01*
X154253603Y-94102423D01*
X154148023Y-94208003D01*
X154065069Y-94332152D01*
X154007929Y-94470099D01*
X153978800Y-94616543D01*
X151024400Y-94616543D01*
X150995271Y-94470099D01*
X150938131Y-94332152D01*
X150855177Y-94208003D01*
X150749597Y-94102423D01*
X150625448Y-94019469D01*
X150487501Y-93962329D01*
X150341057Y-93933200D01*
X150191743Y-93933200D01*
X150045299Y-93962329D01*
X149907352Y-94019469D01*
X149783203Y-94102423D01*
X149677623Y-94208003D01*
X149594669Y-94332152D01*
X149537529Y-94470099D01*
X149508400Y-94616543D01*
X145857789Y-94616543D01*
X145875138Y-94574661D01*
X145882360Y-94538353D01*
X145977398Y-94498986D01*
X146097452Y-94418769D01*
X146199551Y-94316670D01*
X146279768Y-94196616D01*
X146335024Y-94063218D01*
X146363192Y-93921604D01*
X146363192Y-93777216D01*
X146335024Y-93635602D01*
X146279768Y-93502204D01*
X146199551Y-93382150D01*
X146097452Y-93280051D01*
X145977398Y-93199834D01*
X145977103Y-93199712D01*
X146002544Y-93138291D01*
X146031673Y-92991847D01*
X146031673Y-92842533D01*
X146004646Y-92706657D01*
X146038563Y-92729320D01*
X146176510Y-92786460D01*
X146322954Y-92815589D01*
X146472268Y-92815589D01*
X146618712Y-92786460D01*
X146756659Y-92729320D01*
X146880808Y-92646366D01*
X146986388Y-92540786D01*
X147018916Y-92492105D01*
X147065373Y-92501346D01*
X147214687Y-92501346D01*
X147361131Y-92472217D01*
X147396556Y-92457543D01*
X153699400Y-92457543D01*
X153699400Y-92606857D01*
X153728529Y-92753301D01*
X153785669Y-92891248D01*
X153868623Y-93015397D01*
X153974203Y-93120977D01*
X154098352Y-93203931D01*
X154236299Y-93261071D01*
X154382743Y-93290200D01*
X154532057Y-93290200D01*
X154678501Y-93261071D01*
X154816448Y-93203931D01*
X154940597Y-93120977D01*
X155046177Y-93015397D01*
X155129131Y-92891248D01*
X155186271Y-92753301D01*
X155215400Y-92606857D01*
X155215400Y-92457543D01*
X155186271Y-92311099D01*
X155129131Y-92173152D01*
X155046177Y-92049003D01*
X154940597Y-91943423D01*
X154816448Y-91860469D01*
X154678501Y-91803329D01*
X154532057Y-91774200D01*
X154382743Y-91774200D01*
X154236299Y-91803329D01*
X154098352Y-91860469D01*
X153974203Y-91943423D01*
X153868623Y-92049003D01*
X153785669Y-92173152D01*
X153728529Y-92311099D01*
X153699400Y-92457543D01*
X147396556Y-92457543D01*
X147499078Y-92415077D01*
X147623227Y-92332123D01*
X147728807Y-92226543D01*
X147811761Y-92102394D01*
X147868901Y-91964447D01*
X147898030Y-91818003D01*
X147898030Y-91668689D01*
X147868901Y-91522245D01*
X147811761Y-91384298D01*
X147728807Y-91260149D01*
X147701458Y-91232800D01*
X147788357Y-91232800D01*
X147934801Y-91203671D01*
X148072748Y-91146531D01*
X148196897Y-91063577D01*
X148302477Y-90957997D01*
X148385431Y-90833848D01*
X148442571Y-90695901D01*
X148471700Y-90549457D01*
X148471700Y-90400143D01*
X148442571Y-90253699D01*
X148408541Y-90171543D01*
X151299100Y-90171543D01*
X151299100Y-90320857D01*
X151328229Y-90467301D01*
X151385369Y-90605248D01*
X151468323Y-90729397D01*
X151573903Y-90834977D01*
X151698052Y-90917931D01*
X151835999Y-90975071D01*
X151982443Y-91004200D01*
X152131757Y-91004200D01*
X152278201Y-90975071D01*
X152416148Y-90917931D01*
X152540297Y-90834977D01*
X152645877Y-90729397D01*
X152728831Y-90605248D01*
X152785971Y-90467301D01*
X152815100Y-90320857D01*
X152815100Y-90171543D01*
X152785971Y-90025099D01*
X152728831Y-89887152D01*
X152645877Y-89763003D01*
X152540297Y-89657423D01*
X152416148Y-89574469D01*
X152278201Y-89517329D01*
X152131757Y-89488200D01*
X151982443Y-89488200D01*
X151835999Y-89517329D01*
X151698052Y-89574469D01*
X151573903Y-89657423D01*
X151468323Y-89763003D01*
X151385369Y-89887152D01*
X151328229Y-90025099D01*
X151299100Y-90171543D01*
X148408541Y-90171543D01*
X148385431Y-90115752D01*
X148302477Y-89991603D01*
X148196897Y-89886023D01*
X148072748Y-89803069D01*
X147934801Y-89745929D01*
X147788357Y-89716800D01*
X147639043Y-89716800D01*
X147492599Y-89745929D01*
X147354652Y-89803069D01*
X147230503Y-89886023D01*
X147124923Y-89991603D01*
X147041969Y-90115752D01*
X146984829Y-90253699D01*
X146983834Y-90258703D01*
X146943306Y-90231624D01*
X146809908Y-90176368D01*
X146668294Y-90148200D01*
X146523906Y-90148200D01*
X146382292Y-90176368D01*
X146248894Y-90231624D01*
X146128840Y-90311841D01*
X146026741Y-90413940D01*
X145946524Y-90533994D01*
X145891268Y-90667392D01*
X145863100Y-90809006D01*
X145863100Y-90953394D01*
X145891268Y-91095008D01*
X145946524Y-91228406D01*
X146026741Y-91348460D01*
X146056648Y-91378367D01*
X146038563Y-91385858D01*
X145914414Y-91468812D01*
X145808834Y-91574392D01*
X145725880Y-91698541D01*
X145668740Y-91836488D01*
X145639611Y-91982932D01*
X145639611Y-92132246D01*
X145666638Y-92268122D01*
X145632721Y-92245459D01*
X145494774Y-92188319D01*
X145348330Y-92159190D01*
X145199016Y-92159190D01*
X145052572Y-92188319D01*
X144914625Y-92245459D01*
X144790476Y-92328413D01*
X144684896Y-92433993D01*
X144601942Y-92558142D01*
X144544802Y-92696089D01*
X144515673Y-92842533D01*
X144515673Y-92991847D01*
X144544802Y-93138291D01*
X144601942Y-93276238D01*
X144684896Y-93400387D01*
X144790476Y-93505967D01*
X144914625Y-93588921D01*
X144940292Y-93599553D01*
X144925360Y-93635602D01*
X144918138Y-93671910D01*
X144823100Y-93711277D01*
X144703046Y-93791494D01*
X144600947Y-93893593D01*
X144520730Y-94013647D01*
X144512872Y-94032617D01*
X144489992Y-94037168D01*
X144356594Y-94092424D01*
X144236540Y-94172641D01*
X144134441Y-94274740D01*
X144054224Y-94394794D01*
X144035630Y-94439684D01*
X143920279Y-94462628D01*
X143782332Y-94519768D01*
X143658183Y-94602722D01*
X143552603Y-94708302D01*
X143469649Y-94832451D01*
X143412509Y-94970398D01*
X143383380Y-95116842D01*
X140827042Y-95116842D01*
X140872788Y-95107743D01*
X141006186Y-95052487D01*
X141098563Y-94990763D01*
X141175080Y-95005983D01*
X141319468Y-95005983D01*
X141461082Y-94977815D01*
X141594480Y-94922559D01*
X141714534Y-94842342D01*
X141816633Y-94740243D01*
X141835003Y-94712749D01*
X141889580Y-94767326D01*
X142009634Y-94847543D01*
X142143032Y-94902799D01*
X142284646Y-94930967D01*
X142429034Y-94930967D01*
X142570648Y-94902799D01*
X142704046Y-94847543D01*
X142824100Y-94767326D01*
X142926199Y-94665227D01*
X143006416Y-94545173D01*
X143061672Y-94411775D01*
X143089840Y-94270161D01*
X143089840Y-94125773D01*
X143061672Y-93984159D01*
X143006416Y-93850761D01*
X142926199Y-93730707D01*
X142824100Y-93628608D01*
X142704046Y-93548391D01*
X142570648Y-93493135D01*
X142429034Y-93464967D01*
X142284646Y-93464967D01*
X142143032Y-93493135D01*
X142009634Y-93548391D01*
X141889580Y-93628608D01*
X141787481Y-93730707D01*
X141769111Y-93758201D01*
X141714534Y-93703624D01*
X141594480Y-93623407D01*
X141461082Y-93568151D01*
X141319468Y-93539983D01*
X141175080Y-93539983D01*
X141033466Y-93568151D01*
X140900068Y-93623407D01*
X140807691Y-93685131D01*
X140731174Y-93669911D01*
X140586786Y-93669911D01*
X140445172Y-93698079D01*
X140311774Y-93753335D01*
X140191720Y-93833552D01*
X140089621Y-93935651D01*
X140009404Y-94055705D01*
X139954148Y-94189103D01*
X139925980Y-94330717D01*
X136502851Y-94330717D01*
X136417836Y-94245702D01*
X136293687Y-94162748D01*
X136155740Y-94105608D01*
X136009296Y-94076479D01*
X135859982Y-94076479D01*
X135713538Y-94105608D01*
X135575591Y-94162748D01*
X135451442Y-94245702D01*
X135345862Y-94351282D01*
X135262908Y-94475431D01*
X135205768Y-94613378D01*
X135176639Y-94759822D01*
X123777643Y-94759822D01*
X123774613Y-93346543D01*
X133277800Y-93346543D01*
X133277800Y-93495857D01*
X133306929Y-93642301D01*
X133364069Y-93780248D01*
X133447023Y-93904397D01*
X133552603Y-94009977D01*
X133676752Y-94092931D01*
X133814699Y-94150071D01*
X133961143Y-94179200D01*
X134110457Y-94179200D01*
X134256901Y-94150071D01*
X134394848Y-94092931D01*
X134518997Y-94009977D01*
X134624577Y-93904397D01*
X134707531Y-93780248D01*
X134764671Y-93642301D01*
X134793800Y-93495857D01*
X134793800Y-93346543D01*
X134764671Y-93200099D01*
X134707531Y-93062152D01*
X134624577Y-92938003D01*
X134518997Y-92832423D01*
X134394848Y-92749469D01*
X134256901Y-92692329D01*
X134110457Y-92663200D01*
X133961143Y-92663200D01*
X133814699Y-92692329D01*
X133676752Y-92749469D01*
X133552603Y-92832423D01*
X133447023Y-92938003D01*
X133364069Y-93062152D01*
X133306929Y-93200099D01*
X133277800Y-93346543D01*
X123774613Y-93346543D01*
X123769277Y-90857343D01*
X124845000Y-90857343D01*
X124845000Y-91006657D01*
X124874129Y-91153101D01*
X124931269Y-91291048D01*
X125014223Y-91415197D01*
X125119803Y-91520777D01*
X125243952Y-91603731D01*
X125381899Y-91660871D01*
X125528343Y-91690000D01*
X125677657Y-91690000D01*
X125824101Y-91660871D01*
X125962048Y-91603731D01*
X126086197Y-91520777D01*
X126162968Y-91444006D01*
X129721400Y-91444006D01*
X129721400Y-91588394D01*
X129749568Y-91730008D01*
X129804824Y-91863406D01*
X129885041Y-91983460D01*
X129987140Y-92085559D01*
X130107194Y-92165776D01*
X130240592Y-92221032D01*
X130382206Y-92249200D01*
X130526594Y-92249200D01*
X130668208Y-92221032D01*
X130801606Y-92165776D01*
X130921660Y-92085559D01*
X130930676Y-92076543D01*
X136198800Y-92076543D01*
X136198800Y-92225857D01*
X136227929Y-92372301D01*
X136285069Y-92510248D01*
X136368023Y-92634397D01*
X136473603Y-92739977D01*
X136597752Y-92822931D01*
X136735699Y-92880071D01*
X136882143Y-92909200D01*
X137031457Y-92909200D01*
X137062400Y-92903045D01*
X137062400Y-92987857D01*
X137091529Y-93134301D01*
X137148669Y-93272248D01*
X137231623Y-93396397D01*
X137337203Y-93501977D01*
X137461352Y-93584931D01*
X137599299Y-93642071D01*
X137745743Y-93671200D01*
X137895057Y-93671200D01*
X138041501Y-93642071D01*
X138179448Y-93584931D01*
X138303597Y-93501977D01*
X138409177Y-93396397D01*
X138492131Y-93272248D01*
X138549271Y-93134301D01*
X138578400Y-92987857D01*
X138578400Y-92838543D01*
X138549271Y-92692099D01*
X138492131Y-92554152D01*
X138409177Y-92430003D01*
X138303597Y-92324423D01*
X138179448Y-92241469D01*
X138041501Y-92184329D01*
X137895057Y-92155200D01*
X137745743Y-92155200D01*
X137714800Y-92161355D01*
X137714800Y-92076543D01*
X137685671Y-91930099D01*
X137628531Y-91792152D01*
X137548653Y-91672606D01*
X138433600Y-91672606D01*
X138433600Y-91816994D01*
X138461768Y-91958608D01*
X138517024Y-92092006D01*
X138597241Y-92212060D01*
X138699340Y-92314159D01*
X138819394Y-92394376D01*
X138952792Y-92449632D01*
X139094406Y-92477800D01*
X139238794Y-92477800D01*
X139380408Y-92449632D01*
X139513806Y-92394376D01*
X139633860Y-92314159D01*
X139735959Y-92212060D01*
X139816176Y-92092006D01*
X139871432Y-91958608D01*
X139899600Y-91816994D01*
X139899600Y-91672606D01*
X139871432Y-91530992D01*
X139816176Y-91397594D01*
X139735959Y-91277540D01*
X139633860Y-91175441D01*
X139513806Y-91095224D01*
X139380408Y-91039968D01*
X139238794Y-91011800D01*
X139094406Y-91011800D01*
X138952792Y-91039968D01*
X138819394Y-91095224D01*
X138699340Y-91175441D01*
X138597241Y-91277540D01*
X138517024Y-91397594D01*
X138461768Y-91530992D01*
X138433600Y-91672606D01*
X137548653Y-91672606D01*
X137545577Y-91668003D01*
X137439997Y-91562423D01*
X137315848Y-91479469D01*
X137177901Y-91422329D01*
X137031457Y-91393200D01*
X136882143Y-91393200D01*
X136735699Y-91422329D01*
X136597752Y-91479469D01*
X136473603Y-91562423D01*
X136368023Y-91668003D01*
X136285069Y-91792152D01*
X136227929Y-91930099D01*
X136198800Y-92076543D01*
X130930676Y-92076543D01*
X131023759Y-91983460D01*
X131103976Y-91863406D01*
X131159232Y-91730008D01*
X131187400Y-91588394D01*
X131187400Y-91444006D01*
X131159232Y-91302392D01*
X131103976Y-91168994D01*
X131023759Y-91048940D01*
X130921660Y-90946841D01*
X130801606Y-90866624D01*
X130733547Y-90838433D01*
X130769808Y-90831220D01*
X130903206Y-90775964D01*
X131023260Y-90695747D01*
X131125359Y-90593648D01*
X131135852Y-90577943D01*
X131855400Y-90577943D01*
X131855400Y-90727257D01*
X131884529Y-90873701D01*
X131941669Y-91011648D01*
X132024623Y-91135797D01*
X132130203Y-91241377D01*
X132254352Y-91324331D01*
X132392299Y-91381471D01*
X132538743Y-91410600D01*
X132688057Y-91410600D01*
X132834501Y-91381471D01*
X132972448Y-91324331D01*
X133096597Y-91241377D01*
X133202177Y-91135797D01*
X133285131Y-91011648D01*
X133342271Y-90873701D01*
X133371400Y-90727257D01*
X133371400Y-90577943D01*
X133342271Y-90431499D01*
X133304033Y-90339183D01*
X144362360Y-90339183D01*
X144362360Y-90488497D01*
X144391489Y-90634941D01*
X144448629Y-90772888D01*
X144531583Y-90897037D01*
X144637163Y-91002617D01*
X144761312Y-91085571D01*
X144899259Y-91142711D01*
X145045703Y-91171840D01*
X145195017Y-91171840D01*
X145341461Y-91142711D01*
X145479408Y-91085571D01*
X145603557Y-91002617D01*
X145709137Y-90897037D01*
X145792091Y-90772888D01*
X145849231Y-90634941D01*
X145878360Y-90488497D01*
X145878360Y-90339183D01*
X145849231Y-90192739D01*
X145792091Y-90054792D01*
X145709137Y-89930643D01*
X145603557Y-89825063D01*
X145479408Y-89742109D01*
X145341461Y-89684969D01*
X145195017Y-89655840D01*
X145045703Y-89655840D01*
X144899259Y-89684969D01*
X144761312Y-89742109D01*
X144637163Y-89825063D01*
X144531583Y-89930643D01*
X144448629Y-90054792D01*
X144391489Y-90192739D01*
X144362360Y-90339183D01*
X133304033Y-90339183D01*
X133285131Y-90293552D01*
X133202177Y-90169403D01*
X133096597Y-90063823D01*
X132972448Y-89980869D01*
X132834501Y-89923729D01*
X132688057Y-89894600D01*
X132538743Y-89894600D01*
X132392299Y-89923729D01*
X132254352Y-89980869D01*
X132130203Y-90063823D01*
X132024623Y-90169403D01*
X131941669Y-90293552D01*
X131884529Y-90431499D01*
X131855400Y-90577943D01*
X131135852Y-90577943D01*
X131205576Y-90473594D01*
X131260832Y-90340196D01*
X131289000Y-90198582D01*
X131289000Y-90054194D01*
X131260832Y-89912580D01*
X131205576Y-89779182D01*
X131125359Y-89659128D01*
X131023260Y-89557029D01*
X130903206Y-89476812D01*
X130769808Y-89421556D01*
X130628194Y-89393388D01*
X130483806Y-89393388D01*
X130342192Y-89421556D01*
X130208794Y-89476812D01*
X130088740Y-89557029D01*
X129986641Y-89659128D01*
X129906424Y-89779182D01*
X129851168Y-89912580D01*
X129823000Y-90054194D01*
X129823000Y-90198582D01*
X129851168Y-90340196D01*
X129906424Y-90473594D01*
X129986641Y-90593648D01*
X130088740Y-90695747D01*
X130208794Y-90775964D01*
X130276853Y-90804155D01*
X130240592Y-90811368D01*
X130107194Y-90866624D01*
X129987140Y-90946841D01*
X129885041Y-91048940D01*
X129804824Y-91168994D01*
X129749568Y-91302392D01*
X129721400Y-91444006D01*
X126162968Y-91444006D01*
X126191777Y-91415197D01*
X126274731Y-91291048D01*
X126331871Y-91153101D01*
X126361000Y-91006657D01*
X126361000Y-90857343D01*
X126331871Y-90710899D01*
X126274731Y-90572952D01*
X126191777Y-90448803D01*
X126086197Y-90343223D01*
X125962048Y-90260269D01*
X125824101Y-90203129D01*
X125677657Y-90174000D01*
X125528343Y-90174000D01*
X125381899Y-90203129D01*
X125243952Y-90260269D01*
X125119803Y-90343223D01*
X125014223Y-90448803D01*
X124931269Y-90572952D01*
X124874129Y-90710899D01*
X124845000Y-90857343D01*
X123769277Y-90857343D01*
X123758948Y-86039155D01*
X123790665Y-85915000D01*
X124430543Y-85915000D01*
X124430543Y-87439000D01*
X124440351Y-87538585D01*
X124469399Y-87634343D01*
X124516571Y-87722595D01*
X124580052Y-87799948D01*
X124657405Y-87863429D01*
X124745657Y-87910601D01*
X124841415Y-87939649D01*
X124941000Y-87949457D01*
X126465000Y-87949457D01*
X126564585Y-87939649D01*
X126660343Y-87910601D01*
X126748595Y-87863429D01*
X126825948Y-87799948D01*
X126889429Y-87722595D01*
X126936601Y-87634343D01*
X126965649Y-87538585D01*
X126975457Y-87439000D01*
X126975457Y-87414130D01*
X129736040Y-87414130D01*
X129736040Y-87765350D01*
X129804560Y-88109822D01*
X129938966Y-88434307D01*
X130134094Y-88726336D01*
X130382444Y-88974686D01*
X130674473Y-89169814D01*
X130998958Y-89304220D01*
X131343430Y-89372740D01*
X131694650Y-89372740D01*
X132039122Y-89304220D01*
X132363607Y-89169814D01*
X132606972Y-89007202D01*
X132654543Y-89078397D01*
X132760123Y-89183977D01*
X132884272Y-89266931D01*
X133022219Y-89324071D01*
X133168663Y-89353200D01*
X133317977Y-89353200D01*
X133464421Y-89324071D01*
X133602368Y-89266931D01*
X133726517Y-89183977D01*
X133832097Y-89078397D01*
X133915051Y-88954248D01*
X133972191Y-88816301D01*
X134001320Y-88669857D01*
X134001320Y-88520543D01*
X133972191Y-88374099D01*
X133915051Y-88236152D01*
X133832097Y-88112003D01*
X133726517Y-88006423D01*
X133602368Y-87923469D01*
X133464421Y-87866329D01*
X133317977Y-87837200D01*
X133287748Y-87837200D01*
X133302040Y-87765350D01*
X133302040Y-87414130D01*
X133233520Y-87069658D01*
X133099114Y-86745173D01*
X133004012Y-86602843D01*
X144954400Y-86602843D01*
X144954400Y-86752157D01*
X144983529Y-86898601D01*
X145040669Y-87036548D01*
X145123623Y-87160697D01*
X145229203Y-87266277D01*
X145353352Y-87349231D01*
X145491299Y-87406371D01*
X145637743Y-87435500D01*
X145787057Y-87435500D01*
X145933501Y-87406371D01*
X145981542Y-87386472D01*
X145976040Y-87414130D01*
X145976040Y-87765350D01*
X146044560Y-88109822D01*
X146178966Y-88434307D01*
X146374094Y-88726336D01*
X146622444Y-88974686D01*
X146914473Y-89169814D01*
X147238958Y-89304220D01*
X147583430Y-89372740D01*
X147934650Y-89372740D01*
X148279122Y-89304220D01*
X148603607Y-89169814D01*
X148895636Y-88974686D01*
X149143986Y-88726336D01*
X149339114Y-88434307D01*
X149473520Y-88109822D01*
X149542040Y-87765350D01*
X149542040Y-87414130D01*
X149473520Y-87069658D01*
X149339114Y-86745173D01*
X149143986Y-86453144D01*
X148976185Y-86285343D01*
X153470800Y-86285343D01*
X153470800Y-86434657D01*
X153499929Y-86581101D01*
X153557069Y-86719048D01*
X153640023Y-86843197D01*
X153745603Y-86948777D01*
X153869752Y-87031731D01*
X154007699Y-87088871D01*
X154154143Y-87118000D01*
X154303457Y-87118000D01*
X154449901Y-87088871D01*
X154587848Y-87031731D01*
X154711997Y-86948777D01*
X154817577Y-86843197D01*
X154900531Y-86719048D01*
X154957671Y-86581101D01*
X154986800Y-86434657D01*
X154986800Y-86285343D01*
X154957671Y-86138899D01*
X154900531Y-86000952D01*
X154817577Y-85876803D01*
X154711997Y-85771223D01*
X154587848Y-85688269D01*
X154449901Y-85631129D01*
X154303457Y-85602000D01*
X154154143Y-85602000D01*
X154007699Y-85631129D01*
X153869752Y-85688269D01*
X153745603Y-85771223D01*
X153640023Y-85876803D01*
X153557069Y-86000952D01*
X153499929Y-86138899D01*
X153470800Y-86285343D01*
X148976185Y-86285343D01*
X148895636Y-86204794D01*
X148603607Y-86009666D01*
X148279122Y-85875260D01*
X147934650Y-85806740D01*
X147583430Y-85806740D01*
X147238958Y-85875260D01*
X146914473Y-86009666D01*
X146622444Y-86204794D01*
X146420642Y-86406596D01*
X146384131Y-86318452D01*
X146301177Y-86194303D01*
X146195597Y-86088723D01*
X146071448Y-86005769D01*
X145933501Y-85948629D01*
X145787057Y-85919500D01*
X145637743Y-85919500D01*
X145491299Y-85948629D01*
X145353352Y-86005769D01*
X145229203Y-86088723D01*
X145123623Y-86194303D01*
X145040669Y-86318452D01*
X144983529Y-86456399D01*
X144954400Y-86602843D01*
X133004012Y-86602843D01*
X132903986Y-86453144D01*
X132655636Y-86204794D01*
X132363607Y-86009666D01*
X132039122Y-85875260D01*
X131694650Y-85806740D01*
X131343430Y-85806740D01*
X130998958Y-85875260D01*
X130674473Y-86009666D01*
X130382444Y-86204794D01*
X130134094Y-86453144D01*
X129938966Y-86745173D01*
X129804560Y-87069658D01*
X129736040Y-87414130D01*
X126975457Y-87414130D01*
X126975457Y-85915000D01*
X126965649Y-85815415D01*
X126936601Y-85719657D01*
X126889429Y-85631405D01*
X126825948Y-85554052D01*
X126748595Y-85490571D01*
X126703066Y-85466235D01*
X126828459Y-85278571D01*
X126924195Y-85047445D01*
X126973000Y-84802084D01*
X126973000Y-84621643D01*
X131421060Y-84621643D01*
X131421060Y-84770957D01*
X131450189Y-84917401D01*
X131507329Y-85055348D01*
X131590283Y-85179497D01*
X131695863Y-85285077D01*
X131820012Y-85368031D01*
X131957959Y-85425171D01*
X132104403Y-85454300D01*
X132253717Y-85454300D01*
X132400161Y-85425171D01*
X132457493Y-85401423D01*
X133191440Y-85401423D01*
X133191440Y-85550737D01*
X133220569Y-85697181D01*
X133277709Y-85835128D01*
X133360663Y-85959277D01*
X133466243Y-86064857D01*
X133590392Y-86147811D01*
X133728339Y-86204951D01*
X133874783Y-86234080D01*
X134024097Y-86234080D01*
X134170541Y-86204951D01*
X134308488Y-86147811D01*
X134432637Y-86064857D01*
X134538217Y-85959277D01*
X134621171Y-85835128D01*
X134678311Y-85697181D01*
X134707440Y-85550737D01*
X134707440Y-85401423D01*
X134678311Y-85254979D01*
X134621171Y-85117032D01*
X134538217Y-84992883D01*
X134432637Y-84887303D01*
X134308488Y-84804349D01*
X134170541Y-84747209D01*
X134024097Y-84718080D01*
X133874783Y-84718080D01*
X133728339Y-84747209D01*
X133590392Y-84804349D01*
X133466243Y-84887303D01*
X133360663Y-84992883D01*
X133277709Y-85117032D01*
X133220569Y-85254979D01*
X133191440Y-85401423D01*
X132457493Y-85401423D01*
X132538108Y-85368031D01*
X132662257Y-85285077D01*
X132767837Y-85179497D01*
X132850791Y-85055348D01*
X132907931Y-84917401D01*
X132937060Y-84770957D01*
X132937060Y-84621643D01*
X132907931Y-84475199D01*
X132850791Y-84337252D01*
X132767837Y-84213103D01*
X132739497Y-84184763D01*
X136473120Y-84184763D01*
X136473120Y-84334077D01*
X136502249Y-84480521D01*
X136559389Y-84618468D01*
X136642343Y-84742617D01*
X136747923Y-84848197D01*
X136872072Y-84931151D01*
X137010019Y-84988291D01*
X137156463Y-85017420D01*
X137305777Y-85017420D01*
X137452221Y-84988291D01*
X137590168Y-84931151D01*
X137620362Y-84910976D01*
X137639152Y-84923531D01*
X137777099Y-84980671D01*
X137923543Y-85009800D01*
X138072857Y-85009800D01*
X138219301Y-84980671D01*
X138357248Y-84923531D01*
X138447106Y-84863489D01*
X138502752Y-84900671D01*
X138640699Y-84957811D01*
X138787143Y-84986940D01*
X138936457Y-84986940D01*
X139082901Y-84957811D01*
X139220848Y-84900671D01*
X139344997Y-84817717D01*
X139450577Y-84712137D01*
X139533531Y-84587988D01*
X139590671Y-84450041D01*
X139619800Y-84303597D01*
X139619800Y-84207894D01*
X144513270Y-84207894D01*
X144513270Y-84357208D01*
X144542399Y-84503652D01*
X144599539Y-84641599D01*
X144682493Y-84765748D01*
X144788073Y-84871328D01*
X144912222Y-84954282D01*
X145050169Y-85011422D01*
X145196613Y-85040551D01*
X145345927Y-85040551D01*
X145492371Y-85011422D01*
X145630318Y-84954282D01*
X145754467Y-84871328D01*
X145860047Y-84765748D01*
X145943001Y-84641599D01*
X146000141Y-84503652D01*
X146029270Y-84357208D01*
X146029270Y-84207894D01*
X146000141Y-84061450D01*
X145943001Y-83923503D01*
X145860047Y-83799354D01*
X145754467Y-83693774D01*
X145630318Y-83610820D01*
X145492371Y-83553680D01*
X145345927Y-83524551D01*
X145196613Y-83524551D01*
X145050169Y-83553680D01*
X144912222Y-83610820D01*
X144788073Y-83693774D01*
X144682493Y-83799354D01*
X144599539Y-83923503D01*
X144542399Y-84061450D01*
X144513270Y-84207894D01*
X139619800Y-84207894D01*
X139619800Y-84154283D01*
X139590671Y-84007839D01*
X139533531Y-83869892D01*
X139450577Y-83745743D01*
X139344997Y-83640163D01*
X139220848Y-83557209D01*
X139082901Y-83500069D01*
X138936457Y-83470940D01*
X138787143Y-83470940D01*
X138640699Y-83500069D01*
X138502752Y-83557209D01*
X138412894Y-83617251D01*
X138357248Y-83580069D01*
X138219301Y-83522929D01*
X138072857Y-83493800D01*
X137923543Y-83493800D01*
X137777099Y-83522929D01*
X137639152Y-83580069D01*
X137608958Y-83600244D01*
X137590168Y-83587689D01*
X137452221Y-83530549D01*
X137305777Y-83501420D01*
X137156463Y-83501420D01*
X137010019Y-83530549D01*
X136872072Y-83587689D01*
X136747923Y-83670643D01*
X136642343Y-83776223D01*
X136559389Y-83900372D01*
X136502249Y-84038319D01*
X136473120Y-84184763D01*
X132739497Y-84184763D01*
X132662257Y-84107523D01*
X132538108Y-84024569D01*
X132400161Y-83967429D01*
X132253717Y-83938300D01*
X132104403Y-83938300D01*
X131957959Y-83967429D01*
X131820012Y-84024569D01*
X131695863Y-84107523D01*
X131590283Y-84213103D01*
X131507329Y-84337252D01*
X131450189Y-84475199D01*
X131421060Y-84621643D01*
X126973000Y-84621643D01*
X126973000Y-84551916D01*
X126924195Y-84306555D01*
X126828459Y-84075429D01*
X126689473Y-83867422D01*
X126512578Y-83690527D01*
X126492333Y-83677000D01*
X126512578Y-83663473D01*
X126689473Y-83486578D01*
X126828459Y-83278571D01*
X126924195Y-83047445D01*
X126973000Y-82802084D01*
X126973000Y-82551916D01*
X126924195Y-82306555D01*
X126828459Y-82075429D01*
X126729084Y-81926703D01*
X133178740Y-81926703D01*
X133178740Y-82076017D01*
X133207869Y-82222461D01*
X133265009Y-82360408D01*
X133347963Y-82484557D01*
X133453543Y-82590137D01*
X133577692Y-82673091D01*
X133715639Y-82730231D01*
X133862083Y-82759360D01*
X134011397Y-82759360D01*
X134157841Y-82730231D01*
X134295788Y-82673091D01*
X134419937Y-82590137D01*
X134525517Y-82484557D01*
X134608471Y-82360408D01*
X134665611Y-82222461D01*
X134694740Y-82076017D01*
X134694740Y-81926703D01*
X134665611Y-81780259D01*
X134608471Y-81642312D01*
X134525517Y-81518163D01*
X134419937Y-81412583D01*
X134295788Y-81329629D01*
X134157841Y-81272489D01*
X134011397Y-81243360D01*
X133862083Y-81243360D01*
X133715639Y-81272489D01*
X133577692Y-81329629D01*
X133453543Y-81412583D01*
X133347963Y-81518163D01*
X133265009Y-81642312D01*
X133207869Y-81780259D01*
X133178740Y-81926703D01*
X126729084Y-81926703D01*
X126689473Y-81867422D01*
X126512578Y-81690527D01*
X126460609Y-81655802D01*
X126506538Y-81498499D01*
X125703000Y-80694961D01*
X124899462Y-81498499D01*
X124945391Y-81655802D01*
X124893422Y-81690527D01*
X124716527Y-81867422D01*
X124577541Y-82075429D01*
X124481805Y-82306555D01*
X124433000Y-82551916D01*
X124433000Y-82802084D01*
X124481805Y-83047445D01*
X124577541Y-83278571D01*
X124716527Y-83486578D01*
X124893422Y-83663473D01*
X124913667Y-83677000D01*
X124893422Y-83690527D01*
X124716527Y-83867422D01*
X124577541Y-84075429D01*
X124481805Y-84306555D01*
X124433000Y-84551916D01*
X124433000Y-84802084D01*
X124481805Y-85047445D01*
X124577541Y-85278571D01*
X124702934Y-85466235D01*
X124657405Y-85490571D01*
X124580052Y-85554052D01*
X124516571Y-85631405D01*
X124469399Y-85719657D01*
X124440351Y-85815415D01*
X124430543Y-85915000D01*
X123790665Y-85915000D01*
X123886306Y-85540626D01*
X123891879Y-85510788D01*
X123899108Y-85472091D01*
X124044156Y-84261201D01*
X124046288Y-84221580D01*
X124047903Y-84191582D01*
X124033658Y-82972119D01*
X124028285Y-82902607D01*
X124028285Y-82902606D01*
X123854989Y-81695436D01*
X123840590Y-81627220D01*
X123748789Y-81299954D01*
X123747374Y-80639591D01*
X124427402Y-80639591D01*
X124444614Y-80889167D01*
X124510185Y-81130588D01*
X124621595Y-81354580D01*
X124663163Y-81416788D01*
X124881501Y-81480538D01*
X125685039Y-80677000D01*
X125720961Y-80677000D01*
X126524499Y-81480538D01*
X126742837Y-81416788D01*
X126867183Y-81199711D01*
X126946790Y-80962547D01*
X126978598Y-80714409D01*
X126961386Y-80464833D01*
X126895815Y-80223412D01*
X126784405Y-79999420D01*
X126742837Y-79937212D01*
X126524499Y-79873462D01*
X125720961Y-80677000D01*
X125685039Y-80677000D01*
X124881501Y-79873462D01*
X124663163Y-79937212D01*
X124538817Y-80154289D01*
X124459210Y-80391453D01*
X124427402Y-80639591D01*
X123747374Y-80639591D01*
X123745694Y-79855501D01*
X124899462Y-79855501D01*
X125703000Y-80659039D01*
X126506538Y-79855501D01*
X126488619Y-79794130D01*
X129736040Y-79794130D01*
X129736040Y-80145350D01*
X129804560Y-80489822D01*
X129938966Y-80814307D01*
X130134094Y-81106336D01*
X130382444Y-81354686D01*
X130674473Y-81549814D01*
X130998958Y-81684220D01*
X131343430Y-81752740D01*
X131694650Y-81752740D01*
X132039122Y-81684220D01*
X132363607Y-81549814D01*
X132655636Y-81354686D01*
X132903986Y-81106336D01*
X133099114Y-80814307D01*
X133233520Y-80489822D01*
X133302040Y-80145350D01*
X133302040Y-79794130D01*
X145976040Y-79794130D01*
X145976040Y-80145350D01*
X146044560Y-80489822D01*
X146178966Y-80814307D01*
X146374094Y-81106336D01*
X146622444Y-81354686D01*
X146914473Y-81549814D01*
X147238958Y-81684220D01*
X147583430Y-81752740D01*
X147934650Y-81752740D01*
X148279122Y-81684220D01*
X148603607Y-81549814D01*
X148895636Y-81354686D01*
X149143986Y-81106336D01*
X149339114Y-80814307D01*
X149473520Y-80489822D01*
X149542040Y-80145350D01*
X149542040Y-79794130D01*
X149473520Y-79449658D01*
X149339114Y-79125173D01*
X149143986Y-78833144D01*
X148895636Y-78584794D01*
X148603607Y-78389666D01*
X148279122Y-78255260D01*
X147934650Y-78186740D01*
X147583430Y-78186740D01*
X147238958Y-78255260D01*
X146914473Y-78389666D01*
X146622444Y-78584794D01*
X146374094Y-78833144D01*
X146178966Y-79125173D01*
X146044560Y-79449658D01*
X145976040Y-79794130D01*
X133302040Y-79794130D01*
X133233520Y-79449658D01*
X133099114Y-79125173D01*
X132903986Y-78833144D01*
X132655636Y-78584794D01*
X132363607Y-78389666D01*
X132039122Y-78255260D01*
X131694650Y-78186740D01*
X131343430Y-78186740D01*
X130998958Y-78255260D01*
X130674473Y-78389666D01*
X130382444Y-78584794D01*
X130134094Y-78833144D01*
X129938966Y-79125173D01*
X129804560Y-79449658D01*
X129736040Y-79794130D01*
X126488619Y-79794130D01*
X126442788Y-79637163D01*
X126225711Y-79512817D01*
X125988547Y-79433210D01*
X125740409Y-79401402D01*
X125490833Y-79418614D01*
X125249412Y-79484185D01*
X125025420Y-79595595D01*
X124963212Y-79637163D01*
X124899462Y-79855501D01*
X123745694Y-79855501D01*
X123737276Y-75929112D01*
X123945928Y-75720460D01*
X124138319Y-75432525D01*
X124270841Y-75112590D01*
X124338400Y-74772948D01*
X124338400Y-74426652D01*
X124270841Y-74087010D01*
X124138319Y-73767075D01*
X123945928Y-73479140D01*
X123731564Y-73264776D01*
X123724281Y-69867207D01*
X124262959Y-69561522D01*
X126305066Y-68579871D01*
X127131399Y-68249800D01*
X135446400Y-68249800D01*
X135446400Y-76657800D01*
M02*
