G04 #@! TF.GenerationSoftware,KiCad,Pcbnew,(5.1.7)-1*
G04 #@! TF.CreationDate,2021-07-01T14:18:12+04:00*
G04 #@! TF.ProjectId,pcb-stm32wl,7063622d-7374-46d3-9332-776c2e6b6963,1.1*
G04 #@! TF.SameCoordinates,PX8f0d180PY6422c40*
G04 #@! TF.FileFunction,Soldermask,Bot*
G04 #@! TF.FilePolarity,Negative*
%FSLAX46Y46*%
G04 Gerber Fmt 4.6, Leading zero omitted, Abs format (unit mm)*
G04 Created by KiCad (PCBNEW (5.1.7)-1) date 2021-07-01 14:18:12*
%MOMM*%
%LPD*%
G01*
G04 APERTURE LIST*
%ADD10R,0.375000X0.350000*%
%ADD11R,0.350000X0.375000*%
%ADD12R,0.750000X0.300000*%
%ADD13R,1.300000X1.500000*%
%ADD14R,0.300000X1.700000*%
%ADD15R,0.600000X0.270000*%
%ADD16C,0.100000*%
%ADD17R,1.000000X1.000000*%
%ADD18O,1.000000X1.000000*%
%ADD19R,1.700000X1.700000*%
%ADD20O,1.700000X1.700000*%
%ADD21C,2.500000*%
%ADD22R,0.800000X1.000000*%
%ADD23R,0.250000X0.360000*%
%ADD24R,1.000000X1.500000*%
%ADD25C,1.500000*%
G04 APERTURE END LIST*
D10*
X-754500Y-13288803D03*
X-754500Y-13788803D03*
X770500Y-13788803D03*
X770500Y-13288803D03*
D11*
X-742000Y-14301303D03*
X-742000Y-12776303D03*
X758000Y-14301303D03*
X758000Y-12776303D03*
X258000Y-14301303D03*
X-242000Y-14301303D03*
X258000Y-12776303D03*
X-242000Y-12776303D03*
D12*
X-11750000Y-14238803D03*
X-11750000Y-13738803D03*
X-11750000Y-13238803D03*
X-11750000Y-12738803D03*
X-8850000Y-12738803D03*
X-8850000Y-13238803D03*
X-8850000Y-13738803D03*
X-8850000Y-14238803D03*
D13*
X-10300000Y-13488803D03*
G36*
G01*
X375400Y-26387900D02*
X375400Y-27637900D01*
G75*
G02*
X200400Y-27812900I-175000J0D01*
G01*
X-149600Y-27812900D01*
G75*
G02*
X-324600Y-27637900I0J175000D01*
G01*
X-324600Y-26387900D01*
G75*
G02*
X-149600Y-26212900I175000J0D01*
G01*
X200400Y-26212900D01*
G75*
G02*
X375400Y-26387900I0J-175000D01*
G01*
G37*
G36*
G01*
X-624600Y-26425400D02*
X-624600Y-26600400D01*
G75*
G02*
X-712100Y-26687900I-87500J0D01*
G01*
X-1087100Y-26687900D01*
G75*
G02*
X-1174600Y-26600400I0J87500D01*
G01*
X-1174600Y-26425400D01*
G75*
G02*
X-1087100Y-26337900I87500J0D01*
G01*
X-712100Y-26337900D01*
G75*
G02*
X-624600Y-26425400I0J-87500D01*
G01*
G37*
G36*
G01*
X-624600Y-27425400D02*
X-624600Y-27600400D01*
G75*
G02*
X-712100Y-27687900I-87500J0D01*
G01*
X-1087100Y-27687900D01*
G75*
G02*
X-1174600Y-27600400I0J87500D01*
G01*
X-1174600Y-27425400D01*
G75*
G02*
X-1087100Y-27337900I87500J0D01*
G01*
X-712100Y-27337900D01*
G75*
G02*
X-624600Y-27425400I0J-87500D01*
G01*
G37*
G36*
G01*
X1225400Y-27425400D02*
X1225400Y-27600400D01*
G75*
G02*
X1137900Y-27687900I-87500J0D01*
G01*
X762900Y-27687900D01*
G75*
G02*
X675400Y-27600400I0J87500D01*
G01*
X675400Y-27425400D01*
G75*
G02*
X762900Y-27337900I87500J0D01*
G01*
X1137900Y-27337900D01*
G75*
G02*
X1225400Y-27425400I0J-87500D01*
G01*
G37*
G36*
G01*
X1225400Y-26425400D02*
X1225400Y-26600400D01*
G75*
G02*
X1137900Y-26687900I-87500J0D01*
G01*
X762900Y-26687900D01*
G75*
G02*
X675400Y-26600400I0J87500D01*
G01*
X675400Y-26425400D01*
G75*
G02*
X762900Y-26337900I87500J0D01*
G01*
X1137900Y-26337900D01*
G75*
G02*
X1225400Y-26425400I0J-87500D01*
G01*
G37*
D14*
X9512000Y-13527000D03*
D15*
X10812000Y-14277000D03*
X10812000Y-13777000D03*
X10812000Y-13277000D03*
X10812000Y-12777000D03*
X8212000Y-12777000D03*
X8212000Y-13277000D03*
X8212000Y-13777000D03*
X8212000Y-14277000D03*
G36*
G01*
X-7680000Y-3245000D02*
X-8050000Y-3245000D01*
G75*
G02*
X-8185000Y-3110000I0J135000D01*
G01*
X-8185000Y-2840000D01*
G75*
G02*
X-8050000Y-2705000I135000J0D01*
G01*
X-7680000Y-2705000D01*
G75*
G02*
X-7545000Y-2840000I0J-135000D01*
G01*
X-7545000Y-3110000D01*
G75*
G02*
X-7680000Y-3245000I-135000J0D01*
G01*
G37*
G36*
G01*
X-7680000Y-2225000D02*
X-8050000Y-2225000D01*
G75*
G02*
X-8185000Y-2090000I0J135000D01*
G01*
X-8185000Y-1820000D01*
G75*
G02*
X-8050000Y-1685000I135000J0D01*
G01*
X-7680000Y-1685000D01*
G75*
G02*
X-7545000Y-1820000I0J-135000D01*
G01*
X-7545000Y-2090000D01*
G75*
G02*
X-7680000Y-2225000I-135000J0D01*
G01*
G37*
D16*
G36*
X11796000Y6870602D02*
G01*
X11771466Y6870602D01*
X11722635Y6875412D01*
X11674510Y6884984D01*
X11627555Y6899228D01*
X11582222Y6918005D01*
X11538949Y6941136D01*
X11498150Y6968396D01*
X11460221Y6999524D01*
X11425524Y7034221D01*
X11394396Y7072150D01*
X11367136Y7112949D01*
X11344005Y7156222D01*
X11325228Y7201555D01*
X11310984Y7248510D01*
X11301412Y7296635D01*
X11296602Y7345466D01*
X11296602Y7370000D01*
X11296000Y7370000D01*
X11296000Y7870000D01*
X11296602Y7870000D01*
X11296602Y7894534D01*
X11301412Y7943365D01*
X11310984Y7991490D01*
X11325228Y8038445D01*
X11344005Y8083778D01*
X11367136Y8127051D01*
X11394396Y8167850D01*
X11425524Y8205779D01*
X11460221Y8240476D01*
X11498150Y8271604D01*
X11538949Y8298864D01*
X11582222Y8321995D01*
X11627555Y8340772D01*
X11674510Y8355016D01*
X11722635Y8364588D01*
X11771466Y8369398D01*
X11796000Y8369398D01*
X11796000Y8370000D01*
X12296000Y8370000D01*
X12296000Y6870000D01*
X11796000Y6870000D01*
X11796000Y6870602D01*
G37*
G36*
X12596000Y8370000D02*
G01*
X13096000Y8370000D01*
X13096000Y8369398D01*
X13120534Y8369398D01*
X13169365Y8364588D01*
X13217490Y8355016D01*
X13264445Y8340772D01*
X13309778Y8321995D01*
X13353051Y8298864D01*
X13393850Y8271604D01*
X13431779Y8240476D01*
X13466476Y8205779D01*
X13497604Y8167850D01*
X13524864Y8127051D01*
X13547995Y8083778D01*
X13566772Y8038445D01*
X13581016Y7991490D01*
X13590588Y7943365D01*
X13595398Y7894534D01*
X13595398Y7870000D01*
X13596000Y7870000D01*
X13596000Y7370000D01*
X13595398Y7370000D01*
X13595398Y7345466D01*
X13590588Y7296635D01*
X13581016Y7248510D01*
X13566772Y7201555D01*
X13547995Y7156222D01*
X13524864Y7112949D01*
X13497604Y7072150D01*
X13466476Y7034221D01*
X13431779Y6999524D01*
X13393850Y6968396D01*
X13353051Y6941136D01*
X13309778Y6918005D01*
X13264445Y6899228D01*
X13217490Y6884984D01*
X13169365Y6875412D01*
X13120534Y6870602D01*
X13096000Y6870602D01*
X13096000Y6870000D01*
X12596000Y6870000D01*
X12596000Y8370000D01*
G37*
D17*
X14700000Y11000000D03*
D18*
X15970000Y11000000D03*
D16*
G36*
X13096000Y3289398D02*
G01*
X13120534Y3289398D01*
X13169365Y3284588D01*
X13217490Y3275016D01*
X13264445Y3260772D01*
X13309778Y3241995D01*
X13353051Y3218864D01*
X13393850Y3191604D01*
X13431779Y3160476D01*
X13466476Y3125779D01*
X13497604Y3087850D01*
X13524864Y3047051D01*
X13547995Y3003778D01*
X13566772Y2958445D01*
X13581016Y2911490D01*
X13590588Y2863365D01*
X13595398Y2814534D01*
X13595398Y2790000D01*
X13596000Y2790000D01*
X13596000Y2290000D01*
X13595398Y2290000D01*
X13595398Y2265466D01*
X13590588Y2216635D01*
X13581016Y2168510D01*
X13566772Y2121555D01*
X13547995Y2076222D01*
X13524864Y2032949D01*
X13497604Y1992150D01*
X13466476Y1954221D01*
X13431779Y1919524D01*
X13393850Y1888396D01*
X13353051Y1861136D01*
X13309778Y1838005D01*
X13264445Y1819228D01*
X13217490Y1804984D01*
X13169365Y1795412D01*
X13120534Y1790602D01*
X13096000Y1790602D01*
X13096000Y1790000D01*
X12596000Y1790000D01*
X12596000Y3290000D01*
X13096000Y3290000D01*
X13096000Y3289398D01*
G37*
G36*
X12296000Y1790000D02*
G01*
X11796000Y1790000D01*
X11796000Y1790602D01*
X11771466Y1790602D01*
X11722635Y1795412D01*
X11674510Y1804984D01*
X11627555Y1819228D01*
X11582222Y1838005D01*
X11538949Y1861136D01*
X11498150Y1888396D01*
X11460221Y1919524D01*
X11425524Y1954221D01*
X11394396Y1992150D01*
X11367136Y2032949D01*
X11344005Y2076222D01*
X11325228Y2121555D01*
X11310984Y2168510D01*
X11301412Y2216635D01*
X11296602Y2265466D01*
X11296602Y2290000D01*
X11296000Y2290000D01*
X11296000Y2790000D01*
X11296602Y2790000D01*
X11296602Y2814534D01*
X11301412Y2863365D01*
X11310984Y2911490D01*
X11325228Y2958445D01*
X11344005Y3003778D01*
X11367136Y3047051D01*
X11394396Y3087850D01*
X11425524Y3125779D01*
X11460221Y3160476D01*
X11498150Y3191604D01*
X11538949Y3218864D01*
X11582222Y3241995D01*
X11627555Y3260772D01*
X11674510Y3275016D01*
X11722635Y3284588D01*
X11771466Y3289398D01*
X11796000Y3289398D01*
X11796000Y3290000D01*
X12296000Y3290000D01*
X12296000Y1790000D01*
G37*
D19*
X15875000Y-7620000D03*
D20*
X15875000Y-5080000D03*
X15875000Y-2540000D03*
X15875000Y0D03*
X15875000Y2540000D03*
X15875000Y5080000D03*
X15875000Y7620000D03*
G36*
G01*
X1874000Y-15201000D02*
X1874000Y-15541000D01*
G75*
G02*
X1734000Y-15681000I-140000J0D01*
G01*
X1454000Y-15681000D01*
G75*
G02*
X1314000Y-15541000I0J140000D01*
G01*
X1314000Y-15201000D01*
G75*
G02*
X1454000Y-15061000I140000J0D01*
G01*
X1734000Y-15061000D01*
G75*
G02*
X1874000Y-15201000I0J-140000D01*
G01*
G37*
G36*
G01*
X914000Y-15201000D02*
X914000Y-15541000D01*
G75*
G02*
X774000Y-15681000I-140000J0D01*
G01*
X494000Y-15681000D01*
G75*
G02*
X354000Y-15541000I0J140000D01*
G01*
X354000Y-15201000D01*
G75*
G02*
X494000Y-15061000I140000J0D01*
G01*
X774000Y-15061000D01*
G75*
G02*
X914000Y-15201000I0J-140000D01*
G01*
G37*
G36*
G01*
X-280000Y-17605000D02*
X-780000Y-17605000D01*
G75*
G02*
X-1005000Y-17380000I0J225000D01*
G01*
X-1005000Y-16930000D01*
G75*
G02*
X-780000Y-16705000I225000J0D01*
G01*
X-280000Y-16705000D01*
G75*
G02*
X-55000Y-16930000I0J-225000D01*
G01*
X-55000Y-17380000D01*
G75*
G02*
X-280000Y-17605000I-225000J0D01*
G01*
G37*
G36*
G01*
X-280000Y-16055000D02*
X-780000Y-16055000D01*
G75*
G02*
X-1005000Y-15830000I0J225000D01*
G01*
X-1005000Y-15380000D01*
G75*
G02*
X-780000Y-15155000I225000J0D01*
G01*
X-280000Y-15155000D01*
G75*
G02*
X-55000Y-15380000I0J-225000D01*
G01*
X-55000Y-15830000D01*
G75*
G02*
X-280000Y-16055000I-225000J0D01*
G01*
G37*
D19*
X-15875000Y-7620000D03*
D20*
X-15875000Y-5080000D03*
X-15875000Y-2540000D03*
X-15875000Y0D03*
X-15875000Y2540000D03*
X-15875000Y5080000D03*
X-15875000Y7620000D03*
G36*
G01*
X12320000Y-14157500D02*
X12320000Y-14502500D01*
G75*
G02*
X12172500Y-14650000I-147500J0D01*
G01*
X11877500Y-14650000D01*
G75*
G02*
X11730000Y-14502500I0J147500D01*
G01*
X11730000Y-14157500D01*
G75*
G02*
X11877500Y-14010000I147500J0D01*
G01*
X12172500Y-14010000D01*
G75*
G02*
X12320000Y-14157500I0J-147500D01*
G01*
G37*
G36*
G01*
X13290000Y-14157500D02*
X13290000Y-14502500D01*
G75*
G02*
X13142500Y-14650000I-147500J0D01*
G01*
X12847500Y-14650000D01*
G75*
G02*
X12700000Y-14502500I0J147500D01*
G01*
X12700000Y-14157500D01*
G75*
G02*
X12847500Y-14010000I147500J0D01*
G01*
X13142500Y-14010000D01*
G75*
G02*
X13290000Y-14157500I0J-147500D01*
G01*
G37*
G36*
G01*
X-2267500Y-13749000D02*
X-1922500Y-13749000D01*
G75*
G02*
X-1775000Y-13896500I0J-147500D01*
G01*
X-1775000Y-14191500D01*
G75*
G02*
X-1922500Y-14339000I-147500J0D01*
G01*
X-2267500Y-14339000D01*
G75*
G02*
X-2415000Y-14191500I0J147500D01*
G01*
X-2415000Y-13896500D01*
G75*
G02*
X-2267500Y-13749000I147500J0D01*
G01*
G37*
G36*
G01*
X-2267500Y-12779000D02*
X-1922500Y-12779000D01*
G75*
G02*
X-1775000Y-12926500I0J-147500D01*
G01*
X-1775000Y-13221500D01*
G75*
G02*
X-1922500Y-13369000I-147500J0D01*
G01*
X-2267500Y-13369000D01*
G75*
G02*
X-2415000Y-13221500I0J147500D01*
G01*
X-2415000Y-12926500D01*
G75*
G02*
X-2267500Y-12779000I147500J0D01*
G01*
G37*
G36*
G01*
X1780500Y-25229000D02*
X2125500Y-25229000D01*
G75*
G02*
X2273000Y-25376500I0J-147500D01*
G01*
X2273000Y-25671500D01*
G75*
G02*
X2125500Y-25819000I-147500J0D01*
G01*
X1780500Y-25819000D01*
G75*
G02*
X1633000Y-25671500I0J147500D01*
G01*
X1633000Y-25376500D01*
G75*
G02*
X1780500Y-25229000I147500J0D01*
G01*
G37*
G36*
G01*
X1780500Y-26199000D02*
X2125500Y-26199000D01*
G75*
G02*
X2273000Y-26346500I0J-147500D01*
G01*
X2273000Y-26641500D01*
G75*
G02*
X2125500Y-26789000I-147500J0D01*
G01*
X1780500Y-26789000D01*
G75*
G02*
X1633000Y-26641500I0J147500D01*
G01*
X1633000Y-26346500D01*
G75*
G02*
X1780500Y-26199000I147500J0D01*
G01*
G37*
G36*
G01*
X-7347500Y-15730000D02*
X-7692500Y-15730000D01*
G75*
G02*
X-7840000Y-15582500I0J147500D01*
G01*
X-7840000Y-15287500D01*
G75*
G02*
X-7692500Y-15140000I147500J0D01*
G01*
X-7347500Y-15140000D01*
G75*
G02*
X-7200000Y-15287500I0J-147500D01*
G01*
X-7200000Y-15582500D01*
G75*
G02*
X-7347500Y-15730000I-147500J0D01*
G01*
G37*
G36*
G01*
X-7347500Y-14760000D02*
X-7692500Y-14760000D01*
G75*
G02*
X-7840000Y-14612500I0J147500D01*
G01*
X-7840000Y-14317500D01*
G75*
G02*
X-7692500Y-14170000I147500J0D01*
G01*
X-7347500Y-14170000D01*
G75*
G02*
X-7200000Y-14317500I0J-147500D01*
G01*
X-7200000Y-14612500D01*
G75*
G02*
X-7347500Y-14760000I-147500J0D01*
G01*
G37*
G36*
G01*
X10522500Y-6230000D02*
X10177500Y-6230000D01*
G75*
G02*
X10030000Y-6082500I0J147500D01*
G01*
X10030000Y-5787500D01*
G75*
G02*
X10177500Y-5640000I147500J0D01*
G01*
X10522500Y-5640000D01*
G75*
G02*
X10670000Y-5787500I0J-147500D01*
G01*
X10670000Y-6082500D01*
G75*
G02*
X10522500Y-6230000I-147500J0D01*
G01*
G37*
G36*
G01*
X10522500Y-5260000D02*
X10177500Y-5260000D01*
G75*
G02*
X10030000Y-5112500I0J147500D01*
G01*
X10030000Y-4817500D01*
G75*
G02*
X10177500Y-4670000I147500J0D01*
G01*
X10522500Y-4670000D01*
G75*
G02*
X10670000Y-4817500I0J-147500D01*
G01*
X10670000Y-5112500D01*
G75*
G02*
X10522500Y-5260000I-147500J0D01*
G01*
G37*
D21*
X12500000Y-20000000D03*
X-12500000Y20000000D03*
G36*
G01*
X13294000Y-13196500D02*
X13294000Y-13541500D01*
G75*
G02*
X13146500Y-13689000I-147500J0D01*
G01*
X12851500Y-13689000D01*
G75*
G02*
X12704000Y-13541500I0J147500D01*
G01*
X12704000Y-13196500D01*
G75*
G02*
X12851500Y-13049000I147500J0D01*
G01*
X13146500Y-13049000D01*
G75*
G02*
X13294000Y-13196500I0J-147500D01*
G01*
G37*
G36*
G01*
X12324000Y-13196500D02*
X12324000Y-13541500D01*
G75*
G02*
X12176500Y-13689000I-147500J0D01*
G01*
X11881500Y-13689000D01*
G75*
G02*
X11734000Y-13541500I0J147500D01*
G01*
X11734000Y-13196500D01*
G75*
G02*
X11881500Y-13049000I147500J0D01*
G01*
X12176500Y-13049000D01*
G75*
G02*
X12324000Y-13196500I0J-147500D01*
G01*
G37*
G36*
G01*
X12781500Y-1808000D02*
X13126500Y-1808000D01*
G75*
G02*
X13274000Y-1955500I0J-147500D01*
G01*
X13274000Y-2250500D01*
G75*
G02*
X13126500Y-2398000I-147500J0D01*
G01*
X12781500Y-2398000D01*
G75*
G02*
X12634000Y-2250500I0J147500D01*
G01*
X12634000Y-1955500D01*
G75*
G02*
X12781500Y-1808000I147500J0D01*
G01*
G37*
G36*
G01*
X12781500Y-2778000D02*
X13126500Y-2778000D01*
G75*
G02*
X13274000Y-2925500I0J-147500D01*
G01*
X13274000Y-3220500D01*
G75*
G02*
X13126500Y-3368000I-147500J0D01*
G01*
X12781500Y-3368000D01*
G75*
G02*
X12634000Y-3220500I0J147500D01*
G01*
X12634000Y-2925500D01*
G75*
G02*
X12781500Y-2778000I147500J0D01*
G01*
G37*
G36*
G01*
X13280000Y-12227500D02*
X13280000Y-12572500D01*
G75*
G02*
X13132500Y-12720000I-147500J0D01*
G01*
X12837500Y-12720000D01*
G75*
G02*
X12690000Y-12572500I0J147500D01*
G01*
X12690000Y-12227500D01*
G75*
G02*
X12837500Y-12080000I147500J0D01*
G01*
X13132500Y-12080000D01*
G75*
G02*
X13280000Y-12227500I0J-147500D01*
G01*
G37*
G36*
G01*
X12310000Y-12227500D02*
X12310000Y-12572500D01*
G75*
G02*
X12162500Y-12720000I-147500J0D01*
G01*
X11867500Y-12720000D01*
G75*
G02*
X11720000Y-12572500I0J147500D01*
G01*
X11720000Y-12227500D01*
G75*
G02*
X11867500Y-12080000I147500J0D01*
G01*
X12162500Y-12080000D01*
G75*
G02*
X12310000Y-12227500I0J-147500D01*
G01*
G37*
G36*
G01*
X9810000Y7772500D02*
X9810000Y7427500D01*
G75*
G02*
X9662500Y7280000I-147500J0D01*
G01*
X9367500Y7280000D01*
G75*
G02*
X9220000Y7427500I0J147500D01*
G01*
X9220000Y7772500D01*
G75*
G02*
X9367500Y7920000I147500J0D01*
G01*
X9662500Y7920000D01*
G75*
G02*
X9810000Y7772500I0J-147500D01*
G01*
G37*
G36*
G01*
X10780000Y7772500D02*
X10780000Y7427500D01*
G75*
G02*
X10632500Y7280000I-147500J0D01*
G01*
X10337500Y7280000D01*
G75*
G02*
X10190000Y7427500I0J147500D01*
G01*
X10190000Y7772500D01*
G75*
G02*
X10337500Y7920000I147500J0D01*
G01*
X10632500Y7920000D01*
G75*
G02*
X10780000Y7772500I0J-147500D01*
G01*
G37*
G36*
G01*
X-6676500Y-3245000D02*
X-7021500Y-3245000D01*
G75*
G02*
X-7169000Y-3097500I0J147500D01*
G01*
X-7169000Y-2802500D01*
G75*
G02*
X-7021500Y-2655000I147500J0D01*
G01*
X-6676500Y-2655000D01*
G75*
G02*
X-6529000Y-2802500I0J-147500D01*
G01*
X-6529000Y-3097500D01*
G75*
G02*
X-6676500Y-3245000I-147500J0D01*
G01*
G37*
G36*
G01*
X-6676500Y-2275000D02*
X-7021500Y-2275000D01*
G75*
G02*
X-7169000Y-2127500I0J147500D01*
G01*
X-7169000Y-1832500D01*
G75*
G02*
X-7021500Y-1685000I147500J0D01*
G01*
X-6676500Y-1685000D01*
G75*
G02*
X-6529000Y-1832500I0J-147500D01*
G01*
X-6529000Y-2127500D01*
G75*
G02*
X-6676500Y-2275000I-147500J0D01*
G01*
G37*
D22*
X-6450000Y750000D03*
X-6450000Y-750000D03*
X-7550000Y-750000D03*
X-7550000Y750000D03*
G36*
G01*
X8422500Y-15710000D02*
X8077500Y-15710000D01*
G75*
G02*
X7930000Y-15562500I0J147500D01*
G01*
X7930000Y-15267500D01*
G75*
G02*
X8077500Y-15120000I147500J0D01*
G01*
X8422500Y-15120000D01*
G75*
G02*
X8570000Y-15267500I0J-147500D01*
G01*
X8570000Y-15562500D01*
G75*
G02*
X8422500Y-15710000I-147500J0D01*
G01*
G37*
G36*
G01*
X8422500Y-16680000D02*
X8077500Y-16680000D01*
G75*
G02*
X7930000Y-16532500I0J147500D01*
G01*
X7930000Y-16237500D01*
G75*
G02*
X8077500Y-16090000I147500J0D01*
G01*
X8422500Y-16090000D01*
G75*
G02*
X8570000Y-16237500I0J-147500D01*
G01*
X8570000Y-16532500D01*
G75*
G02*
X8422500Y-16680000I-147500J0D01*
G01*
G37*
G36*
G01*
X12110500Y-2398000D02*
X11765500Y-2398000D01*
G75*
G02*
X11618000Y-2250500I0J147500D01*
G01*
X11618000Y-1955500D01*
G75*
G02*
X11765500Y-1808000I147500J0D01*
G01*
X12110500Y-1808000D01*
G75*
G02*
X12258000Y-1955500I0J-147500D01*
G01*
X12258000Y-2250500D01*
G75*
G02*
X12110500Y-2398000I-147500J0D01*
G01*
G37*
G36*
G01*
X12110500Y-3368000D02*
X11765500Y-3368000D01*
G75*
G02*
X11618000Y-3220500I0J147500D01*
G01*
X11618000Y-2925500D01*
G75*
G02*
X11765500Y-2778000I147500J0D01*
G01*
X12110500Y-2778000D01*
G75*
G02*
X12258000Y-2925500I0J-147500D01*
G01*
X12258000Y-3220500D01*
G75*
G02*
X12110500Y-3368000I-147500J0D01*
G01*
G37*
D23*
X10350000Y-4020000D03*
X10350000Y-3180000D03*
D16*
G36*
X9270000Y10350000D02*
G01*
X8720000Y10350000D01*
X8720000Y10350602D01*
X8695466Y10350602D01*
X8646635Y10355412D01*
X8598510Y10364984D01*
X8551555Y10379228D01*
X8506222Y10398005D01*
X8462949Y10421136D01*
X8422150Y10448396D01*
X8384221Y10479524D01*
X8349524Y10514221D01*
X8318396Y10552150D01*
X8291136Y10592949D01*
X8268005Y10636222D01*
X8249228Y10681555D01*
X8234984Y10728510D01*
X8225412Y10776635D01*
X8220602Y10825466D01*
X8220602Y10850000D01*
X8220000Y10850000D01*
X8220000Y11350000D01*
X8220602Y11350000D01*
X8220602Y11374534D01*
X8225412Y11423365D01*
X8234984Y11471490D01*
X8249228Y11518445D01*
X8268005Y11563778D01*
X8291136Y11607051D01*
X8318396Y11647850D01*
X8349524Y11685779D01*
X8384221Y11720476D01*
X8422150Y11751604D01*
X8462949Y11778864D01*
X8506222Y11801995D01*
X8551555Y11820772D01*
X8598510Y11835016D01*
X8646635Y11844588D01*
X8695466Y11849398D01*
X8720000Y11849398D01*
X8720000Y11850000D01*
X9270000Y11850000D01*
X9270000Y10350000D01*
G37*
D24*
X10020000Y11100000D03*
D16*
G36*
X11320000Y11849398D02*
G01*
X11344534Y11849398D01*
X11393365Y11844588D01*
X11441490Y11835016D01*
X11488445Y11820772D01*
X11533778Y11801995D01*
X11577051Y11778864D01*
X11617850Y11751604D01*
X11655779Y11720476D01*
X11690476Y11685779D01*
X11721604Y11647850D01*
X11748864Y11607051D01*
X11771995Y11563778D01*
X11790772Y11518445D01*
X11805016Y11471490D01*
X11814588Y11423365D01*
X11819398Y11374534D01*
X11819398Y11350000D01*
X11820000Y11350000D01*
X11820000Y10850000D01*
X11819398Y10850000D01*
X11819398Y10825466D01*
X11814588Y10776635D01*
X11805016Y10728510D01*
X11790772Y10681555D01*
X11771995Y10636222D01*
X11748864Y10592949D01*
X11721604Y10552150D01*
X11690476Y10514221D01*
X11655779Y10479524D01*
X11617850Y10448396D01*
X11577051Y10421136D01*
X11533778Y10398005D01*
X11488445Y10379228D01*
X11441490Y10364984D01*
X11393365Y10355412D01*
X11344534Y10350602D01*
X11320000Y10350602D01*
X11320000Y10350000D01*
X10770000Y10350000D01*
X10770000Y11850000D01*
X11320000Y11850000D01*
X11320000Y11849398D01*
G37*
G36*
X11796000Y4250602D02*
G01*
X11771466Y4250602D01*
X11722635Y4255412D01*
X11674510Y4264984D01*
X11627555Y4279228D01*
X11582222Y4298005D01*
X11538949Y4321136D01*
X11498150Y4348396D01*
X11460221Y4379524D01*
X11425524Y4414221D01*
X11394396Y4452150D01*
X11367136Y4492949D01*
X11344005Y4536222D01*
X11325228Y4581555D01*
X11310984Y4628510D01*
X11301412Y4676635D01*
X11296602Y4725466D01*
X11296602Y4750000D01*
X11296000Y4750000D01*
X11296000Y5250000D01*
X11296602Y5250000D01*
X11296602Y5274534D01*
X11301412Y5323365D01*
X11310984Y5371490D01*
X11325228Y5418445D01*
X11344005Y5463778D01*
X11367136Y5507051D01*
X11394396Y5547850D01*
X11425524Y5585779D01*
X11460221Y5620476D01*
X11498150Y5651604D01*
X11538949Y5678864D01*
X11582222Y5701995D01*
X11627555Y5720772D01*
X11674510Y5735016D01*
X11722635Y5744588D01*
X11771466Y5749398D01*
X11796000Y5749398D01*
X11796000Y5750000D01*
X12296000Y5750000D01*
X12296000Y4250000D01*
X11796000Y4250000D01*
X11796000Y4250602D01*
G37*
G36*
X12596000Y5750000D02*
G01*
X13096000Y5750000D01*
X13096000Y5749398D01*
X13120534Y5749398D01*
X13169365Y5744588D01*
X13217490Y5735016D01*
X13264445Y5720772D01*
X13309778Y5701995D01*
X13353051Y5678864D01*
X13393850Y5651604D01*
X13431779Y5620476D01*
X13466476Y5585779D01*
X13497604Y5547850D01*
X13524864Y5507051D01*
X13547995Y5463778D01*
X13566772Y5418445D01*
X13581016Y5371490D01*
X13590588Y5323365D01*
X13595398Y5274534D01*
X13595398Y5250000D01*
X13596000Y5250000D01*
X13596000Y4750000D01*
X13595398Y4750000D01*
X13595398Y4725466D01*
X13590588Y4676635D01*
X13581016Y4628510D01*
X13566772Y4581555D01*
X13547995Y4536222D01*
X13524864Y4492949D01*
X13497604Y4452150D01*
X13466476Y4414221D01*
X13431779Y4379524D01*
X13393850Y4348396D01*
X13353051Y4321136D01*
X13309778Y4298005D01*
X13264445Y4279228D01*
X13217490Y4264984D01*
X13169365Y4255412D01*
X13120534Y4250602D01*
X13096000Y4250602D01*
X13096000Y4250000D01*
X12596000Y4250000D01*
X12596000Y5750000D01*
G37*
G36*
X13096000Y749398D02*
G01*
X13120534Y749398D01*
X13169365Y744588D01*
X13217490Y735016D01*
X13264445Y720772D01*
X13309778Y701995D01*
X13353051Y678864D01*
X13393850Y651604D01*
X13431779Y620476D01*
X13466476Y585779D01*
X13497604Y547850D01*
X13524864Y507051D01*
X13547995Y463778D01*
X13566772Y418445D01*
X13581016Y371490D01*
X13590588Y323365D01*
X13595398Y274534D01*
X13595398Y250000D01*
X13596000Y250000D01*
X13596000Y-250000D01*
X13595398Y-250000D01*
X13595398Y-274534D01*
X13590588Y-323365D01*
X13581016Y-371490D01*
X13566772Y-418445D01*
X13547995Y-463778D01*
X13524864Y-507051D01*
X13497604Y-547850D01*
X13466476Y-585779D01*
X13431779Y-620476D01*
X13393850Y-651604D01*
X13353051Y-678864D01*
X13309778Y-701995D01*
X13264445Y-720772D01*
X13217490Y-735016D01*
X13169365Y-744588D01*
X13120534Y-749398D01*
X13096000Y-749398D01*
X13096000Y-750000D01*
X12596000Y-750000D01*
X12596000Y750000D01*
X13096000Y750000D01*
X13096000Y749398D01*
G37*
G36*
X12296000Y-750000D02*
G01*
X11796000Y-750000D01*
X11796000Y-749398D01*
X11771466Y-749398D01*
X11722635Y-744588D01*
X11674510Y-735016D01*
X11627555Y-720772D01*
X11582222Y-701995D01*
X11538949Y-678864D01*
X11498150Y-651604D01*
X11460221Y-620476D01*
X11425524Y-585779D01*
X11394396Y-547850D01*
X11367136Y-507051D01*
X11344005Y-463778D01*
X11325228Y-418445D01*
X11310984Y-371490D01*
X11301412Y-323365D01*
X11296602Y-274534D01*
X11296602Y-250000D01*
X11296000Y-250000D01*
X11296000Y250000D01*
X11296602Y250000D01*
X11296602Y274534D01*
X11301412Y323365D01*
X11310984Y371490D01*
X11325228Y418445D01*
X11344005Y463778D01*
X11367136Y507051D01*
X11394396Y547850D01*
X11425524Y585779D01*
X11460221Y620476D01*
X11498150Y651604D01*
X11538949Y678864D01*
X11582222Y701995D01*
X11627555Y720772D01*
X11674510Y735016D01*
X11722635Y744588D01*
X11771466Y749398D01*
X11796000Y749398D01*
X11796000Y750000D01*
X12296000Y750000D01*
X12296000Y-750000D01*
G37*
G36*
G01*
X-8065000Y2074000D02*
X-8065000Y2444000D01*
G75*
G02*
X-7930000Y2579000I135000J0D01*
G01*
X-7660000Y2579000D01*
G75*
G02*
X-7525000Y2444000I0J-135000D01*
G01*
X-7525000Y2074000D01*
G75*
G02*
X-7660000Y1939000I-135000J0D01*
G01*
X-7930000Y1939000D01*
G75*
G02*
X-8065000Y2074000I0J135000D01*
G01*
G37*
G36*
G01*
X-7045000Y2074000D02*
X-7045000Y2444000D01*
G75*
G02*
X-6910000Y2579000I135000J0D01*
G01*
X-6640000Y2579000D01*
G75*
G02*
X-6505000Y2444000I0J-135000D01*
G01*
X-6505000Y2074000D01*
G75*
G02*
X-6640000Y1939000I-135000J0D01*
G01*
X-6910000Y1939000D01*
G75*
G02*
X-7045000Y2074000I0J135000D01*
G01*
G37*
D25*
X8660000Y-26910000D03*
X190000Y-21500000D03*
X10550000Y-7950000D03*
X-4175000Y-11425000D03*
X4900000Y-12580000D03*
X6420000Y-17710000D03*
X15300000Y-10380000D03*
X9440000Y-20170000D03*
X14860000Y-13490000D03*
X11037000Y-16824000D03*
X-4174000Y-15377000D03*
X-7760000Y-6680000D03*
X-10979000Y-9360000D03*
G36*
G01*
X4800000Y2950000D02*
X4200000Y2950000D01*
G75*
G02*
X4000000Y3150000I0J200000D01*
G01*
X4000000Y5750000D01*
G75*
G02*
X4200000Y5950000I200000J0D01*
G01*
X4800000Y5950000D01*
G75*
G02*
X5000000Y5750000I0J-200000D01*
G01*
X5000000Y3150000D01*
G75*
G02*
X4800000Y2950000I-200000J0D01*
G01*
G37*
G36*
G01*
X4800000Y-5950000D02*
X4200000Y-5950000D01*
G75*
G02*
X4000000Y-5750000I0J200000D01*
G01*
X4000000Y-3150000D01*
G75*
G02*
X4200000Y-2950000I200000J0D01*
G01*
X4800000Y-2950000D01*
G75*
G02*
X5000000Y-3150000I0J-200000D01*
G01*
X5000000Y-5750000D01*
G75*
G02*
X4800000Y-5950000I-200000J0D01*
G01*
G37*
G36*
G01*
X8800000Y2950000D02*
X8200000Y2950000D01*
G75*
G02*
X8000000Y3150000I0J200000D01*
G01*
X8000000Y5750000D01*
G75*
G02*
X8200000Y5950000I200000J0D01*
G01*
X8800000Y5950000D01*
G75*
G02*
X9000000Y5750000I0J-200000D01*
G01*
X9000000Y3150000D01*
G75*
G02*
X8800000Y2950000I-200000J0D01*
G01*
G37*
G36*
G01*
X8800000Y-5950000D02*
X8200000Y-5950000D01*
G75*
G02*
X8000000Y-5750000I0J200000D01*
G01*
X8000000Y-3150000D01*
G75*
G02*
X8200000Y-2950000I200000J0D01*
G01*
X8800000Y-2950000D01*
G75*
G02*
X9000000Y-3150000I0J-200000D01*
G01*
X9000000Y-5750000D01*
G75*
G02*
X8800000Y-5950000I-200000J0D01*
G01*
G37*
M02*
