G04 #@! TF.GenerationSoftware,KiCad,Pcbnew,(5.1.7)-1*
G04 #@! TF.CreationDate,2021-07-01T14:18:12+04:00*
G04 #@! TF.ProjectId,pcb-stm32wl,7063622d-7374-46d3-9332-776c2e6b6963,1.1*
G04 #@! TF.SameCoordinates,PX8f0d180PY6422c40*
G04 #@! TF.FileFunction,Soldermask,Top*
G04 #@! TF.FilePolarity,Negative*
%FSLAX46Y46*%
G04 Gerber Fmt 4.6, Leading zero omitted, Abs format (unit mm)*
G04 Created by KiCad (PCBNEW (5.1.7)-1) date 2021-07-01 14:18:12*
%MOMM*%
%LPD*%
G01*
G04 APERTURE LIST*
%ADD10C,0.300000*%
%ADD11R,0.500000X0.710000*%
%ADD12R,0.800000X0.900000*%
%ADD13C,0.100000*%
%ADD14R,0.800000X5.000000*%
%ADD15R,1.650000X2.300000*%
%ADD16R,0.563000X0.225000*%
%ADD17R,0.225000X0.563000*%
%ADD18R,0.663000X0.225000*%
%ADD19R,5.450000X5.450000*%
%ADD20R,1.060000X0.650000*%
%ADD21R,1.000000X1.000000*%
%ADD22O,1.000000X1.000000*%
%ADD23R,1.700000X1.700000*%
%ADD24O,1.700000X1.700000*%
%ADD25C,2.500000*%
%ADD26R,0.450000X0.700000*%
%ADD27R,0.650000X1.060000*%
%ADD28R,0.450000X0.600000*%
%ADD29R,0.250000X0.360000*%
%ADD30R,2.200000X1.050000*%
%ADD31R,1.050000X1.000000*%
%ADD32R,1.000000X1.250000*%
%ADD33R,0.550000X0.500000*%
G04 APERTURE END LIST*
G36*
G01*
X-2030000Y-18120000D02*
X-2370000Y-18120000D01*
G75*
G02*
X-2510000Y-17980000I0J140000D01*
G01*
X-2510000Y-17700000D01*
G75*
G02*
X-2370000Y-17560000I140000J0D01*
G01*
X-2030000Y-17560000D01*
G75*
G02*
X-1890000Y-17700000I0J-140000D01*
G01*
X-1890000Y-17980000D01*
G75*
G02*
X-2030000Y-18120000I-140000J0D01*
G01*
G37*
G36*
G01*
X-2030000Y-17160000D02*
X-2370000Y-17160000D01*
G75*
G02*
X-2510000Y-17020000I0J140000D01*
G01*
X-2510000Y-16740000D01*
G75*
G02*
X-2370000Y-16600000I140000J0D01*
G01*
X-2030000Y-16600000D01*
G75*
G02*
X-1890000Y-16740000I0J-140000D01*
G01*
X-1890000Y-17020000D01*
G75*
G02*
X-2030000Y-17160000I-140000J0D01*
G01*
G37*
G36*
G01*
X-630200Y12105000D02*
X-369800Y12105000D01*
G75*
G02*
X-345000Y12080200I0J-24800D01*
G01*
X-345000Y11819800D01*
G75*
G02*
X-369800Y11795000I-24800J0D01*
G01*
X-630200Y11795000D01*
G75*
G02*
X-655000Y11819800I0J24800D01*
G01*
X-655000Y12080200D01*
G75*
G02*
X-630200Y12105000I24800J0D01*
G01*
G37*
G36*
G01*
X-630200Y12505000D02*
X-369800Y12505000D01*
G75*
G02*
X-345000Y12480200I0J-24800D01*
G01*
X-345000Y12219800D01*
G75*
G02*
X-369800Y12195000I-24800J0D01*
G01*
X-630200Y12195000D01*
G75*
G02*
X-655000Y12219800I0J24800D01*
G01*
X-655000Y12480200D01*
G75*
G02*
X-630200Y12505000I24800J0D01*
G01*
G37*
G36*
G01*
X-630200Y12905000D02*
X-369800Y12905000D01*
G75*
G02*
X-345000Y12880200I0J-24800D01*
G01*
X-345000Y12619800D01*
G75*
G02*
X-369800Y12595000I-24800J0D01*
G01*
X-630200Y12595000D01*
G75*
G02*
X-655000Y12619800I0J24800D01*
G01*
X-655000Y12880200D01*
G75*
G02*
X-630200Y12905000I24800J0D01*
G01*
G37*
G36*
G01*
X-1030200Y12905000D02*
X-769800Y12905000D01*
G75*
G02*
X-745000Y12880200I0J-24800D01*
G01*
X-745000Y12619800D01*
G75*
G02*
X-769800Y12595000I-24800J0D01*
G01*
X-1030200Y12595000D01*
G75*
G02*
X-1055000Y12619800I0J24800D01*
G01*
X-1055000Y12880200D01*
G75*
G02*
X-1030200Y12905000I24800J0D01*
G01*
G37*
G36*
G01*
X-1430200Y12905000D02*
X-1169800Y12905000D01*
G75*
G02*
X-1145000Y12880200I0J-24800D01*
G01*
X-1145000Y12619800D01*
G75*
G02*
X-1169800Y12595000I-24800J0D01*
G01*
X-1430200Y12595000D01*
G75*
G02*
X-1455000Y12619800I0J24800D01*
G01*
X-1455000Y12880200D01*
G75*
G02*
X-1430200Y12905000I24800J0D01*
G01*
G37*
G36*
G01*
X-1430200Y12505000D02*
X-1169800Y12505000D01*
G75*
G02*
X-1145000Y12480200I0J-24800D01*
G01*
X-1145000Y12219800D01*
G75*
G02*
X-1169800Y12195000I-24800J0D01*
G01*
X-1430200Y12195000D01*
G75*
G02*
X-1455000Y12219800I0J24800D01*
G01*
X-1455000Y12480200D01*
G75*
G02*
X-1430200Y12505000I24800J0D01*
G01*
G37*
G36*
G01*
X-1430200Y12105000D02*
X-1169800Y12105000D01*
G75*
G02*
X-1145000Y12080200I0J-24800D01*
G01*
X-1145000Y11819800D01*
G75*
G02*
X-1169800Y11795000I-24800J0D01*
G01*
X-1430200Y11795000D01*
G75*
G02*
X-1455000Y11819800I0J24800D01*
G01*
X-1455000Y12080200D01*
G75*
G02*
X-1430200Y12105000I24800J0D01*
G01*
G37*
G36*
G01*
X-1030200Y12105000D02*
X-769800Y12105000D01*
G75*
G02*
X-745000Y12080200I0J-24800D01*
G01*
X-745000Y11819800D01*
G75*
G02*
X-769800Y11795000I-24800J0D01*
G01*
X-1030200Y11795000D01*
G75*
G02*
X-1055000Y11819800I0J24800D01*
G01*
X-1055000Y12080200D01*
G75*
G02*
X-1030200Y12105000I24800J0D01*
G01*
G37*
G36*
G01*
X-1030200Y12505000D02*
X-769800Y12505000D01*
G75*
G02*
X-745000Y12480200I0J-24800D01*
G01*
X-745000Y12219800D01*
G75*
G02*
X-769800Y12195000I-24800J0D01*
G01*
X-1030200Y12195000D01*
G75*
G02*
X-1055000Y12219800I0J24800D01*
G01*
X-1055000Y12480200D01*
G75*
G02*
X-1030200Y12505000I24800J0D01*
G01*
G37*
D10*
X1450000Y-19880000D03*
X1050000Y-19880000D03*
X650000Y-19880000D03*
X250000Y-19880000D03*
X1450000Y-19480000D03*
X1050000Y-19480000D03*
X650000Y-19480000D03*
X250000Y-19480000D03*
X1450000Y-19080000D03*
X1050000Y-19080000D03*
X650000Y-19080000D03*
X250000Y-19080000D03*
X1450000Y-18680000D03*
X1050000Y-18680000D03*
X650000Y-18680000D03*
X250000Y-18680000D03*
X1450000Y-18280000D03*
X1050000Y-18280000D03*
X650000Y-18280000D03*
X250000Y-18280000D03*
D11*
X-8120000Y-25915000D03*
X-8120000Y-23925000D03*
G36*
G01*
X8000000Y-9480000D02*
X8000000Y-8520000D01*
G75*
G02*
X8120000Y-8400000I120000J0D01*
G01*
X8680000Y-8400000D01*
G75*
G02*
X8800000Y-8520000I0J-120000D01*
G01*
X8800000Y-9480000D01*
G75*
G02*
X8680000Y-9600000I-120000J0D01*
G01*
X8120000Y-9600000D01*
G75*
G02*
X8000000Y-9480000I0J120000D01*
G01*
G37*
G36*
G01*
X6200000Y-9480000D02*
X6200000Y-8520000D01*
G75*
G02*
X6320000Y-8400000I120000J0D01*
G01*
X6880000Y-8400000D01*
G75*
G02*
X7000000Y-8520000I0J-120000D01*
G01*
X7000000Y-9480000D01*
G75*
G02*
X6880000Y-9600000I-120000J0D01*
G01*
X6320000Y-9600000D01*
G75*
G02*
X6200000Y-9480000I0J120000D01*
G01*
G37*
G36*
G01*
X-2350000Y17152800D02*
X-2350000Y17847200D01*
G75*
G02*
X-2297200Y17900000I52800J0D01*
G01*
X-902800Y17900000D01*
G75*
G02*
X-850000Y17847200I0J-52800D01*
G01*
X-850000Y17152800D01*
G75*
G02*
X-902800Y17100000I-52800J0D01*
G01*
X-2297200Y17100000D01*
G75*
G02*
X-2350000Y17152800I0J52800D01*
G01*
G37*
G36*
G01*
X850000Y17152800D02*
X850000Y17847200D01*
G75*
G02*
X902800Y17900000I52800J0D01*
G01*
X2297200Y17900000D01*
G75*
G02*
X2350000Y17847200I0J-52800D01*
G01*
X2350000Y17152800D01*
G75*
G02*
X2297200Y17100000I-52800J0D01*
G01*
X902800Y17100000D01*
G75*
G02*
X850000Y17152800I0J52800D01*
G01*
G37*
G36*
G01*
X-550000Y17152800D02*
X-550000Y17847200D01*
G75*
G02*
X-497200Y17900000I52800J0D01*
G01*
X497200Y17900000D01*
G75*
G02*
X550000Y17847200I0J-52800D01*
G01*
X550000Y17152800D01*
G75*
G02*
X497200Y17100000I-52800J0D01*
G01*
X-497200Y17100000D01*
G75*
G02*
X-550000Y17152800I0J52800D01*
G01*
G37*
G36*
G01*
X-9652800Y150000D02*
X-10347200Y150000D01*
G75*
G02*
X-10400000Y202800I0J52800D01*
G01*
X-10400000Y1597200D01*
G75*
G02*
X-10347200Y1650000I52800J0D01*
G01*
X-9652800Y1650000D01*
G75*
G02*
X-9600000Y1597200I0J-52800D01*
G01*
X-9600000Y202800D01*
G75*
G02*
X-9652800Y150000I-52800J0D01*
G01*
G37*
G36*
G01*
X-9652800Y3350000D02*
X-10347200Y3350000D01*
G75*
G02*
X-10400000Y3402800I0J52800D01*
G01*
X-10400000Y4797200D01*
G75*
G02*
X-10347200Y4850000I52800J0D01*
G01*
X-9652800Y4850000D01*
G75*
G02*
X-9600000Y4797200I0J-52800D01*
G01*
X-9600000Y3402800D01*
G75*
G02*
X-9652800Y3350000I-52800J0D01*
G01*
G37*
G36*
G01*
X-9652800Y1950000D02*
X-10347200Y1950000D01*
G75*
G02*
X-10400000Y2002800I0J52800D01*
G01*
X-10400000Y2997200D01*
G75*
G02*
X-10347200Y3050000I52800J0D01*
G01*
X-9652800Y3050000D01*
G75*
G02*
X-9600000Y2997200I0J-52800D01*
G01*
X-9600000Y2002800D01*
G75*
G02*
X-9652800Y1950000I-52800J0D01*
G01*
G37*
G36*
G01*
X-2350000Y-12837200D02*
X-2350000Y-12142800D01*
G75*
G02*
X-2297200Y-12090000I52800J0D01*
G01*
X-902800Y-12090000D01*
G75*
G02*
X-850000Y-12142800I0J-52800D01*
G01*
X-850000Y-12837200D01*
G75*
G02*
X-902800Y-12890000I-52800J0D01*
G01*
X-2297200Y-12890000D01*
G75*
G02*
X-2350000Y-12837200I0J52800D01*
G01*
G37*
G36*
G01*
X850000Y-12837200D02*
X850000Y-12142800D01*
G75*
G02*
X902800Y-12090000I52800J0D01*
G01*
X2297200Y-12090000D01*
G75*
G02*
X2350000Y-12142800I0J-52800D01*
G01*
X2350000Y-12837200D01*
G75*
G02*
X2297200Y-12890000I-52800J0D01*
G01*
X902800Y-12890000D01*
G75*
G02*
X850000Y-12837200I0J52800D01*
G01*
G37*
G36*
G01*
X-550000Y-12837200D02*
X-550000Y-12142800D01*
G75*
G02*
X-497200Y-12090000I52800J0D01*
G01*
X497200Y-12090000D01*
G75*
G02*
X550000Y-12142800I0J-52800D01*
G01*
X550000Y-12837200D01*
G75*
G02*
X497200Y-12890000I-52800J0D01*
G01*
X-497200Y-12890000D01*
G75*
G02*
X-550000Y-12837200I0J52800D01*
G01*
G37*
G36*
G01*
X10347200Y150000D02*
X9652800Y150000D01*
G75*
G02*
X9600000Y202800I0J52800D01*
G01*
X9600000Y1597200D01*
G75*
G02*
X9652800Y1650000I52800J0D01*
G01*
X10347200Y1650000D01*
G75*
G02*
X10400000Y1597200I0J-52800D01*
G01*
X10400000Y202800D01*
G75*
G02*
X10347200Y150000I-52800J0D01*
G01*
G37*
G36*
G01*
X10347200Y3350000D02*
X9652800Y3350000D01*
G75*
G02*
X9600000Y3402800I0J52800D01*
G01*
X9600000Y4797200D01*
G75*
G02*
X9652800Y4850000I52800J0D01*
G01*
X10347200Y4850000D01*
G75*
G02*
X10400000Y4797200I0J-52800D01*
G01*
X10400000Y3402800D01*
G75*
G02*
X10347200Y3350000I-52800J0D01*
G01*
G37*
G36*
G01*
X10347200Y1950000D02*
X9652800Y1950000D01*
G75*
G02*
X9600000Y2002800I0J52800D01*
G01*
X9600000Y2997200D01*
G75*
G02*
X9652800Y3050000I52800J0D01*
G01*
X10347200Y3050000D01*
G75*
G02*
X10400000Y2997200I0J-52800D01*
G01*
X10400000Y2002800D01*
G75*
G02*
X10347200Y1950000I-52800J0D01*
G01*
G37*
D12*
X-8355300Y-2939500D03*
X-7105300Y-1289500D03*
X-8355300Y-1289500D03*
X-7105300Y-2939500D03*
G36*
G01*
X3400000Y-19900000D02*
X6800000Y-19900000D01*
G75*
G02*
X7100000Y-20200000I0J-300000D01*
G01*
X7100000Y-20800000D01*
G75*
G02*
X6800000Y-21100000I-300000J0D01*
G01*
X3400000Y-21100000D01*
G75*
G02*
X3100000Y-20800000I0J300000D01*
G01*
X3100000Y-20200000D01*
G75*
G02*
X3400000Y-19900000I300000J0D01*
G01*
G37*
G36*
G01*
X3400000Y-17100000D02*
X6800000Y-17100000D01*
G75*
G02*
X7100000Y-17400000I0J-300000D01*
G01*
X7100000Y-18000000D01*
G75*
G02*
X6800000Y-18300000I-300000J0D01*
G01*
X3400000Y-18300000D01*
G75*
G02*
X3100000Y-18000000I0J300000D01*
G01*
X3100000Y-17400000D01*
G75*
G02*
X3400000Y-17100000I300000J0D01*
G01*
G37*
G36*
G01*
X-16520000Y-21986000D02*
X-16520000Y-20974000D01*
G75*
G02*
X-16451000Y-20905000I69000J0D01*
G01*
X-14809000Y-20905000D01*
G75*
G02*
X-14740000Y-20974000I0J-69000D01*
G01*
X-14740000Y-21986000D01*
G75*
G02*
X-14809000Y-22055000I-69000J0D01*
G01*
X-16451000Y-22055000D01*
G75*
G02*
X-16520000Y-21986000I0J69000D01*
G01*
G37*
G36*
G01*
X-16520000Y-16026000D02*
X-16520000Y-15014000D01*
G75*
G02*
X-16451000Y-14945000I69000J0D01*
G01*
X-14809000Y-14945000D01*
G75*
G02*
X-14740000Y-15014000I0J-69000D01*
G01*
X-14740000Y-16026000D01*
G75*
G02*
X-14809000Y-16095000I-69000J0D01*
G01*
X-16451000Y-16095000D01*
G75*
G02*
X-16520000Y-16026000I0J69000D01*
G01*
G37*
G36*
G01*
X-8960000Y-21986000D02*
X-8960000Y-20974000D01*
G75*
G02*
X-8891000Y-20905000I69000J0D01*
G01*
X-7249000Y-20905000D01*
G75*
G02*
X-7180000Y-20974000I0J-69000D01*
G01*
X-7180000Y-21986000D01*
G75*
G02*
X-7249000Y-22055000I-69000J0D01*
G01*
X-8891000Y-22055000D01*
G75*
G02*
X-8960000Y-21986000I0J69000D01*
G01*
G37*
G36*
G01*
X-8960000Y-16026000D02*
X-8960000Y-15014000D01*
G75*
G02*
X-8891000Y-14945000I69000J0D01*
G01*
X-7249000Y-14945000D01*
G75*
G02*
X-7180000Y-15014000I0J-69000D01*
G01*
X-7180000Y-16026000D01*
G75*
G02*
X-7249000Y-16095000I-69000J0D01*
G01*
X-8891000Y-16095000D01*
G75*
G02*
X-8960000Y-16026000I0J69000D01*
G01*
G37*
D13*
G36*
X10400000Y13900000D02*
G01*
X10400000Y11900000D01*
X9600000Y11900000D01*
X9600000Y13100000D01*
X8400000Y13100000D01*
X8400000Y13900000D01*
X10400000Y13900000D01*
G37*
G36*
X-10400000Y17900000D02*
G01*
X-8400000Y17900000D01*
X-8400000Y17100000D01*
X-9600000Y17100000D01*
X-9600000Y15900000D01*
X-10400000Y15900000D01*
X-10400000Y17900000D01*
G37*
G36*
X-10400000Y-12900000D02*
G01*
X-10400000Y-10900000D01*
X-9600000Y-10900000D01*
X-9600000Y-12100000D01*
X-8400000Y-12100000D01*
X-8400000Y-12900000D01*
X-10400000Y-12900000D01*
G37*
G36*
X10400000Y-12900000D02*
G01*
X8400000Y-12900000D01*
X8400000Y-12100000D01*
X9600000Y-12100000D01*
X9600000Y-10900000D01*
X10400000Y-10900000D01*
X10400000Y-12900000D01*
G37*
D14*
X10000000Y10500000D03*
X-10000000Y-5500000D03*
X-10000000Y10500000D03*
X10000000Y-5500000D03*
D15*
X-2325000Y29000000D03*
X2325000Y29000000D03*
G36*
G01*
X-11788000Y-11869000D02*
X-11788000Y-11499000D01*
G75*
G02*
X-11653000Y-11364000I135000J0D01*
G01*
X-11383000Y-11364000D01*
G75*
G02*
X-11248000Y-11499000I0J-135000D01*
G01*
X-11248000Y-11869000D01*
G75*
G02*
X-11383000Y-12004000I-135000J0D01*
G01*
X-11653000Y-12004000D01*
G75*
G02*
X-11788000Y-11869000I0J135000D01*
G01*
G37*
G36*
G01*
X-12808000Y-11869000D02*
X-12808000Y-11499000D01*
G75*
G02*
X-12673000Y-11364000I135000J0D01*
G01*
X-12403000Y-11364000D01*
G75*
G02*
X-12268000Y-11499000I0J-135000D01*
G01*
X-12268000Y-11869000D01*
G75*
G02*
X-12403000Y-12004000I-135000J0D01*
G01*
X-12673000Y-12004000D01*
G75*
G02*
X-12808000Y-11869000I0J135000D01*
G01*
G37*
D16*
X-350500Y6337000D03*
D17*
X-519000Y6905500D03*
X-919000Y6905500D03*
X-1319000Y6905500D03*
D16*
X-1487500Y6337000D03*
X-1487500Y5937000D03*
D17*
X-1319000Y5368500D03*
X-919000Y5368500D03*
X-519000Y5368500D03*
D18*
X-400500Y5937000D03*
G36*
G01*
X4995000Y-6096000D02*
X4995000Y-6221000D01*
G75*
G02*
X4932500Y-6283500I-62500J0D01*
G01*
X4207500Y-6283500D01*
G75*
G02*
X4145000Y-6221000I0J62500D01*
G01*
X4145000Y-6096000D01*
G75*
G02*
X4207500Y-6033500I62500J0D01*
G01*
X4932500Y-6033500D01*
G75*
G02*
X4995000Y-6096000I0J-62500D01*
G01*
G37*
G36*
G01*
X4995000Y-5596000D02*
X4995000Y-5721000D01*
G75*
G02*
X4932500Y-5783500I-62500J0D01*
G01*
X4207500Y-5783500D01*
G75*
G02*
X4145000Y-5721000I0J62500D01*
G01*
X4145000Y-5596000D01*
G75*
G02*
X4207500Y-5533500I62500J0D01*
G01*
X4932500Y-5533500D01*
G75*
G02*
X4995000Y-5596000I0J-62500D01*
G01*
G37*
G36*
G01*
X4995000Y-5096000D02*
X4995000Y-5221000D01*
G75*
G02*
X4932500Y-5283500I-62500J0D01*
G01*
X4207500Y-5283500D01*
G75*
G02*
X4145000Y-5221000I0J62500D01*
G01*
X4145000Y-5096000D01*
G75*
G02*
X4207500Y-5033500I62500J0D01*
G01*
X4932500Y-5033500D01*
G75*
G02*
X4995000Y-5096000I0J-62500D01*
G01*
G37*
G36*
G01*
X4995000Y-4596000D02*
X4995000Y-4721000D01*
G75*
G02*
X4932500Y-4783500I-62500J0D01*
G01*
X4207500Y-4783500D01*
G75*
G02*
X4145000Y-4721000I0J62500D01*
G01*
X4145000Y-4596000D01*
G75*
G02*
X4207500Y-4533500I62500J0D01*
G01*
X4932500Y-4533500D01*
G75*
G02*
X4995000Y-4596000I0J-62500D01*
G01*
G37*
G36*
G01*
X4995000Y-4096000D02*
X4995000Y-4221000D01*
G75*
G02*
X4932500Y-4283500I-62500J0D01*
G01*
X4207500Y-4283500D01*
G75*
G02*
X4145000Y-4221000I0J62500D01*
G01*
X4145000Y-4096000D01*
G75*
G02*
X4207500Y-4033500I62500J0D01*
G01*
X4932500Y-4033500D01*
G75*
G02*
X4995000Y-4096000I0J-62500D01*
G01*
G37*
G36*
G01*
X4995000Y-3596000D02*
X4995000Y-3721000D01*
G75*
G02*
X4932500Y-3783500I-62500J0D01*
G01*
X4207500Y-3783500D01*
G75*
G02*
X4145000Y-3721000I0J62500D01*
G01*
X4145000Y-3596000D01*
G75*
G02*
X4207500Y-3533500I62500J0D01*
G01*
X4932500Y-3533500D01*
G75*
G02*
X4995000Y-3596000I0J-62500D01*
G01*
G37*
G36*
G01*
X4995000Y-3096000D02*
X4995000Y-3221000D01*
G75*
G02*
X4932500Y-3283500I-62500J0D01*
G01*
X4207500Y-3283500D01*
G75*
G02*
X4145000Y-3221000I0J62500D01*
G01*
X4145000Y-3096000D01*
G75*
G02*
X4207500Y-3033500I62500J0D01*
G01*
X4932500Y-3033500D01*
G75*
G02*
X4995000Y-3096000I0J-62500D01*
G01*
G37*
G36*
G01*
X4995000Y-2596000D02*
X4995000Y-2721000D01*
G75*
G02*
X4932500Y-2783500I-62500J0D01*
G01*
X4207500Y-2783500D01*
G75*
G02*
X4145000Y-2721000I0J62500D01*
G01*
X4145000Y-2596000D01*
G75*
G02*
X4207500Y-2533500I62500J0D01*
G01*
X4932500Y-2533500D01*
G75*
G02*
X4995000Y-2596000I0J-62500D01*
G01*
G37*
G36*
G01*
X4995000Y-2096000D02*
X4995000Y-2221000D01*
G75*
G02*
X4932500Y-2283500I-62500J0D01*
G01*
X4207500Y-2283500D01*
G75*
G02*
X4145000Y-2221000I0J62500D01*
G01*
X4145000Y-2096000D01*
G75*
G02*
X4207500Y-2033500I62500J0D01*
G01*
X4932500Y-2033500D01*
G75*
G02*
X4995000Y-2096000I0J-62500D01*
G01*
G37*
G36*
G01*
X4995000Y-1596000D02*
X4995000Y-1721000D01*
G75*
G02*
X4932500Y-1783500I-62500J0D01*
G01*
X4207500Y-1783500D01*
G75*
G02*
X4145000Y-1721000I0J62500D01*
G01*
X4145000Y-1596000D01*
G75*
G02*
X4207500Y-1533500I62500J0D01*
G01*
X4932500Y-1533500D01*
G75*
G02*
X4995000Y-1596000I0J-62500D01*
G01*
G37*
G36*
G01*
X4995000Y-1096000D02*
X4995000Y-1221000D01*
G75*
G02*
X4932500Y-1283500I-62500J0D01*
G01*
X4207500Y-1283500D01*
G75*
G02*
X4145000Y-1221000I0J62500D01*
G01*
X4145000Y-1096000D01*
G75*
G02*
X4207500Y-1033500I62500J0D01*
G01*
X4932500Y-1033500D01*
G75*
G02*
X4995000Y-1096000I0J-62500D01*
G01*
G37*
G36*
G01*
X4995000Y-596000D02*
X4995000Y-721000D01*
G75*
G02*
X4932500Y-783500I-62500J0D01*
G01*
X4207500Y-783500D01*
G75*
G02*
X4145000Y-721000I0J62500D01*
G01*
X4145000Y-596000D01*
G75*
G02*
X4207500Y-533500I62500J0D01*
G01*
X4932500Y-533500D01*
G75*
G02*
X4995000Y-596000I0J-62500D01*
G01*
G37*
G36*
G01*
X3995000Y404000D02*
X3995000Y-321000D01*
G75*
G02*
X3932500Y-383500I-62500J0D01*
G01*
X3807500Y-383500D01*
G75*
G02*
X3745000Y-321000I0J62500D01*
G01*
X3745000Y404000D01*
G75*
G02*
X3807500Y466500I62500J0D01*
G01*
X3932500Y466500D01*
G75*
G02*
X3995000Y404000I0J-62500D01*
G01*
G37*
G36*
G01*
X3495000Y404000D02*
X3495000Y-321000D01*
G75*
G02*
X3432500Y-383500I-62500J0D01*
G01*
X3307500Y-383500D01*
G75*
G02*
X3245000Y-321000I0J62500D01*
G01*
X3245000Y404000D01*
G75*
G02*
X3307500Y466500I62500J0D01*
G01*
X3432500Y466500D01*
G75*
G02*
X3495000Y404000I0J-62500D01*
G01*
G37*
G36*
G01*
X2995000Y404000D02*
X2995000Y-321000D01*
G75*
G02*
X2932500Y-383500I-62500J0D01*
G01*
X2807500Y-383500D01*
G75*
G02*
X2745000Y-321000I0J62500D01*
G01*
X2745000Y404000D01*
G75*
G02*
X2807500Y466500I62500J0D01*
G01*
X2932500Y466500D01*
G75*
G02*
X2995000Y404000I0J-62500D01*
G01*
G37*
G36*
G01*
X2495000Y404000D02*
X2495000Y-321000D01*
G75*
G02*
X2432500Y-383500I-62500J0D01*
G01*
X2307500Y-383500D01*
G75*
G02*
X2245000Y-321000I0J62500D01*
G01*
X2245000Y404000D01*
G75*
G02*
X2307500Y466500I62500J0D01*
G01*
X2432500Y466500D01*
G75*
G02*
X2495000Y404000I0J-62500D01*
G01*
G37*
G36*
G01*
X1995000Y404000D02*
X1995000Y-321000D01*
G75*
G02*
X1932500Y-383500I-62500J0D01*
G01*
X1807500Y-383500D01*
G75*
G02*
X1745000Y-321000I0J62500D01*
G01*
X1745000Y404000D01*
G75*
G02*
X1807500Y466500I62500J0D01*
G01*
X1932500Y466500D01*
G75*
G02*
X1995000Y404000I0J-62500D01*
G01*
G37*
G36*
G01*
X1495000Y404000D02*
X1495000Y-321000D01*
G75*
G02*
X1432500Y-383500I-62500J0D01*
G01*
X1307500Y-383500D01*
G75*
G02*
X1245000Y-321000I0J62500D01*
G01*
X1245000Y404000D01*
G75*
G02*
X1307500Y466500I62500J0D01*
G01*
X1432500Y466500D01*
G75*
G02*
X1495000Y404000I0J-62500D01*
G01*
G37*
G36*
G01*
X995000Y404000D02*
X995000Y-321000D01*
G75*
G02*
X932500Y-383500I-62500J0D01*
G01*
X807500Y-383500D01*
G75*
G02*
X745000Y-321000I0J62500D01*
G01*
X745000Y404000D01*
G75*
G02*
X807500Y466500I62500J0D01*
G01*
X932500Y466500D01*
G75*
G02*
X995000Y404000I0J-62500D01*
G01*
G37*
G36*
G01*
X495000Y404000D02*
X495000Y-321000D01*
G75*
G02*
X432500Y-383500I-62500J0D01*
G01*
X307500Y-383500D01*
G75*
G02*
X245000Y-321000I0J62500D01*
G01*
X245000Y404000D01*
G75*
G02*
X307500Y466500I62500J0D01*
G01*
X432500Y466500D01*
G75*
G02*
X495000Y404000I0J-62500D01*
G01*
G37*
G36*
G01*
X-5000Y404000D02*
X-5000Y-321000D01*
G75*
G02*
X-67500Y-383500I-62500J0D01*
G01*
X-192500Y-383500D01*
G75*
G02*
X-255000Y-321000I0J62500D01*
G01*
X-255000Y404000D01*
G75*
G02*
X-192500Y466500I62500J0D01*
G01*
X-67500Y466500D01*
G75*
G02*
X-5000Y404000I0J-62500D01*
G01*
G37*
G36*
G01*
X-505000Y404000D02*
X-505000Y-321000D01*
G75*
G02*
X-567500Y-383500I-62500J0D01*
G01*
X-692500Y-383500D01*
G75*
G02*
X-755000Y-321000I0J62500D01*
G01*
X-755000Y404000D01*
G75*
G02*
X-692500Y466500I62500J0D01*
G01*
X-567500Y466500D01*
G75*
G02*
X-505000Y404000I0J-62500D01*
G01*
G37*
G36*
G01*
X-1005000Y404000D02*
X-1005000Y-321000D01*
G75*
G02*
X-1067500Y-383500I-62500J0D01*
G01*
X-1192500Y-383500D01*
G75*
G02*
X-1255000Y-321000I0J62500D01*
G01*
X-1255000Y404000D01*
G75*
G02*
X-1192500Y466500I62500J0D01*
G01*
X-1067500Y466500D01*
G75*
G02*
X-1005000Y404000I0J-62500D01*
G01*
G37*
G36*
G01*
X-1505000Y404000D02*
X-1505000Y-321000D01*
G75*
G02*
X-1567500Y-383500I-62500J0D01*
G01*
X-1692500Y-383500D01*
G75*
G02*
X-1755000Y-321000I0J62500D01*
G01*
X-1755000Y404000D01*
G75*
G02*
X-1692500Y466500I62500J0D01*
G01*
X-1567500Y466500D01*
G75*
G02*
X-1505000Y404000I0J-62500D01*
G01*
G37*
G36*
G01*
X-1905000Y-596000D02*
X-1905000Y-721000D01*
G75*
G02*
X-1967500Y-783500I-62500J0D01*
G01*
X-2692500Y-783500D01*
G75*
G02*
X-2755000Y-721000I0J62500D01*
G01*
X-2755000Y-596000D01*
G75*
G02*
X-2692500Y-533500I62500J0D01*
G01*
X-1967500Y-533500D01*
G75*
G02*
X-1905000Y-596000I0J-62500D01*
G01*
G37*
G36*
G01*
X-1905000Y-1096000D02*
X-1905000Y-1221000D01*
G75*
G02*
X-1967500Y-1283500I-62500J0D01*
G01*
X-2692500Y-1283500D01*
G75*
G02*
X-2755000Y-1221000I0J62500D01*
G01*
X-2755000Y-1096000D01*
G75*
G02*
X-2692500Y-1033500I62500J0D01*
G01*
X-1967500Y-1033500D01*
G75*
G02*
X-1905000Y-1096000I0J-62500D01*
G01*
G37*
G36*
G01*
X-1905000Y-1596000D02*
X-1905000Y-1721000D01*
G75*
G02*
X-1967500Y-1783500I-62500J0D01*
G01*
X-2692500Y-1783500D01*
G75*
G02*
X-2755000Y-1721000I0J62500D01*
G01*
X-2755000Y-1596000D01*
G75*
G02*
X-2692500Y-1533500I62500J0D01*
G01*
X-1967500Y-1533500D01*
G75*
G02*
X-1905000Y-1596000I0J-62500D01*
G01*
G37*
G36*
G01*
X-1905000Y-2096000D02*
X-1905000Y-2221000D01*
G75*
G02*
X-1967500Y-2283500I-62500J0D01*
G01*
X-2692500Y-2283500D01*
G75*
G02*
X-2755000Y-2221000I0J62500D01*
G01*
X-2755000Y-2096000D01*
G75*
G02*
X-2692500Y-2033500I62500J0D01*
G01*
X-1967500Y-2033500D01*
G75*
G02*
X-1905000Y-2096000I0J-62500D01*
G01*
G37*
G36*
G01*
X-1905000Y-2596000D02*
X-1905000Y-2721000D01*
G75*
G02*
X-1967500Y-2783500I-62500J0D01*
G01*
X-2692500Y-2783500D01*
G75*
G02*
X-2755000Y-2721000I0J62500D01*
G01*
X-2755000Y-2596000D01*
G75*
G02*
X-2692500Y-2533500I62500J0D01*
G01*
X-1967500Y-2533500D01*
G75*
G02*
X-1905000Y-2596000I0J-62500D01*
G01*
G37*
G36*
G01*
X-1905000Y-3096000D02*
X-1905000Y-3221000D01*
G75*
G02*
X-1967500Y-3283500I-62500J0D01*
G01*
X-2692500Y-3283500D01*
G75*
G02*
X-2755000Y-3221000I0J62500D01*
G01*
X-2755000Y-3096000D01*
G75*
G02*
X-2692500Y-3033500I62500J0D01*
G01*
X-1967500Y-3033500D01*
G75*
G02*
X-1905000Y-3096000I0J-62500D01*
G01*
G37*
G36*
G01*
X-1905000Y-3596000D02*
X-1905000Y-3721000D01*
G75*
G02*
X-1967500Y-3783500I-62500J0D01*
G01*
X-2692500Y-3783500D01*
G75*
G02*
X-2755000Y-3721000I0J62500D01*
G01*
X-2755000Y-3596000D01*
G75*
G02*
X-2692500Y-3533500I62500J0D01*
G01*
X-1967500Y-3533500D01*
G75*
G02*
X-1905000Y-3596000I0J-62500D01*
G01*
G37*
G36*
G01*
X-1905000Y-4096000D02*
X-1905000Y-4221000D01*
G75*
G02*
X-1967500Y-4283500I-62500J0D01*
G01*
X-2692500Y-4283500D01*
G75*
G02*
X-2755000Y-4221000I0J62500D01*
G01*
X-2755000Y-4096000D01*
G75*
G02*
X-2692500Y-4033500I62500J0D01*
G01*
X-1967500Y-4033500D01*
G75*
G02*
X-1905000Y-4096000I0J-62500D01*
G01*
G37*
G36*
G01*
X-1905000Y-4596000D02*
X-1905000Y-4721000D01*
G75*
G02*
X-1967500Y-4783500I-62500J0D01*
G01*
X-2692500Y-4783500D01*
G75*
G02*
X-2755000Y-4721000I0J62500D01*
G01*
X-2755000Y-4596000D01*
G75*
G02*
X-2692500Y-4533500I62500J0D01*
G01*
X-1967500Y-4533500D01*
G75*
G02*
X-1905000Y-4596000I0J-62500D01*
G01*
G37*
G36*
G01*
X-1905000Y-5096000D02*
X-1905000Y-5221000D01*
G75*
G02*
X-1967500Y-5283500I-62500J0D01*
G01*
X-2692500Y-5283500D01*
G75*
G02*
X-2755000Y-5221000I0J62500D01*
G01*
X-2755000Y-5096000D01*
G75*
G02*
X-2692500Y-5033500I62500J0D01*
G01*
X-1967500Y-5033500D01*
G75*
G02*
X-1905000Y-5096000I0J-62500D01*
G01*
G37*
G36*
G01*
X-1905000Y-5596000D02*
X-1905000Y-5721000D01*
G75*
G02*
X-1967500Y-5783500I-62500J0D01*
G01*
X-2692500Y-5783500D01*
G75*
G02*
X-2755000Y-5721000I0J62500D01*
G01*
X-2755000Y-5596000D01*
G75*
G02*
X-2692500Y-5533500I62500J0D01*
G01*
X-1967500Y-5533500D01*
G75*
G02*
X-1905000Y-5596000I0J-62500D01*
G01*
G37*
G36*
G01*
X-1905000Y-6096000D02*
X-1905000Y-6221000D01*
G75*
G02*
X-1967500Y-6283500I-62500J0D01*
G01*
X-2692500Y-6283500D01*
G75*
G02*
X-2755000Y-6221000I0J62500D01*
G01*
X-2755000Y-6096000D01*
G75*
G02*
X-2692500Y-6033500I62500J0D01*
G01*
X-1967500Y-6033500D01*
G75*
G02*
X-1905000Y-6096000I0J-62500D01*
G01*
G37*
G36*
G01*
X-1505000Y-6496000D02*
X-1505000Y-7221000D01*
G75*
G02*
X-1567500Y-7283500I-62500J0D01*
G01*
X-1692500Y-7283500D01*
G75*
G02*
X-1755000Y-7221000I0J62500D01*
G01*
X-1755000Y-6496000D01*
G75*
G02*
X-1692500Y-6433500I62500J0D01*
G01*
X-1567500Y-6433500D01*
G75*
G02*
X-1505000Y-6496000I0J-62500D01*
G01*
G37*
G36*
G01*
X-1005000Y-6496000D02*
X-1005000Y-7221000D01*
G75*
G02*
X-1067500Y-7283500I-62500J0D01*
G01*
X-1192500Y-7283500D01*
G75*
G02*
X-1255000Y-7221000I0J62500D01*
G01*
X-1255000Y-6496000D01*
G75*
G02*
X-1192500Y-6433500I62500J0D01*
G01*
X-1067500Y-6433500D01*
G75*
G02*
X-1005000Y-6496000I0J-62500D01*
G01*
G37*
G36*
G01*
X-505000Y-6496000D02*
X-505000Y-7221000D01*
G75*
G02*
X-567500Y-7283500I-62500J0D01*
G01*
X-692500Y-7283500D01*
G75*
G02*
X-755000Y-7221000I0J62500D01*
G01*
X-755000Y-6496000D01*
G75*
G02*
X-692500Y-6433500I62500J0D01*
G01*
X-567500Y-6433500D01*
G75*
G02*
X-505000Y-6496000I0J-62500D01*
G01*
G37*
G36*
G01*
X-5000Y-6496000D02*
X-5000Y-7221000D01*
G75*
G02*
X-67500Y-7283500I-62500J0D01*
G01*
X-192500Y-7283500D01*
G75*
G02*
X-255000Y-7221000I0J62500D01*
G01*
X-255000Y-6496000D01*
G75*
G02*
X-192500Y-6433500I62500J0D01*
G01*
X-67500Y-6433500D01*
G75*
G02*
X-5000Y-6496000I0J-62500D01*
G01*
G37*
G36*
G01*
X495000Y-6496000D02*
X495000Y-7221000D01*
G75*
G02*
X432500Y-7283500I-62500J0D01*
G01*
X307500Y-7283500D01*
G75*
G02*
X245000Y-7221000I0J62500D01*
G01*
X245000Y-6496000D01*
G75*
G02*
X307500Y-6433500I62500J0D01*
G01*
X432500Y-6433500D01*
G75*
G02*
X495000Y-6496000I0J-62500D01*
G01*
G37*
G36*
G01*
X995000Y-6496000D02*
X995000Y-7221000D01*
G75*
G02*
X932500Y-7283500I-62500J0D01*
G01*
X807500Y-7283500D01*
G75*
G02*
X745000Y-7221000I0J62500D01*
G01*
X745000Y-6496000D01*
G75*
G02*
X807500Y-6433500I62500J0D01*
G01*
X932500Y-6433500D01*
G75*
G02*
X995000Y-6496000I0J-62500D01*
G01*
G37*
G36*
G01*
X1495000Y-6496000D02*
X1495000Y-7221000D01*
G75*
G02*
X1432500Y-7283500I-62500J0D01*
G01*
X1307500Y-7283500D01*
G75*
G02*
X1245000Y-7221000I0J62500D01*
G01*
X1245000Y-6496000D01*
G75*
G02*
X1307500Y-6433500I62500J0D01*
G01*
X1432500Y-6433500D01*
G75*
G02*
X1495000Y-6496000I0J-62500D01*
G01*
G37*
G36*
G01*
X1995000Y-6496000D02*
X1995000Y-7221000D01*
G75*
G02*
X1932500Y-7283500I-62500J0D01*
G01*
X1807500Y-7283500D01*
G75*
G02*
X1745000Y-7221000I0J62500D01*
G01*
X1745000Y-6496000D01*
G75*
G02*
X1807500Y-6433500I62500J0D01*
G01*
X1932500Y-6433500D01*
G75*
G02*
X1995000Y-6496000I0J-62500D01*
G01*
G37*
G36*
G01*
X2495000Y-6496000D02*
X2495000Y-7221000D01*
G75*
G02*
X2432500Y-7283500I-62500J0D01*
G01*
X2307500Y-7283500D01*
G75*
G02*
X2245000Y-7221000I0J62500D01*
G01*
X2245000Y-6496000D01*
G75*
G02*
X2307500Y-6433500I62500J0D01*
G01*
X2432500Y-6433500D01*
G75*
G02*
X2495000Y-6496000I0J-62500D01*
G01*
G37*
G36*
G01*
X2995000Y-6496000D02*
X2995000Y-7221000D01*
G75*
G02*
X2932500Y-7283500I-62500J0D01*
G01*
X2807500Y-7283500D01*
G75*
G02*
X2745000Y-7221000I0J62500D01*
G01*
X2745000Y-6496000D01*
G75*
G02*
X2807500Y-6433500I62500J0D01*
G01*
X2932500Y-6433500D01*
G75*
G02*
X2995000Y-6496000I0J-62500D01*
G01*
G37*
G36*
G01*
X3495000Y-6496000D02*
X3495000Y-7221000D01*
G75*
G02*
X3432500Y-7283500I-62500J0D01*
G01*
X3307500Y-7283500D01*
G75*
G02*
X3245000Y-7221000I0J62500D01*
G01*
X3245000Y-6496000D01*
G75*
G02*
X3307500Y-6433500I62500J0D01*
G01*
X3432500Y-6433500D01*
G75*
G02*
X3495000Y-6496000I0J-62500D01*
G01*
G37*
G36*
G01*
X3995000Y-6496000D02*
X3995000Y-7221000D01*
G75*
G02*
X3932500Y-7283500I-62500J0D01*
G01*
X3807500Y-7283500D01*
G75*
G02*
X3745000Y-7221000I0J62500D01*
G01*
X3745000Y-6496000D01*
G75*
G02*
X3807500Y-6433500I62500J0D01*
G01*
X3932500Y-6433500D01*
G75*
G02*
X3995000Y-6496000I0J-62500D01*
G01*
G37*
D19*
X1120000Y-3408500D03*
D20*
X8400000Y-15100000D03*
X8400000Y-16050000D03*
X8400000Y-17000000D03*
X10600000Y-17000000D03*
X10600000Y-15100000D03*
X10600000Y-16050000D03*
D12*
X-4050000Y-14750000D03*
X-5950000Y-14750000D03*
X-5000000Y-16750000D03*
G36*
G01*
X12727500Y11880000D02*
X13072500Y11880000D01*
G75*
G02*
X13220000Y11732500I0J-147500D01*
G01*
X13220000Y11437500D01*
G75*
G02*
X13072500Y11290000I-147500J0D01*
G01*
X12727500Y11290000D01*
G75*
G02*
X12580000Y11437500I0J147500D01*
G01*
X12580000Y11732500D01*
G75*
G02*
X12727500Y11880000I147500J0D01*
G01*
G37*
G36*
G01*
X12727500Y10910000D02*
X13072500Y10910000D01*
G75*
G02*
X13220000Y10762500I0J-147500D01*
G01*
X13220000Y10467500D01*
G75*
G02*
X13072500Y10320000I-147500J0D01*
G01*
X12727500Y10320000D01*
G75*
G02*
X12580000Y10467500I0J147500D01*
G01*
X12580000Y10762500D01*
G75*
G02*
X12727500Y10910000I147500J0D01*
G01*
G37*
G36*
G01*
X-11238000Y-10520000D02*
X-11238000Y-10890000D01*
G75*
G02*
X-11373000Y-11025000I-135000J0D01*
G01*
X-11643000Y-11025000D01*
G75*
G02*
X-11778000Y-10890000I0J135000D01*
G01*
X-11778000Y-10520000D01*
G75*
G02*
X-11643000Y-10385000I135000J0D01*
G01*
X-11373000Y-10385000D01*
G75*
G02*
X-11238000Y-10520000I0J-135000D01*
G01*
G37*
G36*
G01*
X-12258000Y-10520000D02*
X-12258000Y-10890000D01*
G75*
G02*
X-12393000Y-11025000I-135000J0D01*
G01*
X-12663000Y-11025000D01*
G75*
G02*
X-12798000Y-10890000I0J135000D01*
G01*
X-12798000Y-10520000D01*
G75*
G02*
X-12663000Y-10385000I135000J0D01*
G01*
X-12393000Y-10385000D01*
G75*
G02*
X-12258000Y-10520000I0J-135000D01*
G01*
G37*
D21*
X14700000Y11000000D03*
D22*
X15970000Y11000000D03*
D23*
X15875000Y-7620000D03*
D24*
X15875000Y-5080000D03*
X15875000Y-2540000D03*
X15875000Y0D03*
X15875000Y2540000D03*
X15875000Y5080000D03*
X15875000Y7620000D03*
G36*
G01*
X3621200Y-8831200D02*
X3621200Y-8491200D01*
G75*
G02*
X3761200Y-8351200I140000J0D01*
G01*
X4041200Y-8351200D01*
G75*
G02*
X4181200Y-8491200I0J-140000D01*
G01*
X4181200Y-8831200D01*
G75*
G02*
X4041200Y-8971200I-140000J0D01*
G01*
X3761200Y-8971200D01*
G75*
G02*
X3621200Y-8831200I0J140000D01*
G01*
G37*
G36*
G01*
X4581200Y-8831200D02*
X4581200Y-8491200D01*
G75*
G02*
X4721200Y-8351200I140000J0D01*
G01*
X5001200Y-8351200D01*
G75*
G02*
X5141200Y-8491200I0J-140000D01*
G01*
X5141200Y-8831200D01*
G75*
G02*
X5001200Y-8971200I-140000J0D01*
G01*
X4721200Y-8971200D01*
G75*
G02*
X4581200Y-8831200I0J140000D01*
G01*
G37*
G36*
G01*
X3461000Y-11044800D02*
X3461000Y-10544800D01*
G75*
G02*
X3686000Y-10319800I225000J0D01*
G01*
X4136000Y-10319800D01*
G75*
G02*
X4361000Y-10544800I0J-225000D01*
G01*
X4361000Y-11044800D01*
G75*
G02*
X4136000Y-11269800I-225000J0D01*
G01*
X3686000Y-11269800D01*
G75*
G02*
X3461000Y-11044800I0J225000D01*
G01*
G37*
G36*
G01*
X5011000Y-11044800D02*
X5011000Y-10544800D01*
G75*
G02*
X5236000Y-10319800I225000J0D01*
G01*
X5686000Y-10319800D01*
G75*
G02*
X5911000Y-10544800I0J-225000D01*
G01*
X5911000Y-11044800D01*
G75*
G02*
X5686000Y-11269800I-225000J0D01*
G01*
X5236000Y-11269800D01*
G75*
G02*
X5011000Y-11044800I0J225000D01*
G01*
G37*
G36*
G01*
X-2690000Y-6930000D02*
X-2690000Y-7270000D01*
G75*
G02*
X-2830000Y-7410000I-140000J0D01*
G01*
X-3110000Y-7410000D01*
G75*
G02*
X-3250000Y-7270000I0J140000D01*
G01*
X-3250000Y-6930000D01*
G75*
G02*
X-3110000Y-6790000I140000J0D01*
G01*
X-2830000Y-6790000D01*
G75*
G02*
X-2690000Y-6930000I0J-140000D01*
G01*
G37*
G36*
G01*
X-3650000Y-6930000D02*
X-3650000Y-7270000D01*
G75*
G02*
X-3790000Y-7410000I-140000J0D01*
G01*
X-4070000Y-7410000D01*
G75*
G02*
X-4210000Y-7270000I0J140000D01*
G01*
X-4210000Y-6930000D01*
G75*
G02*
X-4070000Y-6790000I140000J0D01*
G01*
X-3790000Y-6790000D01*
G75*
G02*
X-3650000Y-6930000I0J-140000D01*
G01*
G37*
G36*
G01*
X18200Y-10087600D02*
X18200Y-10587600D01*
G75*
G02*
X-206800Y-10812600I-225000J0D01*
G01*
X-656800Y-10812600D01*
G75*
G02*
X-881800Y-10587600I0J225000D01*
G01*
X-881800Y-10087600D01*
G75*
G02*
X-656800Y-9862600I225000J0D01*
G01*
X-206800Y-9862600D01*
G75*
G02*
X18200Y-10087600I0J-225000D01*
G01*
G37*
G36*
G01*
X-1531800Y-10087600D02*
X-1531800Y-10587600D01*
G75*
G02*
X-1756800Y-10812600I-225000J0D01*
G01*
X-2206800Y-10812600D01*
G75*
G02*
X-2431800Y-10587600I0J225000D01*
G01*
X-2431800Y-10087600D01*
G75*
G02*
X-2206800Y-9862600I225000J0D01*
G01*
X-1756800Y-9862600D01*
G75*
G02*
X-1531800Y-10087600I0J-225000D01*
G01*
G37*
G36*
G01*
X3621200Y-9745600D02*
X3621200Y-9405600D01*
G75*
G02*
X3761200Y-9265600I140000J0D01*
G01*
X4041200Y-9265600D01*
G75*
G02*
X4181200Y-9405600I0J-140000D01*
G01*
X4181200Y-9745600D01*
G75*
G02*
X4041200Y-9885600I-140000J0D01*
G01*
X3761200Y-9885600D01*
G75*
G02*
X3621200Y-9745600I0J140000D01*
G01*
G37*
G36*
G01*
X4581200Y-9745600D02*
X4581200Y-9405600D01*
G75*
G02*
X4721200Y-9265600I140000J0D01*
G01*
X5001200Y-9265600D01*
G75*
G02*
X5141200Y-9405600I0J-140000D01*
G01*
X5141200Y-9745600D01*
G75*
G02*
X5001200Y-9885600I-140000J0D01*
G01*
X4721200Y-9885600D01*
G75*
G02*
X4581200Y-9745600I0J140000D01*
G01*
G37*
G36*
G01*
X1500000Y-13425000D02*
X2000000Y-13425000D01*
G75*
G02*
X2225000Y-13650000I0J-225000D01*
G01*
X2225000Y-14100000D01*
G75*
G02*
X2000000Y-14325000I-225000J0D01*
G01*
X1500000Y-14325000D01*
G75*
G02*
X1275000Y-14100000I0J225000D01*
G01*
X1275000Y-13650000D01*
G75*
G02*
X1500000Y-13425000I225000J0D01*
G01*
G37*
G36*
G01*
X1500000Y-14975000D02*
X2000000Y-14975000D01*
G75*
G02*
X2225000Y-15200000I0J-225000D01*
G01*
X2225000Y-15650000D01*
G75*
G02*
X2000000Y-15875000I-225000J0D01*
G01*
X1500000Y-15875000D01*
G75*
G02*
X1275000Y-15650000I0J225000D01*
G01*
X1275000Y-15200000D01*
G75*
G02*
X1500000Y-14975000I225000J0D01*
G01*
G37*
G36*
G01*
X-2930000Y-18120000D02*
X-3270000Y-18120000D01*
G75*
G02*
X-3410000Y-17980000I0J140000D01*
G01*
X-3410000Y-17700000D01*
G75*
G02*
X-3270000Y-17560000I140000J0D01*
G01*
X-2930000Y-17560000D01*
G75*
G02*
X-2790000Y-17700000I0J-140000D01*
G01*
X-2790000Y-17980000D01*
G75*
G02*
X-2930000Y-18120000I-140000J0D01*
G01*
G37*
G36*
G01*
X-2930000Y-17160000D02*
X-3270000Y-17160000D01*
G75*
G02*
X-3410000Y-17020000I0J140000D01*
G01*
X-3410000Y-16740000D01*
G75*
G02*
X-3270000Y-16600000I140000J0D01*
G01*
X-2930000Y-16600000D01*
G75*
G02*
X-2790000Y-16740000I0J-140000D01*
G01*
X-2790000Y-17020000D01*
G75*
G02*
X-2930000Y-17160000I-140000J0D01*
G01*
G37*
D23*
X-15875000Y-7620000D03*
D24*
X-15875000Y-5080000D03*
X-15875000Y-2540000D03*
X-15875000Y0D03*
X-15875000Y2540000D03*
X-15875000Y5080000D03*
X-15875000Y7620000D03*
G36*
G01*
X-16401000Y-13888500D02*
X-16401000Y-13543500D01*
G75*
G02*
X-16253500Y-13396000I147500J0D01*
G01*
X-15958500Y-13396000D01*
G75*
G02*
X-15811000Y-13543500I0J-147500D01*
G01*
X-15811000Y-13888500D01*
G75*
G02*
X-15958500Y-14036000I-147500J0D01*
G01*
X-16253500Y-14036000D01*
G75*
G02*
X-16401000Y-13888500I0J147500D01*
G01*
G37*
G36*
G01*
X-15431000Y-13888500D02*
X-15431000Y-13543500D01*
G75*
G02*
X-15283500Y-13396000I147500J0D01*
G01*
X-14988500Y-13396000D01*
G75*
G02*
X-14841000Y-13543500I0J-147500D01*
G01*
X-14841000Y-13888500D01*
G75*
G02*
X-14988500Y-14036000I-147500J0D01*
G01*
X-15283500Y-14036000D01*
G75*
G02*
X-15431000Y-13888500I0J147500D01*
G01*
G37*
G36*
G01*
X9855000Y-14072500D02*
X9855000Y-13727500D01*
G75*
G02*
X10002500Y-13580000I147500J0D01*
G01*
X10297500Y-13580000D01*
G75*
G02*
X10445000Y-13727500I0J-147500D01*
G01*
X10445000Y-14072500D01*
G75*
G02*
X10297500Y-14220000I-147500J0D01*
G01*
X10002500Y-14220000D01*
G75*
G02*
X9855000Y-14072500I0J147500D01*
G01*
G37*
G36*
G01*
X8885000Y-14072500D02*
X8885000Y-13727500D01*
G75*
G02*
X9032500Y-13580000I147500J0D01*
G01*
X9327500Y-13580000D01*
G75*
G02*
X9475000Y-13727500I0J-147500D01*
G01*
X9475000Y-14072500D01*
G75*
G02*
X9327500Y-14220000I-147500J0D01*
G01*
X9032500Y-14220000D01*
G75*
G02*
X8885000Y-14072500I0J147500D01*
G01*
G37*
G36*
G01*
X-1570000Y-13827500D02*
X-1570000Y-14172500D01*
G75*
G02*
X-1717500Y-14320000I-147500J0D01*
G01*
X-2012500Y-14320000D01*
G75*
G02*
X-2160000Y-14172500I0J147500D01*
G01*
X-2160000Y-13827500D01*
G75*
G02*
X-2012500Y-13680000I147500J0D01*
G01*
X-1717500Y-13680000D01*
G75*
G02*
X-1570000Y-13827500I0J-147500D01*
G01*
G37*
G36*
G01*
X-2540000Y-13827500D02*
X-2540000Y-14172500D01*
G75*
G02*
X-2687500Y-14320000I-147500J0D01*
G01*
X-2982500Y-14320000D01*
G75*
G02*
X-3130000Y-14172500I0J147500D01*
G01*
X-3130000Y-13827500D01*
G75*
G02*
X-2982500Y-13680000I147500J0D01*
G01*
X-2687500Y-13680000D01*
G75*
G02*
X-2540000Y-13827500I0J-147500D01*
G01*
G37*
G36*
G01*
X672500Y-15010000D02*
X327500Y-15010000D01*
G75*
G02*
X180000Y-14862500I0J147500D01*
G01*
X180000Y-14567500D01*
G75*
G02*
X327500Y-14420000I147500J0D01*
G01*
X672500Y-14420000D01*
G75*
G02*
X820000Y-14567500I0J-147500D01*
G01*
X820000Y-14862500D01*
G75*
G02*
X672500Y-15010000I-147500J0D01*
G01*
G37*
G36*
G01*
X672500Y-15980000D02*
X327500Y-15980000D01*
G75*
G02*
X180000Y-15832500I0J147500D01*
G01*
X180000Y-15537500D01*
G75*
G02*
X327500Y-15390000I147500J0D01*
G01*
X672500Y-15390000D01*
G75*
G02*
X820000Y-15537500I0J-147500D01*
G01*
X820000Y-15832500D01*
G75*
G02*
X672500Y-15980000I-147500J0D01*
G01*
G37*
G36*
G01*
X-622500Y-15390000D02*
X-277500Y-15390000D01*
G75*
G02*
X-130000Y-15537500I0J-147500D01*
G01*
X-130000Y-15832500D01*
G75*
G02*
X-277500Y-15980000I-147500J0D01*
G01*
X-622500Y-15980000D01*
G75*
G02*
X-770000Y-15832500I0J147500D01*
G01*
X-770000Y-15537500D01*
G75*
G02*
X-622500Y-15390000I147500J0D01*
G01*
G37*
G36*
G01*
X-622500Y-14420000D02*
X-277500Y-14420000D01*
G75*
G02*
X-130000Y-14567500I0J-147500D01*
G01*
X-130000Y-14862500D01*
G75*
G02*
X-277500Y-15010000I-147500J0D01*
G01*
X-622500Y-15010000D01*
G75*
G02*
X-770000Y-14862500I0J147500D01*
G01*
X-770000Y-14567500D01*
G75*
G02*
X-622500Y-14420000I147500J0D01*
G01*
G37*
G36*
G01*
X-5000Y-8977500D02*
X-5000Y-9322500D01*
G75*
G02*
X-152500Y-9470000I-147500J0D01*
G01*
X-447500Y-9470000D01*
G75*
G02*
X-595000Y-9322500I0J147500D01*
G01*
X-595000Y-8977500D01*
G75*
G02*
X-447500Y-8830000I147500J0D01*
G01*
X-152500Y-8830000D01*
G75*
G02*
X-5000Y-8977500I0J-147500D01*
G01*
G37*
G36*
G01*
X-975000Y-8977500D02*
X-975000Y-9322500D01*
G75*
G02*
X-1122500Y-9470000I-147500J0D01*
G01*
X-1417500Y-9470000D01*
G75*
G02*
X-1565000Y-9322500I0J147500D01*
G01*
X-1565000Y-8977500D01*
G75*
G02*
X-1417500Y-8830000I147500J0D01*
G01*
X-1122500Y-8830000D01*
G75*
G02*
X-975000Y-8977500I0J-147500D01*
G01*
G37*
G36*
G01*
X-4904000Y-1447500D02*
X-5249000Y-1447500D01*
G75*
G02*
X-5396500Y-1300000I0J147500D01*
G01*
X-5396500Y-1005000D01*
G75*
G02*
X-5249000Y-857500I147500J0D01*
G01*
X-4904000Y-857500D01*
G75*
G02*
X-4756500Y-1005000I0J-147500D01*
G01*
X-4756500Y-1300000D01*
G75*
G02*
X-4904000Y-1447500I-147500J0D01*
G01*
G37*
G36*
G01*
X-4904000Y-2417500D02*
X-5249000Y-2417500D01*
G75*
G02*
X-5396500Y-2270000I0J147500D01*
G01*
X-5396500Y-1975000D01*
G75*
G02*
X-5249000Y-1827500I147500J0D01*
G01*
X-4904000Y-1827500D01*
G75*
G02*
X-4756500Y-1975000I0J-147500D01*
G01*
X-4756500Y-2270000D01*
G75*
G02*
X-4904000Y-2417500I-147500J0D01*
G01*
G37*
G36*
G01*
X-3951500Y-1447500D02*
X-4296500Y-1447500D01*
G75*
G02*
X-4444000Y-1300000I0J147500D01*
G01*
X-4444000Y-1005000D01*
G75*
G02*
X-4296500Y-857500I147500J0D01*
G01*
X-3951500Y-857500D01*
G75*
G02*
X-3804000Y-1005000I0J-147500D01*
G01*
X-3804000Y-1300000D01*
G75*
G02*
X-3951500Y-1447500I-147500J0D01*
G01*
G37*
G36*
G01*
X-3951500Y-2417500D02*
X-4296500Y-2417500D01*
G75*
G02*
X-4444000Y-2270000I0J147500D01*
G01*
X-4444000Y-1975000D01*
G75*
G02*
X-4296500Y-1827500I147500J0D01*
G01*
X-3951500Y-1827500D01*
G75*
G02*
X-3804000Y-1975000I0J-147500D01*
G01*
X-3804000Y-2270000D01*
G75*
G02*
X-3951500Y-2417500I-147500J0D01*
G01*
G37*
G36*
G01*
X5972500Y-1480000D02*
X5627500Y-1480000D01*
G75*
G02*
X5480000Y-1332500I0J147500D01*
G01*
X5480000Y-1037500D01*
G75*
G02*
X5627500Y-890000I147500J0D01*
G01*
X5972500Y-890000D01*
G75*
G02*
X6120000Y-1037500I0J-147500D01*
G01*
X6120000Y-1332500D01*
G75*
G02*
X5972500Y-1480000I-147500J0D01*
G01*
G37*
G36*
G01*
X5972500Y-510000D02*
X5627500Y-510000D01*
G75*
G02*
X5480000Y-362500I0J147500D01*
G01*
X5480000Y-67500D01*
G75*
G02*
X5627500Y80000I147500J0D01*
G01*
X5972500Y80000D01*
G75*
G02*
X6120000Y-67500I0J-147500D01*
G01*
X6120000Y-362500D01*
G75*
G02*
X5972500Y-510000I-147500J0D01*
G01*
G37*
G36*
G01*
X-3880000Y897500D02*
X-3880000Y552500D01*
G75*
G02*
X-4027500Y405000I-147500J0D01*
G01*
X-4322500Y405000D01*
G75*
G02*
X-4470000Y552500I0J147500D01*
G01*
X-4470000Y897500D01*
G75*
G02*
X-4322500Y1045000I147500J0D01*
G01*
X-4027500Y1045000D01*
G75*
G02*
X-3880000Y897500I0J-147500D01*
G01*
G37*
G36*
G01*
X-4850000Y897500D02*
X-4850000Y552500D01*
G75*
G02*
X-4997500Y405000I-147500J0D01*
G01*
X-5292500Y405000D01*
G75*
G02*
X-5440000Y552500I0J147500D01*
G01*
X-5440000Y897500D01*
G75*
G02*
X-5292500Y1045000I147500J0D01*
G01*
X-4997500Y1045000D01*
G75*
G02*
X-4850000Y897500I0J-147500D01*
G01*
G37*
G36*
G01*
X830000Y4403500D02*
X830000Y4058500D01*
G75*
G02*
X682500Y3911000I-147500J0D01*
G01*
X387500Y3911000D01*
G75*
G02*
X240000Y4058500I0J147500D01*
G01*
X240000Y4403500D01*
G75*
G02*
X387500Y4551000I147500J0D01*
G01*
X682500Y4551000D01*
G75*
G02*
X830000Y4403500I0J-147500D01*
G01*
G37*
G36*
G01*
X-140000Y4403500D02*
X-140000Y4058500D01*
G75*
G02*
X-287500Y3911000I-147500J0D01*
G01*
X-582500Y3911000D01*
G75*
G02*
X-730000Y4058500I0J147500D01*
G01*
X-730000Y4403500D01*
G75*
G02*
X-582500Y4551000I147500J0D01*
G01*
X-287500Y4551000D01*
G75*
G02*
X-140000Y4403500I0J-147500D01*
G01*
G37*
G36*
G01*
X-8313000Y-5815000D02*
X-7968000Y-5815000D01*
G75*
G02*
X-7820500Y-5962500I0J-147500D01*
G01*
X-7820500Y-6257500D01*
G75*
G02*
X-7968000Y-6405000I-147500J0D01*
G01*
X-8313000Y-6405000D01*
G75*
G02*
X-8460500Y-6257500I0J147500D01*
G01*
X-8460500Y-5962500D01*
G75*
G02*
X-8313000Y-5815000I147500J0D01*
G01*
G37*
G36*
G01*
X-8313000Y-6785000D02*
X-7968000Y-6785000D01*
G75*
G02*
X-7820500Y-6932500I0J-147500D01*
G01*
X-7820500Y-7227500D01*
G75*
G02*
X-7968000Y-7375000I-147500J0D01*
G01*
X-8313000Y-7375000D01*
G75*
G02*
X-8460500Y-7227500I0J147500D01*
G01*
X-8460500Y-6932500D01*
G75*
G02*
X-8313000Y-6785000I147500J0D01*
G01*
G37*
G36*
G01*
X-3382500Y14080000D02*
X-3037500Y14080000D01*
G75*
G02*
X-2890000Y13932500I0J-147500D01*
G01*
X-2890000Y13637500D01*
G75*
G02*
X-3037500Y13490000I-147500J0D01*
G01*
X-3382500Y13490000D01*
G75*
G02*
X-3530000Y13637500I0J147500D01*
G01*
X-3530000Y13932500D01*
G75*
G02*
X-3382500Y14080000I147500J0D01*
G01*
G37*
G36*
G01*
X-3382500Y13110000D02*
X-3037500Y13110000D01*
G75*
G02*
X-2890000Y12962500I0J-147500D01*
G01*
X-2890000Y12667500D01*
G75*
G02*
X-3037500Y12520000I-147500J0D01*
G01*
X-3382500Y12520000D01*
G75*
G02*
X-3530000Y12667500I0J147500D01*
G01*
X-3530000Y12962500D01*
G75*
G02*
X-3382500Y13110000I147500J0D01*
G01*
G37*
G36*
G01*
X-7871900Y-3923200D02*
X-7871900Y-4268200D01*
G75*
G02*
X-8019400Y-4415700I-147500J0D01*
G01*
X-8314400Y-4415700D01*
G75*
G02*
X-8461900Y-4268200I0J147500D01*
G01*
X-8461900Y-3923200D01*
G75*
G02*
X-8314400Y-3775700I147500J0D01*
G01*
X-8019400Y-3775700D01*
G75*
G02*
X-7871900Y-3923200I0J-147500D01*
G01*
G37*
G36*
G01*
X-6901900Y-3923200D02*
X-6901900Y-4268200D01*
G75*
G02*
X-7049400Y-4415700I-147500J0D01*
G01*
X-7344400Y-4415700D01*
G75*
G02*
X-7491900Y-4268200I0J147500D01*
G01*
X-7491900Y-3923200D01*
G75*
G02*
X-7344400Y-3775700I147500J0D01*
G01*
X-7049400Y-3775700D01*
G75*
G02*
X-6901900Y-3923200I0J-147500D01*
G01*
G37*
G36*
G01*
X1647500Y7770000D02*
X1302500Y7770000D01*
G75*
G02*
X1155000Y7917500I0J147500D01*
G01*
X1155000Y8212500D01*
G75*
G02*
X1302500Y8360000I147500J0D01*
G01*
X1647500Y8360000D01*
G75*
G02*
X1795000Y8212500I0J-147500D01*
G01*
X1795000Y7917500D01*
G75*
G02*
X1647500Y7770000I-147500J0D01*
G01*
G37*
G36*
G01*
X1647500Y8740000D02*
X1302500Y8740000D01*
G75*
G02*
X1155000Y8887500I0J147500D01*
G01*
X1155000Y9182500D01*
G75*
G02*
X1302500Y9330000I147500J0D01*
G01*
X1647500Y9330000D01*
G75*
G02*
X1795000Y9182500I0J-147500D01*
G01*
X1795000Y8887500D01*
G75*
G02*
X1647500Y8740000I-147500J0D01*
G01*
G37*
G36*
G01*
X3655000Y7272500D02*
X3655000Y6927500D01*
G75*
G02*
X3507500Y6780000I-147500J0D01*
G01*
X3212500Y6780000D01*
G75*
G02*
X3065000Y6927500I0J147500D01*
G01*
X3065000Y7272500D01*
G75*
G02*
X3212500Y7420000I147500J0D01*
G01*
X3507500Y7420000D01*
G75*
G02*
X3655000Y7272500I0J-147500D01*
G01*
G37*
G36*
G01*
X2685000Y7272500D02*
X2685000Y6927500D01*
G75*
G02*
X2537500Y6780000I-147500J0D01*
G01*
X2242500Y6780000D01*
G75*
G02*
X2095000Y6927500I0J147500D01*
G01*
X2095000Y7272500D01*
G75*
G02*
X2242500Y7420000I147500J0D01*
G01*
X2537500Y7420000D01*
G75*
G02*
X2685000Y7272500I0J-147500D01*
G01*
G37*
G36*
G01*
X-5440000Y6927500D02*
X-5440000Y7272500D01*
G75*
G02*
X-5292500Y7420000I147500J0D01*
G01*
X-4997500Y7420000D01*
G75*
G02*
X-4850000Y7272500I0J-147500D01*
G01*
X-4850000Y6927500D01*
G75*
G02*
X-4997500Y6780000I-147500J0D01*
G01*
X-5292500Y6780000D01*
G75*
G02*
X-5440000Y6927500I0J147500D01*
G01*
G37*
G36*
G01*
X-4470000Y6927500D02*
X-4470000Y7272500D01*
G75*
G02*
X-4322500Y7420000I147500J0D01*
G01*
X-4027500Y7420000D01*
G75*
G02*
X-3880000Y7272500I0J-147500D01*
G01*
X-3880000Y6927500D01*
G75*
G02*
X-4027500Y6780000I-147500J0D01*
G01*
X-4322500Y6780000D01*
G75*
G02*
X-4470000Y6927500I0J147500D01*
G01*
G37*
G36*
G01*
X-4002500Y9670000D02*
X-4347500Y9670000D01*
G75*
G02*
X-4495000Y9817500I0J147500D01*
G01*
X-4495000Y10112500D01*
G75*
G02*
X-4347500Y10260000I147500J0D01*
G01*
X-4002500Y10260000D01*
G75*
G02*
X-3855000Y10112500I0J-147500D01*
G01*
X-3855000Y9817500D01*
G75*
G02*
X-4002500Y9670000I-147500J0D01*
G01*
G37*
G36*
G01*
X-4002500Y10640000D02*
X-4347500Y10640000D01*
G75*
G02*
X-4495000Y10787500I0J147500D01*
G01*
X-4495000Y11082500D01*
G75*
G02*
X-4347500Y11230000I147500J0D01*
G01*
X-4002500Y11230000D01*
G75*
G02*
X-3855000Y11082500I0J-147500D01*
G01*
X-3855000Y10787500D01*
G75*
G02*
X-4002500Y10640000I-147500J0D01*
G01*
G37*
G36*
G01*
X2572500Y10640000D02*
X2227500Y10640000D01*
G75*
G02*
X2080000Y10787500I0J147500D01*
G01*
X2080000Y11082500D01*
G75*
G02*
X2227500Y11230000I147500J0D01*
G01*
X2572500Y11230000D01*
G75*
G02*
X2720000Y11082500I0J-147500D01*
G01*
X2720000Y10787500D01*
G75*
G02*
X2572500Y10640000I-147500J0D01*
G01*
G37*
G36*
G01*
X2572500Y9670000D02*
X2227500Y9670000D01*
G75*
G02*
X2080000Y9817500I0J147500D01*
G01*
X2080000Y10112500D01*
G75*
G02*
X2227500Y10260000I147500J0D01*
G01*
X2572500Y10260000D01*
G75*
G02*
X2720000Y10112500I0J-147500D01*
G01*
X2720000Y9817500D01*
G75*
G02*
X2572500Y9670000I-147500J0D01*
G01*
G37*
G36*
G01*
X-3052500Y4880000D02*
X-3397500Y4880000D01*
G75*
G02*
X-3545000Y5027500I0J147500D01*
G01*
X-3545000Y5322500D01*
G75*
G02*
X-3397500Y5470000I147500J0D01*
G01*
X-3052500Y5470000D01*
G75*
G02*
X-2905000Y5322500I0J-147500D01*
G01*
X-2905000Y5027500D01*
G75*
G02*
X-3052500Y4880000I-147500J0D01*
G01*
G37*
G36*
G01*
X-3052500Y3910000D02*
X-3397500Y3910000D01*
G75*
G02*
X-3545000Y4057500I0J147500D01*
G01*
X-3545000Y4352500D01*
G75*
G02*
X-3397500Y4500000I147500J0D01*
G01*
X-3052500Y4500000D01*
G75*
G02*
X-2905000Y4352500I0J-147500D01*
G01*
X-2905000Y4057500D01*
G75*
G02*
X-3052500Y3910000I-147500J0D01*
G01*
G37*
G36*
G01*
X1302500Y5480000D02*
X1647500Y5480000D01*
G75*
G02*
X1795000Y5332500I0J-147500D01*
G01*
X1795000Y5037500D01*
G75*
G02*
X1647500Y4890000I-147500J0D01*
G01*
X1302500Y4890000D01*
G75*
G02*
X1155000Y5037500I0J147500D01*
G01*
X1155000Y5332500D01*
G75*
G02*
X1302500Y5480000I147500J0D01*
G01*
G37*
G36*
G01*
X1302500Y4510000D02*
X1647500Y4510000D01*
G75*
G02*
X1795000Y4362500I0J-147500D01*
G01*
X1795000Y4067500D01*
G75*
G02*
X1647500Y3920000I-147500J0D01*
G01*
X1302500Y3920000D01*
G75*
G02*
X1155000Y4067500I0J147500D01*
G01*
X1155000Y4362500D01*
G75*
G02*
X1302500Y4510000I147500J0D01*
G01*
G37*
G36*
G01*
X-5577437Y-11306358D02*
X-5577437Y-11651358D01*
G75*
G02*
X-5724937Y-11798858I-147500J0D01*
G01*
X-6019937Y-11798858D01*
G75*
G02*
X-6167437Y-11651358I0J147500D01*
G01*
X-6167437Y-11306358D01*
G75*
G02*
X-6019937Y-11158858I147500J0D01*
G01*
X-5724937Y-11158858D01*
G75*
G02*
X-5577437Y-11306358I0J-147500D01*
G01*
G37*
G36*
G01*
X-4607437Y-11306358D02*
X-4607437Y-11651358D01*
G75*
G02*
X-4754937Y-11798858I-147500J0D01*
G01*
X-5049937Y-11798858D01*
G75*
G02*
X-5197437Y-11651358I0J147500D01*
G01*
X-5197437Y-11306358D01*
G75*
G02*
X-5049937Y-11158858I147500J0D01*
G01*
X-4754937Y-11158858D01*
G75*
G02*
X-4607437Y-11306358I0J-147500D01*
G01*
G37*
G36*
G01*
X1647500Y11545000D02*
X1302500Y11545000D01*
G75*
G02*
X1155000Y11692500I0J147500D01*
G01*
X1155000Y11987500D01*
G75*
G02*
X1302500Y12135000I147500J0D01*
G01*
X1647500Y12135000D01*
G75*
G02*
X1795000Y11987500I0J-147500D01*
G01*
X1795000Y11692500D01*
G75*
G02*
X1647500Y11545000I-147500J0D01*
G01*
G37*
G36*
G01*
X1647500Y12515000D02*
X1302500Y12515000D01*
G75*
G02*
X1155000Y12662500I0J147500D01*
G01*
X1155000Y12957500D01*
G75*
G02*
X1302500Y13105000I147500J0D01*
G01*
X1647500Y13105000D01*
G75*
G02*
X1795000Y12957500I0J-147500D01*
G01*
X1795000Y12662500D01*
G75*
G02*
X1647500Y12515000I-147500J0D01*
G01*
G37*
G36*
G01*
X8227500Y9680000D02*
X8572500Y9680000D01*
G75*
G02*
X8720000Y9532500I0J-147500D01*
G01*
X8720000Y9237500D01*
G75*
G02*
X8572500Y9090000I-147500J0D01*
G01*
X8227500Y9090000D01*
G75*
G02*
X8080000Y9237500I0J147500D01*
G01*
X8080000Y9532500D01*
G75*
G02*
X8227500Y9680000I147500J0D01*
G01*
G37*
G36*
G01*
X8227500Y8710000D02*
X8572500Y8710000D01*
G75*
G02*
X8720000Y8562500I0J-147500D01*
G01*
X8720000Y8267500D01*
G75*
G02*
X8572500Y8120000I-147500J0D01*
G01*
X8227500Y8120000D01*
G75*
G02*
X8080000Y8267500I0J147500D01*
G01*
X8080000Y8562500D01*
G75*
G02*
X8227500Y8710000I147500J0D01*
G01*
G37*
G36*
G01*
X7227500Y9680000D02*
X7572500Y9680000D01*
G75*
G02*
X7720000Y9532500I0J-147500D01*
G01*
X7720000Y9237500D01*
G75*
G02*
X7572500Y9090000I-147500J0D01*
G01*
X7227500Y9090000D01*
G75*
G02*
X7080000Y9237500I0J147500D01*
G01*
X7080000Y9532500D01*
G75*
G02*
X7227500Y9680000I147500J0D01*
G01*
G37*
G36*
G01*
X7227500Y8710000D02*
X7572500Y8710000D01*
G75*
G02*
X7720000Y8562500I0J-147500D01*
G01*
X7720000Y8267500D01*
G75*
G02*
X7572500Y8120000I-147500J0D01*
G01*
X7227500Y8120000D01*
G75*
G02*
X7080000Y8267500I0J147500D01*
G01*
X7080000Y8562500D01*
G75*
G02*
X7227500Y8710000I147500J0D01*
G01*
G37*
G36*
G01*
X-80000Y10422500D02*
X-80000Y10077500D01*
G75*
G02*
X-227500Y9930000I-147500J0D01*
G01*
X-522500Y9930000D01*
G75*
G02*
X-670000Y10077500I0J147500D01*
G01*
X-670000Y10422500D01*
G75*
G02*
X-522500Y10570000I147500J0D01*
G01*
X-227500Y10570000D01*
G75*
G02*
X-80000Y10422500I0J-147500D01*
G01*
G37*
G36*
G01*
X-1050000Y10422500D02*
X-1050000Y10077500D01*
G75*
G02*
X-1197500Y9930000I-147500J0D01*
G01*
X-1492500Y9930000D01*
G75*
G02*
X-1640000Y10077500I0J147500D01*
G01*
X-1640000Y10422500D01*
G75*
G02*
X-1492500Y10570000I147500J0D01*
G01*
X-1197500Y10570000D01*
G75*
G02*
X-1050000Y10422500I0J-147500D01*
G01*
G37*
G36*
G01*
X-4328959Y-11651358D02*
X-4328959Y-11306358D01*
G75*
G02*
X-4181459Y-11158858I147500J0D01*
G01*
X-3886459Y-11158858D01*
G75*
G02*
X-3738959Y-11306358I0J-147500D01*
G01*
X-3738959Y-11651358D01*
G75*
G02*
X-3886459Y-11798858I-147500J0D01*
G01*
X-4181459Y-11798858D01*
G75*
G02*
X-4328959Y-11651358I0J147500D01*
G01*
G37*
G36*
G01*
X-3358959Y-11651358D02*
X-3358959Y-11306358D01*
G75*
G02*
X-3211459Y-11158858I147500J0D01*
G01*
X-2916459Y-11158858D01*
G75*
G02*
X-2768959Y-11306358I0J-147500D01*
G01*
X-2768959Y-11651358D01*
G75*
G02*
X-2916459Y-11798858I-147500J0D01*
G01*
X-3211459Y-11798858D01*
G75*
G02*
X-3358959Y-11651358I0J147500D01*
G01*
G37*
G36*
G01*
X-327500Y8090000D02*
X-672500Y8090000D01*
G75*
G02*
X-820000Y8237500I0J147500D01*
G01*
X-820000Y8532500D01*
G75*
G02*
X-672500Y8680000I147500J0D01*
G01*
X-327500Y8680000D01*
G75*
G02*
X-180000Y8532500I0J-147500D01*
G01*
X-180000Y8237500D01*
G75*
G02*
X-327500Y8090000I-147500J0D01*
G01*
G37*
G36*
G01*
X-327500Y9060000D02*
X-672500Y9060000D01*
G75*
G02*
X-820000Y9207500I0J147500D01*
G01*
X-820000Y9502500D01*
G75*
G02*
X-672500Y9650000I147500J0D01*
G01*
X-327500Y9650000D01*
G75*
G02*
X-180000Y9502500I0J-147500D01*
G01*
X-180000Y9207500D01*
G75*
G02*
X-327500Y9060000I-147500J0D01*
G01*
G37*
G36*
G01*
X12640500Y14477000D02*
X12295500Y14477000D01*
G75*
G02*
X12148000Y14624500I0J147500D01*
G01*
X12148000Y14919500D01*
G75*
G02*
X12295500Y15067000I147500J0D01*
G01*
X12640500Y15067000D01*
G75*
G02*
X12788000Y14919500I0J-147500D01*
G01*
X12788000Y14624500D01*
G75*
G02*
X12640500Y14477000I-147500J0D01*
G01*
G37*
G36*
G01*
X12640500Y13507000D02*
X12295500Y13507000D01*
G75*
G02*
X12148000Y13654500I0J147500D01*
G01*
X12148000Y13949500D01*
G75*
G02*
X12295500Y14097000I147500J0D01*
G01*
X12640500Y14097000D01*
G75*
G02*
X12788000Y13949500I0J-147500D01*
G01*
X12788000Y13654500D01*
G75*
G02*
X12640500Y13507000I-147500J0D01*
G01*
G37*
G36*
G01*
X-3052500Y8740000D02*
X-3397500Y8740000D01*
G75*
G02*
X-3545000Y8887500I0J147500D01*
G01*
X-3545000Y9182500D01*
G75*
G02*
X-3397500Y9330000I147500J0D01*
G01*
X-3052500Y9330000D01*
G75*
G02*
X-2905000Y9182500I0J-147500D01*
G01*
X-2905000Y8887500D01*
G75*
G02*
X-3052500Y8740000I-147500J0D01*
G01*
G37*
G36*
G01*
X-3052500Y7770000D02*
X-3397500Y7770000D01*
G75*
G02*
X-3545000Y7917500I0J147500D01*
G01*
X-3545000Y8212500D01*
G75*
G02*
X-3397500Y8360000I147500J0D01*
G01*
X-3052500Y8360000D01*
G75*
G02*
X-2905000Y8212500I0J-147500D01*
G01*
X-2905000Y7917500D01*
G75*
G02*
X-3052500Y7770000I-147500J0D01*
G01*
G37*
G36*
G01*
X1302500Y10260000D02*
X1647500Y10260000D01*
G75*
G02*
X1795000Y10112500I0J-147500D01*
G01*
X1795000Y9817500D01*
G75*
G02*
X1647500Y9670000I-147500J0D01*
G01*
X1302500Y9670000D01*
G75*
G02*
X1155000Y9817500I0J147500D01*
G01*
X1155000Y10112500D01*
G75*
G02*
X1302500Y10260000I147500J0D01*
G01*
G37*
G36*
G01*
X1302500Y11230000D02*
X1647500Y11230000D01*
G75*
G02*
X1795000Y11082500I0J-147500D01*
G01*
X1795000Y10787500D01*
G75*
G02*
X1647500Y10640000I-147500J0D01*
G01*
X1302500Y10640000D01*
G75*
G02*
X1155000Y10787500I0J147500D01*
G01*
X1155000Y11082500D01*
G75*
G02*
X1302500Y11230000I147500J0D01*
G01*
G37*
G36*
G01*
X-3397500Y10250000D02*
X-3052500Y10250000D01*
G75*
G02*
X-2905000Y10102500I0J-147500D01*
G01*
X-2905000Y9807500D01*
G75*
G02*
X-3052500Y9660000I-147500J0D01*
G01*
X-3397500Y9660000D01*
G75*
G02*
X-3545000Y9807500I0J147500D01*
G01*
X-3545000Y10102500D01*
G75*
G02*
X-3397500Y10250000I147500J0D01*
G01*
G37*
G36*
G01*
X-3397500Y11220000D02*
X-3052500Y11220000D01*
G75*
G02*
X-2905000Y11072500I0J-147500D01*
G01*
X-2905000Y10777500D01*
G75*
G02*
X-3052500Y10630000I-147500J0D01*
G01*
X-3397500Y10630000D01*
G75*
G02*
X-3545000Y10777500I0J147500D01*
G01*
X-3545000Y11072500D01*
G75*
G02*
X-3397500Y11220000I147500J0D01*
G01*
G37*
G36*
G01*
X-4472500Y-430500D02*
X-4472500Y-85500D01*
G75*
G02*
X-4325000Y62000I147500J0D01*
G01*
X-4030000Y62000D01*
G75*
G02*
X-3882500Y-85500I0J-147500D01*
G01*
X-3882500Y-430500D01*
G75*
G02*
X-4030000Y-578000I-147500J0D01*
G01*
X-4325000Y-578000D01*
G75*
G02*
X-4472500Y-430500I0J147500D01*
G01*
G37*
G36*
G01*
X-5442500Y-430500D02*
X-5442500Y-85500D01*
G75*
G02*
X-5295000Y62000I147500J0D01*
G01*
X-5000000Y62000D01*
G75*
G02*
X-4852500Y-85500I0J-147500D01*
G01*
X-4852500Y-430500D01*
G75*
G02*
X-5000000Y-578000I-147500J0D01*
G01*
X-5295000Y-578000D01*
G75*
G02*
X-5442500Y-430500I0J147500D01*
G01*
G37*
G36*
G01*
X1246550Y-9428800D02*
X734050Y-9428800D01*
G75*
G02*
X515300Y-9210050I0J218750D01*
G01*
X515300Y-8772550D01*
G75*
G02*
X734050Y-8553800I218750J0D01*
G01*
X1246550Y-8553800D01*
G75*
G02*
X1465300Y-8772550I0J-218750D01*
G01*
X1465300Y-9210050D01*
G75*
G02*
X1246550Y-9428800I-218750J0D01*
G01*
G37*
G36*
G01*
X1246550Y-11003800D02*
X734050Y-11003800D01*
G75*
G02*
X515300Y-10785050I0J218750D01*
G01*
X515300Y-10347550D01*
G75*
G02*
X734050Y-10128800I218750J0D01*
G01*
X1246550Y-10128800D01*
G75*
G02*
X1465300Y-10347550I0J-218750D01*
G01*
X1465300Y-10785050D01*
G75*
G02*
X1246550Y-11003800I-218750J0D01*
G01*
G37*
D25*
X12500000Y-20000000D03*
X-12500000Y20000000D03*
G36*
G01*
X-7869500Y-4888400D02*
X-7869500Y-5233400D01*
G75*
G02*
X-8017000Y-5380900I-147500J0D01*
G01*
X-8312000Y-5380900D01*
G75*
G02*
X-8459500Y-5233400I0J147500D01*
G01*
X-8459500Y-4888400D01*
G75*
G02*
X-8312000Y-4740900I147500J0D01*
G01*
X-8017000Y-4740900D01*
G75*
G02*
X-7869500Y-4888400I0J-147500D01*
G01*
G37*
G36*
G01*
X-6899500Y-4888400D02*
X-6899500Y-5233400D01*
G75*
G02*
X-7047000Y-5380900I-147500J0D01*
G01*
X-7342000Y-5380900D01*
G75*
G02*
X-7489500Y-5233400I0J147500D01*
G01*
X-7489500Y-4888400D01*
G75*
G02*
X-7342000Y-4740900I147500J0D01*
G01*
X-7047000Y-4740900D01*
G75*
G02*
X-6899500Y-4888400I0J-147500D01*
G01*
G37*
G36*
G01*
X-4002500Y4865000D02*
X-4347500Y4865000D01*
G75*
G02*
X-4495000Y5012500I0J147500D01*
G01*
X-4495000Y5307500D01*
G75*
G02*
X-4347500Y5455000I147500J0D01*
G01*
X-4002500Y5455000D01*
G75*
G02*
X-3855000Y5307500I0J-147500D01*
G01*
X-3855000Y5012500D01*
G75*
G02*
X-4002500Y4865000I-147500J0D01*
G01*
G37*
G36*
G01*
X-4002500Y3895000D02*
X-4347500Y3895000D01*
G75*
G02*
X-4495000Y4042500I0J147500D01*
G01*
X-4495000Y4337500D01*
G75*
G02*
X-4347500Y4485000I147500J0D01*
G01*
X-4002500Y4485000D01*
G75*
G02*
X-3855000Y4337500I0J-147500D01*
G01*
X-3855000Y4042500D01*
G75*
G02*
X-4002500Y3895000I-147500J0D01*
G01*
G37*
G36*
G01*
X4401066Y4082805D02*
X4401066Y4427805D01*
G75*
G02*
X4548566Y4575305I147500J0D01*
G01*
X4843566Y4575305D01*
G75*
G02*
X4991066Y4427805I0J-147500D01*
G01*
X4991066Y4082805D01*
G75*
G02*
X4843566Y3935305I-147500J0D01*
G01*
X4548566Y3935305D01*
G75*
G02*
X4401066Y4082805I0J147500D01*
G01*
G37*
G36*
G01*
X3431066Y4082805D02*
X3431066Y4427805D01*
G75*
G02*
X3578566Y4575305I147500J0D01*
G01*
X3873566Y4575305D01*
G75*
G02*
X4021066Y4427805I0J-147500D01*
G01*
X4021066Y4082805D01*
G75*
G02*
X3873566Y3935305I-147500J0D01*
G01*
X3578566Y3935305D01*
G75*
G02*
X3431066Y4082805I0J147500D01*
G01*
G37*
G36*
G01*
X1159999Y5927500D02*
X1159999Y6272500D01*
G75*
G02*
X1307499Y6420000I147500J0D01*
G01*
X1602499Y6420000D01*
G75*
G02*
X1749999Y6272500I0J-147500D01*
G01*
X1749999Y5927500D01*
G75*
G02*
X1602499Y5780000I-147500J0D01*
G01*
X1307499Y5780000D01*
G75*
G02*
X1159999Y5927500I0J147500D01*
G01*
G37*
G36*
G01*
X2129999Y5927500D02*
X2129999Y6272500D01*
G75*
G02*
X2277499Y6420000I147500J0D01*
G01*
X2572499Y6420000D01*
G75*
G02*
X2719999Y6272500I0J-147500D01*
G01*
X2719999Y5927500D01*
G75*
G02*
X2572499Y5780000I-147500J0D01*
G01*
X2277499Y5780000D01*
G75*
G02*
X2129999Y5927500I0J147500D01*
G01*
G37*
G36*
G01*
X-3880000Y6272500D02*
X-3880000Y5927500D01*
G75*
G02*
X-4027500Y5780000I-147500J0D01*
G01*
X-4322500Y5780000D01*
G75*
G02*
X-4470000Y5927500I0J147500D01*
G01*
X-4470000Y6272500D01*
G75*
G02*
X-4322500Y6420000I147500J0D01*
G01*
X-4027500Y6420000D01*
G75*
G02*
X-3880000Y6272500I0J-147500D01*
G01*
G37*
G36*
G01*
X-2910000Y6272500D02*
X-2910000Y5927500D01*
G75*
G02*
X-3057500Y5780000I-147500J0D01*
G01*
X-3352500Y5780000D01*
G75*
G02*
X-3500000Y5927500I0J147500D01*
G01*
X-3500000Y6272500D01*
G75*
G02*
X-3352500Y6420000I147500J0D01*
G01*
X-3057500Y6420000D01*
G75*
G02*
X-2910000Y6272500I0J-147500D01*
G01*
G37*
G36*
G01*
X-4002500Y7770000D02*
X-4347500Y7770000D01*
G75*
G02*
X-4495000Y7917500I0J147500D01*
G01*
X-4495000Y8212500D01*
G75*
G02*
X-4347500Y8360000I147500J0D01*
G01*
X-4002500Y8360000D01*
G75*
G02*
X-3855000Y8212500I0J-147500D01*
G01*
X-3855000Y7917500D01*
G75*
G02*
X-4002500Y7770000I-147500J0D01*
G01*
G37*
G36*
G01*
X-4002500Y8740000D02*
X-4347500Y8740000D01*
G75*
G02*
X-4495000Y8887500I0J147500D01*
G01*
X-4495000Y9182500D01*
G75*
G02*
X-4347500Y9330000I147500J0D01*
G01*
X-4002500Y9330000D01*
G75*
G02*
X-3855000Y9182500I0J-147500D01*
G01*
X-3855000Y8887500D01*
G75*
G02*
X-4002500Y8740000I-147500J0D01*
G01*
G37*
G36*
G01*
X2572500Y8740000D02*
X2227500Y8740000D01*
G75*
G02*
X2080000Y8887500I0J147500D01*
G01*
X2080000Y9182500D01*
G75*
G02*
X2227500Y9330000I147500J0D01*
G01*
X2572500Y9330000D01*
G75*
G02*
X2720000Y9182500I0J-147500D01*
G01*
X2720000Y8887500D01*
G75*
G02*
X2572500Y8740000I-147500J0D01*
G01*
G37*
G36*
G01*
X2572500Y7770000D02*
X2227500Y7770000D01*
G75*
G02*
X2080000Y7917500I0J147500D01*
G01*
X2080000Y8212500D01*
G75*
G02*
X2227500Y8360000I147500J0D01*
G01*
X2572500Y8360000D01*
G75*
G02*
X2720000Y8212500I0J-147500D01*
G01*
X2720000Y7917500D01*
G75*
G02*
X2572500Y7770000I-147500J0D01*
G01*
G37*
G36*
G01*
X-4002500Y12515000D02*
X-4347500Y12515000D01*
G75*
G02*
X-4495000Y12662500I0J147500D01*
G01*
X-4495000Y12957500D01*
G75*
G02*
X-4347500Y13105000I147500J0D01*
G01*
X-4002500Y13105000D01*
G75*
G02*
X-3855000Y12957500I0J-147500D01*
G01*
X-3855000Y12662500D01*
G75*
G02*
X-4002500Y12515000I-147500J0D01*
G01*
G37*
G36*
G01*
X-4002500Y11545000D02*
X-4347500Y11545000D01*
G75*
G02*
X-4495000Y11692500I0J147500D01*
G01*
X-4495000Y11987500D01*
G75*
G02*
X-4347500Y12135000I147500J0D01*
G01*
X-4002500Y12135000D01*
G75*
G02*
X-3855000Y11987500I0J-147500D01*
G01*
X-3855000Y11692500D01*
G75*
G02*
X-4002500Y11545000I-147500J0D01*
G01*
G37*
G36*
G01*
X2572500Y11545000D02*
X2227500Y11545000D01*
G75*
G02*
X2080000Y11692500I0J147500D01*
G01*
X2080000Y11987500D01*
G75*
G02*
X2227500Y12135000I147500J0D01*
G01*
X2572500Y12135000D01*
G75*
G02*
X2720000Y11987500I0J-147500D01*
G01*
X2720000Y11692500D01*
G75*
G02*
X2572500Y11545000I-147500J0D01*
G01*
G37*
G36*
G01*
X2572500Y12515000D02*
X2227500Y12515000D01*
G75*
G02*
X2080000Y12662500I0J147500D01*
G01*
X2080000Y12957500D01*
G75*
G02*
X2227500Y13105000I147500J0D01*
G01*
X2572500Y13105000D01*
G75*
G02*
X2720000Y12957500I0J-147500D01*
G01*
X2720000Y12662500D01*
G75*
G02*
X2572500Y12515000I-147500J0D01*
G01*
G37*
D12*
X10700000Y-25500000D03*
X9750000Y-23500000D03*
X11650000Y-23500000D03*
D26*
X-10410000Y-25900000D03*
X-11060000Y-23900000D03*
X-9760000Y-23900000D03*
G36*
G01*
X-13526000Y-13888500D02*
X-13526000Y-13543500D01*
G75*
G02*
X-13378500Y-13396000I147500J0D01*
G01*
X-13083500Y-13396000D01*
G75*
G02*
X-12936000Y-13543500I0J-147500D01*
G01*
X-12936000Y-13888500D01*
G75*
G02*
X-13083500Y-14036000I-147500J0D01*
G01*
X-13378500Y-14036000D01*
G75*
G02*
X-13526000Y-13888500I0J147500D01*
G01*
G37*
G36*
G01*
X-14496000Y-13888500D02*
X-14496000Y-13543500D01*
G75*
G02*
X-14348500Y-13396000I147500J0D01*
G01*
X-14053500Y-13396000D01*
G75*
G02*
X-13906000Y-13543500I0J-147500D01*
G01*
X-13906000Y-13888500D01*
G75*
G02*
X-14053500Y-14036000I-147500J0D01*
G01*
X-14348500Y-14036000D01*
G75*
G02*
X-14496000Y-13888500I0J147500D01*
G01*
G37*
G36*
G01*
X-3130000Y-15222500D02*
X-3130000Y-14877500D01*
G75*
G02*
X-2982500Y-14730000I147500J0D01*
G01*
X-2687500Y-14730000D01*
G75*
G02*
X-2540000Y-14877500I0J-147500D01*
G01*
X-2540000Y-15222500D01*
G75*
G02*
X-2687500Y-15370000I-147500J0D01*
G01*
X-2982500Y-15370000D01*
G75*
G02*
X-3130000Y-15222500I0J147500D01*
G01*
G37*
G36*
G01*
X-2160000Y-15222500D02*
X-2160000Y-14877500D01*
G75*
G02*
X-2012500Y-14730000I147500J0D01*
G01*
X-1717500Y-14730000D01*
G75*
G02*
X-1570000Y-14877500I0J-147500D01*
G01*
X-1570000Y-15222500D01*
G75*
G02*
X-1717500Y-15370000I-147500J0D01*
G01*
X-2012500Y-15370000D01*
G75*
G02*
X-2160000Y-15222500I0J147500D01*
G01*
G37*
G36*
G01*
X10330000Y-18227500D02*
X10330000Y-18572500D01*
G75*
G02*
X10182500Y-18720000I-147500J0D01*
G01*
X9887500Y-18720000D01*
G75*
G02*
X9740000Y-18572500I0J147500D01*
G01*
X9740000Y-18227500D01*
G75*
G02*
X9887500Y-18080000I147500J0D01*
G01*
X10182500Y-18080000D01*
G75*
G02*
X10330000Y-18227500I0J-147500D01*
G01*
G37*
G36*
G01*
X9360000Y-18227500D02*
X9360000Y-18572500D01*
G75*
G02*
X9212500Y-18720000I-147500J0D01*
G01*
X8917500Y-18720000D01*
G75*
G02*
X8770000Y-18572500I0J147500D01*
G01*
X8770000Y-18227500D01*
G75*
G02*
X8917500Y-18080000I147500J0D01*
G01*
X9212500Y-18080000D01*
G75*
G02*
X9360000Y-18227500I0J-147500D01*
G01*
G37*
G36*
G01*
X7287500Y6315000D02*
X7632500Y6315000D01*
G75*
G02*
X7780000Y6167500I0J-147500D01*
G01*
X7780000Y5872500D01*
G75*
G02*
X7632500Y5725000I-147500J0D01*
G01*
X7287500Y5725000D01*
G75*
G02*
X7140000Y5872500I0J147500D01*
G01*
X7140000Y6167500D01*
G75*
G02*
X7287500Y6315000I147500J0D01*
G01*
G37*
G36*
G01*
X7287500Y7285000D02*
X7632500Y7285000D01*
G75*
G02*
X7780000Y7137500I0J-147500D01*
G01*
X7780000Y6842500D01*
G75*
G02*
X7632500Y6695000I-147500J0D01*
G01*
X7287500Y6695000D01*
G75*
G02*
X7140000Y6842500I0J147500D01*
G01*
X7140000Y7137500D01*
G75*
G02*
X7287500Y7285000I147500J0D01*
G01*
G37*
G36*
G01*
X8227500Y7280000D02*
X8572500Y7280000D01*
G75*
G02*
X8720000Y7132500I0J-147500D01*
G01*
X8720000Y6837500D01*
G75*
G02*
X8572500Y6690000I-147500J0D01*
G01*
X8227500Y6690000D01*
G75*
G02*
X8080000Y6837500I0J147500D01*
G01*
X8080000Y7132500D01*
G75*
G02*
X8227500Y7280000I147500J0D01*
G01*
G37*
G36*
G01*
X8227500Y6310000D02*
X8572500Y6310000D01*
G75*
G02*
X8720000Y6162500I0J-147500D01*
G01*
X8720000Y5867500D01*
G75*
G02*
X8572500Y5720000I-147500J0D01*
G01*
X8227500Y5720000D01*
G75*
G02*
X8080000Y5867500I0J147500D01*
G01*
X8080000Y6162500D01*
G75*
G02*
X8227500Y6310000I147500J0D01*
G01*
G37*
G36*
G01*
X8680000Y10972500D02*
X8680000Y10627500D01*
G75*
G02*
X8532500Y10480000I-147500J0D01*
G01*
X8237500Y10480000D01*
G75*
G02*
X8090000Y10627500I0J147500D01*
G01*
X8090000Y10972500D01*
G75*
G02*
X8237500Y11120000I147500J0D01*
G01*
X8532500Y11120000D01*
G75*
G02*
X8680000Y10972500I0J-147500D01*
G01*
G37*
G36*
G01*
X7710000Y10972500D02*
X7710000Y10627500D01*
G75*
G02*
X7562500Y10480000I-147500J0D01*
G01*
X7267500Y10480000D01*
G75*
G02*
X7120000Y10627500I0J147500D01*
G01*
X7120000Y10972500D01*
G75*
G02*
X7267500Y11120000I147500J0D01*
G01*
X7562500Y11120000D01*
G75*
G02*
X7710000Y10972500I0J-147500D01*
G01*
G37*
G36*
G01*
X-1220572Y14436620D02*
X-976620Y14680572D01*
G75*
G02*
X-768024Y14680572I104298J-104298D01*
G01*
X-559428Y14471976D01*
G75*
G02*
X-559428Y14263380I-104298J-104298D01*
G01*
X-803380Y14019428D01*
G75*
G02*
X-1011976Y14019428I-104298J104298D01*
G01*
X-1220572Y14228024D01*
G75*
G02*
X-1220572Y14436620I104298J104298D01*
G01*
G37*
G36*
G01*
X-1906466Y15122514D02*
X-1662514Y15366466D01*
G75*
G02*
X-1453918Y15366466I104298J-104298D01*
G01*
X-1245322Y15157870D01*
G75*
G02*
X-1245322Y14949274I-104298J-104298D01*
G01*
X-1489274Y14705322D01*
G75*
G02*
X-1697870Y14705322I-104298J104298D01*
G01*
X-1906466Y14913918D01*
G75*
G02*
X-1906466Y15122514I104298J104298D01*
G01*
G37*
D27*
X-15682000Y-12421000D03*
X-14732000Y-12421000D03*
X-13782000Y-12421000D03*
X-13782000Y-10221000D03*
X-15682000Y-10221000D03*
X-14732000Y-10221000D03*
G36*
G01*
X6795000Y-26855000D02*
X5545000Y-26855000D01*
G75*
G02*
X5295000Y-26605000I0J250000D01*
G01*
X5295000Y-25855000D01*
G75*
G02*
X5545000Y-25605000I250000J0D01*
G01*
X6795000Y-25605000D01*
G75*
G02*
X7045000Y-25855000I0J-250000D01*
G01*
X7045000Y-26605000D01*
G75*
G02*
X6795000Y-26855000I-250000J0D01*
G01*
G37*
G36*
G01*
X6795000Y-29655000D02*
X5545000Y-29655000D01*
G75*
G02*
X5295000Y-29405000I0J250000D01*
G01*
X5295000Y-28655000D01*
G75*
G02*
X5545000Y-28405000I250000J0D01*
G01*
X6795000Y-28405000D01*
G75*
G02*
X7045000Y-28655000I0J-250000D01*
G01*
X7045000Y-29405000D01*
G75*
G02*
X6795000Y-29655000I-250000J0D01*
G01*
G37*
G36*
G01*
X10425000Y-27697500D02*
X10425000Y-28042500D01*
G75*
G02*
X10277500Y-28190000I-147500J0D01*
G01*
X9982500Y-28190000D01*
G75*
G02*
X9835000Y-28042500I0J147500D01*
G01*
X9835000Y-27697500D01*
G75*
G02*
X9982500Y-27550000I147500J0D01*
G01*
X10277500Y-27550000D01*
G75*
G02*
X10425000Y-27697500I0J-147500D01*
G01*
G37*
G36*
G01*
X11395000Y-27697500D02*
X11395000Y-28042500D01*
G75*
G02*
X11247500Y-28190000I-147500J0D01*
G01*
X10952500Y-28190000D01*
G75*
G02*
X10805000Y-28042500I0J147500D01*
G01*
X10805000Y-27697500D01*
G75*
G02*
X10952500Y-27550000I147500J0D01*
G01*
X11247500Y-27550000D01*
G75*
G02*
X11395000Y-27697500I0J-147500D01*
G01*
G37*
G36*
G01*
X-2955000Y-19995000D02*
X-2955000Y-18745000D01*
G75*
G02*
X-2705000Y-18495000I250000J0D01*
G01*
X-1955000Y-18495000D01*
G75*
G02*
X-1705000Y-18745000I0J-250000D01*
G01*
X-1705000Y-19995000D01*
G75*
G02*
X-1955000Y-20245000I-250000J0D01*
G01*
X-2705000Y-20245000D01*
G75*
G02*
X-2955000Y-19995000I0J250000D01*
G01*
G37*
G36*
G01*
X-5755000Y-19995000D02*
X-5755000Y-18745000D01*
G75*
G02*
X-5505000Y-18495000I250000J0D01*
G01*
X-4755000Y-18495000D01*
G75*
G02*
X-4505000Y-18745000I0J-250000D01*
G01*
X-4505000Y-19995000D01*
G75*
G02*
X-4755000Y-20245000I-250000J0D01*
G01*
X-5505000Y-20245000D01*
G75*
G02*
X-5755000Y-19995000I0J250000D01*
G01*
G37*
G36*
G01*
X-5755000Y-22165000D02*
X-5755000Y-20915000D01*
G75*
G02*
X-5505000Y-20665000I250000J0D01*
G01*
X-4755000Y-20665000D01*
G75*
G02*
X-4505000Y-20915000I0J-250000D01*
G01*
X-4505000Y-22165000D01*
G75*
G02*
X-4755000Y-22415000I-250000J0D01*
G01*
X-5505000Y-22415000D01*
G75*
G02*
X-5755000Y-22165000I0J250000D01*
G01*
G37*
G36*
G01*
X-2955000Y-22165000D02*
X-2955000Y-20915000D01*
G75*
G02*
X-2705000Y-20665000I250000J0D01*
G01*
X-1955000Y-20665000D01*
G75*
G02*
X-1705000Y-20915000I0J-250000D01*
G01*
X-1705000Y-22165000D01*
G75*
G02*
X-1955000Y-22415000I-250000J0D01*
G01*
X-2705000Y-22415000D01*
G75*
G02*
X-2955000Y-22165000I0J250000D01*
G01*
G37*
G36*
G01*
X-3855000Y-2877500D02*
X-3855000Y-3222500D01*
G75*
G02*
X-4002500Y-3370000I-147500J0D01*
G01*
X-4297500Y-3370000D01*
G75*
G02*
X-4445000Y-3222500I0J147500D01*
G01*
X-4445000Y-2877500D01*
G75*
G02*
X-4297500Y-2730000I147500J0D01*
G01*
X-4002500Y-2730000D01*
G75*
G02*
X-3855000Y-2877500I0J-147500D01*
G01*
G37*
G36*
G01*
X-4825000Y-2877500D02*
X-4825000Y-3222500D01*
G75*
G02*
X-4972500Y-3370000I-147500J0D01*
G01*
X-5267500Y-3370000D01*
G75*
G02*
X-5415000Y-3222500I0J147500D01*
G01*
X-5415000Y-2877500D01*
G75*
G02*
X-5267500Y-2730000I147500J0D01*
G01*
X-4972500Y-2730000D01*
G75*
G02*
X-4825000Y-2877500I0J-147500D01*
G01*
G37*
G36*
G01*
X7020000Y-24255000D02*
X7020000Y-22205000D01*
G75*
G02*
X7270000Y-21955000I250000J0D01*
G01*
X8370000Y-21955000D01*
G75*
G02*
X8620000Y-22205000I0J-250000D01*
G01*
X8620000Y-24255000D01*
G75*
G02*
X8370000Y-24505000I-250000J0D01*
G01*
X7270000Y-24505000D01*
G75*
G02*
X7020000Y-24255000I0J250000D01*
G01*
G37*
G36*
G01*
X4170000Y-24255000D02*
X4170000Y-22205000D01*
G75*
G02*
X4420000Y-21955000I250000J0D01*
G01*
X5520000Y-21955000D01*
G75*
G02*
X5770000Y-22205000I0J-250000D01*
G01*
X5770000Y-24255000D01*
G75*
G02*
X5520000Y-24505000I-250000J0D01*
G01*
X4420000Y-24505000D01*
G75*
G02*
X4170000Y-24255000I0J250000D01*
G01*
G37*
G36*
G01*
X10795000Y-26942500D02*
X10795000Y-26597500D01*
G75*
G02*
X10942500Y-26450000I147500J0D01*
G01*
X11237500Y-26450000D01*
G75*
G02*
X11385000Y-26597500I0J-147500D01*
G01*
X11385000Y-26942500D01*
G75*
G02*
X11237500Y-27090000I-147500J0D01*
G01*
X10942500Y-27090000D01*
G75*
G02*
X10795000Y-26942500I0J147500D01*
G01*
G37*
G36*
G01*
X9825000Y-26942500D02*
X9825000Y-26597500D01*
G75*
G02*
X9972500Y-26450000I147500J0D01*
G01*
X10267500Y-26450000D01*
G75*
G02*
X10415000Y-26597500I0J-147500D01*
G01*
X10415000Y-26942500D01*
G75*
G02*
X10267500Y-27090000I-147500J0D01*
G01*
X9972500Y-27090000D01*
G75*
G02*
X9825000Y-26942500I0J147500D01*
G01*
G37*
G36*
G01*
X-6190000Y-25577500D02*
X-6190000Y-25922500D01*
G75*
G02*
X-6337500Y-26070000I-147500J0D01*
G01*
X-6632500Y-26070000D01*
G75*
G02*
X-6780000Y-25922500I0J147500D01*
G01*
X-6780000Y-25577500D01*
G75*
G02*
X-6632500Y-25430000I147500J0D01*
G01*
X-6337500Y-25430000D01*
G75*
G02*
X-6190000Y-25577500I0J-147500D01*
G01*
G37*
G36*
G01*
X-5220000Y-25577500D02*
X-5220000Y-25922500D01*
G75*
G02*
X-5367500Y-26070000I-147500J0D01*
G01*
X-5662500Y-26070000D01*
G75*
G02*
X-5810000Y-25922500I0J147500D01*
G01*
X-5810000Y-25577500D01*
G75*
G02*
X-5662500Y-25430000I147500J0D01*
G01*
X-5367500Y-25430000D01*
G75*
G02*
X-5220000Y-25577500I0J-147500D01*
G01*
G37*
G36*
G01*
X-5220000Y-24077500D02*
X-5220000Y-24422500D01*
G75*
G02*
X-5367500Y-24570000I-147500J0D01*
G01*
X-5662500Y-24570000D01*
G75*
G02*
X-5810000Y-24422500I0J147500D01*
G01*
X-5810000Y-24077500D01*
G75*
G02*
X-5662500Y-23930000I147500J0D01*
G01*
X-5367500Y-23930000D01*
G75*
G02*
X-5220000Y-24077500I0J-147500D01*
G01*
G37*
G36*
G01*
X-6190000Y-24077500D02*
X-6190000Y-24422500D01*
G75*
G02*
X-6337500Y-24570000I-147500J0D01*
G01*
X-6632500Y-24570000D01*
G75*
G02*
X-6780000Y-24422500I0J147500D01*
G01*
X-6780000Y-24077500D01*
G75*
G02*
X-6632500Y-23930000I147500J0D01*
G01*
X-6337500Y-23930000D01*
G75*
G02*
X-6190000Y-24077500I0J-147500D01*
G01*
G37*
G36*
G01*
X2200800Y-10103800D02*
X2700800Y-10103800D01*
G75*
G02*
X2925800Y-10328800I0J-225000D01*
G01*
X2925800Y-10778800D01*
G75*
G02*
X2700800Y-11003800I-225000J0D01*
G01*
X2200800Y-11003800D01*
G75*
G02*
X1975800Y-10778800I0J225000D01*
G01*
X1975800Y-10328800D01*
G75*
G02*
X2200800Y-10103800I225000J0D01*
G01*
G37*
G36*
G01*
X2200800Y-8553800D02*
X2700800Y-8553800D01*
G75*
G02*
X2925800Y-8778800I0J-225000D01*
G01*
X2925800Y-9228800D01*
G75*
G02*
X2700800Y-9453800I-225000J0D01*
G01*
X2200800Y-9453800D01*
G75*
G02*
X1975800Y-9228800I0J225000D01*
G01*
X1975800Y-8778800D01*
G75*
G02*
X2200800Y-8553800I225000J0D01*
G01*
G37*
G36*
G01*
X-7310000Y-5810000D02*
X-6970000Y-5810000D01*
G75*
G02*
X-6830000Y-5950000I0J-140000D01*
G01*
X-6830000Y-6230000D01*
G75*
G02*
X-6970000Y-6370000I-140000J0D01*
G01*
X-7310000Y-6370000D01*
G75*
G02*
X-7450000Y-6230000I0J140000D01*
G01*
X-7450000Y-5950000D01*
G75*
G02*
X-7310000Y-5810000I140000J0D01*
G01*
G37*
G36*
G01*
X-7310000Y-6770000D02*
X-6970000Y-6770000D01*
G75*
G02*
X-6830000Y-6910000I0J-140000D01*
G01*
X-6830000Y-7190000D01*
G75*
G02*
X-6970000Y-7330000I-140000J0D01*
G01*
X-7310000Y-7330000D01*
G75*
G02*
X-7450000Y-7190000I0J140000D01*
G01*
X-7450000Y-6910000D01*
G75*
G02*
X-7310000Y-6770000I140000J0D01*
G01*
G37*
G36*
G01*
X-1989000Y4391000D02*
X-1989000Y4051000D01*
G75*
G02*
X-2129000Y3911000I-140000J0D01*
G01*
X-2409000Y3911000D01*
G75*
G02*
X-2549000Y4051000I0J140000D01*
G01*
X-2549000Y4391000D01*
G75*
G02*
X-2409000Y4531000I140000J0D01*
G01*
X-2129000Y4531000D01*
G75*
G02*
X-1989000Y4391000I0J-140000D01*
G01*
G37*
G36*
G01*
X-1029000Y4391000D02*
X-1029000Y4051000D01*
G75*
G02*
X-1169000Y3911000I-140000J0D01*
G01*
X-1449000Y3911000D01*
G75*
G02*
X-1589000Y4051000I0J140000D01*
G01*
X-1589000Y4391000D01*
G75*
G02*
X-1449000Y4531000I140000J0D01*
G01*
X-1169000Y4531000D01*
G75*
G02*
X-1029000Y4391000I0J-140000D01*
G01*
G37*
G36*
G01*
X7375000Y-10550000D02*
X7375000Y-11050000D01*
G75*
G02*
X7150000Y-11275000I-225000J0D01*
G01*
X6700000Y-11275000D01*
G75*
G02*
X6475000Y-11050000I0J225000D01*
G01*
X6475000Y-10550000D01*
G75*
G02*
X6700000Y-10325000I225000J0D01*
G01*
X7150000Y-10325000D01*
G75*
G02*
X7375000Y-10550000I0J-225000D01*
G01*
G37*
G36*
G01*
X8925000Y-10550000D02*
X8925000Y-11050000D01*
G75*
G02*
X8700000Y-11275000I-225000J0D01*
G01*
X8250000Y-11275000D01*
G75*
G02*
X8025000Y-11050000I0J225000D01*
G01*
X8025000Y-10550000D01*
G75*
G02*
X8250000Y-10325000I225000J0D01*
G01*
X8700000Y-10325000D01*
G75*
G02*
X8925000Y-10550000I0J-225000D01*
G01*
G37*
G36*
G01*
X3553266Y6433305D02*
X3893266Y6433305D01*
G75*
G02*
X4033266Y6293305I0J-140000D01*
G01*
X4033266Y6013305D01*
G75*
G02*
X3893266Y5873305I-140000J0D01*
G01*
X3553266Y5873305D01*
G75*
G02*
X3413266Y6013305I0J140000D01*
G01*
X3413266Y6293305D01*
G75*
G02*
X3553266Y6433305I140000J0D01*
G01*
G37*
G36*
G01*
X3553266Y5473305D02*
X3893266Y5473305D01*
G75*
G02*
X4033266Y5333305I0J-140000D01*
G01*
X4033266Y5053305D01*
G75*
G02*
X3893266Y4913305I-140000J0D01*
G01*
X3553266Y4913305D01*
G75*
G02*
X3413266Y5053305I0J140000D01*
G01*
X3413266Y5333305D01*
G75*
G02*
X3553266Y5473305I140000J0D01*
G01*
G37*
G36*
G01*
X4858467Y4913305D02*
X4518467Y4913305D01*
G75*
G02*
X4378467Y5053305I0J140000D01*
G01*
X4378467Y5333305D01*
G75*
G02*
X4518467Y5473305I140000J0D01*
G01*
X4858467Y5473305D01*
G75*
G02*
X4998467Y5333305I0J-140000D01*
G01*
X4998467Y5053305D01*
G75*
G02*
X4858467Y4913305I-140000J0D01*
G01*
G37*
G36*
G01*
X4858467Y5873305D02*
X4518467Y5873305D01*
G75*
G02*
X4378467Y6013305I0J140000D01*
G01*
X4378467Y6293305D01*
G75*
G02*
X4518467Y6433305I140000J0D01*
G01*
X4858467Y6433305D01*
G75*
G02*
X4998467Y6293305I0J-140000D01*
G01*
X4998467Y6013305D01*
G75*
G02*
X4858467Y5873305I-140000J0D01*
G01*
G37*
D28*
X8220000Y-28980000D03*
X8220000Y-26880000D03*
D29*
X12468000Y16612000D03*
X12468000Y15772000D03*
D30*
X-14075000Y12925000D03*
D31*
X-12550000Y14400000D03*
D30*
X-14075000Y15875000D03*
G36*
G01*
X2572500Y4890000D02*
X2227500Y4890000D01*
G75*
G02*
X2080000Y5037500I0J147500D01*
G01*
X2080000Y5332500D01*
G75*
G02*
X2227500Y5480000I147500J0D01*
G01*
X2572500Y5480000D01*
G75*
G02*
X2720000Y5332500I0J-147500D01*
G01*
X2720000Y5037500D01*
G75*
G02*
X2572500Y4890000I-147500J0D01*
G01*
G37*
G36*
G01*
X2572500Y3920000D02*
X2227500Y3920000D01*
G75*
G02*
X2080000Y4067500I0J147500D01*
G01*
X2080000Y4362500D01*
G75*
G02*
X2227500Y4510000I147500J0D01*
G01*
X2572500Y4510000D01*
G75*
G02*
X2720000Y4362500I0J-147500D01*
G01*
X2720000Y4067500D01*
G75*
G02*
X2572500Y3920000I-147500J0D01*
G01*
G37*
G36*
G01*
X-7806000Y90000D02*
X-7806000Y-255000D01*
G75*
G02*
X-7953500Y-402500I-147500J0D01*
G01*
X-8248500Y-402500D01*
G75*
G02*
X-8396000Y-255000I0J147500D01*
G01*
X-8396000Y90000D01*
G75*
G02*
X-8248500Y237500I147500J0D01*
G01*
X-7953500Y237500D01*
G75*
G02*
X-7806000Y90000I0J-147500D01*
G01*
G37*
G36*
G01*
X-6836000Y90000D02*
X-6836000Y-255000D01*
G75*
G02*
X-6983500Y-402500I-147500J0D01*
G01*
X-7278500Y-402500D01*
G75*
G02*
X-7426000Y-255000I0J147500D01*
G01*
X-7426000Y90000D01*
G75*
G02*
X-7278500Y237500I147500J0D01*
G01*
X-6983500Y237500D01*
G75*
G02*
X-6836000Y90000I0J-147500D01*
G01*
G37*
D32*
X-3724877Y-10197067D03*
X-5224877Y-10197067D03*
G36*
G01*
X-2600000Y-26750000D02*
X-2600000Y-29250000D01*
G75*
G02*
X-2850000Y-29500000I-250000J0D01*
G01*
X-3950000Y-29500000D01*
G75*
G02*
X-4200000Y-29250000I0J250000D01*
G01*
X-4200000Y-26750000D01*
G75*
G02*
X-3950000Y-26500000I250000J0D01*
G01*
X-2850000Y-26500000D01*
G75*
G02*
X-2600000Y-26750000I0J-250000D01*
G01*
G37*
G36*
G01*
X4200000Y-26750000D02*
X4200000Y-29250000D01*
G75*
G02*
X3950000Y-29500000I-250000J0D01*
G01*
X2850000Y-29500000D01*
G75*
G02*
X2600000Y-29250000I0J250000D01*
G01*
X2600000Y-26750000D01*
G75*
G02*
X2850000Y-26500000I250000J0D01*
G01*
X3950000Y-26500000D01*
G75*
G02*
X4200000Y-26750000I0J-250000D01*
G01*
G37*
G36*
G01*
X-500000Y-23250000D02*
X-500000Y-28250000D01*
G75*
G02*
X-750000Y-28500000I-250000J0D01*
G01*
X-1250000Y-28500000D01*
G75*
G02*
X-1500000Y-28250000I0J250000D01*
G01*
X-1500000Y-23250000D01*
G75*
G02*
X-1250000Y-23000000I250000J0D01*
G01*
X-750000Y-23000000D01*
G75*
G02*
X-500000Y-23250000I0J-250000D01*
G01*
G37*
G36*
G01*
X1500000Y-23250000D02*
X1500000Y-28250000D01*
G75*
G02*
X1250000Y-28500000I-250000J0D01*
G01*
X750000Y-28500000D01*
G75*
G02*
X500000Y-28250000I0J250000D01*
G01*
X500000Y-23250000D01*
G75*
G02*
X750000Y-23000000I250000J0D01*
G01*
X1250000Y-23000000D01*
G75*
G02*
X1500000Y-23250000I0J-250000D01*
G01*
G37*
D33*
X13892000Y13686000D03*
X13892000Y16786000D03*
X16042000Y16786000D03*
X16042000Y13686000D03*
G36*
G01*
X15149999Y-17200000D02*
X16450001Y-17200000D01*
G75*
G02*
X16700000Y-17449999I0J-249999D01*
G01*
X16700000Y-18150001D01*
G75*
G02*
X16450001Y-18400000I-249999J0D01*
G01*
X15149999Y-18400000D01*
G75*
G02*
X14900000Y-18150001I0J249999D01*
G01*
X14900000Y-17449999D01*
G75*
G02*
X15149999Y-17200000I249999J0D01*
G01*
G37*
G36*
G01*
X15149999Y-11600000D02*
X16450001Y-11600000D01*
G75*
G02*
X16700000Y-11849999I0J-249999D01*
G01*
X16700000Y-12550001D01*
G75*
G02*
X16450001Y-12800000I-249999J0D01*
G01*
X15149999Y-12800000D01*
G75*
G02*
X14900000Y-12550001I0J249999D01*
G01*
X14900000Y-11849999D01*
G75*
G02*
X15149999Y-11600000I249999J0D01*
G01*
G37*
G36*
G01*
X12650000Y-16200000D02*
X13900000Y-16200000D01*
G75*
G02*
X14050000Y-16350000I0J-150000D01*
G01*
X14050000Y-16650000D01*
G75*
G02*
X13900000Y-16800000I-150000J0D01*
G01*
X12650000Y-16800000D01*
G75*
G02*
X12500000Y-16650000I0J150000D01*
G01*
X12500000Y-16350000D01*
G75*
G02*
X12650000Y-16200000I150000J0D01*
G01*
G37*
G36*
G01*
X12650000Y-15200000D02*
X13900000Y-15200000D01*
G75*
G02*
X14050000Y-15350000I0J-150000D01*
G01*
X14050000Y-15650000D01*
G75*
G02*
X13900000Y-15800000I-150000J0D01*
G01*
X12650000Y-15800000D01*
G75*
G02*
X12500000Y-15650000I0J150000D01*
G01*
X12500000Y-15350000D01*
G75*
G02*
X12650000Y-15200000I150000J0D01*
G01*
G37*
G36*
G01*
X12650000Y-14200000D02*
X13900000Y-14200000D01*
G75*
G02*
X14050000Y-14350000I0J-150000D01*
G01*
X14050000Y-14650000D01*
G75*
G02*
X13900000Y-14800000I-150000J0D01*
G01*
X12650000Y-14800000D01*
G75*
G02*
X12500000Y-14650000I0J150000D01*
G01*
X12500000Y-14350000D01*
G75*
G02*
X12650000Y-14200000I150000J0D01*
G01*
G37*
G36*
G01*
X12650000Y-13200000D02*
X13900000Y-13200000D01*
G75*
G02*
X14050000Y-13350000I0J-150000D01*
G01*
X14050000Y-13650000D01*
G75*
G02*
X13900000Y-13800000I-150000J0D01*
G01*
X12650000Y-13800000D01*
G75*
G02*
X12500000Y-13650000I0J150000D01*
G01*
X12500000Y-13350000D01*
G75*
G02*
X12650000Y-13200000I150000J0D01*
G01*
G37*
G36*
G01*
X-830520Y14671109D02*
X-568891Y14409480D01*
G75*
G02*
X-568891Y14218562I-95459J-95459D01*
G01*
X-759810Y14027643D01*
G75*
G02*
X-950728Y14027643I-95459J95459D01*
G01*
X-1212357Y14289272D01*
G75*
G02*
X-1212357Y14480190I95459J95459D01*
G01*
X-1021438Y14671109D01*
G75*
G02*
X-830520Y14671109I95459J-95459D01*
G01*
G37*
G36*
G01*
X-109272Y15392357D02*
X152357Y15130728D01*
G75*
G02*
X152357Y14939810I-95459J-95459D01*
G01*
X-38562Y14748891D01*
G75*
G02*
X-229480Y14748891I-95459J95459D01*
G01*
X-491109Y15010520D01*
G75*
G02*
X-491109Y15201438I95459J95459D01*
G01*
X-300190Y15392357D01*
G75*
G02*
X-109272Y15392357I95459J-95459D01*
G01*
G37*
G36*
G01*
X6670000Y14345000D02*
X6330000Y14345000D01*
G75*
G02*
X6190000Y14485000I0J140000D01*
G01*
X6190000Y14765000D01*
G75*
G02*
X6330000Y14905000I140000J0D01*
G01*
X6670000Y14905000D01*
G75*
G02*
X6810000Y14765000I0J-140000D01*
G01*
X6810000Y14485000D01*
G75*
G02*
X6670000Y14345000I-140000J0D01*
G01*
G37*
G36*
G01*
X6670000Y15305000D02*
X6330000Y15305000D01*
G75*
G02*
X6190000Y15445000I0J140000D01*
G01*
X6190000Y15725000D01*
G75*
G02*
X6330000Y15865000I140000J0D01*
G01*
X6670000Y15865000D01*
G75*
G02*
X6810000Y15725000I0J-140000D01*
G01*
X6810000Y15445000D01*
G75*
G02*
X6670000Y15305000I-140000J0D01*
G01*
G37*
G36*
G01*
X7572500Y18095000D02*
X7227500Y18095000D01*
G75*
G02*
X7080000Y18242500I0J147500D01*
G01*
X7080000Y18537500D01*
G75*
G02*
X7227500Y18685000I147500J0D01*
G01*
X7572500Y18685000D01*
G75*
G02*
X7720000Y18537500I0J-147500D01*
G01*
X7720000Y18242500D01*
G75*
G02*
X7572500Y18095000I-147500J0D01*
G01*
G37*
G36*
G01*
X7572500Y19065000D02*
X7227500Y19065000D01*
G75*
G02*
X7080000Y19212500I0J147500D01*
G01*
X7080000Y19507500D01*
G75*
G02*
X7227500Y19655000I147500J0D01*
G01*
X7572500Y19655000D01*
G75*
G02*
X7720000Y19507500I0J-147500D01*
G01*
X7720000Y19212500D01*
G75*
G02*
X7572500Y19065000I-147500J0D01*
G01*
G37*
G36*
G01*
X7700000Y17652500D02*
X7700000Y17307500D01*
G75*
G02*
X7552500Y17160000I-147500J0D01*
G01*
X7257500Y17160000D01*
G75*
G02*
X7110000Y17307500I0J147500D01*
G01*
X7110000Y17652500D01*
G75*
G02*
X7257500Y17800000I147500J0D01*
G01*
X7552500Y17800000D01*
G75*
G02*
X7700000Y17652500I0J-147500D01*
G01*
G37*
G36*
G01*
X8670000Y17652500D02*
X8670000Y17307500D01*
G75*
G02*
X8522500Y17160000I-147500J0D01*
G01*
X8227500Y17160000D01*
G75*
G02*
X8080000Y17307500I0J147500D01*
G01*
X8080000Y17652500D01*
G75*
G02*
X8227500Y17800000I147500J0D01*
G01*
X8522500Y17800000D01*
G75*
G02*
X8670000Y17652500I0J-147500D01*
G01*
G37*
G36*
G01*
X7562500Y15305000D02*
X7217500Y15305000D01*
G75*
G02*
X7070000Y15452500I0J147500D01*
G01*
X7070000Y15747500D01*
G75*
G02*
X7217500Y15895000I147500J0D01*
G01*
X7562500Y15895000D01*
G75*
G02*
X7710000Y15747500I0J-147500D01*
G01*
X7710000Y15452500D01*
G75*
G02*
X7562500Y15305000I-147500J0D01*
G01*
G37*
G36*
G01*
X7562500Y16275000D02*
X7217500Y16275000D01*
G75*
G02*
X7070000Y16422500I0J147500D01*
G01*
X7070000Y16717500D01*
G75*
G02*
X7217500Y16865000I147500J0D01*
G01*
X7562500Y16865000D01*
G75*
G02*
X7710000Y16717500I0J-147500D01*
G01*
X7710000Y16422500D01*
G75*
G02*
X7562500Y16275000I-147500J0D01*
G01*
G37*
M02*
