G04 #@! TF.GenerationSoftware,KiCad,Pcbnew,(5.1.7)-1*
G04 #@! TF.CreationDate,2021-07-01T14:18:12+04:00*
G04 #@! TF.ProjectId,pcb-stm32wl,7063622d-7374-46d3-9332-776c2e6b6963,1.1*
G04 #@! TF.SameCoordinates,PX8f0d180PY6422c40*
G04 #@! TF.FileFunction,Paste,Bot*
G04 #@! TF.FilePolarity,Positive*
%FSLAX46Y46*%
G04 Gerber Fmt 4.6, Leading zero omitted, Abs format (unit mm)*
G04 Created by KiCad (PCBNEW (5.1.7)-1) date 2021-07-01 14:18:12*
%MOMM*%
%LPD*%
G01*
G04 APERTURE LIST*
%ADD10R,0.375000X0.350000*%
%ADD11R,0.350000X0.375000*%
%ADD12R,0.750000X0.300000*%
%ADD13R,0.500000X0.600000*%
%ADD14R,0.300000X1.700000*%
%ADD15R,0.600000X0.270000*%
%ADD16R,0.800000X1.000000*%
%ADD17R,0.250000X0.360000*%
G04 APERTURE END LIST*
D10*
X-754500Y-13288803D03*
X-754500Y-13788803D03*
X770500Y-13788803D03*
X770500Y-13288803D03*
D11*
X-742000Y-14301303D03*
X-742000Y-12776303D03*
X758000Y-14301303D03*
X758000Y-12776303D03*
X258000Y-14301303D03*
X-242000Y-14301303D03*
X258000Y-12776303D03*
X-242000Y-12776303D03*
D12*
X-11750000Y-14238803D03*
X-11750000Y-13738803D03*
X-11750000Y-13238803D03*
X-11750000Y-12738803D03*
X-8850000Y-12738803D03*
X-8850000Y-13238803D03*
X-8850000Y-13738803D03*
X-8850000Y-14238803D03*
D13*
X-10625000Y-13863803D03*
X-10625000Y-13113803D03*
X-9975000Y-13863803D03*
X-9975000Y-13113803D03*
G36*
G01*
X275400Y-26437900D02*
X275400Y-27587900D01*
G75*
G02*
X150400Y-27712900I-125000J0D01*
G01*
X-99600Y-27712900D01*
G75*
G02*
X-224600Y-27587900I0J125000D01*
G01*
X-224600Y-26437900D01*
G75*
G02*
X-99600Y-26312900I125000J0D01*
G01*
X150400Y-26312900D01*
G75*
G02*
X275400Y-26437900I0J-125000D01*
G01*
G37*
G36*
G01*
X-1174600Y-26600400D02*
X-1174600Y-26425400D01*
G75*
G02*
X-1087100Y-26337900I87500J0D01*
G01*
X-712100Y-26337900D01*
G75*
G02*
X-624600Y-26425400I0J-87500D01*
G01*
X-624600Y-26600400D01*
G75*
G02*
X-712100Y-26687900I-87500J0D01*
G01*
X-1087100Y-26687900D01*
G75*
G02*
X-1174600Y-26600400I0J87500D01*
G01*
G37*
G36*
G01*
X-1174600Y-27600400D02*
X-1174600Y-27425400D01*
G75*
G02*
X-1087100Y-27337900I87500J0D01*
G01*
X-712100Y-27337900D01*
G75*
G02*
X-624600Y-27425400I0J-87500D01*
G01*
X-624600Y-27600400D01*
G75*
G02*
X-712100Y-27687900I-87500J0D01*
G01*
X-1087100Y-27687900D01*
G75*
G02*
X-1174600Y-27600400I0J87500D01*
G01*
G37*
G36*
G01*
X1225400Y-27425400D02*
X1225400Y-27600400D01*
G75*
G02*
X1137900Y-27687900I-87500J0D01*
G01*
X762900Y-27687900D01*
G75*
G02*
X675400Y-27600400I0J87500D01*
G01*
X675400Y-27425400D01*
G75*
G02*
X762900Y-27337900I87500J0D01*
G01*
X1137900Y-27337900D01*
G75*
G02*
X1225400Y-27425400I0J-87500D01*
G01*
G37*
G36*
G01*
X1225400Y-26425400D02*
X1225400Y-26600400D01*
G75*
G02*
X1137900Y-26687900I-87500J0D01*
G01*
X762900Y-26687900D01*
G75*
G02*
X675400Y-26600400I0J87500D01*
G01*
X675400Y-26425400D01*
G75*
G02*
X762900Y-26337900I87500J0D01*
G01*
X1137900Y-26337900D01*
G75*
G02*
X1225400Y-26425400I0J-87500D01*
G01*
G37*
D14*
X9512000Y-13527000D03*
D15*
X10812000Y-14277000D03*
X10812000Y-13777000D03*
X10812000Y-13277000D03*
X10812000Y-12777000D03*
X8212000Y-12777000D03*
X8212000Y-13277000D03*
X8212000Y-13777000D03*
X8212000Y-14277000D03*
G36*
G01*
X-7680000Y-3245000D02*
X-8050000Y-3245000D01*
G75*
G02*
X-8185000Y-3110000I0J135000D01*
G01*
X-8185000Y-2840000D01*
G75*
G02*
X-8050000Y-2705000I135000J0D01*
G01*
X-7680000Y-2705000D01*
G75*
G02*
X-7545000Y-2840000I0J-135000D01*
G01*
X-7545000Y-3110000D01*
G75*
G02*
X-7680000Y-3245000I-135000J0D01*
G01*
G37*
G36*
G01*
X-7680000Y-2225000D02*
X-8050000Y-2225000D01*
G75*
G02*
X-8185000Y-2090000I0J135000D01*
G01*
X-8185000Y-1820000D01*
G75*
G02*
X-8050000Y-1685000I135000J0D01*
G01*
X-7680000Y-1685000D01*
G75*
G02*
X-7545000Y-1820000I0J-135000D01*
G01*
X-7545000Y-2090000D01*
G75*
G02*
X-7680000Y-2225000I-135000J0D01*
G01*
G37*
G36*
G01*
X1874000Y-15201000D02*
X1874000Y-15541000D01*
G75*
G02*
X1734000Y-15681000I-140000J0D01*
G01*
X1454000Y-15681000D01*
G75*
G02*
X1314000Y-15541000I0J140000D01*
G01*
X1314000Y-15201000D01*
G75*
G02*
X1454000Y-15061000I140000J0D01*
G01*
X1734000Y-15061000D01*
G75*
G02*
X1874000Y-15201000I0J-140000D01*
G01*
G37*
G36*
G01*
X914000Y-15201000D02*
X914000Y-15541000D01*
G75*
G02*
X774000Y-15681000I-140000J0D01*
G01*
X494000Y-15681000D01*
G75*
G02*
X354000Y-15541000I0J140000D01*
G01*
X354000Y-15201000D01*
G75*
G02*
X494000Y-15061000I140000J0D01*
G01*
X774000Y-15061000D01*
G75*
G02*
X914000Y-15201000I0J-140000D01*
G01*
G37*
G36*
G01*
X-280000Y-17605000D02*
X-780000Y-17605000D01*
G75*
G02*
X-1005000Y-17380000I0J225000D01*
G01*
X-1005000Y-16930000D01*
G75*
G02*
X-780000Y-16705000I225000J0D01*
G01*
X-280000Y-16705000D01*
G75*
G02*
X-55000Y-16930000I0J-225000D01*
G01*
X-55000Y-17380000D01*
G75*
G02*
X-280000Y-17605000I-225000J0D01*
G01*
G37*
G36*
G01*
X-280000Y-16055000D02*
X-780000Y-16055000D01*
G75*
G02*
X-1005000Y-15830000I0J225000D01*
G01*
X-1005000Y-15380000D01*
G75*
G02*
X-780000Y-15155000I225000J0D01*
G01*
X-280000Y-15155000D01*
G75*
G02*
X-55000Y-15380000I0J-225000D01*
G01*
X-55000Y-15830000D01*
G75*
G02*
X-280000Y-16055000I-225000J0D01*
G01*
G37*
G36*
G01*
X12320000Y-14157500D02*
X12320000Y-14502500D01*
G75*
G02*
X12172500Y-14650000I-147500J0D01*
G01*
X11877500Y-14650000D01*
G75*
G02*
X11730000Y-14502500I0J147500D01*
G01*
X11730000Y-14157500D01*
G75*
G02*
X11877500Y-14010000I147500J0D01*
G01*
X12172500Y-14010000D01*
G75*
G02*
X12320000Y-14157500I0J-147500D01*
G01*
G37*
G36*
G01*
X13290000Y-14157500D02*
X13290000Y-14502500D01*
G75*
G02*
X13142500Y-14650000I-147500J0D01*
G01*
X12847500Y-14650000D01*
G75*
G02*
X12700000Y-14502500I0J147500D01*
G01*
X12700000Y-14157500D01*
G75*
G02*
X12847500Y-14010000I147500J0D01*
G01*
X13142500Y-14010000D01*
G75*
G02*
X13290000Y-14157500I0J-147500D01*
G01*
G37*
G36*
G01*
X-2267500Y-13749000D02*
X-1922500Y-13749000D01*
G75*
G02*
X-1775000Y-13896500I0J-147500D01*
G01*
X-1775000Y-14191500D01*
G75*
G02*
X-1922500Y-14339000I-147500J0D01*
G01*
X-2267500Y-14339000D01*
G75*
G02*
X-2415000Y-14191500I0J147500D01*
G01*
X-2415000Y-13896500D01*
G75*
G02*
X-2267500Y-13749000I147500J0D01*
G01*
G37*
G36*
G01*
X-2267500Y-12779000D02*
X-1922500Y-12779000D01*
G75*
G02*
X-1775000Y-12926500I0J-147500D01*
G01*
X-1775000Y-13221500D01*
G75*
G02*
X-1922500Y-13369000I-147500J0D01*
G01*
X-2267500Y-13369000D01*
G75*
G02*
X-2415000Y-13221500I0J147500D01*
G01*
X-2415000Y-12926500D01*
G75*
G02*
X-2267500Y-12779000I147500J0D01*
G01*
G37*
G36*
G01*
X1780500Y-25229000D02*
X2125500Y-25229000D01*
G75*
G02*
X2273000Y-25376500I0J-147500D01*
G01*
X2273000Y-25671500D01*
G75*
G02*
X2125500Y-25819000I-147500J0D01*
G01*
X1780500Y-25819000D01*
G75*
G02*
X1633000Y-25671500I0J147500D01*
G01*
X1633000Y-25376500D01*
G75*
G02*
X1780500Y-25229000I147500J0D01*
G01*
G37*
G36*
G01*
X1780500Y-26199000D02*
X2125500Y-26199000D01*
G75*
G02*
X2273000Y-26346500I0J-147500D01*
G01*
X2273000Y-26641500D01*
G75*
G02*
X2125500Y-26789000I-147500J0D01*
G01*
X1780500Y-26789000D01*
G75*
G02*
X1633000Y-26641500I0J147500D01*
G01*
X1633000Y-26346500D01*
G75*
G02*
X1780500Y-26199000I147500J0D01*
G01*
G37*
G36*
G01*
X-7347500Y-15730000D02*
X-7692500Y-15730000D01*
G75*
G02*
X-7840000Y-15582500I0J147500D01*
G01*
X-7840000Y-15287500D01*
G75*
G02*
X-7692500Y-15140000I147500J0D01*
G01*
X-7347500Y-15140000D01*
G75*
G02*
X-7200000Y-15287500I0J-147500D01*
G01*
X-7200000Y-15582500D01*
G75*
G02*
X-7347500Y-15730000I-147500J0D01*
G01*
G37*
G36*
G01*
X-7347500Y-14760000D02*
X-7692500Y-14760000D01*
G75*
G02*
X-7840000Y-14612500I0J147500D01*
G01*
X-7840000Y-14317500D01*
G75*
G02*
X-7692500Y-14170000I147500J0D01*
G01*
X-7347500Y-14170000D01*
G75*
G02*
X-7200000Y-14317500I0J-147500D01*
G01*
X-7200000Y-14612500D01*
G75*
G02*
X-7347500Y-14760000I-147500J0D01*
G01*
G37*
G36*
G01*
X10522500Y-6230000D02*
X10177500Y-6230000D01*
G75*
G02*
X10030000Y-6082500I0J147500D01*
G01*
X10030000Y-5787500D01*
G75*
G02*
X10177500Y-5640000I147500J0D01*
G01*
X10522500Y-5640000D01*
G75*
G02*
X10670000Y-5787500I0J-147500D01*
G01*
X10670000Y-6082500D01*
G75*
G02*
X10522500Y-6230000I-147500J0D01*
G01*
G37*
G36*
G01*
X10522500Y-5260000D02*
X10177500Y-5260000D01*
G75*
G02*
X10030000Y-5112500I0J147500D01*
G01*
X10030000Y-4817500D01*
G75*
G02*
X10177500Y-4670000I147500J0D01*
G01*
X10522500Y-4670000D01*
G75*
G02*
X10670000Y-4817500I0J-147500D01*
G01*
X10670000Y-5112500D01*
G75*
G02*
X10522500Y-5260000I-147500J0D01*
G01*
G37*
G36*
G01*
X13294000Y-13196500D02*
X13294000Y-13541500D01*
G75*
G02*
X13146500Y-13689000I-147500J0D01*
G01*
X12851500Y-13689000D01*
G75*
G02*
X12704000Y-13541500I0J147500D01*
G01*
X12704000Y-13196500D01*
G75*
G02*
X12851500Y-13049000I147500J0D01*
G01*
X13146500Y-13049000D01*
G75*
G02*
X13294000Y-13196500I0J-147500D01*
G01*
G37*
G36*
G01*
X12324000Y-13196500D02*
X12324000Y-13541500D01*
G75*
G02*
X12176500Y-13689000I-147500J0D01*
G01*
X11881500Y-13689000D01*
G75*
G02*
X11734000Y-13541500I0J147500D01*
G01*
X11734000Y-13196500D01*
G75*
G02*
X11881500Y-13049000I147500J0D01*
G01*
X12176500Y-13049000D01*
G75*
G02*
X12324000Y-13196500I0J-147500D01*
G01*
G37*
G36*
G01*
X12781500Y-1808000D02*
X13126500Y-1808000D01*
G75*
G02*
X13274000Y-1955500I0J-147500D01*
G01*
X13274000Y-2250500D01*
G75*
G02*
X13126500Y-2398000I-147500J0D01*
G01*
X12781500Y-2398000D01*
G75*
G02*
X12634000Y-2250500I0J147500D01*
G01*
X12634000Y-1955500D01*
G75*
G02*
X12781500Y-1808000I147500J0D01*
G01*
G37*
G36*
G01*
X12781500Y-2778000D02*
X13126500Y-2778000D01*
G75*
G02*
X13274000Y-2925500I0J-147500D01*
G01*
X13274000Y-3220500D01*
G75*
G02*
X13126500Y-3368000I-147500J0D01*
G01*
X12781500Y-3368000D01*
G75*
G02*
X12634000Y-3220500I0J147500D01*
G01*
X12634000Y-2925500D01*
G75*
G02*
X12781500Y-2778000I147500J0D01*
G01*
G37*
G36*
G01*
X13280000Y-12227500D02*
X13280000Y-12572500D01*
G75*
G02*
X13132500Y-12720000I-147500J0D01*
G01*
X12837500Y-12720000D01*
G75*
G02*
X12690000Y-12572500I0J147500D01*
G01*
X12690000Y-12227500D01*
G75*
G02*
X12837500Y-12080000I147500J0D01*
G01*
X13132500Y-12080000D01*
G75*
G02*
X13280000Y-12227500I0J-147500D01*
G01*
G37*
G36*
G01*
X12310000Y-12227500D02*
X12310000Y-12572500D01*
G75*
G02*
X12162500Y-12720000I-147500J0D01*
G01*
X11867500Y-12720000D01*
G75*
G02*
X11720000Y-12572500I0J147500D01*
G01*
X11720000Y-12227500D01*
G75*
G02*
X11867500Y-12080000I147500J0D01*
G01*
X12162500Y-12080000D01*
G75*
G02*
X12310000Y-12227500I0J-147500D01*
G01*
G37*
G36*
G01*
X9810000Y7772500D02*
X9810000Y7427500D01*
G75*
G02*
X9662500Y7280000I-147500J0D01*
G01*
X9367500Y7280000D01*
G75*
G02*
X9220000Y7427500I0J147500D01*
G01*
X9220000Y7772500D01*
G75*
G02*
X9367500Y7920000I147500J0D01*
G01*
X9662500Y7920000D01*
G75*
G02*
X9810000Y7772500I0J-147500D01*
G01*
G37*
G36*
G01*
X10780000Y7772500D02*
X10780000Y7427500D01*
G75*
G02*
X10632500Y7280000I-147500J0D01*
G01*
X10337500Y7280000D01*
G75*
G02*
X10190000Y7427500I0J147500D01*
G01*
X10190000Y7772500D01*
G75*
G02*
X10337500Y7920000I147500J0D01*
G01*
X10632500Y7920000D01*
G75*
G02*
X10780000Y7772500I0J-147500D01*
G01*
G37*
G36*
G01*
X-6676500Y-3245000D02*
X-7021500Y-3245000D01*
G75*
G02*
X-7169000Y-3097500I0J147500D01*
G01*
X-7169000Y-2802500D01*
G75*
G02*
X-7021500Y-2655000I147500J0D01*
G01*
X-6676500Y-2655000D01*
G75*
G02*
X-6529000Y-2802500I0J-147500D01*
G01*
X-6529000Y-3097500D01*
G75*
G02*
X-6676500Y-3245000I-147500J0D01*
G01*
G37*
G36*
G01*
X-6676500Y-2275000D02*
X-7021500Y-2275000D01*
G75*
G02*
X-7169000Y-2127500I0J147500D01*
G01*
X-7169000Y-1832500D01*
G75*
G02*
X-7021500Y-1685000I147500J0D01*
G01*
X-6676500Y-1685000D01*
G75*
G02*
X-6529000Y-1832500I0J-147500D01*
G01*
X-6529000Y-2127500D01*
G75*
G02*
X-6676500Y-2275000I-147500J0D01*
G01*
G37*
D16*
X-6450000Y750000D03*
X-6450000Y-750000D03*
X-7550000Y-750000D03*
X-7550000Y750000D03*
G36*
G01*
X8422500Y-15710000D02*
X8077500Y-15710000D01*
G75*
G02*
X7930000Y-15562500I0J147500D01*
G01*
X7930000Y-15267500D01*
G75*
G02*
X8077500Y-15120000I147500J0D01*
G01*
X8422500Y-15120000D01*
G75*
G02*
X8570000Y-15267500I0J-147500D01*
G01*
X8570000Y-15562500D01*
G75*
G02*
X8422500Y-15710000I-147500J0D01*
G01*
G37*
G36*
G01*
X8422500Y-16680000D02*
X8077500Y-16680000D01*
G75*
G02*
X7930000Y-16532500I0J147500D01*
G01*
X7930000Y-16237500D01*
G75*
G02*
X8077500Y-16090000I147500J0D01*
G01*
X8422500Y-16090000D01*
G75*
G02*
X8570000Y-16237500I0J-147500D01*
G01*
X8570000Y-16532500D01*
G75*
G02*
X8422500Y-16680000I-147500J0D01*
G01*
G37*
G36*
G01*
X12110500Y-2398000D02*
X11765500Y-2398000D01*
G75*
G02*
X11618000Y-2250500I0J147500D01*
G01*
X11618000Y-1955500D01*
G75*
G02*
X11765500Y-1808000I147500J0D01*
G01*
X12110500Y-1808000D01*
G75*
G02*
X12258000Y-1955500I0J-147500D01*
G01*
X12258000Y-2250500D01*
G75*
G02*
X12110500Y-2398000I-147500J0D01*
G01*
G37*
G36*
G01*
X12110500Y-3368000D02*
X11765500Y-3368000D01*
G75*
G02*
X11618000Y-3220500I0J147500D01*
G01*
X11618000Y-2925500D01*
G75*
G02*
X11765500Y-2778000I147500J0D01*
G01*
X12110500Y-2778000D01*
G75*
G02*
X12258000Y-2925500I0J-147500D01*
G01*
X12258000Y-3220500D01*
G75*
G02*
X12110500Y-3368000I-147500J0D01*
G01*
G37*
D17*
X10350000Y-4020000D03*
X10350000Y-3180000D03*
G36*
G01*
X-8065000Y2074000D02*
X-8065000Y2444000D01*
G75*
G02*
X-7930000Y2579000I135000J0D01*
G01*
X-7660000Y2579000D01*
G75*
G02*
X-7525000Y2444000I0J-135000D01*
G01*
X-7525000Y2074000D01*
G75*
G02*
X-7660000Y1939000I-135000J0D01*
G01*
X-7930000Y1939000D01*
G75*
G02*
X-8065000Y2074000I0J135000D01*
G01*
G37*
G36*
G01*
X-7045000Y2074000D02*
X-7045000Y2444000D01*
G75*
G02*
X-6910000Y2579000I135000J0D01*
G01*
X-6640000Y2579000D01*
G75*
G02*
X-6505000Y2444000I0J-135000D01*
G01*
X-6505000Y2074000D01*
G75*
G02*
X-6640000Y1939000I-135000J0D01*
G01*
X-6910000Y1939000D01*
G75*
G02*
X-7045000Y2074000I0J135000D01*
G01*
G37*
G36*
G01*
X4800000Y2950000D02*
X4200000Y2950000D01*
G75*
G02*
X4000000Y3150000I0J200000D01*
G01*
X4000000Y5750000D01*
G75*
G02*
X4200000Y5950000I200000J0D01*
G01*
X4800000Y5950000D01*
G75*
G02*
X5000000Y5750000I0J-200000D01*
G01*
X5000000Y3150000D01*
G75*
G02*
X4800000Y2950000I-200000J0D01*
G01*
G37*
G36*
G01*
X4800000Y-5950000D02*
X4200000Y-5950000D01*
G75*
G02*
X4000000Y-5750000I0J200000D01*
G01*
X4000000Y-3150000D01*
G75*
G02*
X4200000Y-2950000I200000J0D01*
G01*
X4800000Y-2950000D01*
G75*
G02*
X5000000Y-3150000I0J-200000D01*
G01*
X5000000Y-5750000D01*
G75*
G02*
X4800000Y-5950000I-200000J0D01*
G01*
G37*
G36*
G01*
X8800000Y2950000D02*
X8200000Y2950000D01*
G75*
G02*
X8000000Y3150000I0J200000D01*
G01*
X8000000Y5750000D01*
G75*
G02*
X8200000Y5950000I200000J0D01*
G01*
X8800000Y5950000D01*
G75*
G02*
X9000000Y5750000I0J-200000D01*
G01*
X9000000Y3150000D01*
G75*
G02*
X8800000Y2950000I-200000J0D01*
G01*
G37*
G36*
G01*
X8800000Y-5950000D02*
X8200000Y-5950000D01*
G75*
G02*
X8000000Y-5750000I0J200000D01*
G01*
X8000000Y-3150000D01*
G75*
G02*
X8200000Y-2950000I200000J0D01*
G01*
X8800000Y-2950000D01*
G75*
G02*
X9000000Y-3150000I0J-200000D01*
G01*
X9000000Y-5750000D01*
G75*
G02*
X8800000Y-5950000I-200000J0D01*
G01*
G37*
M02*
