G04 #@! TF.GenerationSoftware,KiCad,Pcbnew,(5.1.7)-1*
G04 #@! TF.CreationDate,2021-07-01T14:18:12+04:00*
G04 #@! TF.ProjectId,pcb-stm32wl,7063622d-7374-46d3-9332-776c2e6b6963,1.1*
G04 #@! TF.SameCoordinates,PX8f0d180PY6422c40*
G04 #@! TF.FileFunction,Other,Fab,Bot*
%FSLAX46Y46*%
G04 Gerber Fmt 4.6, Leading zero omitted, Abs format (unit mm)*
G04 Created by KiCad (PCBNEW (5.1.7)-1) date 2021-07-01 14:18:12*
%MOMM*%
%LPD*%
G01*
G04 APERTURE LIST*
%ADD10C,0.100000*%
%ADD11C,0.150000*%
%ADD12C,0.120000*%
G04 APERTURE END LIST*
D10*
X-992000Y-14538803D02*
X1008000Y-14538803D01*
X1008000Y-14538803D02*
X1008000Y-12538803D01*
X1008000Y-12538803D02*
X-492000Y-12538803D01*
X-492000Y-12538803D02*
X-992000Y-13038803D01*
X-992000Y-13038803D02*
X-992000Y-14538803D01*
D11*
X-10800000Y-14488803D02*
X-8800000Y-14488803D01*
X-8800000Y-14488803D02*
X-8800000Y-12488803D01*
X-8800000Y-12488803D02*
X-11800000Y-12488803D01*
X-11800000Y-12488803D02*
X-11800000Y-13488803D01*
X-11800000Y-13488803D02*
X-10800000Y-14488803D01*
D10*
X1025400Y-26512900D02*
X525400Y-26012900D01*
X1025400Y-28012900D02*
X1025400Y-26512900D01*
X-974600Y-28012900D02*
X1025400Y-28012900D01*
X-974600Y-26012900D02*
X-974600Y-28012900D01*
X525400Y-26012900D02*
X-974600Y-26012900D01*
D12*
X8012000Y-14227000D02*
X8012000Y-12527000D01*
X8012000Y-12527000D02*
X11012000Y-12527000D01*
X11012000Y-12527000D02*
X11012000Y-14527000D01*
X11012000Y-14527000D02*
X8212000Y-14527000D01*
X8012000Y-14227000D02*
X8212000Y-14527000D01*
D10*
X-8135000Y-2990000D02*
X-7595000Y-2990000D01*
X-7595000Y-2990000D02*
X-7595000Y-1940000D01*
X-7595000Y-1940000D02*
X-8135000Y-1940000D01*
X-8135000Y-1940000D02*
X-8135000Y-2990000D01*
X1614000Y-15621000D02*
X1614000Y-15121000D01*
X1614000Y-15121000D02*
X614000Y-15121000D01*
X614000Y-15121000D02*
X614000Y-15621000D01*
X614000Y-15621000D02*
X1614000Y-15621000D01*
X-930000Y-17180000D02*
X-130000Y-17180000D01*
X-130000Y-17180000D02*
X-130000Y-15580000D01*
X-130000Y-15580000D02*
X-930000Y-15580000D01*
X-930000Y-15580000D02*
X-930000Y-17180000D01*
X13010000Y-14580000D02*
X13010000Y-14080000D01*
X13010000Y-14080000D02*
X12010000Y-14080000D01*
X12010000Y-14080000D02*
X12010000Y-14580000D01*
X12010000Y-14580000D02*
X13010000Y-14580000D01*
X-1845000Y-13059000D02*
X-2345000Y-13059000D01*
X-2345000Y-13059000D02*
X-2345000Y-14059000D01*
X-2345000Y-14059000D02*
X-1845000Y-14059000D01*
X-1845000Y-14059000D02*
X-1845000Y-13059000D01*
X2203000Y-26509000D02*
X2203000Y-25509000D01*
X1703000Y-26509000D02*
X2203000Y-26509000D01*
X1703000Y-25509000D02*
X1703000Y-26509000D01*
X2203000Y-25509000D02*
X1703000Y-25509000D01*
X-7770000Y-14450000D02*
X-7770000Y-15450000D01*
X-7270000Y-14450000D02*
X-7770000Y-14450000D01*
X-7270000Y-15450000D02*
X-7270000Y-14450000D01*
X-7770000Y-15450000D02*
X-7270000Y-15450000D01*
X10100000Y-4950000D02*
X10100000Y-5950000D01*
X10600000Y-4950000D02*
X10100000Y-4950000D01*
X10600000Y-5950000D02*
X10600000Y-4950000D01*
X10100000Y-5950000D02*
X10600000Y-5950000D01*
X12014000Y-13619000D02*
X13014000Y-13619000D01*
X12014000Y-13119000D02*
X12014000Y-13619000D01*
X13014000Y-13119000D02*
X12014000Y-13119000D01*
X13014000Y-13619000D02*
X13014000Y-13119000D01*
X13204000Y-3088000D02*
X13204000Y-2088000D01*
X12704000Y-3088000D02*
X13204000Y-3088000D01*
X12704000Y-2088000D02*
X12704000Y-3088000D01*
X13204000Y-2088000D02*
X12704000Y-2088000D01*
X12000000Y-12650000D02*
X13000000Y-12650000D01*
X12000000Y-12150000D02*
X12000000Y-12650000D01*
X13000000Y-12150000D02*
X12000000Y-12150000D01*
X13000000Y-12650000D02*
X13000000Y-12150000D01*
X10500000Y7350000D02*
X10500000Y7850000D01*
X10500000Y7850000D02*
X9500000Y7850000D01*
X9500000Y7850000D02*
X9500000Y7350000D01*
X9500000Y7350000D02*
X10500000Y7350000D01*
X-7099000Y-1965000D02*
X-7099000Y-2965000D01*
X-6599000Y-1965000D02*
X-7099000Y-1965000D01*
X-6599000Y-2965000D02*
X-6599000Y-1965000D01*
X-7099000Y-2965000D02*
X-6599000Y-2965000D01*
X-8000000Y-1000000D02*
X-8000000Y1000000D01*
X-6000000Y-1000000D02*
X-8000000Y-1000000D01*
X-6000000Y1000000D02*
X-6000000Y-1000000D01*
X-8000000Y1000000D02*
X-6000000Y1000000D01*
X-8000000Y0D02*
X-7000000Y1000000D01*
X-6200000Y0D02*
G75*
G03*
X-6200000Y0I-800000J0D01*
G01*
X8000000Y-15400000D02*
X8000000Y-16400000D01*
X8500000Y-15400000D02*
X8000000Y-15400000D01*
X8500000Y-16400000D02*
X8500000Y-15400000D01*
X8000000Y-16400000D02*
X8500000Y-16400000D01*
X11688000Y-2088000D02*
X11688000Y-3088000D01*
X12188000Y-2088000D02*
X11688000Y-2088000D01*
X12188000Y-3088000D02*
X12188000Y-2088000D01*
X11688000Y-3088000D02*
X12188000Y-3088000D01*
X10350000Y-3450000D02*
X10350000Y-3350000D01*
X10550000Y-3450000D02*
X10350000Y-3750000D01*
X10150000Y-3450000D02*
X10550000Y-3450000D01*
X10350000Y-3750000D02*
X10150000Y-3450000D01*
X10350000Y-3750000D02*
X10350000Y-3850000D01*
X10150000Y-3750000D02*
X10550000Y-3750000D01*
X10650000Y-3200000D02*
X10050000Y-3200000D01*
X10650000Y-4000000D02*
X10650000Y-3200000D01*
X10050000Y-4000000D02*
X10650000Y-4000000D01*
X10050000Y-3200000D02*
X10050000Y-4000000D01*
X-6760000Y2529000D02*
X-7810000Y2529000D01*
X-6760000Y1989000D02*
X-6760000Y2529000D01*
X-7810000Y1989000D02*
X-6760000Y1989000D01*
X-7810000Y2529000D02*
X-7810000Y1989000D01*
X9600000Y-3100000D02*
X9600000Y3100000D01*
X9600000Y3100000D02*
X3400000Y3100000D01*
X3400000Y3100000D02*
X3400000Y-3100000D01*
X3400000Y-3100000D02*
X9600000Y-3100000D01*
X8000000Y0D02*
G75*
G03*
X8000000Y0I-1500000J0D01*
G01*
X312761Y-13319755D02*
X312761Y-13643564D01*
X293714Y-13681660D01*
X274666Y-13700707D01*
X236571Y-13719755D01*
X160380Y-13719755D01*
X122285Y-13700707D01*
X103238Y-13681660D01*
X84190Y-13643564D01*
X84190Y-13319755D01*
X-125334Y-13719755D02*
X-201524Y-13719755D01*
X-239620Y-13700707D01*
X-258667Y-13681660D01*
X-296762Y-13624517D01*
X-315810Y-13548326D01*
X-315810Y-13395945D01*
X-296762Y-13357850D01*
X-277715Y-13338803D01*
X-239620Y-13319755D01*
X-163429Y-13319755D01*
X-125334Y-13338803D01*
X-106286Y-13357850D01*
X-87239Y-13395945D01*
X-87239Y-13491183D01*
X-106286Y-13529279D01*
X-125334Y-13548326D01*
X-163429Y-13567374D01*
X-239620Y-13567374D01*
X-277715Y-13548326D01*
X-296762Y-13529279D01*
X-315810Y-13491183D01*
X-9811518Y-13269755D02*
X-9771042Y-13593564D01*
X-9785328Y-13631660D01*
X-9801995Y-13650707D01*
X-9837709Y-13669755D01*
X-9913899Y-13669755D01*
X-9954375Y-13650707D01*
X-9975804Y-13631660D01*
X-9999614Y-13593564D01*
X-10040090Y-13269755D01*
X-10390090Y-13669755D02*
X-10161518Y-13669755D01*
X-10275804Y-13669755D02*
X-10325804Y-13269755D01*
X-10280566Y-13326898D01*
X-10237709Y-13364993D01*
X-10197233Y-13384041D01*
X-10771042Y-13669755D02*
X-10542471Y-13669755D01*
X-10656756Y-13669755D02*
X-10706756Y-13269755D01*
X-10661518Y-13326898D01*
X-10618661Y-13364993D01*
X-10578185Y-13384041D01*
X513882Y-26793852D02*
X554358Y-27117661D01*
X540072Y-27155757D01*
X523405Y-27174804D01*
X487691Y-27193852D01*
X411501Y-27193852D01*
X371025Y-27174804D01*
X349596Y-27155757D01*
X325786Y-27117661D01*
X285310Y-26793852D01*
X-64690Y-27193852D02*
X163882Y-27193852D01*
X49596Y-27193852D02*
X-404Y-26793852D01*
X44834Y-26850995D01*
X87691Y-26889090D01*
X128167Y-26908138D01*
X-362309Y-26793852D02*
X-400404Y-26793852D01*
X-436118Y-26812900D01*
X-452785Y-26831947D01*
X-467071Y-26870042D01*
X-476595Y-26946233D01*
X-464690Y-27041471D01*
X-436118Y-27117661D01*
X-412309Y-27155757D01*
X-390880Y-27174804D01*
X-350404Y-27193852D01*
X-312309Y-27193852D01*
X-276595Y-27174804D01*
X-259928Y-27155757D01*
X-245642Y-27117661D01*
X-236118Y-27041471D01*
X-248023Y-26946233D01*
X-276595Y-26870042D01*
X-300404Y-26831947D01*
X-321833Y-26812900D01*
X-362309Y-26793852D01*
X9810005Y-13307952D02*
X9850482Y-13631761D01*
X9836196Y-13669857D01*
X9819529Y-13688904D01*
X9783815Y-13707952D01*
X9707625Y-13707952D01*
X9667148Y-13688904D01*
X9645720Y-13669857D01*
X9621910Y-13631761D01*
X9581434Y-13307952D01*
X9355244Y-13479380D02*
X9390958Y-13460333D01*
X9407625Y-13441285D01*
X9421910Y-13403190D01*
X9419529Y-13384142D01*
X9395720Y-13346047D01*
X9374291Y-13327000D01*
X9333815Y-13307952D01*
X9257625Y-13307952D01*
X9221910Y-13327000D01*
X9205244Y-13346047D01*
X9190958Y-13384142D01*
X9193339Y-13403190D01*
X9217148Y-13441285D01*
X9238577Y-13460333D01*
X9279053Y-13479380D01*
X9355244Y-13479380D01*
X9395720Y-13498428D01*
X9417148Y-13517476D01*
X9440958Y-13555571D01*
X9450482Y-13631761D01*
X9436196Y-13669857D01*
X9419529Y-13688904D01*
X9383815Y-13707952D01*
X9307625Y-13707952D01*
X9267148Y-13688904D01*
X9245720Y-13669857D01*
X9221910Y-13631761D01*
X9212386Y-13555571D01*
X9226672Y-13517476D01*
X9243339Y-13498428D01*
X9279053Y-13479380D01*
X-7799614Y-3530952D02*
X-7690090Y-3340476D01*
X-7571042Y-3530952D02*
X-7621042Y-3130952D01*
X-7773423Y-3130952D01*
X-7809137Y-3150000D01*
X-7825804Y-3169047D01*
X-7840090Y-3207142D01*
X-7832947Y-3264285D01*
X-7809137Y-3302380D01*
X-7787709Y-3321428D01*
X-7747233Y-3340476D01*
X-7594852Y-3340476D01*
X-7997233Y-3169047D02*
X-8018661Y-3150000D01*
X-8059137Y-3130952D01*
X-8154375Y-3130952D01*
X-8190090Y-3150000D01*
X-8206756Y-3169047D01*
X-8221042Y-3207142D01*
X-8216280Y-3245238D01*
X-8190090Y-3302380D01*
X-7932947Y-3530952D01*
X-8180566Y-3530952D01*
X-8561518Y-3530952D02*
X-8332947Y-3530952D01*
X-8447233Y-3530952D02*
X-8497233Y-3130952D01*
X-8451995Y-3188095D01*
X-8409137Y-3226190D01*
X-8368661Y-3245238D01*
X1395625Y-16242857D02*
X1417053Y-16261904D01*
X1476577Y-16280952D01*
X1514672Y-16280952D01*
X1569434Y-16261904D01*
X1602767Y-16223809D01*
X1617053Y-16185714D01*
X1626577Y-16109523D01*
X1619434Y-16052380D01*
X1590863Y-15976190D01*
X1567053Y-15938095D01*
X1524196Y-15900000D01*
X1464672Y-15880952D01*
X1426577Y-15880952D01*
X1371815Y-15900000D01*
X1355148Y-15919047D01*
X988482Y-15880952D02*
X1178958Y-15880952D01*
X1221815Y-16071428D01*
X1200386Y-16052380D01*
X1159910Y-16033333D01*
X1064672Y-16033333D01*
X1028958Y-16052380D01*
X1012291Y-16071428D01*
X998005Y-16109523D01*
X1009910Y-16204761D01*
X1033720Y-16242857D01*
X1055148Y-16261904D01*
X1095625Y-16280952D01*
X1190863Y-16280952D01*
X1226577Y-16261904D01*
X1243244Y-16242857D01*
X828958Y-16280952D02*
X752767Y-16280952D01*
X712291Y-16261904D01*
X690863Y-16242857D01*
X645625Y-16185714D01*
X617053Y-16109523D01*
X598005Y-15957142D01*
X612291Y-15919047D01*
X628958Y-15900000D01*
X664672Y-15880952D01*
X740863Y-15880952D01*
X781339Y-15900000D01*
X802767Y-15919047D01*
X826577Y-15957142D01*
X838482Y-16052380D01*
X824196Y-16090476D01*
X807529Y-16109523D01*
X771815Y-16128571D01*
X695625Y-16128571D01*
X655148Y-16109523D01*
X633720Y-16090476D01*
X609910Y-16052380D01*
X-304375Y-17692857D02*
X-282947Y-17711904D01*
X-223423Y-17730952D01*
X-185328Y-17730952D01*
X-130566Y-17711904D01*
X-97233Y-17673809D01*
X-82947Y-17635714D01*
X-73423Y-17559523D01*
X-80566Y-17502380D01*
X-109137Y-17426190D01*
X-132947Y-17388095D01*
X-175804Y-17350000D01*
X-235328Y-17330952D01*
X-273423Y-17330952D01*
X-328185Y-17350000D01*
X-344852Y-17369047D01*
X-711518Y-17330952D02*
X-521042Y-17330952D01*
X-478185Y-17521428D01*
X-499614Y-17502380D01*
X-540090Y-17483333D01*
X-635328Y-17483333D01*
X-671042Y-17502380D01*
X-687709Y-17521428D01*
X-701995Y-17559523D01*
X-690090Y-17654761D01*
X-666280Y-17692857D01*
X-644852Y-17711904D01*
X-604375Y-17730952D01*
X-509137Y-17730952D01*
X-473423Y-17711904D01*
X-456756Y-17692857D01*
X-937709Y-17502380D02*
X-901995Y-17483333D01*
X-885328Y-17464285D01*
X-871042Y-17426190D01*
X-873423Y-17407142D01*
X-897233Y-17369047D01*
X-918661Y-17350000D01*
X-959137Y-17330952D01*
X-1035328Y-17330952D01*
X-1071042Y-17350000D01*
X-1087709Y-17369047D01*
X-1101995Y-17407142D01*
X-1099614Y-17426190D01*
X-1075804Y-17464285D01*
X-1054375Y-17483333D01*
X-1013899Y-17502380D01*
X-937709Y-17502380D01*
X-897233Y-17521428D01*
X-875804Y-17540476D01*
X-851995Y-17578571D01*
X-842471Y-17654761D01*
X-856756Y-17692857D01*
X-873423Y-17711904D01*
X-909137Y-17730952D01*
X-985328Y-17730952D01*
X-1025804Y-17711904D01*
X-1047233Y-17692857D01*
X-1071042Y-17654761D01*
X-1080566Y-17578571D01*
X-1066280Y-17540476D01*
X-1049614Y-17521428D01*
X-1013899Y-17502380D01*
X13945625Y-14492857D02*
X13967053Y-14511904D01*
X14026577Y-14530952D01*
X14064672Y-14530952D01*
X14119434Y-14511904D01*
X14152767Y-14473809D01*
X14167053Y-14435714D01*
X14176577Y-14359523D01*
X14169434Y-14302380D01*
X14140863Y-14226190D01*
X14117053Y-14188095D01*
X14074196Y-14150000D01*
X14014672Y-14130952D01*
X13976577Y-14130952D01*
X13921815Y-14150000D01*
X13905148Y-14169047D01*
X13557529Y-14130952D02*
X13633720Y-14130952D01*
X13674196Y-14150000D01*
X13695625Y-14169047D01*
X13740863Y-14226190D01*
X13769434Y-14302380D01*
X13788482Y-14454761D01*
X13774196Y-14492857D01*
X13757529Y-14511904D01*
X13721815Y-14530952D01*
X13645625Y-14530952D01*
X13605148Y-14511904D01*
X13583720Y-14492857D01*
X13559910Y-14454761D01*
X13548005Y-14359523D01*
X13562291Y-14321428D01*
X13578958Y-14302380D01*
X13614672Y-14283333D01*
X13690863Y-14283333D01*
X13731339Y-14302380D01*
X13752767Y-14321428D01*
X13776577Y-14359523D01*
X13271815Y-14130952D02*
X13233720Y-14130952D01*
X13198005Y-14150000D01*
X13181339Y-14169047D01*
X13167053Y-14207142D01*
X13157529Y-14283333D01*
X13169434Y-14378571D01*
X13198005Y-14454761D01*
X13221815Y-14492857D01*
X13243244Y-14511904D01*
X13283720Y-14530952D01*
X13321815Y-14530952D01*
X13357529Y-14511904D01*
X13374196Y-14492857D01*
X13388482Y-14454761D01*
X13398005Y-14378571D01*
X13386101Y-14283333D01*
X13357529Y-14207142D01*
X13333720Y-14169047D01*
X13312291Y-14150000D01*
X13271815Y-14130952D01*
X-1804375Y-14592857D02*
X-1782947Y-14611904D01*
X-1723423Y-14630952D01*
X-1685328Y-14630952D01*
X-1630566Y-14611904D01*
X-1597233Y-14573809D01*
X-1582947Y-14535714D01*
X-1573423Y-14459523D01*
X-1580566Y-14402380D01*
X-1609137Y-14326190D01*
X-1632947Y-14288095D01*
X-1675804Y-14250000D01*
X-1735328Y-14230952D01*
X-1773423Y-14230952D01*
X-1828185Y-14250000D01*
X-1844852Y-14269047D01*
X-2192471Y-14230952D02*
X-2116280Y-14230952D01*
X-2075804Y-14250000D01*
X-2054375Y-14269047D01*
X-2009137Y-14326190D01*
X-1980566Y-14402380D01*
X-1961518Y-14554761D01*
X-1975804Y-14592857D01*
X-1992471Y-14611904D01*
X-2028185Y-14630952D01*
X-2104375Y-14630952D01*
X-2144852Y-14611904D01*
X-2166280Y-14592857D01*
X-2190090Y-14554761D01*
X-2201995Y-14459523D01*
X-2187709Y-14421428D01*
X-2171042Y-14402380D01*
X-2135328Y-14383333D01*
X-2059137Y-14383333D01*
X-2018661Y-14402380D01*
X-1997233Y-14421428D01*
X-1973423Y-14459523D01*
X-2561518Y-14630952D02*
X-2332947Y-14630952D01*
X-2447233Y-14630952D02*
X-2497233Y-14230952D01*
X-2451995Y-14288095D01*
X-2409137Y-14326190D01*
X-2368661Y-14345238D01*
X2248625Y-27092857D02*
X2270053Y-27111904D01*
X2329577Y-27130952D01*
X2367672Y-27130952D01*
X2422434Y-27111904D01*
X2455767Y-27073809D01*
X2470053Y-27035714D01*
X2479577Y-26959523D01*
X2472434Y-26902380D01*
X2443863Y-26826190D01*
X2420053Y-26788095D01*
X2377196Y-26750000D01*
X2317672Y-26730952D01*
X2279577Y-26730952D01*
X2224815Y-26750000D01*
X2208148Y-26769047D01*
X1860529Y-26730952D02*
X1936720Y-26730952D01*
X1977196Y-26750000D01*
X1998625Y-26769047D01*
X2043863Y-26826190D01*
X2072434Y-26902380D01*
X2091482Y-27054761D01*
X2077196Y-27092857D01*
X2060529Y-27111904D01*
X2024815Y-27130952D01*
X1948625Y-27130952D01*
X1908148Y-27111904D01*
X1886720Y-27092857D01*
X1862910Y-27054761D01*
X1851005Y-26959523D01*
X1865291Y-26921428D01*
X1881958Y-26902380D01*
X1917672Y-26883333D01*
X1993863Y-26883333D01*
X2034339Y-26902380D01*
X2055767Y-26921428D01*
X2079577Y-26959523D01*
X1689101Y-26730952D02*
X1441482Y-26730952D01*
X1593863Y-26883333D01*
X1536720Y-26883333D01*
X1501005Y-26902380D01*
X1484339Y-26921428D01*
X1470053Y-26959523D01*
X1481958Y-27054761D01*
X1505767Y-27092857D01*
X1527196Y-27111904D01*
X1567672Y-27130952D01*
X1681958Y-27130952D01*
X1717672Y-27111904D01*
X1734339Y-27092857D01*
X-7204375Y-15992857D02*
X-7182947Y-16011904D01*
X-7123423Y-16030952D01*
X-7085328Y-16030952D01*
X-7030566Y-16011904D01*
X-6997233Y-15973809D01*
X-6982947Y-15935714D01*
X-6973423Y-15859523D01*
X-6980566Y-15802380D01*
X-7009137Y-15726190D01*
X-7032947Y-15688095D01*
X-7075804Y-15650000D01*
X-7135328Y-15630952D01*
X-7173423Y-15630952D01*
X-7228185Y-15650000D01*
X-7244852Y-15669047D01*
X-7592471Y-15630952D02*
X-7516280Y-15630952D01*
X-7475804Y-15650000D01*
X-7454375Y-15669047D01*
X-7409137Y-15726190D01*
X-7380566Y-15802380D01*
X-7361518Y-15954761D01*
X-7375804Y-15992857D01*
X-7392471Y-16011904D01*
X-7428185Y-16030952D01*
X-7504375Y-16030952D01*
X-7544852Y-16011904D01*
X-7566280Y-15992857D01*
X-7590090Y-15954761D01*
X-7601995Y-15859523D01*
X-7587709Y-15821428D01*
X-7571042Y-15802380D01*
X-7535328Y-15783333D01*
X-7459137Y-15783333D01*
X-7418661Y-15802380D01*
X-7397233Y-15821428D01*
X-7373423Y-15859523D01*
X-7778185Y-15669047D02*
X-7799614Y-15650000D01*
X-7840090Y-15630952D01*
X-7935328Y-15630952D01*
X-7971042Y-15650000D01*
X-7987709Y-15669047D01*
X-8001995Y-15707142D01*
X-7997233Y-15745238D01*
X-7971042Y-15802380D01*
X-7713899Y-16030952D01*
X-7961518Y-16030952D01*
X9695625Y-5642857D02*
X9717053Y-5661904D01*
X9776577Y-5680952D01*
X9814672Y-5680952D01*
X9869434Y-5661904D01*
X9902767Y-5623809D01*
X9917053Y-5585714D01*
X9926577Y-5509523D01*
X9919434Y-5452380D01*
X9890863Y-5376190D01*
X9867053Y-5338095D01*
X9824196Y-5300000D01*
X9764672Y-5280952D01*
X9726577Y-5280952D01*
X9671815Y-5300000D01*
X9655148Y-5319047D01*
X9307529Y-5280952D02*
X9383720Y-5280952D01*
X9424196Y-5300000D01*
X9445625Y-5319047D01*
X9490863Y-5376190D01*
X9519434Y-5452380D01*
X9538482Y-5604761D01*
X9524196Y-5642857D01*
X9507529Y-5661904D01*
X9471815Y-5680952D01*
X9395625Y-5680952D01*
X9355148Y-5661904D01*
X9333720Y-5642857D01*
X9309910Y-5604761D01*
X9298005Y-5509523D01*
X9312291Y-5471428D01*
X9328958Y-5452380D01*
X9364672Y-5433333D01*
X9440863Y-5433333D01*
X9481339Y-5452380D01*
X9502767Y-5471428D01*
X9526577Y-5509523D01*
X8943244Y-5414285D02*
X8976577Y-5680952D01*
X9019434Y-5261904D02*
X9150386Y-5547619D01*
X8902767Y-5547619D01*
X13900386Y-13530952D02*
X14009910Y-13340476D01*
X14128958Y-13530952D02*
X14078958Y-13130952D01*
X13926577Y-13130952D01*
X13890863Y-13150000D01*
X13874196Y-13169047D01*
X13859910Y-13207142D01*
X13867053Y-13264285D01*
X13890863Y-13302380D01*
X13912291Y-13321428D01*
X13952767Y-13340476D01*
X14105148Y-13340476D01*
X13519434Y-13530952D02*
X13748005Y-13530952D01*
X13633720Y-13530952D02*
X13583720Y-13130952D01*
X13628958Y-13188095D01*
X13671815Y-13226190D01*
X13712291Y-13245238D01*
X13138482Y-13530952D02*
X13367053Y-13530952D01*
X13252767Y-13530952D02*
X13202767Y-13130952D01*
X13248005Y-13188095D01*
X13290863Y-13226190D01*
X13331339Y-13245238D01*
X13550386Y-3680952D02*
X13659910Y-3490476D01*
X13778958Y-3680952D02*
X13728958Y-3280952D01*
X13576577Y-3280952D01*
X13540863Y-3300000D01*
X13524196Y-3319047D01*
X13509910Y-3357142D01*
X13517053Y-3414285D01*
X13540863Y-3452380D01*
X13562291Y-3471428D01*
X13602767Y-3490476D01*
X13755148Y-3490476D01*
X13169434Y-3680952D02*
X13398005Y-3680952D01*
X13283720Y-3680952D02*
X13233720Y-3280952D01*
X13278958Y-3338095D01*
X13321815Y-3376190D01*
X13362291Y-3395238D01*
X12757529Y-3280952D02*
X12948005Y-3280952D01*
X12990863Y-3471428D01*
X12969434Y-3452380D01*
X12928958Y-3433333D01*
X12833720Y-3433333D01*
X12798005Y-3452380D01*
X12781339Y-3471428D01*
X12767053Y-3509523D01*
X12778958Y-3604761D01*
X12802767Y-3642857D01*
X12824196Y-3661904D01*
X12864672Y-3680952D01*
X12959910Y-3680952D01*
X12995625Y-3661904D01*
X13012291Y-3642857D01*
X13950386Y-12580952D02*
X14059910Y-12390476D01*
X14178958Y-12580952D02*
X14128958Y-12180952D01*
X13976577Y-12180952D01*
X13940863Y-12200000D01*
X13924196Y-12219047D01*
X13909910Y-12257142D01*
X13917053Y-12314285D01*
X13940863Y-12352380D01*
X13962291Y-12371428D01*
X14002767Y-12390476D01*
X14155148Y-12390476D01*
X13569434Y-12580952D02*
X13798005Y-12580952D01*
X13683720Y-12580952D02*
X13633720Y-12180952D01*
X13678958Y-12238095D01*
X13721815Y-12276190D01*
X13762291Y-12295238D01*
X13371815Y-12219047D02*
X13350386Y-12200000D01*
X13309910Y-12180952D01*
X13214672Y-12180952D01*
X13178958Y-12200000D01*
X13162291Y-12219047D01*
X13148005Y-12257142D01*
X13152767Y-12295238D01*
X13178958Y-12352380D01*
X13436101Y-12580952D01*
X13188482Y-12580952D01*
X9050386Y7419048D02*
X9159910Y7609524D01*
X9278958Y7419048D02*
X9228958Y7819048D01*
X9076577Y7819048D01*
X9040863Y7800000D01*
X9024196Y7780953D01*
X9009910Y7742858D01*
X9017053Y7685715D01*
X9040863Y7647620D01*
X9062291Y7628572D01*
X9102767Y7609524D01*
X9255148Y7609524D01*
X8852767Y7780953D02*
X8831339Y7800000D01*
X8790863Y7819048D01*
X8695625Y7819048D01*
X8659910Y7800000D01*
X8643244Y7780953D01*
X8628958Y7742858D01*
X8633720Y7704762D01*
X8659910Y7647620D01*
X8917053Y7419048D01*
X8669434Y7419048D01*
X8293244Y7685715D02*
X8326577Y7419048D01*
X8369434Y7838096D02*
X8500386Y7552381D01*
X8252767Y7552381D01*
X-6299614Y-3530952D02*
X-6190090Y-3340476D01*
X-6071042Y-3530952D02*
X-6121042Y-3130952D01*
X-6273423Y-3130952D01*
X-6309137Y-3150000D01*
X-6325804Y-3169047D01*
X-6340090Y-3207142D01*
X-6332947Y-3264285D01*
X-6309137Y-3302380D01*
X-6287709Y-3321428D01*
X-6247233Y-3340476D01*
X-6094852Y-3340476D01*
X-6497233Y-3169047D02*
X-6518661Y-3150000D01*
X-6559137Y-3130952D01*
X-6654375Y-3130952D01*
X-6690090Y-3150000D01*
X-6706756Y-3169047D01*
X-6721042Y-3207142D01*
X-6716280Y-3245238D01*
X-6690090Y-3302380D01*
X-6432947Y-3530952D01*
X-6680566Y-3530952D01*
X-6863899Y-3130952D02*
X-7111518Y-3130952D01*
X-6959137Y-3283333D01*
X-7016280Y-3283333D01*
X-7051995Y-3302380D01*
X-7068661Y-3321428D01*
X-7082947Y-3359523D01*
X-7071042Y-3454761D01*
X-7047233Y-3492857D01*
X-7025804Y-3511904D01*
X-6985328Y-3530952D01*
X-6871042Y-3530952D01*
X-6835328Y-3511904D01*
X-6818661Y-3492857D01*
X-6661518Y-180952D02*
X-6711518Y219048D01*
X-6806756Y219048D01*
X-6861518Y200000D01*
X-6894852Y161905D01*
X-6909137Y123810D01*
X-6918661Y47620D01*
X-6911518Y-9523D01*
X-6882947Y-85714D01*
X-6859137Y-123809D01*
X-6816280Y-161904D01*
X-6756756Y-180952D01*
X-6661518Y-180952D01*
X-7073423Y219048D02*
X-7321042Y219048D01*
X-7168661Y66667D01*
X-7225804Y66667D01*
X-7261518Y47620D01*
X-7278185Y28572D01*
X-7292471Y-9523D01*
X-7280566Y-104761D01*
X-7256756Y-142857D01*
X-7235328Y-161904D01*
X-7194852Y-180952D01*
X-7080566Y-180952D01*
X-7044852Y-161904D01*
X-7028185Y-142857D01*
X8550386Y-16980952D02*
X8659910Y-16790476D01*
X8778958Y-16980952D02*
X8728958Y-16580952D01*
X8576577Y-16580952D01*
X8540863Y-16600000D01*
X8524196Y-16619047D01*
X8509910Y-16657142D01*
X8517053Y-16714285D01*
X8540863Y-16752380D01*
X8562291Y-16771428D01*
X8602767Y-16790476D01*
X8755148Y-16790476D01*
X8169434Y-16980952D02*
X8398005Y-16980952D01*
X8283720Y-16980952D02*
X8233720Y-16580952D01*
X8278958Y-16638095D01*
X8321815Y-16676190D01*
X8362291Y-16695238D01*
X7986101Y-16580952D02*
X7738482Y-16580952D01*
X7890863Y-16733333D01*
X7833720Y-16733333D01*
X7798005Y-16752380D01*
X7781339Y-16771428D01*
X7767053Y-16809523D01*
X7778958Y-16904761D01*
X7802767Y-16942857D01*
X7824196Y-16961904D01*
X7864672Y-16980952D01*
X7978958Y-16980952D01*
X8014672Y-16961904D01*
X8031339Y-16942857D01*
X12000386Y-3680952D02*
X12109910Y-3490476D01*
X12228958Y-3680952D02*
X12178958Y-3280952D01*
X12026577Y-3280952D01*
X11990863Y-3300000D01*
X11974196Y-3319047D01*
X11959910Y-3357142D01*
X11967053Y-3414285D01*
X11990863Y-3452380D01*
X12012291Y-3471428D01*
X12052767Y-3490476D01*
X12205148Y-3490476D01*
X11619434Y-3680952D02*
X11848005Y-3680952D01*
X11733720Y-3680952D02*
X11683720Y-3280952D01*
X11728958Y-3338095D01*
X11771815Y-3376190D01*
X11812291Y-3395238D01*
X11362291Y-3452380D02*
X11398005Y-3433333D01*
X11414672Y-3414285D01*
X11428958Y-3376190D01*
X11426577Y-3357142D01*
X11402767Y-3319047D01*
X11381339Y-3300000D01*
X11340863Y-3280952D01*
X11264672Y-3280952D01*
X11228958Y-3300000D01*
X11212291Y-3319047D01*
X11198005Y-3357142D01*
X11200386Y-3376190D01*
X11224196Y-3414285D01*
X11245625Y-3433333D01*
X11286101Y-3452380D01*
X11362291Y-3452380D01*
X11402767Y-3471428D01*
X11424196Y-3490476D01*
X11448005Y-3528571D01*
X11457529Y-3604761D01*
X11443244Y-3642857D01*
X11426577Y-3661904D01*
X11390863Y-3680952D01*
X11314672Y-3680952D01*
X11274196Y-3661904D01*
X11252767Y-3642857D01*
X11228958Y-3604761D01*
X11219434Y-3528571D01*
X11233720Y-3490476D01*
X11250386Y-3471428D01*
X11286101Y-3452380D01*
X9888482Y-3880952D02*
X9838482Y-3480952D01*
X9743244Y-3480952D01*
X9688482Y-3500000D01*
X9655148Y-3538095D01*
X9640863Y-3576190D01*
X9631339Y-3652380D01*
X9638482Y-3709523D01*
X9667053Y-3785714D01*
X9690863Y-3823809D01*
X9733720Y-3861904D01*
X9793244Y-3880952D01*
X9888482Y-3880952D01*
X9283720Y-3614285D02*
X9317053Y-3880952D01*
X9359910Y-3461904D02*
X9490863Y-3747619D01*
X9243244Y-3747619D01*
X-6949614Y2769048D02*
X-6840090Y2959524D01*
X-6721042Y2769048D02*
X-6771042Y3169048D01*
X-6923423Y3169048D01*
X-6959137Y3150000D01*
X-6975804Y3130953D01*
X-6990090Y3092858D01*
X-6982947Y3035715D01*
X-6959137Y2997620D01*
X-6937709Y2978572D01*
X-6897233Y2959524D01*
X-6744852Y2959524D01*
X-7147233Y3130953D02*
X-7168661Y3150000D01*
X-7209137Y3169048D01*
X-7304375Y3169048D01*
X-7340090Y3150000D01*
X-7356756Y3130953D01*
X-7371042Y3092858D01*
X-7366280Y3054762D01*
X-7340090Y2997620D01*
X-7082947Y2769048D01*
X-7330566Y2769048D01*
X-7528185Y3130953D02*
X-7549614Y3150000D01*
X-7590090Y3169048D01*
X-7685328Y3169048D01*
X-7721042Y3150000D01*
X-7737709Y3130953D01*
X-7751995Y3092858D01*
X-7747233Y3054762D01*
X-7721042Y2997620D01*
X-7463899Y2769048D01*
X-7711518Y2769048D01*
D11*
X7833333Y1845239D02*
X7690476Y1797620D01*
X7452380Y1797620D01*
X7357142Y1845239D01*
X7309523Y1892858D01*
X7261904Y1988096D01*
X7261904Y2083334D01*
X7309523Y2178572D01*
X7357142Y2226191D01*
X7452380Y2273810D01*
X7642857Y2321429D01*
X7738095Y2369048D01*
X7785714Y2416667D01*
X7833333Y2511905D01*
X7833333Y2607143D01*
X7785714Y2702381D01*
X7738095Y2750000D01*
X7642857Y2797620D01*
X7404761Y2797620D01*
X7261904Y2750000D01*
X6928571Y2797620D02*
X6690476Y1797620D01*
X6500000Y2511905D01*
X6309523Y1797620D01*
X6071428Y2797620D01*
X5166666Y1797620D02*
X5738095Y1797620D01*
X5452380Y1797620D02*
X5452380Y2797620D01*
X5547619Y2654762D01*
X5642857Y2559524D01*
X5738095Y2511905D01*
M02*
