G04 #@! TF.GenerationSoftware,KiCad,Pcbnew,(5.1.7)-1*
G04 #@! TF.CreationDate,2021-07-01T14:18:12+04:00*
G04 #@! TF.ProjectId,pcb-stm32wl,7063622d-7374-46d3-9332-776c2e6b6963,1.1*
G04 #@! TF.SameCoordinates,PX8f0d180PY6422c40*
G04 #@! TF.FileFunction,Copper,L2,Inr*
G04 #@! TF.FilePolarity,Positive*
%FSLAX46Y46*%
G04 Gerber Fmt 4.6, Leading zero omitted, Abs format (unit mm)*
G04 Created by KiCad (PCBNEW (5.1.7)-1) date 2021-07-01 14:18:12*
%MOMM*%
%LPD*%
G01*
G04 APERTURE LIST*
G04 #@! TA.AperFunction,ComponentPad*
%ADD10R,1.000000X1.000000*%
G04 #@! TD*
G04 #@! TA.AperFunction,ComponentPad*
%ADD11O,1.000000X1.000000*%
G04 #@! TD*
G04 #@! TA.AperFunction,ComponentPad*
%ADD12R,1.700000X1.700000*%
G04 #@! TD*
G04 #@! TA.AperFunction,ComponentPad*
%ADD13O,1.700000X1.700000*%
G04 #@! TD*
G04 #@! TA.AperFunction,ViaPad*
%ADD14C,0.800000*%
G04 #@! TD*
G04 #@! TA.AperFunction,ViaPad*
%ADD15C,0.550000*%
G04 #@! TD*
G04 #@! TA.AperFunction,ViaPad*
%ADD16C,0.600000*%
G04 #@! TD*
G04 #@! TA.AperFunction,ViaPad*
%ADD17C,0.450000*%
G04 #@! TD*
G04 #@! TA.AperFunction,ViaPad*
%ADD18C,0.500000*%
G04 #@! TD*
G04 #@! TA.AperFunction,Conductor*
%ADD19C,0.177800*%
G04 #@! TD*
G04 #@! TA.AperFunction,Conductor*
%ADD20C,0.700000*%
G04 #@! TD*
G04 #@! TA.AperFunction,Conductor*
%ADD21C,0.640000*%
G04 #@! TD*
G04 #@! TA.AperFunction,Conductor*
%ADD22C,0.250000*%
G04 #@! TD*
G04 #@! TA.AperFunction,Conductor*
%ADD23C,0.200000*%
G04 #@! TD*
G04 #@! TA.AperFunction,Conductor*
%ADD24C,0.193000*%
G04 #@! TD*
G04 #@! TA.AperFunction,Conductor*
%ADD25C,0.100000*%
G04 #@! TD*
G04 APERTURE END LIST*
D10*
X14700000Y11000000D03*
D11*
X15970000Y11000000D03*
D12*
X15875000Y-7620000D03*
D13*
X15875000Y-5080000D03*
X15875000Y-2540000D03*
X15875000Y0D03*
X15875000Y2540000D03*
X15875000Y5080000D03*
X15875000Y7620000D03*
D12*
X-15875000Y-7620000D03*
D13*
X-15875000Y-5080000D03*
X-15875000Y-2540000D03*
X-15875000Y0D03*
X-15875000Y2540000D03*
X-15875000Y5080000D03*
X-15875000Y7620000D03*
D14*
X-5300000Y-28000000D03*
X4850000Y-28050000D03*
X-2350000Y-29900000D03*
D15*
X14900000Y16700000D03*
X16200000Y15900000D03*
D14*
X2050000Y-29922568D03*
D15*
X2477600Y-3407200D03*
X1156800Y-4778800D03*
X-265600Y-4778800D03*
X2477600Y-2035600D03*
X1156800Y-2035600D03*
X-265600Y-2035600D03*
X2477600Y-4778800D03*
D14*
X-2450000Y-23700000D03*
X-2450000Y-25750000D03*
D15*
X7520000Y-28980000D03*
X-6100000Y-21525000D03*
X-6125000Y-19375000D03*
X2620000Y-19080000D03*
D16*
X7900000Y-18150000D03*
X7900000Y-19200000D03*
X7900000Y-20150000D03*
X7900000Y-21200000D03*
D15*
X2300000Y-11525000D03*
X9375000Y-16025000D03*
X9960000Y-9700000D03*
X-10000000Y6420000D03*
X10000000Y14540000D03*
X10000000Y6650000D03*
X-14780000Y-13240000D03*
X5575000Y-9850000D03*
X6200000Y-10800000D03*
X4500000Y-6930000D03*
X-265600Y-3407200D03*
X1120000Y-3408500D03*
X-9080000Y-5210000D03*
X6212590Y-10112800D03*
D16*
X9500000Y-15250000D03*
D15*
X-14994811Y-11441316D03*
X1000Y-23693000D03*
X11550000Y-18350000D03*
X-12280000Y-23870000D03*
X-11090000Y-22800000D03*
X-3075000Y-12499996D03*
X-9961509Y-1471888D03*
X-4464777Y-8031078D03*
X5500000Y-9148581D03*
X-2300000Y-11500000D03*
X-14050000Y11250000D03*
X-25000Y18700000D03*
X-4039010Y-12594522D03*
X-3382302Y-1542698D03*
X1970000Y-13150000D03*
X2640000Y-13270000D03*
X-5722588Y2000006D03*
X-9983000Y-2169000D03*
D17*
X-190000Y14030000D03*
X220000Y14390000D03*
X654000Y14755000D03*
X-7542000Y17500000D03*
X-3516000Y17500000D03*
X-5160000Y17500000D03*
X-6281000Y17500000D03*
X-9950000Y15100000D03*
X3700000Y14850000D03*
X3150000Y14875000D03*
X2500000Y14875000D03*
X1825000Y14875000D03*
X1200000Y14850000D03*
X-7800000Y16025000D03*
X-8270000Y15670000D03*
X-8675000Y15250000D03*
X-9225000Y15100000D03*
X-10600000Y15150000D03*
X-11250000Y15225000D03*
X-11900000Y15275000D03*
X-12550000Y15300000D03*
X-12550000Y13500000D03*
X-11975000Y13525000D03*
X-11375000Y13575000D03*
X-10800000Y13625000D03*
X-1600000Y13925000D03*
X4675000Y14018000D03*
X4220000Y14410000D03*
X5405000Y5975000D03*
X5405000Y6595000D03*
X5405000Y7215000D03*
X5405000Y7835000D03*
X5405000Y8455000D03*
X5405000Y9075000D03*
X5405000Y9695000D03*
X5405000Y10315000D03*
X5405000Y10935000D03*
X5405000Y11500000D03*
X3975000Y11300000D03*
X3975000Y9935000D03*
X3975000Y7455000D03*
X3975000Y6835000D03*
X3975000Y10675000D03*
X3975000Y9315000D03*
X3975000Y8075000D03*
X3975000Y8695000D03*
X3975000Y12000000D03*
X3100000Y5975000D03*
X3100000Y10935000D03*
X3100000Y8455000D03*
X3100000Y7835000D03*
X3100000Y11500000D03*
X3100000Y10315000D03*
X3100000Y9075000D03*
X3100000Y9695000D03*
X3100000Y12050000D03*
X-1925000Y12175000D03*
X-2647000Y12082000D03*
X-2612000Y11538000D03*
X-2500000Y10600000D03*
X-2525000Y10000000D03*
X-2525000Y9475000D03*
X-2525000Y8900000D03*
X-2525000Y8350000D03*
X-2525000Y7800000D03*
X-2525000Y7200000D03*
X-2500000Y6425000D03*
X-2475000Y5400000D03*
X750000Y6175000D03*
X775000Y6770000D03*
X775000Y7365000D03*
X750000Y7960000D03*
X760000Y8555000D03*
X725000Y9150000D03*
X775000Y10475000D03*
X800000Y10975000D03*
X825000Y11500000D03*
X800000Y11975000D03*
X200000Y11850000D03*
X-4875000Y8695000D03*
X-4875000Y4975000D03*
X-4875000Y5595000D03*
X-4875000Y8075000D03*
X-4875000Y9315000D03*
X-4875000Y6215000D03*
X-4875000Y9935000D03*
X-4875000Y11675000D03*
X-4875000Y12225000D03*
X-4875000Y12800000D03*
X-4725000Y13425000D03*
X-4100000Y13510000D03*
X-2110000Y13370000D03*
D15*
X-15554009Y14684300D03*
X-15554009Y11172300D03*
X-15554009Y-16923700D03*
X-15554009Y-19733300D03*
X-15554009Y-23245300D03*
X-14149209Y9767500D03*
X-14149209Y-18328500D03*
X-14149209Y-21138100D03*
X-14149209Y-24650100D03*
X-13446809Y6255500D03*
X-12744409Y11172300D03*
X-12744409Y8362700D03*
X-12744409Y-16923700D03*
X-12744409Y-19733300D03*
X-12744409Y-22542900D03*
X-12042009Y16791500D03*
X-12042009Y4850700D03*
X-12042009Y-25352500D03*
X-11339609Y9767500D03*
X-11339609Y-18328500D03*
X-11339609Y-21138100D03*
X-10637209Y-27459700D03*
X-9232409Y-16923700D03*
X-9232409Y-19733300D03*
X-9232409Y-28864500D03*
X-8530009Y12577100D03*
X-8530009Y9767500D03*
X-8530009Y6957900D03*
X-7827609Y4850700D03*
X-7125209Y11172300D03*
X-7125209Y8362700D03*
X-7125209Y-26757300D03*
X-6422809Y13279500D03*
X-6422809Y6255500D03*
X-6422809Y3445900D03*
X7750000Y13500000D03*
X9732391Y-21840500D03*
X11137191Y18196300D03*
X13244391Y-22542900D03*
X13946791Y18196300D03*
X14649191Y-21138100D03*
D17*
X16250000Y19250000D03*
X15669641Y19250000D03*
X15089284Y19250000D03*
X14508927Y19250000D03*
X13928570Y19250000D03*
X13348213Y19250000D03*
X12767856Y19250000D03*
X12187499Y19250000D03*
X11607142Y19250000D03*
X11026785Y19250000D03*
X10446428Y19250000D03*
X9866071Y19250000D03*
X9300000Y19250000D03*
X8750000Y19250000D03*
X5989750Y19250000D03*
X5419500Y19250000D03*
X4849250Y19250000D03*
X4279000Y19250000D03*
X3708750Y19250000D03*
X3138500Y19250000D03*
X2568250Y19250000D03*
X1998000Y19250000D03*
X1427750Y19250000D03*
X857500Y19250000D03*
X287250Y19250000D03*
X-283000Y19250000D03*
X-853250Y19250000D03*
X-1423500Y19250000D03*
X-1993750Y19250000D03*
X-2564000Y19250000D03*
X-3134250Y19250000D03*
X-3704500Y19250000D03*
X-4274750Y19250000D03*
X-4845000Y19250000D03*
X-5415250Y19250000D03*
X-5985500Y19250000D03*
X-6555750Y19250000D03*
X-7126000Y19250000D03*
X-7696250Y19250000D03*
X-8266500Y19250000D03*
X-8836750Y19250000D03*
X-9407000Y19250000D03*
X-9977250Y19250000D03*
X-10547500Y19250000D03*
X-14539250Y19250000D03*
X-15109500Y19250000D03*
X-15679750Y19250000D03*
X-16250000Y19250000D03*
D16*
X6950000Y-11700000D03*
D17*
X770000Y4940000D03*
X-7250000Y16250000D03*
X-6675000Y16300000D03*
X-6091667Y16300000D03*
X-5508334Y16300000D03*
X-4925001Y16300000D03*
X-4341668Y16300000D03*
X-3758335Y16300000D03*
X-3175000Y16300000D03*
X-2525000Y16300000D03*
X-1875000Y16180000D03*
X-1360000Y15800000D03*
X-1475000Y13350000D03*
X-1925000Y14400000D03*
X-2325000Y14775000D03*
X-2900000Y14900000D03*
X-5808334Y14900000D03*
X-6391667Y14900000D03*
X-7000000Y14850000D03*
X-5225001Y14900000D03*
X-3475000Y14900000D03*
X-4058335Y14900000D03*
X-4641668Y14900000D03*
X-7475000Y14425000D03*
X-7925000Y14025000D03*
X-8550000Y13750000D03*
X-9150000Y13690000D03*
X-9675000Y13675000D03*
X-10250000Y13650000D03*
X-875000Y15340000D03*
X-400000Y15850000D03*
X75000Y16200000D03*
X675000Y16300000D03*
X1277500Y16300000D03*
X1880000Y16300000D03*
X5405000Y12050000D03*
D15*
X-14388809Y-20002500D03*
X-14388809Y-23402500D03*
X-12688809Y9747500D03*
X-10988809Y3797500D03*
X-10988809Y397500D03*
X-10988809Y-3002500D03*
X-9288809Y-18302500D03*
X-9288809Y-26802500D03*
X-8438809Y11447500D03*
X11111191Y16547500D03*
D18*
X-15738809Y16947500D03*
X-15738809Y13447500D03*
X-15738809Y9947500D03*
X-15738809Y-18052500D03*
X-15738809Y-24352500D03*
X-14338809Y-16652500D03*
X-12938809Y-18052500D03*
X-12938809Y-20852500D03*
X-11538809Y12047500D03*
X-11538809Y8547500D03*
X-11538809Y-16652500D03*
X-11538809Y-19452500D03*
X-10838809Y16247500D03*
X-9438809Y-22952500D03*
X-8738809Y8547500D03*
X-8038809Y-29252500D03*
X-7338809Y9947500D03*
X-6638809Y5047500D03*
X-6638809Y-29252500D03*
X-5938809Y12047500D03*
X-5938809Y10647500D03*
X-5938809Y9247500D03*
X-5938809Y7847500D03*
X361191Y-29252500D03*
X10861191Y-22252500D03*
D17*
X4425000Y14875000D03*
X5050000Y14875000D03*
X5625000Y14875000D03*
X2482500Y16300000D03*
X3085000Y16300000D03*
X3687500Y16300000D03*
X4290000Y16300000D03*
X4892500Y16300000D03*
X5495000Y16300000D03*
X6097500Y16300000D03*
X6700000Y16300000D03*
X5800000Y14300000D03*
X6548000Y13984000D03*
X7160000Y14260000D03*
X7200000Y14822000D03*
X7750000Y14880000D03*
X8100000Y16300000D03*
X8100000Y16800000D03*
X8100000Y15800000D03*
X6700000Y16900000D03*
X6700000Y17500000D03*
X6700000Y18100000D03*
X6700000Y18700000D03*
X6600000Y19250000D03*
X8150000Y19250000D03*
X8100000Y18700000D03*
X8100000Y18130000D03*
X8800000Y18150000D03*
X9100000Y17500000D03*
X8800000Y16850000D03*
X8100000Y15300000D03*
D15*
X-348714Y-18917625D03*
X5810825Y350000D03*
X11550000Y-9300000D03*
X11400000Y1250000D03*
X11300000Y6150000D03*
X8850000Y14850000D03*
X8950000Y16000000D03*
X10000000Y15900000D03*
X10000000Y17400000D03*
X11100000Y17450000D03*
X9700000Y18450000D03*
X16250000Y18550000D03*
X15100000Y18500000D03*
X14967000Y15236000D03*
X11150000Y15350000D03*
X5750000Y18250000D03*
X5250000Y17200000D03*
X4350000Y18400000D03*
X3900000Y17200000D03*
X3250000Y18450000D03*
X-4350000Y18400000D03*
X-6250000Y18400000D03*
X-7550000Y18350000D03*
X-8450000Y5850000D03*
X-11060000Y1560000D03*
X-11040000Y-1240000D03*
D17*
X-16270000Y18420000D03*
X-16270000Y17384445D03*
X-16270000Y16348890D03*
X-16270000Y15313335D03*
X-16270000Y14277780D03*
X-16270000Y13242225D03*
X-16270000Y12206670D03*
X-16270000Y11171115D03*
X-16270000Y10135560D03*
X-16270000Y9100000D03*
D15*
X10730000Y-29510000D03*
X-1954000Y-9092000D03*
X16250000Y17850000D03*
X16200000Y14700000D03*
X14900000Y12800000D03*
X14900000Y13900000D03*
X16100000Y9075000D03*
X-14100000Y17000000D03*
X-13500000Y18300000D03*
X-11300000Y18300000D03*
X-12400000Y18000000D03*
X16150000Y-25150000D03*
X14800000Y-25150000D03*
X16150000Y-24050000D03*
X-10800000Y-29700000D03*
X-11500000Y-26600000D03*
X-6016743Y-4245087D03*
X3450004Y-19110000D03*
D14*
X6525000Y-19125000D03*
X5125000Y-19100000D03*
D15*
X10000000Y-2400000D03*
D14*
X-955802Y-29339577D03*
D15*
X-6000000Y-3500000D03*
D17*
X-4875000Y10500000D03*
X-4875000Y11100000D03*
X-3385000Y12104000D03*
X-1951000Y11151000D03*
X-3370000Y7322000D03*
X-3383000Y6831000D03*
X1668000Y7400000D03*
X1666000Y6781000D03*
X-3375000Y11553000D03*
X-5437000Y6377000D03*
X-5936000Y6728000D03*
X-5997000Y7294000D03*
X-5400000Y7990000D03*
X-7684000Y6943000D03*
X-6748000Y7048000D03*
X-8090000Y8083000D03*
X-7752000Y9191000D03*
X-6828000Y9197000D03*
X-5757000Y8557000D03*
X-6262000Y9991000D03*
X-7555000Y12239000D03*
X-5942000Y12682000D03*
X-6274000Y11383000D03*
X-7389000Y13298000D03*
X-6582000Y14190000D03*
X-5437000Y14147000D03*
X-4482000Y14190000D03*
X-2346000Y13993000D03*
X-3263000Y14338000D03*
X-5554000Y13445000D03*
X-6791000Y12282000D03*
X-13745000Y8810000D03*
X-7883000Y10673000D03*
X5888000Y11204000D03*
X5876000Y10028000D03*
X5870000Y8772000D03*
X5882000Y9394000D03*
X5901000Y10601000D03*
X5870000Y11771000D03*
X5882000Y8144000D03*
X5875000Y7575000D03*
X5850000Y6925000D03*
X5850000Y6300000D03*
X5850000Y5700000D03*
X5800000Y5175000D03*
X5725000Y4525000D03*
X-13936401Y3204800D03*
X-13936401Y1397600D03*
X-13936401Y-1614400D03*
X-13936401Y-4024000D03*
X-13936401Y-5831200D03*
X-12731601Y192800D03*
X13171599Y15855200D03*
X14978799Y-19084000D03*
X-10000000Y7161000D03*
X-11475000Y10973000D03*
X-8771000Y2459000D03*
X-7410000Y4120000D03*
X-6312000Y4328000D03*
X-12481000Y6034000D03*
X-14730000Y6406000D03*
X-12880000Y6759000D03*
X-11873000Y3847000D03*
X-13388000Y881000D03*
X-14885000Y1244000D03*
X-14921000Y-1387000D03*
X-13170000Y-1768000D03*
X-14340000Y-5115000D03*
X-14186000Y-6648000D03*
X-10876000Y-479000D03*
X-10930000Y-1854000D03*
X-5717000Y4427000D03*
X-5556000Y5434000D03*
X-7552000Y5844000D03*
X-9286000Y6280000D03*
X14985000Y3811000D03*
X15056000Y6344000D03*
X14967000Y1237000D03*
X15052000Y-1296000D03*
X15115000Y-3740000D03*
X14704000Y-6237000D03*
X11997000Y-22374000D03*
X14121000Y-21937000D03*
X9204000Y-29878000D03*
X11202000Y-28853000D03*
X9380000Y-28980000D03*
X-6005000Y-29969000D03*
X-9192000Y-29953000D03*
X-11078000Y-28415000D03*
X-10460000Y-28621000D03*
X-9255000Y-27828000D03*
X-12973000Y-25596000D03*
X-12200000Y-26222000D03*
X-16121000Y-18967000D03*
X-16114000Y-17297000D03*
X-8597000Y-17550000D03*
X-8613000Y-19042000D03*
X7417000Y-12528000D03*
X6566000Y-12552000D03*
D15*
X-3699998Y-16850000D03*
X-6125000Y-20425000D03*
X-1650000Y-17000000D03*
X-6200000Y-17950000D03*
D16*
X-1050000Y-22000000D03*
D15*
X-3350000Y-13250000D03*
X-4125613Y-4199820D03*
X-15700000Y-9200000D03*
X-14800000Y-9200000D03*
X-13900000Y-9200000D03*
D16*
X-7510000Y-13490000D03*
D15*
X1936000Y-27146000D03*
D16*
X-6771177Y-13486468D03*
X-6030000Y-13458690D03*
D15*
X11400000Y13000000D03*
X7238038Y4487050D03*
X9172578Y-7800000D03*
X11000000Y3850000D03*
X-15500000Y-14500000D03*
X6100000Y-15100000D03*
X15000Y8704000D03*
X4300000Y-14200000D03*
X5200000Y-14200000D03*
X6100000Y-14200000D03*
X5200000Y-15100000D03*
X4300000Y-16000000D03*
X5200000Y-16000000D03*
X6100000Y-16000000D03*
X4300000Y-15050000D03*
X-1860000Y3350000D03*
X13075000Y-10675000D03*
X-4630000Y-24230000D03*
X-4630000Y-23430000D03*
X-3197508Y-8086138D03*
X-16099998Y-14500002D03*
X6524998Y-825000D03*
X7250000Y-850000D03*
X11069000Y9675000D03*
X-5860034Y-1889966D03*
X-5816600Y-2489200D03*
X2545596Y-7954402D03*
X-264000Y7665000D03*
X471000Y3437000D03*
X-3403404Y-2702310D03*
X5525000Y-6897260D03*
X6301519Y-6894584D03*
X-1435000Y8474000D03*
X-3000000Y0D03*
X-3500000Y450000D03*
X-6450230Y-9309423D03*
X616280Y-7968537D03*
X8970000Y10110000D03*
X-6100000Y-16700000D03*
X8718826Y-21478836D03*
X9089455Y-7032611D03*
X7350000Y-16550000D03*
X4925309Y25309D03*
X-1439207Y7763814D03*
X8400000Y2300000D03*
X-1734996Y4940002D03*
X11750000Y-11650000D03*
X7566833Y1269309D03*
X14975000Y-14875000D03*
X11288259Y-11009400D03*
X14520000Y-9200000D03*
X7384558Y588495D03*
X6499809Y4530048D03*
X22109Y11050647D03*
X8596450Y7641858D03*
X10900000Y3050000D03*
X13400000Y-17470000D03*
X-4620000Y-25210000D03*
X-507000Y-11463000D03*
X-10900000Y-10700000D03*
X-5893663Y-7998825D03*
X6315004Y2077730D03*
X2106482Y-28032517D03*
X613690Y-11520087D03*
X-2065000Y-27819590D03*
X-7223666Y-8087620D03*
X-10899996Y-11650000D03*
X-7190110Y-9635662D03*
D16*
X7322630Y-2024003D03*
D15*
X-7450000Y-10350000D03*
D16*
X6566096Y-1841496D03*
D15*
X14425000Y-15525000D03*
X11600000Y-5975000D03*
X-3465505Y-5549088D03*
X14425000Y-16500000D03*
X11542618Y-4957142D03*
X-4099996Y-5900000D03*
X10900000Y-11800000D03*
X4643126Y726874D03*
X10700000Y-20500000D03*
X8375000Y12350000D03*
X-13073000Y-12533000D03*
X-9172516Y-7784913D03*
X8680000Y-25580000D03*
X9480000Y-25580000D03*
X7960000Y-25580000D03*
X1315590Y-8034485D03*
X6606734Y-5113800D03*
X7168066Y-4586861D03*
X6481284Y-4082608D03*
X-1356000Y-11517000D03*
X7347615Y2046302D03*
X-4609000Y1666000D03*
X-3797000Y1666000D03*
X-900000Y2810000D03*
X-865388Y3503386D03*
X-680000Y11030000D03*
X7894821Y7675000D03*
X7400000Y12250000D03*
X-1617000Y9535000D03*
D16*
X11820000Y-15140000D03*
X11810000Y-15950000D03*
X11840000Y-16786000D03*
D15*
X9065000Y-17665000D03*
X-1920223Y-7682882D03*
D19*
X-5200000Y-13250000D02*
X-5750000Y-12700000D01*
X-5750000Y-12700000D02*
X-11275000Y-12700000D01*
X-11275000Y-12700000D02*
X-11613714Y-12361286D01*
X-11613714Y-10338714D02*
X-11150000Y-9875000D01*
X-3350000Y-13250000D02*
X-5200000Y-13250000D01*
X-4799820Y-4199820D02*
X-4125613Y-4199820D01*
X-10475000Y-9875000D02*
X-4799820Y-4199820D01*
X-11613714Y-12361286D02*
X-11613714Y-10338714D01*
X-11150000Y-9875000D02*
X-10475000Y-9875000D01*
D20*
X-15700000Y-9200000D02*
X-13900000Y-9200000D01*
X-7282000Y-13718000D02*
X-7510000Y-13490000D01*
X-7282000Y-23356000D02*
X-7282000Y-13718000D01*
X-6030000Y-13458690D02*
X-6743399Y-13458690D01*
X-6774709Y-13490000D02*
X-6771177Y-13486468D01*
X-6743399Y-13458690D02*
X-6771177Y-13486468D01*
X-7510000Y-13490000D02*
X-6774709Y-13490000D01*
X-13400000Y-13490000D02*
X-7510000Y-13490000D01*
X-13900000Y-12990000D02*
X-13400000Y-13490000D01*
X-13900000Y-9200000D02*
X-13900000Y-12990000D01*
D21*
X-196000Y-27146000D02*
X1936000Y-27146000D01*
X-1800000Y-28750000D02*
X-196000Y-27146000D01*
X-2802000Y-28750000D02*
X-1800000Y-28750000D01*
X-7282000Y-24270000D02*
X-2802000Y-28750000D01*
X-7282000Y-23356000D02*
X-7282000Y-24270000D01*
D22*
X-15875000Y7620000D02*
X-14478000Y7620000D01*
D19*
X-14478000Y7620000D02*
X-15240000Y7620000D01*
X1008012Y-900000D02*
X-3850000Y-900000D01*
X5440000Y2090000D02*
X3998012Y2090000D01*
X5741310Y2391310D02*
X5440000Y2090000D01*
X3998012Y2090000D02*
X1008012Y-900000D01*
X7180423Y4356421D02*
X6490303Y3666301D01*
X-3850000Y-900000D02*
X-12370000Y7620000D01*
X6252175Y3666301D02*
X5741310Y3155436D01*
X6490303Y3666301D02*
X6252175Y3666301D01*
X-12370000Y7620000D02*
X-14478000Y7620000D01*
X5741310Y3155436D02*
X5741310Y2391310D01*
D22*
X11011092Y13000000D02*
X11400000Y13000000D01*
X7325000Y4500998D02*
X7325000Y9313908D01*
X7325000Y9313908D02*
X11011092Y13000000D01*
X7180423Y4356421D02*
X7325000Y4500998D01*
X-859000Y4351000D02*
X-1860000Y3350000D01*
X-373908Y8704000D02*
X-859000Y8218908D01*
X-859000Y8218908D02*
X-859000Y4351000D01*
X15000Y8704000D02*
X-373908Y8704000D01*
X-264000Y7665000D02*
X-264000Y4172000D01*
X-264000Y4172000D02*
X471000Y3437000D01*
D19*
X221817Y-8363000D02*
X616280Y-7968537D01*
X-2106012Y-8363000D02*
X221817Y-8363000D01*
X-3052435Y-9309423D02*
X-2106012Y-8363000D01*
X-6450230Y-9309423D02*
X-3052435Y-9309423D01*
X8608699Y-7513367D02*
X9089455Y-7032611D01*
X8608699Y-13333699D02*
X8608699Y-7513367D01*
X10150000Y-14875000D02*
X8608699Y-13333699D01*
X10150000Y-20047662D02*
X10150000Y-14875000D01*
X8718826Y-21478836D02*
X10150000Y-20047662D01*
X8150000Y-15750000D02*
X7350000Y-16550000D01*
X8150000Y-7100000D02*
X8150000Y-15750000D01*
X9050000Y-6200000D02*
X8150000Y-7100000D01*
X5259317Y-308699D02*
X7640223Y-308699D01*
X9050000Y-1718476D02*
X9050000Y-6200000D01*
X7640223Y-308699D02*
X9050000Y-1718476D01*
X4925309Y25309D02*
X5259317Y-308699D01*
D22*
X-1439207Y7763814D02*
X-1439207Y5235791D01*
X-1439207Y5235791D02*
X-1734996Y4940002D01*
D23*
X8730691Y1269309D02*
X7566833Y1269309D01*
X12164794Y-2164794D02*
X8730691Y1269309D01*
X12164794Y-11235206D02*
X12164794Y-2164794D01*
X11750000Y-11650000D02*
X12164794Y-11235206D01*
X14975000Y-17825000D02*
X14975000Y-14875000D01*
X14590000Y-18210000D02*
X14975000Y-17825000D01*
X13010000Y-18210000D02*
X14590000Y-18210000D01*
X12736738Y-17936738D02*
X13010000Y-18210000D01*
X11750000Y-14033434D02*
X12736738Y-15020172D01*
X12736738Y-15020172D02*
X12736738Y-17936738D01*
X11750000Y-11650000D02*
X11750000Y-14033434D01*
X8711505Y588495D02*
X7384558Y588495D01*
X11013260Y-1713260D02*
X8711505Y588495D01*
X11013260Y-10734401D02*
X11013260Y-1713260D01*
X11288259Y-11009400D02*
X11013260Y-10734401D01*
D22*
X15970000Y11000000D02*
X15975000Y11000000D01*
X15975000Y11875000D02*
X15975000Y10975000D01*
X13650000Y12125000D02*
X15725000Y12125000D01*
X11975000Y13800000D02*
X13650000Y12125000D01*
X15725000Y12125000D02*
X15975000Y11875000D01*
X11011092Y13800000D02*
X11975000Y13800000D01*
X6850000Y5325000D02*
X6850000Y9638908D01*
X6850000Y9638908D02*
X11011092Y13800000D01*
X6500000Y4975000D02*
X6850000Y5325000D01*
X6500000Y4530239D02*
X6500000Y4975000D01*
X6499809Y4530048D02*
X6500000Y4530239D01*
D24*
X12550000Y-13875000D02*
X12550000Y1400000D01*
X13400000Y-14725000D02*
X12550000Y-13875000D01*
X13400000Y-17470000D02*
X13400000Y-14725000D01*
X12550000Y1400000D02*
X10900000Y3050000D01*
D19*
X-1098000Y-10872000D02*
X-507000Y-11463000D01*
X-2767819Y-10872000D02*
X-1098000Y-10872000D01*
X-8500000Y-10700000D02*
X-7975000Y-11225000D01*
X-8500000Y-9543884D02*
X-8500000Y-10700000D01*
X-7745265Y-8789149D02*
X-8500000Y-9543884D01*
X-7170265Y-8789149D02*
X-7745265Y-8789149D01*
X-7975000Y-11225000D02*
X-3120819Y-11225000D01*
X-6379941Y-7998825D02*
X-7170265Y-8789149D01*
X-3120819Y-11225000D02*
X-2767819Y-10872000D01*
X-5893663Y-7998825D02*
X-6379941Y-7998825D01*
D23*
X-10750000Y-10700000D02*
X-10900000Y-10700000D01*
X-7400000Y-7350000D02*
X-10750000Y-10700000D01*
X-6542488Y-7350000D02*
X-7400000Y-7350000D01*
X-5893663Y-7998825D02*
X-6542488Y-7350000D01*
D19*
X2597002Y-25697002D02*
X2597002Y-27541997D01*
X1200000Y-24300000D02*
X2597002Y-25697002D01*
X1200000Y-11161000D02*
X1200000Y-24300000D01*
X997000Y-10958000D02*
X1200000Y-11161000D01*
X-507000Y-11463000D02*
X-2000Y-10958000D01*
X2597002Y-27541997D02*
X2106482Y-28032517D01*
X-2000Y-10958000D02*
X997000Y-10958000D01*
X5957274Y1720000D02*
X6315004Y2077730D01*
X4145000Y1720000D02*
X5957274Y1720000D01*
X1075000Y-1350000D02*
X4145000Y1720000D01*
X-990000Y-1350000D02*
X1075000Y-1350000D01*
X-1300000Y-1660000D02*
X-990000Y-1350000D01*
X-1300000Y-2320000D02*
X-1300000Y-1660000D01*
X-5893663Y-6913663D02*
X-1300000Y-2320000D01*
X-5893663Y-7998825D02*
X-5893663Y-6913663D01*
X613690Y-11520087D02*
X613690Y-25140900D01*
X613690Y-25140900D02*
X-2065000Y-27819590D01*
X-2689874Y-12096000D02*
X-3135874Y-11650000D01*
X613690Y-11520087D02*
X37777Y-12096000D01*
X-3135874Y-11650000D02*
X-10899996Y-11650000D01*
X37777Y-12096000D02*
X-2689874Y-12096000D01*
D23*
X-10899996Y-11449996D02*
X-10899996Y-11650000D01*
X-7537620Y-8087620D02*
X-10899996Y-11449996D01*
X-7223666Y-8087620D02*
X-7537620Y-8087620D01*
D19*
X7824003Y-2024003D02*
X7322630Y-2024003D01*
X8350000Y-2550000D02*
X7824003Y-2024003D01*
X8350000Y-5760000D02*
X8350000Y-2550000D01*
X6010000Y-8100000D02*
X8350000Y-5760000D01*
X5025000Y-8100000D02*
X6010000Y-8100000D01*
X-6100211Y-9689578D02*
X3435422Y-9689578D01*
X-6321294Y-9910661D02*
X-6100211Y-9689578D01*
X-6915111Y-9910661D02*
X-6321294Y-9910661D01*
X3435422Y-9689578D02*
X5025000Y-8100000D01*
X-7190110Y-9635662D02*
X-6915111Y-9910661D01*
X6948894Y-1458698D02*
X6566096Y-1841496D01*
X8008698Y-1458698D02*
X6948894Y-1458698D01*
X8700000Y-2150000D02*
X8008698Y-1458698D01*
X8700000Y-5950000D02*
X8700000Y-2150000D01*
X6150000Y-8500000D02*
X8700000Y-5950000D01*
X5250000Y-8500000D02*
X6150000Y-8500000D01*
X-5444789Y-10019789D02*
X3730211Y-10019789D01*
X-5775000Y-10350000D02*
X-5444789Y-10019789D01*
X3730211Y-10019789D02*
X5250000Y-8500000D01*
X-7450000Y-10350000D02*
X-5775000Y-10350000D01*
D23*
X14425000Y-9885554D02*
X13750000Y-9210554D01*
X14425000Y-15525000D02*
X14425000Y-9885554D01*
X13750000Y-9210554D02*
X13750000Y-1490000D01*
D22*
X15240000Y0D02*
X14605000Y-635000D01*
X15875000Y0D02*
X15240000Y0D01*
D23*
X13750000Y-1490000D02*
X14605000Y-635000D01*
X13175000Y-9365000D02*
X13175000Y475000D01*
X13825000Y-10015000D02*
X13175000Y-9365000D01*
X13825000Y-15900000D02*
X13825000Y-10015000D01*
X14425000Y-16500000D02*
X13825000Y-15900000D01*
D22*
X15240000Y2540000D02*
X14478000Y1778000D01*
X15875000Y2540000D02*
X15240000Y2540000D01*
D23*
X13175000Y475000D02*
X14478000Y1778000D01*
X4643126Y726874D02*
X4843653Y927401D01*
X10625001Y-11525001D02*
X10900000Y-11800000D01*
X4843653Y927401D02*
X6197599Y927401D01*
X8593196Y32612D02*
X10625001Y-1999193D01*
X6197599Y927401D02*
X7092388Y32612D01*
X7092388Y32612D02*
X8593196Y32612D01*
X10625001Y-1999193D02*
X10625001Y-11525001D01*
D24*
X10700000Y-20111092D02*
X10700000Y-20500000D01*
X10700000Y-16660000D02*
X10700000Y-20111092D01*
D23*
X10700000Y-12000000D02*
X10900000Y-11800000D01*
X10700000Y-16660000D02*
X10700000Y-12000000D01*
D19*
X-9670982Y-7784913D02*
X-9172516Y-7784913D01*
X-13073000Y-12533000D02*
X-13073000Y-11186931D01*
X-13073000Y-11186931D02*
X-9670982Y-7784913D01*
D22*
X15875000Y5080000D02*
X14732000Y5080000D01*
D19*
X15240000Y5080000D02*
X14732000Y5080000D01*
X9617187Y5080000D02*
X6831314Y2294127D01*
X3630000Y588012D02*
X3630000Y-5720075D01*
X6460000Y1300000D02*
X4341988Y1300000D01*
X4341988Y1300000D02*
X3630000Y588012D01*
X6831314Y1671314D02*
X6460000Y1300000D01*
X6831314Y2294127D02*
X6831314Y1671314D01*
X14732000Y5080000D02*
X9617187Y5080000D01*
X3630000Y-5720075D02*
X1315590Y-8034485D01*
X8790001Y-17390001D02*
X9065000Y-17665000D01*
X4340001Y-17390001D02*
X8790001Y-17390001D01*
X3356301Y-16406301D02*
X4340001Y-17390001D01*
X3356301Y-10906301D02*
X3356301Y-16406301D01*
X2820000Y-10370000D02*
X3356301Y-10906301D01*
X-3021039Y-8783698D02*
X-6692852Y-8783698D01*
X-1920223Y-7682882D02*
X-3021039Y-8783698D01*
X-6692852Y-8783698D02*
X-7028514Y-9119360D01*
X-5804789Y-10894789D02*
X-5280000Y-10370000D01*
X-7028514Y-9119360D02*
X-7608488Y-9119360D01*
X-7688223Y-10894789D02*
X-5804789Y-10894789D01*
X-7608488Y-9119360D02*
X-8066302Y-9577174D01*
X-8066302Y-9577174D02*
X-8066302Y-10516710D01*
X-5280000Y-10370000D02*
X2820000Y-10370000D01*
X-8066302Y-10516710D02*
X-7688223Y-10894789D01*
D23*
X16325001Y-25325000D02*
X14729126Y-25325000D01*
X14728383Y-25325073D01*
X14727575Y-25325076D01*
X14709107Y-25326952D01*
X14690537Y-25326822D01*
X14684631Y-25327401D01*
X14102342Y-25388602D01*
X14064640Y-25396341D01*
X14026771Y-25403565D01*
X14021090Y-25405281D01*
X13461777Y-25578418D01*
X13426319Y-25593323D01*
X13390552Y-25607774D01*
X13385313Y-25610560D01*
X12870281Y-25889036D01*
X12838355Y-25910570D01*
X12806114Y-25931668D01*
X12801516Y-25935419D01*
X12350383Y-26308629D01*
X12323264Y-26335938D01*
X12295719Y-26362912D01*
X12291937Y-26367484D01*
X11921885Y-26821212D01*
X11900583Y-26853274D01*
X11878805Y-26885079D01*
X11875983Y-26890300D01*
X11601109Y-27407264D01*
X11586447Y-27442837D01*
X11571255Y-27478282D01*
X11569501Y-27483951D01*
X11400274Y-28044459D01*
X11392794Y-28082237D01*
X11384783Y-28119923D01*
X11384163Y-28125824D01*
X11327028Y-28708527D01*
X11327028Y-28708546D01*
X11325001Y-28729126D01*
X11325000Y-30075000D01*
X2835353Y-30075000D01*
X2850000Y-30001361D01*
X2850000Y-29843775D01*
X2819257Y-29689217D01*
X2758951Y-29543626D01*
X2671401Y-29412598D01*
X2559970Y-29301167D01*
X2428942Y-29213617D01*
X2283351Y-29153311D01*
X2128793Y-29122568D01*
X1971207Y-29122568D01*
X1816649Y-29153311D01*
X1671058Y-29213617D01*
X1540030Y-29301167D01*
X1428599Y-29412598D01*
X1341049Y-29543626D01*
X1280743Y-29689217D01*
X1250000Y-29843775D01*
X1250000Y-30001361D01*
X1264647Y-30075000D01*
X-1569136Y-30075000D01*
X-1550000Y-29978793D01*
X-1550000Y-29821207D01*
X-1580743Y-29666649D01*
X-1641049Y-29521058D01*
X-1680690Y-29461732D01*
X-1658855Y-29459581D01*
X-1523135Y-29418411D01*
X-1398054Y-29351554D01*
X-1288420Y-29261580D01*
X-1265872Y-29234105D01*
X-881767Y-28850000D01*
X2000000Y-28850000D01*
X2019509Y-28848079D01*
X2038268Y-28842388D01*
X2055557Y-28833147D01*
X2070711Y-28820711D01*
X2083147Y-28805557D01*
X2092388Y-28788268D01*
X2098079Y-28769509D01*
X2100000Y-28750000D01*
X2100000Y-28707517D01*
X2172964Y-28707517D01*
X2303372Y-28681577D01*
X2426214Y-28630694D01*
X2536769Y-28556824D01*
X2630789Y-28462804D01*
X2704659Y-28352249D01*
X2755542Y-28229407D01*
X2781482Y-28098999D01*
X2781482Y-28048926D01*
X2859201Y-27971207D01*
X4050000Y-27971207D01*
X4050000Y-28128793D01*
X4080743Y-28283351D01*
X4141049Y-28428942D01*
X4228599Y-28559970D01*
X4340030Y-28671401D01*
X4471058Y-28758951D01*
X4616649Y-28819257D01*
X4771207Y-28850000D01*
X4928793Y-28850000D01*
X5083351Y-28819257D01*
X5228942Y-28758951D01*
X5359970Y-28671401D01*
X5471401Y-28559970D01*
X5558951Y-28428942D01*
X5619257Y-28283351D01*
X5650000Y-28128793D01*
X5650000Y-27971207D01*
X5619257Y-27816649D01*
X5558951Y-27671058D01*
X5471401Y-27540030D01*
X5359970Y-27428599D01*
X5228942Y-27341049D01*
X5083351Y-27280743D01*
X4928793Y-27250000D01*
X4771207Y-27250000D01*
X4616649Y-27280743D01*
X4471058Y-27341049D01*
X4340030Y-27428599D01*
X4228599Y-27540030D01*
X4141049Y-27671058D01*
X4080743Y-27816649D01*
X4050000Y-27971207D01*
X2859201Y-27971207D01*
X2925726Y-27904682D01*
X2944379Y-27889374D01*
X3005474Y-27814929D01*
X3050872Y-27729996D01*
X3075665Y-27648262D01*
X3078827Y-27637839D01*
X3088267Y-27541998D01*
X3085902Y-27517987D01*
X3085902Y-25721012D01*
X3088267Y-25697001D01*
X3078827Y-25601160D01*
X3062659Y-25547860D01*
X3052242Y-25513518D01*
X7285000Y-25513518D01*
X7285000Y-25646482D01*
X7310940Y-25776890D01*
X7361823Y-25899732D01*
X7435693Y-26010287D01*
X7529713Y-26104307D01*
X7640268Y-26178177D01*
X7763110Y-26229060D01*
X7893518Y-26255000D01*
X8026482Y-26255000D01*
X8156890Y-26229060D01*
X8279732Y-26178177D01*
X8320000Y-26151271D01*
X8360268Y-26178177D01*
X8483110Y-26229060D01*
X8613518Y-26255000D01*
X8746482Y-26255000D01*
X8876890Y-26229060D01*
X8999732Y-26178177D01*
X9080000Y-26124544D01*
X9160268Y-26178177D01*
X9283110Y-26229060D01*
X9413518Y-26255000D01*
X9546482Y-26255000D01*
X9676890Y-26229060D01*
X9799732Y-26178177D01*
X9910287Y-26104307D01*
X10004307Y-26010287D01*
X10078177Y-25899732D01*
X10129060Y-25776890D01*
X10155000Y-25646482D01*
X10155000Y-25513518D01*
X10129060Y-25383110D01*
X10078177Y-25260268D01*
X10004307Y-25149713D01*
X9910287Y-25055693D01*
X9799732Y-24981823D01*
X9676890Y-24930940D01*
X9546482Y-24905000D01*
X9413518Y-24905000D01*
X9283110Y-24930940D01*
X9160268Y-24981823D01*
X9080000Y-25035456D01*
X8999732Y-24981823D01*
X8876890Y-24930940D01*
X8746482Y-24905000D01*
X8613518Y-24905000D01*
X8483110Y-24930940D01*
X8360268Y-24981823D01*
X8320000Y-25008729D01*
X8279732Y-24981823D01*
X8156890Y-24930940D01*
X8026482Y-24905000D01*
X7893518Y-24905000D01*
X7763110Y-24930940D01*
X7640268Y-24981823D01*
X7529713Y-25055693D01*
X7435693Y-25149713D01*
X7361823Y-25260268D01*
X7310940Y-25383110D01*
X7285000Y-25513518D01*
X3052242Y-25513518D01*
X3050872Y-25509003D01*
X3005474Y-25424070D01*
X2944379Y-25349625D01*
X2925726Y-25334317D01*
X1688900Y-24097492D01*
X1688900Y-11185010D01*
X1691265Y-11160999D01*
X1681825Y-11065158D01*
X1666164Y-11013530D01*
X1653870Y-10973001D01*
X1608472Y-10888068D01*
X1584535Y-10858900D01*
X2617492Y-10858900D01*
X2867401Y-11108810D01*
X2867402Y-16382280D01*
X2865036Y-16406301D01*
X2874476Y-16502142D01*
X2898646Y-16581818D01*
X2902432Y-16594300D01*
X2947830Y-16679233D01*
X3008925Y-16753678D01*
X3027578Y-16768986D01*
X3977316Y-17718725D01*
X3992624Y-17737378D01*
X4067069Y-17798473D01*
X4116699Y-17825001D01*
X4152001Y-17843871D01*
X4244159Y-17871826D01*
X4340001Y-17881266D01*
X4364012Y-17878901D01*
X8422986Y-17878901D01*
X8466823Y-17984732D01*
X8540693Y-18095287D01*
X8634713Y-18189307D01*
X8745268Y-18263177D01*
X8868110Y-18314060D01*
X8998518Y-18340000D01*
X9131482Y-18340000D01*
X9261890Y-18314060D01*
X9384732Y-18263177D01*
X9495287Y-18189307D01*
X9589307Y-18095287D01*
X9661100Y-17987840D01*
X9661100Y-19845153D01*
X8702418Y-20803836D01*
X8652344Y-20803836D01*
X8521936Y-20829776D01*
X8399094Y-20880659D01*
X8288539Y-20954529D01*
X8194519Y-21048549D01*
X8120649Y-21159104D01*
X8069766Y-21281946D01*
X8043826Y-21412354D01*
X8043826Y-21545318D01*
X8069766Y-21675726D01*
X8120649Y-21798568D01*
X8194519Y-21909123D01*
X8288539Y-22003143D01*
X8399094Y-22077013D01*
X8521936Y-22127896D01*
X8652344Y-22153836D01*
X8785308Y-22153836D01*
X8915716Y-22127896D01*
X9038558Y-22077013D01*
X9149113Y-22003143D01*
X9243133Y-21909123D01*
X9317003Y-21798568D01*
X9367886Y-21675726D01*
X9393826Y-21545318D01*
X9393826Y-21495244D01*
X10092309Y-20796762D01*
X10101823Y-20819732D01*
X10175693Y-20930287D01*
X10269713Y-21024307D01*
X10380268Y-21098177D01*
X10503110Y-21149060D01*
X10633518Y-21175000D01*
X10766482Y-21175000D01*
X10896890Y-21149060D01*
X11019732Y-21098177D01*
X11130287Y-21024307D01*
X11172066Y-20982528D01*
X11218361Y-21051814D01*
X11448186Y-21281639D01*
X11718432Y-21462211D01*
X12018713Y-21586592D01*
X12337489Y-21650000D01*
X12662511Y-21650000D01*
X12981287Y-21586592D01*
X13281568Y-21462211D01*
X13551814Y-21281639D01*
X13781639Y-21051814D01*
X13962211Y-20781568D01*
X14086592Y-20481287D01*
X14150000Y-20162511D01*
X14150000Y-19837489D01*
X14086592Y-19518713D01*
X13962211Y-19218432D01*
X13781639Y-18948186D01*
X13551814Y-18718361D01*
X13539301Y-18710000D01*
X14565440Y-18710000D01*
X14590000Y-18712419D01*
X14614560Y-18710000D01*
X14688017Y-18702765D01*
X14782267Y-18674175D01*
X14869129Y-18627746D01*
X14945264Y-18565264D01*
X14960928Y-18546177D01*
X15311186Y-18195921D01*
X15330264Y-18180264D01*
X15392746Y-18104129D01*
X15438926Y-18017733D01*
X15439174Y-18017269D01*
X15439175Y-18017266D01*
X15467765Y-17923017D01*
X15475000Y-17849560D01*
X15475000Y-17849559D01*
X15477419Y-17825001D01*
X15475000Y-17800443D01*
X15475000Y-15329594D01*
X15499307Y-15305287D01*
X15573177Y-15194732D01*
X15624060Y-15071890D01*
X15650000Y-14941482D01*
X15650000Y-14808518D01*
X15624060Y-14678110D01*
X15573177Y-14555268D01*
X15499307Y-14444713D01*
X15405287Y-14350693D01*
X15294732Y-14276823D01*
X15171890Y-14225940D01*
X15041482Y-14200000D01*
X14925000Y-14200000D01*
X14925000Y-9910111D01*
X14927419Y-9885553D01*
X14924596Y-9856889D01*
X14917765Y-9787537D01*
X14907298Y-9753031D01*
X14950287Y-9724307D01*
X15044307Y-9630287D01*
X15118177Y-9519732D01*
X15169060Y-9396890D01*
X15195000Y-9266482D01*
X15195000Y-9133518D01*
X15169060Y-9003110D01*
X15118177Y-8880268D01*
X15112609Y-8871935D01*
X16325001Y-8871935D01*
X16325001Y-25325000D01*
G04 #@! TA.AperFunction,Conductor*
D25*
G36*
X16325001Y-25325000D02*
G01*
X14729126Y-25325000D01*
X14728383Y-25325073D01*
X14727575Y-25325076D01*
X14709107Y-25326952D01*
X14690537Y-25326822D01*
X14684631Y-25327401D01*
X14102342Y-25388602D01*
X14064640Y-25396341D01*
X14026771Y-25403565D01*
X14021090Y-25405281D01*
X13461777Y-25578418D01*
X13426319Y-25593323D01*
X13390552Y-25607774D01*
X13385313Y-25610560D01*
X12870281Y-25889036D01*
X12838355Y-25910570D01*
X12806114Y-25931668D01*
X12801516Y-25935419D01*
X12350383Y-26308629D01*
X12323264Y-26335938D01*
X12295719Y-26362912D01*
X12291937Y-26367484D01*
X11921885Y-26821212D01*
X11900583Y-26853274D01*
X11878805Y-26885079D01*
X11875983Y-26890300D01*
X11601109Y-27407264D01*
X11586447Y-27442837D01*
X11571255Y-27478282D01*
X11569501Y-27483951D01*
X11400274Y-28044459D01*
X11392794Y-28082237D01*
X11384783Y-28119923D01*
X11384163Y-28125824D01*
X11327028Y-28708527D01*
X11327028Y-28708546D01*
X11325001Y-28729126D01*
X11325000Y-30075000D01*
X2835353Y-30075000D01*
X2850000Y-30001361D01*
X2850000Y-29843775D01*
X2819257Y-29689217D01*
X2758951Y-29543626D01*
X2671401Y-29412598D01*
X2559970Y-29301167D01*
X2428942Y-29213617D01*
X2283351Y-29153311D01*
X2128793Y-29122568D01*
X1971207Y-29122568D01*
X1816649Y-29153311D01*
X1671058Y-29213617D01*
X1540030Y-29301167D01*
X1428599Y-29412598D01*
X1341049Y-29543626D01*
X1280743Y-29689217D01*
X1250000Y-29843775D01*
X1250000Y-30001361D01*
X1264647Y-30075000D01*
X-1569136Y-30075000D01*
X-1550000Y-29978793D01*
X-1550000Y-29821207D01*
X-1580743Y-29666649D01*
X-1641049Y-29521058D01*
X-1680690Y-29461732D01*
X-1658855Y-29459581D01*
X-1523135Y-29418411D01*
X-1398054Y-29351554D01*
X-1288420Y-29261580D01*
X-1265872Y-29234105D01*
X-881767Y-28850000D01*
X2000000Y-28850000D01*
X2019509Y-28848079D01*
X2038268Y-28842388D01*
X2055557Y-28833147D01*
X2070711Y-28820711D01*
X2083147Y-28805557D01*
X2092388Y-28788268D01*
X2098079Y-28769509D01*
X2100000Y-28750000D01*
X2100000Y-28707517D01*
X2172964Y-28707517D01*
X2303372Y-28681577D01*
X2426214Y-28630694D01*
X2536769Y-28556824D01*
X2630789Y-28462804D01*
X2704659Y-28352249D01*
X2755542Y-28229407D01*
X2781482Y-28098999D01*
X2781482Y-28048926D01*
X2859201Y-27971207D01*
X4050000Y-27971207D01*
X4050000Y-28128793D01*
X4080743Y-28283351D01*
X4141049Y-28428942D01*
X4228599Y-28559970D01*
X4340030Y-28671401D01*
X4471058Y-28758951D01*
X4616649Y-28819257D01*
X4771207Y-28850000D01*
X4928793Y-28850000D01*
X5083351Y-28819257D01*
X5228942Y-28758951D01*
X5359970Y-28671401D01*
X5471401Y-28559970D01*
X5558951Y-28428942D01*
X5619257Y-28283351D01*
X5650000Y-28128793D01*
X5650000Y-27971207D01*
X5619257Y-27816649D01*
X5558951Y-27671058D01*
X5471401Y-27540030D01*
X5359970Y-27428599D01*
X5228942Y-27341049D01*
X5083351Y-27280743D01*
X4928793Y-27250000D01*
X4771207Y-27250000D01*
X4616649Y-27280743D01*
X4471058Y-27341049D01*
X4340030Y-27428599D01*
X4228599Y-27540030D01*
X4141049Y-27671058D01*
X4080743Y-27816649D01*
X4050000Y-27971207D01*
X2859201Y-27971207D01*
X2925726Y-27904682D01*
X2944379Y-27889374D01*
X3005474Y-27814929D01*
X3050872Y-27729996D01*
X3075665Y-27648262D01*
X3078827Y-27637839D01*
X3088267Y-27541998D01*
X3085902Y-27517987D01*
X3085902Y-25721012D01*
X3088267Y-25697001D01*
X3078827Y-25601160D01*
X3062659Y-25547860D01*
X3052242Y-25513518D01*
X7285000Y-25513518D01*
X7285000Y-25646482D01*
X7310940Y-25776890D01*
X7361823Y-25899732D01*
X7435693Y-26010287D01*
X7529713Y-26104307D01*
X7640268Y-26178177D01*
X7763110Y-26229060D01*
X7893518Y-26255000D01*
X8026482Y-26255000D01*
X8156890Y-26229060D01*
X8279732Y-26178177D01*
X8320000Y-26151271D01*
X8360268Y-26178177D01*
X8483110Y-26229060D01*
X8613518Y-26255000D01*
X8746482Y-26255000D01*
X8876890Y-26229060D01*
X8999732Y-26178177D01*
X9080000Y-26124544D01*
X9160268Y-26178177D01*
X9283110Y-26229060D01*
X9413518Y-26255000D01*
X9546482Y-26255000D01*
X9676890Y-26229060D01*
X9799732Y-26178177D01*
X9910287Y-26104307D01*
X10004307Y-26010287D01*
X10078177Y-25899732D01*
X10129060Y-25776890D01*
X10155000Y-25646482D01*
X10155000Y-25513518D01*
X10129060Y-25383110D01*
X10078177Y-25260268D01*
X10004307Y-25149713D01*
X9910287Y-25055693D01*
X9799732Y-24981823D01*
X9676890Y-24930940D01*
X9546482Y-24905000D01*
X9413518Y-24905000D01*
X9283110Y-24930940D01*
X9160268Y-24981823D01*
X9080000Y-25035456D01*
X8999732Y-24981823D01*
X8876890Y-24930940D01*
X8746482Y-24905000D01*
X8613518Y-24905000D01*
X8483110Y-24930940D01*
X8360268Y-24981823D01*
X8320000Y-25008729D01*
X8279732Y-24981823D01*
X8156890Y-24930940D01*
X8026482Y-24905000D01*
X7893518Y-24905000D01*
X7763110Y-24930940D01*
X7640268Y-24981823D01*
X7529713Y-25055693D01*
X7435693Y-25149713D01*
X7361823Y-25260268D01*
X7310940Y-25383110D01*
X7285000Y-25513518D01*
X3052242Y-25513518D01*
X3050872Y-25509003D01*
X3005474Y-25424070D01*
X2944379Y-25349625D01*
X2925726Y-25334317D01*
X1688900Y-24097492D01*
X1688900Y-11185010D01*
X1691265Y-11160999D01*
X1681825Y-11065158D01*
X1666164Y-11013530D01*
X1653870Y-10973001D01*
X1608472Y-10888068D01*
X1584535Y-10858900D01*
X2617492Y-10858900D01*
X2867401Y-11108810D01*
X2867402Y-16382280D01*
X2865036Y-16406301D01*
X2874476Y-16502142D01*
X2898646Y-16581818D01*
X2902432Y-16594300D01*
X2947830Y-16679233D01*
X3008925Y-16753678D01*
X3027578Y-16768986D01*
X3977316Y-17718725D01*
X3992624Y-17737378D01*
X4067069Y-17798473D01*
X4116699Y-17825001D01*
X4152001Y-17843871D01*
X4244159Y-17871826D01*
X4340001Y-17881266D01*
X4364012Y-17878901D01*
X8422986Y-17878901D01*
X8466823Y-17984732D01*
X8540693Y-18095287D01*
X8634713Y-18189307D01*
X8745268Y-18263177D01*
X8868110Y-18314060D01*
X8998518Y-18340000D01*
X9131482Y-18340000D01*
X9261890Y-18314060D01*
X9384732Y-18263177D01*
X9495287Y-18189307D01*
X9589307Y-18095287D01*
X9661100Y-17987840D01*
X9661100Y-19845153D01*
X8702418Y-20803836D01*
X8652344Y-20803836D01*
X8521936Y-20829776D01*
X8399094Y-20880659D01*
X8288539Y-20954529D01*
X8194519Y-21048549D01*
X8120649Y-21159104D01*
X8069766Y-21281946D01*
X8043826Y-21412354D01*
X8043826Y-21545318D01*
X8069766Y-21675726D01*
X8120649Y-21798568D01*
X8194519Y-21909123D01*
X8288539Y-22003143D01*
X8399094Y-22077013D01*
X8521936Y-22127896D01*
X8652344Y-22153836D01*
X8785308Y-22153836D01*
X8915716Y-22127896D01*
X9038558Y-22077013D01*
X9149113Y-22003143D01*
X9243133Y-21909123D01*
X9317003Y-21798568D01*
X9367886Y-21675726D01*
X9393826Y-21545318D01*
X9393826Y-21495244D01*
X10092309Y-20796762D01*
X10101823Y-20819732D01*
X10175693Y-20930287D01*
X10269713Y-21024307D01*
X10380268Y-21098177D01*
X10503110Y-21149060D01*
X10633518Y-21175000D01*
X10766482Y-21175000D01*
X10896890Y-21149060D01*
X11019732Y-21098177D01*
X11130287Y-21024307D01*
X11172066Y-20982528D01*
X11218361Y-21051814D01*
X11448186Y-21281639D01*
X11718432Y-21462211D01*
X12018713Y-21586592D01*
X12337489Y-21650000D01*
X12662511Y-21650000D01*
X12981287Y-21586592D01*
X13281568Y-21462211D01*
X13551814Y-21281639D01*
X13781639Y-21051814D01*
X13962211Y-20781568D01*
X14086592Y-20481287D01*
X14150000Y-20162511D01*
X14150000Y-19837489D01*
X14086592Y-19518713D01*
X13962211Y-19218432D01*
X13781639Y-18948186D01*
X13551814Y-18718361D01*
X13539301Y-18710000D01*
X14565440Y-18710000D01*
X14590000Y-18712419D01*
X14614560Y-18710000D01*
X14688017Y-18702765D01*
X14782267Y-18674175D01*
X14869129Y-18627746D01*
X14945264Y-18565264D01*
X14960928Y-18546177D01*
X15311186Y-18195921D01*
X15330264Y-18180264D01*
X15392746Y-18104129D01*
X15438926Y-18017733D01*
X15439174Y-18017269D01*
X15439175Y-18017266D01*
X15467765Y-17923017D01*
X15475000Y-17849560D01*
X15475000Y-17849559D01*
X15477419Y-17825001D01*
X15475000Y-17800443D01*
X15475000Y-15329594D01*
X15499307Y-15305287D01*
X15573177Y-15194732D01*
X15624060Y-15071890D01*
X15650000Y-14941482D01*
X15650000Y-14808518D01*
X15624060Y-14678110D01*
X15573177Y-14555268D01*
X15499307Y-14444713D01*
X15405287Y-14350693D01*
X15294732Y-14276823D01*
X15171890Y-14225940D01*
X15041482Y-14200000D01*
X14925000Y-14200000D01*
X14925000Y-9910111D01*
X14927419Y-9885553D01*
X14924596Y-9856889D01*
X14917765Y-9787537D01*
X14907298Y-9753031D01*
X14950287Y-9724307D01*
X15044307Y-9630287D01*
X15118177Y-9519732D01*
X15169060Y-9396890D01*
X15195000Y-9266482D01*
X15195000Y-9133518D01*
X15169060Y-9003110D01*
X15118177Y-8880268D01*
X15112609Y-8871935D01*
X16325001Y-8871935D01*
X16325001Y-25325000D01*
G37*
G04 #@! TD.AperFunction*
D23*
X-16232895Y-9732895D02*
X-16118693Y-9826619D01*
X-15988401Y-9896261D01*
X-15847026Y-9939147D01*
X-15736835Y-9950000D01*
X-14650000Y-9950000D01*
X-14649999Y-12953163D01*
X-14653627Y-12990000D01*
X-14639147Y-13137025D01*
X-14596261Y-13278400D01*
X-14566703Y-13333699D01*
X-14526618Y-13408693D01*
X-14502567Y-13437999D01*
X-14456376Y-13494283D01*
X-14456373Y-13494286D01*
X-14432894Y-13522895D01*
X-14404285Y-13546374D01*
X-13956379Y-13994280D01*
X-13932895Y-14022895D01*
X-13818693Y-14116619D01*
X-13688401Y-14186261D01*
X-13547026Y-14229147D01*
X-13436835Y-14240000D01*
X-13436828Y-14240000D01*
X-13400000Y-14243627D01*
X-13363172Y-14240000D01*
X-8031999Y-14240000D01*
X-8032000Y-23392834D01*
X-8021147Y-23503025D01*
X-8002000Y-23566144D01*
X-8002000Y-24234638D01*
X-8005483Y-24270000D01*
X-7991581Y-24411144D01*
X-7950411Y-24546864D01*
X-7906655Y-24628726D01*
X-7883553Y-24671946D01*
X-7793579Y-24781580D01*
X-7766109Y-24804124D01*
X-5370234Y-27200000D01*
X-5378793Y-27200000D01*
X-5533351Y-27230743D01*
X-5678942Y-27291049D01*
X-5809970Y-27378599D01*
X-5921401Y-27490030D01*
X-6008951Y-27621058D01*
X-6069257Y-27766649D01*
X-6100000Y-27921207D01*
X-6100000Y-28078793D01*
X-6069257Y-28233351D01*
X-6008951Y-28378942D01*
X-5921401Y-28509970D01*
X-5809970Y-28621401D01*
X-5678942Y-28708951D01*
X-5533351Y-28769257D01*
X-5378793Y-28800000D01*
X-5221207Y-28800000D01*
X-5066649Y-28769257D01*
X-4921058Y-28708951D01*
X-4790030Y-28621401D01*
X-4678599Y-28509970D01*
X-4591049Y-28378942D01*
X-4530743Y-28233351D01*
X-4500000Y-28078793D01*
X-4500000Y-28070234D01*
X-3336124Y-29234110D01*
X-3313580Y-29261580D01*
X-3203946Y-29351554D01*
X-3131962Y-29390030D01*
X-3078865Y-29418411D01*
X-3005279Y-29440733D01*
X-3058951Y-29521058D01*
X-3119257Y-29666649D01*
X-3150000Y-29821207D01*
X-3150000Y-29978793D01*
X-3130864Y-30075000D01*
X-11325000Y-30075000D01*
X-11325000Y-28729126D01*
X-11325073Y-28728383D01*
X-11325076Y-28727575D01*
X-11326952Y-28709107D01*
X-11326822Y-28690537D01*
X-11327401Y-28684631D01*
X-11388602Y-28102342D01*
X-11396341Y-28064640D01*
X-11403565Y-28026771D01*
X-11405281Y-28021090D01*
X-11578418Y-27461777D01*
X-11593323Y-27426319D01*
X-11607774Y-27390552D01*
X-11610560Y-27385313D01*
X-11889036Y-26870281D01*
X-11910570Y-26838355D01*
X-11931668Y-26806114D01*
X-11935419Y-26801516D01*
X-12308629Y-26350383D01*
X-12335938Y-26323264D01*
X-12362912Y-26295719D01*
X-12367484Y-26291937D01*
X-12821212Y-25921885D01*
X-12853274Y-25900583D01*
X-12885079Y-25878805D01*
X-12890300Y-25875983D01*
X-13407264Y-25601109D01*
X-13442837Y-25586447D01*
X-13478282Y-25571255D01*
X-13483951Y-25569501D01*
X-14044459Y-25400274D01*
X-14082237Y-25392794D01*
X-14119923Y-25384783D01*
X-14125824Y-25384163D01*
X-14708527Y-25327028D01*
X-14708536Y-25327028D01*
X-14729126Y-25325000D01*
X-16325000Y-25325000D01*
X-16325000Y-15137418D01*
X-16296888Y-15149062D01*
X-16166480Y-15175002D01*
X-16033516Y-15175002D01*
X-15903108Y-15149062D01*
X-15799997Y-15106352D01*
X-15696890Y-15149060D01*
X-15566482Y-15175000D01*
X-15433518Y-15175000D01*
X-15303110Y-15149060D01*
X-15180268Y-15098177D01*
X-15069713Y-15024307D01*
X-14975693Y-14930287D01*
X-14901823Y-14819732D01*
X-14850940Y-14696890D01*
X-14825000Y-14566482D01*
X-14825000Y-14433518D01*
X-14850940Y-14303110D01*
X-14901823Y-14180268D01*
X-14975693Y-14069713D01*
X-15069713Y-13975693D01*
X-15180268Y-13901823D01*
X-15303110Y-13850940D01*
X-15433518Y-13825000D01*
X-15566482Y-13825000D01*
X-15696890Y-13850940D01*
X-15800001Y-13893650D01*
X-15903108Y-13850942D01*
X-16033516Y-13825002D01*
X-16166480Y-13825002D01*
X-16296888Y-13850942D01*
X-16325000Y-13862586D01*
X-16325000Y-9620666D01*
X-16232895Y-9732895D01*
G04 #@! TA.AperFunction,Conductor*
D25*
G36*
X-16232895Y-9732895D02*
G01*
X-16118693Y-9826619D01*
X-15988401Y-9896261D01*
X-15847026Y-9939147D01*
X-15736835Y-9950000D01*
X-14650000Y-9950000D01*
X-14649999Y-12953163D01*
X-14653627Y-12990000D01*
X-14639147Y-13137025D01*
X-14596261Y-13278400D01*
X-14566703Y-13333699D01*
X-14526618Y-13408693D01*
X-14502567Y-13437999D01*
X-14456376Y-13494283D01*
X-14456373Y-13494286D01*
X-14432894Y-13522895D01*
X-14404285Y-13546374D01*
X-13956379Y-13994280D01*
X-13932895Y-14022895D01*
X-13818693Y-14116619D01*
X-13688401Y-14186261D01*
X-13547026Y-14229147D01*
X-13436835Y-14240000D01*
X-13436828Y-14240000D01*
X-13400000Y-14243627D01*
X-13363172Y-14240000D01*
X-8031999Y-14240000D01*
X-8032000Y-23392834D01*
X-8021147Y-23503025D01*
X-8002000Y-23566144D01*
X-8002000Y-24234638D01*
X-8005483Y-24270000D01*
X-7991581Y-24411144D01*
X-7950411Y-24546864D01*
X-7906655Y-24628726D01*
X-7883553Y-24671946D01*
X-7793579Y-24781580D01*
X-7766109Y-24804124D01*
X-5370234Y-27200000D01*
X-5378793Y-27200000D01*
X-5533351Y-27230743D01*
X-5678942Y-27291049D01*
X-5809970Y-27378599D01*
X-5921401Y-27490030D01*
X-6008951Y-27621058D01*
X-6069257Y-27766649D01*
X-6100000Y-27921207D01*
X-6100000Y-28078793D01*
X-6069257Y-28233351D01*
X-6008951Y-28378942D01*
X-5921401Y-28509970D01*
X-5809970Y-28621401D01*
X-5678942Y-28708951D01*
X-5533351Y-28769257D01*
X-5378793Y-28800000D01*
X-5221207Y-28800000D01*
X-5066649Y-28769257D01*
X-4921058Y-28708951D01*
X-4790030Y-28621401D01*
X-4678599Y-28509970D01*
X-4591049Y-28378942D01*
X-4530743Y-28233351D01*
X-4500000Y-28078793D01*
X-4500000Y-28070234D01*
X-3336124Y-29234110D01*
X-3313580Y-29261580D01*
X-3203946Y-29351554D01*
X-3131962Y-29390030D01*
X-3078865Y-29418411D01*
X-3005279Y-29440733D01*
X-3058951Y-29521058D01*
X-3119257Y-29666649D01*
X-3150000Y-29821207D01*
X-3150000Y-29978793D01*
X-3130864Y-30075000D01*
X-11325000Y-30075000D01*
X-11325000Y-28729126D01*
X-11325073Y-28728383D01*
X-11325076Y-28727575D01*
X-11326952Y-28709107D01*
X-11326822Y-28690537D01*
X-11327401Y-28684631D01*
X-11388602Y-28102342D01*
X-11396341Y-28064640D01*
X-11403565Y-28026771D01*
X-11405281Y-28021090D01*
X-11578418Y-27461777D01*
X-11593323Y-27426319D01*
X-11607774Y-27390552D01*
X-11610560Y-27385313D01*
X-11889036Y-26870281D01*
X-11910570Y-26838355D01*
X-11931668Y-26806114D01*
X-11935419Y-26801516D01*
X-12308629Y-26350383D01*
X-12335938Y-26323264D01*
X-12362912Y-26295719D01*
X-12367484Y-26291937D01*
X-12821212Y-25921885D01*
X-12853274Y-25900583D01*
X-12885079Y-25878805D01*
X-12890300Y-25875983D01*
X-13407264Y-25601109D01*
X-13442837Y-25586447D01*
X-13478282Y-25571255D01*
X-13483951Y-25569501D01*
X-14044459Y-25400274D01*
X-14082237Y-25392794D01*
X-14119923Y-25384783D01*
X-14125824Y-25384163D01*
X-14708527Y-25327028D01*
X-14708536Y-25327028D01*
X-14729126Y-25325000D01*
X-16325000Y-25325000D01*
X-16325000Y-15137418D01*
X-16296888Y-15149062D01*
X-16166480Y-15175002D01*
X-16033516Y-15175002D01*
X-15903108Y-15149062D01*
X-15799997Y-15106352D01*
X-15696890Y-15149060D01*
X-15566482Y-15175000D01*
X-15433518Y-15175000D01*
X-15303110Y-15149060D01*
X-15180268Y-15098177D01*
X-15069713Y-15024307D01*
X-14975693Y-14930287D01*
X-14901823Y-14819732D01*
X-14850940Y-14696890D01*
X-14825000Y-14566482D01*
X-14825000Y-14433518D01*
X-14850940Y-14303110D01*
X-14901823Y-14180268D01*
X-14975693Y-14069713D01*
X-15069713Y-13975693D01*
X-15180268Y-13901823D01*
X-15303110Y-13850940D01*
X-15433518Y-13825000D01*
X-15566482Y-13825000D01*
X-15696890Y-13850940D01*
X-15800001Y-13893650D01*
X-15903108Y-13850942D01*
X-16033516Y-13825002D01*
X-16166480Y-13825002D01*
X-16296888Y-13850942D01*
X-16325000Y-13862586D01*
X-16325000Y-9620666D01*
X-16232895Y-9732895D01*
G37*
G04 #@! TD.AperFunction*
D23*
X-3052559Y-12424724D02*
X-3037251Y-12443377D01*
X-2962806Y-12504472D01*
X-2877873Y-12549870D01*
X-2813671Y-12569345D01*
X-2785716Y-12577825D01*
X-2689875Y-12587265D01*
X-2665864Y-12584900D01*
X13766Y-12584900D01*
X37777Y-12587265D01*
X61788Y-12584900D01*
X124790Y-12578695D01*
X124791Y-24938390D01*
X-86819Y-25150000D01*
X-2000000Y-25150000D01*
X-2019509Y-25151921D01*
X-2038268Y-25157612D01*
X-2055557Y-25166853D01*
X-2070711Y-25179289D01*
X-2083147Y-25194443D01*
X-2092388Y-25211732D01*
X-2098079Y-25230491D01*
X-2100000Y-25250000D01*
X-2100000Y-27144590D01*
X-2131482Y-27144590D01*
X-2261890Y-27170530D01*
X-2384732Y-27221413D01*
X-2495287Y-27295283D01*
X-2589307Y-27389303D01*
X-2663177Y-27499858D01*
X-2714060Y-27622700D01*
X-2740000Y-27753108D01*
X-2740000Y-27793766D01*
X-4648767Y-25885000D01*
X-4553518Y-25885000D01*
X-4423110Y-25859060D01*
X-4300268Y-25808177D01*
X-4189713Y-25734307D01*
X-4095693Y-25640287D01*
X-4021823Y-25529732D01*
X-3970940Y-25406890D01*
X-3945000Y-25276482D01*
X-3945000Y-25143518D01*
X-3970940Y-25013110D01*
X-4021823Y-24890268D01*
X-4095693Y-24779713D01*
X-4160406Y-24715000D01*
X-4105693Y-24660287D01*
X-4031823Y-24549732D01*
X-3980940Y-24426890D01*
X-3955000Y-24296482D01*
X-3955000Y-24163518D01*
X-3980940Y-24033110D01*
X-4031823Y-23910268D01*
X-4085456Y-23830000D01*
X-4031823Y-23749732D01*
X-3980940Y-23626890D01*
X-3955000Y-23496482D01*
X-3955000Y-23363518D01*
X-3980940Y-23233110D01*
X-4031823Y-23110268D01*
X-4105693Y-22999713D01*
X-4199713Y-22905693D01*
X-4310268Y-22831823D01*
X-4433110Y-22780940D01*
X-4563518Y-22755000D01*
X-4696482Y-22755000D01*
X-4826890Y-22780940D01*
X-4949732Y-22831823D01*
X-5060287Y-22905693D01*
X-5154307Y-22999713D01*
X-5228177Y-23110268D01*
X-5279060Y-23233110D01*
X-5305000Y-23363518D01*
X-5305000Y-23496482D01*
X-5279060Y-23626890D01*
X-5228177Y-23749732D01*
X-5174544Y-23830000D01*
X-5228177Y-23910268D01*
X-5279060Y-24033110D01*
X-5305000Y-24163518D01*
X-5305000Y-24296482D01*
X-5279060Y-24426890D01*
X-5228177Y-24549732D01*
X-5154307Y-24660287D01*
X-5089594Y-24725000D01*
X-5144307Y-24779713D01*
X-5218177Y-24890268D01*
X-5269060Y-25013110D01*
X-5295000Y-25143518D01*
X-5295000Y-25238767D01*
X-6562000Y-23971767D01*
X-6562000Y-23566145D01*
X-6542853Y-23503026D01*
X-6532000Y-23392835D01*
X-6532000Y-21931056D01*
X-1750000Y-21931056D01*
X-1750000Y-22068944D01*
X-1723099Y-22204182D01*
X-1670332Y-22331574D01*
X-1593726Y-22446224D01*
X-1496224Y-22543726D01*
X-1381574Y-22620332D01*
X-1254182Y-22673099D01*
X-1118944Y-22700000D01*
X-981056Y-22700000D01*
X-845818Y-22673099D01*
X-718426Y-22620332D01*
X-603776Y-22543726D01*
X-506274Y-22446224D01*
X-429668Y-22331574D01*
X-376901Y-22204182D01*
X-350000Y-22068944D01*
X-350000Y-21931056D01*
X-376901Y-21795818D01*
X-429668Y-21668426D01*
X-506274Y-21553776D01*
X-603776Y-21456274D01*
X-718426Y-21379668D01*
X-845818Y-21326901D01*
X-981056Y-21300000D01*
X-1118944Y-21300000D01*
X-1254182Y-21326901D01*
X-1381574Y-21379668D01*
X-1496224Y-21456274D01*
X-1593726Y-21553776D01*
X-1670332Y-21668426D01*
X-1723099Y-21795818D01*
X-1750000Y-21931056D01*
X-6532000Y-21931056D01*
X-6532000Y-17222594D01*
X-6530287Y-17224307D01*
X-6419732Y-17298177D01*
X-6296890Y-17349060D01*
X-6166482Y-17375000D01*
X-6033518Y-17375000D01*
X-5903110Y-17349060D01*
X-5780268Y-17298177D01*
X-5669713Y-17224307D01*
X-5575693Y-17130287D01*
X-5501823Y-17019732D01*
X-5450940Y-16896890D01*
X-5425000Y-16766482D01*
X-5425000Y-16633518D01*
X-5450940Y-16503110D01*
X-5501823Y-16380268D01*
X-5575693Y-16269713D01*
X-5669713Y-16175693D01*
X-5780268Y-16101823D01*
X-5903110Y-16050940D01*
X-6033518Y-16025000D01*
X-6166482Y-16025000D01*
X-6296890Y-16050940D01*
X-6419732Y-16101823D01*
X-6530287Y-16175693D01*
X-6532000Y-16177406D01*
X-6532000Y-14208690D01*
X-5993165Y-14208690D01*
X-5882974Y-14197837D01*
X-5741599Y-14154951D01*
X-5611307Y-14085309D01*
X-5497105Y-13991585D01*
X-5403381Y-13877383D01*
X-5333739Y-13747091D01*
X-5326305Y-13722584D01*
X-5295842Y-13731825D01*
X-5286386Y-13732756D01*
X-5224011Y-13738900D01*
X-5224004Y-13738900D01*
X-5200001Y-13741264D01*
X-5175998Y-13738900D01*
X-3815694Y-13738900D01*
X-3780287Y-13774307D01*
X-3669732Y-13848177D01*
X-3546890Y-13899060D01*
X-3416482Y-13925000D01*
X-3283518Y-13925000D01*
X-3153110Y-13899060D01*
X-3030268Y-13848177D01*
X-2919713Y-13774307D01*
X-2825693Y-13680287D01*
X-2751823Y-13569732D01*
X-2700940Y-13446890D01*
X-2675000Y-13316482D01*
X-2675000Y-13183518D01*
X-2700940Y-13053110D01*
X-2751823Y-12930268D01*
X-2825693Y-12819713D01*
X-2919713Y-12725693D01*
X-3030268Y-12651823D01*
X-3153110Y-12600940D01*
X-3283518Y-12575000D01*
X-3416482Y-12575000D01*
X-3546890Y-12600940D01*
X-3669732Y-12651823D01*
X-3780287Y-12725693D01*
X-3815694Y-12761100D01*
X-4997491Y-12761100D01*
X-5387311Y-12371281D01*
X-5402623Y-12352623D01*
X-5477068Y-12291528D01*
X-5562001Y-12246130D01*
X-5654159Y-12218175D01*
X-5725989Y-12211100D01*
X-5750000Y-12208735D01*
X-5774011Y-12211100D01*
X-10524774Y-12211100D01*
X-10469709Y-12174307D01*
X-10434302Y-12138900D01*
X-3338382Y-12138900D01*
X-3052559Y-12424724D01*
G04 #@! TA.AperFunction,Conductor*
D25*
G36*
X-3052559Y-12424724D02*
G01*
X-3037251Y-12443377D01*
X-2962806Y-12504472D01*
X-2877873Y-12549870D01*
X-2813671Y-12569345D01*
X-2785716Y-12577825D01*
X-2689875Y-12587265D01*
X-2665864Y-12584900D01*
X13766Y-12584900D01*
X37777Y-12587265D01*
X61788Y-12584900D01*
X124790Y-12578695D01*
X124791Y-24938390D01*
X-86819Y-25150000D01*
X-2000000Y-25150000D01*
X-2019509Y-25151921D01*
X-2038268Y-25157612D01*
X-2055557Y-25166853D01*
X-2070711Y-25179289D01*
X-2083147Y-25194443D01*
X-2092388Y-25211732D01*
X-2098079Y-25230491D01*
X-2100000Y-25250000D01*
X-2100000Y-27144590D01*
X-2131482Y-27144590D01*
X-2261890Y-27170530D01*
X-2384732Y-27221413D01*
X-2495287Y-27295283D01*
X-2589307Y-27389303D01*
X-2663177Y-27499858D01*
X-2714060Y-27622700D01*
X-2740000Y-27753108D01*
X-2740000Y-27793766D01*
X-4648767Y-25885000D01*
X-4553518Y-25885000D01*
X-4423110Y-25859060D01*
X-4300268Y-25808177D01*
X-4189713Y-25734307D01*
X-4095693Y-25640287D01*
X-4021823Y-25529732D01*
X-3970940Y-25406890D01*
X-3945000Y-25276482D01*
X-3945000Y-25143518D01*
X-3970940Y-25013110D01*
X-4021823Y-24890268D01*
X-4095693Y-24779713D01*
X-4160406Y-24715000D01*
X-4105693Y-24660287D01*
X-4031823Y-24549732D01*
X-3980940Y-24426890D01*
X-3955000Y-24296482D01*
X-3955000Y-24163518D01*
X-3980940Y-24033110D01*
X-4031823Y-23910268D01*
X-4085456Y-23830000D01*
X-4031823Y-23749732D01*
X-3980940Y-23626890D01*
X-3955000Y-23496482D01*
X-3955000Y-23363518D01*
X-3980940Y-23233110D01*
X-4031823Y-23110268D01*
X-4105693Y-22999713D01*
X-4199713Y-22905693D01*
X-4310268Y-22831823D01*
X-4433110Y-22780940D01*
X-4563518Y-22755000D01*
X-4696482Y-22755000D01*
X-4826890Y-22780940D01*
X-4949732Y-22831823D01*
X-5060287Y-22905693D01*
X-5154307Y-22999713D01*
X-5228177Y-23110268D01*
X-5279060Y-23233110D01*
X-5305000Y-23363518D01*
X-5305000Y-23496482D01*
X-5279060Y-23626890D01*
X-5228177Y-23749732D01*
X-5174544Y-23830000D01*
X-5228177Y-23910268D01*
X-5279060Y-24033110D01*
X-5305000Y-24163518D01*
X-5305000Y-24296482D01*
X-5279060Y-24426890D01*
X-5228177Y-24549732D01*
X-5154307Y-24660287D01*
X-5089594Y-24725000D01*
X-5144307Y-24779713D01*
X-5218177Y-24890268D01*
X-5269060Y-25013110D01*
X-5295000Y-25143518D01*
X-5295000Y-25238767D01*
X-6562000Y-23971767D01*
X-6562000Y-23566145D01*
X-6542853Y-23503026D01*
X-6532000Y-23392835D01*
X-6532000Y-21931056D01*
X-1750000Y-21931056D01*
X-1750000Y-22068944D01*
X-1723099Y-22204182D01*
X-1670332Y-22331574D01*
X-1593726Y-22446224D01*
X-1496224Y-22543726D01*
X-1381574Y-22620332D01*
X-1254182Y-22673099D01*
X-1118944Y-22700000D01*
X-981056Y-22700000D01*
X-845818Y-22673099D01*
X-718426Y-22620332D01*
X-603776Y-22543726D01*
X-506274Y-22446224D01*
X-429668Y-22331574D01*
X-376901Y-22204182D01*
X-350000Y-22068944D01*
X-350000Y-21931056D01*
X-376901Y-21795818D01*
X-429668Y-21668426D01*
X-506274Y-21553776D01*
X-603776Y-21456274D01*
X-718426Y-21379668D01*
X-845818Y-21326901D01*
X-981056Y-21300000D01*
X-1118944Y-21300000D01*
X-1254182Y-21326901D01*
X-1381574Y-21379668D01*
X-1496224Y-21456274D01*
X-1593726Y-21553776D01*
X-1670332Y-21668426D01*
X-1723099Y-21795818D01*
X-1750000Y-21931056D01*
X-6532000Y-21931056D01*
X-6532000Y-17222594D01*
X-6530287Y-17224307D01*
X-6419732Y-17298177D01*
X-6296890Y-17349060D01*
X-6166482Y-17375000D01*
X-6033518Y-17375000D01*
X-5903110Y-17349060D01*
X-5780268Y-17298177D01*
X-5669713Y-17224307D01*
X-5575693Y-17130287D01*
X-5501823Y-17019732D01*
X-5450940Y-16896890D01*
X-5425000Y-16766482D01*
X-5425000Y-16633518D01*
X-5450940Y-16503110D01*
X-5501823Y-16380268D01*
X-5575693Y-16269713D01*
X-5669713Y-16175693D01*
X-5780268Y-16101823D01*
X-5903110Y-16050940D01*
X-6033518Y-16025000D01*
X-6166482Y-16025000D01*
X-6296890Y-16050940D01*
X-6419732Y-16101823D01*
X-6530287Y-16175693D01*
X-6532000Y-16177406D01*
X-6532000Y-14208690D01*
X-5993165Y-14208690D01*
X-5882974Y-14197837D01*
X-5741599Y-14154951D01*
X-5611307Y-14085309D01*
X-5497105Y-13991585D01*
X-5403381Y-13877383D01*
X-5333739Y-13747091D01*
X-5326305Y-13722584D01*
X-5295842Y-13731825D01*
X-5286386Y-13732756D01*
X-5224011Y-13738900D01*
X-5224004Y-13738900D01*
X-5200001Y-13741264D01*
X-5175998Y-13738900D01*
X-3815694Y-13738900D01*
X-3780287Y-13774307D01*
X-3669732Y-13848177D01*
X-3546890Y-13899060D01*
X-3416482Y-13925000D01*
X-3283518Y-13925000D01*
X-3153110Y-13899060D01*
X-3030268Y-13848177D01*
X-2919713Y-13774307D01*
X-2825693Y-13680287D01*
X-2751823Y-13569732D01*
X-2700940Y-13446890D01*
X-2675000Y-13316482D01*
X-2675000Y-13183518D01*
X-2700940Y-13053110D01*
X-2751823Y-12930268D01*
X-2825693Y-12819713D01*
X-2919713Y-12725693D01*
X-3030268Y-12651823D01*
X-3153110Y-12600940D01*
X-3283518Y-12575000D01*
X-3416482Y-12575000D01*
X-3546890Y-12600940D01*
X-3669732Y-12651823D01*
X-3780287Y-12725693D01*
X-3815694Y-12761100D01*
X-4997491Y-12761100D01*
X-5387311Y-12371281D01*
X-5402623Y-12352623D01*
X-5477068Y-12291528D01*
X-5562001Y-12246130D01*
X-5654159Y-12218175D01*
X-5725989Y-12211100D01*
X-5750000Y-12208735D01*
X-5774011Y-12211100D01*
X-10524774Y-12211100D01*
X-10469709Y-12174307D01*
X-10434302Y-12138900D01*
X-3338382Y-12138900D01*
X-3052559Y-12424724D01*
G37*
G04 #@! TD.AperFunction*
D23*
X11219668Y-17117574D02*
X11296274Y-17232224D01*
X11393776Y-17329726D01*
X11508426Y-17406332D01*
X11635818Y-17459099D01*
X11771056Y-17486000D01*
X11908944Y-17486000D01*
X12044182Y-17459099D01*
X12171574Y-17406332D01*
X12236739Y-17362791D01*
X12236739Y-17912168D01*
X12234319Y-17936738D01*
X12243973Y-18034755D01*
X12269489Y-18118869D01*
X12272564Y-18129005D01*
X12318993Y-18215867D01*
X12381475Y-18292002D01*
X12400557Y-18307662D01*
X12442895Y-18350000D01*
X12337489Y-18350000D01*
X12018713Y-18413408D01*
X11718432Y-18537789D01*
X11448186Y-18718361D01*
X11218361Y-18948186D01*
X11196500Y-18980903D01*
X11196500Y-17061641D01*
X11219668Y-17117574D01*
G04 #@! TA.AperFunction,Conductor*
D25*
G36*
X11219668Y-17117574D02*
G01*
X11296274Y-17232224D01*
X11393776Y-17329726D01*
X11508426Y-17406332D01*
X11635818Y-17459099D01*
X11771056Y-17486000D01*
X11908944Y-17486000D01*
X12044182Y-17459099D01*
X12171574Y-17406332D01*
X12236739Y-17362791D01*
X12236739Y-17912168D01*
X12234319Y-17936738D01*
X12243973Y-18034755D01*
X12269489Y-18118869D01*
X12272564Y-18129005D01*
X12318993Y-18215867D01*
X12381475Y-18292002D01*
X12400557Y-18307662D01*
X12442895Y-18350000D01*
X12337489Y-18350000D01*
X12018713Y-18413408D01*
X11718432Y-18537789D01*
X11448186Y-18718361D01*
X11218361Y-18948186D01*
X11196500Y-18980903D01*
X11196500Y-17061641D01*
X11219668Y-17117574D01*
G37*
G04 #@! TD.AperFunction*
D23*
X9661101Y-15077511D02*
X9661101Y-17342160D01*
X9589307Y-17234713D01*
X9495287Y-17140693D01*
X9384732Y-17066823D01*
X9261890Y-17015940D01*
X9131482Y-16990000D01*
X9073255Y-16990000D01*
X9062933Y-16981529D01*
X8978000Y-16936131D01*
X8885842Y-16908176D01*
X8814012Y-16901101D01*
X8790001Y-16898736D01*
X8765990Y-16901101D01*
X7927217Y-16901101D01*
X7948177Y-16869732D01*
X7999060Y-16746890D01*
X8025000Y-16616482D01*
X8025000Y-16566408D01*
X8478724Y-16112685D01*
X8497377Y-16097377D01*
X8558472Y-16022932D01*
X8588056Y-15967584D01*
X8603870Y-15938000D01*
X8631825Y-15845842D01*
X8641265Y-15750000D01*
X8638900Y-15725989D01*
X8638900Y-14055308D01*
X9661101Y-15077511D01*
G04 #@! TA.AperFunction,Conductor*
D25*
G36*
X9661101Y-15077511D02*
G01*
X9661101Y-17342160D01*
X9589307Y-17234713D01*
X9495287Y-17140693D01*
X9384732Y-17066823D01*
X9261890Y-17015940D01*
X9131482Y-16990000D01*
X9073255Y-16990000D01*
X9062933Y-16981529D01*
X8978000Y-16936131D01*
X8885842Y-16908176D01*
X8814012Y-16901101D01*
X8790001Y-16898736D01*
X8765990Y-16901101D01*
X7927217Y-16901101D01*
X7948177Y-16869732D01*
X7999060Y-16746890D01*
X8025000Y-16616482D01*
X8025000Y-16566408D01*
X8478724Y-16112685D01*
X8497377Y-16097377D01*
X8558472Y-16022932D01*
X8588056Y-15967584D01*
X8603870Y-15938000D01*
X8631825Y-15845842D01*
X8641265Y-15750000D01*
X8638900Y-15725989D01*
X8638900Y-14055308D01*
X9661101Y-15077511D01*
G37*
G04 #@! TD.AperFunction*
D23*
X7661101Y-15547490D02*
X7333592Y-15875000D01*
X7283518Y-15875000D01*
X7153110Y-15900940D01*
X7030268Y-15951823D01*
X6919713Y-16025693D01*
X6825693Y-16119713D01*
X6751823Y-16230268D01*
X6700940Y-16353110D01*
X6675000Y-16483518D01*
X6675000Y-16616482D01*
X6700940Y-16746890D01*
X6751823Y-16869732D01*
X6772783Y-16901101D01*
X4542510Y-16901101D01*
X4316409Y-16675000D01*
X4366482Y-16675000D01*
X4496890Y-16649060D01*
X4619732Y-16598177D01*
X4730287Y-16524307D01*
X4750000Y-16504594D01*
X4769713Y-16524307D01*
X4880268Y-16598177D01*
X5003110Y-16649060D01*
X5133518Y-16675000D01*
X5266482Y-16675000D01*
X5396890Y-16649060D01*
X5519732Y-16598177D01*
X5630287Y-16524307D01*
X5650000Y-16504594D01*
X5669713Y-16524307D01*
X5780268Y-16598177D01*
X5903110Y-16649060D01*
X6033518Y-16675000D01*
X6166482Y-16675000D01*
X6296890Y-16649060D01*
X6419732Y-16598177D01*
X6530287Y-16524307D01*
X6624307Y-16430287D01*
X6698177Y-16319732D01*
X6749060Y-16196890D01*
X6775000Y-16066482D01*
X6775000Y-15933518D01*
X6749060Y-15803110D01*
X6698177Y-15680268D01*
X6624307Y-15569713D01*
X6604594Y-15550000D01*
X6624307Y-15530287D01*
X6698177Y-15419732D01*
X6749060Y-15296890D01*
X6775000Y-15166482D01*
X6775000Y-15033518D01*
X6749060Y-14903110D01*
X6698177Y-14780268D01*
X6624307Y-14669713D01*
X6604594Y-14650000D01*
X6624307Y-14630287D01*
X6698177Y-14519732D01*
X6749060Y-14396890D01*
X6775000Y-14266482D01*
X6775000Y-14133518D01*
X6749060Y-14003110D01*
X6698177Y-13880268D01*
X6624307Y-13769713D01*
X6530287Y-13675693D01*
X6419732Y-13601823D01*
X6296890Y-13550940D01*
X6166482Y-13525000D01*
X6033518Y-13525000D01*
X5903110Y-13550940D01*
X5780268Y-13601823D01*
X5669713Y-13675693D01*
X5650000Y-13695406D01*
X5630287Y-13675693D01*
X5519732Y-13601823D01*
X5396890Y-13550940D01*
X5266482Y-13525000D01*
X5133518Y-13525000D01*
X5003110Y-13550940D01*
X4880268Y-13601823D01*
X4769713Y-13675693D01*
X4750000Y-13695406D01*
X4730287Y-13675693D01*
X4619732Y-13601823D01*
X4496890Y-13550940D01*
X4366482Y-13525000D01*
X4233518Y-13525000D01*
X4103110Y-13550940D01*
X3980268Y-13601823D01*
X3869713Y-13675693D01*
X3845201Y-13700205D01*
X3845201Y-10930311D01*
X3847566Y-10906300D01*
X3838126Y-10810459D01*
X3828419Y-10778459D01*
X3810171Y-10718302D01*
X3764773Y-10633369D01*
X3703678Y-10558924D01*
X3685025Y-10543616D01*
X3650098Y-10508689D01*
X3706200Y-10508689D01*
X3730211Y-10511054D01*
X3754222Y-10508689D01*
X3826052Y-10501614D01*
X3918210Y-10473659D01*
X4003143Y-10428261D01*
X4077588Y-10367166D01*
X4092901Y-10348507D01*
X5452509Y-8988900D01*
X6125989Y-8988900D01*
X6150000Y-8991265D01*
X6174011Y-8988900D01*
X6245841Y-8981825D01*
X6337999Y-8953870D01*
X6422932Y-8908472D01*
X6497377Y-8847377D01*
X6512690Y-8828718D01*
X7661100Y-7680308D01*
X7661101Y-15547490D01*
G04 #@! TA.AperFunction,Conductor*
D25*
G36*
X7661101Y-15547490D02*
G01*
X7333592Y-15875000D01*
X7283518Y-15875000D01*
X7153110Y-15900940D01*
X7030268Y-15951823D01*
X6919713Y-16025693D01*
X6825693Y-16119713D01*
X6751823Y-16230268D01*
X6700940Y-16353110D01*
X6675000Y-16483518D01*
X6675000Y-16616482D01*
X6700940Y-16746890D01*
X6751823Y-16869732D01*
X6772783Y-16901101D01*
X4542510Y-16901101D01*
X4316409Y-16675000D01*
X4366482Y-16675000D01*
X4496890Y-16649060D01*
X4619732Y-16598177D01*
X4730287Y-16524307D01*
X4750000Y-16504594D01*
X4769713Y-16524307D01*
X4880268Y-16598177D01*
X5003110Y-16649060D01*
X5133518Y-16675000D01*
X5266482Y-16675000D01*
X5396890Y-16649060D01*
X5519732Y-16598177D01*
X5630287Y-16524307D01*
X5650000Y-16504594D01*
X5669713Y-16524307D01*
X5780268Y-16598177D01*
X5903110Y-16649060D01*
X6033518Y-16675000D01*
X6166482Y-16675000D01*
X6296890Y-16649060D01*
X6419732Y-16598177D01*
X6530287Y-16524307D01*
X6624307Y-16430287D01*
X6698177Y-16319732D01*
X6749060Y-16196890D01*
X6775000Y-16066482D01*
X6775000Y-15933518D01*
X6749060Y-15803110D01*
X6698177Y-15680268D01*
X6624307Y-15569713D01*
X6604594Y-15550000D01*
X6624307Y-15530287D01*
X6698177Y-15419732D01*
X6749060Y-15296890D01*
X6775000Y-15166482D01*
X6775000Y-15033518D01*
X6749060Y-14903110D01*
X6698177Y-14780268D01*
X6624307Y-14669713D01*
X6604594Y-14650000D01*
X6624307Y-14630287D01*
X6698177Y-14519732D01*
X6749060Y-14396890D01*
X6775000Y-14266482D01*
X6775000Y-14133518D01*
X6749060Y-14003110D01*
X6698177Y-13880268D01*
X6624307Y-13769713D01*
X6530287Y-13675693D01*
X6419732Y-13601823D01*
X6296890Y-13550940D01*
X6166482Y-13525000D01*
X6033518Y-13525000D01*
X5903110Y-13550940D01*
X5780268Y-13601823D01*
X5669713Y-13675693D01*
X5650000Y-13695406D01*
X5630287Y-13675693D01*
X5519732Y-13601823D01*
X5396890Y-13550940D01*
X5266482Y-13525000D01*
X5133518Y-13525000D01*
X5003110Y-13550940D01*
X4880268Y-13601823D01*
X4769713Y-13675693D01*
X4750000Y-13695406D01*
X4730287Y-13675693D01*
X4619732Y-13601823D01*
X4496890Y-13550940D01*
X4366482Y-13525000D01*
X4233518Y-13525000D01*
X4103110Y-13550940D01*
X3980268Y-13601823D01*
X3869713Y-13675693D01*
X3845201Y-13700205D01*
X3845201Y-10930311D01*
X3847566Y-10906300D01*
X3838126Y-10810459D01*
X3828419Y-10778459D01*
X3810171Y-10718302D01*
X3764773Y-10633369D01*
X3703678Y-10558924D01*
X3685025Y-10543616D01*
X3650098Y-10508689D01*
X3706200Y-10508689D01*
X3730211Y-10511054D01*
X3754222Y-10508689D01*
X3826052Y-10501614D01*
X3918210Y-10473659D01*
X4003143Y-10428261D01*
X4077588Y-10367166D01*
X4092901Y-10348507D01*
X5452509Y-8988900D01*
X6125989Y-8988900D01*
X6150000Y-8991265D01*
X6174011Y-8988900D01*
X6245841Y-8981825D01*
X6337999Y-8953870D01*
X6422932Y-8908472D01*
X6497377Y-8847377D01*
X6512690Y-8828718D01*
X7661100Y-7680308D01*
X7661101Y-15547490D01*
G37*
G04 #@! TD.AperFunction*
D23*
X10125001Y-2206299D02*
X10125002Y-11500431D01*
X10122582Y-11525001D01*
X10132236Y-11623018D01*
X10155401Y-11699381D01*
X10160827Y-11717268D01*
X10207256Y-11804130D01*
X10225000Y-11825751D01*
X10225000Y-11843421D01*
X10207235Y-11901983D01*
X10197581Y-12000000D01*
X10200001Y-12024570D01*
X10200001Y-14233591D01*
X9097599Y-13131191D01*
X9097599Y-8473310D01*
X9106096Y-8475000D01*
X9239060Y-8475000D01*
X9369468Y-8449060D01*
X9492310Y-8398177D01*
X9602865Y-8324307D01*
X9696885Y-8230287D01*
X9770755Y-8119732D01*
X9821638Y-7996890D01*
X9847578Y-7866482D01*
X9847578Y-7733518D01*
X9821638Y-7603110D01*
X9770755Y-7480268D01*
X9696885Y-7369713D01*
X9684381Y-7357209D01*
X9687632Y-7352343D01*
X9738515Y-7229501D01*
X9764455Y-7099093D01*
X9764455Y-6966129D01*
X9738515Y-6835721D01*
X9687632Y-6712879D01*
X9613762Y-6602324D01*
X9519742Y-6508304D01*
X9460665Y-6468830D01*
X9503870Y-6387999D01*
X9531359Y-6297377D01*
X9531825Y-6295842D01*
X9541265Y-6200001D01*
X9538900Y-6175990D01*
X9538900Y-1742487D01*
X9541265Y-1718476D01*
X9531825Y-1622634D01*
X9527684Y-1608981D01*
X10125001Y-2206299D01*
G04 #@! TA.AperFunction,Conductor*
D25*
G36*
X10125001Y-2206299D02*
G01*
X10125002Y-11500431D01*
X10122582Y-11525001D01*
X10132236Y-11623018D01*
X10155401Y-11699381D01*
X10160827Y-11717268D01*
X10207256Y-11804130D01*
X10225000Y-11825751D01*
X10225000Y-11843421D01*
X10207235Y-11901983D01*
X10197581Y-12000000D01*
X10200001Y-12024570D01*
X10200001Y-14233591D01*
X9097599Y-13131191D01*
X9097599Y-8473310D01*
X9106096Y-8475000D01*
X9239060Y-8475000D01*
X9369468Y-8449060D01*
X9492310Y-8398177D01*
X9602865Y-8324307D01*
X9696885Y-8230287D01*
X9770755Y-8119732D01*
X9821638Y-7996890D01*
X9847578Y-7866482D01*
X9847578Y-7733518D01*
X9821638Y-7603110D01*
X9770755Y-7480268D01*
X9696885Y-7369713D01*
X9684381Y-7357209D01*
X9687632Y-7352343D01*
X9738515Y-7229501D01*
X9764455Y-7099093D01*
X9764455Y-6966129D01*
X9738515Y-6835721D01*
X9687632Y-6712879D01*
X9613762Y-6602324D01*
X9519742Y-6508304D01*
X9460665Y-6468830D01*
X9503870Y-6387999D01*
X9531359Y-6297377D01*
X9531825Y-6295842D01*
X9541265Y-6200001D01*
X9538900Y-6175990D01*
X9538900Y-1742487D01*
X9541265Y-1718476D01*
X9531825Y-1622634D01*
X9527684Y-1608981D01*
X10125001Y-2206299D01*
G37*
G04 #@! TD.AperFunction*
D23*
X-2031000Y-11450518D02*
X-2031000Y-11583482D01*
X-2026302Y-11607100D01*
X-2487365Y-11607100D01*
X-2649438Y-11445028D01*
X-2565310Y-11360900D01*
X-2013174Y-11360900D01*
X-2031000Y-11450518D01*
G04 #@! TA.AperFunction,Conductor*
D25*
G36*
X-2031000Y-11450518D02*
G01*
X-2031000Y-11583482D01*
X-2026302Y-11607100D01*
X-2487365Y-11607100D01*
X-2649438Y-11445028D01*
X-2565310Y-11360900D01*
X-2013174Y-11360900D01*
X-2031000Y-11450518D01*
G37*
G04 #@! TD.AperFunction*
D23*
X-4212685Y-1228724D02*
X-4197377Y-1247377D01*
X-4122932Y-1308472D01*
X-4067620Y-1338037D01*
X-4037999Y-1353870D01*
X-3945841Y-1381825D01*
X-3850000Y-1391265D01*
X-3825989Y-1388900D01*
X-1709450Y-1388900D01*
X-1741135Y-1448177D01*
X-1753869Y-1472001D01*
X-1781825Y-1564159D01*
X-1791265Y-1660000D01*
X-1788899Y-1684020D01*
X-1788900Y-2117491D01*
X-3537073Y-3865665D01*
X-3601306Y-3769533D01*
X-3695326Y-3675513D01*
X-3805881Y-3601643D01*
X-3928723Y-3550760D01*
X-4059131Y-3524820D01*
X-4192095Y-3524820D01*
X-4322503Y-3550760D01*
X-4445345Y-3601643D01*
X-4555900Y-3675513D01*
X-4591307Y-3710920D01*
X-4775809Y-3710920D01*
X-4799820Y-3708555D01*
X-4823831Y-3710920D01*
X-4895661Y-3717995D01*
X-4987819Y-3745950D01*
X-5072752Y-3791348D01*
X-5147197Y-3852443D01*
X-5162505Y-3871096D01*
X-8647338Y-7355930D01*
X-8648209Y-7354626D01*
X-8742229Y-7260606D01*
X-8852784Y-7186736D01*
X-8975626Y-7135853D01*
X-9106034Y-7109913D01*
X-9238998Y-7109913D01*
X-9369406Y-7135853D01*
X-9492248Y-7186736D01*
X-9602803Y-7260606D01*
X-9638210Y-7296013D01*
X-9646971Y-7296013D01*
X-9670982Y-7293648D01*
X-9766824Y-7303088D01*
X-9794779Y-7311568D01*
X-9858981Y-7331043D01*
X-9943914Y-7376441D01*
X-10018359Y-7437536D01*
X-10033667Y-7456189D01*
X-13150000Y-10572523D01*
X-13150000Y-9236835D01*
X-13146372Y-9200000D01*
X-13160853Y-9052974D01*
X-13203739Y-8911599D01*
X-13273381Y-8781307D01*
X-13367105Y-8667105D01*
X-13481307Y-8573381D01*
X-13611599Y-8503739D01*
X-13752974Y-8460853D01*
X-13863165Y-8450000D01*
X-13900000Y-8446372D01*
X-13936835Y-8450000D01*
X-14623065Y-8450000D01*
X-14623065Y-6770000D01*
X-14630788Y-6691586D01*
X-14653660Y-6616186D01*
X-14690803Y-6546697D01*
X-14740789Y-6485789D01*
X-14801697Y-6435803D01*
X-14871186Y-6398660D01*
X-14946586Y-6375788D01*
X-15025000Y-6368065D01*
X-16325000Y-6368065D01*
X-16325000Y-6127087D01*
X-16275000Y-6123891D01*
X-16275000Y-5480000D01*
X-15475000Y-5480000D01*
X-15475000Y-6123891D01*
X-15302936Y-6134888D01*
X-15108130Y-6003014D01*
X-14942794Y-5835670D01*
X-14820132Y-5652061D01*
X-14836898Y-5480000D01*
X-15475000Y-5480000D01*
X-16275000Y-5480000D01*
X-16295000Y-5480000D01*
X-16295000Y-4680000D01*
X-16275000Y-4680000D01*
X-16275000Y-4036109D01*
X-15475000Y-4036109D01*
X-15475000Y-4680000D01*
X-14836898Y-4680000D01*
X-14820132Y-4507939D01*
X-14942794Y-4324330D01*
X-15108130Y-4156986D01*
X-15302936Y-4025112D01*
X-15475000Y-4036109D01*
X-16275000Y-4036109D01*
X-16325000Y-4032913D01*
X-16325000Y-3706594D01*
X-16239611Y-3741963D01*
X-15998114Y-3790000D01*
X-15751886Y-3790000D01*
X-15510389Y-3741963D01*
X-15282903Y-3647735D01*
X-15078172Y-3510938D01*
X-14904062Y-3336828D01*
X-14767265Y-3132097D01*
X-14673037Y-2904611D01*
X-14625000Y-2663114D01*
X-14625000Y-2416886D01*
X-14673037Y-2175389D01*
X-14767265Y-1947903D01*
X-14904062Y-1743172D01*
X-15078172Y-1569062D01*
X-15282903Y-1432265D01*
X-15510389Y-1338037D01*
X-15751886Y-1290000D01*
X-15998114Y-1290000D01*
X-16239611Y-1338037D01*
X-16325000Y-1373406D01*
X-16325000Y-1166594D01*
X-16239611Y-1201963D01*
X-15998114Y-1250000D01*
X-15751886Y-1250000D01*
X-15510389Y-1201963D01*
X-15282903Y-1107735D01*
X-15078172Y-970938D01*
X-14904062Y-796828D01*
X-14767265Y-592097D01*
X-14673037Y-364611D01*
X-14625000Y-123114D01*
X-14625000Y123114D01*
X-14673037Y364611D01*
X-14729117Y500000D01*
X-9500000Y500000D01*
X-9500000Y-4500000D01*
X-9498079Y-4519509D01*
X-9492388Y-4538268D01*
X-9483147Y-4555557D01*
X-9470711Y-4570711D01*
X-9455557Y-4583147D01*
X-9438268Y-4592388D01*
X-9419509Y-4598079D01*
X-9400000Y-4600000D01*
X-6200000Y-4600000D01*
X-6180491Y-4598079D01*
X-6161732Y-4592388D01*
X-6144443Y-4583147D01*
X-6129289Y-4570711D01*
X-6116853Y-4555557D01*
X-6107612Y-4538268D01*
X-6101921Y-4519509D01*
X-6100000Y-4500000D01*
X-6100000Y-3102426D01*
X-6013490Y-3138260D01*
X-5883082Y-3164200D01*
X-5750118Y-3164200D01*
X-5619710Y-3138260D01*
X-5496868Y-3087377D01*
X-5386313Y-3013507D01*
X-5292293Y-2919487D01*
X-5218423Y-2808932D01*
X-5167540Y-2686090D01*
X-5157543Y-2635828D01*
X-4078404Y-2635828D01*
X-4078404Y-2768792D01*
X-4052464Y-2899200D01*
X-4001581Y-3022042D01*
X-3927711Y-3132597D01*
X-3833691Y-3226617D01*
X-3723136Y-3300487D01*
X-3600294Y-3351370D01*
X-3469886Y-3377310D01*
X-3336922Y-3377310D01*
X-3206514Y-3351370D01*
X-3083672Y-3300487D01*
X-2973117Y-3226617D01*
X-2879097Y-3132597D01*
X-2805227Y-3022042D01*
X-2754344Y-2899200D01*
X-2728404Y-2768792D01*
X-2728404Y-2635828D01*
X-2754344Y-2505420D01*
X-2805227Y-2382578D01*
X-2879097Y-2272023D01*
X-2973117Y-2178003D01*
X-3083672Y-2104133D01*
X-3206514Y-2053250D01*
X-3336922Y-2027310D01*
X-3469886Y-2027310D01*
X-3600294Y-2053250D01*
X-3723136Y-2104133D01*
X-3833691Y-2178003D01*
X-3927711Y-2272023D01*
X-4001581Y-2382578D01*
X-4052464Y-2505420D01*
X-4078404Y-2635828D01*
X-5157543Y-2635828D01*
X-5141600Y-2555682D01*
X-5141600Y-2422718D01*
X-5167540Y-2292310D01*
X-5218423Y-2169468D01*
X-5234949Y-2144736D01*
X-5210974Y-2086856D01*
X-5185034Y-1956448D01*
X-5185034Y-1823484D01*
X-5210974Y-1693076D01*
X-5261857Y-1570234D01*
X-5335727Y-1459679D01*
X-5429747Y-1365659D01*
X-5540302Y-1291789D01*
X-5663144Y-1240906D01*
X-5793552Y-1214966D01*
X-5926516Y-1214966D01*
X-6056924Y-1240906D01*
X-6100000Y-1258749D01*
X-6100000Y500000D01*
X-6101921Y519509D01*
X-6107612Y538268D01*
X-6116853Y555557D01*
X-6129289Y570711D01*
X-6144443Y583147D01*
X-6161732Y592388D01*
X-6180491Y598079D01*
X-6200000Y600000D01*
X-9400000Y600000D01*
X-9419509Y598079D01*
X-9438268Y592388D01*
X-9455557Y583147D01*
X-9470711Y570711D01*
X-9483147Y555557D01*
X-9492388Y538268D01*
X-9498079Y519509D01*
X-9500000Y500000D01*
X-14729117Y500000D01*
X-14767265Y592097D01*
X-14904062Y796828D01*
X-15078172Y970938D01*
X-15282903Y1107735D01*
X-15510389Y1201963D01*
X-15751886Y1250000D01*
X-15998114Y1250000D01*
X-16239611Y1201963D01*
X-16325000Y1166594D01*
X-16325000Y1373406D01*
X-16239611Y1338037D01*
X-15998114Y1290000D01*
X-15751886Y1290000D01*
X-15510389Y1338037D01*
X-15282903Y1432265D01*
X-15078172Y1569062D01*
X-14904062Y1743172D01*
X-14767265Y1947903D01*
X-14673037Y2175389D01*
X-14625000Y2416886D01*
X-14625000Y2663114D01*
X-14673037Y2904611D01*
X-14767265Y3132097D01*
X-14904062Y3336828D01*
X-15078172Y3510938D01*
X-15282903Y3647735D01*
X-15510389Y3741963D01*
X-15751886Y3790000D01*
X-15998114Y3790000D01*
X-16239611Y3741963D01*
X-16325000Y3706594D01*
X-16325000Y3913406D01*
X-16239611Y3878037D01*
X-15998114Y3830000D01*
X-15751886Y3830000D01*
X-15510389Y3878037D01*
X-15282903Y3972265D01*
X-15078172Y4109062D01*
X-14904062Y4283172D01*
X-14767265Y4487903D01*
X-14673037Y4715389D01*
X-14625000Y4956886D01*
X-14625000Y5203114D01*
X-14673037Y5444611D01*
X-14767265Y5672097D01*
X-14904062Y5876828D01*
X-15078172Y6050938D01*
X-15282903Y6187735D01*
X-15510389Y6281963D01*
X-15751886Y6330000D01*
X-15998114Y6330000D01*
X-16239611Y6281963D01*
X-16325000Y6246594D01*
X-16325000Y6453406D01*
X-16239611Y6418037D01*
X-15998114Y6370000D01*
X-15751886Y6370000D01*
X-15510389Y6418037D01*
X-15282903Y6512265D01*
X-15078172Y6649062D01*
X-14904062Y6823172D01*
X-14767265Y7027903D01*
X-14739472Y7095000D01*
X-14452212Y7095000D01*
X-14375082Y7102597D01*
X-14281120Y7131100D01*
X-12572508Y7131100D01*
X-4212685Y-1228724D01*
G04 #@! TA.AperFunction,Conductor*
D25*
G36*
X-4212685Y-1228724D02*
G01*
X-4197377Y-1247377D01*
X-4122932Y-1308472D01*
X-4067620Y-1338037D01*
X-4037999Y-1353870D01*
X-3945841Y-1381825D01*
X-3850000Y-1391265D01*
X-3825989Y-1388900D01*
X-1709450Y-1388900D01*
X-1741135Y-1448177D01*
X-1753869Y-1472001D01*
X-1781825Y-1564159D01*
X-1791265Y-1660000D01*
X-1788899Y-1684020D01*
X-1788900Y-2117491D01*
X-3537073Y-3865665D01*
X-3601306Y-3769533D01*
X-3695326Y-3675513D01*
X-3805881Y-3601643D01*
X-3928723Y-3550760D01*
X-4059131Y-3524820D01*
X-4192095Y-3524820D01*
X-4322503Y-3550760D01*
X-4445345Y-3601643D01*
X-4555900Y-3675513D01*
X-4591307Y-3710920D01*
X-4775809Y-3710920D01*
X-4799820Y-3708555D01*
X-4823831Y-3710920D01*
X-4895661Y-3717995D01*
X-4987819Y-3745950D01*
X-5072752Y-3791348D01*
X-5147197Y-3852443D01*
X-5162505Y-3871096D01*
X-8647338Y-7355930D01*
X-8648209Y-7354626D01*
X-8742229Y-7260606D01*
X-8852784Y-7186736D01*
X-8975626Y-7135853D01*
X-9106034Y-7109913D01*
X-9238998Y-7109913D01*
X-9369406Y-7135853D01*
X-9492248Y-7186736D01*
X-9602803Y-7260606D01*
X-9638210Y-7296013D01*
X-9646971Y-7296013D01*
X-9670982Y-7293648D01*
X-9766824Y-7303088D01*
X-9794779Y-7311568D01*
X-9858981Y-7331043D01*
X-9943914Y-7376441D01*
X-10018359Y-7437536D01*
X-10033667Y-7456189D01*
X-13150000Y-10572523D01*
X-13150000Y-9236835D01*
X-13146372Y-9200000D01*
X-13160853Y-9052974D01*
X-13203739Y-8911599D01*
X-13273381Y-8781307D01*
X-13367105Y-8667105D01*
X-13481307Y-8573381D01*
X-13611599Y-8503739D01*
X-13752974Y-8460853D01*
X-13863165Y-8450000D01*
X-13900000Y-8446372D01*
X-13936835Y-8450000D01*
X-14623065Y-8450000D01*
X-14623065Y-6770000D01*
X-14630788Y-6691586D01*
X-14653660Y-6616186D01*
X-14690803Y-6546697D01*
X-14740789Y-6485789D01*
X-14801697Y-6435803D01*
X-14871186Y-6398660D01*
X-14946586Y-6375788D01*
X-15025000Y-6368065D01*
X-16325000Y-6368065D01*
X-16325000Y-6127087D01*
X-16275000Y-6123891D01*
X-16275000Y-5480000D01*
X-15475000Y-5480000D01*
X-15475000Y-6123891D01*
X-15302936Y-6134888D01*
X-15108130Y-6003014D01*
X-14942794Y-5835670D01*
X-14820132Y-5652061D01*
X-14836898Y-5480000D01*
X-15475000Y-5480000D01*
X-16275000Y-5480000D01*
X-16295000Y-5480000D01*
X-16295000Y-4680000D01*
X-16275000Y-4680000D01*
X-16275000Y-4036109D01*
X-15475000Y-4036109D01*
X-15475000Y-4680000D01*
X-14836898Y-4680000D01*
X-14820132Y-4507939D01*
X-14942794Y-4324330D01*
X-15108130Y-4156986D01*
X-15302936Y-4025112D01*
X-15475000Y-4036109D01*
X-16275000Y-4036109D01*
X-16325000Y-4032913D01*
X-16325000Y-3706594D01*
X-16239611Y-3741963D01*
X-15998114Y-3790000D01*
X-15751886Y-3790000D01*
X-15510389Y-3741963D01*
X-15282903Y-3647735D01*
X-15078172Y-3510938D01*
X-14904062Y-3336828D01*
X-14767265Y-3132097D01*
X-14673037Y-2904611D01*
X-14625000Y-2663114D01*
X-14625000Y-2416886D01*
X-14673037Y-2175389D01*
X-14767265Y-1947903D01*
X-14904062Y-1743172D01*
X-15078172Y-1569062D01*
X-15282903Y-1432265D01*
X-15510389Y-1338037D01*
X-15751886Y-1290000D01*
X-15998114Y-1290000D01*
X-16239611Y-1338037D01*
X-16325000Y-1373406D01*
X-16325000Y-1166594D01*
X-16239611Y-1201963D01*
X-15998114Y-1250000D01*
X-15751886Y-1250000D01*
X-15510389Y-1201963D01*
X-15282903Y-1107735D01*
X-15078172Y-970938D01*
X-14904062Y-796828D01*
X-14767265Y-592097D01*
X-14673037Y-364611D01*
X-14625000Y-123114D01*
X-14625000Y123114D01*
X-14673037Y364611D01*
X-14729117Y500000D01*
X-9500000Y500000D01*
X-9500000Y-4500000D01*
X-9498079Y-4519509D01*
X-9492388Y-4538268D01*
X-9483147Y-4555557D01*
X-9470711Y-4570711D01*
X-9455557Y-4583147D01*
X-9438268Y-4592388D01*
X-9419509Y-4598079D01*
X-9400000Y-4600000D01*
X-6200000Y-4600000D01*
X-6180491Y-4598079D01*
X-6161732Y-4592388D01*
X-6144443Y-4583147D01*
X-6129289Y-4570711D01*
X-6116853Y-4555557D01*
X-6107612Y-4538268D01*
X-6101921Y-4519509D01*
X-6100000Y-4500000D01*
X-6100000Y-3102426D01*
X-6013490Y-3138260D01*
X-5883082Y-3164200D01*
X-5750118Y-3164200D01*
X-5619710Y-3138260D01*
X-5496868Y-3087377D01*
X-5386313Y-3013507D01*
X-5292293Y-2919487D01*
X-5218423Y-2808932D01*
X-5167540Y-2686090D01*
X-5157543Y-2635828D01*
X-4078404Y-2635828D01*
X-4078404Y-2768792D01*
X-4052464Y-2899200D01*
X-4001581Y-3022042D01*
X-3927711Y-3132597D01*
X-3833691Y-3226617D01*
X-3723136Y-3300487D01*
X-3600294Y-3351370D01*
X-3469886Y-3377310D01*
X-3336922Y-3377310D01*
X-3206514Y-3351370D01*
X-3083672Y-3300487D01*
X-2973117Y-3226617D01*
X-2879097Y-3132597D01*
X-2805227Y-3022042D01*
X-2754344Y-2899200D01*
X-2728404Y-2768792D01*
X-2728404Y-2635828D01*
X-2754344Y-2505420D01*
X-2805227Y-2382578D01*
X-2879097Y-2272023D01*
X-2973117Y-2178003D01*
X-3083672Y-2104133D01*
X-3206514Y-2053250D01*
X-3336922Y-2027310D01*
X-3469886Y-2027310D01*
X-3600294Y-2053250D01*
X-3723136Y-2104133D01*
X-3833691Y-2178003D01*
X-3927711Y-2272023D01*
X-4001581Y-2382578D01*
X-4052464Y-2505420D01*
X-4078404Y-2635828D01*
X-5157543Y-2635828D01*
X-5141600Y-2555682D01*
X-5141600Y-2422718D01*
X-5167540Y-2292310D01*
X-5218423Y-2169468D01*
X-5234949Y-2144736D01*
X-5210974Y-2086856D01*
X-5185034Y-1956448D01*
X-5185034Y-1823484D01*
X-5210974Y-1693076D01*
X-5261857Y-1570234D01*
X-5335727Y-1459679D01*
X-5429747Y-1365659D01*
X-5540302Y-1291789D01*
X-5663144Y-1240906D01*
X-5793552Y-1214966D01*
X-5926516Y-1214966D01*
X-6056924Y-1240906D01*
X-6100000Y-1258749D01*
X-6100000Y500000D01*
X-6101921Y519509D01*
X-6107612Y538268D01*
X-6116853Y555557D01*
X-6129289Y570711D01*
X-6144443Y583147D01*
X-6161732Y592388D01*
X-6180491Y598079D01*
X-6200000Y600000D01*
X-9400000Y600000D01*
X-9419509Y598079D01*
X-9438268Y592388D01*
X-9455557Y583147D01*
X-9470711Y570711D01*
X-9483147Y555557D01*
X-9492388Y538268D01*
X-9498079Y519509D01*
X-9500000Y500000D01*
X-14729117Y500000D01*
X-14767265Y592097D01*
X-14904062Y796828D01*
X-15078172Y970938D01*
X-15282903Y1107735D01*
X-15510389Y1201963D01*
X-15751886Y1250000D01*
X-15998114Y1250000D01*
X-16239611Y1201963D01*
X-16325000Y1166594D01*
X-16325000Y1373406D01*
X-16239611Y1338037D01*
X-15998114Y1290000D01*
X-15751886Y1290000D01*
X-15510389Y1338037D01*
X-15282903Y1432265D01*
X-15078172Y1569062D01*
X-14904062Y1743172D01*
X-14767265Y1947903D01*
X-14673037Y2175389D01*
X-14625000Y2416886D01*
X-14625000Y2663114D01*
X-14673037Y2904611D01*
X-14767265Y3132097D01*
X-14904062Y3336828D01*
X-15078172Y3510938D01*
X-15282903Y3647735D01*
X-15510389Y3741963D01*
X-15751886Y3790000D01*
X-15998114Y3790000D01*
X-16239611Y3741963D01*
X-16325000Y3706594D01*
X-16325000Y3913406D01*
X-16239611Y3878037D01*
X-15998114Y3830000D01*
X-15751886Y3830000D01*
X-15510389Y3878037D01*
X-15282903Y3972265D01*
X-15078172Y4109062D01*
X-14904062Y4283172D01*
X-14767265Y4487903D01*
X-14673037Y4715389D01*
X-14625000Y4956886D01*
X-14625000Y5203114D01*
X-14673037Y5444611D01*
X-14767265Y5672097D01*
X-14904062Y5876828D01*
X-15078172Y6050938D01*
X-15282903Y6187735D01*
X-15510389Y6281963D01*
X-15751886Y6330000D01*
X-15998114Y6330000D01*
X-16239611Y6281963D01*
X-16325000Y6246594D01*
X-16325000Y6453406D01*
X-16239611Y6418037D01*
X-15998114Y6370000D01*
X-15751886Y6370000D01*
X-15510389Y6418037D01*
X-15282903Y6512265D01*
X-15078172Y6649062D01*
X-14904062Y6823172D01*
X-14767265Y7027903D01*
X-14739472Y7095000D01*
X-14452212Y7095000D01*
X-14375082Y7102597D01*
X-14281120Y7131100D01*
X-12572508Y7131100D01*
X-4212685Y-1228724D01*
G37*
G04 #@! TD.AperFunction*
D23*
X11533518Y-6650000D02*
X11664795Y-6650000D01*
X11664794Y-10449177D01*
X11607991Y-10411223D01*
X11513260Y-10371984D01*
X11513260Y-6645970D01*
X11533518Y-6650000D01*
G04 #@! TA.AperFunction,Conductor*
D25*
G36*
X11533518Y-6650000D02*
G01*
X11664795Y-6650000D01*
X11664794Y-10449177D01*
X11607991Y-10411223D01*
X11513260Y-10371984D01*
X11513260Y-6645970D01*
X11533518Y-6650000D01*
G37*
G04 #@! TD.AperFunction*
D23*
X4212839Y202567D02*
X4265363Y167472D01*
X4250309Y91791D01*
X4250309Y-41173D01*
X4276249Y-171581D01*
X4327132Y-294423D01*
X4401002Y-404978D01*
X4495022Y-498998D01*
X4605577Y-572868D01*
X4728419Y-623751D01*
X4858827Y-649691D01*
X4906700Y-649691D01*
X4911940Y-656076D01*
X4986385Y-717171D01*
X5063739Y-758518D01*
X5071318Y-762569D01*
X5163475Y-790524D01*
X5259317Y-799964D01*
X5283328Y-797599D01*
X5849998Y-797599D01*
X5849998Y-891482D01*
X5875938Y-1021890D01*
X5926821Y-1144732D01*
X6000691Y-1255287D01*
X6081523Y-1336119D01*
X6022370Y-1395272D01*
X5945764Y-1509922D01*
X5892997Y-1637314D01*
X5866096Y-1772552D01*
X5866096Y-1910440D01*
X5892997Y-2045678D01*
X5945764Y-2173070D01*
X6022370Y-2287720D01*
X6119872Y-2385222D01*
X6234522Y-2461828D01*
X6361914Y-2514595D01*
X6497152Y-2541496D01*
X6635040Y-2541496D01*
X6770278Y-2514595D01*
X6807751Y-2499074D01*
X6876406Y-2567729D01*
X6991056Y-2644335D01*
X7118448Y-2697102D01*
X7253686Y-2724003D01*
X7391574Y-2724003D01*
X7526812Y-2697102D01*
X7654204Y-2644335D01*
X7713384Y-2604793D01*
X7861101Y-2752510D01*
X7861100Y-5557491D01*
X6877283Y-6541308D01*
X6825826Y-6464297D01*
X6731806Y-6370277D01*
X6621251Y-6296407D01*
X6498409Y-6245524D01*
X6368001Y-6219584D01*
X6235037Y-6219584D01*
X6104629Y-6245524D01*
X5981787Y-6296407D01*
X5911257Y-6343533D01*
X5844732Y-6299083D01*
X5721890Y-6248200D01*
X5591482Y-6222260D01*
X5458518Y-6222260D01*
X5328110Y-6248200D01*
X5205268Y-6299083D01*
X5094713Y-6372953D01*
X5000693Y-6466973D01*
X4926823Y-6577528D01*
X4875940Y-6700370D01*
X4850000Y-6830778D01*
X4850000Y-6963742D01*
X4875940Y-7094150D01*
X4926823Y-7216992D01*
X5000693Y-7327547D01*
X5094713Y-7421567D01*
X5205268Y-7495437D01*
X5328110Y-7546320D01*
X5458518Y-7572260D01*
X5591482Y-7572260D01*
X5721890Y-7546320D01*
X5844732Y-7495437D01*
X5915262Y-7448311D01*
X5948244Y-7470348D01*
X5807492Y-7611100D01*
X5049011Y-7611100D01*
X5025000Y-7608735D01*
X4929158Y-7618175D01*
X4837000Y-7646130D01*
X4818814Y-7655851D01*
X4752068Y-7691528D01*
X4677623Y-7752623D01*
X4662317Y-7771274D01*
X3232914Y-9200678D01*
X-2252282Y-9200678D01*
X-1903503Y-8851900D01*
X197806Y-8851900D01*
X221817Y-8854265D01*
X245828Y-8851900D01*
X317658Y-8844825D01*
X409816Y-8816870D01*
X494749Y-8771472D01*
X569194Y-8710377D01*
X584506Y-8691719D01*
X632688Y-8643537D01*
X682762Y-8643537D01*
X813170Y-8617597D01*
X912028Y-8576649D01*
X995858Y-8632662D01*
X1118700Y-8683545D01*
X1249108Y-8709485D01*
X1382072Y-8709485D01*
X1512480Y-8683545D01*
X1635322Y-8632662D01*
X1745877Y-8558792D01*
X1839897Y-8464772D01*
X1913767Y-8354217D01*
X1947179Y-8273554D01*
X1947419Y-8274134D01*
X2021289Y-8384689D01*
X2115309Y-8478709D01*
X2225864Y-8552579D01*
X2348706Y-8603462D01*
X2479114Y-8629402D01*
X2612078Y-8629402D01*
X2742486Y-8603462D01*
X2865328Y-8552579D01*
X2975883Y-8478709D01*
X3069903Y-8384689D01*
X3143773Y-8274134D01*
X3194656Y-8151292D01*
X3220596Y-8020884D01*
X3220596Y-7887920D01*
X3194656Y-7757512D01*
X3143773Y-7634670D01*
X3069903Y-7524115D01*
X2975883Y-7430095D01*
X2865328Y-7356225D01*
X2742486Y-7305342D01*
X2737194Y-7304289D01*
X3958724Y-6082760D01*
X3977377Y-6067452D01*
X4038472Y-5993007D01*
X4083870Y-5908074D01*
X4111825Y-5815916D01*
X4117051Y-5762860D01*
X4121265Y-5720076D01*
X4118900Y-5696065D01*
X4118900Y-4016126D01*
X5806284Y-4016126D01*
X5806284Y-4149090D01*
X5832224Y-4279498D01*
X5883107Y-4402340D01*
X5956977Y-4512895D01*
X6050997Y-4606915D01*
X6115755Y-4650185D01*
X6082427Y-4683513D01*
X6008557Y-4794068D01*
X5957674Y-4916910D01*
X5931734Y-5047318D01*
X5931734Y-5180282D01*
X5957674Y-5310690D01*
X6008557Y-5433532D01*
X6082427Y-5544087D01*
X6176447Y-5638107D01*
X6287002Y-5711977D01*
X6409844Y-5762860D01*
X6540252Y-5788800D01*
X6673216Y-5788800D01*
X6803624Y-5762860D01*
X6926466Y-5711977D01*
X7037021Y-5638107D01*
X7131041Y-5544087D01*
X7204911Y-5433532D01*
X7255794Y-5310690D01*
X7266782Y-5255449D01*
X7364956Y-5235921D01*
X7487798Y-5185038D01*
X7598353Y-5111168D01*
X7692373Y-5017148D01*
X7766243Y-4906593D01*
X7817126Y-4783751D01*
X7843066Y-4653343D01*
X7843066Y-4520379D01*
X7817126Y-4389971D01*
X7766243Y-4267129D01*
X7692373Y-4156574D01*
X7598353Y-4062554D01*
X7487798Y-3988684D01*
X7364956Y-3937801D01*
X7234548Y-3911861D01*
X7135544Y-3911861D01*
X7130344Y-3885718D01*
X7079461Y-3762876D01*
X7005591Y-3652321D01*
X6911571Y-3558301D01*
X6801016Y-3484431D01*
X6678174Y-3433548D01*
X6547766Y-3407608D01*
X6414802Y-3407608D01*
X6284394Y-3433548D01*
X6161552Y-3484431D01*
X6050997Y-3558301D01*
X5956977Y-3652321D01*
X5883107Y-3762876D01*
X5832224Y-3885718D01*
X5806284Y-4016126D01*
X4118900Y-4016126D01*
X4118900Y296506D01*
X4212839Y202567D01*
G04 #@! TA.AperFunction,Conductor*
D25*
G36*
X4212839Y202567D02*
G01*
X4265363Y167472D01*
X4250309Y91791D01*
X4250309Y-41173D01*
X4276249Y-171581D01*
X4327132Y-294423D01*
X4401002Y-404978D01*
X4495022Y-498998D01*
X4605577Y-572868D01*
X4728419Y-623751D01*
X4858827Y-649691D01*
X4906700Y-649691D01*
X4911940Y-656076D01*
X4986385Y-717171D01*
X5063739Y-758518D01*
X5071318Y-762569D01*
X5163475Y-790524D01*
X5259317Y-799964D01*
X5283328Y-797599D01*
X5849998Y-797599D01*
X5849998Y-891482D01*
X5875938Y-1021890D01*
X5926821Y-1144732D01*
X6000691Y-1255287D01*
X6081523Y-1336119D01*
X6022370Y-1395272D01*
X5945764Y-1509922D01*
X5892997Y-1637314D01*
X5866096Y-1772552D01*
X5866096Y-1910440D01*
X5892997Y-2045678D01*
X5945764Y-2173070D01*
X6022370Y-2287720D01*
X6119872Y-2385222D01*
X6234522Y-2461828D01*
X6361914Y-2514595D01*
X6497152Y-2541496D01*
X6635040Y-2541496D01*
X6770278Y-2514595D01*
X6807751Y-2499074D01*
X6876406Y-2567729D01*
X6991056Y-2644335D01*
X7118448Y-2697102D01*
X7253686Y-2724003D01*
X7391574Y-2724003D01*
X7526812Y-2697102D01*
X7654204Y-2644335D01*
X7713384Y-2604793D01*
X7861101Y-2752510D01*
X7861100Y-5557491D01*
X6877283Y-6541308D01*
X6825826Y-6464297D01*
X6731806Y-6370277D01*
X6621251Y-6296407D01*
X6498409Y-6245524D01*
X6368001Y-6219584D01*
X6235037Y-6219584D01*
X6104629Y-6245524D01*
X5981787Y-6296407D01*
X5911257Y-6343533D01*
X5844732Y-6299083D01*
X5721890Y-6248200D01*
X5591482Y-6222260D01*
X5458518Y-6222260D01*
X5328110Y-6248200D01*
X5205268Y-6299083D01*
X5094713Y-6372953D01*
X5000693Y-6466973D01*
X4926823Y-6577528D01*
X4875940Y-6700370D01*
X4850000Y-6830778D01*
X4850000Y-6963742D01*
X4875940Y-7094150D01*
X4926823Y-7216992D01*
X5000693Y-7327547D01*
X5094713Y-7421567D01*
X5205268Y-7495437D01*
X5328110Y-7546320D01*
X5458518Y-7572260D01*
X5591482Y-7572260D01*
X5721890Y-7546320D01*
X5844732Y-7495437D01*
X5915262Y-7448311D01*
X5948244Y-7470348D01*
X5807492Y-7611100D01*
X5049011Y-7611100D01*
X5025000Y-7608735D01*
X4929158Y-7618175D01*
X4837000Y-7646130D01*
X4818814Y-7655851D01*
X4752068Y-7691528D01*
X4677623Y-7752623D01*
X4662317Y-7771274D01*
X3232914Y-9200678D01*
X-2252282Y-9200678D01*
X-1903503Y-8851900D01*
X197806Y-8851900D01*
X221817Y-8854265D01*
X245828Y-8851900D01*
X317658Y-8844825D01*
X409816Y-8816870D01*
X494749Y-8771472D01*
X569194Y-8710377D01*
X584506Y-8691719D01*
X632688Y-8643537D01*
X682762Y-8643537D01*
X813170Y-8617597D01*
X912028Y-8576649D01*
X995858Y-8632662D01*
X1118700Y-8683545D01*
X1249108Y-8709485D01*
X1382072Y-8709485D01*
X1512480Y-8683545D01*
X1635322Y-8632662D01*
X1745877Y-8558792D01*
X1839897Y-8464772D01*
X1913767Y-8354217D01*
X1947179Y-8273554D01*
X1947419Y-8274134D01*
X2021289Y-8384689D01*
X2115309Y-8478709D01*
X2225864Y-8552579D01*
X2348706Y-8603462D01*
X2479114Y-8629402D01*
X2612078Y-8629402D01*
X2742486Y-8603462D01*
X2865328Y-8552579D01*
X2975883Y-8478709D01*
X3069903Y-8384689D01*
X3143773Y-8274134D01*
X3194656Y-8151292D01*
X3220596Y-8020884D01*
X3220596Y-7887920D01*
X3194656Y-7757512D01*
X3143773Y-7634670D01*
X3069903Y-7524115D01*
X2975883Y-7430095D01*
X2865328Y-7356225D01*
X2742486Y-7305342D01*
X2737194Y-7304289D01*
X3958724Y-6082760D01*
X3977377Y-6067452D01*
X4038472Y-5993007D01*
X4083870Y-5908074D01*
X4111825Y-5815916D01*
X4117051Y-5762860D01*
X4121265Y-5720076D01*
X4118900Y-5696065D01*
X4118900Y-4016126D01*
X5806284Y-4016126D01*
X5806284Y-4149090D01*
X5832224Y-4279498D01*
X5883107Y-4402340D01*
X5956977Y-4512895D01*
X6050997Y-4606915D01*
X6115755Y-4650185D01*
X6082427Y-4683513D01*
X6008557Y-4794068D01*
X5957674Y-4916910D01*
X5931734Y-5047318D01*
X5931734Y-5180282D01*
X5957674Y-5310690D01*
X6008557Y-5433532D01*
X6082427Y-5544087D01*
X6176447Y-5638107D01*
X6287002Y-5711977D01*
X6409844Y-5762860D01*
X6540252Y-5788800D01*
X6673216Y-5788800D01*
X6803624Y-5762860D01*
X6926466Y-5711977D01*
X7037021Y-5638107D01*
X7131041Y-5544087D01*
X7204911Y-5433532D01*
X7255794Y-5310690D01*
X7266782Y-5255449D01*
X7364956Y-5235921D01*
X7487798Y-5185038D01*
X7598353Y-5111168D01*
X7692373Y-5017148D01*
X7766243Y-4906593D01*
X7817126Y-4783751D01*
X7843066Y-4653343D01*
X7843066Y-4520379D01*
X7817126Y-4389971D01*
X7766243Y-4267129D01*
X7692373Y-4156574D01*
X7598353Y-4062554D01*
X7487798Y-3988684D01*
X7364956Y-3937801D01*
X7234548Y-3911861D01*
X7135544Y-3911861D01*
X7130344Y-3885718D01*
X7079461Y-3762876D01*
X7005591Y-3652321D01*
X6911571Y-3558301D01*
X6801016Y-3484431D01*
X6678174Y-3433548D01*
X6547766Y-3407608D01*
X6414802Y-3407608D01*
X6284394Y-3433548D01*
X6161552Y-3484431D01*
X6050997Y-3558301D01*
X5956977Y-3652321D01*
X5883107Y-3762876D01*
X5832224Y-3885718D01*
X5806284Y-4016126D01*
X4118900Y-4016126D01*
X4118900Y296506D01*
X4212839Y202567D01*
G37*
G04 #@! TD.AperFunction*
D23*
X15078172Y-970938D02*
X15282903Y-1107735D01*
X15510389Y-1201963D01*
X15751886Y-1250000D01*
X15998114Y-1250000D01*
X16239611Y-1201963D01*
X16325001Y-1166593D01*
X16325001Y-1373407D01*
X16239611Y-1338037D01*
X15998114Y-1290000D01*
X15751886Y-1290000D01*
X15510389Y-1338037D01*
X15282903Y-1432265D01*
X15078172Y-1569062D01*
X14904062Y-1743172D01*
X14767265Y-1947903D01*
X14673037Y-2175389D01*
X14625000Y-2416886D01*
X14625000Y-2663114D01*
X14673037Y-2904611D01*
X14767265Y-3132097D01*
X14904062Y-3336828D01*
X15078172Y-3510938D01*
X15282903Y-3647735D01*
X15510389Y-3741963D01*
X15751886Y-3790000D01*
X15998114Y-3790000D01*
X16239611Y-3741963D01*
X16325001Y-3706593D01*
X16325001Y-4032913D01*
X16275000Y-4036109D01*
X16275000Y-4680000D01*
X16295000Y-4680000D01*
X16295000Y-5480000D01*
X16275000Y-5480000D01*
X16275000Y-6123891D01*
X16325001Y-6127087D01*
X16325001Y-6368065D01*
X15025000Y-6368065D01*
X14946586Y-6375788D01*
X14871186Y-6398660D01*
X14801697Y-6435803D01*
X14740789Y-6485789D01*
X14690803Y-6546697D01*
X14653660Y-6616186D01*
X14630788Y-6691586D01*
X14623065Y-6770000D01*
X14623065Y-8470000D01*
X14629321Y-8533521D01*
X14586482Y-8525000D01*
X14453518Y-8525000D01*
X14323110Y-8550940D01*
X14250000Y-8581223D01*
X14250000Y-5652061D01*
X14820132Y-5652061D01*
X14942794Y-5835670D01*
X15108130Y-6003014D01*
X15302936Y-6134888D01*
X15475000Y-6123891D01*
X15475000Y-5480000D01*
X14836898Y-5480000D01*
X14820132Y-5652061D01*
X14250000Y-5652061D01*
X14250000Y-4507939D01*
X14820132Y-4507939D01*
X14836898Y-4680000D01*
X15475000Y-4680000D01*
X15475000Y-4036109D01*
X15302936Y-4025112D01*
X15108130Y-4156986D01*
X14942794Y-4324330D01*
X14820132Y-4507939D01*
X14250000Y-4507939D01*
X14250000Y-1697105D01*
X14845213Y-1101894D01*
X14898085Y-1073633D01*
X14957996Y-1024465D01*
X15044848Y-937614D01*
X15078172Y-970938D01*
G04 #@! TA.AperFunction,Conductor*
D25*
G36*
X15078172Y-970938D02*
G01*
X15282903Y-1107735D01*
X15510389Y-1201963D01*
X15751886Y-1250000D01*
X15998114Y-1250000D01*
X16239611Y-1201963D01*
X16325001Y-1166593D01*
X16325001Y-1373407D01*
X16239611Y-1338037D01*
X15998114Y-1290000D01*
X15751886Y-1290000D01*
X15510389Y-1338037D01*
X15282903Y-1432265D01*
X15078172Y-1569062D01*
X14904062Y-1743172D01*
X14767265Y-1947903D01*
X14673037Y-2175389D01*
X14625000Y-2416886D01*
X14625000Y-2663114D01*
X14673037Y-2904611D01*
X14767265Y-3132097D01*
X14904062Y-3336828D01*
X15078172Y-3510938D01*
X15282903Y-3647735D01*
X15510389Y-3741963D01*
X15751886Y-3790000D01*
X15998114Y-3790000D01*
X16239611Y-3741963D01*
X16325001Y-3706593D01*
X16325001Y-4032913D01*
X16275000Y-4036109D01*
X16275000Y-4680000D01*
X16295000Y-4680000D01*
X16295000Y-5480000D01*
X16275000Y-5480000D01*
X16275000Y-6123891D01*
X16325001Y-6127087D01*
X16325001Y-6368065D01*
X15025000Y-6368065D01*
X14946586Y-6375788D01*
X14871186Y-6398660D01*
X14801697Y-6435803D01*
X14740789Y-6485789D01*
X14690803Y-6546697D01*
X14653660Y-6616186D01*
X14630788Y-6691586D01*
X14623065Y-6770000D01*
X14623065Y-8470000D01*
X14629321Y-8533521D01*
X14586482Y-8525000D01*
X14453518Y-8525000D01*
X14323110Y-8550940D01*
X14250000Y-8581223D01*
X14250000Y-5652061D01*
X14820132Y-5652061D01*
X14942794Y-5835670D01*
X15108130Y-6003014D01*
X15302936Y-6134888D01*
X15475000Y-6123891D01*
X15475000Y-5480000D01*
X14836898Y-5480000D01*
X14820132Y-5652061D01*
X14250000Y-5652061D01*
X14250000Y-4507939D01*
X14820132Y-4507939D01*
X14836898Y-4680000D01*
X15475000Y-4680000D01*
X15475000Y-4036109D01*
X15302936Y-4025112D01*
X15108130Y-4156986D01*
X14942794Y-4324330D01*
X14820132Y-4507939D01*
X14250000Y-4507939D01*
X14250000Y-1697105D01*
X14845213Y-1101894D01*
X14898085Y-1073633D01*
X14957996Y-1024465D01*
X15044848Y-937614D01*
X15078172Y-970938D01*
G37*
G04 #@! TD.AperFunction*
D23*
X3141101Y-5517565D02*
X1299182Y-7359485D01*
X1249108Y-7359485D01*
X1118700Y-7385425D01*
X1019842Y-7426373D01*
X936012Y-7370360D01*
X813170Y-7319477D01*
X682762Y-7293537D01*
X549798Y-7293537D01*
X419390Y-7319477D01*
X296548Y-7370360D01*
X185993Y-7444230D01*
X91973Y-7538250D01*
X18103Y-7648805D01*
X-32780Y-7771647D01*
X-53159Y-7874100D01*
X-1270035Y-7874100D01*
X-1245223Y-7749364D01*
X-1245223Y-7616400D01*
X-1271163Y-7485992D01*
X-1322046Y-7363150D01*
X-1395916Y-7252595D01*
X-1489936Y-7158575D01*
X-1600491Y-7084705D01*
X-1723333Y-7033822D01*
X-1853741Y-7007882D01*
X-1986705Y-7007882D01*
X-2117113Y-7033822D01*
X-2239955Y-7084705D01*
X-2350510Y-7158575D01*
X-2444530Y-7252595D01*
X-2518400Y-7363150D01*
X-2569283Y-7485992D01*
X-2595223Y-7616400D01*
X-2595223Y-7666473D01*
X-2637713Y-7708963D01*
X-2673201Y-7655851D01*
X-2767221Y-7561831D01*
X-2877776Y-7487961D01*
X-3000618Y-7437078D01*
X-3131026Y-7411138D01*
X-3263990Y-7411138D01*
X-3394398Y-7437078D01*
X-3517240Y-7487961D01*
X-3627795Y-7561831D01*
X-3721815Y-7655851D01*
X-3795685Y-7766406D01*
X-3846568Y-7889248D01*
X-3872508Y-8019656D01*
X-3872508Y-8152620D01*
X-3846568Y-8283028D01*
X-3841693Y-8294798D01*
X-5285645Y-8294798D01*
X-5244603Y-8195715D01*
X-5218663Y-8065307D01*
X-5218663Y-7932343D01*
X-5244603Y-7801935D01*
X-5295486Y-7679093D01*
X-5369356Y-7568538D01*
X-5404763Y-7533131D01*
X-5404763Y-7116171D01*
X-4621591Y-6332999D01*
X-4530283Y-6424307D01*
X-4419728Y-6498177D01*
X-4296886Y-6549060D01*
X-4166478Y-6575000D01*
X-4033514Y-6575000D01*
X-3903106Y-6549060D01*
X-3780264Y-6498177D01*
X-3669709Y-6424307D01*
X-3575689Y-6330287D01*
X-3504730Y-6224088D01*
X-3399023Y-6224088D01*
X-3268615Y-6198148D01*
X-3145773Y-6147265D01*
X-3035218Y-6073395D01*
X-2941198Y-5979375D01*
X-2867328Y-5868820D01*
X-2816445Y-5745978D01*
X-2790505Y-5615570D01*
X-2790505Y-5482606D01*
X-2816445Y-5352198D01*
X-2867328Y-5229356D01*
X-2941198Y-5118801D01*
X-3035218Y-5024781D01*
X-3145773Y-4950911D01*
X-3212050Y-4923458D01*
X-971276Y-2682685D01*
X-952623Y-2667377D01*
X-891528Y-2592932D01*
X-846130Y-2507999D01*
X-818175Y-2415841D01*
X-811100Y-2344011D01*
X-811100Y-2344010D01*
X-808735Y-2320000D01*
X-811100Y-2295989D01*
X-811100Y-1862508D01*
X-787492Y-1838900D01*
X1050989Y-1838900D01*
X1075000Y-1841265D01*
X1099011Y-1838900D01*
X1170841Y-1831825D01*
X1262999Y-1803870D01*
X1347932Y-1758472D01*
X1422377Y-1697377D01*
X1437690Y-1678718D01*
X3141100Y24692D01*
X3141101Y-5517565D01*
G04 #@! TA.AperFunction,Conductor*
D25*
G36*
X3141101Y-5517565D02*
G01*
X1299182Y-7359485D01*
X1249108Y-7359485D01*
X1118700Y-7385425D01*
X1019842Y-7426373D01*
X936012Y-7370360D01*
X813170Y-7319477D01*
X682762Y-7293537D01*
X549798Y-7293537D01*
X419390Y-7319477D01*
X296548Y-7370360D01*
X185993Y-7444230D01*
X91973Y-7538250D01*
X18103Y-7648805D01*
X-32780Y-7771647D01*
X-53159Y-7874100D01*
X-1270035Y-7874100D01*
X-1245223Y-7749364D01*
X-1245223Y-7616400D01*
X-1271163Y-7485992D01*
X-1322046Y-7363150D01*
X-1395916Y-7252595D01*
X-1489936Y-7158575D01*
X-1600491Y-7084705D01*
X-1723333Y-7033822D01*
X-1853741Y-7007882D01*
X-1986705Y-7007882D01*
X-2117113Y-7033822D01*
X-2239955Y-7084705D01*
X-2350510Y-7158575D01*
X-2444530Y-7252595D01*
X-2518400Y-7363150D01*
X-2569283Y-7485992D01*
X-2595223Y-7616400D01*
X-2595223Y-7666473D01*
X-2637713Y-7708963D01*
X-2673201Y-7655851D01*
X-2767221Y-7561831D01*
X-2877776Y-7487961D01*
X-3000618Y-7437078D01*
X-3131026Y-7411138D01*
X-3263990Y-7411138D01*
X-3394398Y-7437078D01*
X-3517240Y-7487961D01*
X-3627795Y-7561831D01*
X-3721815Y-7655851D01*
X-3795685Y-7766406D01*
X-3846568Y-7889248D01*
X-3872508Y-8019656D01*
X-3872508Y-8152620D01*
X-3846568Y-8283028D01*
X-3841693Y-8294798D01*
X-5285645Y-8294798D01*
X-5244603Y-8195715D01*
X-5218663Y-8065307D01*
X-5218663Y-7932343D01*
X-5244603Y-7801935D01*
X-5295486Y-7679093D01*
X-5369356Y-7568538D01*
X-5404763Y-7533131D01*
X-5404763Y-7116171D01*
X-4621591Y-6332999D01*
X-4530283Y-6424307D01*
X-4419728Y-6498177D01*
X-4296886Y-6549060D01*
X-4166478Y-6575000D01*
X-4033514Y-6575000D01*
X-3903106Y-6549060D01*
X-3780264Y-6498177D01*
X-3669709Y-6424307D01*
X-3575689Y-6330287D01*
X-3504730Y-6224088D01*
X-3399023Y-6224088D01*
X-3268615Y-6198148D01*
X-3145773Y-6147265D01*
X-3035218Y-6073395D01*
X-2941198Y-5979375D01*
X-2867328Y-5868820D01*
X-2816445Y-5745978D01*
X-2790505Y-5615570D01*
X-2790505Y-5482606D01*
X-2816445Y-5352198D01*
X-2867328Y-5229356D01*
X-2941198Y-5118801D01*
X-3035218Y-5024781D01*
X-3145773Y-4950911D01*
X-3212050Y-4923458D01*
X-971276Y-2682685D01*
X-952623Y-2667377D01*
X-891528Y-2592932D01*
X-846130Y-2507999D01*
X-818175Y-2415841D01*
X-811100Y-2344011D01*
X-811100Y-2344010D01*
X-808735Y-2320000D01*
X-811100Y-2295989D01*
X-811100Y-1862508D01*
X-787492Y-1838900D01*
X1050989Y-1838900D01*
X1075000Y-1841265D01*
X1099011Y-1838900D01*
X1170841Y-1831825D01*
X1262999Y-1803870D01*
X1347932Y-1758472D01*
X1422377Y-1697377D01*
X1437690Y-1678718D01*
X3141100Y24692D01*
X3141101Y-5517565D01*
G37*
G04 #@! TD.AperFunction*
D23*
X14629082Y4562597D02*
X14706212Y4555000D01*
X14739472Y4555000D01*
X14767265Y4487903D01*
X14904062Y4283172D01*
X15078172Y4109062D01*
X15282903Y3972265D01*
X15510389Y3878037D01*
X15751886Y3830000D01*
X15998114Y3830000D01*
X16239611Y3878037D01*
X16325000Y3913407D01*
X16325000Y3706593D01*
X16239611Y3741963D01*
X15998114Y3790000D01*
X15751886Y3790000D01*
X15510389Y3741963D01*
X15282903Y3647735D01*
X15078172Y3510938D01*
X14904062Y3336828D01*
X14767265Y3132097D01*
X14673037Y2904611D01*
X14626080Y2668542D01*
X14088535Y2130996D01*
X14039367Y2071085D01*
X14011107Y2018213D01*
X13046500Y1053605D01*
X13046500Y1375623D01*
X13048901Y1400001D01*
X13046500Y1424379D01*
X13046500Y1424389D01*
X13039316Y1497331D01*
X13010925Y1590922D01*
X12964822Y1677175D01*
X12902777Y1752777D01*
X12883833Y1768324D01*
X11575000Y3077156D01*
X11575000Y3116482D01*
X11549060Y3246890D01*
X11498177Y3369732D01*
X11488624Y3384030D01*
X11524307Y3419713D01*
X11598177Y3530268D01*
X11649060Y3653110D01*
X11675000Y3783518D01*
X11675000Y3916482D01*
X11649060Y4046890D01*
X11598177Y4169732D01*
X11524307Y4280287D01*
X11430287Y4374307D01*
X11319732Y4448177D01*
X11196890Y4499060D01*
X11066482Y4525000D01*
X10933518Y4525000D01*
X10803110Y4499060D01*
X10680268Y4448177D01*
X10569713Y4374307D01*
X10475693Y4280287D01*
X10401823Y4169732D01*
X10350940Y4046890D01*
X10325000Y3916482D01*
X10325000Y3783518D01*
X10350940Y3653110D01*
X10401823Y3530268D01*
X10411376Y3515970D01*
X10375693Y3480287D01*
X10301823Y3369732D01*
X10250940Y3246890D01*
X10225000Y3116482D01*
X10225000Y2983518D01*
X10250940Y2853110D01*
X10301823Y2730268D01*
X10375693Y2619713D01*
X10469713Y2525693D01*
X10580268Y2451823D01*
X10703110Y2400940D01*
X10833518Y2375000D01*
X10872844Y2375000D01*
X12053501Y1194342D01*
X12053501Y-1346395D01*
X9101620Y1605485D01*
X9085955Y1624573D01*
X9009820Y1687055D01*
X8922958Y1733484D01*
X8828708Y1762074D01*
X8812320Y1763688D01*
X8830287Y1775693D01*
X8924307Y1869713D01*
X8998177Y1980268D01*
X9049060Y2103110D01*
X9075000Y2233518D01*
X9075000Y2366482D01*
X9049060Y2496890D01*
X8998177Y2619732D01*
X8924307Y2730287D01*
X8830287Y2824307D01*
X8719732Y2898177D01*
X8596890Y2949060D01*
X8466482Y2975000D01*
X8333518Y2975000D01*
X8203110Y2949060D01*
X8159656Y2931061D01*
X9819696Y4591100D01*
X14535120Y4591100D01*
X14629082Y4562597D01*
G04 #@! TA.AperFunction,Conductor*
D25*
G36*
X14629082Y4562597D02*
G01*
X14706212Y4555000D01*
X14739472Y4555000D01*
X14767265Y4487903D01*
X14904062Y4283172D01*
X15078172Y4109062D01*
X15282903Y3972265D01*
X15510389Y3878037D01*
X15751886Y3830000D01*
X15998114Y3830000D01*
X16239611Y3878037D01*
X16325000Y3913407D01*
X16325000Y3706593D01*
X16239611Y3741963D01*
X15998114Y3790000D01*
X15751886Y3790000D01*
X15510389Y3741963D01*
X15282903Y3647735D01*
X15078172Y3510938D01*
X14904062Y3336828D01*
X14767265Y3132097D01*
X14673037Y2904611D01*
X14626080Y2668542D01*
X14088535Y2130996D01*
X14039367Y2071085D01*
X14011107Y2018213D01*
X13046500Y1053605D01*
X13046500Y1375623D01*
X13048901Y1400001D01*
X13046500Y1424379D01*
X13046500Y1424389D01*
X13039316Y1497331D01*
X13010925Y1590922D01*
X12964822Y1677175D01*
X12902777Y1752777D01*
X12883833Y1768324D01*
X11575000Y3077156D01*
X11575000Y3116482D01*
X11549060Y3246890D01*
X11498177Y3369732D01*
X11488624Y3384030D01*
X11524307Y3419713D01*
X11598177Y3530268D01*
X11649060Y3653110D01*
X11675000Y3783518D01*
X11675000Y3916482D01*
X11649060Y4046890D01*
X11598177Y4169732D01*
X11524307Y4280287D01*
X11430287Y4374307D01*
X11319732Y4448177D01*
X11196890Y4499060D01*
X11066482Y4525000D01*
X10933518Y4525000D01*
X10803110Y4499060D01*
X10680268Y4448177D01*
X10569713Y4374307D01*
X10475693Y4280287D01*
X10401823Y4169732D01*
X10350940Y4046890D01*
X10325000Y3916482D01*
X10325000Y3783518D01*
X10350940Y3653110D01*
X10401823Y3530268D01*
X10411376Y3515970D01*
X10375693Y3480287D01*
X10301823Y3369732D01*
X10250940Y3246890D01*
X10225000Y3116482D01*
X10225000Y2983518D01*
X10250940Y2853110D01*
X10301823Y2730268D01*
X10375693Y2619713D01*
X10469713Y2525693D01*
X10580268Y2451823D01*
X10703110Y2400940D01*
X10833518Y2375000D01*
X10872844Y2375000D01*
X12053501Y1194342D01*
X12053501Y-1346395D01*
X9101620Y1605485D01*
X9085955Y1624573D01*
X9009820Y1687055D01*
X8922958Y1733484D01*
X8828708Y1762074D01*
X8812320Y1763688D01*
X8830287Y1775693D01*
X8924307Y1869713D01*
X8998177Y1980268D01*
X9049060Y2103110D01*
X9075000Y2233518D01*
X9075000Y2366482D01*
X9049060Y2496890D01*
X8998177Y2619732D01*
X8924307Y2730287D01*
X8830287Y2824307D01*
X8719732Y2898177D01*
X8596890Y2949060D01*
X8466482Y2975000D01*
X8333518Y2975000D01*
X8203110Y2949060D01*
X8159656Y2931061D01*
X9819696Y4591100D01*
X14535120Y4591100D01*
X14629082Y4562597D01*
G37*
G04 #@! TD.AperFunction*
D23*
X15078172Y1569062D02*
X15282903Y1432265D01*
X15510389Y1338037D01*
X15751886Y1290000D01*
X15998114Y1290000D01*
X16239611Y1338037D01*
X16325000Y1373407D01*
X16325000Y1166593D01*
X16239611Y1201963D01*
X15998114Y1250000D01*
X15751886Y1250000D01*
X15510389Y1201963D01*
X15282903Y1107735D01*
X15078172Y970938D01*
X14904062Y796828D01*
X14767265Y592097D01*
X14673037Y364611D01*
X14626080Y128541D01*
X14215535Y-282004D01*
X14166367Y-341915D01*
X14138106Y-394787D01*
X13675000Y-857894D01*
X13675000Y267895D01*
X14718213Y1311107D01*
X14771085Y1339367D01*
X14830996Y1388535D01*
X15044848Y1602386D01*
X15078172Y1569062D01*
G04 #@! TA.AperFunction,Conductor*
D25*
G36*
X15078172Y1569062D02*
G01*
X15282903Y1432265D01*
X15510389Y1338037D01*
X15751886Y1290000D01*
X15998114Y1290000D01*
X16239611Y1338037D01*
X16325000Y1373407D01*
X16325000Y1166593D01*
X16239611Y1201963D01*
X15998114Y1250000D01*
X15751886Y1250000D01*
X15510389Y1201963D01*
X15282903Y1107735D01*
X15078172Y970938D01*
X14904062Y796828D01*
X14767265Y592097D01*
X14673037Y364611D01*
X14626080Y128541D01*
X14215535Y-282004D01*
X14166367Y-341915D01*
X14138106Y-394787D01*
X13675000Y-857894D01*
X13675000Y267895D01*
X14718213Y1311107D01*
X14771085Y1339367D01*
X14830996Y1388535D01*
X15044848Y1602386D01*
X15078172Y1569062D01*
G37*
G04 #@! TD.AperFunction*
D23*
X-13962211Y19218432D02*
X-13781639Y18948186D01*
X-13551814Y18718361D01*
X-13281568Y18537789D01*
X-12981287Y18413408D01*
X-12662511Y18350000D01*
X-12337489Y18350000D01*
X-12018713Y18413408D01*
X-11718432Y18537789D01*
X-11448186Y18718361D01*
X-11218361Y18948186D01*
X-11037789Y19218432D01*
X-10962581Y19400000D01*
X6697476Y19400000D01*
X6778573Y19351700D01*
X6815548Y19245752D01*
X6829903Y19152025D01*
X6827008Y18925276D01*
X6827000Y18923948D01*
X6828000Y17001948D01*
X6828001Y17001612D01*
X6830916Y16249671D01*
X6799989Y16182296D01*
X6739989Y16155980D01*
X374906Y16150000D01*
X355696Y16148119D01*
X336925Y16142468D01*
X-88075Y15967468D01*
X-106756Y15957333D01*
X-121728Y15944679D01*
X-898066Y15145508D01*
X-1701445Y16017748D01*
X-1720461Y16033818D01*
X-1737861Y16042848D01*
X-2112861Y16192848D01*
X-2130979Y16198174D01*
X-2150498Y16199999D01*
X-7175498Y16174999D01*
X-7200450Y16171707D01*
X-7218828Y16164884D01*
X-7823828Y15869884D01*
X-7833243Y15864647D01*
X-7848734Y15852634D01*
X-8587553Y15153483D01*
X-8754745Y15042022D01*
X-8965810Y14982976D01*
X-10107631Y14981008D01*
X-11716108Y15124604D01*
X-11719554Y15124852D01*
X-13073837Y15198722D01*
X-13255279Y15289443D01*
X-13280491Y15298079D01*
X-13300000Y15300000D01*
X-15200000Y15300000D01*
X-15219509Y15298079D01*
X-15238268Y15292388D01*
X-15255557Y15283147D01*
X-15270711Y15270711D01*
X-15283147Y15255557D01*
X-15292388Y15238268D01*
X-15298079Y15219509D01*
X-15300000Y15200000D01*
X-15300000Y13600000D01*
X-15298079Y13580491D01*
X-15292388Y13561732D01*
X-15283147Y13544443D01*
X-15270711Y13529289D01*
X-15255557Y13516853D01*
X-15238268Y13507612D01*
X-15219509Y13501921D01*
X-15200000Y13500000D01*
X-13300000Y13500000D01*
X-13283486Y13501373D01*
X-13264562Y13506490D01*
X-13247000Y13515200D01*
X-13071320Y13625000D01*
X-12725000Y13625000D01*
X-12718916Y13625185D01*
X-11225916Y13716185D01*
X-11222130Y13716488D01*
X-10608015Y13777400D01*
X-10020951Y13825000D01*
X-8775000Y13825000D01*
X-8762493Y13825785D01*
X-8743377Y13830132D01*
X-8218377Y14005132D01*
X-8207526Y14009469D01*
X-8190680Y14019494D01*
X-7715680Y14369494D01*
X-7701894Y14381768D01*
X-7356395Y14751945D01*
X-7145194Y14925599D01*
X-7041252Y14977570D01*
X-6950328Y15008744D01*
X-6852117Y15025258D01*
X-6698530Y15029998D01*
X-2420724Y15025024D01*
X-2368776Y15002592D01*
X-1980087Y14620671D01*
X-1978806Y14619434D01*
X-1598350Y14258691D01*
X-1552422Y14199443D01*
X-1403750Y13611653D01*
X-1335000Y13238855D01*
X-1335000Y12898000D01*
X-1332922Y12877722D01*
X-1327085Y12859008D01*
X-1317708Y12841792D01*
X-1305153Y12826736D01*
X-1289903Y12814420D01*
X-1272542Y12805315D01*
X-1253739Y12799771D01*
X-1234215Y12798003D01*
X-597215Y12803003D01*
X-568874Y12807336D01*
X-550771Y12814856D01*
X-534482Y12825764D01*
X-520634Y12839639D01*
X-509760Y12855950D01*
X-502276Y12874069D01*
X-498472Y12893300D01*
X-425876Y13638156D01*
X-345542Y14079119D01*
X513393Y14953905D01*
X555599Y14988147D01*
X581281Y15002751D01*
X659271Y15011000D01*
X1077039Y15011000D01*
X6260698Y15013000D01*
X6417363Y15012002D01*
X6418204Y15012000D01*
X6907204Y15013000D01*
X7701000Y15013000D01*
X7710710Y15013473D01*
X7751710Y15017473D01*
X7778245Y15023800D01*
X7814245Y15037800D01*
X7837727Y15050796D01*
X7884727Y15085796D01*
X7899300Y15099070D01*
X7910929Y15114852D01*
X7935929Y15156852D01*
X7940817Y15166141D01*
X7947239Y15184663D01*
X7959239Y15234663D01*
X7961999Y15257565D01*
X7966999Y16407565D01*
X7967000Y16407884D01*
X7967415Y16766482D01*
X14225000Y16766482D01*
X14225000Y16633518D01*
X14250940Y16503110D01*
X14301823Y16380268D01*
X14375693Y16269713D01*
X14469713Y16175693D01*
X14580268Y16101823D01*
X14703110Y16050940D01*
X14833518Y16025000D01*
X14966482Y16025000D01*
X15096890Y16050940D01*
X15219732Y16101823D01*
X15330287Y16175693D01*
X15424307Y16269713D01*
X15498177Y16380268D01*
X15549060Y16503110D01*
X15575000Y16633518D01*
X15575000Y16766482D01*
X15549060Y16896890D01*
X15498177Y17019732D01*
X15424307Y17130287D01*
X15330287Y17224307D01*
X15219732Y17298177D01*
X15096890Y17349060D01*
X14966482Y17375000D01*
X14833518Y17375000D01*
X14703110Y17349060D01*
X14580268Y17298177D01*
X14469713Y17224307D01*
X14375693Y17130287D01*
X14301823Y17019732D01*
X14250940Y16896890D01*
X14225000Y16766482D01*
X7967415Y16766482D01*
X7970000Y18997699D01*
X7970950Y19156428D01*
X7992390Y19285068D01*
X8032620Y19371184D01*
X8116667Y19400000D01*
X16325000Y19400000D01*
X16325000Y16563360D01*
X16266482Y16575000D01*
X16133518Y16575000D01*
X16003110Y16549060D01*
X15880268Y16498177D01*
X15769713Y16424307D01*
X15675693Y16330287D01*
X15601823Y16219732D01*
X15550940Y16096890D01*
X15525000Y15966482D01*
X15525000Y15833518D01*
X15550940Y15703110D01*
X15601823Y15580268D01*
X15675693Y15469713D01*
X15769713Y15375693D01*
X15880268Y15301823D01*
X16003110Y15250940D01*
X16133518Y15225000D01*
X16266482Y15225000D01*
X16325000Y15236640D01*
X16325000Y12267461D01*
X16114471Y12477990D01*
X16098027Y12498027D01*
X16018086Y12563633D01*
X15926881Y12612383D01*
X15827918Y12642403D01*
X15750788Y12650000D01*
X15750780Y12650000D01*
X15725000Y12652539D01*
X15699220Y12650000D01*
X13867462Y12650000D01*
X12364471Y14152990D01*
X12348027Y14173027D01*
X12268086Y14238633D01*
X12176881Y14287383D01*
X12077918Y14317403D01*
X12000788Y14325000D01*
X12000780Y14325000D01*
X11975000Y14327539D01*
X11949220Y14325000D01*
X11036880Y14325000D01*
X11011092Y14327540D01*
X10985304Y14325000D01*
X10908174Y14317403D01*
X10809211Y14287383D01*
X10718006Y14238633D01*
X10687185Y14213339D01*
X10658095Y14189466D01*
X10658091Y14189462D01*
X10638065Y14173027D01*
X10621630Y14153001D01*
X9021559Y12552929D01*
X8973177Y12669732D01*
X8899307Y12780287D01*
X8805287Y12874307D01*
X8694732Y12948177D01*
X8571890Y12999060D01*
X8441482Y13025000D01*
X8308518Y13025000D01*
X8178110Y12999060D01*
X8055268Y12948177D01*
X7944713Y12874307D01*
X7850693Y12780287D01*
X7840124Y12764470D01*
X7830287Y12774307D01*
X7719732Y12848177D01*
X7596890Y12899060D01*
X7466482Y12925000D01*
X7333518Y12925000D01*
X7203110Y12899060D01*
X7080268Y12848177D01*
X6969713Y12774307D01*
X6875693Y12680287D01*
X6801823Y12569732D01*
X6750940Y12446890D01*
X6725000Y12316482D01*
X6725000Y12183518D01*
X6750940Y12053110D01*
X6801823Y11930268D01*
X6875693Y11819713D01*
X6969713Y11725693D01*
X7080268Y11651823D01*
X7203110Y11600940D01*
X7333518Y11575000D01*
X7466482Y11575000D01*
X7596890Y11600940D01*
X7719732Y11651823D01*
X7830287Y11725693D01*
X7924307Y11819713D01*
X7934876Y11835530D01*
X7944713Y11825693D01*
X8055268Y11751823D01*
X8172071Y11703441D01*
X6497005Y10028374D01*
X6476974Y10011935D01*
X6460535Y9991904D01*
X6411367Y9931993D01*
X6362617Y9840788D01*
X6332597Y9741825D01*
X6322461Y9638908D01*
X6325001Y9613118D01*
X6325000Y5542462D01*
X6147005Y5364466D01*
X6126974Y5348027D01*
X6110535Y5327996D01*
X6061367Y5268085D01*
X6012617Y5176880D01*
X5982597Y5077917D01*
X5979150Y5042919D01*
X5975000Y5000788D01*
X5975000Y5000780D01*
X5972461Y4975000D01*
X5974110Y4958252D01*
X5901632Y4849780D01*
X5850749Y4726938D01*
X5824809Y4596530D01*
X5824809Y4463566D01*
X5850749Y4333158D01*
X5901632Y4210316D01*
X5975502Y4099761D01*
X5993089Y4082174D01*
X5979243Y4074773D01*
X5904798Y4013678D01*
X5889492Y3995027D01*
X5412591Y3518125D01*
X5393933Y3502813D01*
X5332838Y3428368D01*
X5287440Y3343434D01*
X5275363Y3303619D01*
X5259485Y3251277D01*
X5250045Y3155436D01*
X5252410Y3131424D01*
X5252411Y2593819D01*
X5237492Y2578900D01*
X4022023Y2578900D01*
X3998012Y2581265D01*
X3974001Y2578900D01*
X3902171Y2571825D01*
X3810013Y2543870D01*
X3725080Y2498472D01*
X3650635Y2437377D01*
X3635329Y2418726D01*
X805504Y-411100D01*
X-2462873Y-411100D01*
X-2401823Y-319732D01*
X-2350940Y-196890D01*
X-2325000Y-66482D01*
X-2325000Y66482D01*
X-2350940Y196890D01*
X-2401823Y319732D01*
X-2475693Y430287D01*
X-2569713Y524307D01*
X-2680268Y598177D01*
X-2803110Y649060D01*
X-2856214Y659623D01*
X-2901823Y769732D01*
X-2975693Y880287D01*
X-3069713Y974307D01*
X-3180268Y1048177D01*
X-3303110Y1099060D01*
X-3401290Y1118589D01*
X-3366713Y1141693D01*
X-3272693Y1235713D01*
X-3198823Y1346268D01*
X-3147940Y1469110D01*
X-3122000Y1599518D01*
X-3122000Y1732482D01*
X-3147940Y1862890D01*
X-3198823Y1985732D01*
X-3272693Y2096287D01*
X-3366713Y2190307D01*
X-3477268Y2264177D01*
X-3600110Y2315060D01*
X-3730518Y2341000D01*
X-3863482Y2341000D01*
X-3993890Y2315060D01*
X-4116732Y2264177D01*
X-4203000Y2206535D01*
X-4289268Y2264177D01*
X-4412110Y2315060D01*
X-4542518Y2341000D01*
X-4675482Y2341000D01*
X-4805890Y2315060D01*
X-4928732Y2264177D01*
X-5039287Y2190307D01*
X-5133307Y2096287D01*
X-5207177Y1985732D01*
X-5258060Y1862890D01*
X-5284000Y1732482D01*
X-5284000Y1599518D01*
X-5258060Y1469110D01*
X-5207177Y1346268D01*
X-5133307Y1235713D01*
X-5039287Y1141693D01*
X-4928732Y1067823D01*
X-4805890Y1016940D01*
X-4675482Y991000D01*
X-4542518Y991000D01*
X-4412110Y1016940D01*
X-4289268Y1067823D01*
X-4203000Y1125465D01*
X-4116732Y1067823D01*
X-3993890Y1016940D01*
X-3895710Y997411D01*
X-3930287Y974307D01*
X-4024307Y880287D01*
X-4098177Y769732D01*
X-4149060Y646890D01*
X-4175000Y516482D01*
X-4175000Y383518D01*
X-4149060Y253110D01*
X-4098177Y130268D01*
X-4024307Y19713D01*
X-3930287Y-74307D01*
X-3819732Y-148177D01*
X-3696890Y-199060D01*
X-3643786Y-209623D01*
X-3598177Y-319732D01*
X-3537127Y-411100D01*
X-3647491Y-411100D01*
X-7475073Y3416482D01*
X-2535000Y3416482D01*
X-2535000Y3283518D01*
X-2509060Y3153110D01*
X-2458177Y3030268D01*
X-2384307Y2919713D01*
X-2290287Y2825693D01*
X-2179732Y2751823D01*
X-2056890Y2700940D01*
X-1926482Y2675000D01*
X-1793518Y2675000D01*
X-1663110Y2700940D01*
X-1573882Y2737899D01*
X-1549060Y2613110D01*
X-1498177Y2490268D01*
X-1424307Y2379713D01*
X-1330287Y2285693D01*
X-1219732Y2211823D01*
X-1096890Y2160940D01*
X-966482Y2135000D01*
X-833518Y2135000D01*
X-703110Y2160940D01*
X-580268Y2211823D01*
X-469713Y2285693D01*
X-375693Y2379713D01*
X-301823Y2490268D01*
X-250940Y2613110D01*
X-225000Y2743518D01*
X-225000Y2876482D01*
X-250940Y3006890D01*
X-301823Y3129732D01*
X-302532Y3130793D01*
X-267211Y3183654D01*
X-216328Y3306496D01*
X-203823Y3369362D01*
X-203757Y3369295D01*
X-178060Y3240110D01*
X-127177Y3117268D01*
X-53307Y3006713D01*
X40713Y2912693D01*
X151268Y2838823D01*
X274110Y2787940D01*
X404518Y2762000D01*
X537482Y2762000D01*
X667890Y2787940D01*
X790732Y2838823D01*
X901287Y2912693D01*
X995307Y3006713D01*
X1069177Y3117268D01*
X1120060Y3240110D01*
X1146000Y3370518D01*
X1146000Y3503482D01*
X1120060Y3633890D01*
X1069177Y3756732D01*
X995307Y3867287D01*
X901287Y3961307D01*
X790732Y4035177D01*
X667890Y4086060D01*
X538705Y4111757D01*
X261000Y4389461D01*
X261000Y7235750D01*
X334177Y7345268D01*
X385060Y7468110D01*
X411000Y7598518D01*
X411000Y7731482D01*
X385060Y7861890D01*
X334177Y7984732D01*
X270926Y8079394D01*
X334732Y8105823D01*
X445287Y8179693D01*
X539307Y8273713D01*
X613177Y8384268D01*
X664060Y8507110D01*
X690000Y8637518D01*
X690000Y8770482D01*
X664060Y8900890D01*
X613177Y9023732D01*
X539307Y9134287D01*
X445287Y9228307D01*
X334732Y9302177D01*
X211890Y9353060D01*
X81482Y9379000D01*
X-51482Y9379000D01*
X-181890Y9353060D01*
X-304732Y9302177D01*
X-415287Y9228307D01*
X-416222Y9227372D01*
X-476826Y9221403D01*
X-575789Y9191383D01*
X-666994Y9142633D01*
X-746935Y9077027D01*
X-763375Y9056995D01*
X-913388Y8906982D01*
X-1004713Y8998307D01*
X-1115268Y9072177D01*
X-1122311Y9075095D01*
X-1092693Y9104713D01*
X-1018823Y9215268D01*
X-967940Y9338110D01*
X-942000Y9468518D01*
X-942000Y9601482D01*
X-967940Y9731890D01*
X-1018823Y9854732D01*
X-1092693Y9965287D01*
X-1186713Y10059307D01*
X-1297268Y10133177D01*
X-1420110Y10184060D01*
X-1550518Y10210000D01*
X-1683482Y10210000D01*
X-1813890Y10184060D01*
X-1936732Y10133177D01*
X-2047287Y10059307D01*
X-2141307Y9965287D01*
X-2215177Y9854732D01*
X-2266060Y9731890D01*
X-2292000Y9601482D01*
X-2292000Y9468518D01*
X-2266060Y9338110D01*
X-2215177Y9215268D01*
X-2141307Y9104713D01*
X-2047287Y9010693D01*
X-1936732Y8936823D01*
X-1929689Y8933905D01*
X-1959307Y8904287D01*
X-2033177Y8793732D01*
X-2084060Y8670890D01*
X-2110000Y8540482D01*
X-2110000Y8407518D01*
X-2084060Y8277110D01*
X-2033177Y8154268D01*
X-2011653Y8122055D01*
X-2037384Y8083546D01*
X-2088267Y7960704D01*
X-2114207Y7830296D01*
X-2114207Y7697332D01*
X-2088267Y7566924D01*
X-2037384Y7444082D01*
X-1964207Y7334564D01*
X-1964206Y5575675D01*
X-2054728Y5538179D01*
X-2165283Y5464309D01*
X-2259303Y5370289D01*
X-2333173Y5259734D01*
X-2384056Y5136892D01*
X-2409996Y5006484D01*
X-2409996Y4873520D01*
X-2384056Y4743112D01*
X-2333173Y4620270D01*
X-2259303Y4509715D01*
X-2165283Y4415695D01*
X-2054728Y4341825D01*
X-1931886Y4290942D01*
X-1801478Y4265002D01*
X-1687460Y4265002D01*
X-1927705Y4024757D01*
X-2056890Y3999060D01*
X-2179732Y3948177D01*
X-2290287Y3874307D01*
X-2384307Y3780287D01*
X-2458177Y3669732D01*
X-2509060Y3546890D01*
X-2535000Y3416482D01*
X-7475073Y3416482D01*
X-12007310Y7948718D01*
X-12022623Y7967377D01*
X-12097068Y8028472D01*
X-12182001Y8073870D01*
X-12274159Y8101825D01*
X-12345989Y8108900D01*
X-12370000Y8111265D01*
X-12394011Y8108900D01*
X-14281120Y8108900D01*
X-14375082Y8137403D01*
X-14452212Y8145000D01*
X-14739472Y8145000D01*
X-14767265Y8212097D01*
X-14904062Y8416828D01*
X-15078172Y8590938D01*
X-15282903Y8727735D01*
X-15510389Y8821963D01*
X-15751886Y8870000D01*
X-15998114Y8870000D01*
X-16239611Y8821963D01*
X-16325000Y8786594D01*
X-16325000Y13250000D01*
X-4750000Y13250000D01*
X-4750000Y4700000D01*
X-4748079Y4680491D01*
X-4742388Y4661732D01*
X-4733147Y4644443D01*
X-4720711Y4629289D01*
X-4705557Y4616853D01*
X-4688268Y4607612D01*
X-4669509Y4601921D01*
X-4650000Y4600000D01*
X-3700000Y4600000D01*
X-3680491Y4601921D01*
X-3661732Y4607612D01*
X-3644443Y4616853D01*
X-3629289Y4629289D01*
X-3616853Y4644443D01*
X-3607612Y4661732D01*
X-3601921Y4680491D01*
X-3600000Y4700000D01*
X-3600000Y11096482D01*
X-1355000Y11096482D01*
X-1355000Y10963518D01*
X-1329060Y10833110D01*
X-1278177Y10710268D01*
X-1204307Y10599713D01*
X-1110287Y10505693D01*
X-999732Y10431823D01*
X-876890Y10380940D01*
X-746482Y10355000D01*
X-613518Y10355000D01*
X-483110Y10380940D01*
X-360268Y10431823D01*
X-313495Y10463075D01*
X-297623Y10452470D01*
X-174781Y10401587D01*
X-44373Y10375647D01*
X88591Y10375647D01*
X218999Y10401587D01*
X341841Y10452470D01*
X452396Y10526340D01*
X546416Y10620360D01*
X620286Y10730915D01*
X671169Y10853757D01*
X697109Y10984165D01*
X697109Y11117129D01*
X671169Y11247537D01*
X620286Y11370379D01*
X546416Y11480934D01*
X452396Y11574954D01*
X341841Y11648824D01*
X218999Y11699707D01*
X88591Y11725647D01*
X-44373Y11725647D01*
X-174781Y11699707D01*
X-297623Y11648824D01*
X-344396Y11617572D01*
X-360268Y11628177D01*
X-483110Y11679060D01*
X-613518Y11705000D01*
X-746482Y11705000D01*
X-876890Y11679060D01*
X-999732Y11628177D01*
X-1110287Y11554307D01*
X-1204307Y11460287D01*
X-1278177Y11349732D01*
X-1329060Y11226890D01*
X-1355000Y11096482D01*
X-3600000Y11096482D01*
X-3600000Y12104344D01*
X-449906Y12104344D01*
X-448079Y12080491D01*
X-442388Y12061732D01*
X-433147Y12044443D01*
X-420711Y12029289D01*
X-405557Y12016853D01*
X-388268Y12007612D01*
X-369509Y12001921D01*
X-350000Y12000000D01*
X-50000Y12000000D01*
X-33560Y12001361D01*
X266440Y12051361D01*
X270165Y12052054D01*
X1110188Y12225000D01*
X1800000Y12225000D01*
X1800000Y4700000D01*
X1801902Y4680591D01*
X1807573Y4661826D01*
X1816796Y4644528D01*
X1829217Y4629362D01*
X1844358Y4616910D01*
X1861637Y4607651D01*
X1880391Y4601941D01*
X1899898Y4600000D01*
X2877898Y4599000D01*
X2898036Y4601028D01*
X2916765Y4606819D01*
X2934004Y4616153D01*
X2949090Y4628671D01*
X2961445Y4643891D01*
X2970592Y4661229D01*
X2976182Y4680019D01*
X2977999Y4699538D01*
X2931999Y13250538D01*
X2930079Y13269509D01*
X2924388Y13288268D01*
X2915147Y13305557D01*
X2902711Y13320711D01*
X2887557Y13333147D01*
X2870268Y13342388D01*
X2851509Y13348079D01*
X2832000Y13350000D01*
X1504643Y13350000D01*
X1475851Y13406255D01*
X1469703Y13452364D01*
X1473405Y13487330D01*
X1526271Y13534908D01*
X1712396Y13580808D01*
X2408110Y13598496D01*
X3035962Y13596546D01*
X3272417Y13524542D01*
X3379184Y13448985D01*
X3478160Y13333821D01*
X3482934Y13328646D01*
X3723365Y13085781D01*
X3914686Y12802570D01*
X4045221Y12460626D01*
X4110990Y12093174D01*
X4104000Y5749110D01*
X4105921Y5729491D01*
X4111612Y5710732D01*
X4120853Y5693443D01*
X4133289Y5678289D01*
X4148443Y5665853D01*
X4165732Y5656612D01*
X4184491Y5650921D01*
X4204000Y5649000D01*
X5154000Y5649000D01*
X5173509Y5650921D01*
X5192268Y5656612D01*
X5209557Y5665853D01*
X5224711Y5678289D01*
X5237147Y5693443D01*
X5246388Y5710732D01*
X5252079Y5729491D01*
X5254000Y5749000D01*
X5254000Y12140000D01*
X5253589Y12149054D01*
X5229589Y12413054D01*
X5227395Y12426678D01*
X5132395Y12834678D01*
X5127911Y12848980D01*
X4967911Y13250980D01*
X4963733Y13260113D01*
X4897733Y13387113D01*
X4891483Y13397538D01*
X4599483Y13823538D01*
X4590552Y13834751D01*
X4263552Y14189751D01*
X4253942Y14198886D01*
X3956942Y14445886D01*
X3942308Y14455998D01*
X3635308Y14629998D01*
X3608853Y14640354D01*
X3182853Y14740354D01*
X3161082Y14742994D01*
X2699082Y14747994D01*
X2697036Y14747995D01*
X1660036Y14737995D01*
X1652744Y14737659D01*
X1483744Y14723659D01*
X1468884Y14721292D01*
X1085884Y14630292D01*
X1073686Y14626557D01*
X718686Y14492557D01*
X700312Y14483366D01*
X150312Y14133366D01*
X135530Y14121882D01*
X122627Y14107124D01*
X-127373Y13757124D01*
X-133416Y13747564D01*
X-371034Y13319852D01*
X-380655Y13309116D01*
X-390638Y13292245D01*
X-397139Y13273751D01*
X-399906Y13254344D01*
X-449906Y12104344D01*
X-3600000Y12104344D01*
X-3600000Y12225000D01*
X-3025000Y12225000D01*
X-3015608Y12225442D01*
X-1690608Y12350442D01*
X-1680491Y12351921D01*
X-1661732Y12357612D01*
X-1644443Y12366853D01*
X-1629289Y12379289D01*
X-1616853Y12394443D01*
X-1607612Y12411732D01*
X-1601921Y12430491D01*
X-1600000Y12450000D01*
X-1600000Y13100000D01*
X-1603397Y13125842D01*
X-1610294Y13144192D01*
X-1620639Y13160843D01*
X-1634034Y13175157D01*
X-1649964Y13186582D01*
X-1667817Y13194680D01*
X-1686906Y13199139D01*
X-3011906Y13374139D01*
X-3026538Y13374988D01*
X-4651538Y13349988D01*
X-4669509Y13348079D01*
X-4688268Y13342388D01*
X-4705557Y13333147D01*
X-4720711Y13320711D01*
X-4733147Y13305557D01*
X-4742388Y13288268D01*
X-4748079Y13269509D01*
X-4750000Y13250000D01*
X-16325000Y13250000D01*
X-16325000Y19400000D01*
X-14037419Y19400000D01*
X-13962211Y19218432D01*
G04 #@! TA.AperFunction,Conductor*
D25*
G36*
X-13962211Y19218432D02*
G01*
X-13781639Y18948186D01*
X-13551814Y18718361D01*
X-13281568Y18537789D01*
X-12981287Y18413408D01*
X-12662511Y18350000D01*
X-12337489Y18350000D01*
X-12018713Y18413408D01*
X-11718432Y18537789D01*
X-11448186Y18718361D01*
X-11218361Y18948186D01*
X-11037789Y19218432D01*
X-10962581Y19400000D01*
X6697476Y19400000D01*
X6778573Y19351700D01*
X6815548Y19245752D01*
X6829903Y19152025D01*
X6827008Y18925276D01*
X6827000Y18923948D01*
X6828000Y17001948D01*
X6828001Y17001612D01*
X6830916Y16249671D01*
X6799989Y16182296D01*
X6739989Y16155980D01*
X374906Y16150000D01*
X355696Y16148119D01*
X336925Y16142468D01*
X-88075Y15967468D01*
X-106756Y15957333D01*
X-121728Y15944679D01*
X-898066Y15145508D01*
X-1701445Y16017748D01*
X-1720461Y16033818D01*
X-1737861Y16042848D01*
X-2112861Y16192848D01*
X-2130979Y16198174D01*
X-2150498Y16199999D01*
X-7175498Y16174999D01*
X-7200450Y16171707D01*
X-7218828Y16164884D01*
X-7823828Y15869884D01*
X-7833243Y15864647D01*
X-7848734Y15852634D01*
X-8587553Y15153483D01*
X-8754745Y15042022D01*
X-8965810Y14982976D01*
X-10107631Y14981008D01*
X-11716108Y15124604D01*
X-11719554Y15124852D01*
X-13073837Y15198722D01*
X-13255279Y15289443D01*
X-13280491Y15298079D01*
X-13300000Y15300000D01*
X-15200000Y15300000D01*
X-15219509Y15298079D01*
X-15238268Y15292388D01*
X-15255557Y15283147D01*
X-15270711Y15270711D01*
X-15283147Y15255557D01*
X-15292388Y15238268D01*
X-15298079Y15219509D01*
X-15300000Y15200000D01*
X-15300000Y13600000D01*
X-15298079Y13580491D01*
X-15292388Y13561732D01*
X-15283147Y13544443D01*
X-15270711Y13529289D01*
X-15255557Y13516853D01*
X-15238268Y13507612D01*
X-15219509Y13501921D01*
X-15200000Y13500000D01*
X-13300000Y13500000D01*
X-13283486Y13501373D01*
X-13264562Y13506490D01*
X-13247000Y13515200D01*
X-13071320Y13625000D01*
X-12725000Y13625000D01*
X-12718916Y13625185D01*
X-11225916Y13716185D01*
X-11222130Y13716488D01*
X-10608015Y13777400D01*
X-10020951Y13825000D01*
X-8775000Y13825000D01*
X-8762493Y13825785D01*
X-8743377Y13830132D01*
X-8218377Y14005132D01*
X-8207526Y14009469D01*
X-8190680Y14019494D01*
X-7715680Y14369494D01*
X-7701894Y14381768D01*
X-7356395Y14751945D01*
X-7145194Y14925599D01*
X-7041252Y14977570D01*
X-6950328Y15008744D01*
X-6852117Y15025258D01*
X-6698530Y15029998D01*
X-2420724Y15025024D01*
X-2368776Y15002592D01*
X-1980087Y14620671D01*
X-1978806Y14619434D01*
X-1598350Y14258691D01*
X-1552422Y14199443D01*
X-1403750Y13611653D01*
X-1335000Y13238855D01*
X-1335000Y12898000D01*
X-1332922Y12877722D01*
X-1327085Y12859008D01*
X-1317708Y12841792D01*
X-1305153Y12826736D01*
X-1289903Y12814420D01*
X-1272542Y12805315D01*
X-1253739Y12799771D01*
X-1234215Y12798003D01*
X-597215Y12803003D01*
X-568874Y12807336D01*
X-550771Y12814856D01*
X-534482Y12825764D01*
X-520634Y12839639D01*
X-509760Y12855950D01*
X-502276Y12874069D01*
X-498472Y12893300D01*
X-425876Y13638156D01*
X-345542Y14079119D01*
X513393Y14953905D01*
X555599Y14988147D01*
X581281Y15002751D01*
X659271Y15011000D01*
X1077039Y15011000D01*
X6260698Y15013000D01*
X6417363Y15012002D01*
X6418204Y15012000D01*
X6907204Y15013000D01*
X7701000Y15013000D01*
X7710710Y15013473D01*
X7751710Y15017473D01*
X7778245Y15023800D01*
X7814245Y15037800D01*
X7837727Y15050796D01*
X7884727Y15085796D01*
X7899300Y15099070D01*
X7910929Y15114852D01*
X7935929Y15156852D01*
X7940817Y15166141D01*
X7947239Y15184663D01*
X7959239Y15234663D01*
X7961999Y15257565D01*
X7966999Y16407565D01*
X7967000Y16407884D01*
X7967415Y16766482D01*
X14225000Y16766482D01*
X14225000Y16633518D01*
X14250940Y16503110D01*
X14301823Y16380268D01*
X14375693Y16269713D01*
X14469713Y16175693D01*
X14580268Y16101823D01*
X14703110Y16050940D01*
X14833518Y16025000D01*
X14966482Y16025000D01*
X15096890Y16050940D01*
X15219732Y16101823D01*
X15330287Y16175693D01*
X15424307Y16269713D01*
X15498177Y16380268D01*
X15549060Y16503110D01*
X15575000Y16633518D01*
X15575000Y16766482D01*
X15549060Y16896890D01*
X15498177Y17019732D01*
X15424307Y17130287D01*
X15330287Y17224307D01*
X15219732Y17298177D01*
X15096890Y17349060D01*
X14966482Y17375000D01*
X14833518Y17375000D01*
X14703110Y17349060D01*
X14580268Y17298177D01*
X14469713Y17224307D01*
X14375693Y17130287D01*
X14301823Y17019732D01*
X14250940Y16896890D01*
X14225000Y16766482D01*
X7967415Y16766482D01*
X7970000Y18997699D01*
X7970950Y19156428D01*
X7992390Y19285068D01*
X8032620Y19371184D01*
X8116667Y19400000D01*
X16325000Y19400000D01*
X16325000Y16563360D01*
X16266482Y16575000D01*
X16133518Y16575000D01*
X16003110Y16549060D01*
X15880268Y16498177D01*
X15769713Y16424307D01*
X15675693Y16330287D01*
X15601823Y16219732D01*
X15550940Y16096890D01*
X15525000Y15966482D01*
X15525000Y15833518D01*
X15550940Y15703110D01*
X15601823Y15580268D01*
X15675693Y15469713D01*
X15769713Y15375693D01*
X15880268Y15301823D01*
X16003110Y15250940D01*
X16133518Y15225000D01*
X16266482Y15225000D01*
X16325000Y15236640D01*
X16325000Y12267461D01*
X16114471Y12477990D01*
X16098027Y12498027D01*
X16018086Y12563633D01*
X15926881Y12612383D01*
X15827918Y12642403D01*
X15750788Y12650000D01*
X15750780Y12650000D01*
X15725000Y12652539D01*
X15699220Y12650000D01*
X13867462Y12650000D01*
X12364471Y14152990D01*
X12348027Y14173027D01*
X12268086Y14238633D01*
X12176881Y14287383D01*
X12077918Y14317403D01*
X12000788Y14325000D01*
X12000780Y14325000D01*
X11975000Y14327539D01*
X11949220Y14325000D01*
X11036880Y14325000D01*
X11011092Y14327540D01*
X10985304Y14325000D01*
X10908174Y14317403D01*
X10809211Y14287383D01*
X10718006Y14238633D01*
X10687185Y14213339D01*
X10658095Y14189466D01*
X10658091Y14189462D01*
X10638065Y14173027D01*
X10621630Y14153001D01*
X9021559Y12552929D01*
X8973177Y12669732D01*
X8899307Y12780287D01*
X8805287Y12874307D01*
X8694732Y12948177D01*
X8571890Y12999060D01*
X8441482Y13025000D01*
X8308518Y13025000D01*
X8178110Y12999060D01*
X8055268Y12948177D01*
X7944713Y12874307D01*
X7850693Y12780287D01*
X7840124Y12764470D01*
X7830287Y12774307D01*
X7719732Y12848177D01*
X7596890Y12899060D01*
X7466482Y12925000D01*
X7333518Y12925000D01*
X7203110Y12899060D01*
X7080268Y12848177D01*
X6969713Y12774307D01*
X6875693Y12680287D01*
X6801823Y12569732D01*
X6750940Y12446890D01*
X6725000Y12316482D01*
X6725000Y12183518D01*
X6750940Y12053110D01*
X6801823Y11930268D01*
X6875693Y11819713D01*
X6969713Y11725693D01*
X7080268Y11651823D01*
X7203110Y11600940D01*
X7333518Y11575000D01*
X7466482Y11575000D01*
X7596890Y11600940D01*
X7719732Y11651823D01*
X7830287Y11725693D01*
X7924307Y11819713D01*
X7934876Y11835530D01*
X7944713Y11825693D01*
X8055268Y11751823D01*
X8172071Y11703441D01*
X6497005Y10028374D01*
X6476974Y10011935D01*
X6460535Y9991904D01*
X6411367Y9931993D01*
X6362617Y9840788D01*
X6332597Y9741825D01*
X6322461Y9638908D01*
X6325001Y9613118D01*
X6325000Y5542462D01*
X6147005Y5364466D01*
X6126974Y5348027D01*
X6110535Y5327996D01*
X6061367Y5268085D01*
X6012617Y5176880D01*
X5982597Y5077917D01*
X5979150Y5042919D01*
X5975000Y5000788D01*
X5975000Y5000780D01*
X5972461Y4975000D01*
X5974110Y4958252D01*
X5901632Y4849780D01*
X5850749Y4726938D01*
X5824809Y4596530D01*
X5824809Y4463566D01*
X5850749Y4333158D01*
X5901632Y4210316D01*
X5975502Y4099761D01*
X5993089Y4082174D01*
X5979243Y4074773D01*
X5904798Y4013678D01*
X5889492Y3995027D01*
X5412591Y3518125D01*
X5393933Y3502813D01*
X5332838Y3428368D01*
X5287440Y3343434D01*
X5275363Y3303619D01*
X5259485Y3251277D01*
X5250045Y3155436D01*
X5252410Y3131424D01*
X5252411Y2593819D01*
X5237492Y2578900D01*
X4022023Y2578900D01*
X3998012Y2581265D01*
X3974001Y2578900D01*
X3902171Y2571825D01*
X3810013Y2543870D01*
X3725080Y2498472D01*
X3650635Y2437377D01*
X3635329Y2418726D01*
X805504Y-411100D01*
X-2462873Y-411100D01*
X-2401823Y-319732D01*
X-2350940Y-196890D01*
X-2325000Y-66482D01*
X-2325000Y66482D01*
X-2350940Y196890D01*
X-2401823Y319732D01*
X-2475693Y430287D01*
X-2569713Y524307D01*
X-2680268Y598177D01*
X-2803110Y649060D01*
X-2856214Y659623D01*
X-2901823Y769732D01*
X-2975693Y880287D01*
X-3069713Y974307D01*
X-3180268Y1048177D01*
X-3303110Y1099060D01*
X-3401290Y1118589D01*
X-3366713Y1141693D01*
X-3272693Y1235713D01*
X-3198823Y1346268D01*
X-3147940Y1469110D01*
X-3122000Y1599518D01*
X-3122000Y1732482D01*
X-3147940Y1862890D01*
X-3198823Y1985732D01*
X-3272693Y2096287D01*
X-3366713Y2190307D01*
X-3477268Y2264177D01*
X-3600110Y2315060D01*
X-3730518Y2341000D01*
X-3863482Y2341000D01*
X-3993890Y2315060D01*
X-4116732Y2264177D01*
X-4203000Y2206535D01*
X-4289268Y2264177D01*
X-4412110Y2315060D01*
X-4542518Y2341000D01*
X-4675482Y2341000D01*
X-4805890Y2315060D01*
X-4928732Y2264177D01*
X-5039287Y2190307D01*
X-5133307Y2096287D01*
X-5207177Y1985732D01*
X-5258060Y1862890D01*
X-5284000Y1732482D01*
X-5284000Y1599518D01*
X-5258060Y1469110D01*
X-5207177Y1346268D01*
X-5133307Y1235713D01*
X-5039287Y1141693D01*
X-4928732Y1067823D01*
X-4805890Y1016940D01*
X-4675482Y991000D01*
X-4542518Y991000D01*
X-4412110Y1016940D01*
X-4289268Y1067823D01*
X-4203000Y1125465D01*
X-4116732Y1067823D01*
X-3993890Y1016940D01*
X-3895710Y997411D01*
X-3930287Y974307D01*
X-4024307Y880287D01*
X-4098177Y769732D01*
X-4149060Y646890D01*
X-4175000Y516482D01*
X-4175000Y383518D01*
X-4149060Y253110D01*
X-4098177Y130268D01*
X-4024307Y19713D01*
X-3930287Y-74307D01*
X-3819732Y-148177D01*
X-3696890Y-199060D01*
X-3643786Y-209623D01*
X-3598177Y-319732D01*
X-3537127Y-411100D01*
X-3647491Y-411100D01*
X-7475073Y3416482D01*
X-2535000Y3416482D01*
X-2535000Y3283518D01*
X-2509060Y3153110D01*
X-2458177Y3030268D01*
X-2384307Y2919713D01*
X-2290287Y2825693D01*
X-2179732Y2751823D01*
X-2056890Y2700940D01*
X-1926482Y2675000D01*
X-1793518Y2675000D01*
X-1663110Y2700940D01*
X-1573882Y2737899D01*
X-1549060Y2613110D01*
X-1498177Y2490268D01*
X-1424307Y2379713D01*
X-1330287Y2285693D01*
X-1219732Y2211823D01*
X-1096890Y2160940D01*
X-966482Y2135000D01*
X-833518Y2135000D01*
X-703110Y2160940D01*
X-580268Y2211823D01*
X-469713Y2285693D01*
X-375693Y2379713D01*
X-301823Y2490268D01*
X-250940Y2613110D01*
X-225000Y2743518D01*
X-225000Y2876482D01*
X-250940Y3006890D01*
X-301823Y3129732D01*
X-302532Y3130793D01*
X-267211Y3183654D01*
X-216328Y3306496D01*
X-203823Y3369362D01*
X-203757Y3369295D01*
X-178060Y3240110D01*
X-127177Y3117268D01*
X-53307Y3006713D01*
X40713Y2912693D01*
X151268Y2838823D01*
X274110Y2787940D01*
X404518Y2762000D01*
X537482Y2762000D01*
X667890Y2787940D01*
X790732Y2838823D01*
X901287Y2912693D01*
X995307Y3006713D01*
X1069177Y3117268D01*
X1120060Y3240110D01*
X1146000Y3370518D01*
X1146000Y3503482D01*
X1120060Y3633890D01*
X1069177Y3756732D01*
X995307Y3867287D01*
X901287Y3961307D01*
X790732Y4035177D01*
X667890Y4086060D01*
X538705Y4111757D01*
X261000Y4389461D01*
X261000Y7235750D01*
X334177Y7345268D01*
X385060Y7468110D01*
X411000Y7598518D01*
X411000Y7731482D01*
X385060Y7861890D01*
X334177Y7984732D01*
X270926Y8079394D01*
X334732Y8105823D01*
X445287Y8179693D01*
X539307Y8273713D01*
X613177Y8384268D01*
X664060Y8507110D01*
X690000Y8637518D01*
X690000Y8770482D01*
X664060Y8900890D01*
X613177Y9023732D01*
X539307Y9134287D01*
X445287Y9228307D01*
X334732Y9302177D01*
X211890Y9353060D01*
X81482Y9379000D01*
X-51482Y9379000D01*
X-181890Y9353060D01*
X-304732Y9302177D01*
X-415287Y9228307D01*
X-416222Y9227372D01*
X-476826Y9221403D01*
X-575789Y9191383D01*
X-666994Y9142633D01*
X-746935Y9077027D01*
X-763375Y9056995D01*
X-913388Y8906982D01*
X-1004713Y8998307D01*
X-1115268Y9072177D01*
X-1122311Y9075095D01*
X-1092693Y9104713D01*
X-1018823Y9215268D01*
X-967940Y9338110D01*
X-942000Y9468518D01*
X-942000Y9601482D01*
X-967940Y9731890D01*
X-1018823Y9854732D01*
X-1092693Y9965287D01*
X-1186713Y10059307D01*
X-1297268Y10133177D01*
X-1420110Y10184060D01*
X-1550518Y10210000D01*
X-1683482Y10210000D01*
X-1813890Y10184060D01*
X-1936732Y10133177D01*
X-2047287Y10059307D01*
X-2141307Y9965287D01*
X-2215177Y9854732D01*
X-2266060Y9731890D01*
X-2292000Y9601482D01*
X-2292000Y9468518D01*
X-2266060Y9338110D01*
X-2215177Y9215268D01*
X-2141307Y9104713D01*
X-2047287Y9010693D01*
X-1936732Y8936823D01*
X-1929689Y8933905D01*
X-1959307Y8904287D01*
X-2033177Y8793732D01*
X-2084060Y8670890D01*
X-2110000Y8540482D01*
X-2110000Y8407518D01*
X-2084060Y8277110D01*
X-2033177Y8154268D01*
X-2011653Y8122055D01*
X-2037384Y8083546D01*
X-2088267Y7960704D01*
X-2114207Y7830296D01*
X-2114207Y7697332D01*
X-2088267Y7566924D01*
X-2037384Y7444082D01*
X-1964207Y7334564D01*
X-1964206Y5575675D01*
X-2054728Y5538179D01*
X-2165283Y5464309D01*
X-2259303Y5370289D01*
X-2333173Y5259734D01*
X-2384056Y5136892D01*
X-2409996Y5006484D01*
X-2409996Y4873520D01*
X-2384056Y4743112D01*
X-2333173Y4620270D01*
X-2259303Y4509715D01*
X-2165283Y4415695D01*
X-2054728Y4341825D01*
X-1931886Y4290942D01*
X-1801478Y4265002D01*
X-1687460Y4265002D01*
X-1927705Y4024757D01*
X-2056890Y3999060D01*
X-2179732Y3948177D01*
X-2290287Y3874307D01*
X-2384307Y3780287D01*
X-2458177Y3669732D01*
X-2509060Y3546890D01*
X-2535000Y3416482D01*
X-7475073Y3416482D01*
X-12007310Y7948718D01*
X-12022623Y7967377D01*
X-12097068Y8028472D01*
X-12182001Y8073870D01*
X-12274159Y8101825D01*
X-12345989Y8108900D01*
X-12370000Y8111265D01*
X-12394011Y8108900D01*
X-14281120Y8108900D01*
X-14375082Y8137403D01*
X-14452212Y8145000D01*
X-14739472Y8145000D01*
X-14767265Y8212097D01*
X-14904062Y8416828D01*
X-15078172Y8590938D01*
X-15282903Y8727735D01*
X-15510389Y8821963D01*
X-15751886Y8870000D01*
X-15998114Y8870000D01*
X-16239611Y8821963D01*
X-16325000Y8786594D01*
X-16325000Y13250000D01*
X-4750000Y13250000D01*
X-4750000Y4700000D01*
X-4748079Y4680491D01*
X-4742388Y4661732D01*
X-4733147Y4644443D01*
X-4720711Y4629289D01*
X-4705557Y4616853D01*
X-4688268Y4607612D01*
X-4669509Y4601921D01*
X-4650000Y4600000D01*
X-3700000Y4600000D01*
X-3680491Y4601921D01*
X-3661732Y4607612D01*
X-3644443Y4616853D01*
X-3629289Y4629289D01*
X-3616853Y4644443D01*
X-3607612Y4661732D01*
X-3601921Y4680491D01*
X-3600000Y4700000D01*
X-3600000Y11096482D01*
X-1355000Y11096482D01*
X-1355000Y10963518D01*
X-1329060Y10833110D01*
X-1278177Y10710268D01*
X-1204307Y10599713D01*
X-1110287Y10505693D01*
X-999732Y10431823D01*
X-876890Y10380940D01*
X-746482Y10355000D01*
X-613518Y10355000D01*
X-483110Y10380940D01*
X-360268Y10431823D01*
X-313495Y10463075D01*
X-297623Y10452470D01*
X-174781Y10401587D01*
X-44373Y10375647D01*
X88591Y10375647D01*
X218999Y10401587D01*
X341841Y10452470D01*
X452396Y10526340D01*
X546416Y10620360D01*
X620286Y10730915D01*
X671169Y10853757D01*
X697109Y10984165D01*
X697109Y11117129D01*
X671169Y11247537D01*
X620286Y11370379D01*
X546416Y11480934D01*
X452396Y11574954D01*
X341841Y11648824D01*
X218999Y11699707D01*
X88591Y11725647D01*
X-44373Y11725647D01*
X-174781Y11699707D01*
X-297623Y11648824D01*
X-344396Y11617572D01*
X-360268Y11628177D01*
X-483110Y11679060D01*
X-613518Y11705000D01*
X-746482Y11705000D01*
X-876890Y11679060D01*
X-999732Y11628177D01*
X-1110287Y11554307D01*
X-1204307Y11460287D01*
X-1278177Y11349732D01*
X-1329060Y11226890D01*
X-1355000Y11096482D01*
X-3600000Y11096482D01*
X-3600000Y12104344D01*
X-449906Y12104344D01*
X-448079Y12080491D01*
X-442388Y12061732D01*
X-433147Y12044443D01*
X-420711Y12029289D01*
X-405557Y12016853D01*
X-388268Y12007612D01*
X-369509Y12001921D01*
X-350000Y12000000D01*
X-50000Y12000000D01*
X-33560Y12001361D01*
X266440Y12051361D01*
X270165Y12052054D01*
X1110188Y12225000D01*
X1800000Y12225000D01*
X1800000Y4700000D01*
X1801902Y4680591D01*
X1807573Y4661826D01*
X1816796Y4644528D01*
X1829217Y4629362D01*
X1844358Y4616910D01*
X1861637Y4607651D01*
X1880391Y4601941D01*
X1899898Y4600000D01*
X2877898Y4599000D01*
X2898036Y4601028D01*
X2916765Y4606819D01*
X2934004Y4616153D01*
X2949090Y4628671D01*
X2961445Y4643891D01*
X2970592Y4661229D01*
X2976182Y4680019D01*
X2977999Y4699538D01*
X2931999Y13250538D01*
X2930079Y13269509D01*
X2924388Y13288268D01*
X2915147Y13305557D01*
X2902711Y13320711D01*
X2887557Y13333147D01*
X2870268Y13342388D01*
X2851509Y13348079D01*
X2832000Y13350000D01*
X1504643Y13350000D01*
X1475851Y13406255D01*
X1469703Y13452364D01*
X1473405Y13487330D01*
X1526271Y13534908D01*
X1712396Y13580808D01*
X2408110Y13598496D01*
X3035962Y13596546D01*
X3272417Y13524542D01*
X3379184Y13448985D01*
X3478160Y13333821D01*
X3482934Y13328646D01*
X3723365Y13085781D01*
X3914686Y12802570D01*
X4045221Y12460626D01*
X4110990Y12093174D01*
X4104000Y5749110D01*
X4105921Y5729491D01*
X4111612Y5710732D01*
X4120853Y5693443D01*
X4133289Y5678289D01*
X4148443Y5665853D01*
X4165732Y5656612D01*
X4184491Y5650921D01*
X4204000Y5649000D01*
X5154000Y5649000D01*
X5173509Y5650921D01*
X5192268Y5656612D01*
X5209557Y5665853D01*
X5224711Y5678289D01*
X5237147Y5693443D01*
X5246388Y5710732D01*
X5252079Y5729491D01*
X5254000Y5749000D01*
X5254000Y12140000D01*
X5253589Y12149054D01*
X5229589Y12413054D01*
X5227395Y12426678D01*
X5132395Y12834678D01*
X5127911Y12848980D01*
X4967911Y13250980D01*
X4963733Y13260113D01*
X4897733Y13387113D01*
X4891483Y13397538D01*
X4599483Y13823538D01*
X4590552Y13834751D01*
X4263552Y14189751D01*
X4253942Y14198886D01*
X3956942Y14445886D01*
X3942308Y14455998D01*
X3635308Y14629998D01*
X3608853Y14640354D01*
X3182853Y14740354D01*
X3161082Y14742994D01*
X2699082Y14747994D01*
X2697036Y14747995D01*
X1660036Y14737995D01*
X1652744Y14737659D01*
X1483744Y14723659D01*
X1468884Y14721292D01*
X1085884Y14630292D01*
X1073686Y14626557D01*
X718686Y14492557D01*
X700312Y14483366D01*
X150312Y14133366D01*
X135530Y14121882D01*
X122627Y14107124D01*
X-127373Y13757124D01*
X-133416Y13747564D01*
X-371034Y13319852D01*
X-380655Y13309116D01*
X-390638Y13292245D01*
X-397139Y13273751D01*
X-399906Y13254344D01*
X-449906Y12104344D01*
X-3600000Y12104344D01*
X-3600000Y12225000D01*
X-3025000Y12225000D01*
X-3015608Y12225442D01*
X-1690608Y12350442D01*
X-1680491Y12351921D01*
X-1661732Y12357612D01*
X-1644443Y12366853D01*
X-1629289Y12379289D01*
X-1616853Y12394443D01*
X-1607612Y12411732D01*
X-1601921Y12430491D01*
X-1600000Y12450000D01*
X-1600000Y13100000D01*
X-1603397Y13125842D01*
X-1610294Y13144192D01*
X-1620639Y13160843D01*
X-1634034Y13175157D01*
X-1649964Y13186582D01*
X-1667817Y13194680D01*
X-1686906Y13199139D01*
X-3011906Y13374139D01*
X-3026538Y13374988D01*
X-4651538Y13349988D01*
X-4669509Y13348079D01*
X-4688268Y13342388D01*
X-4705557Y13333147D01*
X-4720711Y13320711D01*
X-4733147Y13305557D01*
X-4742388Y13288268D01*
X-4748079Y13269509D01*
X-4750000Y13250000D01*
X-16325000Y13250000D01*
X-16325000Y19400000D01*
X-14037419Y19400000D01*
X-13962211Y19218432D01*
G37*
G04 #@! TD.AperFunction*
D23*
X6237693Y180201D02*
X5582723Y180201D01*
X5574369Y222199D01*
X5523486Y345041D01*
X5468455Y427401D01*
X5990494Y427401D01*
X6237693Y180201D01*
G04 #@! TA.AperFunction,Conductor*
D25*
G36*
X6237693Y180201D02*
G01*
X5582723Y180201D01*
X5574369Y222199D01*
X5523486Y345041D01*
X5468455Y427401D01*
X5990494Y427401D01*
X6237693Y180201D01*
G37*
G04 #@! TD.AperFunction*
D23*
X13260534Y11772004D02*
X13276973Y11751973D01*
X13356914Y11686367D01*
X13448119Y11637617D01*
X13547082Y11607597D01*
X13614669Y11600940D01*
X13650000Y11597460D01*
X13675788Y11600000D01*
X13812336Y11600000D01*
X13805788Y11578414D01*
X13798065Y11500000D01*
X13798065Y10500000D01*
X13805788Y10421586D01*
X13828660Y10346186D01*
X13865803Y10276697D01*
X13915789Y10215789D01*
X13976697Y10165803D01*
X14046186Y10128660D01*
X14121586Y10105788D01*
X14200000Y10098065D01*
X15200000Y10098065D01*
X15278414Y10105788D01*
X15353814Y10128660D01*
X15423303Y10165803D01*
X15484211Y10215789D01*
X15498195Y10232829D01*
X15543690Y10202430D01*
X15707480Y10134586D01*
X15881358Y10100000D01*
X16058642Y10100000D01*
X16232520Y10134586D01*
X16325000Y10172893D01*
X16325000Y8786594D01*
X16239611Y8821963D01*
X15998114Y8870000D01*
X15751886Y8870000D01*
X15510389Y8821963D01*
X15282903Y8727735D01*
X15078172Y8590938D01*
X14904062Y8416828D01*
X14767265Y8212097D01*
X14673037Y7984611D01*
X14625000Y7743114D01*
X14625000Y7496886D01*
X14673037Y7255389D01*
X14767265Y7027903D01*
X14904062Y6823172D01*
X15078172Y6649062D01*
X15282903Y6512265D01*
X15510389Y6418037D01*
X15751886Y6370000D01*
X15998114Y6370000D01*
X16239611Y6418037D01*
X16325000Y6453407D01*
X16325000Y6246593D01*
X16239611Y6281963D01*
X15998114Y6330000D01*
X15751886Y6330000D01*
X15510389Y6281963D01*
X15282903Y6187735D01*
X15078172Y6050938D01*
X14904062Y5876828D01*
X14767265Y5672097D01*
X14739472Y5605000D01*
X14706212Y5605000D01*
X14629082Y5597403D01*
X14535120Y5568900D01*
X9641189Y5568900D01*
X9617186Y5571264D01*
X9593183Y5568900D01*
X9593176Y5568900D01*
X9530801Y5562756D01*
X9521345Y5561825D01*
X9493390Y5553345D01*
X9429188Y5533870D01*
X9344255Y5488472D01*
X9269810Y5427377D01*
X9254502Y5408724D01*
X6554798Y2709019D01*
X6511894Y2726790D01*
X6381486Y2752730D01*
X6248522Y2752730D01*
X6230210Y2749087D01*
X6230210Y2952928D01*
X6454684Y3177401D01*
X6466292Y3177401D01*
X6490303Y3175036D01*
X6514314Y3177401D01*
X6586144Y3184476D01*
X6678302Y3212431D01*
X6763235Y3257829D01*
X6837680Y3318924D01*
X6852992Y3337582D01*
X7333157Y3817746D01*
X7434928Y3837990D01*
X7557770Y3888873D01*
X7668325Y3962743D01*
X7762345Y4056763D01*
X7836215Y4167318D01*
X7887098Y4290160D01*
X7913038Y4420568D01*
X7913038Y4553532D01*
X7887098Y4683940D01*
X7850000Y4773502D01*
X7850000Y7000000D01*
X7961303Y7000000D01*
X8091711Y7025940D01*
X8214553Y7076823D01*
X8220835Y7081021D01*
X8276718Y7043681D01*
X8399560Y6992798D01*
X8529968Y6966858D01*
X8662932Y6966858D01*
X8793340Y6992798D01*
X8916182Y7043681D01*
X9026737Y7117551D01*
X9120757Y7211571D01*
X9194627Y7322126D01*
X9245510Y7444968D01*
X9271450Y7575376D01*
X9271450Y7708340D01*
X9245510Y7838748D01*
X9194627Y7961590D01*
X9120757Y8072145D01*
X9026737Y8166165D01*
X8916182Y8240035D01*
X8793340Y8290918D01*
X8662932Y8316858D01*
X8529968Y8316858D01*
X8399560Y8290918D01*
X8276718Y8240035D01*
X8270436Y8235837D01*
X8214553Y8273177D01*
X8091711Y8324060D01*
X7961303Y8350000D01*
X7850000Y8350000D01*
X7850000Y9096447D01*
X8440716Y9687162D01*
X8445693Y9679713D01*
X8539713Y9585693D01*
X8650268Y9511823D01*
X8773110Y9460940D01*
X8903518Y9435000D01*
X9036482Y9435000D01*
X9166890Y9460940D01*
X9289732Y9511823D01*
X9400287Y9585693D01*
X9494307Y9679713D01*
X9535579Y9741482D01*
X10394000Y9741482D01*
X10394000Y9608518D01*
X10419940Y9478110D01*
X10470823Y9355268D01*
X10544693Y9244713D01*
X10638713Y9150693D01*
X10749268Y9076823D01*
X10872110Y9025940D01*
X11002518Y9000000D01*
X11135482Y9000000D01*
X11265890Y9025940D01*
X11388732Y9076823D01*
X11499287Y9150693D01*
X11593307Y9244713D01*
X11667177Y9355268D01*
X11718060Y9478110D01*
X11744000Y9608518D01*
X11744000Y9741482D01*
X11718060Y9871890D01*
X11667177Y9994732D01*
X11593307Y10105287D01*
X11499287Y10199307D01*
X11388732Y10273177D01*
X11265890Y10324060D01*
X11135482Y10350000D01*
X11002518Y10350000D01*
X10872110Y10324060D01*
X10749268Y10273177D01*
X10638713Y10199307D01*
X10544693Y10105287D01*
X10470823Y9994732D01*
X10419940Y9871890D01*
X10394000Y9741482D01*
X9535579Y9741482D01*
X9568177Y9790268D01*
X9619060Y9913110D01*
X9645000Y10043518D01*
X9645000Y10176482D01*
X9619060Y10306890D01*
X9568177Y10429732D01*
X9494307Y10540287D01*
X9400287Y10634307D01*
X9392838Y10639284D01*
X11133378Y12379824D01*
X11203110Y12350940D01*
X11333518Y12325000D01*
X11466482Y12325000D01*
X11596890Y12350940D01*
X11719732Y12401823D01*
X11830287Y12475693D01*
X11924307Y12569713D01*
X11998177Y12680268D01*
X12049060Y12803110D01*
X12075000Y12933518D01*
X12075000Y12957539D01*
X13260534Y11772004D01*
G04 #@! TA.AperFunction,Conductor*
D25*
G36*
X13260534Y11772004D02*
G01*
X13276973Y11751973D01*
X13356914Y11686367D01*
X13448119Y11637617D01*
X13547082Y11607597D01*
X13614669Y11600940D01*
X13650000Y11597460D01*
X13675788Y11600000D01*
X13812336Y11600000D01*
X13805788Y11578414D01*
X13798065Y11500000D01*
X13798065Y10500000D01*
X13805788Y10421586D01*
X13828660Y10346186D01*
X13865803Y10276697D01*
X13915789Y10215789D01*
X13976697Y10165803D01*
X14046186Y10128660D01*
X14121586Y10105788D01*
X14200000Y10098065D01*
X15200000Y10098065D01*
X15278414Y10105788D01*
X15353814Y10128660D01*
X15423303Y10165803D01*
X15484211Y10215789D01*
X15498195Y10232829D01*
X15543690Y10202430D01*
X15707480Y10134586D01*
X15881358Y10100000D01*
X16058642Y10100000D01*
X16232520Y10134586D01*
X16325000Y10172893D01*
X16325000Y8786594D01*
X16239611Y8821963D01*
X15998114Y8870000D01*
X15751886Y8870000D01*
X15510389Y8821963D01*
X15282903Y8727735D01*
X15078172Y8590938D01*
X14904062Y8416828D01*
X14767265Y8212097D01*
X14673037Y7984611D01*
X14625000Y7743114D01*
X14625000Y7496886D01*
X14673037Y7255389D01*
X14767265Y7027903D01*
X14904062Y6823172D01*
X15078172Y6649062D01*
X15282903Y6512265D01*
X15510389Y6418037D01*
X15751886Y6370000D01*
X15998114Y6370000D01*
X16239611Y6418037D01*
X16325000Y6453407D01*
X16325000Y6246593D01*
X16239611Y6281963D01*
X15998114Y6330000D01*
X15751886Y6330000D01*
X15510389Y6281963D01*
X15282903Y6187735D01*
X15078172Y6050938D01*
X14904062Y5876828D01*
X14767265Y5672097D01*
X14739472Y5605000D01*
X14706212Y5605000D01*
X14629082Y5597403D01*
X14535120Y5568900D01*
X9641189Y5568900D01*
X9617186Y5571264D01*
X9593183Y5568900D01*
X9593176Y5568900D01*
X9530801Y5562756D01*
X9521345Y5561825D01*
X9493390Y5553345D01*
X9429188Y5533870D01*
X9344255Y5488472D01*
X9269810Y5427377D01*
X9254502Y5408724D01*
X6554798Y2709019D01*
X6511894Y2726790D01*
X6381486Y2752730D01*
X6248522Y2752730D01*
X6230210Y2749087D01*
X6230210Y2952928D01*
X6454684Y3177401D01*
X6466292Y3177401D01*
X6490303Y3175036D01*
X6514314Y3177401D01*
X6586144Y3184476D01*
X6678302Y3212431D01*
X6763235Y3257829D01*
X6837680Y3318924D01*
X6852992Y3337582D01*
X7333157Y3817746D01*
X7434928Y3837990D01*
X7557770Y3888873D01*
X7668325Y3962743D01*
X7762345Y4056763D01*
X7836215Y4167318D01*
X7887098Y4290160D01*
X7913038Y4420568D01*
X7913038Y4553532D01*
X7887098Y4683940D01*
X7850000Y4773502D01*
X7850000Y7000000D01*
X7961303Y7000000D01*
X8091711Y7025940D01*
X8214553Y7076823D01*
X8220835Y7081021D01*
X8276718Y7043681D01*
X8399560Y6992798D01*
X8529968Y6966858D01*
X8662932Y6966858D01*
X8793340Y6992798D01*
X8916182Y7043681D01*
X9026737Y7117551D01*
X9120757Y7211571D01*
X9194627Y7322126D01*
X9245510Y7444968D01*
X9271450Y7575376D01*
X9271450Y7708340D01*
X9245510Y7838748D01*
X9194627Y7961590D01*
X9120757Y8072145D01*
X9026737Y8166165D01*
X8916182Y8240035D01*
X8793340Y8290918D01*
X8662932Y8316858D01*
X8529968Y8316858D01*
X8399560Y8290918D01*
X8276718Y8240035D01*
X8270436Y8235837D01*
X8214553Y8273177D01*
X8091711Y8324060D01*
X7961303Y8350000D01*
X7850000Y8350000D01*
X7850000Y9096447D01*
X8440716Y9687162D01*
X8445693Y9679713D01*
X8539713Y9585693D01*
X8650268Y9511823D01*
X8773110Y9460940D01*
X8903518Y9435000D01*
X9036482Y9435000D01*
X9166890Y9460940D01*
X9289732Y9511823D01*
X9400287Y9585693D01*
X9494307Y9679713D01*
X9535579Y9741482D01*
X10394000Y9741482D01*
X10394000Y9608518D01*
X10419940Y9478110D01*
X10470823Y9355268D01*
X10544693Y9244713D01*
X10638713Y9150693D01*
X10749268Y9076823D01*
X10872110Y9025940D01*
X11002518Y9000000D01*
X11135482Y9000000D01*
X11265890Y9025940D01*
X11388732Y9076823D01*
X11499287Y9150693D01*
X11593307Y9244713D01*
X11667177Y9355268D01*
X11718060Y9478110D01*
X11744000Y9608518D01*
X11744000Y9741482D01*
X11718060Y9871890D01*
X11667177Y9994732D01*
X11593307Y10105287D01*
X11499287Y10199307D01*
X11388732Y10273177D01*
X11265890Y10324060D01*
X11135482Y10350000D01*
X11002518Y10350000D01*
X10872110Y10324060D01*
X10749268Y10273177D01*
X10638713Y10199307D01*
X10544693Y10105287D01*
X10470823Y9994732D01*
X10419940Y9871890D01*
X10394000Y9741482D01*
X9535579Y9741482D01*
X9568177Y9790268D01*
X9619060Y9913110D01*
X9645000Y10043518D01*
X9645000Y10176482D01*
X9619060Y10306890D01*
X9568177Y10429732D01*
X9494307Y10540287D01*
X9400287Y10634307D01*
X9392838Y10639284D01*
X11133378Y12379824D01*
X11203110Y12350940D01*
X11333518Y12325000D01*
X11466482Y12325000D01*
X11596890Y12350940D01*
X11719732Y12401823D01*
X11830287Y12475693D01*
X11924307Y12569713D01*
X11998177Y12680268D01*
X12049060Y12803110D01*
X12075000Y12933518D01*
X12075000Y12957539D01*
X13260534Y11772004D01*
G37*
G04 #@! TD.AperFunction*
M02*
