G04 #@! TF.GenerationSoftware,KiCad,Pcbnew,(5.1.6)-1*
G04 #@! TF.CreationDate,2020-06-24T13:46:23+02:00*
G04 #@! TF.ProjectId,ST-Node-V0.1,53542d4e-6f64-4652-9d56-302e312e6b69,rev?*
G04 #@! TF.SameCoordinates,Original*
G04 #@! TF.FileFunction,Copper,L3,Inr*
G04 #@! TF.FilePolarity,Positive*
%FSLAX46Y46*%
G04 Gerber Fmt 4.6, Leading zero omitted, Abs format (unit mm)*
G04 Created by KiCad (PCBNEW (5.1.6)-1) date 2020-06-24 13:46:23*
%MOMM*%
%LPD*%
G01*
G04 APERTURE LIST*
G04 #@! TA.AperFunction,ViaPad*
%ADD10C,2.550000*%
G04 #@! TD*
G04 #@! TA.AperFunction,ViaPad*
%ADD11R,1.524000X1.524000*%
G04 #@! TD*
G04 #@! TA.AperFunction,ViaPad*
%ADD12C,1.524000*%
G04 #@! TD*
G04 #@! TA.AperFunction,ViaPad*
%ADD13C,0.500000*%
G04 #@! TD*
G04 #@! TA.AperFunction,ViaPad*
%ADD14C,0.450000*%
G04 #@! TD*
G04 #@! TA.AperFunction,Conductor*
%ADD15C,2.200000*%
G04 #@! TD*
G04 #@! TA.AperFunction,Conductor*
%ADD16C,0.762000*%
G04 #@! TD*
G04 #@! TA.AperFunction,Conductor*
%ADD17C,0.381000*%
G04 #@! TD*
G04 #@! TA.AperFunction,Conductor*
%ADD18C,0.508000*%
G04 #@! TD*
G04 #@! TA.AperFunction,Conductor*
%ADD19C,1.270000*%
G04 #@! TD*
G04 #@! TA.AperFunction,Conductor*
%ADD20C,0.635000*%
G04 #@! TD*
G04 #@! TA.AperFunction,Conductor*
%ADD21C,1.524000*%
G04 #@! TD*
G04 #@! TA.AperFunction,Conductor*
%ADD22C,0.203200*%
G04 #@! TD*
G04 #@! TA.AperFunction,Conductor*
%ADD23C,0.254000*%
G04 #@! TD*
G04 #@! TA.AperFunction,Conductor*
%ADD24C,0.177800*%
G04 #@! TD*
G04 #@! TA.AperFunction,Conductor*
%ADD25C,0.152400*%
G04 #@! TD*
G04 #@! TA.AperFunction,Conductor*
%ADD26C,0.304800*%
G04 #@! TD*
G04 #@! TA.AperFunction,Conductor*
%ADD27C,0.355600*%
G04 #@! TD*
G04 APERTURE END LIST*
D10*
X147759040Y-121153300D03*
X147759040Y-128773300D03*
X131519040Y-121153300D03*
X131519040Y-128773300D03*
X147759040Y-87589740D03*
X147759040Y-79969740D03*
X131519040Y-87589740D03*
X131519040Y-79969740D03*
D11*
X125703000Y-86677000D03*
D12*
X125703000Y-84677000D03*
X125703000Y-82677000D03*
X125703000Y-80677000D03*
D13*
X139698380Y-115347340D03*
X139700920Y-118982080D03*
X145573400Y-119757800D03*
X143573400Y-119757800D03*
X141573400Y-119757800D03*
X138073400Y-119757800D03*
X136073400Y-119757800D03*
X134073400Y-119757800D03*
X134073400Y-121257800D03*
X136073400Y-121257800D03*
X138073400Y-121257800D03*
X139573400Y-121257800D03*
X141573400Y-121257800D03*
X143573400Y-121257800D03*
X145573400Y-121257800D03*
X145573400Y-122757800D03*
X143573400Y-122757800D03*
X141573400Y-122757800D03*
X139573400Y-122757800D03*
X138073400Y-122757800D03*
X136073400Y-122757800D03*
X134073400Y-122757800D03*
X130073400Y-122757800D03*
X145807080Y-95568360D03*
X127733480Y-93567960D03*
X150266400Y-106959400D03*
X150317200Y-107873800D03*
X149250400Y-101498400D03*
X152755600Y-88887300D03*
X143764000Y-87909400D03*
X143925000Y-88519000D03*
X143975000Y-89200000D03*
X143975000Y-90425000D03*
X143954500Y-91376500D03*
X141414500Y-88519000D03*
X141414500Y-89471500D03*
X141414500Y-90424000D03*
X141249400Y-91948000D03*
X141287500Y-87630000D03*
X142646400Y-86563200D03*
X143764000Y-86563200D03*
X143764000Y-87223600D03*
X142646400Y-87223600D03*
X142646400Y-87884000D03*
X143764000Y-85852000D03*
X143764000Y-85140800D03*
X143764000Y-84429600D03*
X143764000Y-83616800D03*
X143560800Y-82804000D03*
X143078200Y-82225000D03*
X142525000Y-81725000D03*
X141775000Y-81450000D03*
X141020800Y-81457800D03*
X140284200Y-81457800D03*
X139573000Y-81470500D03*
X139014200Y-81686400D03*
X142646400Y-85902800D03*
X142646400Y-85191600D03*
X142646400Y-84429600D03*
X142646400Y-83667600D03*
X142341600Y-83108800D03*
X141884400Y-82675000D03*
X141224000Y-82600800D03*
X134823200Y-91414600D03*
X134823200Y-90449400D03*
X134800000Y-89500000D03*
X135153400Y-82270600D03*
X138582400Y-82042000D03*
X137160000Y-85090000D03*
X137185400Y-87706200D03*
X137185400Y-88595200D03*
X137185400Y-89255600D03*
X137642600Y-89763600D03*
X138379200Y-89763600D03*
X138887200Y-88569800D03*
X138850000Y-87630000D03*
X138875000Y-86664800D03*
X138825000Y-85775800D03*
X138874500Y-84983320D03*
X141249400Y-83362800D03*
X141249400Y-83997800D03*
X141249400Y-84734400D03*
X141249400Y-85521800D03*
X141249400Y-86969600D03*
X136169400Y-91998800D03*
X136271000Y-92633800D03*
X136753600Y-93116400D03*
X137236200Y-93599000D03*
X139801600Y-91236800D03*
X139827000Y-91821000D03*
X137693400Y-93980000D03*
D14*
X138912600Y-89230200D03*
D13*
X155371800Y-90627200D03*
X131851400Y-99339400D03*
X128219200Y-109067600D03*
X131318000Y-93014800D03*
D14*
X136271000Y-94284800D03*
X135788400Y-93802200D03*
X135229600Y-93167200D03*
D13*
X146888200Y-94284802D03*
X155244800Y-107416600D03*
D14*
X143537940Y-92095320D03*
X143095980Y-92532200D03*
X142687040Y-92943680D03*
D13*
X121409460Y-97548700D03*
X128097280Y-98945700D03*
X126725680Y-98313240D03*
X125671580Y-103169720D03*
X130016030Y-101714300D03*
X137081260Y-83538060D03*
X127287020Y-117015260D03*
X127287020Y-114419380D03*
X135757448Y-108499467D03*
X134950000Y-108583899D03*
D14*
X133541969Y-105311387D03*
D13*
X129999740Y-106138980D03*
X143743680Y-107518200D03*
X152781000Y-98653600D03*
X146285886Y-106639834D03*
X129540000Y-96469200D03*
X144462500Y-107505498D03*
D14*
X151015700Y-90233500D03*
D13*
X150291800Y-92773500D03*
X134579360Y-71348600D03*
X148244560Y-68816220D03*
X144332960Y-78359000D03*
X129176780Y-89595960D03*
X124714000Y-109347000D03*
X138700000Y-79650000D03*
X139325000Y-78975000D03*
X139875000Y-78350000D03*
X140450000Y-77800000D03*
X141300000Y-77275000D03*
X142200000Y-77175000D03*
X142976600Y-77100000D03*
X144025000Y-77100000D03*
X144881600Y-77175000D03*
X145750000Y-77175000D03*
X146583400Y-77175000D03*
X147425000Y-77175000D03*
X147825000Y-76650000D03*
X148005800Y-76022200D03*
X149783800Y-77724000D03*
X149125000Y-77900000D03*
X148513800Y-78028800D03*
X147015200Y-78333600D03*
X146329400Y-78350000D03*
X145700000Y-78350000D03*
X144975000Y-78359000D03*
X147950000Y-78300000D03*
X142650000Y-78325000D03*
X142025000Y-78325000D03*
X141575000Y-78775000D03*
X141046200Y-79197200D03*
X140589000Y-79730600D03*
X131597400Y-83693000D03*
X124678399Y-70033599D03*
X124678399Y-75905199D03*
X124678399Y-93519999D03*
X124678399Y-119615999D03*
X124678399Y-125487599D03*
X127940399Y-72643199D03*
X128592799Y-127444799D03*
X129897599Y-68728799D03*
X131202399Y-75252799D03*
X133159599Y-71338399D03*
X133811999Y-126139999D03*
X135769199Y-130054399D03*
X139031199Y-127444799D03*
X141640799Y-124182799D03*
X144250399Y-130054399D03*
X146859999Y-111134799D03*
X149469599Y-114396799D03*
X150121999Y-130054399D03*
X150774399Y-73295599D03*
X150774399Y-79167199D03*
X150774399Y-85038799D03*
X152079199Y-123530399D03*
X153383999Y-69381199D03*
X154036399Y-75905199D03*
X154036399Y-87648399D03*
X154036399Y-96129599D03*
X154036399Y-102001199D03*
X154036399Y-112439599D03*
X154036399Y-127444799D03*
X154688799Y-117658799D03*
X138040000Y-80040000D03*
X137950000Y-79325000D03*
X136300000Y-78900000D03*
X136600000Y-78400000D03*
X137950000Y-78350000D03*
X138010000Y-77750000D03*
X138180000Y-77030000D03*
X138910000Y-77030000D03*
X139600000Y-77000000D03*
X140400000Y-77000000D03*
X147400000Y-76000000D03*
X147400000Y-75000000D03*
X147400000Y-74000000D03*
X147400000Y-73000000D03*
X147400000Y-71800000D03*
X147400000Y-70800000D03*
X147400000Y-69800000D03*
X135200000Y-77000000D03*
X135200000Y-75400000D03*
X135200000Y-73400000D03*
X135200000Y-70000000D03*
X135200000Y-69200000D03*
X134600000Y-68600000D03*
X136450000Y-77800000D03*
X134775000Y-88550000D03*
X134750000Y-87650000D03*
X134750000Y-86700000D03*
X134750000Y-85750000D03*
X134725000Y-84850000D03*
X134725000Y-83925000D03*
X134725000Y-82900000D03*
X135850000Y-82225000D03*
X136475000Y-82250000D03*
X137075000Y-82400000D03*
X137431780Y-81875000D03*
X137250000Y-85925000D03*
X137225000Y-86741000D03*
X141250000Y-86275000D03*
X138175000Y-93525000D03*
X138734800Y-92975000D03*
X139300000Y-92375000D03*
X137795000Y-97155000D03*
X139065000Y-97155000D03*
X140335000Y-97155000D03*
X141605000Y-97155000D03*
X137795000Y-98425000D03*
X139065000Y-98425000D03*
X140335000Y-98425000D03*
X141605000Y-98425000D03*
X137795000Y-99695000D03*
X139065000Y-99695000D03*
X140335000Y-99695000D03*
X141605000Y-99695000D03*
X141605000Y-100965000D03*
X140335000Y-100965000D03*
X139065000Y-100965000D03*
X137795000Y-100965000D03*
X126441200Y-97485200D03*
X144350000Y-114030000D03*
X145130000Y-114000000D03*
X143590000Y-114040000D03*
X134173400Y-111957800D03*
X134173400Y-112757800D03*
X135973400Y-112757800D03*
X135973400Y-111957800D03*
X136973400Y-112757800D03*
X135073400Y-111957800D03*
X127373400Y-111857800D03*
X141082680Y-105296560D03*
X144283080Y-96457358D03*
X141433200Y-104422800D03*
X127355600Y-113055400D03*
X150317200Y-105156000D03*
X140512800Y-111480600D03*
X132613400Y-90652600D03*
X137820400Y-92913200D03*
X145821400Y-124155200D03*
X145846800Y-125298200D03*
X126492000Y-106984800D03*
X150266400Y-94691200D03*
X150266400Y-95504000D03*
X154736800Y-94691200D03*
X156768800Y-105079800D03*
X122646440Y-104472740D03*
X136839372Y-112036364D03*
X149243870Y-105181400D03*
X131378960Y-97142300D03*
X131772660Y-97701100D03*
X126486920Y-106047540D03*
X144381449Y-97112819D03*
X152057100Y-90246200D03*
X154457400Y-92532200D03*
X147140030Y-91743346D03*
X155016200Y-103352600D03*
X148937980Y-98521520D03*
D14*
X140658980Y-94402911D03*
X127365760Y-118016020D03*
D13*
X144745360Y-103523640D03*
X145527678Y-103518560D03*
D14*
X130556000Y-90126388D03*
D13*
X134763150Y-98386698D03*
X141210984Y-103542183D03*
D14*
X130454400Y-91516200D03*
D13*
X143664940Y-104099360D03*
X135191500Y-97713800D03*
X142240000Y-104076498D03*
X133946900Y-96443800D03*
D14*
X139166600Y-91744800D03*
X145170306Y-94360853D03*
D13*
X145712400Y-86677500D03*
X133243320Y-88595200D03*
D14*
X144703800Y-94742000D03*
D13*
X132179060Y-84696300D03*
X145120360Y-90413840D03*
X137972800Y-118287800D03*
D14*
X132207000Y-114249200D03*
X135462087Y-99318878D03*
D13*
X130578860Y-102989380D03*
X156641800Y-106235500D03*
D14*
X144884140Y-109334300D03*
D13*
X136495610Y-103374010D03*
X136956800Y-92151200D03*
X134035800Y-93421200D03*
X135934639Y-94834479D03*
X138861800Y-84228940D03*
X145271270Y-84282551D03*
X137998200Y-84251800D03*
X133949440Y-85476080D03*
X137231120Y-84259420D03*
X133936740Y-82001360D03*
X138760200Y-118846600D03*
D14*
X145808746Y-109417070D03*
X132244145Y-118647295D03*
X146354800Y-100871020D03*
D13*
X146945508Y-108000800D03*
D14*
X146286540Y-99773089D03*
D13*
X123863100Y-106578400D03*
D14*
X128297940Y-97650300D03*
D13*
X130495040Y-100683060D03*
D14*
X129458720Y-98013520D03*
D13*
X124805982Y-106576402D03*
X125531880Y-100573840D03*
D14*
X141247274Y-94272983D03*
D13*
X153677620Y-110131860D03*
X152933400Y-103738680D03*
D14*
X136164320Y-109392720D03*
X146587441Y-112571818D03*
D13*
X154627580Y-110098840D03*
X152915998Y-104505382D03*
D14*
X135531860Y-109890560D03*
X147158490Y-113050828D03*
X145784696Y-108160039D03*
X146592013Y-100292306D03*
D13*
X147713700Y-90474800D03*
X145273673Y-92917190D03*
D14*
X128694485Y-100497185D03*
X135001000Y-102260400D03*
X131215433Y-111843195D03*
D13*
X139463839Y-103326410D03*
X131699050Y-107085438D03*
X127332740Y-115610640D03*
X130987800Y-115519200D03*
D14*
X133119099Y-110001791D03*
X144575013Y-98057739D03*
X132652789Y-110388532D03*
X145084800Y-97591429D03*
D13*
X139821203Y-103872241D03*
X129057400Y-125349000D03*
X133096000Y-116687600D03*
X146024600Y-102920800D03*
D14*
X128095044Y-100437429D03*
X142356840Y-94197967D03*
D13*
X154228800Y-86360000D03*
D14*
X146596100Y-90881200D03*
D13*
X125603000Y-90932000D03*
D14*
X145630192Y-93849410D03*
X135462087Y-99921291D03*
X130673783Y-106801595D03*
D13*
X146397611Y-92057589D03*
X144141380Y-95191499D03*
X121574560Y-100604320D03*
X126740920Y-99273360D03*
X121343420Y-104383840D03*
D14*
X129547620Y-99001580D03*
D13*
X126735840Y-99857560D03*
D14*
X127533297Y-100655023D03*
D15*
X131519040Y-128773300D02*
X131519040Y-121212160D01*
D16*
X141082680Y-104773320D02*
X141433200Y-104422800D01*
X141082680Y-105296560D02*
X141082680Y-104773320D01*
D17*
X154736800Y-94691200D02*
X150266400Y-94691200D01*
D18*
X126492000Y-105669080D02*
X126492000Y-106984800D01*
X122646440Y-104472740D02*
X122646440Y-107116880D01*
X122646440Y-107116880D02*
X123626880Y-108097320D01*
X125379480Y-108097320D02*
X126492000Y-106984800D01*
X123626880Y-108097320D02*
X125379480Y-108097320D01*
D17*
X155618180Y-105079800D02*
X156768800Y-105079800D01*
X153390600Y-102852220D02*
X155618180Y-105079800D01*
X150317200Y-105156000D02*
X150317200Y-104200960D01*
X151665940Y-102852220D02*
X153390600Y-102852220D01*
X150317200Y-104200960D02*
X151665940Y-102852220D01*
D19*
X135976335Y-112899401D02*
X136839372Y-112036364D01*
X127373400Y-111857800D02*
X128415001Y-112899401D01*
X128415001Y-112899401D02*
X135976335Y-112899401D01*
D17*
X150317200Y-105156000D02*
X149269270Y-105156000D01*
X149269270Y-105156000D02*
X149243870Y-105181400D01*
D20*
X132038874Y-97802214D02*
X132038874Y-97803560D01*
X132613400Y-90652600D02*
X132444702Y-90821298D01*
X130120846Y-90821298D02*
X129759498Y-91182646D01*
X129759498Y-91182646D02*
X129759498Y-95522838D01*
X132444702Y-90821298D02*
X130120846Y-90821298D01*
X129759498Y-95522838D02*
X131378960Y-97142300D01*
X131378960Y-97142300D02*
X132038874Y-97802214D01*
D16*
X145821400Y-126265940D02*
X145821400Y-124155200D01*
X140997940Y-131089400D02*
X145821400Y-126265940D01*
X127355600Y-119453660D02*
X127355600Y-128676400D01*
X128124161Y-112608561D02*
X128124161Y-118685099D01*
X128124161Y-118685099D02*
X127355600Y-119453660D01*
X130690900Y-131089400D02*
X140997940Y-131089400D01*
X127355600Y-128676400D02*
X129365605Y-130686405D01*
X129365605Y-130686405D02*
X129635038Y-130773533D01*
X129635038Y-130773533D02*
X129980966Y-130881250D01*
X129980966Y-130881250D02*
X130328042Y-130985193D01*
X127373400Y-111857800D02*
X128124161Y-112608561D01*
X130328042Y-130985193D02*
X130676370Y-131085391D01*
X130676370Y-131085391D02*
X130690900Y-131089400D01*
D21*
X133045200Y-98809886D02*
X132038874Y-97803560D01*
X133045200Y-102444474D02*
X133045200Y-98809886D01*
X141082680Y-105296560D02*
X135897286Y-105296560D01*
X135897286Y-105296560D02*
X133045200Y-102444474D01*
D22*
X150559954Y-91743346D02*
X147140030Y-91743346D01*
X152057100Y-90246200D02*
X150559954Y-91743346D01*
D15*
X149034039Y-81244739D02*
X149034039Y-86318441D01*
X149034039Y-86318441D02*
X147759040Y-87593440D01*
X147759040Y-79969740D02*
X149034039Y-81244739D01*
X130094999Y-81393781D02*
X130094999Y-86179399D01*
X131519040Y-79969740D02*
X130094999Y-81393781D01*
X130094999Y-86179399D02*
X131519040Y-87603440D01*
D16*
X132342701Y-80793401D02*
X131519040Y-79969740D01*
X139895467Y-80687099D02*
X139196967Y-80687099D01*
X141630260Y-79969740D02*
X140925601Y-80674399D01*
X139908167Y-80674399D02*
X139895467Y-80687099D01*
X140925601Y-80674399D02*
X139908167Y-80674399D01*
X147759040Y-79969740D02*
X141630260Y-79969740D01*
X139196967Y-80687099D02*
X139090665Y-80793401D01*
X139090665Y-80793401D02*
X138446033Y-80793401D01*
X138446033Y-80793401D02*
X138416033Y-80823401D01*
X138416033Y-80823401D02*
X137663967Y-80823401D01*
X137663967Y-80823401D02*
X137633967Y-80793401D01*
X137633967Y-80793401D02*
X132342701Y-80793401D01*
D22*
X141097000Y-95377000D02*
X140658980Y-94938980D01*
X142748000Y-95377000D02*
X141097000Y-95377000D01*
X148712981Y-98746519D02*
X144356915Y-98746519D01*
X140658980Y-94938980D02*
X140658980Y-94402911D01*
X148937980Y-98521520D02*
X148712981Y-98746519D01*
X144356915Y-98746519D02*
X143581131Y-97970735D01*
X143581131Y-96210131D02*
X142748000Y-95377000D01*
X143581131Y-97970735D02*
X143581131Y-96210131D01*
D17*
X134467600Y-98091148D02*
X134763150Y-98386698D01*
X134607300Y-96647000D02*
X134467600Y-96786700D01*
X134607300Y-96076753D02*
X134607300Y-96647000D01*
X132890249Y-92797658D02*
X132890249Y-94359702D01*
X134467600Y-96786700D02*
X134467600Y-98091148D01*
X132890249Y-94359702D02*
X134607300Y-96076753D01*
X133390640Y-92297267D02*
X132890249Y-92797658D01*
X130704186Y-89978202D02*
X133082002Y-89978202D01*
X130556000Y-90126388D02*
X130704186Y-89978202D01*
X133082002Y-89978202D02*
X133390640Y-90286840D01*
X133390640Y-90286840D02*
X133390640Y-92297267D01*
D18*
X139776801Y-102108000D02*
X141210984Y-103542183D01*
X136144000Y-102108000D02*
X139776801Y-102108000D01*
X134620000Y-100584000D02*
X136144000Y-102108000D01*
X134763150Y-98386698D02*
X134620000Y-98529848D01*
X134620000Y-98529848D02*
X134620000Y-100584000D01*
X143664940Y-104099360D02*
X142887700Y-104099360D01*
X142887700Y-104099360D02*
X142220608Y-104099360D01*
D23*
X131983480Y-96443800D02*
X133946900Y-96443800D01*
X130454400Y-91516200D02*
X130454400Y-94914720D01*
X130454400Y-94914720D02*
X131983480Y-96443800D01*
D18*
X135191500Y-97396300D02*
X135191500Y-97713800D01*
X136448800Y-96139000D02*
X135191500Y-97396300D01*
X142748000Y-102717600D02*
X142748000Y-96520000D01*
X142748000Y-96520000D02*
X142367000Y-96139000D01*
X142887700Y-102857300D02*
X142748000Y-102717600D01*
X142887700Y-104099360D02*
X142887700Y-102857300D01*
X142367000Y-96139000D02*
X136448800Y-96139000D01*
D24*
X143336705Y-94292599D02*
X143336705Y-95084901D01*
X141907260Y-91878734D02*
X141907260Y-92863154D01*
X140774025Y-90745499D02*
X141907260Y-91878734D01*
X139166600Y-91094560D02*
X139515661Y-90745499D01*
X144027584Y-95775780D02*
X144764760Y-95775780D01*
X145170306Y-95370234D02*
X145170306Y-94360853D01*
X144764760Y-95775780D02*
X145170306Y-95370234D01*
X139515661Y-90745499D02*
X140774025Y-90745499D01*
X141907260Y-92863154D02*
X143336705Y-94292599D01*
X143336705Y-95084901D02*
X144027584Y-95775780D01*
X139166600Y-91744800D02*
X139166600Y-91094560D01*
D25*
X145712400Y-91320400D02*
X145712400Y-86677500D01*
X144743733Y-92289067D02*
X145712400Y-91320400D01*
X145170306Y-94360853D02*
X144743733Y-93934280D01*
X144743733Y-93934280D02*
X144743733Y-92289067D01*
D24*
X133776720Y-88595200D02*
X133243320Y-88595200D01*
X134266940Y-89085420D02*
X133776720Y-88595200D01*
X134266940Y-91585466D02*
X134266940Y-89085420D01*
X138353800Y-90932000D02*
X136032612Y-90932000D01*
X139166600Y-91744800D02*
X138353800Y-90932000D01*
X136032612Y-90932000D02*
X135058711Y-91905901D01*
X135058711Y-91905901D02*
X134587375Y-91905901D01*
X134587375Y-91905901D02*
X134266940Y-91585466D01*
D25*
X144099271Y-94137471D02*
X144099271Y-92291643D01*
X144703800Y-94742000D02*
X144099271Y-94137471D01*
X144703800Y-91687114D02*
X144099271Y-92291643D01*
X144703800Y-91687114D02*
X144703800Y-90830400D01*
X144703800Y-90830400D02*
X145120360Y-90413840D01*
D22*
X135811260Y-114249200D02*
X132207000Y-114249200D01*
X137972800Y-118287800D02*
X137972800Y-116410740D01*
X137972800Y-116410740D02*
X135811260Y-114249200D01*
X144884140Y-109189520D02*
X144884140Y-109334300D01*
X145254980Y-108818680D02*
X144884140Y-109189520D01*
X155834080Y-107043220D02*
X155834080Y-109992160D01*
X148744940Y-111312960D02*
X146250660Y-108818680D01*
X146250660Y-108818680D02*
X145254980Y-108818680D01*
X156641800Y-106235500D02*
X155834080Y-107043220D01*
X154513280Y-111312960D02*
X148744940Y-111312960D01*
X155834080Y-109992160D02*
X154513280Y-111312960D01*
D24*
X136956800Y-91617800D02*
X136956800Y-92151200D01*
X136702800Y-91363800D02*
X136956800Y-91617800D01*
X136067800Y-91363800D02*
X136702800Y-91363800D01*
X134035800Y-93395800D02*
X136067800Y-91363800D01*
D26*
X135037599Y-94834479D02*
X135934639Y-94834479D01*
X134035800Y-93421200D02*
X134035800Y-93832680D01*
X134035800Y-93832680D02*
X135037599Y-94834479D01*
D25*
X133936740Y-82803670D02*
X133936740Y-82001360D01*
X137027920Y-84462620D02*
X136154160Y-84462620D01*
X137231120Y-84259420D02*
X137027920Y-84462620D01*
X136154160Y-84462620D02*
X135101141Y-83409601D01*
X135101141Y-83409601D02*
X134542671Y-83409601D01*
X134542671Y-83409601D02*
X133936740Y-82803670D01*
D22*
X132443450Y-118846600D02*
X132244145Y-118647295D01*
X138760200Y-118846600D02*
X132443450Y-118846600D01*
X145808746Y-114584434D02*
X145808746Y-109417070D01*
X145481040Y-114912140D02*
X145808746Y-114584434D01*
X138760200Y-118846600D02*
X142694660Y-114912140D01*
X142694660Y-114912140D02*
X145481040Y-114912140D01*
X130870960Y-101058980D02*
X130495040Y-100683060D01*
X123863100Y-106578400D02*
X123863100Y-103593900D01*
X130065780Y-102516940D02*
X130870960Y-101711760D01*
X123863100Y-103593900D02*
X124940060Y-102516940D01*
X124940060Y-102516940D02*
X130065780Y-102516940D01*
X130870960Y-101711760D02*
X130870960Y-101058980D01*
X125703000Y-84677000D02*
X125603000Y-84677000D01*
X124536200Y-90944700D02*
X126492000Y-92900500D01*
X125603000Y-84677000D02*
X124536200Y-85743800D01*
X126492000Y-92900500D02*
X126492000Y-95859600D01*
X128282700Y-97650300D02*
X128297940Y-97650300D01*
X126492000Y-95859600D02*
X128282700Y-97650300D01*
X124536200Y-85743800D02*
X124536200Y-90944700D01*
X131373880Y-99928680D02*
X129458720Y-98013520D01*
X124805982Y-104434098D02*
X125247400Y-103992680D01*
X124805982Y-106576402D02*
X124805982Y-104434098D01*
X125247400Y-103992680D02*
X130855720Y-103992680D01*
X130855720Y-103992680D02*
X131373880Y-103474520D01*
X131373880Y-103474520D02*
X131373880Y-99928680D01*
D25*
X126943148Y-100573840D02*
X127728008Y-99788980D01*
X125531880Y-100573840D02*
X126943148Y-100573840D01*
X127728008Y-99788980D02*
X128001458Y-99788980D01*
X128001458Y-99788980D02*
X129458720Y-98331718D01*
X129458720Y-98331718D02*
X129458720Y-98013520D01*
D22*
X141022275Y-94047984D02*
X141247274Y-94272983D01*
X130083560Y-89471500D02*
X133601460Y-89471500D01*
X140763791Y-93789500D02*
X141022275Y-94047984D01*
X129458720Y-98013520D02*
X128917700Y-97472500D01*
X133896100Y-92819220D02*
X133512560Y-93202760D01*
X128917700Y-90637360D02*
X130083560Y-89471500D01*
X139750800Y-93789500D02*
X140763791Y-93789500D01*
X133512560Y-93202760D02*
X133512560Y-94160340D01*
X133601460Y-89471500D02*
X133896100Y-89766140D01*
X128917700Y-97472500D02*
X128917700Y-90637360D01*
X133896100Y-89766140D02*
X133896100Y-92819220D01*
X133512560Y-94160340D02*
X134703820Y-95351600D01*
X134703820Y-95351600D02*
X138188700Y-95351600D01*
X138188700Y-95351600D02*
X139750800Y-93789500D01*
X125603000Y-86677000D02*
X125603000Y-87322660D01*
X125794770Y-87514430D02*
X125794770Y-86768770D01*
X125794770Y-86768770D02*
X125703000Y-86677000D01*
X125603000Y-87322660D02*
X125794770Y-87514430D01*
X125794770Y-87514430D02*
X128917700Y-90637360D01*
X153677620Y-104482900D02*
X152933400Y-103738680D01*
X153677620Y-110131860D02*
X153677620Y-104482900D01*
X152915998Y-110368458D02*
X152915998Y-104505382D01*
X154317700Y-110771940D02*
X153319480Y-110771940D01*
X153319480Y-110771940D02*
X152915998Y-110368458D01*
X154627580Y-110098840D02*
X154627580Y-110462060D01*
X154627580Y-110462060D02*
X154317700Y-110771940D01*
X147713700Y-90474800D02*
X147696184Y-90474800D01*
X147696184Y-90474800D02*
X146795542Y-91375442D01*
X146795542Y-91375442D02*
X146300242Y-91375442D01*
X146300242Y-91375442D02*
X145273673Y-92402011D01*
X145273673Y-92402011D02*
X145273673Y-92917190D01*
D17*
X129057400Y-125349000D02*
X129057400Y-120131840D01*
X132501640Y-116687600D02*
X133096000Y-116687600D01*
X129057400Y-120131840D02*
X132501640Y-116687600D01*
D25*
X154228800Y-86360000D02*
X151117300Y-86360000D01*
X151117300Y-86360000D02*
X146596100Y-90881200D01*
D22*
X126634240Y-99166680D02*
X126740920Y-99273360D01*
X121574560Y-100604320D02*
X121574560Y-100571300D01*
X121574560Y-100571300D02*
X122979180Y-99166680D01*
D26*
X129547620Y-99001580D02*
X129547620Y-101071680D01*
X128221734Y-101343460D02*
X127533297Y-100655023D01*
X129547620Y-101071680D02*
X129275840Y-101343460D01*
X129275840Y-101343460D02*
X128221734Y-101343460D01*
D22*
X122979180Y-99166680D02*
X126573280Y-99166680D01*
X126573280Y-99166680D02*
X126634240Y-99166680D01*
D27*
X123952000Y-84328000D02*
X123952000Y-91490800D01*
X125603000Y-82677000D02*
X123952000Y-84328000D01*
X125608080Y-99166680D02*
X126573280Y-99166680D01*
X125603000Y-93141800D02*
X125603000Y-99161600D01*
X123952000Y-91490800D02*
X125603000Y-93141800D01*
X125603000Y-99161600D02*
X125608080Y-99166680D01*
D22*
X125703000Y-82677000D02*
X125603000Y-82677000D01*
D23*
G36*
X152446400Y-98062951D02*
G01*
X152349437Y-98127740D01*
X152255140Y-98222037D01*
X152181050Y-98332920D01*
X152130016Y-98456126D01*
X152104000Y-98586921D01*
X152104000Y-98720279D01*
X152130016Y-98851074D01*
X152181050Y-98974280D01*
X152255140Y-99085163D01*
X152349437Y-99179460D01*
X152446400Y-99244249D01*
X152446400Y-103268257D01*
X152407540Y-103307117D01*
X152333450Y-103418000D01*
X152282416Y-103541206D01*
X152256400Y-103672001D01*
X152256400Y-103805359D01*
X152282416Y-103936154D01*
X152333450Y-104059360D01*
X152366625Y-104109009D01*
X152316048Y-104184702D01*
X152265014Y-104307908D01*
X152238998Y-104438703D01*
X152238998Y-104572061D01*
X152265014Y-104702856D01*
X152316048Y-104826062D01*
X152387399Y-104932846D01*
X152387398Y-107696000D01*
X150972097Y-107696000D01*
X150968184Y-107676326D01*
X150917150Y-107553120D01*
X150843060Y-107442237D01*
X150792023Y-107391200D01*
X150792260Y-107390963D01*
X150866350Y-107280080D01*
X150917384Y-107156874D01*
X150943400Y-107026079D01*
X150943400Y-106892721D01*
X150917384Y-106761926D01*
X150866350Y-106638720D01*
X150792260Y-106527837D01*
X150697963Y-106433540D01*
X150587080Y-106359450D01*
X150463874Y-106308416D01*
X150333079Y-106282400D01*
X150199721Y-106282400D01*
X150068926Y-106308416D01*
X149945720Y-106359450D01*
X149834837Y-106433540D01*
X149740540Y-106527837D01*
X149666450Y-106638720D01*
X149615416Y-106761926D01*
X149589400Y-106892721D01*
X149589400Y-107026079D01*
X149615416Y-107156874D01*
X149666450Y-107280080D01*
X149740540Y-107390963D01*
X149791577Y-107442000D01*
X149791340Y-107442237D01*
X149717250Y-107553120D01*
X149666216Y-107676326D01*
X149662303Y-107696000D01*
X147552036Y-107696000D01*
X147545458Y-107680120D01*
X147471368Y-107569237D01*
X147377071Y-107474940D01*
X147266188Y-107400850D01*
X147142982Y-107349816D01*
X147012187Y-107323800D01*
X146878829Y-107323800D01*
X146748034Y-107349816D01*
X146624828Y-107400850D01*
X146513945Y-107474940D01*
X146419648Y-107569237D01*
X146345558Y-107680120D01*
X146338980Y-107696000D01*
X146242725Y-107696000D01*
X146200322Y-107653597D01*
X146093534Y-107582244D01*
X145974877Y-107533095D01*
X145848912Y-107508039D01*
X145720480Y-107508039D01*
X145594515Y-107533095D01*
X145475858Y-107582244D01*
X145369070Y-107653597D01*
X145326667Y-107696000D01*
X145114871Y-107696000D01*
X145139500Y-107572177D01*
X145139500Y-107438819D01*
X145113484Y-107308024D01*
X145062450Y-107184818D01*
X144988360Y-107073935D01*
X144894063Y-106979638D01*
X144783180Y-106905548D01*
X144659974Y-106854514D01*
X144529179Y-106828498D01*
X144395821Y-106828498D01*
X144265026Y-106854514D01*
X144141820Y-106905548D01*
X144093585Y-106937778D01*
X144064360Y-106918250D01*
X143941154Y-106867216D01*
X143810359Y-106841200D01*
X143677001Y-106841200D01*
X143546206Y-106867216D01*
X143423000Y-106918250D01*
X143312117Y-106992340D01*
X143217820Y-107086637D01*
X143143730Y-107197520D01*
X143092696Y-107320726D01*
X143066680Y-107451521D01*
X143066680Y-107584879D01*
X143092696Y-107715674D01*
X143143730Y-107838880D01*
X143217820Y-107949763D01*
X143312117Y-108044060D01*
X143423000Y-108118150D01*
X143446400Y-108127843D01*
X143446400Y-113378300D01*
X143392526Y-113389016D01*
X143269320Y-113440050D01*
X143158437Y-113514140D01*
X143064140Y-113608437D01*
X143049197Y-113630800D01*
X132417808Y-113630800D01*
X132397181Y-113622256D01*
X132271216Y-113597200D01*
X132142784Y-113597200D01*
X132016819Y-113622256D01*
X131996192Y-113630800D01*
X125700400Y-113630800D01*
X125700400Y-111778979D01*
X130563433Y-111778979D01*
X130563433Y-111907411D01*
X130588489Y-112033376D01*
X130637638Y-112152033D01*
X130708991Y-112258821D01*
X130799807Y-112349637D01*
X130906595Y-112420990D01*
X131025252Y-112470139D01*
X131151217Y-112495195D01*
X131279649Y-112495195D01*
X131405614Y-112470139D01*
X131524271Y-112420990D01*
X131631059Y-112349637D01*
X131721875Y-112258821D01*
X131793228Y-112152033D01*
X131842377Y-112033376D01*
X131867433Y-111907411D01*
X131867433Y-111778979D01*
X131842377Y-111653014D01*
X131793228Y-111534357D01*
X131721875Y-111427569D01*
X131631059Y-111336753D01*
X131524271Y-111265400D01*
X131405614Y-111216251D01*
X131279649Y-111191195D01*
X131151217Y-111191195D01*
X131025252Y-111216251D01*
X130906595Y-111265400D01*
X130799807Y-111336753D01*
X130708991Y-111427569D01*
X130637638Y-111534357D01*
X130588489Y-111653014D01*
X130563433Y-111778979D01*
X125700400Y-111778979D01*
X125700400Y-104884800D01*
X127446400Y-104884800D01*
X127446400Y-110757800D01*
X127448840Y-110782576D01*
X127456067Y-110806401D01*
X127467803Y-110828357D01*
X127483597Y-110847603D01*
X127502843Y-110863397D01*
X127524799Y-110875133D01*
X127548624Y-110882360D01*
X127573400Y-110884800D01*
X132226989Y-110884800D01*
X132237163Y-110894974D01*
X132343951Y-110966327D01*
X132462608Y-111015476D01*
X132588573Y-111040532D01*
X132717005Y-111040532D01*
X132842970Y-111015476D01*
X132961627Y-110966327D01*
X133068415Y-110894974D01*
X133078589Y-110884800D01*
X139573400Y-110884800D01*
X139598176Y-110882360D01*
X139622001Y-110875133D01*
X139643957Y-110863397D01*
X139663203Y-110847603D01*
X139678997Y-110828357D01*
X139690733Y-110806401D01*
X139697960Y-110782576D01*
X139700400Y-110757800D01*
X139700400Y-106573155D01*
X145608886Y-106573155D01*
X145608886Y-106706513D01*
X145634902Y-106837308D01*
X145685936Y-106960514D01*
X145760026Y-107071397D01*
X145854323Y-107165694D01*
X145965206Y-107239784D01*
X146088412Y-107290818D01*
X146219207Y-107316834D01*
X146352565Y-107316834D01*
X146483360Y-107290818D01*
X146606566Y-107239784D01*
X146717449Y-107165694D01*
X146811746Y-107071397D01*
X146885836Y-106960514D01*
X146936870Y-106837308D01*
X146962886Y-106706513D01*
X146962886Y-106573155D01*
X146936870Y-106442360D01*
X146885836Y-106319154D01*
X146811746Y-106208271D01*
X146717449Y-106113974D01*
X146606566Y-106039884D01*
X146483360Y-105988850D01*
X146352565Y-105962834D01*
X146219207Y-105962834D01*
X146088412Y-105988850D01*
X145965206Y-106039884D01*
X145854323Y-106113974D01*
X145760026Y-106208271D01*
X145685936Y-106319154D01*
X145634902Y-106442360D01*
X145608886Y-106573155D01*
X139700400Y-106573155D01*
X139700400Y-104538475D01*
X139754524Y-104549241D01*
X139887882Y-104549241D01*
X140018677Y-104523225D01*
X140141883Y-104472191D01*
X140252766Y-104398101D01*
X140347063Y-104303804D01*
X140421153Y-104192921D01*
X140472187Y-104069715D01*
X140498203Y-103938920D01*
X140498203Y-103805562D01*
X140494955Y-103789233D01*
X140753099Y-104047377D01*
X140830810Y-104111152D01*
X140949115Y-104174388D01*
X141077485Y-104213329D01*
X141210983Y-104226478D01*
X141344482Y-104213329D01*
X141472852Y-104174388D01*
X141540159Y-104138411D01*
X141549462Y-104232859D01*
X141588402Y-104361228D01*
X141651638Y-104479534D01*
X141736738Y-104583230D01*
X141840434Y-104668330D01*
X141958740Y-104731566D01*
X142087109Y-104770506D01*
X142187155Y-104780360D01*
X142854247Y-104780360D01*
X142887700Y-104783655D01*
X142921153Y-104780360D01*
X143698393Y-104780360D01*
X143798439Y-104770506D01*
X143926808Y-104731566D01*
X144045114Y-104668330D01*
X144148810Y-104583230D01*
X144233910Y-104479534D01*
X144297146Y-104361228D01*
X144336086Y-104232859D01*
X144349235Y-104099360D01*
X144346475Y-104071335D01*
X144424680Y-104123590D01*
X144547886Y-104174624D01*
X144678681Y-104200640D01*
X144812039Y-104200640D01*
X144942834Y-104174624D01*
X145066040Y-104123590D01*
X145140320Y-104073957D01*
X145206998Y-104118510D01*
X145330204Y-104169544D01*
X145460999Y-104195560D01*
X145594357Y-104195560D01*
X145725152Y-104169544D01*
X145848358Y-104118510D01*
X145959241Y-104044420D01*
X146053538Y-103950123D01*
X146127628Y-103839240D01*
X146178662Y-103716034D01*
X146204678Y-103585239D01*
X146204678Y-103575244D01*
X146222074Y-103571784D01*
X146345280Y-103520750D01*
X146456163Y-103446660D01*
X146550460Y-103352363D01*
X146624550Y-103241480D01*
X146675584Y-103118274D01*
X146701600Y-102987479D01*
X146701600Y-102884800D01*
X149573400Y-102884800D01*
X149598176Y-102882360D01*
X149622001Y-102875133D01*
X149643957Y-102863397D01*
X149663203Y-102847603D01*
X149678997Y-102828357D01*
X149690733Y-102806401D01*
X149697960Y-102782576D01*
X149700400Y-102757800D01*
X149700400Y-102005823D01*
X149776260Y-101929963D01*
X149850350Y-101819080D01*
X149901384Y-101695874D01*
X149927400Y-101565079D01*
X149927400Y-101431721D01*
X149901384Y-101300926D01*
X149850350Y-101177720D01*
X149776260Y-101066837D01*
X149700400Y-100990977D01*
X149700400Y-97600360D01*
X149697960Y-97575584D01*
X149690733Y-97551759D01*
X149678997Y-97529803D01*
X149663203Y-97510557D01*
X149643957Y-97494763D01*
X149622001Y-97483027D01*
X149598176Y-97475800D01*
X149573400Y-97473360D01*
X145726088Y-97473360D01*
X145711744Y-97401248D01*
X145662595Y-97282591D01*
X145591242Y-97175803D01*
X145500426Y-97084987D01*
X145393638Y-97013634D01*
X145274981Y-96964485D01*
X145149016Y-96939429D01*
X145020584Y-96939429D01*
X144894619Y-96964485D01*
X144775962Y-97013634D01*
X144669174Y-97084987D01*
X144578358Y-97175803D01*
X144507005Y-97282591D01*
X144457856Y-97401248D01*
X144454745Y-97416888D01*
X144384832Y-97430795D01*
X144282070Y-97473360D01*
X144156080Y-97473360D01*
X144156080Y-96291680D01*
X144739426Y-96291680D01*
X144764760Y-96294175D01*
X144790094Y-96291680D01*
X144790102Y-96291680D01*
X144865894Y-96284215D01*
X144963142Y-96254715D01*
X145052765Y-96206811D01*
X145131321Y-96142341D01*
X145147481Y-96122650D01*
X145193771Y-96076360D01*
X145357657Y-96076360D01*
X145375517Y-96094220D01*
X145486400Y-96168310D01*
X145609606Y-96219344D01*
X145740401Y-96245360D01*
X145873759Y-96245360D01*
X146004554Y-96219344D01*
X146127760Y-96168310D01*
X146238643Y-96094220D01*
X146256503Y-96076360D01*
X149573400Y-96076360D01*
X149598176Y-96073920D01*
X149622001Y-96066693D01*
X149643957Y-96054957D01*
X149663203Y-96039163D01*
X149678997Y-96019917D01*
X149690733Y-95997961D01*
X149697960Y-95974136D01*
X149700400Y-95949360D01*
X149700400Y-93106976D01*
X149765940Y-93205063D01*
X149860237Y-93299360D01*
X149971120Y-93373450D01*
X150094326Y-93424484D01*
X150225121Y-93450500D01*
X150358479Y-93450500D01*
X150489274Y-93424484D01*
X150612480Y-93373450D01*
X150723363Y-93299360D01*
X150817660Y-93205063D01*
X150891750Y-93094180D01*
X150942784Y-92970974D01*
X150959925Y-92884800D01*
X152446400Y-92884800D01*
X152446400Y-98062951D01*
G37*
X152446400Y-98062951D02*
X152349437Y-98127740D01*
X152255140Y-98222037D01*
X152181050Y-98332920D01*
X152130016Y-98456126D01*
X152104000Y-98586921D01*
X152104000Y-98720279D01*
X152130016Y-98851074D01*
X152181050Y-98974280D01*
X152255140Y-99085163D01*
X152349437Y-99179460D01*
X152446400Y-99244249D01*
X152446400Y-103268257D01*
X152407540Y-103307117D01*
X152333450Y-103418000D01*
X152282416Y-103541206D01*
X152256400Y-103672001D01*
X152256400Y-103805359D01*
X152282416Y-103936154D01*
X152333450Y-104059360D01*
X152366625Y-104109009D01*
X152316048Y-104184702D01*
X152265014Y-104307908D01*
X152238998Y-104438703D01*
X152238998Y-104572061D01*
X152265014Y-104702856D01*
X152316048Y-104826062D01*
X152387399Y-104932846D01*
X152387398Y-107696000D01*
X150972097Y-107696000D01*
X150968184Y-107676326D01*
X150917150Y-107553120D01*
X150843060Y-107442237D01*
X150792023Y-107391200D01*
X150792260Y-107390963D01*
X150866350Y-107280080D01*
X150917384Y-107156874D01*
X150943400Y-107026079D01*
X150943400Y-106892721D01*
X150917384Y-106761926D01*
X150866350Y-106638720D01*
X150792260Y-106527837D01*
X150697963Y-106433540D01*
X150587080Y-106359450D01*
X150463874Y-106308416D01*
X150333079Y-106282400D01*
X150199721Y-106282400D01*
X150068926Y-106308416D01*
X149945720Y-106359450D01*
X149834837Y-106433540D01*
X149740540Y-106527837D01*
X149666450Y-106638720D01*
X149615416Y-106761926D01*
X149589400Y-106892721D01*
X149589400Y-107026079D01*
X149615416Y-107156874D01*
X149666450Y-107280080D01*
X149740540Y-107390963D01*
X149791577Y-107442000D01*
X149791340Y-107442237D01*
X149717250Y-107553120D01*
X149666216Y-107676326D01*
X149662303Y-107696000D01*
X147552036Y-107696000D01*
X147545458Y-107680120D01*
X147471368Y-107569237D01*
X147377071Y-107474940D01*
X147266188Y-107400850D01*
X147142982Y-107349816D01*
X147012187Y-107323800D01*
X146878829Y-107323800D01*
X146748034Y-107349816D01*
X146624828Y-107400850D01*
X146513945Y-107474940D01*
X146419648Y-107569237D01*
X146345558Y-107680120D01*
X146338980Y-107696000D01*
X146242725Y-107696000D01*
X146200322Y-107653597D01*
X146093534Y-107582244D01*
X145974877Y-107533095D01*
X145848912Y-107508039D01*
X145720480Y-107508039D01*
X145594515Y-107533095D01*
X145475858Y-107582244D01*
X145369070Y-107653597D01*
X145326667Y-107696000D01*
X145114871Y-107696000D01*
X145139500Y-107572177D01*
X145139500Y-107438819D01*
X145113484Y-107308024D01*
X145062450Y-107184818D01*
X144988360Y-107073935D01*
X144894063Y-106979638D01*
X144783180Y-106905548D01*
X144659974Y-106854514D01*
X144529179Y-106828498D01*
X144395821Y-106828498D01*
X144265026Y-106854514D01*
X144141820Y-106905548D01*
X144093585Y-106937778D01*
X144064360Y-106918250D01*
X143941154Y-106867216D01*
X143810359Y-106841200D01*
X143677001Y-106841200D01*
X143546206Y-106867216D01*
X143423000Y-106918250D01*
X143312117Y-106992340D01*
X143217820Y-107086637D01*
X143143730Y-107197520D01*
X143092696Y-107320726D01*
X143066680Y-107451521D01*
X143066680Y-107584879D01*
X143092696Y-107715674D01*
X143143730Y-107838880D01*
X143217820Y-107949763D01*
X143312117Y-108044060D01*
X143423000Y-108118150D01*
X143446400Y-108127843D01*
X143446400Y-113378300D01*
X143392526Y-113389016D01*
X143269320Y-113440050D01*
X143158437Y-113514140D01*
X143064140Y-113608437D01*
X143049197Y-113630800D01*
X132417808Y-113630800D01*
X132397181Y-113622256D01*
X132271216Y-113597200D01*
X132142784Y-113597200D01*
X132016819Y-113622256D01*
X131996192Y-113630800D01*
X125700400Y-113630800D01*
X125700400Y-111778979D01*
X130563433Y-111778979D01*
X130563433Y-111907411D01*
X130588489Y-112033376D01*
X130637638Y-112152033D01*
X130708991Y-112258821D01*
X130799807Y-112349637D01*
X130906595Y-112420990D01*
X131025252Y-112470139D01*
X131151217Y-112495195D01*
X131279649Y-112495195D01*
X131405614Y-112470139D01*
X131524271Y-112420990D01*
X131631059Y-112349637D01*
X131721875Y-112258821D01*
X131793228Y-112152033D01*
X131842377Y-112033376D01*
X131867433Y-111907411D01*
X131867433Y-111778979D01*
X131842377Y-111653014D01*
X131793228Y-111534357D01*
X131721875Y-111427569D01*
X131631059Y-111336753D01*
X131524271Y-111265400D01*
X131405614Y-111216251D01*
X131279649Y-111191195D01*
X131151217Y-111191195D01*
X131025252Y-111216251D01*
X130906595Y-111265400D01*
X130799807Y-111336753D01*
X130708991Y-111427569D01*
X130637638Y-111534357D01*
X130588489Y-111653014D01*
X130563433Y-111778979D01*
X125700400Y-111778979D01*
X125700400Y-104884800D01*
X127446400Y-104884800D01*
X127446400Y-110757800D01*
X127448840Y-110782576D01*
X127456067Y-110806401D01*
X127467803Y-110828357D01*
X127483597Y-110847603D01*
X127502843Y-110863397D01*
X127524799Y-110875133D01*
X127548624Y-110882360D01*
X127573400Y-110884800D01*
X132226989Y-110884800D01*
X132237163Y-110894974D01*
X132343951Y-110966327D01*
X132462608Y-111015476D01*
X132588573Y-111040532D01*
X132717005Y-111040532D01*
X132842970Y-111015476D01*
X132961627Y-110966327D01*
X133068415Y-110894974D01*
X133078589Y-110884800D01*
X139573400Y-110884800D01*
X139598176Y-110882360D01*
X139622001Y-110875133D01*
X139643957Y-110863397D01*
X139663203Y-110847603D01*
X139678997Y-110828357D01*
X139690733Y-110806401D01*
X139697960Y-110782576D01*
X139700400Y-110757800D01*
X139700400Y-106573155D01*
X145608886Y-106573155D01*
X145608886Y-106706513D01*
X145634902Y-106837308D01*
X145685936Y-106960514D01*
X145760026Y-107071397D01*
X145854323Y-107165694D01*
X145965206Y-107239784D01*
X146088412Y-107290818D01*
X146219207Y-107316834D01*
X146352565Y-107316834D01*
X146483360Y-107290818D01*
X146606566Y-107239784D01*
X146717449Y-107165694D01*
X146811746Y-107071397D01*
X146885836Y-106960514D01*
X146936870Y-106837308D01*
X146962886Y-106706513D01*
X146962886Y-106573155D01*
X146936870Y-106442360D01*
X146885836Y-106319154D01*
X146811746Y-106208271D01*
X146717449Y-106113974D01*
X146606566Y-106039884D01*
X146483360Y-105988850D01*
X146352565Y-105962834D01*
X146219207Y-105962834D01*
X146088412Y-105988850D01*
X145965206Y-106039884D01*
X145854323Y-106113974D01*
X145760026Y-106208271D01*
X145685936Y-106319154D01*
X145634902Y-106442360D01*
X145608886Y-106573155D01*
X139700400Y-106573155D01*
X139700400Y-104538475D01*
X139754524Y-104549241D01*
X139887882Y-104549241D01*
X140018677Y-104523225D01*
X140141883Y-104472191D01*
X140252766Y-104398101D01*
X140347063Y-104303804D01*
X140421153Y-104192921D01*
X140472187Y-104069715D01*
X140498203Y-103938920D01*
X140498203Y-103805562D01*
X140494955Y-103789233D01*
X140753099Y-104047377D01*
X140830810Y-104111152D01*
X140949115Y-104174388D01*
X141077485Y-104213329D01*
X141210983Y-104226478D01*
X141344482Y-104213329D01*
X141472852Y-104174388D01*
X141540159Y-104138411D01*
X141549462Y-104232859D01*
X141588402Y-104361228D01*
X141651638Y-104479534D01*
X141736738Y-104583230D01*
X141840434Y-104668330D01*
X141958740Y-104731566D01*
X142087109Y-104770506D01*
X142187155Y-104780360D01*
X142854247Y-104780360D01*
X142887700Y-104783655D01*
X142921153Y-104780360D01*
X143698393Y-104780360D01*
X143798439Y-104770506D01*
X143926808Y-104731566D01*
X144045114Y-104668330D01*
X144148810Y-104583230D01*
X144233910Y-104479534D01*
X144297146Y-104361228D01*
X144336086Y-104232859D01*
X144349235Y-104099360D01*
X144346475Y-104071335D01*
X144424680Y-104123590D01*
X144547886Y-104174624D01*
X144678681Y-104200640D01*
X144812039Y-104200640D01*
X144942834Y-104174624D01*
X145066040Y-104123590D01*
X145140320Y-104073957D01*
X145206998Y-104118510D01*
X145330204Y-104169544D01*
X145460999Y-104195560D01*
X145594357Y-104195560D01*
X145725152Y-104169544D01*
X145848358Y-104118510D01*
X145959241Y-104044420D01*
X146053538Y-103950123D01*
X146127628Y-103839240D01*
X146178662Y-103716034D01*
X146204678Y-103585239D01*
X146204678Y-103575244D01*
X146222074Y-103571784D01*
X146345280Y-103520750D01*
X146456163Y-103446660D01*
X146550460Y-103352363D01*
X146624550Y-103241480D01*
X146675584Y-103118274D01*
X146701600Y-102987479D01*
X146701600Y-102884800D01*
X149573400Y-102884800D01*
X149598176Y-102882360D01*
X149622001Y-102875133D01*
X149643957Y-102863397D01*
X149663203Y-102847603D01*
X149678997Y-102828357D01*
X149690733Y-102806401D01*
X149697960Y-102782576D01*
X149700400Y-102757800D01*
X149700400Y-102005823D01*
X149776260Y-101929963D01*
X149850350Y-101819080D01*
X149901384Y-101695874D01*
X149927400Y-101565079D01*
X149927400Y-101431721D01*
X149901384Y-101300926D01*
X149850350Y-101177720D01*
X149776260Y-101066837D01*
X149700400Y-100990977D01*
X149700400Y-97600360D01*
X149697960Y-97575584D01*
X149690733Y-97551759D01*
X149678997Y-97529803D01*
X149663203Y-97510557D01*
X149643957Y-97494763D01*
X149622001Y-97483027D01*
X149598176Y-97475800D01*
X149573400Y-97473360D01*
X145726088Y-97473360D01*
X145711744Y-97401248D01*
X145662595Y-97282591D01*
X145591242Y-97175803D01*
X145500426Y-97084987D01*
X145393638Y-97013634D01*
X145274981Y-96964485D01*
X145149016Y-96939429D01*
X145020584Y-96939429D01*
X144894619Y-96964485D01*
X144775962Y-97013634D01*
X144669174Y-97084987D01*
X144578358Y-97175803D01*
X144507005Y-97282591D01*
X144457856Y-97401248D01*
X144454745Y-97416888D01*
X144384832Y-97430795D01*
X144282070Y-97473360D01*
X144156080Y-97473360D01*
X144156080Y-96291680D01*
X144739426Y-96291680D01*
X144764760Y-96294175D01*
X144790094Y-96291680D01*
X144790102Y-96291680D01*
X144865894Y-96284215D01*
X144963142Y-96254715D01*
X145052765Y-96206811D01*
X145131321Y-96142341D01*
X145147481Y-96122650D01*
X145193771Y-96076360D01*
X145357657Y-96076360D01*
X145375517Y-96094220D01*
X145486400Y-96168310D01*
X145609606Y-96219344D01*
X145740401Y-96245360D01*
X145873759Y-96245360D01*
X146004554Y-96219344D01*
X146127760Y-96168310D01*
X146238643Y-96094220D01*
X146256503Y-96076360D01*
X149573400Y-96076360D01*
X149598176Y-96073920D01*
X149622001Y-96066693D01*
X149643957Y-96054957D01*
X149663203Y-96039163D01*
X149678997Y-96019917D01*
X149690733Y-95997961D01*
X149697960Y-95974136D01*
X149700400Y-95949360D01*
X149700400Y-93106976D01*
X149765940Y-93205063D01*
X149860237Y-93299360D01*
X149971120Y-93373450D01*
X150094326Y-93424484D01*
X150225121Y-93450500D01*
X150358479Y-93450500D01*
X150489274Y-93424484D01*
X150612480Y-93373450D01*
X150723363Y-93299360D01*
X150817660Y-93205063D01*
X150891750Y-93094180D01*
X150942784Y-92970974D01*
X150959925Y-92884800D01*
X152446400Y-92884800D01*
X152446400Y-98062951D01*
D24*
G36*
X135039100Y-78421224D02*
G01*
X135039100Y-79095600D01*
X135040808Y-79112944D01*
X135045867Y-79129621D01*
X135153630Y-79389784D01*
X135161845Y-79405153D01*
X135172901Y-79418625D01*
X135973375Y-80219099D01*
X135986847Y-80230155D01*
X136002216Y-80238370D01*
X136262379Y-80346133D01*
X136279056Y-80351192D01*
X136296400Y-80352900D01*
X137627643Y-80352900D01*
X137638653Y-80369377D01*
X137710623Y-80441347D01*
X137795251Y-80497894D01*
X137889284Y-80536843D01*
X137989110Y-80556700D01*
X138090890Y-80556700D01*
X138190716Y-80536843D01*
X138284749Y-80497894D01*
X138369377Y-80441347D01*
X138441347Y-80369377D01*
X138452357Y-80352900D01*
X141325600Y-80352900D01*
X141342944Y-80351192D01*
X141359621Y-80346133D01*
X141619784Y-80238370D01*
X141635153Y-80230155D01*
X141648625Y-80219099D01*
X142195099Y-79672625D01*
X142207860Y-79656501D01*
X142363816Y-79404159D01*
X142372531Y-79385534D01*
X142538177Y-78888596D01*
X142541591Y-78874723D01*
X142548581Y-78831649D01*
X142599110Y-78841700D01*
X142700890Y-78841700D01*
X142800716Y-78821843D01*
X142894749Y-78782894D01*
X142979377Y-78726347D01*
X143051347Y-78654377D01*
X143104452Y-78574900D01*
X143863117Y-78574900D01*
X143875066Y-78603749D01*
X143931613Y-78688377D01*
X144003583Y-78760347D01*
X144088211Y-78816894D01*
X144182244Y-78855843D01*
X144282070Y-78875700D01*
X144383850Y-78875700D01*
X144483676Y-78855843D01*
X144577709Y-78816894D01*
X144653980Y-78765931D01*
X144730251Y-78816894D01*
X144824284Y-78855843D01*
X144924110Y-78875700D01*
X145025890Y-78875700D01*
X145125716Y-78855843D01*
X145219749Y-78816894D01*
X145304377Y-78760347D01*
X145342000Y-78722724D01*
X145370623Y-78751347D01*
X145455251Y-78807894D01*
X145549284Y-78846843D01*
X145649110Y-78866700D01*
X145750890Y-78866700D01*
X145850716Y-78846843D01*
X145944749Y-78807894D01*
X146014700Y-78761154D01*
X146084651Y-78807894D01*
X146178684Y-78846843D01*
X146278510Y-78866700D01*
X146380290Y-78866700D01*
X146480116Y-78846843D01*
X146574149Y-78807894D01*
X146658777Y-78751347D01*
X146680500Y-78729624D01*
X146685823Y-78734947D01*
X146770451Y-78791494D01*
X146864484Y-78830443D01*
X146964310Y-78850300D01*
X147066090Y-78850300D01*
X147165916Y-78830443D01*
X147259949Y-78791494D01*
X147344577Y-78734947D01*
X147416547Y-78662977D01*
X147473094Y-78578349D01*
X147474523Y-78574900D01*
X147512252Y-78574900D01*
X147548653Y-78629377D01*
X147620623Y-78701347D01*
X147705251Y-78757894D01*
X147799284Y-78796843D01*
X147899110Y-78816700D01*
X148000890Y-78816700D01*
X148100716Y-78796843D01*
X148194749Y-78757894D01*
X148279377Y-78701347D01*
X148351347Y-78629377D01*
X148387748Y-78574900D01*
X149924776Y-78574900D01*
X150025100Y-78675224D01*
X150025100Y-81852776D01*
X149924776Y-81953100D01*
X143517952Y-81953100D01*
X143479547Y-81895623D01*
X143407577Y-81823653D01*
X143322949Y-81767106D01*
X143228916Y-81728157D01*
X143129090Y-81708300D01*
X143041700Y-81708300D01*
X143041700Y-81674110D01*
X143021843Y-81574284D01*
X142982894Y-81480251D01*
X142926347Y-81395623D01*
X142854377Y-81323653D01*
X142769749Y-81267106D01*
X142675716Y-81228157D01*
X142575890Y-81208300D01*
X142474110Y-81208300D01*
X142374284Y-81228157D01*
X142280251Y-81267106D01*
X142263226Y-81278481D01*
X142232894Y-81205251D01*
X142176347Y-81120623D01*
X142104377Y-81048653D01*
X142019749Y-80992106D01*
X141925716Y-80953157D01*
X141825890Y-80933300D01*
X141724110Y-80933300D01*
X141624284Y-80953157D01*
X141530251Y-80992106D01*
X141445623Y-81048653D01*
X141394000Y-81100276D01*
X141350177Y-81056453D01*
X141265549Y-80999906D01*
X141171516Y-80960957D01*
X141071690Y-80941100D01*
X140969910Y-80941100D01*
X140870084Y-80960957D01*
X140776051Y-80999906D01*
X140691423Y-81056453D01*
X140652500Y-81095376D01*
X140613577Y-81056453D01*
X140528949Y-80999906D01*
X140434916Y-80960957D01*
X140335090Y-80941100D01*
X140233310Y-80941100D01*
X140133484Y-80960957D01*
X140039451Y-80999906D01*
X139954823Y-81056453D01*
X139922250Y-81089026D01*
X139902377Y-81069153D01*
X139817749Y-81012606D01*
X139723716Y-80973657D01*
X139623890Y-80953800D01*
X139522110Y-80953800D01*
X139422284Y-80973657D01*
X139328251Y-81012606D01*
X139243623Y-81069153D01*
X139171653Y-81141123D01*
X139142297Y-81185058D01*
X139065090Y-81169700D01*
X138963310Y-81169700D01*
X138863484Y-81189557D01*
X138769451Y-81228506D01*
X138684823Y-81285053D01*
X138612853Y-81357023D01*
X138556306Y-81441651D01*
X138520774Y-81527436D01*
X138431684Y-81545157D01*
X138337651Y-81584106D01*
X138253023Y-81640653D01*
X138181053Y-81712623D01*
X138124506Y-81797251D01*
X138085557Y-81891284D01*
X138073261Y-81953100D01*
X137943067Y-81953100D01*
X137948480Y-81925890D01*
X137948480Y-81824110D01*
X137928623Y-81724284D01*
X137889674Y-81630251D01*
X137833127Y-81545623D01*
X137761157Y-81473653D01*
X137676529Y-81417106D01*
X137582496Y-81378157D01*
X137482670Y-81358300D01*
X137380890Y-81358300D01*
X137281064Y-81378157D01*
X137187031Y-81417106D01*
X137102403Y-81473653D01*
X137030433Y-81545623D01*
X136973886Y-81630251D01*
X136934937Y-81724284D01*
X136915080Y-81824110D01*
X136915080Y-81906969D01*
X136877598Y-81922495D01*
X136876347Y-81920623D01*
X136804377Y-81848653D01*
X136719749Y-81792106D01*
X136625716Y-81753157D01*
X136525890Y-81733300D01*
X136424110Y-81733300D01*
X136324284Y-81753157D01*
X136230251Y-81792106D01*
X136180843Y-81825119D01*
X136179377Y-81823653D01*
X136094749Y-81767106D01*
X136000716Y-81728157D01*
X135900890Y-81708300D01*
X135799110Y-81708300D01*
X135699284Y-81728157D01*
X135605251Y-81767106D01*
X135520623Y-81823653D01*
X135478129Y-81866147D01*
X135398149Y-81812706D01*
X135304116Y-81773757D01*
X135204290Y-81753900D01*
X135102510Y-81753900D01*
X135002684Y-81773757D01*
X134908651Y-81812706D01*
X134824023Y-81869253D01*
X134752053Y-81941223D01*
X134744117Y-81953100D01*
X134453440Y-81953100D01*
X134453440Y-81950470D01*
X134433583Y-81850644D01*
X134394634Y-81756611D01*
X134338087Y-81671983D01*
X134266117Y-81600013D01*
X134181489Y-81543466D01*
X134087456Y-81504517D01*
X133987630Y-81484660D01*
X133885850Y-81484660D01*
X133786024Y-81504517D01*
X133691991Y-81543466D01*
X133607363Y-81600013D01*
X133535393Y-81671983D01*
X133478846Y-81756611D01*
X133439897Y-81850644D01*
X133420040Y-81950470D01*
X133420040Y-81953100D01*
X129221224Y-81953100D01*
X129120900Y-81852776D01*
X129120900Y-78421224D01*
X129221224Y-78320900D01*
X134938776Y-78320900D01*
X135039100Y-78421224D01*
G37*
X135039100Y-78421224D02*
X135039100Y-79095600D01*
X135040808Y-79112944D01*
X135045867Y-79129621D01*
X135153630Y-79389784D01*
X135161845Y-79405153D01*
X135172901Y-79418625D01*
X135973375Y-80219099D01*
X135986847Y-80230155D01*
X136002216Y-80238370D01*
X136262379Y-80346133D01*
X136279056Y-80351192D01*
X136296400Y-80352900D01*
X137627643Y-80352900D01*
X137638653Y-80369377D01*
X137710623Y-80441347D01*
X137795251Y-80497894D01*
X137889284Y-80536843D01*
X137989110Y-80556700D01*
X138090890Y-80556700D01*
X138190716Y-80536843D01*
X138284749Y-80497894D01*
X138369377Y-80441347D01*
X138441347Y-80369377D01*
X138452357Y-80352900D01*
X141325600Y-80352900D01*
X141342944Y-80351192D01*
X141359621Y-80346133D01*
X141619784Y-80238370D01*
X141635153Y-80230155D01*
X141648625Y-80219099D01*
X142195099Y-79672625D01*
X142207860Y-79656501D01*
X142363816Y-79404159D01*
X142372531Y-79385534D01*
X142538177Y-78888596D01*
X142541591Y-78874723D01*
X142548581Y-78831649D01*
X142599110Y-78841700D01*
X142700890Y-78841700D01*
X142800716Y-78821843D01*
X142894749Y-78782894D01*
X142979377Y-78726347D01*
X143051347Y-78654377D01*
X143104452Y-78574900D01*
X143863117Y-78574900D01*
X143875066Y-78603749D01*
X143931613Y-78688377D01*
X144003583Y-78760347D01*
X144088211Y-78816894D01*
X144182244Y-78855843D01*
X144282070Y-78875700D01*
X144383850Y-78875700D01*
X144483676Y-78855843D01*
X144577709Y-78816894D01*
X144653980Y-78765931D01*
X144730251Y-78816894D01*
X144824284Y-78855843D01*
X144924110Y-78875700D01*
X145025890Y-78875700D01*
X145125716Y-78855843D01*
X145219749Y-78816894D01*
X145304377Y-78760347D01*
X145342000Y-78722724D01*
X145370623Y-78751347D01*
X145455251Y-78807894D01*
X145549284Y-78846843D01*
X145649110Y-78866700D01*
X145750890Y-78866700D01*
X145850716Y-78846843D01*
X145944749Y-78807894D01*
X146014700Y-78761154D01*
X146084651Y-78807894D01*
X146178684Y-78846843D01*
X146278510Y-78866700D01*
X146380290Y-78866700D01*
X146480116Y-78846843D01*
X146574149Y-78807894D01*
X146658777Y-78751347D01*
X146680500Y-78729624D01*
X146685823Y-78734947D01*
X146770451Y-78791494D01*
X146864484Y-78830443D01*
X146964310Y-78850300D01*
X147066090Y-78850300D01*
X147165916Y-78830443D01*
X147259949Y-78791494D01*
X147344577Y-78734947D01*
X147416547Y-78662977D01*
X147473094Y-78578349D01*
X147474523Y-78574900D01*
X147512252Y-78574900D01*
X147548653Y-78629377D01*
X147620623Y-78701347D01*
X147705251Y-78757894D01*
X147799284Y-78796843D01*
X147899110Y-78816700D01*
X148000890Y-78816700D01*
X148100716Y-78796843D01*
X148194749Y-78757894D01*
X148279377Y-78701347D01*
X148351347Y-78629377D01*
X148387748Y-78574900D01*
X149924776Y-78574900D01*
X150025100Y-78675224D01*
X150025100Y-81852776D01*
X149924776Y-81953100D01*
X143517952Y-81953100D01*
X143479547Y-81895623D01*
X143407577Y-81823653D01*
X143322949Y-81767106D01*
X143228916Y-81728157D01*
X143129090Y-81708300D01*
X143041700Y-81708300D01*
X143041700Y-81674110D01*
X143021843Y-81574284D01*
X142982894Y-81480251D01*
X142926347Y-81395623D01*
X142854377Y-81323653D01*
X142769749Y-81267106D01*
X142675716Y-81228157D01*
X142575890Y-81208300D01*
X142474110Y-81208300D01*
X142374284Y-81228157D01*
X142280251Y-81267106D01*
X142263226Y-81278481D01*
X142232894Y-81205251D01*
X142176347Y-81120623D01*
X142104377Y-81048653D01*
X142019749Y-80992106D01*
X141925716Y-80953157D01*
X141825890Y-80933300D01*
X141724110Y-80933300D01*
X141624284Y-80953157D01*
X141530251Y-80992106D01*
X141445623Y-81048653D01*
X141394000Y-81100276D01*
X141350177Y-81056453D01*
X141265549Y-80999906D01*
X141171516Y-80960957D01*
X141071690Y-80941100D01*
X140969910Y-80941100D01*
X140870084Y-80960957D01*
X140776051Y-80999906D01*
X140691423Y-81056453D01*
X140652500Y-81095376D01*
X140613577Y-81056453D01*
X140528949Y-80999906D01*
X140434916Y-80960957D01*
X140335090Y-80941100D01*
X140233310Y-80941100D01*
X140133484Y-80960957D01*
X140039451Y-80999906D01*
X139954823Y-81056453D01*
X139922250Y-81089026D01*
X139902377Y-81069153D01*
X139817749Y-81012606D01*
X139723716Y-80973657D01*
X139623890Y-80953800D01*
X139522110Y-80953800D01*
X139422284Y-80973657D01*
X139328251Y-81012606D01*
X139243623Y-81069153D01*
X139171653Y-81141123D01*
X139142297Y-81185058D01*
X139065090Y-81169700D01*
X138963310Y-81169700D01*
X138863484Y-81189557D01*
X138769451Y-81228506D01*
X138684823Y-81285053D01*
X138612853Y-81357023D01*
X138556306Y-81441651D01*
X138520774Y-81527436D01*
X138431684Y-81545157D01*
X138337651Y-81584106D01*
X138253023Y-81640653D01*
X138181053Y-81712623D01*
X138124506Y-81797251D01*
X138085557Y-81891284D01*
X138073261Y-81953100D01*
X137943067Y-81953100D01*
X137948480Y-81925890D01*
X137948480Y-81824110D01*
X137928623Y-81724284D01*
X137889674Y-81630251D01*
X137833127Y-81545623D01*
X137761157Y-81473653D01*
X137676529Y-81417106D01*
X137582496Y-81378157D01*
X137482670Y-81358300D01*
X137380890Y-81358300D01*
X137281064Y-81378157D01*
X137187031Y-81417106D01*
X137102403Y-81473653D01*
X137030433Y-81545623D01*
X136973886Y-81630251D01*
X136934937Y-81724284D01*
X136915080Y-81824110D01*
X136915080Y-81906969D01*
X136877598Y-81922495D01*
X136876347Y-81920623D01*
X136804377Y-81848653D01*
X136719749Y-81792106D01*
X136625716Y-81753157D01*
X136525890Y-81733300D01*
X136424110Y-81733300D01*
X136324284Y-81753157D01*
X136230251Y-81792106D01*
X136180843Y-81825119D01*
X136179377Y-81823653D01*
X136094749Y-81767106D01*
X136000716Y-81728157D01*
X135900890Y-81708300D01*
X135799110Y-81708300D01*
X135699284Y-81728157D01*
X135605251Y-81767106D01*
X135520623Y-81823653D01*
X135478129Y-81866147D01*
X135398149Y-81812706D01*
X135304116Y-81773757D01*
X135204290Y-81753900D01*
X135102510Y-81753900D01*
X135002684Y-81773757D01*
X134908651Y-81812706D01*
X134824023Y-81869253D01*
X134752053Y-81941223D01*
X134744117Y-81953100D01*
X134453440Y-81953100D01*
X134453440Y-81950470D01*
X134433583Y-81850644D01*
X134394634Y-81756611D01*
X134338087Y-81671983D01*
X134266117Y-81600013D01*
X134181489Y-81543466D01*
X134087456Y-81504517D01*
X133987630Y-81484660D01*
X133885850Y-81484660D01*
X133786024Y-81504517D01*
X133691991Y-81543466D01*
X133607363Y-81600013D01*
X133535393Y-81671983D01*
X133478846Y-81756611D01*
X133439897Y-81850644D01*
X133420040Y-81950470D01*
X133420040Y-81953100D01*
X129221224Y-81953100D01*
X129120900Y-81852776D01*
X129120900Y-78421224D01*
X129221224Y-78320900D01*
X134938776Y-78320900D01*
X135039100Y-78421224D01*
M02*
