G04 #@! TF.GenerationSoftware,KiCad,Pcbnew,(5.1.7)-1*
G04 #@! TF.CreationDate,2021-07-01T14:18:12+04:00*
G04 #@! TF.ProjectId,pcb-stm32wl,7063622d-7374-46d3-9332-776c2e6b6963,1.1*
G04 #@! TF.SameCoordinates,PX8f0d180PY6422c40*
G04 #@! TF.FileFunction,Legend,Bot*
G04 #@! TF.FilePolarity,Positive*
%FSLAX46Y46*%
G04 Gerber Fmt 4.6, Leading zero omitted, Abs format (unit mm)*
G04 Created by KiCad (PCBNEW (5.1.7)-1) date 2021-07-01 14:18:12*
%MOMM*%
%LPD*%
G01*
G04 APERTURE LIST*
%ADD10C,0.250000*%
%ADD11C,0.175000*%
%ADD12C,0.150000*%
%ADD13C,0.200000*%
%ADD14C,0.010000*%
%ADD15C,0.120000*%
G04 APERTURE END LIST*
D10*
X8904166Y21078572D02*
X8904166Y20026191D01*
X8970833Y19902381D01*
X9037500Y19840477D01*
X9170833Y19778572D01*
X9370833Y19778572D01*
X9504166Y19840477D01*
X8904166Y20273810D02*
X9037500Y20211905D01*
X9304166Y20211905D01*
X9437500Y20273810D01*
X9504166Y20335715D01*
X9570833Y20459524D01*
X9570833Y20830953D01*
X9504166Y20954762D01*
X9437500Y21016667D01*
X9304166Y21078572D01*
X9037500Y21078572D01*
X8904166Y21016667D01*
X7704166Y20273810D02*
X7837500Y20211905D01*
X8104166Y20211905D01*
X8237500Y20273810D01*
X8304166Y20397620D01*
X8304166Y20892858D01*
X8237500Y21016667D01*
X8104166Y21078572D01*
X7837500Y21078572D01*
X7704166Y21016667D01*
X7637500Y20892858D01*
X7637500Y20769048D01*
X8304166Y20645239D01*
X7037500Y21078572D02*
X7037500Y20211905D01*
X7037500Y20954762D02*
X6970833Y21016667D01*
X6837500Y21078572D01*
X6637500Y21078572D01*
X6504166Y21016667D01*
X6437500Y20892858D01*
X6437500Y20211905D01*
X5237500Y20273810D02*
X5370833Y20211905D01*
X5637500Y20211905D01*
X5770833Y20273810D01*
X5837500Y20397620D01*
X5837500Y20892858D01*
X5770833Y21016667D01*
X5637500Y21078572D01*
X5370833Y21078572D01*
X5237500Y21016667D01*
X5170833Y20892858D01*
X5170833Y20769048D01*
X5837500Y20645239D01*
X4570833Y20211905D02*
X4570833Y21078572D01*
X4570833Y20830953D02*
X4504166Y20954762D01*
X4437500Y21016667D01*
X4304166Y21078572D01*
X4170833Y21078572D01*
X3704166Y20211905D02*
X3704166Y21078572D01*
X3704166Y21511905D02*
X3770833Y21450000D01*
X3704166Y21388096D01*
X3637500Y21450000D01*
X3704166Y21511905D01*
X3704166Y21388096D01*
X2437500Y20273810D02*
X2570833Y20211905D01*
X2837500Y20211905D01*
X2970833Y20273810D01*
X3037500Y20335715D01*
X3104166Y20459524D01*
X3104166Y20830953D01*
X3037500Y20954762D01*
X2970833Y21016667D01*
X2837500Y21078572D01*
X2570833Y21078572D01*
X2437500Y21016667D01*
X1837500Y21078572D02*
X1837500Y20211905D01*
X1837500Y20954762D02*
X1770833Y21016667D01*
X1637500Y21078572D01*
X1437500Y21078572D01*
X1304166Y21016667D01*
X1237500Y20892858D01*
X1237500Y20211905D01*
X370833Y20211905D02*
X504166Y20273810D01*
X570833Y20335715D01*
X637500Y20459524D01*
X637500Y20830953D01*
X570833Y20954762D01*
X504166Y21016667D01*
X370833Y21078572D01*
X170833Y21078572D01*
X37500Y21016667D01*
X-29167Y20954762D01*
X-95834Y20830953D01*
X-95834Y20459524D01*
X-29167Y20335715D01*
X37500Y20273810D01*
X170833Y20211905D01*
X370833Y20211905D01*
X-1295834Y20211905D02*
X-1295834Y21511905D01*
X-1295834Y20273810D02*
X-1162500Y20211905D01*
X-895834Y20211905D01*
X-762500Y20273810D01*
X-695834Y20335715D01*
X-629167Y20459524D01*
X-629167Y20830953D01*
X-695834Y20954762D01*
X-762500Y21016667D01*
X-895834Y21078572D01*
X-1162500Y21078572D01*
X-1295834Y21016667D01*
X-2495834Y20273810D02*
X-2362500Y20211905D01*
X-2095834Y20211905D01*
X-1962500Y20273810D01*
X-1895834Y20397620D01*
X-1895834Y20892858D01*
X-1962500Y21016667D01*
X-2095834Y21078572D01*
X-2362500Y21078572D01*
X-2495834Y21016667D01*
X-2562500Y20892858D01*
X-2562500Y20769048D01*
X-1895834Y20645239D01*
X-3162500Y20335715D02*
X-3229167Y20273810D01*
X-3162500Y20211905D01*
X-3095834Y20273810D01*
X-3162500Y20335715D01*
X-3162500Y20211905D01*
X-4429167Y20273810D02*
X-4295834Y20211905D01*
X-4029167Y20211905D01*
X-3895834Y20273810D01*
X-3829167Y20335715D01*
X-3762500Y20459524D01*
X-3762500Y20830953D01*
X-3829167Y20954762D01*
X-3895834Y21016667D01*
X-4029167Y21078572D01*
X-4295834Y21078572D01*
X-4429167Y21016667D01*
X-5229167Y20211905D02*
X-5095834Y20273810D01*
X-5029167Y20335715D01*
X-4962500Y20459524D01*
X-4962500Y20830953D01*
X-5029167Y20954762D01*
X-5095834Y21016667D01*
X-5229167Y21078572D01*
X-5429167Y21078572D01*
X-5562500Y21016667D01*
X-5629167Y20954762D01*
X-5695834Y20830953D01*
X-5695834Y20459524D01*
X-5629167Y20335715D01*
X-5562500Y20273810D01*
X-5429167Y20211905D01*
X-5229167Y20211905D01*
X-6295834Y20211905D02*
X-6295834Y21078572D01*
X-6295834Y20954762D02*
X-6362500Y21016667D01*
X-6495834Y21078572D01*
X-6695834Y21078572D01*
X-6829167Y21016667D01*
X-6895834Y20892858D01*
X-6895834Y20211905D01*
X-6895834Y20892858D02*
X-6962500Y21016667D01*
X-7095834Y21078572D01*
X-7295834Y21078572D01*
X-7429167Y21016667D01*
X-7495834Y20892858D01*
X-7495834Y20211905D01*
D11*
X-14666667Y6580417D02*
X-13966667Y6580417D01*
X-14666667Y6980417D01*
X-13966667Y6980417D01*
X-14666667Y7713750D02*
X-14333334Y7480417D01*
X-14666667Y7313750D02*
X-13966667Y7313750D01*
X-13966667Y7580417D01*
X-14000000Y7647084D01*
X-14033334Y7680417D01*
X-14100000Y7713750D01*
X-14200000Y7713750D01*
X-14266667Y7680417D01*
X-14300000Y7647084D01*
X-14333334Y7580417D01*
X-14333334Y7313750D01*
X-14633334Y7980417D02*
X-14666667Y8080417D01*
X-14666667Y8247084D01*
X-14633334Y8313750D01*
X-14600000Y8347084D01*
X-14533334Y8380417D01*
X-14466667Y8380417D01*
X-14400000Y8347084D01*
X-14366667Y8313750D01*
X-14333334Y8247084D01*
X-14300000Y8113750D01*
X-14266667Y8047084D01*
X-14233334Y8013750D01*
X-14166667Y7980417D01*
X-14100000Y7980417D01*
X-14033334Y8013750D01*
X-14000000Y8047084D01*
X-13966667Y8113750D01*
X-13966667Y8280417D01*
X-14000000Y8380417D01*
X-13966667Y8580417D02*
X-13966667Y8980417D01*
X-14666667Y8780417D02*
X-13966667Y8780417D01*
X-14633334Y4197084D02*
X-14666667Y4297084D01*
X-14666667Y4463750D01*
X-14633334Y4530417D01*
X-14600000Y4563750D01*
X-14533334Y4597084D01*
X-14466667Y4597084D01*
X-14400000Y4563750D01*
X-14366667Y4530417D01*
X-14333334Y4463750D01*
X-14300000Y4330417D01*
X-14266667Y4263750D01*
X-14233334Y4230417D01*
X-14166667Y4197084D01*
X-14100000Y4197084D01*
X-14033334Y4230417D01*
X-14000000Y4263750D01*
X-13966667Y4330417D01*
X-13966667Y4497084D01*
X-14000000Y4597084D01*
X-13966667Y4830417D02*
X-14666667Y4997084D01*
X-14166667Y5130417D01*
X-14666667Y5263750D01*
X-13966667Y5430417D01*
X-14666667Y5697084D02*
X-13966667Y5697084D01*
X-13966667Y5863750D01*
X-14000000Y5963750D01*
X-14066667Y6030417D01*
X-14133334Y6063750D01*
X-14266667Y6097084D01*
X-14366667Y6097084D01*
X-14500000Y6063750D01*
X-14566667Y6030417D01*
X-14633334Y5963750D01*
X-14666667Y5863750D01*
X-14666667Y5697084D01*
X-14600000Y2130417D02*
X-14633334Y2097084D01*
X-14666667Y1997084D01*
X-14666667Y1930417D01*
X-14633334Y1830417D01*
X-14566667Y1763750D01*
X-14500000Y1730417D01*
X-14366667Y1697084D01*
X-14266667Y1697084D01*
X-14133334Y1730417D01*
X-14066667Y1763750D01*
X-14000000Y1830417D01*
X-13966667Y1930417D01*
X-13966667Y1997084D01*
X-14000000Y2097084D01*
X-14033334Y2130417D01*
X-14666667Y2763750D02*
X-14666667Y2430417D01*
X-13966667Y2430417D01*
X-14666667Y2997084D02*
X-13966667Y2997084D01*
X-14666667Y3397084D02*
X-14266667Y3097084D01*
X-13966667Y3397084D02*
X-14366667Y2997084D01*
X-13966667Y-719583D02*
X-13966667Y-319583D01*
X-14666667Y-519583D02*
X-13966667Y-519583D01*
X-13966667Y-152916D02*
X-14666667Y313750D01*
X-13966667Y313750D02*
X-14666667Y-152916D01*
X-14666667Y580417D02*
X-13966667Y580417D01*
X-13966667Y747084D01*
X-14000000Y847084D01*
X-14066667Y913750D01*
X-14133334Y947084D01*
X-14266667Y980417D01*
X-14366667Y980417D01*
X-14500000Y947084D01*
X-14566667Y913750D01*
X-14633334Y847084D01*
X-14666667Y747084D01*
X-14666667Y580417D01*
X-14666667Y-2919583D02*
X-14333334Y-3152916D01*
X-14666667Y-3319583D02*
X-13966667Y-3319583D01*
X-13966667Y-3052916D01*
X-14000000Y-2986250D01*
X-14033334Y-2952916D01*
X-14100000Y-2919583D01*
X-14200000Y-2919583D01*
X-14266667Y-2952916D01*
X-14300000Y-2986250D01*
X-14333334Y-3052916D01*
X-14333334Y-3319583D01*
X-13966667Y-2686250D02*
X-14666667Y-2219583D01*
X-13966667Y-2219583D02*
X-14666667Y-2686250D01*
X-14666667Y-1952916D02*
X-13966667Y-1952916D01*
X-13966667Y-1786250D01*
X-14000000Y-1686250D01*
X-14066667Y-1619583D01*
X-14133334Y-1586250D01*
X-14266667Y-1552916D01*
X-14366667Y-1552916D01*
X-14500000Y-1586250D01*
X-14566667Y-1619583D01*
X-14633334Y-1686250D01*
X-14666667Y-1786250D01*
X-14666667Y-1952916D01*
X-13966667Y-8419583D02*
X-14666667Y-8186250D01*
X-13966667Y-7952916D01*
X-14600000Y-7319583D02*
X-14633334Y-7352916D01*
X-14666667Y-7452916D01*
X-14666667Y-7519583D01*
X-14633334Y-7619583D01*
X-14566667Y-7686250D01*
X-14500000Y-7719583D01*
X-14366667Y-7752916D01*
X-14266667Y-7752916D01*
X-14133334Y-7719583D01*
X-14066667Y-7686250D01*
X-14000000Y-7619583D01*
X-13966667Y-7519583D01*
X-13966667Y-7452916D01*
X-14000000Y-7352916D01*
X-14033334Y-7319583D01*
X-14600000Y-6619583D02*
X-14633334Y-6652916D01*
X-14666667Y-6752916D01*
X-14666667Y-6819583D01*
X-14633334Y-6919583D01*
X-14566667Y-6986250D01*
X-14500000Y-7019583D01*
X-14366667Y-7052916D01*
X-14266667Y-7052916D01*
X-14133334Y-7019583D01*
X-14066667Y-6986250D01*
X-14000000Y-6919583D01*
X-13966667Y-6819583D01*
X-13966667Y-6752916D01*
X-14000000Y-6652916D01*
X-14033334Y-6619583D01*
X-14050000Y-5552916D02*
X-14016667Y-5619583D01*
X-14016667Y-5719583D01*
X-14050000Y-5819583D01*
X-14116667Y-5886250D01*
X-14183334Y-5919583D01*
X-14316667Y-5952916D01*
X-14416667Y-5952916D01*
X-14550000Y-5919583D01*
X-14616667Y-5886250D01*
X-14683334Y-5819583D01*
X-14716667Y-5719583D01*
X-14716667Y-5652916D01*
X-14683334Y-5552916D01*
X-14650000Y-5519583D01*
X-14416667Y-5519583D01*
X-14416667Y-5652916D01*
X-14716667Y-5219583D02*
X-14016667Y-5219583D01*
X-14716667Y-4819583D01*
X-14016667Y-4819583D01*
X-14716667Y-4486250D02*
X-14016667Y-4486250D01*
X-14016667Y-4319583D01*
X-14050000Y-4219583D01*
X-14116667Y-4152916D01*
X-14183334Y-4119583D01*
X-14316667Y-4086250D01*
X-14416667Y-4086250D01*
X-14550000Y-4119583D01*
X-14616667Y-4152916D01*
X-14683334Y-4219583D01*
X-14716667Y-4319583D01*
X-14716667Y-4486250D01*
X14766666Y6535279D02*
X14066666Y6535279D01*
X14066666Y6268612D01*
X14100000Y6201946D01*
X14133333Y6168612D01*
X14200000Y6135279D01*
X14300000Y6135279D01*
X14366666Y6168612D01*
X14400000Y6201946D01*
X14433333Y6268612D01*
X14433333Y6535279D01*
X14566666Y5868612D02*
X14566666Y5535279D01*
X14766666Y5935279D02*
X14066666Y5701946D01*
X14766666Y5468612D01*
X14766666Y4868612D02*
X14766666Y5268612D01*
X14766666Y5068612D02*
X14066666Y5068612D01*
X14166666Y5135279D01*
X14233333Y5201946D01*
X14266666Y5268612D01*
X14066666Y4235279D02*
X14066666Y4568612D01*
X14400000Y4601946D01*
X14366666Y4568612D01*
X14333333Y4501946D01*
X14333333Y4335279D01*
X14366666Y4268612D01*
X14400000Y4235279D01*
X14466666Y4201946D01*
X14633333Y4201946D01*
X14700000Y4235279D01*
X14733333Y4268612D01*
X14766666Y4335279D01*
X14766666Y4501946D01*
X14733333Y4568612D01*
X14700000Y4601946D01*
X14766666Y8813750D02*
X14066666Y8813750D01*
X14066666Y8547084D01*
X14100000Y8480417D01*
X14133333Y8447084D01*
X14200000Y8413750D01*
X14300000Y8413750D01*
X14366666Y8447084D01*
X14400000Y8480417D01*
X14433333Y8547084D01*
X14433333Y8813750D01*
X14400000Y7880417D02*
X14433333Y7780417D01*
X14466666Y7747084D01*
X14533333Y7713750D01*
X14633333Y7713750D01*
X14700000Y7747084D01*
X14733333Y7780417D01*
X14766666Y7847084D01*
X14766666Y8113750D01*
X14066666Y8113750D01*
X14066666Y7880417D01*
X14100000Y7813750D01*
X14133333Y7780417D01*
X14200000Y7747084D01*
X14266666Y7747084D01*
X14333333Y7780417D01*
X14366666Y7813750D01*
X14400000Y7880417D01*
X14400000Y8113750D01*
X14066666Y7480417D02*
X14066666Y7047084D01*
X14333333Y7280417D01*
X14333333Y7180417D01*
X14366666Y7113750D01*
X14400000Y7080417D01*
X14466666Y7047084D01*
X14633333Y7047084D01*
X14700000Y7080417D01*
X14733333Y7113750D01*
X14766666Y7180417D01*
X14766666Y7380417D01*
X14733333Y7447084D01*
X14700000Y7480417D01*
X14766666Y3690141D02*
X14066666Y3690141D01*
X14066666Y3423474D01*
X14100000Y3356808D01*
X14133333Y3323474D01*
X14200000Y3290141D01*
X14300000Y3290141D01*
X14366666Y3323474D01*
X14400000Y3356808D01*
X14433333Y3423474D01*
X14433333Y3690141D01*
X14566666Y3023474D02*
X14566666Y2690141D01*
X14766666Y3090141D02*
X14066666Y2856808D01*
X14766666Y2623474D01*
X14766666Y2023474D02*
X14766666Y2423474D01*
X14766666Y2223474D02*
X14066666Y2223474D01*
X14166666Y2290141D01*
X14233333Y2356808D01*
X14266666Y2423474D01*
X14133333Y1756808D02*
X14100000Y1723474D01*
X14066666Y1656808D01*
X14066666Y1490141D01*
X14100000Y1423474D01*
X14133333Y1390141D01*
X14200000Y1356808D01*
X14266666Y1356808D01*
X14366666Y1390141D01*
X14766666Y1790141D01*
X14766666Y1356808D01*
X14766666Y845003D02*
X14066666Y845003D01*
X14066666Y578336D01*
X14100000Y511670D01*
X14133333Y478336D01*
X14200000Y445003D01*
X14300000Y445003D01*
X14366666Y478336D01*
X14400000Y511670D01*
X14433333Y578336D01*
X14433333Y845003D01*
X14566666Y178336D02*
X14566666Y-154997D01*
X14766666Y245003D02*
X14066666Y11670D01*
X14766666Y-221664D01*
X14766666Y-821664D02*
X14766666Y-421664D01*
X14766666Y-621664D02*
X14066666Y-621664D01*
X14166666Y-554997D01*
X14233333Y-488330D01*
X14266666Y-421664D01*
X14766666Y-1488330D02*
X14766666Y-1088330D01*
X14766666Y-1288330D02*
X14066666Y-1288330D01*
X14166666Y-1221664D01*
X14233333Y-1154997D01*
X14266666Y-1088330D01*
X14066666Y-1926385D02*
X14766666Y-2159719D01*
X14066666Y-2393052D01*
X14700000Y-3026385D02*
X14733333Y-2993052D01*
X14766666Y-2893052D01*
X14766666Y-2826385D01*
X14733333Y-2726385D01*
X14666666Y-2659719D01*
X14600000Y-2626385D01*
X14466666Y-2593052D01*
X14366666Y-2593052D01*
X14233333Y-2626385D01*
X14166666Y-2659719D01*
X14100000Y-2726385D01*
X14066666Y-2826385D01*
X14066666Y-2893052D01*
X14100000Y-2993052D01*
X14133333Y-3026385D01*
X14700000Y-3726385D02*
X14733333Y-3693052D01*
X14766666Y-3593052D01*
X14766666Y-3526385D01*
X14733333Y-3426385D01*
X14666666Y-3359719D01*
X14600000Y-3326385D01*
X14466666Y-3293052D01*
X14366666Y-3293052D01*
X14233333Y-3326385D01*
X14166666Y-3359719D01*
X14100000Y-3426385D01*
X14066666Y-3526385D01*
X14066666Y-3593052D01*
X14100000Y-3693052D01*
X14133333Y-3726385D01*
X14100000Y-4604857D02*
X14066666Y-4538191D01*
X14066666Y-4438191D01*
X14100000Y-4338191D01*
X14166666Y-4271524D01*
X14233333Y-4238191D01*
X14366666Y-4204857D01*
X14466666Y-4204857D01*
X14600000Y-4238191D01*
X14666666Y-4271524D01*
X14733333Y-4338191D01*
X14766666Y-4438191D01*
X14766666Y-4504857D01*
X14733333Y-4604857D01*
X14700000Y-4638191D01*
X14466666Y-4638191D01*
X14466666Y-4504857D01*
X14766666Y-4938191D02*
X14066666Y-4938191D01*
X14766666Y-5338191D01*
X14066666Y-5338191D01*
X14766666Y-5671524D02*
X14066666Y-5671524D01*
X14066666Y-5838191D01*
X14100000Y-5938191D01*
X14166666Y-6004857D01*
X14233333Y-6038191D01*
X14366666Y-6071524D01*
X14466666Y-6071524D01*
X14600000Y-6038191D01*
X14666666Y-6004857D01*
X14733333Y-5938191D01*
X14766666Y-5838191D01*
X14766666Y-5671524D01*
X14066666Y-6833333D02*
X14766666Y-7066666D01*
X14066666Y-7300000D01*
X14766666Y-7533333D02*
X14066666Y-7533333D01*
X14766666Y-7866666D02*
X14066666Y-7866666D01*
X14766666Y-8266666D01*
X14066666Y-8266666D01*
D12*
X900000Y-25000000D02*
X6450000Y-25000000D01*
X0Y-25900000D02*
X-1000000Y-25900000D01*
X0Y-25900000D02*
X900000Y-25000000D01*
X-2100000Y-15600000D02*
X-2100000Y-17650000D01*
X-1100000Y-14600000D02*
X-2100000Y-15600000D01*
X-11000000Y-11350000D02*
X-5300000Y-11350000D01*
X10100000Y-11300000D02*
X5350000Y-11300000D01*
X10800000Y-12000000D02*
X10100000Y-11300000D01*
X-11800000Y-12150000D02*
X-11000000Y-11350000D01*
X-11800000Y-12350000D02*
X-11800000Y-12150000D01*
X10800000Y-12000000D02*
X11200000Y-12400000D01*
D13*
X-4013000Y-24099190D02*
X-4013000Y-24575380D01*
X-3679667Y-23575380D02*
X-4013000Y-24099190D01*
X-4346334Y-23575380D01*
X201666Y-19887619D02*
X868333Y-18887619D01*
X868333Y-19887619D02*
X201666Y-18887619D01*
D12*
X-4001975Y-23221554D02*
X-3501974Y-22721553D01*
X-4001975Y-23221554D02*
X-4501975Y-22721553D01*
X-157000Y-19368000D02*
X-657000Y-19868000D01*
X-157000Y-19368000D02*
X-656999Y-18868000D01*
X-4001975Y-20221553D02*
X-4001975Y-23221554D01*
X-3157000Y-19368000D02*
X-157000Y-19368000D01*
D13*
X-5016667Y-19052380D02*
X-5683334Y-19052380D01*
X-5016667Y-20052380D01*
X-5683334Y-20052380D01*
D12*
X-3257000Y-19368000D02*
G75*
G03*
X-3257000Y-19368000I-750000J0D01*
G01*
X-3757000Y-19368000D02*
G75*
G03*
X-3757000Y-19368000I-250000J0D01*
G01*
D14*
G36*
X-9692533Y-9219954D02*
G01*
X-9298833Y-9224500D01*
X-9293987Y-9389600D01*
X-9641733Y-9389600D01*
X-9641733Y-9525067D01*
X-9294600Y-9525067D01*
X-9294600Y-9702867D01*
X-9709467Y-9702867D01*
X-9709467Y-9838333D01*
X-9125267Y-9838333D01*
X-9125267Y-9084800D01*
X-9692533Y-9084800D01*
X-9692533Y-9219954D01*
G37*
X-9692533Y-9219954D02*
X-9298833Y-9224500D01*
X-9293987Y-9389600D01*
X-9641733Y-9389600D01*
X-9641733Y-9525067D01*
X-9294600Y-9525067D01*
X-9294600Y-9702867D01*
X-9709467Y-9702867D01*
X-9709467Y-9838333D01*
X-9125267Y-9838333D01*
X-9125267Y-9084800D01*
X-9692533Y-9084800D01*
X-9692533Y-9219954D01*
G36*
X-8513550Y-9084947D02*
G01*
X-8598890Y-9085811D01*
X-8669536Y-9088584D01*
X-8727669Y-9093759D01*
X-8775468Y-9101831D01*
X-8815116Y-9113292D01*
X-8848790Y-9128636D01*
X-8878674Y-9148359D01*
X-8906945Y-9172952D01*
X-8908401Y-9174362D01*
X-8945696Y-9221885D01*
X-8969404Y-9278906D01*
X-8979404Y-9339298D01*
X-8976830Y-9406395D01*
X-8959717Y-9467213D01*
X-8928920Y-9519976D01*
X-8885297Y-9562907D01*
X-8864771Y-9576736D01*
X-8844905Y-9588754D01*
X-8832253Y-9596543D01*
X-8830383Y-9597759D01*
X-8833988Y-9605012D01*
X-8845754Y-9623720D01*
X-8864106Y-9651483D01*
X-8887468Y-9685902D01*
X-8903043Y-9708472D01*
X-8929429Y-9746594D01*
X-8952606Y-9780276D01*
X-8970748Y-9806852D01*
X-8982031Y-9823656D01*
X-8984643Y-9827750D01*
X-8983701Y-9832580D01*
X-8972782Y-9835753D01*
X-8949771Y-9837526D01*
X-8912553Y-9838156D01*
X-8899283Y-9838163D01*
X-8807766Y-9837993D01*
X-8735770Y-9734446D01*
X-8663774Y-9630900D01*
X-8502966Y-9630900D01*
X-8500589Y-9734617D01*
X-8498212Y-9838333D01*
X-8329400Y-9838333D01*
X-8329400Y-9228733D01*
X-8498733Y-9228733D01*
X-8498733Y-9491200D01*
X-8598216Y-9491014D01*
X-8645650Y-9490331D01*
X-8680217Y-9488163D01*
X-8705956Y-9484017D01*
X-8726905Y-9477404D01*
X-8733508Y-9474573D01*
X-8769461Y-9450995D01*
X-8792213Y-9418179D01*
X-8802611Y-9374669D01*
X-8803502Y-9354266D01*
X-8801947Y-9323015D01*
X-8795747Y-9301196D01*
X-8782677Y-9281481D01*
X-8780645Y-9279032D01*
X-8761388Y-9259332D01*
X-8739946Y-9245386D01*
X-8713062Y-9236282D01*
X-8677476Y-9231110D01*
X-8629928Y-9228960D01*
X-8600605Y-9228733D01*
X-8498733Y-9228733D01*
X-8329400Y-9228733D01*
X-8329400Y-9084800D01*
X-8513550Y-9084947D01*
G37*
X-8513550Y-9084947D02*
X-8598890Y-9085811D01*
X-8669536Y-9088584D01*
X-8727669Y-9093759D01*
X-8775468Y-9101831D01*
X-8815116Y-9113292D01*
X-8848790Y-9128636D01*
X-8878674Y-9148359D01*
X-8906945Y-9172952D01*
X-8908401Y-9174362D01*
X-8945696Y-9221885D01*
X-8969404Y-9278906D01*
X-8979404Y-9339298D01*
X-8976830Y-9406395D01*
X-8959717Y-9467213D01*
X-8928920Y-9519976D01*
X-8885297Y-9562907D01*
X-8864771Y-9576736D01*
X-8844905Y-9588754D01*
X-8832253Y-9596543D01*
X-8830383Y-9597759D01*
X-8833988Y-9605012D01*
X-8845754Y-9623720D01*
X-8864106Y-9651483D01*
X-8887468Y-9685902D01*
X-8903043Y-9708472D01*
X-8929429Y-9746594D01*
X-8952606Y-9780276D01*
X-8970748Y-9806852D01*
X-8982031Y-9823656D01*
X-8984643Y-9827750D01*
X-8983701Y-9832580D01*
X-8972782Y-9835753D01*
X-8949771Y-9837526D01*
X-8912553Y-9838156D01*
X-8899283Y-9838163D01*
X-8807766Y-9837993D01*
X-8735770Y-9734446D01*
X-8663774Y-9630900D01*
X-8502966Y-9630900D01*
X-8500589Y-9734617D01*
X-8498212Y-9838333D01*
X-8329400Y-9838333D01*
X-8329400Y-9228733D01*
X-8498733Y-9228733D01*
X-8498733Y-9491200D01*
X-8598216Y-9491014D01*
X-8645650Y-9490331D01*
X-8680217Y-9488163D01*
X-8705956Y-9484017D01*
X-8726905Y-9477404D01*
X-8733508Y-9474573D01*
X-8769461Y-9450995D01*
X-8792213Y-9418179D01*
X-8802611Y-9374669D01*
X-8803502Y-9354266D01*
X-8801947Y-9323015D01*
X-8795747Y-9301196D01*
X-8782677Y-9281481D01*
X-8780645Y-9279032D01*
X-8761388Y-9259332D01*
X-8739946Y-9245386D01*
X-8713062Y-9236282D01*
X-8677476Y-9231110D01*
X-8629928Y-9228960D01*
X-8600605Y-9228733D01*
X-8498733Y-9228733D01*
X-8329400Y-9228733D01*
X-8329400Y-9084800D01*
X-8513550Y-9084947D01*
G36*
X-6534466Y-9219954D02*
G01*
X-6337617Y-9222227D01*
X-6140767Y-9224500D01*
X-6138343Y-9307050D01*
X-6135920Y-9389600D01*
X-6492133Y-9389600D01*
X-6492133Y-9525067D01*
X-6136533Y-9525067D01*
X-6136533Y-9702867D01*
X-6551400Y-9702867D01*
X-6551400Y-9838333D01*
X-5967200Y-9838333D01*
X-5967200Y-9084800D01*
X-6534466Y-9084800D01*
X-6534466Y-9219954D01*
G37*
X-6534466Y-9219954D02*
X-6337617Y-9222227D01*
X-6140767Y-9224500D01*
X-6138343Y-9307050D01*
X-6135920Y-9389600D01*
X-6492133Y-9389600D01*
X-6492133Y-9525067D01*
X-6136533Y-9525067D01*
X-6136533Y-9702867D01*
X-6551400Y-9702867D01*
X-6551400Y-9838333D01*
X-5967200Y-9838333D01*
X-5967200Y-9084800D01*
X-6534466Y-9084800D01*
X-6534466Y-9219954D01*
G36*
X-7645253Y-9336683D02*
G01*
X-7646042Y-9408865D01*
X-7646866Y-9466170D01*
X-7647879Y-9510655D01*
X-7649235Y-9544377D01*
X-7651086Y-9569393D01*
X-7653587Y-9587758D01*
X-7656891Y-9601530D01*
X-7661151Y-9612764D01*
X-7666521Y-9623518D01*
X-7666691Y-9623837D01*
X-7688443Y-9657447D01*
X-7713525Y-9679754D01*
X-7745681Y-9692671D01*
X-7788654Y-9698113D01*
X-7812933Y-9698633D01*
X-7862101Y-9695972D01*
X-7898739Y-9686711D01*
X-7926592Y-9668936D01*
X-7949402Y-9640733D01*
X-7959175Y-9623837D01*
X-7964579Y-9613066D01*
X-7968868Y-9601874D01*
X-7972197Y-9588203D01*
X-7974719Y-9569996D01*
X-7976586Y-9545198D01*
X-7977954Y-9511752D01*
X-7978975Y-9467600D01*
X-7979802Y-9410687D01*
X-7980590Y-9338957D01*
X-7980614Y-9336683D01*
X-7983194Y-9084800D01*
X-8152689Y-9084800D01*
X-8149863Y-9349383D01*
X-8149013Y-9423800D01*
X-8148128Y-9483366D01*
X-8147063Y-9530167D01*
X-8145673Y-9566285D01*
X-8143811Y-9593804D01*
X-8141333Y-9614807D01*
X-8138093Y-9631377D01*
X-8133945Y-9645599D01*
X-8128744Y-9659554D01*
X-8128084Y-9661205D01*
X-8094474Y-9723663D01*
X-8048618Y-9774496D01*
X-7990975Y-9813274D01*
X-7945056Y-9832614D01*
X-7911173Y-9840874D01*
X-7867374Y-9847260D01*
X-7820523Y-9851168D01*
X-7777482Y-9851991D01*
X-7749433Y-9849877D01*
X-7673818Y-9831303D01*
X-7609603Y-9800640D01*
X-7557215Y-9758230D01*
X-7517084Y-9704412D01*
X-7491265Y-9644825D01*
X-7486349Y-9627987D01*
X-7482475Y-9610682D01*
X-7479523Y-9590702D01*
X-7477368Y-9565838D01*
X-7475888Y-9533883D01*
X-7474963Y-9492627D01*
X-7474468Y-9439862D01*
X-7474282Y-9373380D01*
X-7474267Y-9337908D01*
X-7474267Y-9084800D01*
X-7642672Y-9084800D01*
X-7645253Y-9336683D01*
G37*
X-7645253Y-9336683D02*
X-7646042Y-9408865D01*
X-7646866Y-9466170D01*
X-7647879Y-9510655D01*
X-7649235Y-9544377D01*
X-7651086Y-9569393D01*
X-7653587Y-9587758D01*
X-7656891Y-9601530D01*
X-7661151Y-9612764D01*
X-7666521Y-9623518D01*
X-7666691Y-9623837D01*
X-7688443Y-9657447D01*
X-7713525Y-9679754D01*
X-7745681Y-9692671D01*
X-7788654Y-9698113D01*
X-7812933Y-9698633D01*
X-7862101Y-9695972D01*
X-7898739Y-9686711D01*
X-7926592Y-9668936D01*
X-7949402Y-9640733D01*
X-7959175Y-9623837D01*
X-7964579Y-9613066D01*
X-7968868Y-9601874D01*
X-7972197Y-9588203D01*
X-7974719Y-9569996D01*
X-7976586Y-9545198D01*
X-7977954Y-9511752D01*
X-7978975Y-9467600D01*
X-7979802Y-9410687D01*
X-7980590Y-9338957D01*
X-7980614Y-9336683D01*
X-7983194Y-9084800D01*
X-8152689Y-9084800D01*
X-8149863Y-9349383D01*
X-8149013Y-9423800D01*
X-8148128Y-9483366D01*
X-8147063Y-9530167D01*
X-8145673Y-9566285D01*
X-8143811Y-9593804D01*
X-8141333Y-9614807D01*
X-8138093Y-9631377D01*
X-8133945Y-9645599D01*
X-8128744Y-9659554D01*
X-8128084Y-9661205D01*
X-8094474Y-9723663D01*
X-8048618Y-9774496D01*
X-7990975Y-9813274D01*
X-7945056Y-9832614D01*
X-7911173Y-9840874D01*
X-7867374Y-9847260D01*
X-7820523Y-9851168D01*
X-7777482Y-9851991D01*
X-7749433Y-9849877D01*
X-7673818Y-9831303D01*
X-7609603Y-9800640D01*
X-7557215Y-9758230D01*
X-7517084Y-9704412D01*
X-7491265Y-9644825D01*
X-7486349Y-9627987D01*
X-7482475Y-9610682D01*
X-7479523Y-9590702D01*
X-7477368Y-9565838D01*
X-7475888Y-9533883D01*
X-7474963Y-9492627D01*
X-7474468Y-9439862D01*
X-7474282Y-9373380D01*
X-7474267Y-9337908D01*
X-7474267Y-9084800D01*
X-7642672Y-9084800D01*
X-7645253Y-9336683D01*
G36*
X-7138012Y-9082689D02*
G01*
X-7211865Y-9101127D01*
X-7276182Y-9131160D01*
X-7329055Y-9172097D01*
X-7334253Y-9177407D01*
X-7359340Y-9203791D01*
X-7306965Y-9256165D01*
X-7254591Y-9308540D01*
X-7231079Y-9286328D01*
X-7190983Y-9254959D01*
X-7147728Y-9235415D01*
X-7096721Y-9226044D01*
X-7059400Y-9224619D01*
X-7020570Y-9225501D01*
X-6992478Y-9228810D01*
X-6968971Y-9235764D01*
X-6944086Y-9247486D01*
X-6892372Y-9283154D01*
X-6854508Y-9328533D01*
X-6830594Y-9383448D01*
X-6820730Y-9447728D01*
X-6820452Y-9461567D01*
X-6827702Y-9528141D01*
X-6848685Y-9585691D01*
X-6882246Y-9633052D01*
X-6927234Y-9669062D01*
X-6982493Y-9692557D01*
X-7046872Y-9702373D01*
X-7059400Y-9702598D01*
X-7115403Y-9698384D01*
X-7161759Y-9684632D01*
X-7203969Y-9659365D01*
X-7222785Y-9643970D01*
X-7253830Y-9616712D01*
X-7304782Y-9665311D01*
X-7328210Y-9688512D01*
X-7345954Y-9707712D01*
X-7355099Y-9719695D01*
X-7355733Y-9721493D01*
X-7349260Y-9733155D01*
X-7332277Y-9750749D01*
X-7308444Y-9770930D01*
X-7281417Y-9790351D01*
X-7278083Y-9792504D01*
X-7225094Y-9818598D01*
X-7161441Y-9837763D01*
X-7092278Y-9849109D01*
X-7022760Y-9851746D01*
X-6966267Y-9846310D01*
X-6912518Y-9831411D01*
X-6855366Y-9806148D01*
X-6801290Y-9773905D01*
X-6756774Y-9738066D01*
X-6754358Y-9735684D01*
X-6706430Y-9676224D01*
X-6671919Y-9608632D01*
X-6651127Y-9535494D01*
X-6644360Y-9459396D01*
X-6651923Y-9382923D01*
X-6674120Y-9308660D01*
X-6698281Y-9259797D01*
X-6726087Y-9222003D01*
X-6764309Y-9182853D01*
X-6807590Y-9147155D01*
X-6850574Y-9119713D01*
X-6859283Y-9115344D01*
X-6903508Y-9096922D01*
X-6946657Y-9085077D01*
X-6994531Y-9078668D01*
X-7052935Y-9076554D01*
X-7056529Y-9076540D01*
X-7138012Y-9082689D01*
G37*
X-7138012Y-9082689D02*
X-7211865Y-9101127D01*
X-7276182Y-9131160D01*
X-7329055Y-9172097D01*
X-7334253Y-9177407D01*
X-7359340Y-9203791D01*
X-7306965Y-9256165D01*
X-7254591Y-9308540D01*
X-7231079Y-9286328D01*
X-7190983Y-9254959D01*
X-7147728Y-9235415D01*
X-7096721Y-9226044D01*
X-7059400Y-9224619D01*
X-7020570Y-9225501D01*
X-6992478Y-9228810D01*
X-6968971Y-9235764D01*
X-6944086Y-9247486D01*
X-6892372Y-9283154D01*
X-6854508Y-9328533D01*
X-6830594Y-9383448D01*
X-6820730Y-9447728D01*
X-6820452Y-9461567D01*
X-6827702Y-9528141D01*
X-6848685Y-9585691D01*
X-6882246Y-9633052D01*
X-6927234Y-9669062D01*
X-6982493Y-9692557D01*
X-7046872Y-9702373D01*
X-7059400Y-9702598D01*
X-7115403Y-9698384D01*
X-7161759Y-9684632D01*
X-7203969Y-9659365D01*
X-7222785Y-9643970D01*
X-7253830Y-9616712D01*
X-7304782Y-9665311D01*
X-7328210Y-9688512D01*
X-7345954Y-9707712D01*
X-7355099Y-9719695D01*
X-7355733Y-9721493D01*
X-7349260Y-9733155D01*
X-7332277Y-9750749D01*
X-7308444Y-9770930D01*
X-7281417Y-9790351D01*
X-7278083Y-9792504D01*
X-7225094Y-9818598D01*
X-7161441Y-9837763D01*
X-7092278Y-9849109D01*
X-7022760Y-9851746D01*
X-6966267Y-9846310D01*
X-6912518Y-9831411D01*
X-6855366Y-9806148D01*
X-6801290Y-9773905D01*
X-6756774Y-9738066D01*
X-6754358Y-9735684D01*
X-6706430Y-9676224D01*
X-6671919Y-9608632D01*
X-6651127Y-9535494D01*
X-6644360Y-9459396D01*
X-6651923Y-9382923D01*
X-6674120Y-9308660D01*
X-6698281Y-9259797D01*
X-6726087Y-9222003D01*
X-6764309Y-9182853D01*
X-6807590Y-9147155D01*
X-6850574Y-9119713D01*
X-6859283Y-9115344D01*
X-6903508Y-9096922D01*
X-6946657Y-9085077D01*
X-6994531Y-9078668D01*
X-7052935Y-9076554D01*
X-7056529Y-9076540D01*
X-7138012Y-9082689D01*
G36*
X-5600153Y-9077981D02*
G01*
X-5668556Y-9085773D01*
X-5730043Y-9101937D01*
X-5765051Y-9115783D01*
X-5812669Y-9136956D01*
X-5760079Y-9269410D01*
X-5728431Y-9253265D01*
X-5679238Y-9233595D01*
X-5622288Y-9219197D01*
X-5566456Y-9212164D01*
X-5552615Y-9211800D01*
X-5496452Y-9216207D01*
X-5453635Y-9229226D01*
X-5424685Y-9250548D01*
X-5410125Y-9279867D01*
X-5408400Y-9296630D01*
X-5410183Y-9316011D01*
X-5416820Y-9332086D01*
X-5430237Y-9345938D01*
X-5452366Y-9358651D01*
X-5485133Y-9371308D01*
X-5530468Y-9384991D01*
X-5590300Y-9400784D01*
X-5596838Y-9402441D01*
X-5657906Y-9419154D01*
X-5705337Y-9435381D01*
X-5742318Y-9452538D01*
X-5772039Y-9472045D01*
X-5791384Y-9488974D01*
X-5820458Y-9525157D01*
X-5836972Y-9566621D01*
X-5842590Y-9617696D01*
X-5842619Y-9622270D01*
X-5834902Y-9678684D01*
X-5812625Y-9728481D01*
X-5777104Y-9770943D01*
X-5729651Y-9805353D01*
X-5671580Y-9830993D01*
X-5604204Y-9847146D01*
X-5528838Y-9853094D01*
X-5446794Y-9848120D01*
X-5432695Y-9846198D01*
X-5394321Y-9838670D01*
X-5353243Y-9827502D01*
X-5312748Y-9813982D01*
X-5276121Y-9799401D01*
X-5246647Y-9785048D01*
X-5227614Y-9772212D01*
X-5222098Y-9763559D01*
X-5225328Y-9753651D01*
X-5233913Y-9732520D01*
X-5246146Y-9704332D01*
X-5249031Y-9697878D01*
X-5275999Y-9637856D01*
X-5310449Y-9657726D01*
X-5380210Y-9688704D01*
X-5458342Y-9706773D01*
X-5524429Y-9711333D01*
X-5581777Y-9708100D01*
X-5624167Y-9698100D01*
X-5652350Y-9680880D01*
X-5667079Y-9655991D01*
X-5669257Y-9624429D01*
X-5661560Y-9601517D01*
X-5642269Y-9581871D01*
X-5609794Y-9564467D01*
X-5562542Y-9548284D01*
X-5541957Y-9542651D01*
X-5476781Y-9525369D01*
X-5425657Y-9510909D01*
X-5386137Y-9498294D01*
X-5355773Y-9486546D01*
X-5332116Y-9474685D01*
X-5312717Y-9461734D01*
X-5295128Y-9446714D01*
X-5290292Y-9442099D01*
X-5265932Y-9416256D01*
X-5251253Y-9393424D01*
X-5242229Y-9366675D01*
X-5239624Y-9354924D01*
X-5234694Y-9293578D01*
X-5245636Y-9237523D01*
X-5271987Y-9187594D01*
X-5313284Y-9144622D01*
X-5369062Y-9109442D01*
X-5378721Y-9104856D01*
X-5405855Y-9093669D01*
X-5432114Y-9086253D01*
X-5462818Y-9081597D01*
X-5503286Y-9078692D01*
X-5520597Y-9077908D01*
X-5600153Y-9077981D01*
G37*
X-5600153Y-9077981D02*
X-5668556Y-9085773D01*
X-5730043Y-9101937D01*
X-5765051Y-9115783D01*
X-5812669Y-9136956D01*
X-5760079Y-9269410D01*
X-5728431Y-9253265D01*
X-5679238Y-9233595D01*
X-5622288Y-9219197D01*
X-5566456Y-9212164D01*
X-5552615Y-9211800D01*
X-5496452Y-9216207D01*
X-5453635Y-9229226D01*
X-5424685Y-9250548D01*
X-5410125Y-9279867D01*
X-5408400Y-9296630D01*
X-5410183Y-9316011D01*
X-5416820Y-9332086D01*
X-5430237Y-9345938D01*
X-5452366Y-9358651D01*
X-5485133Y-9371308D01*
X-5530468Y-9384991D01*
X-5590300Y-9400784D01*
X-5596838Y-9402441D01*
X-5657906Y-9419154D01*
X-5705337Y-9435381D01*
X-5742318Y-9452538D01*
X-5772039Y-9472045D01*
X-5791384Y-9488974D01*
X-5820458Y-9525157D01*
X-5836972Y-9566621D01*
X-5842590Y-9617696D01*
X-5842619Y-9622270D01*
X-5834902Y-9678684D01*
X-5812625Y-9728481D01*
X-5777104Y-9770943D01*
X-5729651Y-9805353D01*
X-5671580Y-9830993D01*
X-5604204Y-9847146D01*
X-5528838Y-9853094D01*
X-5446794Y-9848120D01*
X-5432695Y-9846198D01*
X-5394321Y-9838670D01*
X-5353243Y-9827502D01*
X-5312748Y-9813982D01*
X-5276121Y-9799401D01*
X-5246647Y-9785048D01*
X-5227614Y-9772212D01*
X-5222098Y-9763559D01*
X-5225328Y-9753651D01*
X-5233913Y-9732520D01*
X-5246146Y-9704332D01*
X-5249031Y-9697878D01*
X-5275999Y-9637856D01*
X-5310449Y-9657726D01*
X-5380210Y-9688704D01*
X-5458342Y-9706773D01*
X-5524429Y-9711333D01*
X-5581777Y-9708100D01*
X-5624167Y-9698100D01*
X-5652350Y-9680880D01*
X-5667079Y-9655991D01*
X-5669257Y-9624429D01*
X-5661560Y-9601517D01*
X-5642269Y-9581871D01*
X-5609794Y-9564467D01*
X-5562542Y-9548284D01*
X-5541957Y-9542651D01*
X-5476781Y-9525369D01*
X-5425657Y-9510909D01*
X-5386137Y-9498294D01*
X-5355773Y-9486546D01*
X-5332116Y-9474685D01*
X-5312717Y-9461734D01*
X-5295128Y-9446714D01*
X-5290292Y-9442099D01*
X-5265932Y-9416256D01*
X-5251253Y-9393424D01*
X-5242229Y-9366675D01*
X-5239624Y-9354924D01*
X-5234694Y-9293578D01*
X-5245636Y-9237523D01*
X-5271987Y-9187594D01*
X-5313284Y-9144622D01*
X-5369062Y-9109442D01*
X-5378721Y-9104856D01*
X-5405855Y-9093669D01*
X-5432114Y-9086253D01*
X-5462818Y-9081597D01*
X-5503286Y-9078692D01*
X-5520597Y-9077908D01*
X-5600153Y-9077981D01*
G36*
X-10581533Y-10524133D02*
G01*
X-10344467Y-10524133D01*
X-10344467Y-11142200D01*
X-10166667Y-11142200D01*
X-10166667Y-10524133D01*
X-9929600Y-10524133D01*
X-9929600Y-10388666D01*
X-10581533Y-10388666D01*
X-10581533Y-10524133D01*
G37*
X-10581533Y-10524133D02*
X-10344467Y-10524133D01*
X-10344467Y-11142200D01*
X-10166667Y-11142200D01*
X-10166667Y-10524133D01*
X-9929600Y-10524133D01*
X-9929600Y-10388666D01*
X-10581533Y-10388666D01*
X-10581533Y-10524133D01*
G36*
X-9469331Y-10614950D02*
G01*
X-9654433Y-10841233D01*
X-9656688Y-10614950D01*
X-9658943Y-10388666D01*
X-9828000Y-10388666D01*
X-9828000Y-11142200D01*
X-9758150Y-11141958D01*
X-9688300Y-11141717D01*
X-9502033Y-10913809D01*
X-9315767Y-10685902D01*
X-9311261Y-11142200D01*
X-9142200Y-11142200D01*
X-9142200Y-10388666D01*
X-9284228Y-10388666D01*
X-9469331Y-10614950D01*
G37*
X-9469331Y-10614950D02*
X-9654433Y-10841233D01*
X-9656688Y-10614950D01*
X-9658943Y-10388666D01*
X-9828000Y-10388666D01*
X-9828000Y-11142200D01*
X-9758150Y-11141958D01*
X-9688300Y-11141717D01*
X-9502033Y-10913809D01*
X-9315767Y-10685902D01*
X-9311261Y-11142200D01*
X-9142200Y-11142200D01*
X-9142200Y-10388666D01*
X-9284228Y-10388666D01*
X-9469331Y-10614950D01*
G36*
X-8981333Y-10524133D02*
G01*
X-8583400Y-10524133D01*
X-8583400Y-10693467D01*
X-8939000Y-10693467D01*
X-8939000Y-10820123D01*
X-8763316Y-10822411D01*
X-8587633Y-10824700D01*
X-8587633Y-11002500D01*
X-8792950Y-11004767D01*
X-8998266Y-11007034D01*
X-8998266Y-11142200D01*
X-8414066Y-11142200D01*
X-8414066Y-10388666D01*
X-8981333Y-10388666D01*
X-8981333Y-10524133D01*
G37*
X-8981333Y-10524133D02*
X-8583400Y-10524133D01*
X-8583400Y-10693467D01*
X-8939000Y-10693467D01*
X-8939000Y-10820123D01*
X-8763316Y-10822411D01*
X-8587633Y-10824700D01*
X-8587633Y-11002500D01*
X-8792950Y-11004767D01*
X-8998266Y-11007034D01*
X-8998266Y-11142200D01*
X-8414066Y-11142200D01*
X-8414066Y-10388666D01*
X-8981333Y-10388666D01*
X-8981333Y-10524133D01*
G36*
X-7454636Y-10390454D02*
G01*
X-7528140Y-10392900D01*
X-7664186Y-10618723D01*
X-7697919Y-10674609D01*
X-7728934Y-10725787D01*
X-7756133Y-10770462D01*
X-7778418Y-10806839D01*
X-7794693Y-10833123D01*
X-7803859Y-10847518D01*
X-7805391Y-10849659D01*
X-7810778Y-10843911D01*
X-7823646Y-10825222D01*
X-7842940Y-10795278D01*
X-7867601Y-10755760D01*
X-7896575Y-10708353D01*
X-7928805Y-10654741D01*
X-7948423Y-10621719D01*
X-8086298Y-10388666D01*
X-8227800Y-10388666D01*
X-8227800Y-11142200D01*
X-8067210Y-11142200D01*
X-8062700Y-10693130D01*
X-7954583Y-10875331D01*
X-7846466Y-11057533D01*
X-7764680Y-11057533D01*
X-7655456Y-10877617D01*
X-7546233Y-10697700D01*
X-7541719Y-11142200D01*
X-7381133Y-11142200D01*
X-7381133Y-10388007D01*
X-7454636Y-10390454D01*
G37*
X-7454636Y-10390454D02*
X-7528140Y-10392900D01*
X-7664186Y-10618723D01*
X-7697919Y-10674609D01*
X-7728934Y-10725787D01*
X-7756133Y-10770462D01*
X-7778418Y-10806839D01*
X-7794693Y-10833123D01*
X-7803859Y-10847518D01*
X-7805391Y-10849659D01*
X-7810778Y-10843911D01*
X-7823646Y-10825222D01*
X-7842940Y-10795278D01*
X-7867601Y-10755760D01*
X-7896575Y-10708353D01*
X-7928805Y-10654741D01*
X-7948423Y-10621719D01*
X-8086298Y-10388666D01*
X-8227800Y-10388666D01*
X-8227800Y-11142200D01*
X-8067210Y-11142200D01*
X-8062700Y-10693130D01*
X-7954583Y-10875331D01*
X-7846466Y-11057533D01*
X-7764680Y-11057533D01*
X-7655456Y-10877617D01*
X-7546233Y-10697700D01*
X-7541719Y-11142200D01*
X-7381133Y-11142200D01*
X-7381133Y-10388007D01*
X-7454636Y-10390454D01*
G36*
X-7228733Y-10524133D02*
G01*
X-6830800Y-10524133D01*
X-6830800Y-10693467D01*
X-7177933Y-10693467D01*
X-7177933Y-10820467D01*
X-6830800Y-10820467D01*
X-6830800Y-11006733D01*
X-7237200Y-11006733D01*
X-7237200Y-11142200D01*
X-6653000Y-11142200D01*
X-6653000Y-10388666D01*
X-7228733Y-10388666D01*
X-7228733Y-10524133D01*
G37*
X-7228733Y-10524133D02*
X-6830800Y-10524133D01*
X-6830800Y-10693467D01*
X-7177933Y-10693467D01*
X-7177933Y-10820467D01*
X-6830800Y-10820467D01*
X-6830800Y-11006733D01*
X-7237200Y-11006733D01*
X-7237200Y-11142200D01*
X-6653000Y-11142200D01*
X-6653000Y-10388666D01*
X-7228733Y-10388666D01*
X-7228733Y-10524133D01*
G36*
X-6178867Y-10998267D02*
G01*
X-6551400Y-10998267D01*
X-6551400Y-11142200D01*
X-6001067Y-11142200D01*
X-6001067Y-10388666D01*
X-6178867Y-10388666D01*
X-6178867Y-10998267D01*
G37*
X-6178867Y-10998267D02*
X-6551400Y-10998267D01*
X-6551400Y-11142200D01*
X-6001067Y-11142200D01*
X-6001067Y-10388666D01*
X-6178867Y-10388666D01*
X-6178867Y-10998267D01*
G36*
X-5848666Y-10524133D02*
G01*
X-5450733Y-10524133D01*
X-5450733Y-10693467D01*
X-5797866Y-10693467D01*
X-5797866Y-10820467D01*
X-5450733Y-10820467D01*
X-5450733Y-11006733D01*
X-5857133Y-11006733D01*
X-5857133Y-11142200D01*
X-5281400Y-11142200D01*
X-5281400Y-10388666D01*
X-5848666Y-10388666D01*
X-5848666Y-10524133D01*
G37*
X-5848666Y-10524133D02*
X-5450733Y-10524133D01*
X-5450733Y-10693467D01*
X-5797866Y-10693467D01*
X-5797866Y-10820467D01*
X-5450733Y-10820467D01*
X-5450733Y-11006733D01*
X-5857133Y-11006733D01*
X-5857133Y-11142200D01*
X-5281400Y-11142200D01*
X-5281400Y-10388666D01*
X-5848666Y-10388666D01*
X-5848666Y-10524133D01*
G36*
X732800Y-23188841D02*
G01*
X894725Y-23192395D01*
X1056650Y-23195950D01*
X1064268Y-23342000D01*
X770900Y-23342000D01*
X770900Y-23442768D01*
X1056650Y-23449950D01*
X1064268Y-23596000D01*
X720100Y-23596000D01*
X720100Y-23710300D01*
X1202700Y-23710300D01*
X1202700Y-23075300D01*
X732800Y-23075300D01*
X732800Y-23188841D01*
G37*
X732800Y-23188841D02*
X894725Y-23192395D01*
X1056650Y-23195950D01*
X1064268Y-23342000D01*
X770900Y-23342000D01*
X770900Y-23442768D01*
X1056650Y-23449950D01*
X1064268Y-23596000D01*
X720100Y-23596000D01*
X720100Y-23710300D01*
X1202700Y-23710300D01*
X1202700Y-23075300D01*
X732800Y-23075300D01*
X732800Y-23188841D01*
G36*
X1694825Y-23077776D02*
G01*
X1616692Y-23080892D01*
X1558668Y-23085067D01*
X1515464Y-23091002D01*
X1481792Y-23099400D01*
X1455530Y-23109524D01*
X1395281Y-23147298D01*
X1355627Y-23198612D01*
X1335008Y-23265769D01*
X1332113Y-23291842D01*
X1336356Y-23369741D01*
X1361351Y-23433132D01*
X1407035Y-23481857D01*
X1413547Y-23486469D01*
X1455664Y-23515088D01*
X1386510Y-23612694D01*
X1317357Y-23710300D01*
X1396554Y-23709758D01*
X1475750Y-23709217D01*
X1536736Y-23620217D01*
X1597722Y-23531218D01*
X1729750Y-23538850D01*
X1733506Y-23624575D01*
X1737261Y-23710300D01*
X1875800Y-23710300D01*
X1875800Y-23202300D01*
X1736100Y-23202300D01*
X1736100Y-23418200D01*
X1640016Y-23418200D01*
X1590233Y-23416638D01*
X1548333Y-23412521D01*
X1522607Y-23406700D01*
X1521107Y-23405985D01*
X1495861Y-23380519D01*
X1478224Y-23341252D01*
X1472564Y-23299576D01*
X1474635Y-23284773D01*
X1489270Y-23246848D01*
X1513474Y-23222085D01*
X1551800Y-23208136D01*
X1608797Y-23202653D01*
X1634500Y-23202300D01*
X1736100Y-23202300D01*
X1875800Y-23202300D01*
X1875800Y-23072100D01*
X1694825Y-23077776D01*
G37*
X1694825Y-23077776D02*
X1616692Y-23080892D01*
X1558668Y-23085067D01*
X1515464Y-23091002D01*
X1481792Y-23099400D01*
X1455530Y-23109524D01*
X1395281Y-23147298D01*
X1355627Y-23198612D01*
X1335008Y-23265769D01*
X1332113Y-23291842D01*
X1336356Y-23369741D01*
X1361351Y-23433132D01*
X1407035Y-23481857D01*
X1413547Y-23486469D01*
X1455664Y-23515088D01*
X1386510Y-23612694D01*
X1317357Y-23710300D01*
X1396554Y-23709758D01*
X1475750Y-23709217D01*
X1536736Y-23620217D01*
X1597722Y-23531218D01*
X1729750Y-23538850D01*
X1733506Y-23624575D01*
X1737261Y-23710300D01*
X1875800Y-23710300D01*
X1875800Y-23202300D01*
X1736100Y-23202300D01*
X1736100Y-23418200D01*
X1640016Y-23418200D01*
X1590233Y-23416638D01*
X1548333Y-23412521D01*
X1522607Y-23406700D01*
X1521107Y-23405985D01*
X1495861Y-23380519D01*
X1478224Y-23341252D01*
X1472564Y-23299576D01*
X1474635Y-23284773D01*
X1489270Y-23246848D01*
X1513474Y-23222085D01*
X1551800Y-23208136D01*
X1608797Y-23202653D01*
X1634500Y-23202300D01*
X1736100Y-23202300D01*
X1875800Y-23202300D01*
X1875800Y-23072100D01*
X1694825Y-23077776D01*
G36*
X2669550Y-23195950D02*
G01*
X2866400Y-23203368D01*
X2866400Y-23710300D01*
X3018800Y-23710300D01*
X3018800Y-23203368D01*
X3215650Y-23195950D01*
X3215650Y-23081650D01*
X2669550Y-23081650D01*
X2669550Y-23195950D01*
G37*
X2669550Y-23195950D02*
X2866400Y-23203368D01*
X2866400Y-23710300D01*
X3018800Y-23710300D01*
X3018800Y-23203368D01*
X3215650Y-23195950D01*
X3215650Y-23081650D01*
X2669550Y-23081650D01*
X2669550Y-23195950D01*
G36*
X3540794Y-23077905D02*
G01*
X3470207Y-23081650D01*
X3333404Y-23385154D01*
X3296731Y-23466912D01*
X3263771Y-23541155D01*
X3235902Y-23604715D01*
X3214503Y-23654426D01*
X3200952Y-23687122D01*
X3196600Y-23699479D01*
X3208092Y-23705380D01*
X3237761Y-23709310D01*
X3267154Y-23710300D01*
X3337708Y-23710300D01*
X3364098Y-23646800D01*
X3390487Y-23583300D01*
X3693308Y-23583300D01*
X3719698Y-23646800D01*
X3746087Y-23710300D01*
X3893847Y-23710300D01*
X3830161Y-23567425D01*
X3800017Y-23499706D01*
X3781403Y-23457815D01*
X3637247Y-23457815D01*
X3629220Y-23464463D01*
X3606860Y-23467805D01*
X3565588Y-23468928D01*
X3541854Y-23469000D01*
X3439891Y-23469000D01*
X3484436Y-23357875D01*
X3504762Y-23308489D01*
X3522346Y-23268168D01*
X3534620Y-23242690D01*
X3538080Y-23237195D01*
X3546436Y-23243989D01*
X3561706Y-23271075D01*
X3582213Y-23314842D01*
X3606277Y-23371682D01*
X3632221Y-23437982D01*
X3635519Y-23446775D01*
X3637247Y-23457815D01*
X3781403Y-23457815D01*
X3763963Y-23418568D01*
X3726356Y-23333824D01*
X3691554Y-23255287D01*
X3688928Y-23249355D01*
X3611380Y-23074161D01*
X3540794Y-23077905D01*
G37*
X3540794Y-23077905D02*
X3470207Y-23081650D01*
X3333404Y-23385154D01*
X3296731Y-23466912D01*
X3263771Y-23541155D01*
X3235902Y-23604715D01*
X3214503Y-23654426D01*
X3200952Y-23687122D01*
X3196600Y-23699479D01*
X3208092Y-23705380D01*
X3237761Y-23709310D01*
X3267154Y-23710300D01*
X3337708Y-23710300D01*
X3364098Y-23646800D01*
X3390487Y-23583300D01*
X3693308Y-23583300D01*
X3719698Y-23646800D01*
X3746087Y-23710300D01*
X3893847Y-23710300D01*
X3830161Y-23567425D01*
X3800017Y-23499706D01*
X3781403Y-23457815D01*
X3637247Y-23457815D01*
X3629220Y-23464463D01*
X3606860Y-23467805D01*
X3565588Y-23468928D01*
X3541854Y-23469000D01*
X3439891Y-23469000D01*
X3484436Y-23357875D01*
X3504762Y-23308489D01*
X3522346Y-23268168D01*
X3534620Y-23242690D01*
X3538080Y-23237195D01*
X3546436Y-23243989D01*
X3561706Y-23271075D01*
X3582213Y-23314842D01*
X3606277Y-23371682D01*
X3632221Y-23437982D01*
X3635519Y-23446775D01*
X3637247Y-23457815D01*
X3781403Y-23457815D01*
X3763963Y-23418568D01*
X3726356Y-23333824D01*
X3691554Y-23255287D01*
X3688928Y-23249355D01*
X3611380Y-23074161D01*
X3540794Y-23077905D01*
G36*
X4298325Y-23078153D02*
G01*
X4210197Y-23082399D01*
X4142928Y-23088916D01*
X4092004Y-23098911D01*
X4052906Y-23113592D01*
X4021117Y-23134167D01*
X3994333Y-23159460D01*
X3952531Y-23220848D01*
X3933773Y-23287710D01*
X3937757Y-23355521D01*
X3964179Y-23419750D01*
X4012737Y-23475870D01*
X4015648Y-23478306D01*
X4063152Y-23517462D01*
X4006492Y-23598006D01*
X3971357Y-23647917D01*
X3950214Y-23680367D01*
X3943065Y-23699091D01*
X3949914Y-23707830D01*
X3970764Y-23710320D01*
X4005617Y-23710300D01*
X4081455Y-23710300D01*
X4142750Y-23621400D01*
X4204046Y-23532500D01*
X4339600Y-23532500D01*
X4339600Y-23710300D01*
X4479300Y-23710300D01*
X4479300Y-23202300D01*
X4339600Y-23202300D01*
X4339600Y-23418200D01*
X4245059Y-23418200D01*
X4192991Y-23416988D01*
X4158571Y-23412193D01*
X4134113Y-23402077D01*
X4116789Y-23389188D01*
X4092061Y-23359682D01*
X4083360Y-23322200D01*
X4083060Y-23310250D01*
X4088624Y-23268860D01*
X4108889Y-23238549D01*
X4116789Y-23231311D01*
X4138811Y-23215766D01*
X4164726Y-23206914D01*
X4202220Y-23203017D01*
X4245059Y-23202300D01*
X4339600Y-23202300D01*
X4479300Y-23202300D01*
X4479300Y-23071797D01*
X4298325Y-23078153D01*
G37*
X4298325Y-23078153D02*
X4210197Y-23082399D01*
X4142928Y-23088916D01*
X4092004Y-23098911D01*
X4052906Y-23113592D01*
X4021117Y-23134167D01*
X3994333Y-23159460D01*
X3952531Y-23220848D01*
X3933773Y-23287710D01*
X3937757Y-23355521D01*
X3964179Y-23419750D01*
X4012737Y-23475870D01*
X4015648Y-23478306D01*
X4063152Y-23517462D01*
X4006492Y-23598006D01*
X3971357Y-23647917D01*
X3950214Y-23680367D01*
X3943065Y-23699091D01*
X3949914Y-23707830D01*
X3970764Y-23710320D01*
X4005617Y-23710300D01*
X4081455Y-23710300D01*
X4142750Y-23621400D01*
X4204046Y-23532500D01*
X4339600Y-23532500D01*
X4339600Y-23710300D01*
X4479300Y-23710300D01*
X4479300Y-23202300D01*
X4339600Y-23202300D01*
X4339600Y-23418200D01*
X4245059Y-23418200D01*
X4192991Y-23416988D01*
X4158571Y-23412193D01*
X4134113Y-23402077D01*
X4116789Y-23389188D01*
X4092061Y-23359682D01*
X4083360Y-23322200D01*
X4083060Y-23310250D01*
X4088624Y-23268860D01*
X4108889Y-23238549D01*
X4116789Y-23231311D01*
X4138811Y-23215766D01*
X4164726Y-23206914D01*
X4202220Y-23203017D01*
X4245059Y-23202300D01*
X4339600Y-23202300D01*
X4479300Y-23202300D01*
X4479300Y-23071797D01*
X4298325Y-23078153D01*
G36*
X4619000Y-23189600D02*
G01*
X4949200Y-23189600D01*
X4949200Y-23342000D01*
X4657100Y-23342000D01*
X4657100Y-23443600D01*
X4949200Y-23443600D01*
X4949200Y-23596000D01*
X4606300Y-23596000D01*
X4606300Y-23710300D01*
X5102044Y-23710300D01*
X5095250Y-23081650D01*
X4857125Y-23078194D01*
X4619000Y-23074739D01*
X4619000Y-23189600D01*
G37*
X4619000Y-23189600D02*
X4949200Y-23189600D01*
X4949200Y-23342000D01*
X4657100Y-23342000D01*
X4657100Y-23443600D01*
X4949200Y-23443600D01*
X4949200Y-23596000D01*
X4606300Y-23596000D01*
X4606300Y-23710300D01*
X5102044Y-23710300D01*
X5095250Y-23081650D01*
X4857125Y-23078194D01*
X4619000Y-23074739D01*
X4619000Y-23189600D01*
G36*
X5568325Y-23077976D02*
G01*
X5491868Y-23081168D01*
X5435734Y-23085185D01*
X5394845Y-23090734D01*
X5364126Y-23098521D01*
X5338497Y-23109253D01*
X5336550Y-23110241D01*
X5269803Y-23155734D01*
X5226051Y-23211933D01*
X5205176Y-23279017D01*
X5203200Y-23310250D01*
X5213692Y-23383105D01*
X5245250Y-23442176D01*
X5298002Y-23487565D01*
X5372074Y-23519371D01*
X5467592Y-23537694D01*
X5493657Y-23540091D01*
X5609600Y-23548844D01*
X5609600Y-23710300D01*
X5749300Y-23710300D01*
X5749300Y-23202300D01*
X5609600Y-23202300D01*
X5609600Y-23418200D01*
X5516063Y-23418200D01*
X5462279Y-23416666D01*
X5426151Y-23411013D01*
X5400064Y-23399663D01*
X5389063Y-23391878D01*
X5366474Y-23368260D01*
X5356950Y-23338183D01*
X5355600Y-23310250D01*
X5361613Y-23263939D01*
X5381587Y-23232014D01*
X5418427Y-23212519D01*
X5475036Y-23203501D01*
X5516063Y-23202300D01*
X5609600Y-23202300D01*
X5749300Y-23202300D01*
X5749300Y-23071797D01*
X5568325Y-23077976D01*
G37*
X5568325Y-23077976D02*
X5491868Y-23081168D01*
X5435734Y-23085185D01*
X5394845Y-23090734D01*
X5364126Y-23098521D01*
X5338497Y-23109253D01*
X5336550Y-23110241D01*
X5269803Y-23155734D01*
X5226051Y-23211933D01*
X5205176Y-23279017D01*
X5203200Y-23310250D01*
X5213692Y-23383105D01*
X5245250Y-23442176D01*
X5298002Y-23487565D01*
X5372074Y-23519371D01*
X5467592Y-23537694D01*
X5493657Y-23540091D01*
X5609600Y-23548844D01*
X5609600Y-23710300D01*
X5749300Y-23710300D01*
X5749300Y-23202300D01*
X5609600Y-23202300D01*
X5609600Y-23418200D01*
X5516063Y-23418200D01*
X5462279Y-23416666D01*
X5426151Y-23411013D01*
X5400064Y-23399663D01*
X5389063Y-23391878D01*
X5366474Y-23368260D01*
X5356950Y-23338183D01*
X5355600Y-23310250D01*
X5361613Y-23263939D01*
X5381587Y-23232014D01*
X5418427Y-23212519D01*
X5475036Y-23203501D01*
X5516063Y-23202300D01*
X5609600Y-23202300D01*
X5749300Y-23202300D01*
X5749300Y-23071797D01*
X5568325Y-23077976D01*
G36*
X6506594Y-23081650D02*
G01*
X6394774Y-23265038D01*
X6357098Y-23326431D01*
X6323513Y-23380412D01*
X6296439Y-23423152D01*
X6278294Y-23450821D01*
X6272034Y-23459346D01*
X6262348Y-23452565D01*
X6242154Y-23426831D01*
X6213577Y-23385224D01*
X6178741Y-23330827D01*
X6143378Y-23272783D01*
X6025643Y-23075300D01*
X5914400Y-23075300D01*
X5914400Y-23710300D01*
X6040721Y-23710300D01*
X6044236Y-23522975D01*
X6047750Y-23335650D01*
X6141460Y-23491225D01*
X6185396Y-23563001D01*
X6219801Y-23612994D01*
X6248023Y-23641315D01*
X6273406Y-23648075D01*
X6299297Y-23633384D01*
X6329041Y-23597355D01*
X6365986Y-23540097D01*
X6390650Y-23499492D01*
X6479550Y-23352272D01*
X6486598Y-23710300D01*
X6625600Y-23710300D01*
X6625600Y-23073908D01*
X6506594Y-23081650D01*
G37*
X6506594Y-23081650D02*
X6394774Y-23265038D01*
X6357098Y-23326431D01*
X6323513Y-23380412D01*
X6296439Y-23423152D01*
X6278294Y-23450821D01*
X6272034Y-23459346D01*
X6262348Y-23452565D01*
X6242154Y-23426831D01*
X6213577Y-23385224D01*
X6178741Y-23330827D01*
X6143378Y-23272783D01*
X6025643Y-23075300D01*
X5914400Y-23075300D01*
X5914400Y-23710300D01*
X6040721Y-23710300D01*
X6044236Y-23522975D01*
X6047750Y-23335650D01*
X6141460Y-23491225D01*
X6185396Y-23563001D01*
X6219801Y-23612994D01*
X6248023Y-23641315D01*
X6273406Y-23648075D01*
X6299297Y-23633384D01*
X6329041Y-23597355D01*
X6365986Y-23540097D01*
X6390650Y-23499492D01*
X6479550Y-23352272D01*
X6486598Y-23710300D01*
X6625600Y-23710300D01*
X6625600Y-23073908D01*
X6506594Y-23081650D01*
G36*
X6765300Y-23188841D02*
G01*
X6927225Y-23192395D01*
X7089150Y-23195950D01*
X7096768Y-23342000D01*
X6803400Y-23342000D01*
X6803400Y-23442768D01*
X7089150Y-23449950D01*
X7096768Y-23596000D01*
X6752600Y-23596000D01*
X6752600Y-23710300D01*
X7235200Y-23710300D01*
X7235200Y-23075300D01*
X6765300Y-23075300D01*
X6765300Y-23188841D01*
G37*
X6765300Y-23188841D02*
X6927225Y-23192395D01*
X7089150Y-23195950D01*
X7096768Y-23342000D01*
X6803400Y-23342000D01*
X6803400Y-23442768D01*
X7089150Y-23449950D01*
X7096768Y-23596000D01*
X6752600Y-23596000D01*
X6752600Y-23710300D01*
X7235200Y-23710300D01*
X7235200Y-23075300D01*
X6765300Y-23075300D01*
X6765300Y-23188841D01*
G36*
X7324100Y-23202300D02*
G01*
X7527300Y-23202300D01*
X7527300Y-23710300D01*
X7667000Y-23710300D01*
X7667000Y-23202300D01*
X7870200Y-23202300D01*
X7870200Y-23075300D01*
X7324100Y-23075300D01*
X7324100Y-23202300D01*
G37*
X7324100Y-23202300D02*
X7527300Y-23202300D01*
X7527300Y-23710300D01*
X7667000Y-23710300D01*
X7667000Y-23202300D01*
X7870200Y-23202300D01*
X7870200Y-23075300D01*
X7324100Y-23075300D01*
X7324100Y-23202300D01*
G36*
X2459930Y-23262625D02*
G01*
X2459055Y-23333103D01*
X2456701Y-23398147D01*
X2453193Y-23451780D01*
X2448858Y-23488027D01*
X2447249Y-23495343D01*
X2420746Y-23549463D01*
X2378973Y-23586099D01*
X2326811Y-23602841D01*
X2269144Y-23597279D01*
X2252610Y-23591370D01*
X2224134Y-23577015D01*
X2202770Y-23558607D01*
X2187526Y-23532561D01*
X2177409Y-23495297D01*
X2171427Y-23443233D01*
X2168589Y-23372785D01*
X2167900Y-23285480D01*
X2167900Y-23075300D01*
X2028200Y-23075300D01*
X2028479Y-23300725D01*
X2028937Y-23385174D01*
X2030317Y-23448546D01*
X2032992Y-23495154D01*
X2037331Y-23529315D01*
X2043705Y-23555344D01*
X2052204Y-23576950D01*
X2094543Y-23642581D01*
X2152125Y-23688372D01*
X2225564Y-23714667D01*
X2310368Y-23721908D01*
X2358955Y-23719664D01*
X2402122Y-23714988D01*
X2424550Y-23710447D01*
X2487567Y-23679085D01*
X2540852Y-23628535D01*
X2565034Y-23591755D01*
X2575218Y-23570722D01*
X2582768Y-23548430D01*
X2588176Y-23520572D01*
X2591932Y-23482841D01*
X2594528Y-23430932D01*
X2596455Y-23360538D01*
X2597505Y-23307075D01*
X2601718Y-23075300D01*
X2460000Y-23075300D01*
X2459930Y-23262625D01*
G37*
X2459930Y-23262625D02*
X2459055Y-23333103D01*
X2456701Y-23398147D01*
X2453193Y-23451780D01*
X2448858Y-23488027D01*
X2447249Y-23495343D01*
X2420746Y-23549463D01*
X2378973Y-23586099D01*
X2326811Y-23602841D01*
X2269144Y-23597279D01*
X2252610Y-23591370D01*
X2224134Y-23577015D01*
X2202770Y-23558607D01*
X2187526Y-23532561D01*
X2177409Y-23495297D01*
X2171427Y-23443233D01*
X2168589Y-23372785D01*
X2167900Y-23285480D01*
X2167900Y-23075300D01*
X2028200Y-23075300D01*
X2028479Y-23300725D01*
X2028937Y-23385174D01*
X2030317Y-23448546D01*
X2032992Y-23495154D01*
X2037331Y-23529315D01*
X2043705Y-23555344D01*
X2052204Y-23576950D01*
X2094543Y-23642581D01*
X2152125Y-23688372D01*
X2225564Y-23714667D01*
X2310368Y-23721908D01*
X2358955Y-23719664D01*
X2402122Y-23714988D01*
X2424550Y-23710447D01*
X2487567Y-23679085D01*
X2540852Y-23628535D01*
X2565034Y-23591755D01*
X2575218Y-23570722D01*
X2582768Y-23548430D01*
X2588176Y-23520572D01*
X2591932Y-23482841D01*
X2594528Y-23430932D01*
X2596455Y-23360538D01*
X2597505Y-23307075D01*
X2601718Y-23075300D01*
X2460000Y-23075300D01*
X2459930Y-23262625D01*
G36*
X1062651Y-24306918D02*
G01*
X1031221Y-24359406D01*
X1004252Y-24402910D01*
X984379Y-24433288D01*
X974237Y-24446397D01*
X973751Y-24446618D01*
X965158Y-24436425D01*
X946477Y-24408368D01*
X920341Y-24366569D01*
X889382Y-24315149D01*
X884851Y-24307481D01*
X802650Y-24168062D01*
X657466Y-24167500D01*
X784033Y-24377768D01*
X910600Y-24588037D01*
X910600Y-24802500D01*
X1050300Y-24802500D01*
X1050372Y-24691375D01*
X1050443Y-24580250D01*
X1164600Y-24389750D01*
X1205730Y-24321655D01*
X1235832Y-24273437D01*
X1256546Y-24242955D01*
X1269510Y-24228069D01*
X1276362Y-24226638D01*
X1278741Y-24236522D01*
X1278829Y-24240525D01*
X1278900Y-24281800D01*
X1482100Y-24281800D01*
X1482100Y-24802500D01*
X1634500Y-24802500D01*
X1634500Y-24281800D01*
X1837700Y-24281800D01*
X1837700Y-24167500D01*
X1144851Y-24167500D01*
X1062651Y-24306918D01*
G37*
X1062651Y-24306918D02*
X1031221Y-24359406D01*
X1004252Y-24402910D01*
X984379Y-24433288D01*
X974237Y-24446397D01*
X973751Y-24446618D01*
X965158Y-24436425D01*
X946477Y-24408368D01*
X920341Y-24366569D01*
X889382Y-24315149D01*
X884851Y-24307481D01*
X802650Y-24168062D01*
X657466Y-24167500D01*
X784033Y-24377768D01*
X910600Y-24588037D01*
X910600Y-24802500D01*
X1050300Y-24802500D01*
X1050372Y-24691375D01*
X1050443Y-24580250D01*
X1164600Y-24389750D01*
X1205730Y-24321655D01*
X1235832Y-24273437D01*
X1256546Y-24242955D01*
X1269510Y-24228069D01*
X1276362Y-24226638D01*
X1278741Y-24236522D01*
X1278829Y-24240525D01*
X1278900Y-24281800D01*
X1482100Y-24281800D01*
X1482100Y-24802500D01*
X1634500Y-24802500D01*
X1634500Y-24281800D01*
X1837700Y-24281800D01*
X1837700Y-24167500D01*
X1144851Y-24167500D01*
X1062651Y-24306918D01*
G36*
X1913900Y-24802500D02*
G01*
X2053600Y-24802500D01*
X2053600Y-24167500D01*
X1913900Y-24167500D01*
X1913900Y-24802500D01*
G37*
X1913900Y-24802500D02*
X2053600Y-24802500D01*
X2053600Y-24167500D01*
X1913900Y-24167500D01*
X1913900Y-24802500D01*
G36*
X2615575Y-24170415D02*
G01*
X2526417Y-24173724D01*
X2457822Y-24178889D01*
X2404962Y-24187214D01*
X2363008Y-24200005D01*
X2327128Y-24218569D01*
X2292495Y-24244210D01*
X2269960Y-24263846D01*
X2221307Y-24320582D01*
X2192418Y-24386875D01*
X2181828Y-24466822D01*
X2182626Y-24508074D01*
X2196927Y-24595033D01*
X2230065Y-24665984D01*
X2283643Y-24723575D01*
X2333000Y-24756702D01*
X2359734Y-24771382D01*
X2383047Y-24781969D01*
X2407840Y-24789238D01*
X2439008Y-24793963D01*
X2481450Y-24796922D01*
X2540063Y-24798887D01*
X2609225Y-24800417D01*
X2815600Y-24804685D01*
X2815600Y-24538409D01*
X2673936Y-24538409D01*
X2673849Y-24596649D01*
X2672899Y-24641415D01*
X2671155Y-24667687D01*
X2670314Y-24671740D01*
X2653783Y-24682704D01*
X2619117Y-24688457D01*
X2572987Y-24689264D01*
X2522058Y-24685390D01*
X2473001Y-24677102D01*
X2432482Y-24664664D01*
X2426674Y-24662036D01*
X2377150Y-24625027D01*
X2342461Y-24572928D01*
X2324204Y-24512208D01*
X2323978Y-24449334D01*
X2343378Y-24390776D01*
X2355157Y-24372424D01*
X2392432Y-24333020D01*
X2437800Y-24307505D01*
X2496840Y-24293681D01*
X2566027Y-24289425D01*
X2669550Y-24288150D01*
X2673090Y-24471715D01*
X2673936Y-24538409D01*
X2815600Y-24538409D01*
X2815600Y-24164838D01*
X2615575Y-24170415D01*
G37*
X2615575Y-24170415D02*
X2526417Y-24173724D01*
X2457822Y-24178889D01*
X2404962Y-24187214D01*
X2363008Y-24200005D01*
X2327128Y-24218569D01*
X2292495Y-24244210D01*
X2269960Y-24263846D01*
X2221307Y-24320582D01*
X2192418Y-24386875D01*
X2181828Y-24466822D01*
X2182626Y-24508074D01*
X2196927Y-24595033D01*
X2230065Y-24665984D01*
X2283643Y-24723575D01*
X2333000Y-24756702D01*
X2359734Y-24771382D01*
X2383047Y-24781969D01*
X2407840Y-24789238D01*
X2439008Y-24793963D01*
X2481450Y-24796922D01*
X2540063Y-24798887D01*
X2609225Y-24800417D01*
X2815600Y-24804685D01*
X2815600Y-24538409D01*
X2673936Y-24538409D01*
X2673849Y-24596649D01*
X2672899Y-24641415D01*
X2671155Y-24667687D01*
X2670314Y-24671740D01*
X2653783Y-24682704D01*
X2619117Y-24688457D01*
X2572987Y-24689264D01*
X2522058Y-24685390D01*
X2473001Y-24677102D01*
X2432482Y-24664664D01*
X2426674Y-24662036D01*
X2377150Y-24625027D01*
X2342461Y-24572928D01*
X2324204Y-24512208D01*
X2323978Y-24449334D01*
X2343378Y-24390776D01*
X2355157Y-24372424D01*
X2392432Y-24333020D01*
X2437800Y-24307505D01*
X2496840Y-24293681D01*
X2566027Y-24289425D01*
X2669550Y-24288150D01*
X2673090Y-24471715D01*
X2673936Y-24538409D01*
X2815600Y-24538409D01*
X2815600Y-24164838D01*
X2615575Y-24170415D01*
G36*
X2968000Y-24802500D02*
G01*
X3107700Y-24802500D01*
X3107700Y-24167500D01*
X2968000Y-24167500D01*
X2968000Y-24802500D01*
G37*
X2968000Y-24802500D02*
X3107700Y-24802500D01*
X3107700Y-24167500D01*
X2968000Y-24167500D01*
X2968000Y-24802500D01*
G36*
X3272800Y-24802500D02*
G01*
X3399800Y-24802500D01*
X3399800Y-24617600D01*
X3400509Y-24553038D01*
X3402459Y-24499243D01*
X3405387Y-24460453D01*
X3409031Y-24440908D01*
X3410842Y-24439524D01*
X3421108Y-24452444D01*
X3441452Y-24483022D01*
X3469136Y-24526985D01*
X3501425Y-24580062D01*
X3508955Y-24592674D01*
X3550857Y-24661779D01*
X3583689Y-24709158D01*
X3610878Y-24734774D01*
X3635851Y-24738593D01*
X3662035Y-24720577D01*
X3692856Y-24680692D01*
X3731740Y-24618900D01*
X3749050Y-24590157D01*
X3837950Y-24442043D01*
X3841474Y-24622271D01*
X3844998Y-24802500D01*
X3984000Y-24802500D01*
X3984000Y-24167500D01*
X3923675Y-24167799D01*
X3863350Y-24168099D01*
X3750554Y-24358583D01*
X3713287Y-24420966D01*
X3680119Y-24475451D01*
X3653331Y-24518374D01*
X3635203Y-24546071D01*
X3628377Y-24554864D01*
X3619261Y-24546361D01*
X3599664Y-24519201D01*
X3571789Y-24476733D01*
X3537841Y-24422308D01*
X3502858Y-24364080D01*
X3386718Y-24167500D01*
X3272800Y-24167500D01*
X3272800Y-24802500D01*
G37*
X3272800Y-24802500D02*
X3399800Y-24802500D01*
X3399800Y-24617600D01*
X3400509Y-24553038D01*
X3402459Y-24499243D01*
X3405387Y-24460453D01*
X3409031Y-24440908D01*
X3410842Y-24439524D01*
X3421108Y-24452444D01*
X3441452Y-24483022D01*
X3469136Y-24526985D01*
X3501425Y-24580062D01*
X3508955Y-24592674D01*
X3550857Y-24661779D01*
X3583689Y-24709158D01*
X3610878Y-24734774D01*
X3635851Y-24738593D01*
X3662035Y-24720577D01*
X3692856Y-24680692D01*
X3731740Y-24618900D01*
X3749050Y-24590157D01*
X3837950Y-24442043D01*
X3841474Y-24622271D01*
X3844998Y-24802500D01*
X3984000Y-24802500D01*
X3984000Y-24167500D01*
X3923675Y-24167799D01*
X3863350Y-24168099D01*
X3750554Y-24358583D01*
X3713287Y-24420966D01*
X3680119Y-24475451D01*
X3653331Y-24518374D01*
X3635203Y-24546071D01*
X3628377Y-24554864D01*
X3619261Y-24546361D01*
X3599664Y-24519201D01*
X3571789Y-24476733D01*
X3537841Y-24422308D01*
X3502858Y-24364080D01*
X3386718Y-24167500D01*
X3272800Y-24167500D01*
X3272800Y-24802500D01*
G36*
X5292100Y-24421500D02*
G01*
X5000000Y-24421500D01*
X5000000Y-24167500D01*
X4860300Y-24167500D01*
X4860300Y-24802500D01*
X5000000Y-24802500D01*
X5000000Y-24548500D01*
X5292100Y-24548500D01*
X5292100Y-24802500D01*
X5444500Y-24802500D01*
X5444500Y-24167500D01*
X5292100Y-24167500D01*
X5292100Y-24421500D01*
G37*
X5292100Y-24421500D02*
X5000000Y-24421500D01*
X5000000Y-24167500D01*
X4860300Y-24167500D01*
X4860300Y-24802500D01*
X5000000Y-24802500D01*
X5000000Y-24548500D01*
X5292100Y-24548500D01*
X5292100Y-24802500D01*
X5444500Y-24802500D01*
X5444500Y-24167500D01*
X5292100Y-24167500D01*
X5292100Y-24421500D01*
G36*
X4568130Y-24354825D02*
G01*
X4567222Y-24425486D01*
X4564779Y-24490890D01*
X4561139Y-24544999D01*
X4556639Y-24581778D01*
X4554992Y-24589197D01*
X4529234Y-24641451D01*
X4486916Y-24674672D01*
X4429246Y-24687976D01*
X4419603Y-24688200D01*
X4374918Y-24685575D01*
X4340424Y-24675832D01*
X4314851Y-24656162D01*
X4296927Y-24623758D01*
X4285384Y-24575815D01*
X4278950Y-24509524D01*
X4276355Y-24422080D01*
X4276100Y-24371107D01*
X4276100Y-24167500D01*
X4134421Y-24167500D01*
X4138586Y-24407745D01*
X4142750Y-24647991D01*
X4180850Y-24701889D01*
X4214413Y-24739975D01*
X4254319Y-24772760D01*
X4269750Y-24782062D01*
X4325112Y-24801122D01*
X4393309Y-24811064D01*
X4463228Y-24811223D01*
X4523752Y-24800937D01*
X4533160Y-24797788D01*
X4593808Y-24770192D01*
X4636624Y-24736781D01*
X4669175Y-24691435D01*
X4672783Y-24684839D01*
X4683115Y-24663608D01*
X4690770Y-24641387D01*
X4696246Y-24613854D01*
X4700041Y-24576690D01*
X4702654Y-24525574D01*
X4704583Y-24456186D01*
X4705705Y-24399275D01*
X4709918Y-24167500D01*
X4568200Y-24167500D01*
X4568130Y-24354825D01*
G37*
X4568130Y-24354825D02*
X4567222Y-24425486D01*
X4564779Y-24490890D01*
X4561139Y-24544999D01*
X4556639Y-24581778D01*
X4554992Y-24589197D01*
X4529234Y-24641451D01*
X4486916Y-24674672D01*
X4429246Y-24687976D01*
X4419603Y-24688200D01*
X4374918Y-24685575D01*
X4340424Y-24675832D01*
X4314851Y-24656162D01*
X4296927Y-24623758D01*
X4285384Y-24575815D01*
X4278950Y-24509524D01*
X4276355Y-24422080D01*
X4276100Y-24371107D01*
X4276100Y-24167500D01*
X4134421Y-24167500D01*
X4138586Y-24407745D01*
X4142750Y-24647991D01*
X4180850Y-24701889D01*
X4214413Y-24739975D01*
X4254319Y-24772760D01*
X4269750Y-24782062D01*
X4325112Y-24801122D01*
X4393309Y-24811064D01*
X4463228Y-24811223D01*
X4523752Y-24800937D01*
X4533160Y-24797788D01*
X4593808Y-24770192D01*
X4636624Y-24736781D01*
X4669175Y-24691435D01*
X4672783Y-24684839D01*
X4683115Y-24663608D01*
X4690770Y-24641387D01*
X4696246Y-24613854D01*
X4700041Y-24576690D01*
X4702654Y-24525574D01*
X4704583Y-24456186D01*
X4705705Y-24399275D01*
X4709918Y-24167500D01*
X4568200Y-24167500D01*
X4568130Y-24354825D01*
G36*
X6063788Y-24175598D02*
G01*
X6007247Y-24199509D01*
X5970252Y-24238752D01*
X5953485Y-24292798D01*
X5952500Y-24312202D01*
X5955163Y-24342964D01*
X5966118Y-24368689D01*
X5989820Y-24397391D01*
X6012080Y-24419440D01*
X6071659Y-24476527D01*
X6016969Y-24525060D01*
X5985836Y-24550231D01*
X5961757Y-24565242D01*
X5952017Y-24567251D01*
X5942241Y-24551432D01*
X5933419Y-24522954D01*
X5924759Y-24496371D01*
X5915461Y-24485005D01*
X5915287Y-24485000D01*
X5898600Y-24488681D01*
X5869466Y-24497354D01*
X5838993Y-24507458D01*
X5818290Y-24515433D01*
X5815529Y-24516965D01*
X5817710Y-24529288D01*
X5826995Y-24558617D01*
X5839533Y-24593596D01*
X5867159Y-24667433D01*
X5796807Y-24723529D01*
X5868191Y-24812991D01*
X5909364Y-24781587D01*
X5950538Y-24750182D01*
X6005494Y-24778244D01*
X6065055Y-24799274D01*
X6135785Y-24810373D01*
X6206984Y-24810769D01*
X6267952Y-24799693D01*
X6274016Y-24797577D01*
X6334380Y-24766484D01*
X6375489Y-24723588D01*
X6392768Y-24690910D01*
X6403704Y-24634691D01*
X6399217Y-24616334D01*
X6270000Y-24616334D01*
X6259112Y-24657618D01*
X6229692Y-24687488D01*
X6186608Y-24704413D01*
X6134726Y-24706860D01*
X6078915Y-24693297D01*
X6057132Y-24683337D01*
X6043943Y-24675282D01*
X6040234Y-24666428D01*
X6048405Y-24652817D01*
X6070859Y-24630491D01*
X6109997Y-24595492D01*
X6110932Y-24594666D01*
X6193967Y-24521312D01*
X6231984Y-24559329D01*
X6255792Y-24587349D01*
X6269032Y-24611112D01*
X6270000Y-24616334D01*
X6399217Y-24616334D01*
X6389841Y-24577984D01*
X6351723Y-24521970D01*
X6289970Y-24467886D01*
X6274392Y-24454794D01*
X6273855Y-24442215D01*
X6288778Y-24420694D01*
X6292267Y-24416249D01*
X6322307Y-24361172D01*
X6326347Y-24312744D01*
X6206500Y-24312744D01*
X6198959Y-24335722D01*
X6180980Y-24361231D01*
X6159531Y-24381527D01*
X6141580Y-24388865D01*
X6138809Y-24387981D01*
X6118962Y-24373765D01*
X6095375Y-24353896D01*
X6071157Y-24320514D01*
X6069927Y-24289517D01*
X6089643Y-24266350D01*
X6128265Y-24256455D01*
X6131933Y-24256400D01*
X6167552Y-24264885D01*
X6195338Y-24285910D01*
X6206500Y-24312744D01*
X6326347Y-24312744D01*
X6327058Y-24304230D01*
X6315935Y-24264343D01*
X6282304Y-24214334D01*
X6230753Y-24182285D01*
X6161374Y-24168244D01*
X6139195Y-24167547D01*
X6063788Y-24175598D01*
G37*
X6063788Y-24175598D02*
X6007247Y-24199509D01*
X5970252Y-24238752D01*
X5953485Y-24292798D01*
X5952500Y-24312202D01*
X5955163Y-24342964D01*
X5966118Y-24368689D01*
X5989820Y-24397391D01*
X6012080Y-24419440D01*
X6071659Y-24476527D01*
X6016969Y-24525060D01*
X5985836Y-24550231D01*
X5961757Y-24565242D01*
X5952017Y-24567251D01*
X5942241Y-24551432D01*
X5933419Y-24522954D01*
X5924759Y-24496371D01*
X5915461Y-24485005D01*
X5915287Y-24485000D01*
X5898600Y-24488681D01*
X5869466Y-24497354D01*
X5838993Y-24507458D01*
X5818290Y-24515433D01*
X5815529Y-24516965D01*
X5817710Y-24529288D01*
X5826995Y-24558617D01*
X5839533Y-24593596D01*
X5867159Y-24667433D01*
X5796807Y-24723529D01*
X5868191Y-24812991D01*
X5909364Y-24781587D01*
X5950538Y-24750182D01*
X6005494Y-24778244D01*
X6065055Y-24799274D01*
X6135785Y-24810373D01*
X6206984Y-24810769D01*
X6267952Y-24799693D01*
X6274016Y-24797577D01*
X6334380Y-24766484D01*
X6375489Y-24723588D01*
X6392768Y-24690910D01*
X6403704Y-24634691D01*
X6399217Y-24616334D01*
X6270000Y-24616334D01*
X6259112Y-24657618D01*
X6229692Y-24687488D01*
X6186608Y-24704413D01*
X6134726Y-24706860D01*
X6078915Y-24693297D01*
X6057132Y-24683337D01*
X6043943Y-24675282D01*
X6040234Y-24666428D01*
X6048405Y-24652817D01*
X6070859Y-24630491D01*
X6109997Y-24595492D01*
X6110932Y-24594666D01*
X6193967Y-24521312D01*
X6231984Y-24559329D01*
X6255792Y-24587349D01*
X6269032Y-24611112D01*
X6270000Y-24616334D01*
X6399217Y-24616334D01*
X6389841Y-24577984D01*
X6351723Y-24521970D01*
X6289970Y-24467886D01*
X6274392Y-24454794D01*
X6273855Y-24442215D01*
X6288778Y-24420694D01*
X6292267Y-24416249D01*
X6322307Y-24361172D01*
X6326347Y-24312744D01*
X6206500Y-24312744D01*
X6198959Y-24335722D01*
X6180980Y-24361231D01*
X6159531Y-24381527D01*
X6141580Y-24388865D01*
X6138809Y-24387981D01*
X6118962Y-24373765D01*
X6095375Y-24353896D01*
X6071157Y-24320514D01*
X6069927Y-24289517D01*
X6089643Y-24266350D01*
X6128265Y-24256455D01*
X6131933Y-24256400D01*
X6167552Y-24264885D01*
X6195338Y-24285910D01*
X6206500Y-24312744D01*
X6326347Y-24312744D01*
X6327058Y-24304230D01*
X6315935Y-24264343D01*
X6282304Y-24214334D01*
X6230753Y-24182285D01*
X6161374Y-24168244D01*
X6139195Y-24167547D01*
X6063788Y-24175598D01*
G36*
X-5789375Y-17723984D02*
G01*
X-5876717Y-17727712D01*
X-5943351Y-17733779D01*
X-5993944Y-17743409D01*
X-6033165Y-17757827D01*
X-6065681Y-17778255D01*
X-6094187Y-17803916D01*
X-6132774Y-17860412D01*
X-6150628Y-17929390D01*
X-6148597Y-17996361D01*
X-6138976Y-18037661D01*
X-6120664Y-18071247D01*
X-6087772Y-18107541D01*
X-6083387Y-18111786D01*
X-6027343Y-18165622D01*
X-6070121Y-18226086D01*
X-6098239Y-18266439D01*
X-6123809Y-18304145D01*
X-6135160Y-18321475D01*
X-6157421Y-18356400D01*
X-6006245Y-18356400D01*
X-5944950Y-18267500D01*
X-5883654Y-18178600D01*
X-5748100Y-18178600D01*
X-5748100Y-18356400D01*
X-5608400Y-18356400D01*
X-5608400Y-18064300D01*
X-5747111Y-18064300D01*
X-5841142Y-18064300D01*
X-5894755Y-18062825D01*
X-5930761Y-18057332D01*
X-5956840Y-18046211D01*
X-5969275Y-18037476D01*
X-5990786Y-18016571D01*
X-5999635Y-17992529D01*
X-5999666Y-17954626D01*
X-5999562Y-17953029D01*
X-5990025Y-17905005D01*
X-5966805Y-17872244D01*
X-5926798Y-17852600D01*
X-5866898Y-17843925D01*
X-5840626Y-17843082D01*
X-5754450Y-17842050D01*
X-5750780Y-17953175D01*
X-5747111Y-18064300D01*
X-5608400Y-18064300D01*
X-5608400Y-17718575D01*
X-5789375Y-17723984D01*
G37*
X-5789375Y-17723984D02*
X-5876717Y-17727712D01*
X-5943351Y-17733779D01*
X-5993944Y-17743409D01*
X-6033165Y-17757827D01*
X-6065681Y-17778255D01*
X-6094187Y-17803916D01*
X-6132774Y-17860412D01*
X-6150628Y-17929390D01*
X-6148597Y-17996361D01*
X-6138976Y-18037661D01*
X-6120664Y-18071247D01*
X-6087772Y-18107541D01*
X-6083387Y-18111786D01*
X-6027343Y-18165622D01*
X-6070121Y-18226086D01*
X-6098239Y-18266439D01*
X-6123809Y-18304145D01*
X-6135160Y-18321475D01*
X-6157421Y-18356400D01*
X-6006245Y-18356400D01*
X-5944950Y-18267500D01*
X-5883654Y-18178600D01*
X-5748100Y-18178600D01*
X-5748100Y-18356400D01*
X-5608400Y-18356400D01*
X-5608400Y-18064300D01*
X-5747111Y-18064300D01*
X-5841142Y-18064300D01*
X-5894755Y-18062825D01*
X-5930761Y-18057332D01*
X-5956840Y-18046211D01*
X-5969275Y-18037476D01*
X-5990786Y-18016571D01*
X-5999635Y-17992529D01*
X-5999666Y-17954626D01*
X-5999562Y-17953029D01*
X-5990025Y-17905005D01*
X-5966805Y-17872244D01*
X-5926798Y-17852600D01*
X-5866898Y-17843925D01*
X-5840626Y-17843082D01*
X-5754450Y-17842050D01*
X-5750780Y-17953175D01*
X-5747111Y-18064300D01*
X-5608400Y-18064300D01*
X-5608400Y-17718575D01*
X-5789375Y-17723984D01*
G36*
X-5468700Y-17835700D02*
G01*
X-5138500Y-17835700D01*
X-5138500Y-17988100D01*
X-5430600Y-17988100D01*
X-5430600Y-18089700D01*
X-5138500Y-18089700D01*
X-5138500Y-18242100D01*
X-5481400Y-18242100D01*
X-5481400Y-18356400D01*
X-4985656Y-18356400D01*
X-4992450Y-17727750D01*
X-5230575Y-17724294D01*
X-5468700Y-17720839D01*
X-5468700Y-17835700D01*
G37*
X-5468700Y-17835700D02*
X-5138500Y-17835700D01*
X-5138500Y-17988100D01*
X-5430600Y-17988100D01*
X-5430600Y-18089700D01*
X-5138500Y-18089700D01*
X-5138500Y-18242100D01*
X-5481400Y-18242100D01*
X-5481400Y-18356400D01*
X-4985656Y-18356400D01*
X-4992450Y-17727750D01*
X-5230575Y-17724294D01*
X-5468700Y-17720839D01*
X-5468700Y-17835700D01*
G36*
X-4909900Y-17835700D02*
G01*
X-4706700Y-17835700D01*
X-4706700Y-18356400D01*
X-4554300Y-18356400D01*
X-4554300Y-17835700D01*
X-4349639Y-17835700D01*
X-4353544Y-17781725D01*
X-4357450Y-17727750D01*
X-4909900Y-17720904D01*
X-4909900Y-17835700D01*
G37*
X-4909900Y-17835700D02*
X-4706700Y-17835700D01*
X-4706700Y-18356400D01*
X-4554300Y-18356400D01*
X-4554300Y-17835700D01*
X-4349639Y-17835700D01*
X-4353544Y-17781725D01*
X-4357450Y-17727750D01*
X-4909900Y-17720904D01*
X-4909900Y-17835700D01*
G36*
X-4287600Y-17835700D02*
G01*
X-3956132Y-17835700D01*
X-3963750Y-17981750D01*
X-4106625Y-17985340D01*
X-4249500Y-17988931D01*
X-4249500Y-18089700D01*
X-3957400Y-18089700D01*
X-3957400Y-18242100D01*
X-4300300Y-18242100D01*
X-4300300Y-18356400D01*
X-3817700Y-18356400D01*
X-3817700Y-17721400D01*
X-4287600Y-17721400D01*
X-4287600Y-17835700D01*
G37*
X-4287600Y-17835700D02*
X-3956132Y-17835700D01*
X-3963750Y-17981750D01*
X-4106625Y-17985340D01*
X-4249500Y-17988931D01*
X-4249500Y-18089700D01*
X-3957400Y-18089700D01*
X-3957400Y-18242100D01*
X-4300300Y-18242100D01*
X-4300300Y-18356400D01*
X-3817700Y-18356400D01*
X-3817700Y-17721400D01*
X-4287600Y-17721400D01*
X-4287600Y-17835700D01*
G36*
X-3180261Y-17918250D02*
G01*
X-3218246Y-17981091D01*
X-3251766Y-18035636D01*
X-3278660Y-18078440D01*
X-3296767Y-18106059D01*
X-3303830Y-18115100D01*
X-3311721Y-18104713D01*
X-3330289Y-18075863D01*
X-3357389Y-18032013D01*
X-3390878Y-17976628D01*
X-3425616Y-17918250D01*
X-3541914Y-17721400D01*
X-3648634Y-17721400D01*
X-3656967Y-17913919D01*
X-3660068Y-17994593D01*
X-3662645Y-18078844D01*
X-3664461Y-18157590D01*
X-3665277Y-18221752D01*
X-3665300Y-18231419D01*
X-3665300Y-18356400D01*
X-3526279Y-18356400D01*
X-3522764Y-18169075D01*
X-3519250Y-17981750D01*
X-3426341Y-18138088D01*
X-3383642Y-18208789D01*
X-3350087Y-18258002D01*
X-3322309Y-18285681D01*
X-3296941Y-18291781D01*
X-3270615Y-18276259D01*
X-3239963Y-18239071D01*
X-3201619Y-18180171D01*
X-3173744Y-18134759D01*
X-3081100Y-17982968D01*
X-3081100Y-18356400D01*
X-2941400Y-18356400D01*
X-2941400Y-17721400D01*
X-3062180Y-17721400D01*
X-3180261Y-17918250D01*
G37*
X-3180261Y-17918250D02*
X-3218246Y-17981091D01*
X-3251766Y-18035636D01*
X-3278660Y-18078440D01*
X-3296767Y-18106059D01*
X-3303830Y-18115100D01*
X-3311721Y-18104713D01*
X-3330289Y-18075863D01*
X-3357389Y-18032013D01*
X-3390878Y-17976628D01*
X-3425616Y-17918250D01*
X-3541914Y-17721400D01*
X-3648634Y-17721400D01*
X-3656967Y-17913919D01*
X-3660068Y-17994593D01*
X-3662645Y-18078844D01*
X-3664461Y-18157590D01*
X-3665277Y-18221752D01*
X-3665300Y-18231419D01*
X-3665300Y-18356400D01*
X-3526279Y-18356400D01*
X-3522764Y-18169075D01*
X-3519250Y-17981750D01*
X-3426341Y-18138088D01*
X-3383642Y-18208789D01*
X-3350087Y-18258002D01*
X-3322309Y-18285681D01*
X-3296941Y-18291781D01*
X-3270615Y-18276259D01*
X-3239963Y-18239071D01*
X-3201619Y-18180171D01*
X-3173744Y-18134759D01*
X-3081100Y-17982968D01*
X-3081100Y-18356400D01*
X-2941400Y-18356400D01*
X-2941400Y-17721400D01*
X-3062180Y-17721400D01*
X-3180261Y-17918250D01*
G36*
X-1687820Y-17723269D02*
G01*
X-1761358Y-17725543D01*
X-1814947Y-17728503D01*
X-1854037Y-17732976D01*
X-1884079Y-17739788D01*
X-1910523Y-17749768D01*
X-1932295Y-17760352D01*
X-1991293Y-17803344D01*
X-2031053Y-17858715D01*
X-2051059Y-17921704D01*
X-2050799Y-17987552D01*
X-2029758Y-18051498D01*
X-1987423Y-18108781D01*
X-1971460Y-18123162D01*
X-1925465Y-18161075D01*
X-1988932Y-18251159D01*
X-2017512Y-18292540D01*
X-2039411Y-18325806D01*
X-2051244Y-18345742D01*
X-2052400Y-18348821D01*
X-2040884Y-18352883D01*
X-2011064Y-18355608D01*
X-1979375Y-18356336D01*
X-1906350Y-18356272D01*
X-1784348Y-18178600D01*
X-1646000Y-18178600D01*
X-1646000Y-18356400D01*
X-1506300Y-18356400D01*
X-1506300Y-18064300D01*
X-1645011Y-18064300D01*
X-1739042Y-18064300D01*
X-1793568Y-18062694D01*
X-1830175Y-18056901D01*
X-1856196Y-18045454D01*
X-1865110Y-18039100D01*
X-1896029Y-18001145D01*
X-1907512Y-17956201D01*
X-1899976Y-17911426D01*
X-1873841Y-17873977D01*
X-1854670Y-17860629D01*
X-1826018Y-17851872D01*
X-1782075Y-17845497D01*
X-1738033Y-17843056D01*
X-1652350Y-17842050D01*
X-1648680Y-17953175D01*
X-1645011Y-18064300D01*
X-1506300Y-18064300D01*
X-1506300Y-17718575D01*
X-1687820Y-17723269D01*
G37*
X-1687820Y-17723269D02*
X-1761358Y-17725543D01*
X-1814947Y-17728503D01*
X-1854037Y-17732976D01*
X-1884079Y-17739788D01*
X-1910523Y-17749768D01*
X-1932295Y-17760352D01*
X-1991293Y-17803344D01*
X-2031053Y-17858715D01*
X-2051059Y-17921704D01*
X-2050799Y-17987552D01*
X-2029758Y-18051498D01*
X-1987423Y-18108781D01*
X-1971460Y-18123162D01*
X-1925465Y-18161075D01*
X-1988932Y-18251159D01*
X-2017512Y-18292540D01*
X-2039411Y-18325806D01*
X-2051244Y-18345742D01*
X-2052400Y-18348821D01*
X-2040884Y-18352883D01*
X-2011064Y-18355608D01*
X-1979375Y-18356336D01*
X-1906350Y-18356272D01*
X-1784348Y-18178600D01*
X-1646000Y-18178600D01*
X-1646000Y-18356400D01*
X-1506300Y-18356400D01*
X-1506300Y-18064300D01*
X-1645011Y-18064300D01*
X-1739042Y-18064300D01*
X-1793568Y-18062694D01*
X-1830175Y-18056901D01*
X-1856196Y-18045454D01*
X-1865110Y-18039100D01*
X-1896029Y-18001145D01*
X-1907512Y-17956201D01*
X-1899976Y-17911426D01*
X-1873841Y-17873977D01*
X-1854670Y-17860629D01*
X-1826018Y-17851872D01*
X-1782075Y-17845497D01*
X-1738033Y-17843056D01*
X-1652350Y-17842050D01*
X-1648680Y-17953175D01*
X-1645011Y-18064300D01*
X-1506300Y-18064300D01*
X-1506300Y-17718575D01*
X-1687820Y-17723269D01*
G36*
X-1366600Y-17835700D02*
G01*
X-1035132Y-17835700D01*
X-1042750Y-17981750D01*
X-1185625Y-17985340D01*
X-1328500Y-17988931D01*
X-1328500Y-18089700D01*
X-1036400Y-18089700D01*
X-1036400Y-18242100D01*
X-1379300Y-18242100D01*
X-1379300Y-18356400D01*
X-896700Y-18356400D01*
X-896700Y-17721400D01*
X-1366600Y-17721400D01*
X-1366600Y-17835700D01*
G37*
X-1366600Y-17835700D02*
X-1035132Y-17835700D01*
X-1042750Y-17981750D01*
X-1185625Y-17985340D01*
X-1328500Y-17988931D01*
X-1328500Y-18089700D01*
X-1036400Y-18089700D01*
X-1036400Y-18242100D01*
X-1379300Y-18242100D01*
X-1379300Y-18356400D01*
X-896700Y-18356400D01*
X-896700Y-17721400D01*
X-1366600Y-17721400D01*
X-1366600Y-17835700D01*
G36*
X-483950Y-17727750D02*
G01*
X-487387Y-17984925D01*
X-490825Y-18242100D01*
X-807800Y-18242100D01*
X-807800Y-18356400D01*
X-337900Y-18356400D01*
X-337900Y-17720132D01*
X-483950Y-17727750D01*
G37*
X-483950Y-17727750D02*
X-487387Y-17984925D01*
X-490825Y-18242100D01*
X-807800Y-18242100D01*
X-807800Y-18356400D01*
X-337900Y-18356400D01*
X-337900Y-17720132D01*
X-483950Y-17727750D01*
G36*
X-210900Y-17834962D02*
G01*
X125650Y-17842050D01*
X125650Y-17981750D01*
X-172800Y-17988906D01*
X-172800Y-18088893D01*
X-23575Y-18092471D01*
X125650Y-18096050D01*
X133268Y-18242100D01*
X-223600Y-18242100D01*
X-223600Y-18356400D01*
X271700Y-18356400D01*
X271700Y-17721400D01*
X-210900Y-17721400D01*
X-210900Y-17834962D01*
G37*
X-210900Y-17834962D02*
X125650Y-17842050D01*
X125650Y-17981750D01*
X-172800Y-17988906D01*
X-172800Y-18088893D01*
X-23575Y-18092471D01*
X125650Y-18096050D01*
X133268Y-18242100D01*
X-223600Y-18242100D01*
X-223600Y-18356400D01*
X271700Y-18356400D01*
X271700Y-17721400D01*
X-210900Y-17721400D01*
X-210900Y-17834962D01*
G36*
X1843444Y-17940475D02*
G01*
X1809105Y-18017914D01*
X1774726Y-18095135D01*
X1743022Y-18166058D01*
X1716711Y-18224601D01*
X1701581Y-18257975D01*
X1656642Y-18356400D01*
X1806539Y-18356400D01*
X1838709Y-18286129D01*
X1870880Y-18215858D01*
X2157650Y-18223050D01*
X2219654Y-18356400D01*
X2364572Y-18356400D01*
X2255174Y-18110221D01*
X2113200Y-18110221D01*
X2101503Y-18112487D01*
X2070418Y-18114193D01*
X2025956Y-18115051D01*
X2011600Y-18115100D01*
X1964414Y-18114690D01*
X1928883Y-18113600D01*
X1911019Y-18112042D01*
X1910000Y-18111539D01*
X1914657Y-18098432D01*
X1926834Y-18068381D01*
X1943840Y-18027699D01*
X1962984Y-17982701D01*
X1981575Y-17939699D01*
X1996923Y-17905006D01*
X2006337Y-17884937D01*
X2007387Y-17883042D01*
X2014250Y-17889906D01*
X2028239Y-17914468D01*
X2046684Y-17950989D01*
X2066912Y-17993732D01*
X2086251Y-18036961D01*
X2102029Y-18074939D01*
X2111573Y-18101929D01*
X2113200Y-18110221D01*
X2255174Y-18110221D01*
X2082388Y-17721400D01*
X1940367Y-17721400D01*
X1843444Y-17940475D01*
G37*
X1843444Y-17940475D02*
X1809105Y-18017914D01*
X1774726Y-18095135D01*
X1743022Y-18166058D01*
X1716711Y-18224601D01*
X1701581Y-18257975D01*
X1656642Y-18356400D01*
X1806539Y-18356400D01*
X1838709Y-18286129D01*
X1870880Y-18215858D01*
X2157650Y-18223050D01*
X2219654Y-18356400D01*
X2364572Y-18356400D01*
X2255174Y-18110221D01*
X2113200Y-18110221D01*
X2101503Y-18112487D01*
X2070418Y-18114193D01*
X2025956Y-18115051D01*
X2011600Y-18115100D01*
X1964414Y-18114690D01*
X1928883Y-18113600D01*
X1911019Y-18112042D01*
X1910000Y-18111539D01*
X1914657Y-18098432D01*
X1926834Y-18068381D01*
X1943840Y-18027699D01*
X1962984Y-17982701D01*
X1981575Y-17939699D01*
X1996923Y-17905006D01*
X2006337Y-17884937D01*
X2007387Y-17883042D01*
X2014250Y-17889906D01*
X2028239Y-17914468D01*
X2046684Y-17950989D01*
X2066912Y-17993732D01*
X2086251Y-18036961D01*
X2102029Y-18074939D01*
X2111573Y-18101929D01*
X2113200Y-18110221D01*
X2255174Y-18110221D01*
X2082388Y-17721400D01*
X1940367Y-17721400D01*
X1843444Y-17940475D01*
G36*
X-2597927Y-17734832D02*
G01*
X-2674571Y-17767658D01*
X-2738799Y-17818397D01*
X-2742648Y-17822567D01*
X-2790833Y-17892804D01*
X-2818653Y-17970881D01*
X-2826608Y-18052211D01*
X-2815197Y-18132210D01*
X-2784920Y-18206293D01*
X-2736277Y-18269875D01*
X-2689900Y-18306744D01*
X-2646927Y-18330947D01*
X-2604022Y-18350405D01*
X-2586238Y-18356487D01*
X-2523483Y-18366352D01*
X-2450916Y-18366538D01*
X-2381718Y-18357486D01*
X-2349393Y-18348562D01*
X-2284708Y-18314983D01*
X-2224706Y-18264960D01*
X-2178294Y-18206402D01*
X-2167816Y-18187256D01*
X-2146089Y-18117728D01*
X-2143148Y-18075329D01*
X-2284699Y-18075329D01*
X-2304374Y-18137988D01*
X-2340747Y-18188943D01*
X-2390071Y-18225598D01*
X-2448598Y-18245357D01*
X-2512580Y-18245622D01*
X-2578268Y-18223797D01*
X-2592150Y-18216031D01*
X-2640080Y-18173272D01*
X-2670746Y-18116669D01*
X-2682591Y-18052339D01*
X-2674060Y-17986400D01*
X-2659641Y-17950743D01*
X-2623297Y-17894879D01*
X-2581110Y-17860730D01*
X-2527132Y-17844608D01*
X-2484200Y-17842050D01*
X-2430608Y-17845446D01*
X-2392792Y-17857055D01*
X-2374791Y-17868234D01*
X-2320727Y-17921026D01*
X-2290457Y-17981329D01*
X-2285471Y-18003563D01*
X-2284699Y-18075329D01*
X-2143148Y-18075329D01*
X-2140635Y-18039103D01*
X-2150553Y-17959401D01*
X-2174946Y-17886640D01*
X-2207278Y-17835183D01*
X-2269367Y-17780250D01*
X-2344585Y-17742628D01*
X-2427824Y-17722437D01*
X-2513975Y-17719799D01*
X-2597927Y-17734832D01*
G37*
X-2597927Y-17734832D02*
X-2674571Y-17767658D01*
X-2738799Y-17818397D01*
X-2742648Y-17822567D01*
X-2790833Y-17892804D01*
X-2818653Y-17970881D01*
X-2826608Y-18052211D01*
X-2815197Y-18132210D01*
X-2784920Y-18206293D01*
X-2736277Y-18269875D01*
X-2689900Y-18306744D01*
X-2646927Y-18330947D01*
X-2604022Y-18350405D01*
X-2586238Y-18356487D01*
X-2523483Y-18366352D01*
X-2450916Y-18366538D01*
X-2381718Y-18357486D01*
X-2349393Y-18348562D01*
X-2284708Y-18314983D01*
X-2224706Y-18264960D01*
X-2178294Y-18206402D01*
X-2167816Y-18187256D01*
X-2146089Y-18117728D01*
X-2143148Y-18075329D01*
X-2284699Y-18075329D01*
X-2304374Y-18137988D01*
X-2340747Y-18188943D01*
X-2390071Y-18225598D01*
X-2448598Y-18245357D01*
X-2512580Y-18245622D01*
X-2578268Y-18223797D01*
X-2592150Y-18216031D01*
X-2640080Y-18173272D01*
X-2670746Y-18116669D01*
X-2682591Y-18052339D01*
X-2674060Y-17986400D01*
X-2659641Y-17950743D01*
X-2623297Y-17894879D01*
X-2581110Y-17860730D01*
X-2527132Y-17844608D01*
X-2484200Y-17842050D01*
X-2430608Y-17845446D01*
X-2392792Y-17857055D01*
X-2374791Y-17868234D01*
X-2320727Y-17921026D01*
X-2290457Y-17981329D01*
X-2285471Y-18003563D01*
X-2284699Y-18075329D01*
X-2143148Y-18075329D01*
X-2140635Y-18039103D01*
X-2150553Y-17959401D01*
X-2174946Y-17886640D01*
X-2207278Y-17835183D01*
X-2269367Y-17780250D01*
X-2344585Y-17742628D01*
X-2427824Y-17722437D01*
X-2513975Y-17719799D01*
X-2597927Y-17734832D01*
G36*
X541979Y-17726843D02*
G01*
X467263Y-17752214D01*
X408526Y-17794012D01*
X373901Y-17827177D01*
X468445Y-17908903D01*
X503796Y-17879157D01*
X559364Y-17847663D01*
X621479Y-17837199D01*
X684578Y-17846469D01*
X743096Y-17874178D01*
X791466Y-17919030D01*
X811907Y-17950882D01*
X827225Y-18002016D01*
X829397Y-18062303D01*
X818799Y-18119799D01*
X805659Y-18149334D01*
X760807Y-18200386D01*
X703022Y-18232975D01*
X637778Y-18246146D01*
X570548Y-18238939D01*
X506806Y-18210397D01*
X496770Y-18203397D01*
X459230Y-18175643D01*
X414951Y-18219922D01*
X370672Y-18264202D01*
X414133Y-18297351D01*
X483128Y-18336274D01*
X564709Y-18360904D01*
X649795Y-18369581D01*
X729307Y-18360644D01*
X741683Y-18357233D01*
X820188Y-18321337D01*
X886095Y-18267533D01*
X936548Y-18200128D01*
X968692Y-18123428D01*
X979672Y-18041740D01*
X976695Y-18002747D01*
X951969Y-17912861D01*
X907677Y-17838116D01*
X845733Y-17780098D01*
X768048Y-17740393D01*
X676538Y-17720583D01*
X633650Y-17718577D01*
X541979Y-17726843D01*
G37*
X541979Y-17726843D02*
X467263Y-17752214D01*
X408526Y-17794012D01*
X373901Y-17827177D01*
X468445Y-17908903D01*
X503796Y-17879157D01*
X559364Y-17847663D01*
X621479Y-17837199D01*
X684578Y-17846469D01*
X743096Y-17874178D01*
X791466Y-17919030D01*
X811907Y-17950882D01*
X827225Y-18002016D01*
X829397Y-18062303D01*
X818799Y-18119799D01*
X805659Y-18149334D01*
X760807Y-18200386D01*
X703022Y-18232975D01*
X637778Y-18246146D01*
X570548Y-18238939D01*
X506806Y-18210397D01*
X496770Y-18203397D01*
X459230Y-18175643D01*
X414951Y-18219922D01*
X370672Y-18264202D01*
X414133Y-18297351D01*
X483128Y-18336274D01*
X564709Y-18360904D01*
X649795Y-18369581D01*
X729307Y-18360644D01*
X741683Y-18357233D01*
X820188Y-18321337D01*
X886095Y-18267533D01*
X936548Y-18200128D01*
X968692Y-18123428D01*
X979672Y-18041740D01*
X976695Y-18002747D01*
X951969Y-17912861D01*
X907677Y-17838116D01*
X845733Y-17780098D01*
X768048Y-17740393D01*
X676538Y-17720583D01*
X633650Y-17718577D01*
X541979Y-17726843D01*
G36*
X1237462Y-17721874D02*
G01*
X1155080Y-17741433D01*
X1129146Y-17752497D01*
X1078594Y-17778983D01*
X1049832Y-17800222D01*
X1040921Y-17820030D01*
X1049923Y-17842222D01*
X1071093Y-17866719D01*
X1112459Y-17909398D01*
X1156907Y-17879235D01*
X1224942Y-17845944D01*
X1293297Y-17836451D01*
X1358506Y-17850490D01*
X1417102Y-17887798D01*
X1429632Y-17900013D01*
X1471267Y-17959965D01*
X1488290Y-18025942D01*
X1480530Y-18097063D01*
X1472383Y-18121822D01*
X1438239Y-18178998D01*
X1388875Y-18219712D01*
X1329461Y-18242653D01*
X1265166Y-18246507D01*
X1201159Y-18229962D01*
X1155175Y-18202379D01*
X1120933Y-18175445D01*
X1080555Y-18211947D01*
X1054589Y-18235065D01*
X1037539Y-18249583D01*
X1034900Y-18251547D01*
X1036674Y-18262231D01*
X1054307Y-18281584D01*
X1082206Y-18304674D01*
X1114775Y-18326569D01*
X1128950Y-18334455D01*
X1182128Y-18352725D01*
X1249563Y-18363234D01*
X1321166Y-18365460D01*
X1386846Y-18358877D01*
X1421523Y-18349649D01*
X1498437Y-18308561D01*
X1559367Y-18250106D01*
X1602631Y-18177909D01*
X1626547Y-18095594D01*
X1629434Y-18006784D01*
X1615156Y-17932423D01*
X1590387Y-17881760D01*
X1548859Y-17829351D01*
X1497665Y-17782176D01*
X1443903Y-17747212D01*
X1414874Y-17735435D01*
X1327010Y-17719698D01*
X1237462Y-17721874D01*
G37*
X1237462Y-17721874D02*
X1155080Y-17741433D01*
X1129146Y-17752497D01*
X1078594Y-17778983D01*
X1049832Y-17800222D01*
X1040921Y-17820030D01*
X1049923Y-17842222D01*
X1071093Y-17866719D01*
X1112459Y-17909398D01*
X1156907Y-17879235D01*
X1224942Y-17845944D01*
X1293297Y-17836451D01*
X1358506Y-17850490D01*
X1417102Y-17887798D01*
X1429632Y-17900013D01*
X1471267Y-17959965D01*
X1488290Y-18025942D01*
X1480530Y-18097063D01*
X1472383Y-18121822D01*
X1438239Y-18178998D01*
X1388875Y-18219712D01*
X1329461Y-18242653D01*
X1265166Y-18246507D01*
X1201159Y-18229962D01*
X1155175Y-18202379D01*
X1120933Y-18175445D01*
X1080555Y-18211947D01*
X1054589Y-18235065D01*
X1037539Y-18249583D01*
X1034900Y-18251547D01*
X1036674Y-18262231D01*
X1054307Y-18281584D01*
X1082206Y-18304674D01*
X1114775Y-18326569D01*
X1128950Y-18334455D01*
X1182128Y-18352725D01*
X1249563Y-18363234D01*
X1321166Y-18365460D01*
X1386846Y-18358877D01*
X1421523Y-18349649D01*
X1498437Y-18308561D01*
X1559367Y-18250106D01*
X1602631Y-18177909D01*
X1626547Y-18095594D01*
X1629434Y-18006784D01*
X1615156Y-17932423D01*
X1590387Y-17881760D01*
X1548859Y-17829351D01*
X1497665Y-17782176D01*
X1443903Y-17747212D01*
X1414874Y-17735435D01*
X1327010Y-17719698D01*
X1237462Y-17721874D01*
G36*
X7257667Y-9490400D02*
G01*
X6935934Y-9490400D01*
X6935934Y-9219467D01*
X6783534Y-9219467D01*
X6783534Y-9913733D01*
X6935524Y-9913733D01*
X6937845Y-9771917D01*
X6940167Y-9630100D01*
X7098917Y-9627796D01*
X7257667Y-9625493D01*
X7257667Y-9913733D01*
X7418533Y-9913733D01*
X7418533Y-9219467D01*
X7257667Y-9219467D01*
X7257667Y-9490400D01*
G37*
X7257667Y-9490400D02*
X6935934Y-9490400D01*
X6935934Y-9219467D01*
X6783534Y-9219467D01*
X6783534Y-9913733D01*
X6935524Y-9913733D01*
X6937845Y-9771917D01*
X6940167Y-9630100D01*
X7098917Y-9627796D01*
X7257667Y-9625493D01*
X7257667Y-9913733D01*
X7418533Y-9913733D01*
X7418533Y-9219467D01*
X7257667Y-9219467D01*
X7257667Y-9490400D01*
G36*
X8294559Y-9559551D02*
G01*
X8262745Y-9630690D01*
X8233060Y-9697097D01*
X8206222Y-9757169D01*
X8182945Y-9809304D01*
X8163944Y-9851897D01*
X8149936Y-9883347D01*
X8141636Y-9902050D01*
X8139611Y-9906684D01*
X8146235Y-9909645D01*
X8166349Y-9911993D01*
X8196514Y-9913430D01*
X8220701Y-9913733D01*
X8304612Y-9913733D01*
X8365250Y-9765567D01*
X8691955Y-9765567D01*
X8722380Y-9837533D01*
X8752805Y-9909500D01*
X8834809Y-9911921D01*
X8872427Y-9912816D01*
X8895978Y-9912481D01*
X8908316Y-9910422D01*
X8912291Y-9906149D01*
X8910754Y-9899169D01*
X8910623Y-9898838D01*
X8905951Y-9888008D01*
X8895126Y-9863392D01*
X8878895Y-9826671D01*
X8858001Y-9779524D01*
X8833191Y-9723632D01*
X8805208Y-9660675D01*
X8793339Y-9633999D01*
X8635030Y-9633999D01*
X8631107Y-9638130D01*
X8619745Y-9640724D01*
X8598434Y-9642133D01*
X8564666Y-9642707D01*
X8527867Y-9642800D01*
X8486910Y-9642316D01*
X8453137Y-9640990D01*
X8429563Y-9639011D01*
X8419205Y-9636570D01*
X8419011Y-9635958D01*
X8423035Y-9626138D01*
X8432308Y-9603476D01*
X8445672Y-9570804D01*
X8461968Y-9530954D01*
X8472634Y-9504870D01*
X8490153Y-9462669D01*
X8505634Y-9426593D01*
X8517900Y-9399293D01*
X8525772Y-9383419D01*
X8527929Y-9380478D01*
X8532196Y-9387760D01*
X8541551Y-9407636D01*
X8554672Y-9437026D01*
X8570240Y-9472848D01*
X8586933Y-9512022D01*
X8603431Y-9551467D01*
X8618414Y-9588104D01*
X8630561Y-9618851D01*
X8634022Y-9627983D01*
X8635030Y-9633999D01*
X8793339Y-9633999D01*
X8774798Y-9592333D01*
X8756570Y-9551400D01*
X8608707Y-9219467D01*
X8527696Y-9219467D01*
X8446684Y-9219466D01*
X8294559Y-9559551D01*
G37*
X8294559Y-9559551D02*
X8262745Y-9630690D01*
X8233060Y-9697097D01*
X8206222Y-9757169D01*
X8182945Y-9809304D01*
X8163944Y-9851897D01*
X8149936Y-9883347D01*
X8141636Y-9902050D01*
X8139611Y-9906684D01*
X8146235Y-9909645D01*
X8166349Y-9911993D01*
X8196514Y-9913430D01*
X8220701Y-9913733D01*
X8304612Y-9913733D01*
X8365250Y-9765567D01*
X8691955Y-9765567D01*
X8722380Y-9837533D01*
X8752805Y-9909500D01*
X8834809Y-9911921D01*
X8872427Y-9912816D01*
X8895978Y-9912481D01*
X8908316Y-9910422D01*
X8912291Y-9906149D01*
X8910754Y-9899169D01*
X8910623Y-9898838D01*
X8905951Y-9888008D01*
X8895126Y-9863392D01*
X8878895Y-9826671D01*
X8858001Y-9779524D01*
X8833191Y-9723632D01*
X8805208Y-9660675D01*
X8793339Y-9633999D01*
X8635030Y-9633999D01*
X8631107Y-9638130D01*
X8619745Y-9640724D01*
X8598434Y-9642133D01*
X8564666Y-9642707D01*
X8527867Y-9642800D01*
X8486910Y-9642316D01*
X8453137Y-9640990D01*
X8429563Y-9639011D01*
X8419205Y-9636570D01*
X8419011Y-9635958D01*
X8423035Y-9626138D01*
X8432308Y-9603476D01*
X8445672Y-9570804D01*
X8461968Y-9530954D01*
X8472634Y-9504870D01*
X8490153Y-9462669D01*
X8505634Y-9426593D01*
X8517900Y-9399293D01*
X8525772Y-9383419D01*
X8527929Y-9380478D01*
X8532196Y-9387760D01*
X8541551Y-9407636D01*
X8554672Y-9437026D01*
X8570240Y-9472848D01*
X8586933Y-9512022D01*
X8603431Y-9551467D01*
X8618414Y-9588104D01*
X8630561Y-9618851D01*
X8634022Y-9627983D01*
X8635030Y-9633999D01*
X8793339Y-9633999D01*
X8774798Y-9592333D01*
X8756570Y-9551400D01*
X8608707Y-9219467D01*
X8527696Y-9219467D01*
X8446684Y-9219466D01*
X8294559Y-9559551D01*
G36*
X9281200Y-9786733D02*
G01*
X8925600Y-9786733D01*
X8925600Y-9913733D01*
X9442067Y-9913733D01*
X9442067Y-9219467D01*
X9281200Y-9219467D01*
X9281200Y-9786733D01*
G37*
X9281200Y-9786733D02*
X8925600Y-9786733D01*
X8925600Y-9913733D01*
X9442067Y-9913733D01*
X9442067Y-9219467D01*
X9281200Y-9219467D01*
X9281200Y-9786733D01*
G36*
X9552134Y-9346466D02*
G01*
X9916200Y-9346466D01*
X9916200Y-9532733D01*
X9594467Y-9532733D01*
X9594467Y-9659733D01*
X9916200Y-9659733D01*
X9916200Y-9913733D01*
X10077067Y-9913733D01*
X10077067Y-9219467D01*
X9552134Y-9219467D01*
X9552134Y-9346466D01*
G37*
X9552134Y-9346466D02*
X9916200Y-9346466D01*
X9916200Y-9532733D01*
X9594467Y-9532733D01*
X9594467Y-9659733D01*
X9916200Y-9659733D01*
X9916200Y-9913733D01*
X10077067Y-9913733D01*
X10077067Y-9219467D01*
X9552134Y-9219467D01*
X9552134Y-9346466D01*
G36*
X7744875Y-9209745D02*
G01*
X7695715Y-9216258D01*
X7649395Y-9228658D01*
X7603141Y-9246504D01*
X7563381Y-9263492D01*
X7580720Y-9307096D01*
X7592032Y-9335631D01*
X7601884Y-9360636D01*
X7605804Y-9370670D01*
X7614322Y-9384178D01*
X7623990Y-9382380D01*
X7655547Y-9364578D01*
X7697937Y-9350430D01*
X7746436Y-9340518D01*
X7796323Y-9335427D01*
X7842873Y-9335742D01*
X7881365Y-9342046D01*
X7897824Y-9348508D01*
X7922880Y-9369115D01*
X7937697Y-9396031D01*
X7939993Y-9424139D01*
X7936552Y-9435341D01*
X7925268Y-9451679D01*
X7906038Y-9465713D01*
X7876318Y-9478689D01*
X7833565Y-9491854D01*
X7807403Y-9498673D01*
X7738110Y-9517036D01*
X7683302Y-9534163D01*
X7640697Y-9551191D01*
X7608015Y-9569261D01*
X7582974Y-9589511D01*
X7563293Y-9613080D01*
X7556168Y-9624092D01*
X7543370Y-9652241D01*
X7537857Y-9685467D01*
X7537296Y-9706300D01*
X7544848Y-9765355D01*
X7566859Y-9815935D01*
X7602897Y-9857625D01*
X7652528Y-9890009D01*
X7715319Y-9912670D01*
X7761696Y-9921804D01*
X7800068Y-9926847D01*
X7829914Y-9928935D01*
X7858484Y-9928043D01*
X7893032Y-9924144D01*
X7913531Y-9921245D01*
X7981972Y-9907081D01*
X8044809Y-9886030D01*
X8096895Y-9859871D01*
X8103314Y-9855715D01*
X8108145Y-9848939D01*
X8107109Y-9836501D01*
X8099443Y-9815116D01*
X8087719Y-9788703D01*
X8060444Y-9729528D01*
X8025239Y-9748990D01*
X7975219Y-9771142D01*
X7919026Y-9787014D01*
X7861234Y-9796032D01*
X7806416Y-9797623D01*
X7759146Y-9791214D01*
X7739609Y-9784762D01*
X7711816Y-9766395D01*
X7696066Y-9742061D01*
X7694004Y-9715483D01*
X7701240Y-9698059D01*
X7712559Y-9683933D01*
X7727879Y-9671936D01*
X7749885Y-9660885D01*
X7781258Y-9649596D01*
X7824682Y-9636886D01*
X7863033Y-9626679D01*
X7906374Y-9614645D01*
X7947423Y-9601889D01*
X7981309Y-9590004D01*
X8001831Y-9581280D01*
X8046294Y-9549821D01*
X8077723Y-9508507D01*
X8095179Y-9459329D01*
X8097726Y-9404280D01*
X8094841Y-9383558D01*
X8076846Y-9328811D01*
X8045320Y-9284073D01*
X8000494Y-9249483D01*
X7942594Y-9225177D01*
X7871851Y-9211295D01*
X7803767Y-9207787D01*
X7744875Y-9209745D01*
G37*
X7744875Y-9209745D02*
X7695715Y-9216258D01*
X7649395Y-9228658D01*
X7603141Y-9246504D01*
X7563381Y-9263492D01*
X7580720Y-9307096D01*
X7592032Y-9335631D01*
X7601884Y-9360636D01*
X7605804Y-9370670D01*
X7614322Y-9384178D01*
X7623990Y-9382380D01*
X7655547Y-9364578D01*
X7697937Y-9350430D01*
X7746436Y-9340518D01*
X7796323Y-9335427D01*
X7842873Y-9335742D01*
X7881365Y-9342046D01*
X7897824Y-9348508D01*
X7922880Y-9369115D01*
X7937697Y-9396031D01*
X7939993Y-9424139D01*
X7936552Y-9435341D01*
X7925268Y-9451679D01*
X7906038Y-9465713D01*
X7876318Y-9478689D01*
X7833565Y-9491854D01*
X7807403Y-9498673D01*
X7738110Y-9517036D01*
X7683302Y-9534163D01*
X7640697Y-9551191D01*
X7608015Y-9569261D01*
X7582974Y-9589511D01*
X7563293Y-9613080D01*
X7556168Y-9624092D01*
X7543370Y-9652241D01*
X7537857Y-9685467D01*
X7537296Y-9706300D01*
X7544848Y-9765355D01*
X7566859Y-9815935D01*
X7602897Y-9857625D01*
X7652528Y-9890009D01*
X7715319Y-9912670D01*
X7761696Y-9921804D01*
X7800068Y-9926847D01*
X7829914Y-9928935D01*
X7858484Y-9928043D01*
X7893032Y-9924144D01*
X7913531Y-9921245D01*
X7981972Y-9907081D01*
X8044809Y-9886030D01*
X8096895Y-9859871D01*
X8103314Y-9855715D01*
X8108145Y-9848939D01*
X8107109Y-9836501D01*
X8099443Y-9815116D01*
X8087719Y-9788703D01*
X8060444Y-9729528D01*
X8025239Y-9748990D01*
X7975219Y-9771142D01*
X7919026Y-9787014D01*
X7861234Y-9796032D01*
X7806416Y-9797623D01*
X7759146Y-9791214D01*
X7739609Y-9784762D01*
X7711816Y-9766395D01*
X7696066Y-9742061D01*
X7694004Y-9715483D01*
X7701240Y-9698059D01*
X7712559Y-9683933D01*
X7727879Y-9671936D01*
X7749885Y-9660885D01*
X7781258Y-9649596D01*
X7824682Y-9636886D01*
X7863033Y-9626679D01*
X7906374Y-9614645D01*
X7947423Y-9601889D01*
X7981309Y-9590004D01*
X8001831Y-9581280D01*
X8046294Y-9549821D01*
X8077723Y-9508507D01*
X8095179Y-9459329D01*
X8097726Y-9404280D01*
X8094841Y-9383558D01*
X8076846Y-9328811D01*
X8045320Y-9284073D01*
X8000494Y-9249483D01*
X7942594Y-9225177D01*
X7871851Y-9211295D01*
X7803767Y-9207787D01*
X7744875Y-9209745D01*
G36*
X5754697Y-10569010D02*
G01*
X5727111Y-10614688D01*
X5702298Y-10654784D01*
X5681582Y-10687239D01*
X5666290Y-10709993D01*
X5657745Y-10720984D01*
X5656546Y-10721649D01*
X5650854Y-10713764D01*
X5637885Y-10693498D01*
X5618994Y-10663041D01*
X5595533Y-10624580D01*
X5568856Y-10580305D01*
X5560243Y-10565906D01*
X5469095Y-10413266D01*
X5393948Y-10413266D01*
X5360644Y-10413779D01*
X5334908Y-10415151D01*
X5320542Y-10417133D01*
X5318800Y-10418185D01*
X5322994Y-10426393D01*
X5334877Y-10447314D01*
X5353397Y-10479160D01*
X5377504Y-10520138D01*
X5406148Y-10568459D01*
X5438277Y-10622333D01*
X5454267Y-10649035D01*
X5589733Y-10874968D01*
X5589733Y-11116000D01*
X5742133Y-11116000D01*
X5742133Y-10871594D01*
X5877600Y-10646100D01*
X5911012Y-10590369D01*
X5941430Y-10539415D01*
X5967802Y-10495015D01*
X5989076Y-10458949D01*
X6004202Y-10432994D01*
X6012128Y-10418931D01*
X6013067Y-10416936D01*
X6005205Y-10415379D01*
X5984038Y-10414150D01*
X5953192Y-10413409D01*
X5930380Y-10413266D01*
X5847694Y-10413266D01*
X5754697Y-10569010D01*
G37*
X5754697Y-10569010D02*
X5727111Y-10614688D01*
X5702298Y-10654784D01*
X5681582Y-10687239D01*
X5666290Y-10709993D01*
X5657745Y-10720984D01*
X5656546Y-10721649D01*
X5650854Y-10713764D01*
X5637885Y-10693498D01*
X5618994Y-10663041D01*
X5595533Y-10624580D01*
X5568856Y-10580305D01*
X5560243Y-10565906D01*
X5469095Y-10413266D01*
X5393948Y-10413266D01*
X5360644Y-10413779D01*
X5334908Y-10415151D01*
X5320542Y-10417133D01*
X5318800Y-10418185D01*
X5322994Y-10426393D01*
X5334877Y-10447314D01*
X5353397Y-10479160D01*
X5377504Y-10520138D01*
X5406148Y-10568459D01*
X5438277Y-10622333D01*
X5454267Y-10649035D01*
X5589733Y-10874968D01*
X5589733Y-11116000D01*
X5742133Y-11116000D01*
X5742133Y-10871594D01*
X5877600Y-10646100D01*
X5911012Y-10590369D01*
X5941430Y-10539415D01*
X5967802Y-10495015D01*
X5989076Y-10458949D01*
X6004202Y-10432994D01*
X6012128Y-10418931D01*
X6013067Y-10416936D01*
X6005205Y-10415379D01*
X5984038Y-10414150D01*
X5953192Y-10413409D01*
X5930380Y-10413266D01*
X5847694Y-10413266D01*
X5754697Y-10569010D01*
G36*
X6489317Y-10413330D02*
G01*
X6402813Y-10414392D01*
X6331077Y-10417824D01*
X6272049Y-10424110D01*
X6223670Y-10433737D01*
X6183879Y-10447189D01*
X6150616Y-10464951D01*
X6121822Y-10487507D01*
X6105749Y-10503637D01*
X6074816Y-10542050D01*
X6055608Y-10579760D01*
X6045879Y-10622661D01*
X6043386Y-10667315D01*
X6048673Y-10729576D01*
X6066369Y-10782146D01*
X6097745Y-10827199D01*
X6144073Y-10866906D01*
X6169863Y-10883447D01*
X6174692Y-10888192D01*
X6174991Y-10895919D01*
X6169626Y-10908829D01*
X6157468Y-10929122D01*
X6137385Y-10959000D01*
X6113281Y-10993513D01*
X6087463Y-11030287D01*
X6064860Y-11062656D01*
X6047401Y-11087842D01*
X6037019Y-11103067D01*
X6035296Y-11105720D01*
X6035487Y-11110662D01*
X6044960Y-11113619D01*
X6066010Y-11114834D01*
X6100932Y-11114550D01*
X6115234Y-11114187D01*
X6201843Y-11111767D01*
X6267063Y-11018633D01*
X6332283Y-10925500D01*
X6409742Y-10923065D01*
X6487200Y-10920631D01*
X6487200Y-11116000D01*
X6648067Y-11116000D01*
X6648067Y-10796050D01*
X6487200Y-10796050D01*
X6387717Y-10793033D01*
X6342924Y-10791257D01*
X6311175Y-10788679D01*
X6288580Y-10784638D01*
X6271249Y-10778473D01*
X6257480Y-10770900D01*
X6226511Y-10742266D01*
X6208851Y-10703310D01*
X6204467Y-10660435D01*
X6212873Y-10618917D01*
X6236110Y-10585513D01*
X6267669Y-10563563D01*
X6285945Y-10556471D01*
X6309841Y-10551932D01*
X6343052Y-10549504D01*
X6389275Y-10548748D01*
X6391950Y-10548746D01*
X6487200Y-10548733D01*
X6487200Y-10796050D01*
X6648067Y-10796050D01*
X6648067Y-10413266D01*
X6489317Y-10413330D01*
G37*
X6489317Y-10413330D02*
X6402813Y-10414392D01*
X6331077Y-10417824D01*
X6272049Y-10424110D01*
X6223670Y-10433737D01*
X6183879Y-10447189D01*
X6150616Y-10464951D01*
X6121822Y-10487507D01*
X6105749Y-10503637D01*
X6074816Y-10542050D01*
X6055608Y-10579760D01*
X6045879Y-10622661D01*
X6043386Y-10667315D01*
X6048673Y-10729576D01*
X6066369Y-10782146D01*
X6097745Y-10827199D01*
X6144073Y-10866906D01*
X6169863Y-10883447D01*
X6174692Y-10888192D01*
X6174991Y-10895919D01*
X6169626Y-10908829D01*
X6157468Y-10929122D01*
X6137385Y-10959000D01*
X6113281Y-10993513D01*
X6087463Y-11030287D01*
X6064860Y-11062656D01*
X6047401Y-11087842D01*
X6037019Y-11103067D01*
X6035296Y-11105720D01*
X6035487Y-11110662D01*
X6044960Y-11113619D01*
X6066010Y-11114834D01*
X6100932Y-11114550D01*
X6115234Y-11114187D01*
X6201843Y-11111767D01*
X6267063Y-11018633D01*
X6332283Y-10925500D01*
X6409742Y-10923065D01*
X6487200Y-10920631D01*
X6487200Y-11116000D01*
X6648067Y-11116000D01*
X6648067Y-10796050D01*
X6487200Y-10796050D01*
X6387717Y-10793033D01*
X6342924Y-10791257D01*
X6311175Y-10788679D01*
X6288580Y-10784638D01*
X6271249Y-10778473D01*
X6257480Y-10770900D01*
X6226511Y-10742266D01*
X6208851Y-10703310D01*
X6204467Y-10660435D01*
X6212873Y-10618917D01*
X6236110Y-10585513D01*
X6267669Y-10563563D01*
X6285945Y-10556471D01*
X6309841Y-10551932D01*
X6343052Y-10549504D01*
X6389275Y-10548748D01*
X6391950Y-10548746D01*
X6487200Y-10548733D01*
X6487200Y-10796050D01*
X6648067Y-10796050D01*
X6648067Y-10413266D01*
X6489317Y-10413330D01*
G36*
X7664067Y-11116000D02*
G01*
X7808000Y-11116000D01*
X7808000Y-10906752D01*
X7808119Y-10841275D01*
X7808544Y-10791035D01*
X7809372Y-10754339D01*
X7810703Y-10729492D01*
X7812636Y-10714800D01*
X7815271Y-10708569D01*
X7818707Y-10709105D01*
X7819525Y-10709902D01*
X7827132Y-10720610D01*
X7841921Y-10743579D01*
X7862454Y-10776497D01*
X7887294Y-10817049D01*
X7915002Y-10862921D01*
X7925856Y-10881050D01*
X8020661Y-11039800D01*
X8093219Y-11039800D01*
X8194026Y-10873196D01*
X8294833Y-10706593D01*
X8297101Y-10911296D01*
X8299368Y-11116000D01*
X8451467Y-11116000D01*
X8451467Y-10413266D01*
X8318729Y-10413266D01*
X8188669Y-10629167D01*
X8155778Y-10683508D01*
X8125626Y-10732834D01*
X8099326Y-10775359D01*
X8077995Y-10809298D01*
X8062748Y-10832864D01*
X8054699Y-10844274D01*
X8053810Y-10845067D01*
X8048439Y-10838072D01*
X8035585Y-10818292D01*
X8016361Y-10787530D01*
X7991880Y-10747591D01*
X7963253Y-10700278D01*
X7931592Y-10647396D01*
X7922006Y-10631283D01*
X7795002Y-10417500D01*
X7729535Y-10415027D01*
X7664067Y-10412554D01*
X7664067Y-11116000D01*
G37*
X7664067Y-11116000D02*
X7808000Y-11116000D01*
X7808000Y-10906752D01*
X7808119Y-10841275D01*
X7808544Y-10791035D01*
X7809372Y-10754339D01*
X7810703Y-10729492D01*
X7812636Y-10714800D01*
X7815271Y-10708569D01*
X7818707Y-10709105D01*
X7819525Y-10709902D01*
X7827132Y-10720610D01*
X7841921Y-10743579D01*
X7862454Y-10776497D01*
X7887294Y-10817049D01*
X7915002Y-10862921D01*
X7925856Y-10881050D01*
X8020661Y-11039800D01*
X8093219Y-11039800D01*
X8194026Y-10873196D01*
X8294833Y-10706593D01*
X8297101Y-10911296D01*
X8299368Y-11116000D01*
X8451467Y-11116000D01*
X8451467Y-10413266D01*
X8318729Y-10413266D01*
X8188669Y-10629167D01*
X8155778Y-10683508D01*
X8125626Y-10732834D01*
X8099326Y-10775359D01*
X8077995Y-10809298D01*
X8062748Y-10832864D01*
X8054699Y-10844274D01*
X8053810Y-10845067D01*
X8048439Y-10838072D01*
X8035585Y-10818292D01*
X8016361Y-10787530D01*
X7991880Y-10747591D01*
X7963253Y-10700278D01*
X7931592Y-10647396D01*
X7922006Y-10631283D01*
X7795002Y-10417500D01*
X7729535Y-10415027D01*
X7664067Y-10412554D01*
X7664067Y-11116000D01*
G36*
X8595400Y-10540266D02*
G01*
X8959467Y-10540266D01*
X8959467Y-10701133D01*
X8637734Y-10701133D01*
X8637734Y-10819667D01*
X8959467Y-10819667D01*
X8959467Y-10989000D01*
X8578467Y-10989000D01*
X8578467Y-11116000D01*
X9120333Y-11116000D01*
X9120333Y-10413266D01*
X8595400Y-10413266D01*
X8595400Y-10540266D01*
G37*
X8595400Y-10540266D02*
X8959467Y-10540266D01*
X8959467Y-10701133D01*
X8637734Y-10701133D01*
X8637734Y-10819667D01*
X8959467Y-10819667D01*
X8959467Y-10989000D01*
X8578467Y-10989000D01*
X8578467Y-11116000D01*
X9120333Y-11116000D01*
X9120333Y-10413266D01*
X8595400Y-10413266D01*
X8595400Y-10540266D01*
G36*
X9289667Y-11116000D02*
G01*
X9441771Y-11116000D01*
X9444036Y-10907204D01*
X9446300Y-10698408D01*
X9547750Y-10869488D01*
X9649200Y-11040567D01*
X9724656Y-11035567D01*
X9822545Y-10872926D01*
X9851054Y-10825995D01*
X9876860Y-10784339D01*
X9898641Y-10750025D01*
X9915074Y-10725124D01*
X9924836Y-10711702D01*
X9926783Y-10709943D01*
X9928553Y-10717925D01*
X9930133Y-10740532D01*
X9931450Y-10775455D01*
X9932434Y-10820385D01*
X9933010Y-10873013D01*
X9933133Y-10912800D01*
X9933133Y-11116000D01*
X10077067Y-11116000D01*
X10077067Y-10413266D01*
X9945833Y-10413796D01*
X9818833Y-10626510D01*
X9786297Y-10680541D01*
X9756269Y-10729521D01*
X9729902Y-10771639D01*
X9708348Y-10805087D01*
X9692760Y-10828053D01*
X9684290Y-10838728D01*
X9683367Y-10839268D01*
X9677065Y-10832268D01*
X9663379Y-10812454D01*
X9643455Y-10781640D01*
X9618439Y-10741640D01*
X9589478Y-10694267D01*
X9557717Y-10641337D01*
X9548787Y-10626289D01*
X9422674Y-10413266D01*
X9289667Y-10413266D01*
X9289667Y-11116000D01*
G37*
X9289667Y-11116000D02*
X9441771Y-11116000D01*
X9444036Y-10907204D01*
X9446300Y-10698408D01*
X9547750Y-10869488D01*
X9649200Y-11040567D01*
X9724656Y-11035567D01*
X9822545Y-10872926D01*
X9851054Y-10825995D01*
X9876860Y-10784339D01*
X9898641Y-10750025D01*
X9915074Y-10725124D01*
X9924836Y-10711702D01*
X9926783Y-10709943D01*
X9928553Y-10717925D01*
X9930133Y-10740532D01*
X9931450Y-10775455D01*
X9932434Y-10820385D01*
X9933010Y-10873013D01*
X9933133Y-10912800D01*
X9933133Y-11116000D01*
X10077067Y-11116000D01*
X10077067Y-10413266D01*
X9945833Y-10413796D01*
X9818833Y-10626510D01*
X9786297Y-10680541D01*
X9756269Y-10729521D01*
X9729902Y-10771639D01*
X9708348Y-10805087D01*
X9692760Y-10828053D01*
X9684290Y-10838728D01*
X9683367Y-10839268D01*
X9677065Y-10832268D01*
X9663379Y-10812454D01*
X9643455Y-10781640D01*
X9618439Y-10741640D01*
X9589478Y-10694267D01*
X9557717Y-10641337D01*
X9548787Y-10626289D01*
X9422674Y-10413266D01*
X9289667Y-10413266D01*
X9289667Y-11116000D01*
G36*
X7069692Y-10412886D02*
G01*
X6995155Y-10435534D01*
X6927531Y-10472046D01*
X6869148Y-10520676D01*
X6822335Y-10579674D01*
X6804133Y-10612233D01*
X6793484Y-10635146D01*
X6786405Y-10654985D01*
X6782173Y-10676189D01*
X6780064Y-10703198D01*
X6779356Y-10740451D01*
X6779300Y-10764633D01*
X6779629Y-10809327D01*
X6781064Y-10841530D01*
X6784276Y-10865679D01*
X6789937Y-10886210D01*
X6798716Y-10907561D01*
X6801991Y-10914646D01*
X6841778Y-10980492D01*
X6893392Y-11034947D01*
X6955420Y-11077172D01*
X7026446Y-11106329D01*
X7105055Y-11121578D01*
X7154704Y-11123709D01*
X7193995Y-11122077D01*
X7231944Y-11118435D01*
X7261519Y-11113502D01*
X7266133Y-11112334D01*
X7340146Y-11083705D01*
X7404029Y-11042749D01*
X7456631Y-10991064D01*
X7496801Y-10930251D01*
X7523387Y-10861909D01*
X7535237Y-10787638D01*
X7535017Y-10768667D01*
X7373996Y-10768667D01*
X7366680Y-10822978D01*
X7347611Y-10874063D01*
X7317459Y-10919084D01*
X7276896Y-10955199D01*
X7233031Y-10977391D01*
X7189364Y-10986746D01*
X7139588Y-10987835D01*
X7091566Y-10980936D01*
X7062934Y-10971381D01*
X7011113Y-10939680D01*
X6972690Y-10897680D01*
X6947821Y-10845639D01*
X6936665Y-10783817D01*
X6936016Y-10763483D01*
X6937388Y-10725808D01*
X6942819Y-10696875D01*
X6954103Y-10668647D01*
X6959579Y-10657805D01*
X6993469Y-10609512D01*
X7036511Y-10573653D01*
X7086028Y-10550551D01*
X7139338Y-10540526D01*
X7193764Y-10543898D01*
X7246627Y-10560988D01*
X7295247Y-10592118D01*
X7318712Y-10614788D01*
X7350683Y-10661732D01*
X7368888Y-10713972D01*
X7373996Y-10768667D01*
X7535017Y-10768667D01*
X7534674Y-10739233D01*
X7521122Y-10663886D01*
X7493431Y-10595962D01*
X7453170Y-10536563D01*
X7401908Y-10486790D01*
X7341217Y-10447745D01*
X7272665Y-10420530D01*
X7197822Y-10406247D01*
X7118258Y-10405997D01*
X7069692Y-10412886D01*
G37*
X7069692Y-10412886D02*
X6995155Y-10435534D01*
X6927531Y-10472046D01*
X6869148Y-10520676D01*
X6822335Y-10579674D01*
X6804133Y-10612233D01*
X6793484Y-10635146D01*
X6786405Y-10654985D01*
X6782173Y-10676189D01*
X6780064Y-10703198D01*
X6779356Y-10740451D01*
X6779300Y-10764633D01*
X6779629Y-10809327D01*
X6781064Y-10841530D01*
X6784276Y-10865679D01*
X6789937Y-10886210D01*
X6798716Y-10907561D01*
X6801991Y-10914646D01*
X6841778Y-10980492D01*
X6893392Y-11034947D01*
X6955420Y-11077172D01*
X7026446Y-11106329D01*
X7105055Y-11121578D01*
X7154704Y-11123709D01*
X7193995Y-11122077D01*
X7231944Y-11118435D01*
X7261519Y-11113502D01*
X7266133Y-11112334D01*
X7340146Y-11083705D01*
X7404029Y-11042749D01*
X7456631Y-10991064D01*
X7496801Y-10930251D01*
X7523387Y-10861909D01*
X7535237Y-10787638D01*
X7535017Y-10768667D01*
X7373996Y-10768667D01*
X7366680Y-10822978D01*
X7347611Y-10874063D01*
X7317459Y-10919084D01*
X7276896Y-10955199D01*
X7233031Y-10977391D01*
X7189364Y-10986746D01*
X7139588Y-10987835D01*
X7091566Y-10980936D01*
X7062934Y-10971381D01*
X7011113Y-10939680D01*
X6972690Y-10897680D01*
X6947821Y-10845639D01*
X6936665Y-10783817D01*
X6936016Y-10763483D01*
X6937388Y-10725808D01*
X6942819Y-10696875D01*
X6954103Y-10668647D01*
X6959579Y-10657805D01*
X6993469Y-10609512D01*
X7036511Y-10573653D01*
X7086028Y-10550551D01*
X7139338Y-10540526D01*
X7193764Y-10543898D01*
X7246627Y-10560988D01*
X7295247Y-10592118D01*
X7318712Y-10614788D01*
X7350683Y-10661732D01*
X7368888Y-10713972D01*
X7373996Y-10768667D01*
X7535017Y-10768667D01*
X7534674Y-10739233D01*
X7521122Y-10663886D01*
X7493431Y-10595962D01*
X7453170Y-10536563D01*
X7401908Y-10486790D01*
X7341217Y-10447745D01*
X7272665Y-10420530D01*
X7197822Y-10406247D01*
X7118258Y-10405997D01*
X7069692Y-10412886D01*
D15*
X-1092000Y-14138803D02*
X-1092000Y-14638803D01*
X-1092000Y-14638803D02*
X-592000Y-14638803D01*
X-592000Y-14638803D02*
X-592000Y-14638803D01*
X608000Y-14638803D02*
X1108000Y-14638803D01*
X1108000Y-14638803D02*
X1108000Y-14138803D01*
X1108000Y-14138803D02*
X1108000Y-14138803D01*
X1108000Y-12938803D02*
X1108000Y-12438803D01*
X1108000Y-12438803D02*
X608000Y-12438803D01*
X608000Y-12438803D02*
X608000Y-12438803D01*
X-1092000Y-12938803D02*
X-1092000Y-12438803D01*
X-1092000Y-12438803D02*
X-1092000Y-12438803D01*
D12*
X-11800000Y-12363803D02*
X-8800000Y-12363803D01*
X-10300000Y-14613803D02*
X-8800000Y-14613803D01*
D15*
X1025400Y-28122900D02*
X-974600Y-28122900D01*
X25400Y-25902900D02*
X-974600Y-25902900D01*
D12*
X11212000Y-14627000D02*
X11212000Y-12427000D01*
X7812000Y-12427000D02*
X11212000Y-12427000D01*
X7800197Y-14627000D02*
X11212000Y-14627000D01*
X7812000Y-14627000D02*
X7812000Y-12427000D01*
X7923803Y-14627000D02*
G75*
G03*
X7923803Y-14627000I-111803J0D01*
G01*
D15*
X-7485000Y-2618641D02*
X-7485000Y-2311359D01*
X-8245000Y-2618641D02*
X-8245000Y-2311359D01*
X13846000Y7320000D02*
X13846000Y7920000D01*
X11746000Y6620000D02*
X13146000Y6620000D01*
X11046000Y7920000D02*
X11046000Y7320000D01*
X13146000Y8620000D02*
X11746000Y8620000D01*
X11746000Y8620000D02*
G75*
G03*
X11046000Y7920000I0J-700000D01*
G01*
X11046000Y7320000D02*
G75*
G03*
X11746000Y6620000I700000J0D01*
G01*
X13146000Y6620000D02*
G75*
G03*
X13846000Y7320000I0J700000D01*
G01*
X13846000Y7920000D02*
G75*
G03*
X13146000Y8620000I-700000J0D01*
G01*
X11046000Y2840000D02*
X11046000Y2240000D01*
X13146000Y3540000D02*
X11746000Y3540000D01*
X13846000Y2240000D02*
X13846000Y2840000D01*
X11746000Y1540000D02*
X13146000Y1540000D01*
X13146000Y1540000D02*
G75*
G03*
X13846000Y2240000I0J700000D01*
G01*
X13846000Y2840000D02*
G75*
G03*
X13146000Y3540000I-700000J0D01*
G01*
X11746000Y3540000D02*
G75*
G03*
X11046000Y2840000I0J-700000D01*
G01*
X11046000Y2240000D02*
G75*
G03*
X11746000Y1540000I700000J0D01*
G01*
X1221836Y-15011000D02*
X1006164Y-15011000D01*
X1221836Y-15731000D02*
X1006164Y-15731000D01*
X-20000Y-16520580D02*
X-20000Y-16239420D01*
X-1040000Y-16520580D02*
X-1040000Y-16239420D01*
X-5850000Y1450000D02*
X-5850000Y-1450000D01*
X-8150000Y1450000D02*
X-8150000Y-1450000D01*
X-7550000Y1450000D02*
X-8150000Y1450000D01*
X10750000Y-4400000D02*
X9950000Y-4400000D01*
X10750000Y-3100000D02*
X10750000Y-4400000D01*
X9950000Y-3100000D02*
X9950000Y-4400000D01*
X7970000Y11400000D02*
X7970000Y10800000D01*
X11420000Y12100000D02*
X8620000Y12100000D01*
X12070000Y10800000D02*
X12070000Y11400000D01*
X8620000Y10100000D02*
X11420000Y10100000D01*
X7970000Y10800000D02*
G75*
G03*
X8670000Y10100000I700000J0D01*
G01*
X8670000Y12100000D02*
G75*
G03*
X7970000Y11400000I0J-700000D01*
G01*
X12070000Y11400000D02*
G75*
G03*
X11370000Y12100000I-700000J0D01*
G01*
X11370000Y10100000D02*
G75*
G03*
X12070000Y10800000I0J700000D01*
G01*
X13146000Y6000000D02*
X11746000Y6000000D01*
X11046000Y5300000D02*
X11046000Y4700000D01*
X11746000Y4000000D02*
X13146000Y4000000D01*
X13846000Y4700000D02*
X13846000Y5300000D01*
X11746000Y6000000D02*
G75*
G03*
X11046000Y5300000I0J-700000D01*
G01*
X11046000Y4700000D02*
G75*
G03*
X11746000Y4000000I700000J0D01*
G01*
X13146000Y4000000D02*
G75*
G03*
X13846000Y4700000I0J700000D01*
G01*
X13846000Y5300000D02*
G75*
G03*
X13146000Y6000000I-700000J0D01*
G01*
X11746000Y-1000000D02*
X13146000Y-1000000D01*
X13846000Y-300000D02*
X13846000Y300000D01*
X13146000Y1000000D02*
X11746000Y1000000D01*
X11046000Y300000D02*
X11046000Y-300000D01*
X13146000Y-1000000D02*
G75*
G03*
X13846000Y-300000I0J700000D01*
G01*
X13846000Y300000D02*
G75*
G03*
X13146000Y1000000I-700000J0D01*
G01*
X11746000Y1000000D02*
G75*
G03*
X11046000Y300000I0J-700000D01*
G01*
X11046000Y-300000D02*
G75*
G03*
X11746000Y-1000000I700000J0D01*
G01*
X-7438641Y2639000D02*
X-7131359Y2639000D01*
X-7438641Y1879000D02*
X-7131359Y1879000D01*
X9610000Y-26910000D02*
G75*
G03*
X9610000Y-26910000I-950000J0D01*
G01*
X1140000Y-21500000D02*
G75*
G03*
X1140000Y-21500000I-950000J0D01*
G01*
X11500000Y-7950000D02*
G75*
G03*
X11500000Y-7950000I-950000J0D01*
G01*
X-3225000Y-11425000D02*
G75*
G03*
X-3225000Y-11425000I-950000J0D01*
G01*
X5850000Y-12580000D02*
G75*
G03*
X5850000Y-12580000I-950000J0D01*
G01*
X7370000Y-17710000D02*
G75*
G03*
X7370000Y-17710000I-950000J0D01*
G01*
X16250000Y-10380000D02*
G75*
G03*
X16250000Y-10380000I-950000J0D01*
G01*
X10390000Y-20170000D02*
G75*
G03*
X10390000Y-20170000I-950000J0D01*
G01*
X15810000Y-13490000D02*
G75*
G03*
X15810000Y-13490000I-950000J0D01*
G01*
X11987000Y-16824000D02*
G75*
G03*
X11987000Y-16824000I-950000J0D01*
G01*
X-3224000Y-15377000D02*
G75*
G03*
X-3224000Y-15377000I-950000J0D01*
G01*
X-6810000Y-6680000D02*
G75*
G03*
X-6810000Y-6680000I-950000J0D01*
G01*
X-10029000Y-9360000D02*
G75*
G03*
X-10029000Y-9360000I-950000J0D01*
G01*
X7500000Y3400000D02*
X5500000Y3400000D01*
X3100000Y-1250000D02*
X3100000Y1250000D01*
X7500000Y-3400000D02*
X5500000Y-3400000D01*
X9900000Y-1200000D02*
X9900000Y1300000D01*
D12*
X13002812Y9483334D02*
X13065312Y8983334D01*
X13115907Y8883334D01*
X13200431Y8816667D01*
X13318883Y8783334D01*
X13395074Y8783334D01*
X12709360Y8783334D02*
X12621860Y9483334D01*
X12317098Y9483334D01*
X12245074Y9450000D01*
X12211145Y9416667D01*
X12181383Y9350000D01*
X12193883Y9250000D01*
X12240312Y9183334D01*
X12282574Y9150000D01*
X12362931Y9116667D01*
X12667693Y9116667D01*
X11479002Y9483334D02*
X11631383Y9483334D01*
X11711741Y9450000D01*
X11754002Y9416667D01*
X11842693Y9316667D01*
X11897455Y9183334D01*
X11930788Y8916667D01*
X11901026Y8850000D01*
X11867098Y8816667D01*
X11795074Y8783334D01*
X11642693Y8783334D01*
X11562336Y8816667D01*
X11520074Y8850000D01*
X11473645Y8916667D01*
X11452812Y9083334D01*
X11482574Y9150000D01*
X11516502Y9183334D01*
X11588526Y9216667D01*
X11740907Y9216667D01*
X11821264Y9183334D01*
X11863526Y9150000D01*
X11909955Y9083334D01*
X10166666Y3202813D02*
X10666666Y3265313D01*
X10766666Y3315908D01*
X10833333Y3400432D01*
X10866666Y3518884D01*
X10866666Y3595075D01*
X10866666Y2909361D02*
X10166666Y2821861D01*
X10166666Y2517099D01*
X10200000Y2445075D01*
X10233333Y2411146D01*
X10300000Y2381384D01*
X10400000Y2393884D01*
X10466666Y2440313D01*
X10500000Y2482575D01*
X10533333Y2562932D01*
X10533333Y2867694D01*
X10400000Y1708170D02*
X10866666Y1766503D01*
X10133333Y1865313D02*
X10633333Y2118289D01*
X10633333Y1623051D01*
X10672812Y12983334D02*
X10735312Y12483334D01*
X10785907Y12383334D01*
X10870431Y12316667D01*
X10988883Y12283334D01*
X11065074Y12283334D01*
X10379360Y12283334D02*
X10291860Y12983334D01*
X9987098Y12983334D01*
X9915074Y12950000D01*
X9881145Y12916667D01*
X9851383Y12850000D01*
X9863883Y12750000D01*
X9910312Y12683334D01*
X9952574Y12650000D01*
X10032931Y12616667D01*
X10337693Y12616667D01*
X9160312Y12283334D02*
X9617455Y12283334D01*
X9388883Y12283334D02*
X9301383Y12983334D01*
X9390074Y12883334D01*
X9474598Y12816667D01*
X9554955Y12783334D01*
X7134285Y10647620D02*
X7705714Y10647620D01*
X7420000Y10647620D02*
X7420000Y11647620D01*
X7515238Y11504762D01*
X7610476Y11409524D01*
X7705714Y11361905D01*
X12953333Y11647620D02*
X12334285Y11647620D01*
X12667619Y11266667D01*
X12524761Y11266667D01*
X12429523Y11219048D01*
X12381904Y11171429D01*
X12334285Y11076191D01*
X12334285Y10838096D01*
X12381904Y10742858D01*
X12429523Y10695239D01*
X12524761Y10647620D01*
X12810476Y10647620D01*
X12905714Y10695239D01*
X12953333Y10742858D01*
X10116666Y5602813D02*
X10616666Y5665313D01*
X10716666Y5715908D01*
X10783333Y5800432D01*
X10816666Y5918884D01*
X10816666Y5995075D01*
X10816666Y5309361D02*
X10116666Y5221861D01*
X10116666Y4917099D01*
X10150000Y4845075D01*
X10183333Y4811146D01*
X10250000Y4781384D01*
X10350000Y4793884D01*
X10416666Y4840313D01*
X10450000Y4882575D01*
X10483333Y4962932D01*
X10483333Y5267694D01*
X10183333Y4468289D02*
X10150000Y4426027D01*
X10116666Y4345670D01*
X10116666Y4155194D01*
X10150000Y4083170D01*
X10183333Y4049242D01*
X10250000Y4019480D01*
X10316666Y4027813D01*
X10416666Y4078408D01*
X10816666Y4585551D01*
X10816666Y4090313D01*
X10216666Y552813D02*
X10716666Y615313D01*
X10816666Y665908D01*
X10883333Y750432D01*
X10916666Y868884D01*
X10916666Y945075D01*
X10916666Y259361D02*
X10216666Y171861D01*
X10216666Y-132901D01*
X10250000Y-204925D01*
X10283333Y-238854D01*
X10350000Y-268616D01*
X10450000Y-256116D01*
X10516666Y-209687D01*
X10550000Y-167425D01*
X10583333Y-87068D01*
X10583333Y217694D01*
X10216666Y-551949D02*
X10216666Y-1047187D01*
X10483333Y-747187D01*
X10483333Y-861473D01*
X10516666Y-933497D01*
X10550000Y-967425D01*
X10616666Y-997187D01*
X10783333Y-976354D01*
X10850000Y-929925D01*
X10883333Y-887663D01*
X10916666Y-807306D01*
X10916666Y-578735D01*
X10883333Y-506711D01*
X10850000Y-472782D01*
X10163669Y-28174666D02*
X9706526Y-28174666D01*
X10022598Y-28874666D02*
X9935098Y-28174666D01*
X9527360Y-28874666D02*
X9439860Y-28174666D01*
X9135098Y-28174666D01*
X9063074Y-28208000D01*
X9029145Y-28241333D01*
X8999383Y-28308000D01*
X9011883Y-28408000D01*
X9058312Y-28474666D01*
X9100574Y-28508000D01*
X9180931Y-28541333D01*
X9485693Y-28541333D01*
X8308312Y-28874666D02*
X8765455Y-28874666D01*
X8536883Y-28874666D02*
X8449383Y-28174666D01*
X8538074Y-28274666D01*
X8622598Y-28341333D01*
X8702955Y-28374666D01*
X3289669Y-21066666D02*
X2832526Y-21066666D01*
X3148598Y-21766666D02*
X3061098Y-21066666D01*
X2653360Y-21766666D02*
X2565860Y-21066666D01*
X2261098Y-21066666D01*
X2189074Y-21100000D01*
X2155145Y-21133333D01*
X2125383Y-21200000D01*
X2137883Y-21300000D01*
X2184312Y-21366666D01*
X2226574Y-21400000D01*
X2306931Y-21433333D01*
X2611693Y-21433333D01*
X1812288Y-21133333D02*
X1770026Y-21100000D01*
X1689669Y-21066666D01*
X1499193Y-21066666D01*
X1427169Y-21100000D01*
X1393241Y-21133333D01*
X1363479Y-21200000D01*
X1371812Y-21266666D01*
X1422407Y-21366666D01*
X1929550Y-21766666D01*
X1434312Y-21766666D01*
X9470669Y-8141666D02*
X9013526Y-8141666D01*
X9329598Y-8841666D02*
X9242098Y-8141666D01*
X8834360Y-8841666D02*
X8746860Y-8141666D01*
X8442098Y-8141666D01*
X8370074Y-8175000D01*
X8336145Y-8208333D01*
X8306383Y-8275000D01*
X8318883Y-8375000D01*
X8365312Y-8441666D01*
X8407574Y-8475000D01*
X8487931Y-8508333D01*
X8792693Y-8508333D01*
X8023050Y-8141666D02*
X7527812Y-8141666D01*
X7827812Y-8408333D01*
X7713526Y-8408333D01*
X7641502Y-8441666D01*
X7607574Y-8475000D01*
X7577812Y-8541666D01*
X7598645Y-8708333D01*
X7645074Y-8775000D01*
X7687336Y-8808333D01*
X7767693Y-8841666D01*
X7996264Y-8841666D01*
X8068288Y-8808333D01*
X8102217Y-8775000D01*
X-2004331Y-9616666D02*
X-2461474Y-9616666D01*
X-2145402Y-10316666D02*
X-2232902Y-9616666D01*
X-2640640Y-10316666D02*
X-2728140Y-9616666D01*
X-3032902Y-9616666D01*
X-3104926Y-9650000D01*
X-3138855Y-9683333D01*
X-3168617Y-9750000D01*
X-3156117Y-9850000D01*
X-3109688Y-9916666D01*
X-3067426Y-9950000D01*
X-2987069Y-9983333D01*
X-2682307Y-9983333D01*
X-3841831Y-9850000D02*
X-3783498Y-10316666D01*
X-3684688Y-9583333D02*
X-3431712Y-10083333D01*
X-3926950Y-10083333D01*
X3745669Y-12116666D02*
X3288526Y-12116666D01*
X3604598Y-12816666D02*
X3517098Y-12116666D01*
X3109360Y-12816666D02*
X3021860Y-12116666D01*
X2717098Y-12116666D01*
X2645074Y-12150000D01*
X2611145Y-12183333D01*
X2581383Y-12250000D01*
X2593883Y-12350000D01*
X2640312Y-12416666D01*
X2682574Y-12450000D01*
X2762931Y-12483333D01*
X3067693Y-12483333D01*
X1840907Y-12116666D02*
X2221860Y-12116666D01*
X2301622Y-12450000D01*
X2259360Y-12416666D01*
X2179002Y-12383333D01*
X1988526Y-12383333D01*
X1916502Y-12416666D01*
X1882574Y-12450000D01*
X1852812Y-12516666D01*
X1873645Y-12683333D01*
X1920074Y-12750000D01*
X1962336Y-12783333D01*
X2042693Y-12816666D01*
X2233169Y-12816666D01*
X2305193Y-12783333D01*
X2339122Y-12750000D01*
X7495669Y-18816666D02*
X7038526Y-18816666D01*
X7354598Y-19516666D02*
X7267098Y-18816666D01*
X6859360Y-19516666D02*
X6771860Y-18816666D01*
X6467098Y-18816666D01*
X6395074Y-18850000D01*
X6361145Y-18883333D01*
X6331383Y-18950000D01*
X6343883Y-19050000D01*
X6390312Y-19116666D01*
X6432574Y-19150000D01*
X6512931Y-19183333D01*
X6817693Y-19183333D01*
X5629002Y-18816666D02*
X5781383Y-18816666D01*
X5861741Y-18850000D01*
X5904002Y-18883333D01*
X5992693Y-18983333D01*
X6047455Y-19116666D01*
X6080788Y-19383333D01*
X6051026Y-19450000D01*
X6017098Y-19483333D01*
X5945074Y-19516666D01*
X5792693Y-19516666D01*
X5712336Y-19483333D01*
X5670074Y-19450000D01*
X5623645Y-19383333D01*
X5602812Y-19216666D01*
X5632574Y-19150000D01*
X5666502Y-19116666D01*
X5738526Y-19083333D01*
X5890907Y-19083333D01*
X5971264Y-19116666D01*
X6013526Y-19150000D01*
X6059955Y-19216666D01*
X14295669Y-9616666D02*
X13838526Y-9616666D01*
X14154598Y-10316666D02*
X14067098Y-9616666D01*
X13659360Y-10316666D02*
X13571860Y-9616666D01*
X13267098Y-9616666D01*
X13195074Y-9650000D01*
X13161145Y-9683333D01*
X13131383Y-9750000D01*
X13143883Y-9850000D01*
X13190312Y-9916666D01*
X13232574Y-9950000D01*
X13312931Y-9983333D01*
X13617693Y-9983333D01*
X12848050Y-9616666D02*
X12314717Y-9616666D01*
X12745074Y-10316666D01*
X8245669Y-20366666D02*
X7788526Y-20366666D01*
X8104598Y-21066666D02*
X8017098Y-20366666D01*
X7609360Y-21066666D02*
X7521860Y-20366666D01*
X7217098Y-20366666D01*
X7145074Y-20400000D01*
X7111145Y-20433333D01*
X7081383Y-20500000D01*
X7093883Y-20600000D01*
X7140312Y-20666666D01*
X7182574Y-20700000D01*
X7262931Y-20733333D01*
X7567693Y-20733333D01*
X6645074Y-20666666D02*
X6717098Y-20633333D01*
X6751026Y-20600000D01*
X6780788Y-20533333D01*
X6776622Y-20500000D01*
X6730193Y-20433333D01*
X6687931Y-20400000D01*
X6607574Y-20366666D01*
X6455193Y-20366666D01*
X6383169Y-20400000D01*
X6349241Y-20433333D01*
X6319479Y-20500000D01*
X6323645Y-20533333D01*
X6370074Y-20600000D01*
X6412336Y-20633333D01*
X6492693Y-20666666D01*
X6645074Y-20666666D01*
X6725431Y-20700000D01*
X6767693Y-20733333D01*
X6814122Y-20800000D01*
X6830788Y-20933333D01*
X6801026Y-21000000D01*
X6767098Y-21033333D01*
X6695074Y-21066666D01*
X6542693Y-21066666D01*
X6462336Y-21033333D01*
X6420074Y-21000000D01*
X6373645Y-20933333D01*
X6356979Y-20800000D01*
X6386741Y-20733333D01*
X6420669Y-20700000D01*
X6492693Y-20666666D01*
X15995669Y-11716666D02*
X15538526Y-11716666D01*
X15854598Y-12416666D02*
X15767098Y-11716666D01*
X15359360Y-12416666D02*
X15271860Y-11716666D01*
X14967098Y-11716666D01*
X14895074Y-11750000D01*
X14861145Y-11783333D01*
X14831383Y-11850000D01*
X14843883Y-11950000D01*
X14890312Y-12016666D01*
X14932574Y-12050000D01*
X15012931Y-12083333D01*
X15317693Y-12083333D01*
X14521264Y-12416666D02*
X14368883Y-12416666D01*
X14288526Y-12383333D01*
X14246264Y-12350000D01*
X14157574Y-12250000D01*
X14102812Y-12116666D01*
X14069479Y-11850000D01*
X14099241Y-11783333D01*
X14133169Y-11750000D01*
X14205193Y-11716666D01*
X14357574Y-11716666D01*
X14437931Y-11750000D01*
X14480193Y-11783333D01*
X14526622Y-11850000D01*
X14547455Y-12016666D01*
X14517693Y-12083333D01*
X14483764Y-12116666D01*
X14411741Y-12150000D01*
X14259360Y-12150000D01*
X14179002Y-12116666D01*
X14136741Y-12083333D01*
X14090312Y-12016666D01*
X11526622Y-17966666D02*
X11069479Y-17966666D01*
X11385550Y-18666666D02*
X11298050Y-17966666D01*
X10890312Y-18666666D02*
X10802812Y-17966666D01*
X10498050Y-17966666D01*
X10426026Y-18000000D01*
X10392098Y-18033333D01*
X10362336Y-18100000D01*
X10374836Y-18200000D01*
X10421264Y-18266666D01*
X10463526Y-18300000D01*
X10543883Y-18333333D01*
X10848645Y-18333333D01*
X9671264Y-18666666D02*
X10128407Y-18666666D01*
X9899836Y-18666666D02*
X9812336Y-17966666D01*
X9901026Y-18066666D01*
X9985550Y-18133333D01*
X10065907Y-18166666D01*
X9088526Y-17966666D02*
X9012336Y-17966666D01*
X8940312Y-18000000D01*
X8906383Y-18033333D01*
X8876622Y-18100000D01*
X8855193Y-18233333D01*
X8876026Y-18400000D01*
X8930788Y-18533333D01*
X8977217Y-18600000D01*
X9019479Y-18633333D01*
X9099836Y-18666666D01*
X9176026Y-18666666D01*
X9248050Y-18633333D01*
X9281979Y-18600000D01*
X9311741Y-18533333D01*
X9333169Y-18400000D01*
X9312336Y-18233333D01*
X9257574Y-18100000D01*
X9211145Y-18033333D01*
X9168883Y-18000000D01*
X9088526Y-17966666D01*
X-2723378Y-13616666D02*
X-3180521Y-13616666D01*
X-2864450Y-14316666D02*
X-2951950Y-13616666D01*
X-3359688Y-14316666D02*
X-3447188Y-13616666D01*
X-3751950Y-13616666D01*
X-3823974Y-13650000D01*
X-3857902Y-13683333D01*
X-3887664Y-13750000D01*
X-3875164Y-13850000D01*
X-3828736Y-13916666D01*
X-3786474Y-13950000D01*
X-3706117Y-13983333D01*
X-3401355Y-13983333D01*
X-4578736Y-14316666D02*
X-4121593Y-14316666D01*
X-4350164Y-14316666D02*
X-4437664Y-13616666D01*
X-4348974Y-13716666D01*
X-4264450Y-13783333D01*
X-4184093Y-13816666D01*
X-5340640Y-14316666D02*
X-4883498Y-14316666D01*
X-5112069Y-14316666D02*
X-5199569Y-13616666D01*
X-5110878Y-13716666D01*
X-5026355Y-13783333D01*
X-4945998Y-13816666D01*
X-6123378Y-4866666D02*
X-6580521Y-4866666D01*
X-6264450Y-5566666D02*
X-6351950Y-4866666D01*
X-6759688Y-5566666D02*
X-6847188Y-4866666D01*
X-7151950Y-4866666D01*
X-7223974Y-4900000D01*
X-7257902Y-4933333D01*
X-7287664Y-5000000D01*
X-7275164Y-5100000D01*
X-7228736Y-5166666D01*
X-7186474Y-5200000D01*
X-7106117Y-5233333D01*
X-6801355Y-5233333D01*
X-7978736Y-5566666D02*
X-7521593Y-5566666D01*
X-7750164Y-5566666D02*
X-7837664Y-4866666D01*
X-7748974Y-4966666D01*
X-7664450Y-5033333D01*
X-7584093Y-5066666D01*
X-8362664Y-4933333D02*
X-8404926Y-4900000D01*
X-8485283Y-4866666D01*
X-8675759Y-4866666D01*
X-8747783Y-4900000D01*
X-8781712Y-4933333D01*
X-8811474Y-5000000D01*
X-8803140Y-5066666D01*
X-8752545Y-5166666D01*
X-8245402Y-5566666D01*
X-8740640Y-5566666D01*
X-9673378Y-7466666D02*
X-10130521Y-7466666D01*
X-9814450Y-8166666D02*
X-9901950Y-7466666D01*
X-10309688Y-8166666D02*
X-10397188Y-7466666D01*
X-10701950Y-7466666D01*
X-10773974Y-7500000D01*
X-10807902Y-7533333D01*
X-10837664Y-7600000D01*
X-10825164Y-7700000D01*
X-10778736Y-7766666D01*
X-10736474Y-7800000D01*
X-10656117Y-7833333D01*
X-10351355Y-7833333D01*
X-11528736Y-8166666D02*
X-11071593Y-8166666D01*
X-11300164Y-8166666D02*
X-11387664Y-7466666D01*
X-11298974Y-7566666D01*
X-11214450Y-7633333D01*
X-11134093Y-7666666D01*
X-11882902Y-7466666D02*
X-12378140Y-7466666D01*
X-12078140Y-7733333D01*
X-12192426Y-7733333D01*
X-12264450Y-7766666D01*
X-12298378Y-7800000D01*
X-12328140Y-7866666D01*
X-12307307Y-8033333D01*
X-12260878Y-8100000D01*
X-12218617Y-8133333D01*
X-12138259Y-8166666D01*
X-11909688Y-8166666D01*
X-11837664Y-8133333D01*
X-11803736Y-8100000D01*
M02*
