G04 #@! TF.GenerationSoftware,KiCad,Pcbnew,(5.1.7)-1*
G04 #@! TF.CreationDate,2021-07-01T14:18:12+04:00*
G04 #@! TF.ProjectId,pcb-stm32wl,7063622d-7374-46d3-9332-776c2e6b6963,1.1*
G04 #@! TF.SameCoordinates,PX8f0d180PY6422c40*
G04 #@! TF.FileFunction,Profile,NP*
%FSLAX46Y46*%
G04 Gerber Fmt 4.6, Leading zero omitted, Abs format (unit mm)*
G04 Created by KiCad (PCBNEW (5.1.7)-1) date 2021-07-01 14:18:12*
%MOMM*%
%LPD*%
G01*
G04 APERTURE LIST*
G04 #@! TA.AperFunction,Profile*
%ADD10C,0.050000*%
G04 #@! TD*
G04 APERTURE END LIST*
D10*
X1666666Y0D02*
G75*
G03*
X1666666Y0I-1666666J0D01*
G01*
X-2500000Y0D02*
X2500000Y0D01*
X0Y2500000D02*
X0Y-2500000D01*
X1666666Y0D02*
G75*
G03*
X1666666Y0I-1666666J0D01*
G01*
X-2500000Y0D02*
X2500000Y0D01*
X0Y2500000D02*
X0Y-2500000D01*
X11750000Y-30500000D02*
X11750000Y-28750000D01*
X-14750000Y-25750000D02*
X-16750000Y-25750000D01*
X-11750000Y-28750000D02*
X-11750000Y-30500000D01*
X-14750000Y-25750000D02*
G75*
G02*
X-11750000Y-28750000I0J-3000000D01*
G01*
X11750000Y-28750000D02*
G75*
G02*
X14750000Y-25750000I3000000J0D01*
G01*
X16750000Y-25750000D02*
X14750000Y-25750000D01*
X-16750000Y25750000D02*
X-14750000Y25750000D01*
X11750000Y30500000D02*
X11750000Y28750000D01*
X14750000Y25750000D02*
X16750000Y25750000D01*
X14750000Y25750000D02*
G75*
G02*
X11750000Y28750000I0J3000000D01*
G01*
X-11750000Y30500000D02*
X-11750000Y28750000D01*
X-11750000Y28750000D02*
G75*
G02*
X-14750000Y25750000I-3000000J0D01*
G01*
X-16750000Y-25750000D02*
X-16750000Y25750000D01*
X11750000Y-30500000D02*
X-11750000Y-30500000D01*
X16750000Y25750000D02*
X16750000Y-25750000D01*
X-11750000Y30500000D02*
X11750000Y30500000D01*
M02*
