M48
; DRILL file {KiCad (5.1.8)-1} date 11/25/20 14:47:06
; FORMAT={-:-/ absolute / metric / decimal}
; #@! TF.CreationDate,2020-11-25T14:47:06+01:00
; #@! TF.GenerationSoftware,Kicad,Pcbnew,(5.1.8)-1
FMAT,2
METRIC
T1C0.400
T2C0.500
T3C2.489
%
G90
G05
T1
X-5.5Y-30.7
X5.4Y-30.7
T2
X-10.5Y-12.5
X-10.4Y16.5
X-10.0Y-24.1
X-7.0Y24.8
X-7.0Y23.0
X-7.0Y21.0
X-7.0Y19.2
X-7.0Y-9.25
X-7.0Y-16.4
X-7.0Y-18.1
X-7.0Y-19.6
X-7.0Y-21.4
X-4.2Y-24.1
X-3.6Y16.5
X-3.5Y-12.5
X3.6Y16.5
X3.8Y-12.5
X7.0Y24.8
X7.0Y22.8
X7.0Y20.9
X7.0Y19.3
X7.0Y-15.9
X7.0Y-17.6
X7.0Y-19.4
X7.0Y-21.3
X10.3Y16.5
X10.3Y-12.5
T3
X-7.938Y2.0
X0.0Y7.55
X0.0Y-3.55
X7.938Y2.0
T0
M30
