  0
SECTION
  2
HEADER
  9
$ANGBASE
  50
0.0
  9
$ANGDIR
  70
1
  9
$MEASUREMENT
  70
1
  0
ENDSEC
  0
SECTION
  2
TABLES
  0
TABLE
  2
LTYPE
  70
4
  0
LTYPE
  5
40F
  2
CONTINUOUS
  70
0
  3
Solid line
  72
65
  73
0
  40
0.0
  0
LTYPE
  5
410
  2
DASHDOT
 70
0
  3
Dash Dot ____ _ ____ _
 72
65
 73
4
 40
2.0
 49
1.25
 49
-0.25
 49
0.25
 49
-0.25
  0
LTYPE
  5
411
  2
DASHED
 70
0
  3
Dashed __ __ __ __ __
 72
65
 73
2
 40
0.75
 49
0.5
 49
-0.25
  0
LTYPE
  5
43B
  2
DOTTED
 70
0
  3
Dotted .  .  .  .
 72
65
 73
2
 40
0.2
 49
0.0
 49
-0.2
  0
ENDTAB
  0
TABLE
  2
STYLE
  70
4
  0
STYLE
  2
KICAD
  70
0
  40
0
  41
1
  42
1
  50
0
  71
0
  3
isocp.shx
  0
STYLE
  2
KICADB
  70
0
  40
0
  41
1
  42
1
  50
0
  71
0
  3
isocp.shx
  0
STYLE
  2
KICADI
  70
0
  40
0
  41
1
  42
1
  50
15
  71
0
  3
isocp.shx
  0
STYLE
  2
KICADBI
  70
0
  40
0
  41
1
  42
1
  50
15
  71
0
  3
isocp.shx
  0
ENDTAB
  0
TABLE
  2
LAYER
  70
1
  0
LAYER
  2
BLACK
  70
0
  62
7
  6
CONTINUOUS
  0
ENDTAB
  0
ENDSEC
  0
SECTION
  2
ENTITIES
0
LINE
8
BLACK
6
CONTINUOUS
10
18.3528
20
26.005
11
18.3549
21
26.0041
0
LINE
8
BLACK
6
CONTINUOUS
10
18.3549
20
26.0041
11
18.357
21
26.0032
0
LINE
8
BLACK
6
CONTINUOUS
10
18.357
20
26.0032
11
18.4001
21
25.9803
0
LINE
8
BLACK
6
CONTINUOUS
10
18.4001
20
25.9803
11
18.4004
21
25.9801
0
LINE
8
BLACK
6
CONTINUOUS
10
18.4004
20
25.9801
11
18.4023
21
25.9788
0
LINE
8
BLACK
6
CONTINUOUS
10
18.4023
20
25.9788
11
18.4041
21
25.9776
0
LINE
8
BLACK
6
CONTINUOUS
10
18.4041
20
25.9776
11
18.442
21
25.9468
0
LINE
8
BLACK
6
CONTINUOUS
10
18.442
20
25.9468
11
18.4422
21
25.9465
0
LINE
8
BLACK
6
CONTINUOUS
10
18.4422
20
25.9465
11
18.4438
21
25.9449
0
LINE
8
BLACK
6
CONTINUOUS
10
18.4438
20
25.9449
11
18.4454
21
25.9433
0
LINE
8
BLACK
6
CONTINUOUS
10
18.4454
20
25.9433
11
18.4765
21
25.9057
0
LINE
8
BLACK
6
CONTINUOUS
10
18.4765
20
25.9057
11
18.4765
21
25.9057
0
LINE
8
BLACK
6
CONTINUOUS
10
18.4765
20
25.9057
11
18.4765
21
25.9057
0
LINE
8
BLACK
6
CONTINUOUS
10
18.4765
20
25.9057
11
18.4767
21
25.9055
0
LINE
8
BLACK
6
CONTINUOUS
10
18.4767
20
25.9055
11
18.478
21
25.9036
0
LINE
8
BLACK
6
CONTINUOUS
10
18.478
20
25.9036
11
18.4793
21
25.9017
0
LINE
8
BLACK
6
CONTINUOUS
10
18.4793
20
25.9017
11
18.5025
21
25.8588
0
LINE
8
BLACK
6
CONTINUOUS
10
18.5025
20
25.8588
11
18.5026
21
25.8585
0
LINE
8
BLACK
6
CONTINUOUS
10
18.5026
20
25.8585
11
18.5035
21
25.8563
0
LINE
8
BLACK
6
CONTINUOUS
10
18.5035
20
25.8563
11
18.5043
21
25.8543
0
LINE
8
BLACK
6
CONTINUOUS
10
18.5043
20
25.8543
11
18.5188
21
25.8077
0
LINE
8
BLACK
6
CONTINUOUS
10
18.5188
20
25.8077
11
18.5189
21
25.8073
0
LINE
8
BLACK
6
CONTINUOUS
10
18.5189
20
25.8073
11
18.5193
21
25.8051
0
LINE
8
BLACK
6
CONTINUOUS
10
18.5193
20
25.8051
11
18.5198
21
25.8029
0
LINE
8
BLACK
6
CONTINUOUS
10
18.5198
20
25.8029
11
18.5249
21
25.7544
0
LINE
8
BLACK
6
CONTINUOUS
10
18.5249
20
25.7544
11
18.5249
21
25.754
0
LINE
8
BLACK
6
CONTINUOUS
10
18.5249
20
25.754
11
18.5249
21
25.7529
0
LINE
8
BLACK
6
CONTINUOUS
10
18.5249
20
25.7529
11
18.525
21
25.7518
0
LINE
8
BLACK
6
CONTINUOUS
10
18.525
20
25.7518
11
18.525
21
25.7513
0
LINE
8
BLACK
6
CONTINUOUS
10
18.525
20
25.7513
11
18.525
21
25.7512
0
LINE
8
BLACK
6
CONTINUOUS
10
18.525
20
25.7512
11
18.525
21
-25.7512
0
LINE
8
BLACK
6
CONTINUOUS
10
18.525
20
-25.7512
11
18.5249
21
-25.7524
0
LINE
8
BLACK
6
CONTINUOUS
10
18.5249
20
-25.7524
11
18.5249
21
-25.7524
0
LINE
8
BLACK
6
CONTINUOUS
10
18.5249
20
-25.7524
11
18.5201
21
-25.801
0
LINE
8
BLACK
6
CONTINUOUS
10
18.5201
20
-25.801
11
18.5201
21
-25.8013
0
LINE
8
BLACK
6
CONTINUOUS
10
18.5201
20
-25.8013
11
18.5196
21
-25.8036
0
LINE
8
BLACK
6
CONTINUOUS
10
18.5196
20
-25.8036
11
18.5192
21
-25.8058
0
LINE
8
BLACK
6
CONTINUOUS
10
18.5192
20
-25.8058
11
18.5051
21
-25.8525
0
LINE
8
BLACK
6
CONTINUOUS
10
18.5051
20
-25.8525
11
18.505
21
-25.8528
0
LINE
8
BLACK
6
CONTINUOUS
10
18.505
20
-25.8528
11
18.5041
21
-25.8549
0
LINE
8
BLACK
6
CONTINUOUS
10
18.5041
20
-25.8549
11
18.5032
21
-25.857
0
LINE
8
BLACK
6
CONTINUOUS
10
18.5032
20
-25.857
11
18.4803
21
-25.9001
0
LINE
8
BLACK
6
CONTINUOUS
10
18.4803
20
-25.9001
11
18.4803
21
-25.9001
0
LINE
8
BLACK
6
CONTINUOUS
10
18.4803
20
-25.9001
11
18.4803
21
-25.9001
0
LINE
8
BLACK
6
CONTINUOUS
10
18.4803
20
-25.9001
11
18.4801
21
-25.9004
0
LINE
8
BLACK
6
CONTINUOUS
10
18.4801
20
-25.9004
11
18.4789
21
-25.9022
0
LINE
8
BLACK
6
CONTINUOUS
10
18.4789
20
-25.9022
11
18.4776
21
-25.9041
0
LINE
8
BLACK
6
CONTINUOUS
10
18.4776
20
-25.9041
11
18.4468
21
-25.942
0
LINE
8
BLACK
6
CONTINUOUS
10
18.4468
20
-25.942
11
18.4465
21
-25.9422
0
LINE
8
BLACK
6
CONTINUOUS
10
18.4465
20
-25.9422
11
18.4449
21
-25.9439
0
LINE
8
BLACK
6
CONTINUOUS
10
18.4449
20
-25.9439
11
18.4433
21
-25.9454
0
LINE
8
BLACK
6
CONTINUOUS
10
18.4433
20
-25.9454
11
18.4057
21
-25.9765
0
LINE
8
BLACK
6
CONTINUOUS
10
18.4057
20
-25.9765
11
18.4057
21
-25.9765
0
LINE
8
BLACK
6
CONTINUOUS
10
18.4057
20
-25.9765
11
18.4057
21
-25.9765
0
LINE
8
BLACK
6
CONTINUOUS
10
18.4057
20
-25.9765
11
18.4055
21
-25.9767
0
LINE
8
BLACK
6
CONTINUOUS
10
18.4055
20
-25.9767
11
18.4036
21
-25.978
0
LINE
8
BLACK
6
CONTINUOUS
10
18.4036
20
-25.978
11
18.4017
21
-25.9793
0
LINE
8
BLACK
6
CONTINUOUS
10
18.4017
20
-25.9793
11
18.3588
21
-26.0025
0
LINE
8
BLACK
6
CONTINUOUS
10
18.3588
20
-26.0025
11
18.3585
21
-26.0026
0
LINE
8
BLACK
6
CONTINUOUS
10
18.3585
20
-26.0026
11
18.3563
21
-26.0035
0
LINE
8
BLACK
6
CONTINUOUS
10
18.3563
20
-26.0035
11
18.3543
21
-26.0043
0
LINE
8
BLACK
6
CONTINUOUS
10
18.3543
20
-26.0043
11
18.3077
21
-26.0188
0
LINE
8
BLACK
6
CONTINUOUS
10
18.3077
20
-26.0188
11
18.3073
21
-26.0189
0
LINE
8
BLACK
6
CONTINUOUS
10
18.3073
20
-26.0189
11
18.3051
21
-26.0193
0
LINE
8
BLACK
6
CONTINUOUS
10
18.3051
20
-26.0193
11
18.3029
21
-26.0198
0
LINE
8
BLACK
6
CONTINUOUS
10
18.3029
20
-26.0198
11
18.2544
21
-26.0249
0
LINE
8
BLACK
6
CONTINUOUS
10
18.2544
20
-26.0249
11
18.254
21
-26.0249
0
LINE
8
BLACK
6
CONTINUOUS
10
18.254
20
-26.0249
11
18.2529
21
-26.0249
0
LINE
8
BLACK
6
CONTINUOUS
10
18.2529
20
-26.0249
11
18.2518
21
-26.025
0
LINE
8
BLACK
6
CONTINUOUS
10
18.2518
20
-26.025
11
18.2513
21
-26.025
0
LINE
8
BLACK
6
CONTINUOUS
10
18.2513
20
-26.025
11
18.2512
21
-26.025
0
LINE
8
BLACK
6
CONTINUOUS
10
18.2512
20
-26.025
11
15.9988
21
-26.025
0
LINE
8
BLACK
6
CONTINUOUS
10
15.9988
20
-26.025
11
15.9976
21
-26.0249
0
LINE
8
BLACK
6
CONTINUOUS
10
15.9976
20
-26.0249
11
15.9976
21
-26.0249
0
LINE
8
BLACK
6
CONTINUOUS
10
15.9976
20
-26.0249
11
15.949
21
-26.0201
0
LINE
8
BLACK
6
CONTINUOUS
10
15.949
20
-26.0201
11
15.949
21
-26.0201
0
LINE
8
BLACK
6
CONTINUOUS
10
15.949
20
-26.0201
11
15.9487
21
-26.0201
0
LINE
8
BLACK
6
CONTINUOUS
10
15.9487
20
-26.0201
11
15.9464
21
-26.0196
0
LINE
8
BLACK
6
CONTINUOUS
10
15.9464
20
-26.0196
11
15.9442
21
-26.0192
0
LINE
8
BLACK
6
CONTINUOUS
10
15.9442
20
-26.0192
11
15.8975
21
-26.0051
0
LINE
8
BLACK
6
CONTINUOUS
10
15.8975
20
-26.0051
11
15.8972
21
-26.005
0
LINE
8
BLACK
6
CONTINUOUS
10
15.8972
20
-26.005
11
15.8951
21
-26.0041
0
LINE
8
BLACK
6
CONTINUOUS
10
15.8951
20
-26.0041
11
15.893
21
-26.0032
0
LINE
8
BLACK
6
CONTINUOUS
10
15.893
20
-26.0032
11
15.8499
21
-25.9803
0
LINE
8
BLACK
6
CONTINUOUS
10
15.8499
20
-25.9803
11
15.8499
21
-25.9803
0
LINE
8
BLACK
6
CONTINUOUS
10
15.8499
20
-25.9803
11
15.8499
21
-25.9803
0
LINE
8
BLACK
6
CONTINUOUS
10
15.8499
20
-25.9803
11
15.8496
21
-25.9801
0
LINE
8
BLACK
6
CONTINUOUS
10
15.8496
20
-25.9801
11
15.8477
21
-25.9789
0
LINE
8
BLACK
6
CONTINUOUS
10
15.8477
20
-25.9789
11
15.8459
21
-25.9776
0
LINE
8
BLACK
6
CONTINUOUS
10
15.8459
20
-25.9776
11
15.808
21
-25.9468
0
LINE
8
BLACK
6
CONTINUOUS
10
15.808
20
-25.9468
11
15.8078
21
-25.9465
0
LINE
8
BLACK
6
CONTINUOUS
10
15.8078
20
-25.9465
11
15.8061
21
-25.9449
0
LINE
8
BLACK
6
CONTINUOUS
10
15.8061
20
-25.9449
11
15.8046
21
-25.9433
0
LINE
8
BLACK
6
CONTINUOUS
10
15.8046
20
-25.9433
11
15.7735
21
-25.9057
0
LINE
8
BLACK
6
CONTINUOUS
10
15.7735
20
-25.9057
11
15.7735
21
-25.9057
0
LINE
8
BLACK
6
CONTINUOUS
10
15.7735
20
-25.9057
11
15.7735
21
-25.9057
0
LINE
8
BLACK
6
CONTINUOUS
10
15.7735
20
-25.9057
11
15.7733
21
-25.9055
0
LINE
8
BLACK
6
CONTINUOUS
10
15.7733
20
-25.9055
11
15.772
21
-25.9036
0
LINE
8
BLACK
6
CONTINUOUS
10
15.772
20
-25.9036
11
15.7707
21
-25.9017
0
LINE
8
BLACK
6
CONTINUOUS
10
15.7707
20
-25.9017
11
15.7475
21
-25.8588
0
LINE
8
BLACK
6
CONTINUOUS
10
15.7475
20
-25.8588
11
15.7474
21
-25.8585
0
LINE
8
BLACK
6
CONTINUOUS
10
15.7474
20
-25.8585
11
15.7465
21
-25.8563
0
LINE
8
BLACK
6
CONTINUOUS
10
15.7465
20
-25.8563
11
15.7457
21
-25.8543
0
LINE
8
BLACK
6
CONTINUOUS
10
15.7457
20
-25.8543
11
15.7312
21
-25.8077
0
LINE
8
BLACK
6
CONTINUOUS
10
15.7312
20
-25.8077
11
15.7311
21
-25.8073
0
LINE
8
BLACK
6
CONTINUOUS
10
15.7311
20
-25.8073
11
15.7307
21
-25.8051
0
LINE
8
BLACK
6
CONTINUOUS
10
15.7307
20
-25.8051
11
15.7302
21
-25.8029
0
LINE
8
BLACK
6
CONTINUOUS
10
15.7302
20
-25.8029
11
15.7251
21
-25.7544
0
LINE
8
BLACK
6
CONTINUOUS
10
15.7251
20
-25.7544
11
15.7251
21
-25.754
0
LINE
8
BLACK
6
CONTINUOUS
10
15.7251
20
-25.754
11
15.7251
21
-25.7529
0
LINE
8
BLACK
6
CONTINUOUS
10
15.7251
20
-25.7529
11
15.725
21
-25.7518
0
LINE
8
BLACK
6
CONTINUOUS
10
15.725
20
-25.7518
11
15.725
21
-25.7513
0
LINE
8
BLACK
6
CONTINUOUS
10
15.725
20
-25.7513
11
15.725
21
-25.7512
0
LINE
8
BLACK
6
CONTINUOUS
10
15.725
20
-25.7512
11
15.725
21
-24.0002
0
LINE
8
BLACK
6
CONTINUOUS
10
15.725
20
-24.0002
11
15.7249
21
-23.991
0
LINE
8
BLACK
6
CONTINUOUS
10
15.7249
20
-23.991
11
15.709
21
-23.8493
0
LINE
8
BLACK
6
CONTINUOUS
10
15.709
20
-23.8493
11
15.6663
21
-23.7144
0
LINE
8
BLACK
6
CONTINUOUS
10
15.6663
20
-23.7144
11
15.5981
21
-23.5905
0
LINE
8
BLACK
6
CONTINUOUS
10
15.5981
20
-23.5905
11
15.5072
21
-23.4821
0
LINE
8
BLACK
6
CONTINUOUS
10
15.5072
20
-23.4821
11
15.3969
21
-23.3934
0
LINE
8
BLACK
6
CONTINUOUS
10
15.3969
20
-23.3934
11
15.2715
21
-23.3279
0
LINE
8
BLACK
6
CONTINUOUS
10
15.2715
20
-23.3279
11
15.1358
21
-23.288
0
LINE
8
BLACK
6
CONTINUOUS
10
15.1358
20
-23.288
11
14.9949
21
-23.2751
0
LINE
8
BLACK
6
CONTINUOUS
10
14.9949
20
-23.2751
11
14.8542
21
-23.2899
0
LINE
8
BLACK
6
CONTINUOUS
10
14.8542
20
-23.2899
11
14.7191
21
-23.3318
0
LINE
8
BLACK
6
CONTINUOUS
10
14.7191
20
-23.3318
11
14.5947
21
-23.399
0
LINE
8
BLACK
6
CONTINUOUS
10
14.5947
20
-23.399
11
14.4856
21
-23.4892
0
LINE
8
BLACK
6
CONTINUOUS
10
14.4856
20
-23.4892
11
14.3962
21
-23.5989
0
LINE
8
BLACK
6
CONTINUOUS
10
14.3962
20
-23.5989
11
14.3298
21
-23.7238
0
LINE
8
BLACK
6
CONTINUOUS
10
14.3298
20
-23.7238
11
14.2889
21
-23.8592
0
LINE
8
BLACK
6
CONTINUOUS
10
14.2889
20
-23.8592
11
14.275
21
-24.0012
0
LINE
8
BLACK
6
CONTINUOUS
10
14.275
20
-24.0012
11
14.275
21
-26.0012
0
LINE
8
BLACK
6
CONTINUOUS
10
14.275
20
-26.0012
11
14.2746
21
-26.0049
0
LINE
8
BLACK
6
CONTINUOUS
10
14.2746
20
-26.0049
11
14.2732
21
-26.0096
0
LINE
8
BLACK
6
CONTINUOUS
10
14.2732
20
-26.0096
11
14.2709
21
-26.014
0
LINE
8
BLACK
6
CONTINUOUS
10
14.2709
20
-26.014
11
14.2678
21
-26.0178
0
LINE
8
BLACK
6
CONTINUOUS
10
14.2678
20
-26.0178
11
14.264
21
-26.0209
0
LINE
8
BLACK
6
CONTINUOUS
10
14.264
20
-26.0209
11
14.2596
21
-26.0232
0
LINE
8
BLACK
6
CONTINUOUS
10
14.2596
20
-26.0232
11
14.2549
21
-26.0246
0
LINE
8
BLACK
6
CONTINUOUS
10
14.2549
20
-26.0246
11
14.25
21
-26.0251
0
LINE
8
BLACK
6
CONTINUOUS
10
14.25
20
-26.0251
11
14.2488
21
-26.025
0
LINE
8
BLACK
6
CONTINUOUS
10
14.2488
20
-26.025
11
14.2356
21
-26.0251
0
LINE
8
BLACK
6
CONTINUOUS
10
14.2356
20
-26.0251
11
13.8026
21
-26.0706
0
LINE
8
BLACK
6
CONTINUOUS
10
13.8026
20
-26.0706
11
13.3878
21
-26.199
0
LINE
8
BLACK
6
CONTINUOUS
10
13.3878
20
-26.199
11
13.0059
21
-26.4055
0
LINE
8
BLACK
6
CONTINUOUS
10
13.0059
20
-26.4055
11
12.6713
21
-26.6823
0
LINE
8
BLACK
6
CONTINUOUS
10
12.6713
20
-26.6823
11
12.3968
21
-27.0188
0
LINE
8
BLACK
6
CONTINUOUS
10
12.3968
20
-27.0188
11
12.193
21
-27.4022
0
LINE
8
BLACK
6
CONTINUOUS
10
12.193
20
-27.4022
11
12.0675
21
-27.8179
0
LINE
8
BLACK
6
CONTINUOUS
10
12.0675
20
-27.8179
11
12.025
21
-28.2512
0
LINE
8
BLACK
6
CONTINUOUS
10
12.025
20
-28.2512
11
12.025
21
-31.7512
0
LINE
8
BLACK
6
CONTINUOUS
10
12.025
20
-31.7512
11
12.0249
21
-31.7524
0
LINE
8
BLACK
6
CONTINUOUS
10
12.0249
20
-31.7524
11
12.0249
21
-31.7524
0
LINE
8
BLACK
6
CONTINUOUS
10
12.0249
20
-31.7524
11
12.0154
21
-31.8496
0
LINE
8
BLACK
6
CONTINUOUS
10
12.0154
20
-31.8496
11
12.0153
21
-31.8499
0
LINE
8
BLACK
6
CONTINUOUS
10
12.0153
20
-31.8499
11
12.0148
21
-31.8521
0
LINE
8
BLACK
6
CONTINUOUS
10
12.0148
20
-31.8521
11
12.0144
21
-31.8543
0
LINE
8
BLACK
6
CONTINUOUS
10
12.0144
20
-31.8543
11
11.9862
21
-31.9478
0
LINE
8
BLACK
6
CONTINUOUS
10
11.9862
20
-31.9478
11
11.9861
21
-31.9481
0
LINE
8
BLACK
6
CONTINUOUS
10
11.9861
20
-31.9481
11
11.9852
21
-31.9502
0
LINE
8
BLACK
6
CONTINUOUS
10
11.9852
20
-31.9502
11
11.9843
21
-31.9523
0
LINE
8
BLACK
6
CONTINUOUS
10
11.9843
20
-31.9523
11
11.9385
21
-32.0384
0
LINE
8
BLACK
6
CONTINUOUS
10
11.9385
20
-32.0384
11
11.9384
21
-32.0387
0
LINE
8
BLACK
6
CONTINUOUS
10
11.9384
20
-32.0387
11
11.9371
21
-32.0406
0
LINE
8
BLACK
6
CONTINUOUS
10
11.9371
20
-32.0406
11
11.9358
21
-32.0425
0
LINE
8
BLACK
6
CONTINUOUS
10
11.9358
20
-32.0425
11
11.8742
21
-32.1181
0
LINE
8
BLACK
6
CONTINUOUS
10
11.8742
20
-32.1181
11
11.8742
21
-32.1181
0
LINE
8
BLACK
6
CONTINUOUS
10
11.8742
20
-32.1181
11
11.8742
21
-32.1181
0
LINE
8
BLACK
6
CONTINUOUS
10
11.8742
20
-32.1181
11
11.8739
21
-32.1184
0
LINE
8
BLACK
6
CONTINUOUS
10
11.8739
20
-32.1184
11
11.8723
21
-32.12
0
LINE
8
BLACK
6
CONTINUOUS
10
11.8723
20
-32.12
11
11.8707
21
-32.1216
0
LINE
8
BLACK
6
CONTINUOUS
10
11.8707
20
-32.1216
11
11.7955
21
-32.1838
0
LINE
8
BLACK
6
CONTINUOUS
10
11.7955
20
-32.1838
11
11.7953
21
-32.184
0
LINE
8
BLACK
6
CONTINUOUS
10
11.7953
20
-32.184
11
11.7934
21
-32.1853
0
LINE
8
BLACK
6
CONTINUOUS
10
11.7934
20
-32.1853
11
11.7915
21
-32.1865
0
LINE
8
BLACK
6
CONTINUOUS
10
11.7915
20
-32.1865
11
11.7056
21
-32.2329
0
LINE
8
BLACK
6
CONTINUOUS
10
11.7056
20
-32.2329
11
11.7053
21
-32.2331
0
LINE
8
BLACK
6
CONTINUOUS
10
11.7053
20
-32.2331
11
11.7032
21
-32.2339
0
LINE
8
BLACK
6
CONTINUOUS
10
11.7032
20
-32.2339
11
11.7012
21
-32.2348
0
LINE
8
BLACK
6
CONTINUOUS
10
11.7012
20
-32.2348
11
11.6079
21
-32.2637
0
LINE
8
BLACK
6
CONTINUOUS
10
11.6079
20
-32.2637
11
11.6076
21
-32.2638
0
LINE
8
BLACK
6
CONTINUOUS
10
11.6076
20
-32.2638
11
11.6054
21
-32.2642
0
LINE
8
BLACK
6
CONTINUOUS
10
11.6054
20
-32.2642
11
11.6032
21
-32.2647
0
LINE
8
BLACK
6
CONTINUOUS
10
11.6032
20
-32.2647
11
11.5061
21
-32.2749
0
LINE
8
BLACK
6
CONTINUOUS
10
11.5061
20
-32.2749
11
11.5058
21
-32.2749
0
LINE
8
BLACK
6
CONTINUOUS
10
11.5058
20
-32.2749
11
11.5047
21
-32.2749
0
LINE
8
BLACK
6
CONTINUOUS
10
11.5047
20
-32.2749
11
11.5036
21
-32.275
0
LINE
8
BLACK
6
CONTINUOUS
10
11.5036
20
-32.275
11
11.5013
21
-32.275
0
LINE
8
BLACK
6
CONTINUOUS
10
11.5013
20
-32.275
11
11.5012
21
-32.275
0
LINE
8
BLACK
6
CONTINUOUS
10
11.5012
20
-32.275
11
-11.5012
21
-32.275
0
LINE
8
BLACK
6
CONTINUOUS
10
-11.5012
20
-32.275
11
-11.5024
21
-32.2749
0
LINE
8
BLACK
6
CONTINUOUS
10
-11.5024
20
-32.2749
11
-11.5024
21
-32.2749
0
LINE
8
BLACK
6
CONTINUOUS
10
-11.5024
20
-32.2749
11
-11.5996
21
-32.2654
0
LINE
8
BLACK
6
CONTINUOUS
10
-11.5996
20
-32.2654
11
-11.5996
21
-32.2654
0
LINE
8
BLACK
6
CONTINUOUS
10
-11.5996
20
-32.2654
11
-11.5999
21
-32.2653
0
LINE
8
BLACK
6
CONTINUOUS
10
-11.5999
20
-32.2653
11
-11.6021
21
-32.2648
0
LINE
8
BLACK
6
CONTINUOUS
10
-11.6021
20
-32.2648
11
-11.6043
21
-32.2644
0
LINE
8
BLACK
6
CONTINUOUS
10
-11.6043
20
-32.2644
11
-11.6978
21
-32.2362
0
LINE
8
BLACK
6
CONTINUOUS
10
-11.6978
20
-32.2362
11
-11.6981
21
-32.2361
0
LINE
8
BLACK
6
CONTINUOUS
10
-11.6981
20
-32.2361
11
-11.7002
21
-32.2352
0
LINE
8
BLACK
6
CONTINUOUS
10
-11.7002
20
-32.2352
11
-11.7023
21
-32.2343
0
LINE
8
BLACK
6
CONTINUOUS
10
-11.7023
20
-32.2343
11
-11.7884
21
-32.1885
0
LINE
8
BLACK
6
CONTINUOUS
10
-11.7884
20
-32.1885
11
-11.7887
21
-32.1884
0
LINE
8
BLACK
6
CONTINUOUS
10
-11.7887
20
-32.1884
11
-11.7906
21
-32.1871
0
LINE
8
BLACK
6
CONTINUOUS
10
-11.7906
20
-32.1871
11
-11.7925
21
-32.1858
0
LINE
8
BLACK
6
CONTINUOUS
10
-11.7925
20
-32.1858
11
-11.8681
21
-32.1242
0
LINE
8
BLACK
6
CONTINUOUS
10
-11.8681
20
-32.1242
11
-11.8681
21
-32.1242
0
LINE
8
BLACK
6
CONTINUOUS
10
-11.8681
20
-32.1242
11
-11.8681
21
-32.1242
0
LINE
8
BLACK
6
CONTINUOUS
10
-11.8681
20
-32.1242
11
-11.8684
21
-32.1239
0
LINE
8
BLACK
6
CONTINUOUS
10
-11.8684
20
-32.1239
11
-11.87
21
-32.1223
0
LINE
8
BLACK
6
CONTINUOUS
10
-11.87
20
-32.1223
11
-11.8716
21
-32.1207
0
LINE
8
BLACK
6
CONTINUOUS
10
-11.8716
20
-32.1207
11
-11.9338
21
-32.0455
0
LINE
8
BLACK
6
CONTINUOUS
10
-11.9338
20
-32.0455
11
-11.934
21
-32.0453
0
LINE
8
BLACK
6
CONTINUOUS
10
-11.934
20
-32.0453
11
-11.9353
21
-32.0434
0
LINE
8
BLACK
6
CONTINUOUS
10
-11.9353
20
-32.0434
11
-11.9365
21
-32.0415
0
LINE
8
BLACK
6
CONTINUOUS
10
-11.9365
20
-32.0415
11
-11.9829
21
-31.9556
0
LINE
8
BLACK
6
CONTINUOUS
10
-11.9829
20
-31.9556
11
-11.9831
21
-31.9553
0
LINE
8
BLACK
6
CONTINUOUS
10
-11.9831
20
-31.9553
11
-11.9839
21
-31.9532
0
LINE
8
BLACK
6
CONTINUOUS
10
-11.9839
20
-31.9532
11
-11.9848
21
-31.9512
0
LINE
8
BLACK
6
CONTINUOUS
10
-11.9848
20
-31.9512
11
-12.0137
21
-31.8579
0
LINE
8
BLACK
6
CONTINUOUS
10
-12.0137
20
-31.8579
11
-12.0138
21
-31.8576
0
LINE
8
BLACK
6
CONTINUOUS
10
-12.0138
20
-31.8576
11
-12.0142
21
-31.8554
0
LINE
8
BLACK
6
CONTINUOUS
10
-12.0142
20
-31.8554
11
-12.0147
21
-31.8532
0
LINE
8
BLACK
6
CONTINUOUS
10
-12.0147
20
-31.8532
11
-12.0249
21
-31.7561
0
LINE
8
BLACK
6
CONTINUOUS
10
-12.0249
20
-31.7561
11
-12.0249
21
-31.7558
0
LINE
8
BLACK
6
CONTINUOUS
10
-12.0249
20
-31.7558
11
-12.0249
21
-31.7547
0
LINE
8
BLACK
6
CONTINUOUS
10
-12.0249
20
-31.7547
11
-12.025
21
-31.7536
0
LINE
8
BLACK
6
CONTINUOUS
10
-12.025
20
-31.7536
11
-12.025
21
-31.7513
0
LINE
8
BLACK
6
CONTINUOUS
10
-12.025
20
-31.7513
11
-12.025
21
-31.7512
0
LINE
8
BLACK
6
CONTINUOUS
10
-12.025
20
-31.7512
11
-12.025
21
-28.2501
0
LINE
8
BLACK
6
CONTINUOUS
10
-12.025
20
-28.2501
11
-12.025
21
-28.2501
0
LINE
8
BLACK
6
CONTINUOUS
10
-12.025
20
-28.2501
11
-12.0251
21
-28.2356
0
LINE
8
BLACK
6
CONTINUOUS
10
-12.0251
20
-28.2356
11
-12.0706
21
-27.8026
0
LINE
8
BLACK
6
CONTINUOUS
10
-12.0706
20
-27.8026
11
-12.199
21
-27.3878
0
LINE
8
BLACK
6
CONTINUOUS
10
-12.199
20
-27.3878
11
-12.4055
21
-27.0059
0
LINE
8
BLACK
6
CONTINUOUS
10
-12.4055
20
-27.0059
11
-12.6823
21
-26.6713
0
LINE
8
BLACK
6
CONTINUOUS
10
-12.6823
20
-26.6713
11
-13.0188
21
-26.3968
0
LINE
8
BLACK
6
CONTINUOUS
10
-13.0188
20
-26.3968
11
-13.4022
21
-26.193
0
LINE
8
BLACK
6
CONTINUOUS
10
-13.4022
20
-26.193
11
-13.8179
21
-26.0675
0
LINE
8
BLACK
6
CONTINUOUS
10
-13.8179
20
-26.0675
11
-14.2524
21
-26.0249
0
LINE
8
BLACK
6
CONTINUOUS
10
-14.2524
20
-26.0249
11
-14.2527
21
-26.0249
0
LINE
8
BLACK
6
CONTINUOUS
10
-14.2527
20
-26.0249
11
-14.2549
21
-26.0246
0
LINE
8
BLACK
6
CONTINUOUS
10
-14.2549
20
-26.0246
11
-14.2596
21
-26.0232
0
LINE
8
BLACK
6
CONTINUOUS
10
-14.2596
20
-26.0232
11
-14.264
21
-26.0209
0
LINE
8
BLACK
6
CONTINUOUS
10
-14.264
20
-26.0209
11
-14.2678
21
-26.0178
0
LINE
8
BLACK
6
CONTINUOUS
10
-14.2678
20
-26.0178
11
-14.2709
21
-26.014
0
LINE
8
BLACK
6
CONTINUOUS
10
-14.2709
20
-26.014
11
-14.2732
21
-26.0096
0
LINE
8
BLACK
6
CONTINUOUS
10
-14.2732
20
-26.0096
11
-14.2746
21
-26.0049
0
LINE
8
BLACK
6
CONTINUOUS
10
-14.2746
20
-26.0049
11
-14.275
21
-26.0012
0
LINE
8
BLACK
6
CONTINUOUS
10
-14.275
20
-26.0012
11
-14.275
21
-24.0002
0
LINE
8
BLACK
6
CONTINUOUS
10
-14.275
20
-24.0002
11
-14.2751
21
-23.991
0
LINE
8
BLACK
6
CONTINUOUS
10
-14.2751
20
-23.991
11
-14.291
21
-23.8493
0
LINE
8
BLACK
6
CONTINUOUS
10
-14.291
20
-23.8493
11
-14.3337
21
-23.7144
0
LINE
8
BLACK
6
CONTINUOUS
10
-14.3337
20
-23.7144
11
-14.4019
21
-23.5905
0
LINE
8
BLACK
6
CONTINUOUS
10
-14.4019
20
-23.5905
11
-14.4928
21
-23.4821
0
LINE
8
BLACK
6
CONTINUOUS
10
-14.4928
20
-23.4821
11
-14.6031
21
-23.3934
0
LINE
8
BLACK
6
CONTINUOUS
10
-14.6031
20
-23.3934
11
-14.7285
21
-23.3279
0
LINE
8
BLACK
6
CONTINUOUS
10
-14.7285
20
-23.3279
11
-14.8642
21
-23.288
0
LINE
8
BLACK
6
CONTINUOUS
10
-14.8642
20
-23.288
11
-15.0051
21
-23.2751
0
LINE
8
BLACK
6
CONTINUOUS
10
-15.0051
20
-23.2751
11
-15.1458
21
-23.2899
0
LINE
8
BLACK
6
CONTINUOUS
10
-15.1458
20
-23.2899
11
-15.2809
21
-23.3318
0
LINE
8
BLACK
6
CONTINUOUS
10
-15.2809
20
-23.3318
11
-15.4053
21
-23.399
0
LINE
8
BLACK
6
CONTINUOUS
10
-15.4053
20
-23.399
11
-15.5144
21
-23.4892
0
LINE
8
BLACK
6
CONTINUOUS
10
-15.5144
20
-23.4892
11
-15.6038
21
-23.5989
0
LINE
8
BLACK
6
CONTINUOUS
10
-15.6038
20
-23.5989
11
-15.6702
21
-23.7238
0
LINE
8
BLACK
6
CONTINUOUS
10
-15.6702
20
-23.7238
11
-15.7111
21
-23.8592
0
LINE
8
BLACK
6
CONTINUOUS
10
-15.7111
20
-23.8592
11
-15.725
21
-24.0012
0
LINE
8
BLACK
6
CONTINUOUS
10
-15.725
20
-24.0012
11
-15.725
21
-25.7512
0
LINE
8
BLACK
6
CONTINUOUS
10
-15.725
20
-25.7512
11
-15.7251
21
-25.7524
0
LINE
8
BLACK
6
CONTINUOUS
10
-15.7251
20
-25.7524
11
-15.7251
21
-25.7524
0
LINE
8
BLACK
6
CONTINUOUS
10
-15.7251
20
-25.7524
11
-15.7299
21
-25.801
0
LINE
8
BLACK
6
CONTINUOUS
10
-15.7299
20
-25.801
11
-15.7299
21
-25.8013
0
LINE
8
BLACK
6
CONTINUOUS
10
-15.7299
20
-25.8013
11
-15.7304
21
-25.8036
0
LINE
8
BLACK
6
CONTINUOUS
10
-15.7304
20
-25.8036
11
-15.7308
21
-25.8058
0
LINE
8
BLACK
6
CONTINUOUS
10
-15.7308
20
-25.8058
11
-15.7449
21
-25.8525
0
LINE
8
BLACK
6
CONTINUOUS
10
-15.7449
20
-25.8525
11
-15.745
21
-25.8528
0
LINE
8
BLACK
6
CONTINUOUS
10
-15.745
20
-25.8528
11
-15.7459
21
-25.8549
0
LINE
8
BLACK
6
CONTINUOUS
10
-15.7459
20
-25.8549
11
-15.7468
21
-25.857
0
LINE
8
BLACK
6
CONTINUOUS
10
-15.7468
20
-25.857
11
-15.7697
21
-25.9001
0
LINE
8
BLACK
6
CONTINUOUS
10
-15.7697
20
-25.9001
11
-15.7697
21
-25.9001
0
LINE
8
BLACK
6
CONTINUOUS
10
-15.7697
20
-25.9001
11
-15.7697
21
-25.9001
0
LINE
8
BLACK
6
CONTINUOUS
10
-15.7697
20
-25.9001
11
-15.7699
21
-25.9004
0
LINE
8
BLACK
6
CONTINUOUS
10
-15.7699
20
-25.9004
11
-15.7711
21
-25.9022
0
LINE
8
BLACK
6
CONTINUOUS
10
-15.7711
20
-25.9022
11
-15.7724
21
-25.9041
0
LINE
8
BLACK
6
CONTINUOUS
10
-15.7724
20
-25.9041
11
-15.8032
21
-25.942
0
LINE
8
BLACK
6
CONTINUOUS
10
-15.8032
20
-25.942
11
-15.8035
21
-25.9422
0
LINE
8
BLACK
6
CONTINUOUS
10
-15.8035
20
-25.9422
11
-15.8051
21
-25.9439
0
LINE
8
BLACK
6
CONTINUOUS
10
-15.8051
20
-25.9439
11
-15.8067
21
-25.9454
0
LINE
8
BLACK
6
CONTINUOUS
10
-15.8067
20
-25.9454
11
-15.8443
21
-25.9765
0
LINE
8
BLACK
6
CONTINUOUS
10
-15.8443
20
-25.9765
11
-15.8443
21
-25.9765
0
LINE
8
BLACK
6
CONTINUOUS
10
-15.8443
20
-25.9765
11
-15.8443
21
-25.9765
0
LINE
8
BLACK
6
CONTINUOUS
10
-15.8443
20
-25.9765
11
-15.8445
21
-25.9767
0
LINE
8
BLACK
6
CONTINUOUS
10
-15.8445
20
-25.9767
11
-15.8464
21
-25.978
0
LINE
8
BLACK
6
CONTINUOUS
10
-15.8464
20
-25.978
11
-15.8483
21
-25.9793
0
LINE
8
BLACK
6
CONTINUOUS
10
-15.8483
20
-25.9793
11
-15.8912
21
-26.0025
0
LINE
8
BLACK
6
CONTINUOUS
10
-15.8912
20
-26.0025
11
-15.8915
21
-26.0026
0
LINE
8
BLACK
6
CONTINUOUS
10
-15.8915
20
-26.0026
11
-15.8936
21
-26.0035
0
LINE
8
BLACK
6
CONTINUOUS
10
-15.8936
20
-26.0035
11
-15.8957
21
-26.0043
0
LINE
8
BLACK
6
CONTINUOUS
10
-15.8957
20
-26.0043
11
-15.9423
21
-26.0188
0
LINE
8
BLACK
6
CONTINUOUS
10
-15.9423
20
-26.0188
11
-15.9427
21
-26.0189
0
LINE
8
BLACK
6
CONTINUOUS
10
-15.9427
20
-26.0189
11
-15.9449
21
-26.0193
0
LINE
8
BLACK
6
CONTINUOUS
10
-15.9449
20
-26.0193
11
-15.9471
21
-26.0198
0
LINE
8
BLACK
6
CONTINUOUS
10
-15.9471
20
-26.0198
11
-15.9956
21
-26.0249
0
LINE
8
BLACK
6
CONTINUOUS
10
-15.9956
20
-26.0249
11
-15.996
21
-26.0249
0
LINE
8
BLACK
6
CONTINUOUS
10
-15.996
20
-26.0249
11
-15.9971
21
-26.0249
0
LINE
8
BLACK
6
CONTINUOUS
10
-15.9971
20
-26.0249
11
-15.9982
21
-26.025
0
LINE
8
BLACK
6
CONTINUOUS
10
-15.9982
20
-26.025
11
-15.9987
21
-26.025
0
LINE
8
BLACK
6
CONTINUOUS
10
-15.9987
20
-26.025
11
-15.9988
21
-26.025
0
LINE
8
BLACK
6
CONTINUOUS
10
-15.9988
20
-26.025
11
-18.2512
21
-26.025
0
LINE
8
BLACK
6
CONTINUOUS
10
-18.2512
20
-26.025
11
-18.2524
21
-26.0249
0
LINE
8
BLACK
6
CONTINUOUS
10
-18.2524
20
-26.0249
11
-18.2524
21
-26.0249
0
LINE
8
BLACK
6
CONTINUOUS
10
-18.2524
20
-26.0249
11
-18.301
21
-26.0201
0
LINE
8
BLACK
6
CONTINUOUS
10
-18.301
20
-26.0201
11
-18.301
21
-26.0201
0
LINE
8
BLACK
6
CONTINUOUS
10
-18.301
20
-26.0201
11
-18.3013
21
-26.0201
0
LINE
8
BLACK
6
CONTINUOUS
10
-18.3013
20
-26.0201
11
-18.3036
21
-26.0196
0
LINE
8
BLACK
6
CONTINUOUS
10
-18.3036
20
-26.0196
11
-18.3058
21
-26.0192
0
LINE
8
BLACK
6
CONTINUOUS
10
-18.3058
20
-26.0192
11
-18.3525
21
-26.0051
0
LINE
8
BLACK
6
CONTINUOUS
10
-18.3525
20
-26.0051
11
-18.3528
21
-26.005
0
LINE
8
BLACK
6
CONTINUOUS
10
-18.3528
20
-26.005
11
-18.3549
21
-26.0041
0
LINE
8
BLACK
6
CONTINUOUS
10
-18.3549
20
-26.0041
11
-18.357
21
-26.0032
0
LINE
8
BLACK
6
CONTINUOUS
10
-18.357
20
-26.0032
11
-18.4001
21
-25.9803
0
LINE
8
BLACK
6
CONTINUOUS
10
-18.4001
20
-25.9803
11
-18.4001
21
-25.9803
0
LINE
8
BLACK
6
CONTINUOUS
10
-18.4001
20
-25.9803
11
-18.4001
21
-25.9803
0
LINE
8
BLACK
6
CONTINUOUS
10
-18.4001
20
-25.9803
11
-18.4004
21
-25.9801
0
LINE
8
BLACK
6
CONTINUOUS
10
-18.4004
20
-25.9801
11
-18.4022
21
-25.9789
0
LINE
8
BLACK
6
CONTINUOUS
10
-18.4022
20
-25.9789
11
-18.4041
21
-25.9776
0
LINE
8
BLACK
6
CONTINUOUS
10
-18.4041
20
-25.9776
11
-18.442
21
-25.9468
0
LINE
8
BLACK
6
CONTINUOUS
10
-18.442
20
-25.9468
11
-18.4422
21
-25.9465
0
LINE
8
BLACK
6
CONTINUOUS
10
-18.4422
20
-25.9465
11
-18.4439
21
-25.9449
0
LINE
8
BLACK
6
CONTINUOUS
10
-18.4439
20
-25.9449
11
-18.4454
21
-25.9433
0
LINE
8
BLACK
6
CONTINUOUS
10
-18.4454
20
-25.9433
11
-18.4765
21
-25.9057
0
LINE
8
BLACK
6
CONTINUOUS
10
-18.4765
20
-25.9057
11
-18.4765
21
-25.9057
0
LINE
8
BLACK
6
CONTINUOUS
10
-18.4765
20
-25.9057
11
-18.4765
21
-25.9057
0
LINE
8
BLACK
6
CONTINUOUS
10
-18.4765
20
-25.9057
11
-18.4767
21
-25.9055
0
LINE
8
BLACK
6
CONTINUOUS
10
-18.4767
20
-25.9055
11
-18.478
21
-25.9036
0
LINE
8
BLACK
6
CONTINUOUS
10
-18.478
20
-25.9036
11
-18.4793
21
-25.9017
0
LINE
8
BLACK
6
CONTINUOUS
10
-18.4793
20
-25.9017
11
-18.5025
21
-25.8588
0
LINE
8
BLACK
6
CONTINUOUS
10
-18.5025
20
-25.8588
11
-18.5026
21
-25.8585
0
LINE
8
BLACK
6
CONTINUOUS
10
-18.5026
20
-25.8585
11
-18.5035
21
-25.8563
0
LINE
8
BLACK
6
CONTINUOUS
10
-18.5035
20
-25.8563
11
-18.5043
21
-25.8543
0
LINE
8
BLACK
6
CONTINUOUS
10
-18.5043
20
-25.8543
11
-18.5188
21
-25.8077
0
LINE
8
BLACK
6
CONTINUOUS
10
-18.5188
20
-25.8077
11
-18.5189
21
-25.8073
0
LINE
8
BLACK
6
CONTINUOUS
10
-18.5189
20
-25.8073
11
-18.5193
21
-25.8051
0
LINE
8
BLACK
6
CONTINUOUS
10
-18.5193
20
-25.8051
11
-18.5198
21
-25.8029
0
LINE
8
BLACK
6
CONTINUOUS
10
-18.5198
20
-25.8029
11
-18.5249
21
-25.7544
0
LINE
8
BLACK
6
CONTINUOUS
10
-18.5249
20
-25.7544
11
-18.5249
21
-25.754
0
LINE
8
BLACK
6
CONTINUOUS
10
-18.5249
20
-25.754
11
-18.5249
21
-25.7529
0
LINE
8
BLACK
6
CONTINUOUS
10
-18.5249
20
-25.7529
11
-18.525
21
-25.7518
0
LINE
8
BLACK
6
CONTINUOUS
10
-18.525
20
-25.7518
11
-18.525
21
-25.7513
0
LINE
8
BLACK
6
CONTINUOUS
10
-18.525
20
-25.7513
11
-18.525
21
-25.7512
0
LINE
8
BLACK
6
CONTINUOUS
10
-18.525
20
-25.7512
11
-18.525
21
15.7488
0
LINE
8
BLACK
6
CONTINUOUS
10
-18.525
20
15.7488
11
-18.525
21
15.7488
0
LINE
8
BLACK
6
CONTINUOUS
10
-18.525
20
15.7488
11
-18.525
21
25.7512
0
LINE
8
BLACK
6
CONTINUOUS
10
-18.525
20
25.7512
11
-18.5249
21
25.7524
0
LINE
8
BLACK
6
CONTINUOUS
10
-18.5249
20
25.7524
11
-18.5249
21
25.7524
0
LINE
8
BLACK
6
CONTINUOUS
10
-18.5249
20
25.7524
11
-18.5201
21
25.801
0
LINE
8
BLACK
6
CONTINUOUS
10
-18.5201
20
25.801
11
-18.5201
21
25.8013
0
LINE
8
BLACK
6
CONTINUOUS
10
-18.5201
20
25.8013
11
-18.5196
21
25.8036
0
LINE
8
BLACK
6
CONTINUOUS
10
-18.5196
20
25.8036
11
-18.5192
21
25.8058
0
LINE
8
BLACK
6
CONTINUOUS
10
-18.5192
20
25.8058
11
-18.5051
21
25.8525
0
LINE
8
BLACK
6
CONTINUOUS
10
-18.5051
20
25.8525
11
-18.505
21
25.8528
0
LINE
8
BLACK
6
CONTINUOUS
10
-18.505
20
25.8528
11
-18.5041
21
25.8549
0
LINE
8
BLACK
6
CONTINUOUS
10
-18.5041
20
25.8549
11
-18.5032
21
25.857
0
LINE
8
BLACK
6
CONTINUOUS
10
-18.5032
20
25.857
11
-18.4803
21
25.9001
0
LINE
8
BLACK
6
CONTINUOUS
10
-18.4803
20
25.9001
11
-18.4801
21
25.9004
0
LINE
8
BLACK
6
CONTINUOUS
10
-18.4801
20
25.9004
11
-18.4788
21
25.9023
0
LINE
8
BLACK
6
CONTINUOUS
10
-18.4788
20
25.9023
11
-18.4776
21
25.9041
0
LINE
8
BLACK
6
CONTINUOUS
10
-18.4776
20
25.9041
11
-18.4468
21
25.942
0
LINE
8
BLACK
6
CONTINUOUS
10
-18.4468
20
25.942
11
-18.4465
21
25.9422
0
LINE
8
BLACK
6
CONTINUOUS
10
-18.4465
20
25.9422
11
-18.4449
21
25.9438
0
LINE
8
BLACK
6
CONTINUOUS
10
-18.4449
20
25.9438
11
-18.4433
21
25.9454
0
LINE
8
BLACK
6
CONTINUOUS
10
-18.4433
20
25.9454
11
-18.4057
21
25.9765
0
LINE
8
BLACK
6
CONTINUOUS
10
-18.4057
20
25.9765
11
-18.4057
21
25.9765
0
LINE
8
BLACK
6
CONTINUOUS
10
-18.4057
20
25.9765
11
-18.4057
21
25.9765
0
LINE
8
BLACK
6
CONTINUOUS
10
-18.4057
20
25.9765
11
-18.4055
21
25.9767
0
LINE
8
BLACK
6
CONTINUOUS
10
-18.4055
20
25.9767
11
-18.4036
21
25.978
0
LINE
8
BLACK
6
CONTINUOUS
10
-18.4036
20
25.978
11
-18.4017
21
25.9793
0
LINE
8
BLACK
6
CONTINUOUS
10
-18.4017
20
25.9793
11
-18.3588
21
26.0025
0
LINE
8
BLACK
6
CONTINUOUS
10
-18.3588
20
26.0025
11
-18.3585
21
26.0026
0
LINE
8
BLACK
6
CONTINUOUS
10
-18.3585
20
26.0026
11
-18.3563
21
26.0035
0
LINE
8
BLACK
6
CONTINUOUS
10
-18.3563
20
26.0035
11
-18.3543
21
26.0043
0
LINE
8
BLACK
6
CONTINUOUS
10
-18.3543
20
26.0043
11
-18.3077
21
26.0188
0
LINE
8
BLACK
6
CONTINUOUS
10
-18.3077
20
26.0188
11
-18.3073
21
26.0189
0
LINE
8
BLACK
6
CONTINUOUS
10
-18.3073
20
26.0189
11
-18.3051
21
26.0193
0
LINE
8
BLACK
6
CONTINUOUS
10
-18.3051
20
26.0193
11
-18.3029
21
26.0198
0
LINE
8
BLACK
6
CONTINUOUS
10
-18.3029
20
26.0198
11
-18.2544
21
26.0249
0
LINE
8
BLACK
6
CONTINUOUS
10
-18.2544
20
26.0249
11
-18.254
21
26.0249
0
LINE
8
BLACK
6
CONTINUOUS
10
-18.254
20
26.0249
11
-18.2529
21
26.0249
0
LINE
8
BLACK
6
CONTINUOUS
10
-18.2529
20
26.0249
11
-18.2518
21
26.025
0
LINE
8
BLACK
6
CONTINUOUS
10
-18.2518
20
26.025
11
-18.2513
21
26.025
0
LINE
8
BLACK
6
CONTINUOUS
10
-18.2513
20
26.025
11
-18.2512
21
26.025
0
LINE
8
BLACK
6
CONTINUOUS
10
-18.2512
20
26.025
11
-15.9988
21
26.025
0
LINE
8
BLACK
6
CONTINUOUS
10
-15.9988
20
26.025
11
-15.9976
21
26.0249
0
LINE
8
BLACK
6
CONTINUOUS
10
-15.9976
20
26.0249
11
-15.9976
21
26.0249
0
LINE
8
BLACK
6
CONTINUOUS
10
-15.9976
20
26.0249
11
-15.949
21
26.0201
0
LINE
8
BLACK
6
CONTINUOUS
10
-15.949
20
26.0201
11
-15.9487
21
26.0201
0
LINE
8
BLACK
6
CONTINUOUS
10
-15.9487
20
26.0201
11
-15.9464
21
26.0196
0
LINE
8
BLACK
6
CONTINUOUS
10
-15.9464
20
26.0196
11
-15.9442
21
26.0192
0
LINE
8
BLACK
6
CONTINUOUS
10
-15.9442
20
26.0192
11
-15.8975
21
26.0051
0
LINE
8
BLACK
6
CONTINUOUS
10
-15.8975
20
26.0051
11
-15.8975
21
26.0051
0
LINE
8
BLACK
6
CONTINUOUS
10
-15.8975
20
26.0051
11
-15.8972
21
26.005
0
LINE
8
BLACK
6
CONTINUOUS
10
-15.8972
20
26.005
11
-15.8951
21
26.0041
0
LINE
8
BLACK
6
CONTINUOUS
10
-15.8951
20
26.0041
11
-15.893
21
26.0032
0
LINE
8
BLACK
6
CONTINUOUS
10
-15.893
20
26.0032
11
-15.8499
21
25.9803
0
LINE
8
BLACK
6
CONTINUOUS
10
-15.8499
20
25.9803
11
-15.8496
21
25.9801
0
LINE
8
BLACK
6
CONTINUOUS
10
-15.8496
20
25.9801
11
-15.8477
21
25.9788
0
LINE
8
BLACK
6
CONTINUOUS
10
-15.8477
20
25.9788
11
-15.8459
21
25.9776
0
LINE
8
BLACK
6
CONTINUOUS
10
-15.8459
20
25.9776
11
-15.808
21
25.9468
0
LINE
8
BLACK
6
CONTINUOUS
10
-15.808
20
25.9468
11
-15.8078
21
25.9465
0
LINE
8
BLACK
6
CONTINUOUS
10
-15.8078
20
25.9465
11
-15.8062
21
25.9449
0
LINE
8
BLACK
6
CONTINUOUS
10
-15.8062
20
25.9449
11
-15.8046
21
25.9433
0
LINE
8
BLACK
6
CONTINUOUS
10
-15.8046
20
25.9433
11
-15.7735
21
25.9057
0
LINE
8
BLACK
6
CONTINUOUS
10
-15.7735
20
25.9057
11
-15.7735
21
25.9057
0
LINE
8
BLACK
6
CONTINUOUS
10
-15.7735
20
25.9057
11
-15.7735
21
25.9057
0
LINE
8
BLACK
6
CONTINUOUS
10
-15.7735
20
25.9057
11
-15.7733
21
25.9055
0
LINE
8
BLACK
6
CONTINUOUS
10
-15.7733
20
25.9055
11
-15.772
21
25.9036
0
LINE
8
BLACK
6
CONTINUOUS
10
-15.772
20
25.9036
11
-15.7707
21
25.9017
0
LINE
8
BLACK
6
CONTINUOUS
10
-15.7707
20
25.9017
11
-15.7475
21
25.8588
0
LINE
8
BLACK
6
CONTINUOUS
10
-15.7475
20
25.8588
11
-15.7474
21
25.8585
0
LINE
8
BLACK
6
CONTINUOUS
10
-15.7474
20
25.8585
11
-15.7465
21
25.8563
0
LINE
8
BLACK
6
CONTINUOUS
10
-15.7465
20
25.8563
11
-15.7457
21
25.8543
0
LINE
8
BLACK
6
CONTINUOUS
10
-15.7457
20
25.8543
11
-15.7312
21
25.8077
0
LINE
8
BLACK
6
CONTINUOUS
10
-15.7312
20
25.8077
11
-15.7311
21
25.8073
0
LINE
8
BLACK
6
CONTINUOUS
10
-15.7311
20
25.8073
11
-15.7307
21
25.8051
0
LINE
8
BLACK
6
CONTINUOUS
10
-15.7307
20
25.8051
11
-15.7302
21
25.8029
0
LINE
8
BLACK
6
CONTINUOUS
10
-15.7302
20
25.8029
11
-15.7251
21
25.7544
0
LINE
8
BLACK
6
CONTINUOUS
10
-15.7251
20
25.7544
11
-15.7251
21
25.754
0
LINE
8
BLACK
6
CONTINUOUS
10
-15.7251
20
25.754
11
-15.7251
21
25.7529
0
LINE
8
BLACK
6
CONTINUOUS
10
-15.7251
20
25.7529
11
-15.725
21
25.7518
0
LINE
8
BLACK
6
CONTINUOUS
10
-15.725
20
25.7518
11
-15.725
21
25.7513
0
LINE
8
BLACK
6
CONTINUOUS
10
-15.725
20
25.7513
11
-15.725
21
25.7512
0
LINE
8
BLACK
6
CONTINUOUS
10
-15.725
20
25.7512
11
-15.725
21
24
0
LINE
8
BLACK
6
CONTINUOUS
10
-15.725
20
24
11
-15.7249
21
23.991
0
LINE
8
BLACK
6
CONTINUOUS
10
-15.7249
20
23.991
11
-15.709
21
23.8493
0
LINE
8
BLACK
6
CONTINUOUS
10
-15.709
20
23.8493
11
-15.6663
21
23.7144
0
LINE
8
BLACK
6
CONTINUOUS
10
-15.6663
20
23.7144
11
-15.5981
21
23.5905
0
LINE
8
BLACK
6
CONTINUOUS
10
-15.5981
20
23.5905
11
-15.5072
21
23.4821
0
LINE
8
BLACK
6
CONTINUOUS
10
-15.5072
20
23.4821
11
-15.3969
21
23.3934
0
LINE
8
BLACK
6
CONTINUOUS
10
-15.3969
20
23.3934
11
-15.2715
21
23.3279
0
LINE
8
BLACK
6
CONTINUOUS
10
-15.2715
20
23.3279
11
-15.1358
21
23.288
0
LINE
8
BLACK
6
CONTINUOUS
10
-15.1358
20
23.288
11
-14.9949
21
23.2751
0
LINE
8
BLACK
6
CONTINUOUS
10
-14.9949
20
23.2751
11
-14.8542
21
23.2899
0
LINE
8
BLACK
6
CONTINUOUS
10
-14.8542
20
23.2899
11
-14.7191
21
23.3318
0
LINE
8
BLACK
6
CONTINUOUS
10
-14.7191
20
23.3318
11
-14.5947
21
23.399
0
LINE
8
BLACK
6
CONTINUOUS
10
-14.5947
20
23.399
11
-14.4856
21
23.4892
0
LINE
8
BLACK
6
CONTINUOUS
10
-14.4856
20
23.4892
11
-14.3962
21
23.5989
0
LINE
8
BLACK
6
CONTINUOUS
10
-14.3962
20
23.5989
11
-14.3298
21
23.7238
0
LINE
8
BLACK
6
CONTINUOUS
10
-14.3298
20
23.7238
11
-14.2889
21
23.8592
0
LINE
8
BLACK
6
CONTINUOUS
10
-14.2889
20
23.8592
11
-14.275
21
24.0012
0
LINE
8
BLACK
6
CONTINUOUS
10
-14.275
20
24.0012
11
-14.275
21
26.0012
0
LINE
8
BLACK
6
CONTINUOUS
10
-14.275
20
26.0012
11
-14.2746
21
26.0049
0
LINE
8
BLACK
6
CONTINUOUS
10
-14.2746
20
26.0049
11
-14.2732
21
26.0096
0
LINE
8
BLACK
6
CONTINUOUS
10
-14.2732
20
26.0096
11
-14.2709
21
26.014
0
LINE
8
BLACK
6
CONTINUOUS
10
-14.2709
20
26.014
11
-14.2678
21
26.0178
0
LINE
8
BLACK
6
CONTINUOUS
10
-14.2678
20
26.0178
11
-14.264
21
26.0209
0
LINE
8
BLACK
6
CONTINUOUS
10
-14.264
20
26.0209
11
-14.2596
21
26.0232
0
LINE
8
BLACK
6
CONTINUOUS
10
-14.2596
20
26.0232
11
-14.2549
21
26.0246
0
LINE
8
BLACK
6
CONTINUOUS
10
-14.2549
20
26.0246
11
-14.25
21
26.0251
0
LINE
8
BLACK
6
CONTINUOUS
10
-14.25
20
26.0251
11
-14.2488
21
26.025
0
LINE
8
BLACK
6
CONTINUOUS
10
-14.2488
20
26.025
11
-14.2356
21
26.0251
0
LINE
8
BLACK
6
CONTINUOUS
10
-14.2356
20
26.0251
11
-13.8026
21
26.0706
0
LINE
8
BLACK
6
CONTINUOUS
10
-13.8026
20
26.0706
11
-13.3878
21
26.199
0
LINE
8
BLACK
6
CONTINUOUS
10
-13.3878
20
26.199
11
-13.0059
21
26.4055
0
LINE
8
BLACK
6
CONTINUOUS
10
-13.0059
20
26.4055
11
-12.6713
21
26.6823
0
LINE
8
BLACK
6
CONTINUOUS
10
-12.6713
20
26.6823
11
-12.3968
21
27.0188
0
LINE
8
BLACK
6
CONTINUOUS
10
-12.3968
20
27.0188
11
-12.193
21
27.4022
0
LINE
8
BLACK
6
CONTINUOUS
10
-12.193
20
27.4022
11
-12.0675
21
27.8179
0
LINE
8
BLACK
6
CONTINUOUS
10
-12.0675
20
27.8179
11
-12.025
21
28.2512
0
LINE
8
BLACK
6
CONTINUOUS
10
-12.025
20
28.2512
11
-12.025
21
31.7512
0
LINE
8
BLACK
6
CONTINUOUS
10
-12.025
20
31.7512
11
-12.0249
21
31.7524
0
LINE
8
BLACK
6
CONTINUOUS
10
-12.0249
20
31.7524
11
-12.0249
21
31.7524
0
LINE
8
BLACK
6
CONTINUOUS
10
-12.0249
20
31.7524
11
-12.0154
21
31.8496
0
LINE
8
BLACK
6
CONTINUOUS
10
-12.0154
20
31.8496
11
-12.0153
21
31.8499
0
LINE
8
BLACK
6
CONTINUOUS
10
-12.0153
20
31.8499
11
-12.0148
21
31.8521
0
LINE
8
BLACK
6
CONTINUOUS
10
-12.0148
20
31.8521
11
-12.0144
21
31.8543
0
LINE
8
BLACK
6
CONTINUOUS
10
-12.0144
20
31.8543
11
-11.9862
21
31.9478
0
LINE
8
BLACK
6
CONTINUOUS
10
-11.9862
20
31.9478
11
-11.9861
21
31.9481
0
LINE
8
BLACK
6
CONTINUOUS
10
-11.9861
20
31.9481
11
-11.9852
21
31.9502
0
LINE
8
BLACK
6
CONTINUOUS
10
-11.9852
20
31.9502
11
-11.9843
21
31.9523
0
LINE
8
BLACK
6
CONTINUOUS
10
-11.9843
20
31.9523
11
-11.9385
21
32.0384
0
LINE
8
BLACK
6
CONTINUOUS
10
-11.9385
20
32.0384
11
-11.9384
21
32.0387
0
LINE
8
BLACK
6
CONTINUOUS
10
-11.9384
20
32.0387
11
-11.9371
21
32.0406
0
LINE
8
BLACK
6
CONTINUOUS
10
-11.9371
20
32.0406
11
-11.9358
21
32.0425
0
LINE
8
BLACK
6
CONTINUOUS
10
-11.9358
20
32.0425
11
-11.8742
21
32.1181
0
LINE
8
BLACK
6
CONTINUOUS
10
-11.8742
20
32.1181
11
-11.8739
21
32.1184
0
LINE
8
BLACK
6
CONTINUOUS
10
-11.8739
20
32.1184
11
-11.8723
21
32.12
0
LINE
8
BLACK
6
CONTINUOUS
10
-11.8723
20
32.12
11
-11.8707
21
32.1216
0
LINE
8
BLACK
6
CONTINUOUS
10
-11.8707
20
32.1216
11
-11.7955
21
32.1838
0
LINE
8
BLACK
6
CONTINUOUS
10
-11.7955
20
32.1838
11
-11.7953
21
32.184
0
LINE
8
BLACK
6
CONTINUOUS
10
-11.7953
20
32.184
11
-11.7933
21
32.1853
0
LINE
8
BLACK
6
CONTINUOUS
10
-11.7933
20
32.1853
11
-11.7915
21
32.1865
0
LINE
8
BLACK
6
CONTINUOUS
10
-11.7915
20
32.1865
11
-11.7056
21
32.2329
0
LINE
8
BLACK
6
CONTINUOUS
10
-11.7056
20
32.2329
11
-11.7053
21
32.2331
0
LINE
8
BLACK
6
CONTINUOUS
10
-11.7053
20
32.2331
11
-11.7032
21
32.2339
0
LINE
8
BLACK
6
CONTINUOUS
10
-11.7032
20
32.2339
11
-11.7012
21
32.2348
0
LINE
8
BLACK
6
CONTINUOUS
10
-11.7012
20
32.2348
11
-11.6079
21
32.2637
0
LINE
8
BLACK
6
CONTINUOUS
10
-11.6079
20
32.2637
11
-11.6076
21
32.2638
0
LINE
8
BLACK
6
CONTINUOUS
10
-11.6076
20
32.2638
11
-11.6054
21
32.2642
0
LINE
8
BLACK
6
CONTINUOUS
10
-11.6054
20
32.2642
11
-11.6032
21
32.2647
0
LINE
8
BLACK
6
CONTINUOUS
10
-11.6032
20
32.2647
11
-11.5061
21
32.2749
0
LINE
8
BLACK
6
CONTINUOUS
10
-11.5061
20
32.2749
11
-11.5058
21
32.2749
0
LINE
8
BLACK
6
CONTINUOUS
10
-11.5058
20
32.2749
11
-11.5047
21
32.2749
0
LINE
8
BLACK
6
CONTINUOUS
10
-11.5047
20
32.2749
11
-11.5036
21
32.275
0
LINE
8
BLACK
6
CONTINUOUS
10
-11.5036
20
32.275
11
-11.5013
21
32.275
0
LINE
8
BLACK
6
CONTINUOUS
10
-11.5013
20
32.275
11
-11.5012
21
32.275
0
LINE
8
BLACK
6
CONTINUOUS
10
-11.5012
20
32.275
11
11.5012
21
32.275
0
LINE
8
BLACK
6
CONTINUOUS
10
11.5012
20
32.275
11
11.5024
21
32.2749
0
LINE
8
BLACK
6
CONTINUOUS
10
11.5024
20
32.2749
11
11.5024
21
32.2749
0
LINE
8
BLACK
6
CONTINUOUS
10
11.5024
20
32.2749
11
11.5996
21
32.2654
0
LINE
8
BLACK
6
CONTINUOUS
10
11.5996
20
32.2654
11
11.5999
21
32.2653
0
LINE
8
BLACK
6
CONTINUOUS
10
11.5999
20
32.2653
11
11.6021
21
32.2648
0
LINE
8
BLACK
6
CONTINUOUS
10
11.6021
20
32.2648
11
11.6043
21
32.2644
0
LINE
8
BLACK
6
CONTINUOUS
10
11.6043
20
32.2644
11
11.6978
21
32.2362
0
LINE
8
BLACK
6
CONTINUOUS
10
11.6978
20
32.2362
11
11.6981
21
32.2361
0
LINE
8
BLACK
6
CONTINUOUS
10
11.6981
20
32.2361
11
11.7002
21
32.2352
0
LINE
8
BLACK
6
CONTINUOUS
10
11.7002
20
32.2352
11
11.7023
21
32.2343
0
LINE
8
BLACK
6
CONTINUOUS
10
11.7023
20
32.2343
11
11.7884
21
32.1885
0
LINE
8
BLACK
6
CONTINUOUS
10
11.7884
20
32.1885
11
11.7887
21
32.1884
0
LINE
8
BLACK
6
CONTINUOUS
10
11.7887
20
32.1884
11
11.7906
21
32.1871
0
LINE
8
BLACK
6
CONTINUOUS
10
11.7906
20
32.1871
11
11.7925
21
32.1858
0
LINE
8
BLACK
6
CONTINUOUS
10
11.7925
20
32.1858
11
11.8681
21
32.1242
0
LINE
8
BLACK
6
CONTINUOUS
10
11.8681
20
32.1242
11
11.8684
21
32.1239
0
LINE
8
BLACK
6
CONTINUOUS
10
11.8684
20
32.1239
11
11.87
21
32.1223
0
LINE
8
BLACK
6
CONTINUOUS
10
11.87
20
32.1223
11
11.8716
21
32.1207
0
LINE
8
BLACK
6
CONTINUOUS
10
11.8716
20
32.1207
11
11.9338
21
32.0455
0
LINE
8
BLACK
6
CONTINUOUS
10
11.9338
20
32.0455
11
11.934
21
32.0453
0
LINE
8
BLACK
6
CONTINUOUS
10
11.934
20
32.0453
11
11.9353
21
32.0433
0
LINE
8
BLACK
6
CONTINUOUS
10
11.9353
20
32.0433
11
11.9365
21
32.0415
0
LINE
8
BLACK
6
CONTINUOUS
10
11.9365
20
32.0415
11
11.9829
21
31.9556
0
LINE
8
BLACK
6
CONTINUOUS
10
11.9829
20
31.9556
11
11.9831
21
31.9553
0
LINE
8
BLACK
6
CONTINUOUS
10
11.9831
20
31.9553
11
11.9839
21
31.9532
0
LINE
8
BLACK
6
CONTINUOUS
10
11.9839
20
31.9532
11
11.9848
21
31.9512
0
LINE
8
BLACK
6
CONTINUOUS
10
11.9848
20
31.9512
11
12.0137
21
31.8579
0
LINE
8
BLACK
6
CONTINUOUS
10
12.0137
20
31.8579
11
12.0138
21
31.8576
0
LINE
8
BLACK
6
CONTINUOUS
10
12.0138
20
31.8576
11
12.0142
21
31.8554
0
LINE
8
BLACK
6
CONTINUOUS
10
12.0142
20
31.8554
11
12.0147
21
31.8532
0
LINE
8
BLACK
6
CONTINUOUS
10
12.0147
20
31.8532
11
12.0249
21
31.7561
0
LINE
8
BLACK
6
CONTINUOUS
10
12.0249
20
31.7561
11
12.0249
21
31.7558
0
LINE
8
BLACK
6
CONTINUOUS
10
12.0249
20
31.7558
11
12.0249
21
31.7547
0
LINE
8
BLACK
6
CONTINUOUS
10
12.0249
20
31.7547
11
12.025
21
31.7536
0
LINE
8
BLACK
6
CONTINUOUS
10
12.025
20
31.7536
11
12.025
21
31.7513
0
LINE
8
BLACK
6
CONTINUOUS
10
12.025
20
31.7513
11
12.025
21
31.7512
0
LINE
8
BLACK
6
CONTINUOUS
10
12.025
20
31.7512
11
12.025
21
28.2501
0
LINE
8
BLACK
6
CONTINUOUS
10
12.025
20
28.2501
11
12.0251
21
28.2356
0
LINE
8
BLACK
6
CONTINUOUS
10
12.0251
20
28.2356
11
12.0706
21
27.8026
0
LINE
8
BLACK
6
CONTINUOUS
10
12.0706
20
27.8026
11
12.199
21
27.3878
0
LINE
8
BLACK
6
CONTINUOUS
10
12.199
20
27.3878
11
12.4055
21
27.0059
0
LINE
8
BLACK
6
CONTINUOUS
10
12.4055
20
27.0059
11
12.6823
21
26.6713
0
LINE
8
BLACK
6
CONTINUOUS
10
12.6823
20
26.6713
11
13.0188
21
26.3968
0
LINE
8
BLACK
6
CONTINUOUS
10
13.0188
20
26.3968
11
13.4022
21
26.193
0
LINE
8
BLACK
6
CONTINUOUS
10
13.4022
20
26.193
11
13.8179
21
26.0675
0
LINE
8
BLACK
6
CONTINUOUS
10
13.8179
20
26.0675
11
14.2524
21
26.0249
0
LINE
8
BLACK
6
CONTINUOUS
10
14.2524
20
26.0249
11
14.2527
21
26.0249
0
LINE
8
BLACK
6
CONTINUOUS
10
14.2527
20
26.0249
11
14.2549
21
26.0246
0
LINE
8
BLACK
6
CONTINUOUS
10
14.2549
20
26.0246
11
14.2596
21
26.0232
0
LINE
8
BLACK
6
CONTINUOUS
10
14.2596
20
26.0232
11
14.264
21
26.0209
0
LINE
8
BLACK
6
CONTINUOUS
10
14.264
20
26.0209
11
14.2678
21
26.0178
0
LINE
8
BLACK
6
CONTINUOUS
10
14.2678
20
26.0178
11
14.2709
21
26.014
0
LINE
8
BLACK
6
CONTINUOUS
10
14.2709
20
26.014
11
14.2732
21
26.0096
0
LINE
8
BLACK
6
CONTINUOUS
10
14.2732
20
26.0096
11
14.2746
21
26.0049
0
LINE
8
BLACK
6
CONTINUOUS
10
14.2746
20
26.0049
11
14.275
21
26.0012
0
LINE
8
BLACK
6
CONTINUOUS
10
14.275
20
26.0012
11
14.275
21
24
0
LINE
8
BLACK
6
CONTINUOUS
10
14.275
20
24
11
14.2751
21
23.991
0
LINE
8
BLACK
6
CONTINUOUS
10
14.2751
20
23.991
11
14.291
21
23.8493
0
LINE
8
BLACK
6
CONTINUOUS
10
14.291
20
23.8493
11
14.3337
21
23.7144
0
LINE
8
BLACK
6
CONTINUOUS
10
14.3337
20
23.7144
11
14.4019
21
23.5905
0
LINE
8
BLACK
6
CONTINUOUS
10
14.4019
20
23.5905
11
14.4928
21
23.4821
0
LINE
8
BLACK
6
CONTINUOUS
10
14.4928
20
23.4821
11
14.6031
21
23.3934
0
LINE
8
BLACK
6
CONTINUOUS
10
14.6031
20
23.3934
11
14.7285
21
23.3279
0
LINE
8
BLACK
6
CONTINUOUS
10
14.7285
20
23.3279
11
14.8642
21
23.288
0
LINE
8
BLACK
6
CONTINUOUS
10
14.8642
20
23.288
11
15.0051
21
23.2751
0
LINE
8
BLACK
6
CONTINUOUS
10
15.0051
20
23.2751
11
15.1458
21
23.2899
0
LINE
8
BLACK
6
CONTINUOUS
10
15.1458
20
23.2899
11
15.2809
21
23.3318
0
LINE
8
BLACK
6
CONTINUOUS
10
15.2809
20
23.3318
11
15.4053
21
23.399
0
LINE
8
BLACK
6
CONTINUOUS
10
15.4053
20
23.399
11
15.5144
21
23.4892
0
LINE
8
BLACK
6
CONTINUOUS
10
15.5144
20
23.4892
11
15.6038
21
23.5989
0
LINE
8
BLACK
6
CONTINUOUS
10
15.6038
20
23.5989
11
15.6702
21
23.7238
0
LINE
8
BLACK
6
CONTINUOUS
10
15.6702
20
23.7238
11
15.7111
21
23.8592
0
LINE
8
BLACK
6
CONTINUOUS
10
15.7111
20
23.8592
11
15.725
21
24.0012
0
LINE
8
BLACK
6
CONTINUOUS
10
15.725
20
24.0012
11
15.725
21
25.7512
0
LINE
8
BLACK
6
CONTINUOUS
10
15.725
20
25.7512
11
15.7251
21
25.7524
0
LINE
8
BLACK
6
CONTINUOUS
10
15.7251
20
25.7524
11
15.7251
21
25.7524
0
LINE
8
BLACK
6
CONTINUOUS
10
15.7251
20
25.7524
11
15.7299
21
25.801
0
LINE
8
BLACK
6
CONTINUOUS
10
15.7299
20
25.801
11
15.7299
21
25.8013
0
LINE
8
BLACK
6
CONTINUOUS
10
15.7299
20
25.8013
11
15.7304
21
25.8036
0
LINE
8
BLACK
6
CONTINUOUS
10
15.7304
20
25.8036
11
15.7308
21
25.8058
0
LINE
8
BLACK
6
CONTINUOUS
10
15.7308
20
25.8058
11
15.7449
21
25.8525
0
LINE
8
BLACK
6
CONTINUOUS
10
15.7449
20
25.8525
11
15.745
21
25.8528
0
LINE
8
BLACK
6
CONTINUOUS
10
15.745
20
25.8528
11
15.7459
21
25.8549
0
LINE
8
BLACK
6
CONTINUOUS
10
15.7459
20
25.8549
11
15.7468
21
25.857
0
LINE
8
BLACK
6
CONTINUOUS
10
15.7468
20
25.857
11
15.7697
21
25.9001
0
LINE
8
BLACK
6
CONTINUOUS
10
15.7697
20
25.9001
11
15.7699
21
25.9004
0
LINE
8
BLACK
6
CONTINUOUS
10
15.7699
20
25.9004
11
15.7712
21
25.9023
0
LINE
8
BLACK
6
CONTINUOUS
10
15.7712
20
25.9023
11
15.7724
21
25.9041
0
LINE
8
BLACK
6
CONTINUOUS
10
15.7724
20
25.9041
11
15.8032
21
25.942
0
LINE
8
BLACK
6
CONTINUOUS
10
15.8032
20
25.942
11
15.8035
21
25.9422
0
LINE
8
BLACK
6
CONTINUOUS
10
15.8035
20
25.9422
11
15.8051
21
25.9438
0
LINE
8
BLACK
6
CONTINUOUS
10
15.8051
20
25.9438
11
15.8067
21
25.9454
0
LINE
8
BLACK
6
CONTINUOUS
10
15.8067
20
25.9454
11
15.8443
21
25.9765
0
LINE
8
BLACK
6
CONTINUOUS
10
15.8443
20
25.9765
11
15.8443
21
25.9765
0
LINE
8
BLACK
6
CONTINUOUS
10
15.8443
20
25.9765
11
15.8443
21
25.9765
0
LINE
8
BLACK
6
CONTINUOUS
10
15.8443
20
25.9765
11
15.8445
21
25.9767
0
LINE
8
BLACK
6
CONTINUOUS
10
15.8445
20
25.9767
11
15.8464
21
25.978
0
LINE
8
BLACK
6
CONTINUOUS
10
15.8464
20
25.978
11
15.8483
21
25.9793
0
LINE
8
BLACK
6
CONTINUOUS
10
15.8483
20
25.9793
11
15.8912
21
26.0025
0
LINE
8
BLACK
6
CONTINUOUS
10
15.8912
20
26.0025
11
15.8915
21
26.0026
0
LINE
8
BLACK
6
CONTINUOUS
10
15.8915
20
26.0026
11
15.8936
21
26.0035
0
LINE
8
BLACK
6
CONTINUOUS
10
15.8936
20
26.0035
11
15.8957
21
26.0043
0
LINE
8
BLACK
6
CONTINUOUS
10
15.8957
20
26.0043
11
15.9423
21
26.0188
0
LINE
8
BLACK
6
CONTINUOUS
10
15.9423
20
26.0188
11
15.9427
21
26.0189
0
LINE
8
BLACK
6
CONTINUOUS
10
15.9427
20
26.0189
11
15.9449
21
26.0193
0
LINE
8
BLACK
6
CONTINUOUS
10
15.9449
20
26.0193
11
15.9471
21
26.0198
0
LINE
8
BLACK
6
CONTINUOUS
10
15.9471
20
26.0198
11
15.9956
21
26.0249
0
LINE
8
BLACK
6
CONTINUOUS
10
15.9956
20
26.0249
11
15.996
21
26.0249
0
LINE
8
BLACK
6
CONTINUOUS
10
15.996
20
26.0249
11
15.9971
21
26.0249
0
LINE
8
BLACK
6
CONTINUOUS
10
15.9971
20
26.0249
11
15.9982
21
26.025
0
LINE
8
BLACK
6
CONTINUOUS
10
15.9982
20
26.025
11
15.9987
21
26.025
0
LINE
8
BLACK
6
CONTINUOUS
10
15.9987
20
26.025
11
15.9988
21
26.025
0
LINE
8
BLACK
6
CONTINUOUS
10
15.9988
20
26.025
11
18.2512
21
26.025
0
LINE
8
BLACK
6
CONTINUOUS
10
18.2512
20
26.025
11
18.2524
21
26.0249
0
LINE
8
BLACK
6
CONTINUOUS
10
18.2524
20
26.0249
11
18.2524
21
26.0249
0
LINE
8
BLACK
6
CONTINUOUS
10
18.2524
20
26.0249
11
18.301
21
26.0201
0
LINE
8
BLACK
6
CONTINUOUS
10
18.301
20
26.0201
11
18.3013
21
26.0201
0
LINE
8
BLACK
6
CONTINUOUS
10
18.3013
20
26.0201
11
18.3036
21
26.0196
0
LINE
8
BLACK
6
CONTINUOUS
10
18.3036
20
26.0196
11
18.3058
21
26.0192
0
LINE
8
BLACK
6
CONTINUOUS
10
18.3058
20
26.0192
11
18.3525
21
26.0051
0
LINE
8
BLACK
6
CONTINUOUS
10
18.3525
20
26.0051
11
18.3525
21
26.0051
0
LINE
8
BLACK
6
CONTINUOUS
10
18.3525
20
26.0051
11
18.3528
21
26.005
0
LINE
8
BLACK
6
CONTINUOUS
10
-15.2883
20
23.2807
11
-15.2904
21
23.2816
0
LINE
8
BLACK
6
CONTINUOUS
10
-15.2904
20
23.2816
11
-15.2925
21
23.2825
0
LINE
8
BLACK
6
CONTINUOUS
10
-15.2925
20
23.2825
11
-15.4222
21
23.3503
0
LINE
8
BLACK
6
CONTINUOUS
10
-15.4222
20
23.3503
11
-15.4223
21
23.3503
0
LINE
8
BLACK
6
CONTINUOUS
10
-15.4223
20
23.3503
11
-15.4223
21
23.3503
0
LINE
8
BLACK
6
CONTINUOUS
10
-15.4223
20
23.3503
11
-15.4226
21
23.3504
0
LINE
8
BLACK
6
CONTINUOUS
10
-15.4226
20
23.3504
11
-15.4245
21
23.3517
0
LINE
8
BLACK
6
CONTINUOUS
10
-15.4245
20
23.3517
11
-15.4263
21
23.3529
0
LINE
8
BLACK
6
CONTINUOUS
10
-15.4263
20
23.3529
11
-15.5404
21
23.4447
0
LINE
8
BLACK
6
CONTINUOUS
10
-15.5404
20
23.4447
11
-15.5407
21
23.4449
0
LINE
8
BLACK
6
CONTINUOUS
10
-15.5407
20
23.4449
11
-15.5423
21
23.4465
0
LINE
8
BLACK
6
CONTINUOUS
10
-15.5423
20
23.4465
11
-15.5439
21
23.4481
0
LINE
8
BLACK
6
CONTINUOUS
10
-15.5439
20
23.4481
11
-15.638
21
23.5602
0
LINE
8
BLACK
6
CONTINUOUS
10
-15.638
20
23.5602
11
-15.6382
21
23.5605
0
LINE
8
BLACK
6
CONTINUOUS
10
-15.6382
20
23.5605
11
-15.6395
21
23.5624
0
LINE
8
BLACK
6
CONTINUOUS
10
-15.6395
20
23.5624
11
-15.6407
21
23.5642
0
LINE
8
BLACK
6
CONTINUOUS
10
-15.6407
20
23.5642
11
-15.7113
21
23.6925
0
LINE
8
BLACK
6
CONTINUOUS
10
-15.7113
20
23.6925
11
-15.7114
21
23.6928
0
LINE
8
BLACK
6
CONTINUOUS
10
-15.7114
20
23.6928
11
-15.7123
21
23.6949
0
LINE
8
BLACK
6
CONTINUOUS
10
-15.7123
20
23.6949
11
-15.7132
21
23.697
0
LINE
8
BLACK
6
CONTINUOUS
10
-15.7132
20
23.697
11
-15.7574
21
23.8365
0
LINE
8
BLACK
6
CONTINUOUS
10
-15.7574
20
23.8365
11
-15.7575
21
23.8368
0
LINE
8
BLACK
6
CONTINUOUS
10
-15.7575
20
23.8368
11
-15.758
21
23.8391
0
LINE
8
BLACK
6
CONTINUOUS
10
-15.758
20
23.8391
11
-15.7585
21
23.8413
0
LINE
8
BLACK
6
CONTINUOUS
10
-15.7585
20
23.8413
11
-15.7748
21
23.9867
0
LINE
8
BLACK
6
CONTINUOUS
10
-15.7748
20
23.9867
11
-15.7748
21
23.9871
0
LINE
8
BLACK
6
CONTINUOUS
10
-15.7748
20
23.9871
11
-15.7748
21
23.9882
0
LINE
8
BLACK
6
CONTINUOUS
10
-15.7748
20
23.9882
11
-15.7749
21
23.9894
0
LINE
8
BLACK
6
CONTINUOUS
10
-15.7749
20
23.9894
11
-15.775
21
23.9987
0
LINE
8
BLACK
6
CONTINUOUS
10
-15.775
20
23.9987
11
-15.775
21
23.9988
0
LINE
8
BLACK
6
CONTINUOUS
10
-15.775
20
23.9988
11
-15.775
21
23.9998
0
LINE
8
BLACK
6
CONTINUOUS
10
-15.775
20
23.9998
11
-15.775
21
24.0002
0
LINE
8
BLACK
6
CONTINUOUS
10
-15.775
20
24.0002
11
-15.775
21
24.0002
0
LINE
8
BLACK
6
CONTINUOUS
10
-15.775
20
24.0002
11
-15.775
21
25.7499
0
LINE
8
BLACK
6
CONTINUOUS
10
-15.775
20
25.7499
11
-15.775
21
25.7504
0
LINE
8
BLACK
6
CONTINUOUS
10
-15.775
20
25.7504
11
-15.7797
21
25.7952
0
LINE
8
BLACK
6
CONTINUOUS
10
-15.7797
20
25.7952
11
-15.7927
21
25.8371
0
LINE
8
BLACK
6
CONTINUOUS
10
-15.7927
20
25.8371
11
-15.8136
21
25.8758
0
LINE
8
BLACK
6
CONTINUOUS
10
-15.8136
20
25.8758
11
-15.8415
21
25.9096
0
LINE
8
BLACK
6
CONTINUOUS
10
-15.8415
20
25.9096
11
-15.8756
21
25.9373
0
LINE
8
BLACK
6
CONTINUOUS
10
-15.8756
20
25.9373
11
-15.9143
21
25.9579
0
LINE
8
BLACK
6
CONTINUOUS
10
-15.9143
20
25.9579
11
-15.9563
21
25.9706
0
LINE
8
BLACK
6
CONTINUOUS
10
-15.9563
20
25.9706
11
-16.0012
21
25.975
0
LINE
8
BLACK
6
CONTINUOUS
10
-16.0012
20
25.975
11
-18.2499
21
25.975
0
LINE
8
BLACK
6
CONTINUOUS
10
-18.2499
20
25.975
11
-18.2504
21
25.975
0
LINE
8
BLACK
6
CONTINUOUS
10
-18.2504
20
25.975
11
-18.2952
21
25.9703
0
LINE
8
BLACK
6
CONTINUOUS
10
-18.2952
20
25.9703
11
-18.3371
21
25.9573
0
LINE
8
BLACK
6
CONTINUOUS
10
-18.3371
20
25.9573
11
-18.3758
21
25.9364
0
LINE
8
BLACK
6
CONTINUOUS
10
-18.3758
20
25.9364
11
-18.4096
21
25.9085
0
LINE
8
BLACK
6
CONTINUOUS
10
-18.4096
20
25.9085
11
-18.4373
21
25.8744
0
LINE
8
BLACK
6
CONTINUOUS
10
-18.4373
20
25.8744
11
-18.4579
21
25.8357
0
LINE
8
BLACK
6
CONTINUOUS
10
-18.4579
20
25.8357
11
-18.4706
21
25.7937
0
LINE
8
BLACK
6
CONTINUOUS
10
-18.4706
20
25.7937
11
-18.475
21
25.7488
0
LINE
8
BLACK
6
CONTINUOUS
10
-18.475
20
25.7488
11
-18.475
21
-25.7499
0
LINE
8
BLACK
6
CONTINUOUS
10
-18.475
20
-25.7499
11
-18.475
21
-25.7504
0
LINE
8
BLACK
6
CONTINUOUS
10
-18.475
20
-25.7504
11
-18.4703
21
-25.7952
0
LINE
8
BLACK
6
CONTINUOUS
10
-18.4703
20
-25.7952
11
-18.4573
21
-25.8371
0
LINE
8
BLACK
6
CONTINUOUS
10
-18.4573
20
-25.8371
11
-18.4364
21
-25.8758
0
LINE
8
BLACK
6
CONTINUOUS
10
-18.4364
20
-25.8758
11
-18.4085
21
-25.9096
0
LINE
8
BLACK
6
CONTINUOUS
10
-18.4085
20
-25.9096
11
-18.3744
21
-25.9373
0
LINE
8
BLACK
6
CONTINUOUS
10
-18.3744
20
-25.9373
11
-18.3357
21
-25.9579
0
LINE
8
BLACK
6
CONTINUOUS
10
-18.3357
20
-25.9579
11
-18.2937
21
-25.9706
0
LINE
8
BLACK
6
CONTINUOUS
10
-18.2937
20
-25.9706
11
-18.2488
21
-25.975
0
LINE
8
BLACK
6
CONTINUOUS
10
-18.2488
20
-25.975
11
-16.0001
21
-25.975
0
LINE
8
BLACK
6
CONTINUOUS
10
-16.0001
20
-25.975
11
-15.9996
21
-25.975
0
LINE
8
BLACK
6
CONTINUOUS
10
-15.9996
20
-25.975
11
-15.9548
21
-25.9703
0
LINE
8
BLACK
6
CONTINUOUS
10
-15.9548
20
-25.9703
11
-15.9129
21
-25.9573
0
LINE
8
BLACK
6
CONTINUOUS
10
-15.9129
20
-25.9573
11
-15.8742
21
-25.9364
0
LINE
8
BLACK
6
CONTINUOUS
10
-15.8742
20
-25.9364
11
-15.8404
21
-25.9085
0
LINE
8
BLACK
6
CONTINUOUS
10
-15.8404
20
-25.9085
11
-15.8127
21
-25.8744
0
LINE
8
BLACK
6
CONTINUOUS
10
-15.8127
20
-25.8744
11
-15.7921
21
-25.8357
0
LINE
8
BLACK
6
CONTINUOUS
10
-15.7921
20
-25.8357
11
-15.7794
21
-25.7937
0
LINE
8
BLACK
6
CONTINUOUS
10
-15.7794
20
-25.7937
11
-15.775
21
-25.7488
0
LINE
8
BLACK
6
CONTINUOUS
10
-15.775
20
-25.7488
11
-15.775
21
-23.9988
0
LINE
8
BLACK
6
CONTINUOUS
10
-15.775
20
-23.9988
11
-15.7749
21
-23.9976
0
LINE
8
BLACK
6
CONTINUOUS
10
-15.7749
20
-23.9976
11
-15.7749
21
-23.9976
0
LINE
8
BLACK
6
CONTINUOUS
10
-15.7749
20
-23.9976
11
-15.7606
21
-23.8519
0
LINE
8
BLACK
6
CONTINUOUS
10
-15.7606
20
-23.8519
11
-15.7606
21
-23.8515
0
LINE
8
BLACK
6
CONTINUOUS
10
-15.7606
20
-23.8515
11
-15.7601
21
-23.8493
0
LINE
8
BLACK
6
CONTINUOUS
10
-15.7601
20
-23.8493
11
-15.7596
21
-23.8471
0
LINE
8
BLACK
6
CONTINUOUS
10
-15.7596
20
-23.8471
11
-15.7173
21
-23.707
0
LINE
8
BLACK
6
CONTINUOUS
10
-15.7173
20
-23.707
11
-15.7172
21
-23.7066
0
LINE
8
BLACK
6
CONTINUOUS
10
-15.7172
20
-23.7066
11
-15.7163
21
-23.7046
0
LINE
8
BLACK
6
CONTINUOUS
10
-15.7163
20
-23.7046
11
-15.7155
21
-23.7025
0
LINE
8
BLACK
6
CONTINUOUS
10
-15.7155
20
-23.7025
11
-15.6468
21
-23.5732
0
LINE
8
BLACK
6
CONTINUOUS
10
-15.6468
20
-23.5732
11
-15.6468
21
-23.5732
0
LINE
8
BLACK
6
CONTINUOUS
10
-15.6468
20
-23.5732
11
-15.6468
21
-23.5732
0
LINE
8
BLACK
6
CONTINUOUS
10
-15.6468
20
-23.5732
11
-15.6466
21
-23.5729
0
LINE
8
BLACK
6
CONTINUOUS
10
-15.6466
20
-23.5729
11
-15.6453
21
-23.5711
0
LINE
8
BLACK
6
CONTINUOUS
10
-15.6453
20
-23.5711
11
-15.6441
21
-23.5692
0
LINE
8
BLACK
6
CONTINUOUS
10
-15.6441
20
-23.5692
11
-15.5516
21
-23.4557
0
LINE
8
BLACK
6
CONTINUOUS
10
-15.5516
20
-23.4557
11
-15.5516
21
-23.4557
0
LINE
8
BLACK
6
CONTINUOUS
10
-15.5516
20
-23.4557
11
-15.5515
21
-23.4557
0
LINE
8
BLACK
6
CONTINUOUS
10
-15.5515
20
-23.4557
11
-15.5513
21
-23.4555
0
LINE
8
BLACK
6
CONTINUOUS
10
-15.5513
20
-23.4555
11
-15.5497
21
-23.4539
0
LINE
8
BLACK
6
CONTINUOUS
10
-15.5497
20
-23.4539
11
-15.5481
21
-23.4523
0
LINE
8
BLACK
6
CONTINUOUS
10
-15.5481
20
-23.4523
11
-15.4353
21
-23.359
0
LINE
8
BLACK
6
CONTINUOUS
10
-15.4353
20
-23.359
11
-15.4353
21
-23.359
0
LINE
8
BLACK
6
CONTINUOUS
10
-15.4353
20
-23.359
11
-15.4353
21
-23.359
0
LINE
8
BLACK
6
CONTINUOUS
10
-15.4353
20
-23.359
11
-15.4351
21
-23.3587
0
LINE
8
BLACK
6
CONTINUOUS
10
-15.4351
20
-23.3587
11
-15.4331
21
-23.3575
0
LINE
8
BLACK
6
CONTINUOUS
10
-15.4331
20
-23.3575
11
-15.4313
21
-23.3562
0
LINE
8
BLACK
6
CONTINUOUS
10
-15.4313
20
-23.3562
11
-15.3025
21
-23.2866
0
LINE
8
BLACK
6
CONTINUOUS
10
-15.3025
20
-23.2866
11
-15.3022
21
-23.2864
0
LINE
8
BLACK
6
CONTINUOUS
10
-15.3022
20
-23.2864
11
-15.3001
21
-23.2856
0
LINE
8
BLACK
6
CONTINUOUS
10
-15.3001
20
-23.2856
11
-15.298
21
-23.2847
0
LINE
8
BLACK
6
CONTINUOUS
10
-15.298
20
-23.2847
11
-15.1582
21
-23.2414
0
LINE
8
BLACK
6
CONTINUOUS
10
-15.1582
20
-23.2414
11
-15.1579
21
-23.2413
0
LINE
8
BLACK
6
CONTINUOUS
10
-15.1579
20
-23.2413
11
-15.1556
21
-23.2409
0
LINE
8
BLACK
6
CONTINUOUS
10
-15.1556
20
-23.2409
11
-15.1534
21
-23.2405
0
LINE
8
BLACK
6
CONTINUOUS
10
-15.1534
20
-23.2405
11
-15.0078
21
-23.2252
0
LINE
8
BLACK
6
CONTINUOUS
10
-15.0078
20
-23.2252
11
-15.0075
21
-23.2251
0
LINE
8
BLACK
6
CONTINUOUS
10
-15.0075
20
-23.2251
11
-15.0052
21
-23.2251
0
LINE
8
BLACK
6
CONTINUOUS
10
-15.0052
20
-23.2251
11
-15.003
21
-23.2251
0
LINE
8
BLACK
6
CONTINUOUS
10
-15.003
20
-23.2251
11
-14.8572
21
-23.2384
0
LINE
8
BLACK
6
CONTINUOUS
10
-14.8572
20
-23.2384
11
-14.8572
21
-23.2384
0
LINE
8
BLACK
6
CONTINUOUS
10
-14.8572
20
-23.2384
11
-14.8569
21
-23.2384
0
LINE
8
BLACK
6
CONTINUOUS
10
-14.8569
20
-23.2384
11
-14.8546
21
-23.2389
0
LINE
8
BLACK
6
CONTINUOUS
10
-14.8546
20
-23.2389
11
-14.8524
21
-23.2393
0
LINE
8
BLACK
6
CONTINUOUS
10
-14.8524
20
-23.2393
11
-14.712
21
-23.2806
0
LINE
8
BLACK
6
CONTINUOUS
10
-14.712
20
-23.2806
11
-14.712
21
-23.2806
0
LINE
8
BLACK
6
CONTINUOUS
10
-14.712
20
-23.2806
11
-14.7117
21
-23.2807
0
LINE
8
BLACK
6
CONTINUOUS
10
-14.7117
20
-23.2807
11
-14.7095
21
-23.2816
0
LINE
8
BLACK
6
CONTINUOUS
10
-14.7095
20
-23.2816
11
-14.7075
21
-23.2825
0
LINE
8
BLACK
6
CONTINUOUS
10
-14.7075
20
-23.2825
11
-14.5777
21
-23.3503
0
LINE
8
BLACK
6
CONTINUOUS
10
-14.5777
20
-23.3503
11
-14.5774
21
-23.3504
0
LINE
8
BLACK
6
CONTINUOUS
10
-14.5774
20
-23.3504
11
-14.5755
21
-23.3517
0
LINE
8
BLACK
6
CONTINUOUS
10
-14.5755
20
-23.3517
11
-14.5737
21
-23.3529
0
LINE
8
BLACK
6
CONTINUOUS
10
-14.5737
20
-23.3529
11
-14.4596
21
-23.4447
0
LINE
8
BLACK
6
CONTINUOUS
10
-14.4596
20
-23.4447
11
-14.4596
21
-23.4447
0
LINE
8
BLACK
6
CONTINUOUS
10
-14.4596
20
-23.4447
11
-14.4596
21
-23.4447
0
LINE
8
BLACK
6
CONTINUOUS
10
-14.4596
20
-23.4447
11
-14.4593
21
-23.4449
0
LINE
8
BLACK
6
CONTINUOUS
10
-14.4593
20
-23.4449
11
-14.4577
21
-23.4465
0
LINE
8
BLACK
6
CONTINUOUS
10
-14.4577
20
-23.4465
11
-14.4561
21
-23.4481
0
LINE
8
BLACK
6
CONTINUOUS
10
-14.4561
20
-23.4481
11
-14.362
21
-23.5602
0
LINE
8
BLACK
6
CONTINUOUS
10
-14.362
20
-23.5602
11
-14.3618
21
-23.5605
0
LINE
8
BLACK
6
CONTINUOUS
10
-14.3618
20
-23.5605
11
-14.3605
21
-23.5624
0
LINE
8
BLACK
6
CONTINUOUS
10
-14.3605
20
-23.5624
11
-14.3593
21
-23.5642
0
LINE
8
BLACK
6
CONTINUOUS
10
-14.3593
20
-23.5642
11
-14.2887
21
-23.6925
0
LINE
8
BLACK
6
CONTINUOUS
10
-14.2887
20
-23.6925
11
-14.2886
21
-23.6928
0
LINE
8
BLACK
6
CONTINUOUS
10
-14.2886
20
-23.6928
11
-14.2877
21
-23.6949
0
LINE
8
BLACK
6
CONTINUOUS
10
-14.2877
20
-23.6949
11
-14.2868
21
-23.697
0
LINE
8
BLACK
6
CONTINUOUS
10
-14.2868
20
-23.697
11
-14.2426
21
-23.8365
0
LINE
8
BLACK
6
CONTINUOUS
10
-14.2426
20
-23.8365
11
-14.2425
21
-23.8368
0
LINE
8
BLACK
6
CONTINUOUS
10
-14.2425
20
-23.8368
11
-14.242
21
-23.8391
0
LINE
8
BLACK
6
CONTINUOUS
10
-14.242
20
-23.8391
11
-14.2415
21
-23.8413
0
LINE
8
BLACK
6
CONTINUOUS
10
-14.2415
20
-23.8413
11
-14.2252
21
-23.9867
0
LINE
8
BLACK
6
CONTINUOUS
10
-14.2252
20
-23.9867
11
-14.2252
21
-23.9871
0
LINE
8
BLACK
6
CONTINUOUS
10
-14.2252
20
-23.9871
11
-14.2252
21
-23.9882
0
LINE
8
BLACK
6
CONTINUOUS
10
-14.2252
20
-23.9882
11
-14.2251
21
-23.9894
0
LINE
8
BLACK
6
CONTINUOUS
10
-14.2251
20
-23.9894
11
-14.225
21
-23.9987
0
LINE
8
BLACK
6
CONTINUOUS
10
-14.225
20
-23.9987
11
-14.225
21
-23.9988
0
LINE
8
BLACK
6
CONTINUOUS
10
-14.225
20
-23.9988
11
-14.225
21
-25.9773
0
LINE
8
BLACK
6
CONTINUOUS
10
-14.225
20
-25.9773
11
-13.8105
21
-26.018
0
LINE
8
BLACK
6
CONTINUOUS
10
-13.8105
20
-26.018
11
-13.8102
21
-26.018
0
LINE
8
BLACK
6
CONTINUOUS
10
-13.8102
20
-26.018
11
-13.8079
21
-26.0185
0
LINE
8
BLACK
6
CONTINUOUS
10
-13.8079
20
-26.0185
11
-13.8057
21
-26.0189
0
LINE
8
BLACK
6
CONTINUOUS
10
-13.8057
20
-26.0189
11
-13.3854
21
-26.1458
0
LINE
8
BLACK
6
CONTINUOUS
10
-13.3854
20
-26.1458
11
-13.385
21
-26.1459
0
LINE
8
BLACK
6
CONTINUOUS
10
-13.385
20
-26.1459
11
-13.3829
21
-26.1468
0
LINE
8
BLACK
6
CONTINUOUS
10
-13.3829
20
-26.1468
11
-13.3809
21
-26.1477
0
LINE
8
BLACK
6
CONTINUOUS
10
-13.3809
20
-26.1477
11
-12.9931
21
-26.3539
0
LINE
8
BLACK
6
CONTINUOUS
10
-12.9931
20
-26.3539
11
-12.9931
21
-26.3539
0
LINE
8
BLACK
6
CONTINUOUS
10
-12.9931
20
-26.3539
11
-12.9931
21
-26.3539
0
LINE
8
BLACK
6
CONTINUOUS
10
-12.9931
20
-26.3539
11
-12.9928
21
-26.354
0
LINE
8
BLACK
6
CONTINUOUS
10
-12.9928
20
-26.354
11
-12.9909
21
-26.3553
0
LINE
8
BLACK
6
CONTINUOUS
10
-12.9909
20
-26.3553
11
-12.9891
21
-26.3566
0
LINE
8
BLACK
6
CONTINUOUS
10
-12.9891
20
-26.3566
11
-12.6488
21
-26.6341
0
LINE
8
BLACK
6
CONTINUOUS
10
-12.6488
20
-26.6341
11
-12.6485
21
-26.6343
0
LINE
8
BLACK
6
CONTINUOUS
10
-12.6485
20
-26.6343
11
-12.6469
21
-26.6359
0
LINE
8
BLACK
6
CONTINUOUS
10
-12.6469
20
-26.6359
11
-12.6453
21
-26.6375
0
LINE
8
BLACK
6
CONTINUOUS
10
-12.6453
20
-26.6375
11
-12.3654
21
-26.9759
0
LINE
8
BLACK
6
CONTINUOUS
10
-12.3654
20
-26.9759
11
-12.3652
21
-26.9762
0
LINE
8
BLACK
6
CONTINUOUS
10
-12.3652
20
-26.9762
11
-12.3639
21
-26.9781
0
LINE
8
BLACK
6
CONTINUOUS
10
-12.3639
20
-26.9781
11
-12.3627
21
-26.9799
0
LINE
8
BLACK
6
CONTINUOUS
10
-12.3627
20
-26.9799
11
-12.1538
21
-27.3662
0
LINE
8
BLACK
6
CONTINUOUS
10
-12.1538
20
-27.3662
11
-12.1538
21
-27.3662
0
LINE
8
BLACK
6
CONTINUOUS
10
-12.1538
20
-27.3662
11
-12.1538
21
-27.3662
0
LINE
8
BLACK
6
CONTINUOUS
10
-12.1538
20
-27.3662
11
-12.1537
21
-27.3665
0
LINE
8
BLACK
6
CONTINUOUS
10
-12.1537
20
-27.3665
11
-12.1528
21
-27.3686
0
LINE
8
BLACK
6
CONTINUOUS
10
-12.1528
20
-27.3686
11
-12.1519
21
-27.3707
0
LINE
8
BLACK
6
CONTINUOUS
10
-12.1519
20
-27.3707
11
-12.0221
21
-27.7902
0
LINE
8
BLACK
6
CONTINUOUS
10
-12.0221
20
-27.7902
11
-12.022
21
-27.7905
0
LINE
8
BLACK
6
CONTINUOUS
10
-12.022
20
-27.7905
11
-12.0215
21
-27.7927
0
LINE
8
BLACK
6
CONTINUOUS
10
-12.0215
20
-27.7927
11
-12.0211
21
-27.795
0
LINE
8
BLACK
6
CONTINUOUS
10
-12.0211
20
-27.795
11
-11.9752
21
-28.2317
0
LINE
8
BLACK
6
CONTINUOUS
10
-11.9752
20
-28.2317
11
-11.9752
21
-28.232
0
LINE
8
BLACK
6
CONTINUOUS
10
-11.9752
20
-28.232
11
-11.9752
21
-28.2331
0
LINE
8
BLACK
6
CONTINUOUS
10
-11.9752
20
-28.2331
11
-11.9751
21
-28.2342
0
LINE
8
BLACK
6
CONTINUOUS
10
-11.9751
20
-28.2342
11
-11.975
21
-28.2487
0
LINE
8
BLACK
6
CONTINUOUS
10
-11.975
20
-28.2487
11
-11.975
21
-28.2488
0
LINE
8
BLACK
6
CONTINUOUS
10
-11.975
20
-28.2488
11
-11.975
21
-31.7499
0
LINE
8
BLACK
6
CONTINUOUS
10
-11.975
20
-31.7499
11
-11.975
21
-31.7521
0
LINE
8
BLACK
6
CONTINUOUS
10
-11.975
20
-31.7521
11
-11.9652
21
-31.8455
0
LINE
8
BLACK
6
CONTINUOUS
10
-11.9652
20
-31.8455
11
-11.9378
21
-31.934
0
LINE
8
BLACK
6
CONTINUOUS
10
-11.9378
20
-31.934
11
-11.8937
21
-32.0155
0
LINE
8
BLACK
6
CONTINUOUS
10
-11.8937
20
-32.0155
11
-11.8346
21
-32.087
0
LINE
8
BLACK
6
CONTINUOUS
10
-11.8346
20
-32.087
11
-11.7628
21
-32.1455
0
LINE
8
BLACK
6
CONTINUOUS
10
-11.7628
20
-32.1455
11
-11.681
21
-32.189
0
LINE
8
BLACK
6
CONTINUOUS
10
-11.681
20
-32.189
11
-11.5922
21
-32.2158
0
LINE
8
BLACK
6
CONTINUOUS
10
-11.5922
20
-32.2158
11
-11.4988
21
-32.225
0
LINE
8
BLACK
6
CONTINUOUS
10
-11.4988
20
-32.225
11
11.4999
21
-32.225
0
LINE
8
BLACK
6
CONTINUOUS
10
11.4999
20
-32.225
11
11.5021
21
-32.225
0
LINE
8
BLACK
6
CONTINUOUS
10
11.5021
20
-32.225
11
11.5955
21
-32.2152
0
LINE
8
BLACK
6
CONTINUOUS
10
11.5955
20
-32.2152
11
11.684
21
-32.1878
0
LINE
8
BLACK
6
CONTINUOUS
10
11.684
20
-32.1878
11
11.7655
21
-32.1437
0
LINE
8
BLACK
6
CONTINUOUS
10
11.7655
20
-32.1437
11
11.837
21
-32.0846
0
LINE
8
BLACK
6
CONTINUOUS
10
11.837
20
-32.0846
11
11.8955
21
-32.0128
0
LINE
8
BLACK
6
CONTINUOUS
10
11.8955
20
-32.0128
11
11.939
21
-31.931
0
LINE
8
BLACK
6
CONTINUOUS
10
11.939
20
-31.931
11
11.9658
21
-31.8422
0
LINE
8
BLACK
6
CONTINUOUS
10
11.9658
20
-31.8422
11
11.975
21
-31.7488
0
LINE
8
BLACK
6
CONTINUOUS
10
11.975
20
-31.7488
11
11.975
21
-28.2488
0
LINE
8
BLACK
6
CONTINUOUS
10
11.975
20
-28.2488
11
11.9751
21
-28.2476
0
LINE
8
BLACK
6
CONTINUOUS
10
11.9751
20
-28.2476
11
11.9751
21
-28.2476
0
LINE
8
BLACK
6
CONTINUOUS
10
11.9751
20
-28.2476
11
12.018
21
-27.8105
0
LINE
8
BLACK
6
CONTINUOUS
10
12.018
20
-27.8105
11
12.018
21
-27.8102
0
LINE
8
BLACK
6
CONTINUOUS
10
12.018
20
-27.8102
11
12.0185
21
-27.8079
0
LINE
8
BLACK
6
CONTINUOUS
10
12.0185
20
-27.8079
11
12.0189
21
-27.8057
0
LINE
8
BLACK
6
CONTINUOUS
10
12.0189
20
-27.8057
11
12.1458
21
-27.3854
0
LINE
8
BLACK
6
CONTINUOUS
10
12.1458
20
-27.3854
11
12.1459
21
-27.385
0
LINE
8
BLACK
6
CONTINUOUS
10
12.1459
20
-27.385
11
12.1468
21
-27.3829
0
LINE
8
BLACK
6
CONTINUOUS
10
12.1468
20
-27.3829
11
12.1477
21
-27.3809
0
LINE
8
BLACK
6
CONTINUOUS
10
12.1477
20
-27.3809
11
12.3539
21
-26.9931
0
LINE
8
BLACK
6
CONTINUOUS
10
12.3539
20
-26.9931
11
12.3539
21
-26.9931
0
LINE
8
BLACK
6
CONTINUOUS
10
12.3539
20
-26.9931
11
12.3539
21
-26.9931
0
LINE
8
BLACK
6
CONTINUOUS
10
12.3539
20
-26.9931
11
12.354
21
-26.9928
0
LINE
8
BLACK
6
CONTINUOUS
10
12.354
20
-26.9928
11
12.3553
21
-26.9909
0
LINE
8
BLACK
6
CONTINUOUS
10
12.3553
20
-26.9909
11
12.3566
21
-26.9891
0
LINE
8
BLACK
6
CONTINUOUS
10
12.3566
20
-26.9891
11
12.6341
21
-26.6488
0
LINE
8
BLACK
6
CONTINUOUS
10
12.6341
20
-26.6488
11
12.6343
21
-26.6485
0
LINE
8
BLACK
6
CONTINUOUS
10
12.6343
20
-26.6485
11
12.6359
21
-26.6469
0
LINE
8
BLACK
6
CONTINUOUS
10
12.6359
20
-26.6469
11
12.6375
21
-26.6453
0
LINE
8
BLACK
6
CONTINUOUS
10
12.6375
20
-26.6453
11
12.9759
21
-26.3654
0
LINE
8
BLACK
6
CONTINUOUS
10
12.9759
20
-26.3654
11
12.9761
21
-26.3652
0
LINE
8
BLACK
6
CONTINUOUS
10
12.9761
20
-26.3652
11
12.9781
21
-26.3639
0
LINE
8
BLACK
6
CONTINUOUS
10
12.9781
20
-26.3639
11
12.9799
21
-26.3627
0
LINE
8
BLACK
6
CONTINUOUS
10
12.9799
20
-26.3627
11
13.3662
21
-26.1538
0
LINE
8
BLACK
6
CONTINUOUS
10
13.3662
20
-26.1538
11
13.3662
21
-26.1538
0
LINE
8
BLACK
6
CONTINUOUS
10
13.3662
20
-26.1538
11
13.3662
21
-26.1538
0
LINE
8
BLACK
6
CONTINUOUS
10
13.3662
20
-26.1538
11
13.3665
21
-26.1537
0
LINE
8
BLACK
6
CONTINUOUS
10
13.3665
20
-26.1537
11
13.3686
21
-26.1528
0
LINE
8
BLACK
6
CONTINUOUS
10
13.3686
20
-26.1528
11
13.3707
21
-26.1519
0
LINE
8
BLACK
6
CONTINUOUS
10
13.3707
20
-26.1519
11
13.7902
21
-26.0221
0
LINE
8
BLACK
6
CONTINUOUS
10
13.7902
20
-26.0221
11
13.7905
21
-26.022
0
LINE
8
BLACK
6
CONTINUOUS
10
13.7905
20
-26.022
11
13.7927
21
-26.0215
0
LINE
8
BLACK
6
CONTINUOUS
10
13.7927
20
-26.0215
11
13.795
21
-26.0211
0
LINE
8
BLACK
6
CONTINUOUS
10
13.795
20
-26.0211
11
14.225
21
-25.9759
0
LINE
8
BLACK
6
CONTINUOUS
10
14.225
20
-25.9759
11
14.225
21
-23.9988
0
LINE
8
BLACK
6
CONTINUOUS
10
14.225
20
-23.9988
11
14.2251
21
-23.9976
0
LINE
8
BLACK
6
CONTINUOUS
10
14.2251
20
-23.9976
11
14.2251
21
-23.9976
0
LINE
8
BLACK
6
CONTINUOUS
10
14.2251
20
-23.9976
11
14.2394
21
-23.8519
0
LINE
8
BLACK
6
CONTINUOUS
10
14.2394
20
-23.8519
11
14.2394
21
-23.8515
0
LINE
8
BLACK
6
CONTINUOUS
10
14.2394
20
-23.8515
11
14.2399
21
-23.8493
0
LINE
8
BLACK
6
CONTINUOUS
10
14.2399
20
-23.8493
11
14.2404
21
-23.8471
0
LINE
8
BLACK
6
CONTINUOUS
10
14.2404
20
-23.8471
11
14.2827
21
-23.707
0
LINE
8
BLACK
6
CONTINUOUS
10
14.2827
20
-23.707
11
14.2828
21
-23.7066
0
LINE
8
BLACK
6
CONTINUOUS
10
14.2828
20
-23.7066
11
14.2837
21
-23.7046
0
LINE
8
BLACK
6
CONTINUOUS
10
14.2837
20
-23.7046
11
14.2845
21
-23.7025
0
LINE
8
BLACK
6
CONTINUOUS
10
14.2845
20
-23.7025
11
14.3532
21
-23.5732
0
LINE
8
BLACK
6
CONTINUOUS
10
14.3532
20
-23.5732
11
14.3532
21
-23.5732
0
LINE
8
BLACK
6
CONTINUOUS
10
14.3532
20
-23.5732
11
14.3532
21
-23.5732
0
LINE
8
BLACK
6
CONTINUOUS
10
14.3532
20
-23.5732
11
14.3534
21
-23.5729
0
LINE
8
BLACK
6
CONTINUOUS
10
14.3534
20
-23.5729
11
14.3547
21
-23.5711
0
LINE
8
BLACK
6
CONTINUOUS
10
14.3547
20
-23.5711
11
14.3559
21
-23.5692
0
LINE
8
BLACK
6
CONTINUOUS
10
14.3559
20
-23.5692
11
14.4484
21
-23.4557
0
LINE
8
BLACK
6
CONTINUOUS
10
14.4484
20
-23.4557
11
14.4484
21
-23.4557
0
LINE
8
BLACK
6
CONTINUOUS
10
14.4484
20
-23.4557
11
14.4485
21
-23.4557
0
LINE
8
BLACK
6
CONTINUOUS
10
14.4485
20
-23.4557
11
14.4487
21
-23.4555
0
LINE
8
BLACK
6
CONTINUOUS
10
14.4487
20
-23.4555
11
14.4503
21
-23.4539
0
LINE
8
BLACK
6
CONTINUOUS
10
14.4503
20
-23.4539
11
14.4519
21
-23.4523
0
LINE
8
BLACK
6
CONTINUOUS
10
14.4519
20
-23.4523
11
14.5647
21
-23.359
0
LINE
8
BLACK
6
CONTINUOUS
10
14.5647
20
-23.359
11
14.5647
21
-23.359
0
LINE
8
BLACK
6
CONTINUOUS
10
14.5647
20
-23.359
11
14.5647
21
-23.359
0
LINE
8
BLACK
6
CONTINUOUS
10
14.5647
20
-23.359
11
14.5649
21
-23.3587
0
LINE
8
BLACK
6
CONTINUOUS
10
14.5649
20
-23.3587
11
14.5669
21
-23.3575
0
LINE
8
BLACK
6
CONTINUOUS
10
14.5669
20
-23.3575
11
14.5687
21
-23.3562
0
LINE
8
BLACK
6
CONTINUOUS
10
14.5687
20
-23.3562
11
14.6975
21
-23.2866
0
LINE
8
BLACK
6
CONTINUOUS
10
14.6975
20
-23.2866
11
14.6978
21
-23.2864
0
LINE
8
BLACK
6
CONTINUOUS
10
14.6978
20
-23.2864
11
14.6999
21
-23.2856
0
LINE
8
BLACK
6
CONTINUOUS
10
14.6999
20
-23.2856
11
14.702
21
-23.2847
0
LINE
8
BLACK
6
CONTINUOUS
10
14.702
20
-23.2847
11
14.8418
21
-23.2414
0
LINE
8
BLACK
6
CONTINUOUS
10
14.8418
20
-23.2414
11
14.8421
21
-23.2413
0
LINE
8
BLACK
6
CONTINUOUS
10
14.8421
20
-23.2413
11
14.8444
21
-23.2409
0
LINE
8
BLACK
6
CONTINUOUS
10
14.8444
20
-23.2409
11
14.8466
21
-23.2405
0
LINE
8
BLACK
6
CONTINUOUS
10
14.8466
20
-23.2405
11
14.9922
21
-23.2252
0
LINE
8
BLACK
6
CONTINUOUS
10
14.9922
20
-23.2252
11
14.9925
21
-23.2251
0
LINE
8
BLACK
6
CONTINUOUS
10
14.9925
20
-23.2251
11
14.9948
21
-23.2251
0
LINE
8
BLACK
6
CONTINUOUS
10
14.9948
20
-23.2251
11
14.997
21
-23.2251
0
LINE
8
BLACK
6
CONTINUOUS
10
14.997
20
-23.2251
11
15.1428
21
-23.2384
0
LINE
8
BLACK
6
CONTINUOUS
10
15.1428
20
-23.2384
11
15.1428
21
-23.2384
0
LINE
8
BLACK
6
CONTINUOUS
10
15.1428
20
-23.2384
11
15.1431
21
-23.2384
0
LINE
8
BLACK
6
CONTINUOUS
10
15.1431
20
-23.2384
11
15.1454
21
-23.2389
0
LINE
8
BLACK
6
CONTINUOUS
10
15.1454
20
-23.2389
11
15.1476
21
-23.2393
0
LINE
8
BLACK
6
CONTINUOUS
10
15.1476
20
-23.2393
11
15.288
21
-23.2806
0
LINE
8
BLACK
6
CONTINUOUS
10
15.288
20
-23.2806
11
15.288
21
-23.2806
0
LINE
8
BLACK
6
CONTINUOUS
10
15.288
20
-23.2806
11
15.2883
21
-23.2807
0
LINE
8
BLACK
6
CONTINUOUS
10
15.2883
20
-23.2807
11
15.2905
21
-23.2816
0
LINE
8
BLACK
6
CONTINUOUS
10
15.2905
20
-23.2816
11
15.2925
21
-23.2825
0
LINE
8
BLACK
6
CONTINUOUS
10
15.2925
20
-23.2825
11
15.4223
21
-23.3503
0
LINE
8
BLACK
6
CONTINUOUS
10
15.4223
20
-23.3503
11
15.4226
21
-23.3504
0
LINE
8
BLACK
6
CONTINUOUS
10
15.4226
20
-23.3504
11
15.4245
21
-23.3517
0
LINE
8
BLACK
6
CONTINUOUS
10
15.4245
20
-23.3517
11
15.4263
21
-23.3529
0
LINE
8
BLACK
6
CONTINUOUS
10
15.4263
20
-23.3529
11
15.5404
21
-23.4447
0
LINE
8
BLACK
6
CONTINUOUS
10
15.5404
20
-23.4447
11
15.5404
21
-23.4447
0
LINE
8
BLACK
6
CONTINUOUS
10
15.5404
20
-23.4447
11
15.5404
21
-23.4447
0
LINE
8
BLACK
6
CONTINUOUS
10
15.5404
20
-23.4447
11
15.5407
21
-23.4449
0
LINE
8
BLACK
6
CONTINUOUS
10
15.5407
20
-23.4449
11
15.5423
21
-23.4465
0
LINE
8
BLACK
6
CONTINUOUS
10
15.5423
20
-23.4465
11
15.5439
21
-23.4481
0
LINE
8
BLACK
6
CONTINUOUS
10
15.5439
20
-23.4481
11
15.638
21
-23.5602
0
LINE
8
BLACK
6
CONTINUOUS
10
15.638
20
-23.5602
11
15.6382
21
-23.5605
0
LINE
8
BLACK
6
CONTINUOUS
10
15.6382
20
-23.5605
11
15.6395
21
-23.5624
0
LINE
8
BLACK
6
CONTINUOUS
10
15.6395
20
-23.5624
11
15.6407
21
-23.5642
0
LINE
8
BLACK
6
CONTINUOUS
10
15.6407
20
-23.5642
11
15.7113
21
-23.6925
0
LINE
8
BLACK
6
CONTINUOUS
10
15.7113
20
-23.6925
11
15.7114
21
-23.6928
0
LINE
8
BLACK
6
CONTINUOUS
10
15.7114
20
-23.6928
11
15.7123
21
-23.6949
0
LINE
8
BLACK
6
CONTINUOUS
10
15.7123
20
-23.6949
11
15.7132
21
-23.697
0
LINE
8
BLACK
6
CONTINUOUS
10
15.7132
20
-23.697
11
15.7574
21
-23.8365
0
LINE
8
BLACK
6
CONTINUOUS
10
15.7574
20
-23.8365
11
15.7575
21
-23.8368
0
LINE
8
BLACK
6
CONTINUOUS
10
15.7575
20
-23.8368
11
15.758
21
-23.8391
0
LINE
8
BLACK
6
CONTINUOUS
10
15.758
20
-23.8391
11
15.7585
21
-23.8413
0
LINE
8
BLACK
6
CONTINUOUS
10
15.7585
20
-23.8413
11
15.7748
21
-23.9867
0
LINE
8
BLACK
6
CONTINUOUS
10
15.7748
20
-23.9867
11
15.7748
21
-23.9871
0
LINE
8
BLACK
6
CONTINUOUS
10
15.7748
20
-23.9871
11
15.7748
21
-23.9882
0
LINE
8
BLACK
6
CONTINUOUS
10
15.7748
20
-23.9882
11
15.7749
21
-23.9894
0
LINE
8
BLACK
6
CONTINUOUS
10
15.7749
20
-23.9894
11
15.775
21
-23.9987
0
LINE
8
BLACK
6
CONTINUOUS
10
15.775
20
-23.9987
11
15.775
21
-23.9988
0
LINE
8
BLACK
6
CONTINUOUS
10
15.775
20
-23.9988
11
15.775
21
-25.7499
0
LINE
8
BLACK
6
CONTINUOUS
10
15.775
20
-25.7499
11
15.775
21
-25.7504
0
LINE
8
BLACK
6
CONTINUOUS
10
15.775
20
-25.7504
11
15.7797
21
-25.7952
0
LINE
8
BLACK
6
CONTINUOUS
10
15.7797
20
-25.7952
11
15.7927
21
-25.8371
0
LINE
8
BLACK
6
CONTINUOUS
10
15.7927
20
-25.8371
11
15.8136
21
-25.8758
0
LINE
8
BLACK
6
CONTINUOUS
10
15.8136
20
-25.8758
11
15.8415
21
-25.9096
0
LINE
8
BLACK
6
CONTINUOUS
10
15.8415
20
-25.9096
11
15.8756
21
-25.9373
0
LINE
8
BLACK
6
CONTINUOUS
10
15.8756
20
-25.9373
11
15.9143
21
-25.9579
0
LINE
8
BLACK
6
CONTINUOUS
10
15.9143
20
-25.9579
11
15.9563
21
-25.9706
0
LINE
8
BLACK
6
CONTINUOUS
10
15.9563
20
-25.9706
11
16.0012
21
-25.975
0
LINE
8
BLACK
6
CONTINUOUS
10
16.0012
20
-25.975
11
18.2499
21
-25.975
0
LINE
8
BLACK
6
CONTINUOUS
10
18.2499
20
-25.975
11
18.2504
21
-25.975
0
LINE
8
BLACK
6
CONTINUOUS
10
18.2504
20
-25.975
11
18.2952
21
-25.9703
0
LINE
8
BLACK
6
CONTINUOUS
10
18.2952
20
-25.9703
11
18.3371
21
-25.9573
0
LINE
8
BLACK
6
CONTINUOUS
10
18.3371
20
-25.9573
11
18.3758
21
-25.9364
0
LINE
8
BLACK
6
CONTINUOUS
10
18.3758
20
-25.9364
11
18.4096
21
-25.9085
0
LINE
8
BLACK
6
CONTINUOUS
10
18.4096
20
-25.9085
11
18.4373
21
-25.8744
0
LINE
8
BLACK
6
CONTINUOUS
10
18.4373
20
-25.8744
11
18.4579
21
-25.8357
0
LINE
8
BLACK
6
CONTINUOUS
10
18.4579
20
-25.8357
11
18.4706
21
-25.7937
0
LINE
8
BLACK
6
CONTINUOUS
10
18.4706
20
-25.7937
11
18.475
21
-25.7488
0
LINE
8
BLACK
6
CONTINUOUS
10
18.475
20
-25.7488
11
18.475
21
25.7499
0
LINE
8
BLACK
6
CONTINUOUS
10
18.475
20
25.7499
11
18.475
21
25.7504
0
LINE
8
BLACK
6
CONTINUOUS
10
18.475
20
25.7504
11
18.4703
21
25.7952
0
LINE
8
BLACK
6
CONTINUOUS
10
18.4703
20
25.7952
11
18.4573
21
25.8371
0
LINE
8
BLACK
6
CONTINUOUS
10
18.4573
20
25.8371
11
18.4364
21
25.8758
0
LINE
8
BLACK
6
CONTINUOUS
10
18.4364
20
25.8758
11
18.4085
21
25.9096
0
LINE
8
BLACK
6
CONTINUOUS
10
18.4085
20
25.9096
11
18.3744
21
25.9373
0
LINE
8
BLACK
6
CONTINUOUS
10
18.3744
20
25.9373
11
18.3357
21
25.9579
0
LINE
8
BLACK
6
CONTINUOUS
10
18.3357
20
25.9579
11
18.2937
21
25.9706
0
LINE
8
BLACK
6
CONTINUOUS
10
18.2937
20
25.9706
11
18.2488
21
25.975
0
LINE
8
BLACK
6
CONTINUOUS
10
18.2488
20
25.975
11
16.0001
21
25.975
0
LINE
8
BLACK
6
CONTINUOUS
10
16.0001
20
25.975
11
15.9996
21
25.975
0
LINE
8
BLACK
6
CONTINUOUS
10
15.9996
20
25.975
11
15.9548
21
25.9703
0
LINE
8
BLACK
6
CONTINUOUS
10
15.9548
20
25.9703
11
15.9129
21
25.9573
0
LINE
8
BLACK
6
CONTINUOUS
10
15.9129
20
25.9573
11
15.8742
21
25.9364
0
LINE
8
BLACK
6
CONTINUOUS
10
15.8742
20
25.9364
11
15.8404
21
25.9085
0
LINE
8
BLACK
6
CONTINUOUS
10
15.8404
20
25.9085
11
15.8127
21
25.8744
0
LINE
8
BLACK
6
CONTINUOUS
10
15.8127
20
25.8744
11
15.7921
21
25.8357
0
LINE
8
BLACK
6
CONTINUOUS
10
15.7921
20
25.8357
11
15.7794
21
25.7937
0
LINE
8
BLACK
6
CONTINUOUS
10
15.7794
20
25.7937
11
15.775
21
25.7488
0
LINE
8
BLACK
6
CONTINUOUS
10
15.775
20
25.7488
11
15.775
21
23.9988
0
LINE
8
BLACK
6
CONTINUOUS
10
15.775
20
23.9988
11
15.7749
21
23.9976
0
LINE
8
BLACK
6
CONTINUOUS
10
15.7749
20
23.9976
11
15.7749
21
23.9976
0
LINE
8
BLACK
6
CONTINUOUS
10
15.7749
20
23.9976
11
15.7606
21
23.8519
0
LINE
8
BLACK
6
CONTINUOUS
10
15.7606
20
23.8519
11
15.7606
21
23.8515
0
LINE
8
BLACK
6
CONTINUOUS
10
15.7606
20
23.8515
11
15.7601
21
23.8493
0
LINE
8
BLACK
6
CONTINUOUS
10
15.7601
20
23.8493
11
15.7596
21
23.8471
0
LINE
8
BLACK
6
CONTINUOUS
10
15.7596
20
23.8471
11
15.7173
21
23.707
0
LINE
8
BLACK
6
CONTINUOUS
10
15.7173
20
23.707
11
15.7172
21
23.7066
0
LINE
8
BLACK
6
CONTINUOUS
10
15.7172
20
23.7066
11
15.7163
21
23.7045
0
LINE
8
BLACK
6
CONTINUOUS
10
15.7163
20
23.7045
11
15.7155
21
23.7025
0
LINE
8
BLACK
6
CONTINUOUS
10
15.7155
20
23.7025
11
15.6468
21
23.5732
0
LINE
8
BLACK
6
CONTINUOUS
10
15.6468
20
23.5732
11
15.6466
21
23.5729
0
LINE
8
BLACK
6
CONTINUOUS
10
15.6466
20
23.5729
11
15.6453
21
23.571
0
LINE
8
BLACK
6
CONTINUOUS
10
15.6453
20
23.571
11
15.6441
21
23.5692
0
LINE
8
BLACK
6
CONTINUOUS
10
15.6441
20
23.5692
11
15.5516
21
23.4557
0
LINE
8
BLACK
6
CONTINUOUS
10
15.5516
20
23.4557
11
15.5513
21
23.4555
0
LINE
8
BLACK
6
CONTINUOUS
10
15.5513
20
23.4555
11
15.5497
21
23.4539
0
LINE
8
BLACK
6
CONTINUOUS
10
15.5497
20
23.4539
11
15.5481
21
23.4523
0
LINE
8
BLACK
6
CONTINUOUS
10
15.5481
20
23.4523
11
15.4353
21
23.359
0
LINE
8
BLACK
6
CONTINUOUS
10
15.4353
20
23.359
11
15.4351
21
23.3587
0
LINE
8
BLACK
6
CONTINUOUS
10
15.4351
20
23.3587
11
15.4332
21
23.3575
0
LINE
8
BLACK
6
CONTINUOUS
10
15.4332
20
23.3575
11
15.4313
21
23.3562
0
LINE
8
BLACK
6
CONTINUOUS
10
15.4313
20
23.3562
11
15.3025
21
23.2866
0
LINE
8
BLACK
6
CONTINUOUS
10
15.3025
20
23.2866
11
15.3022
21
23.2864
0
LINE
8
BLACK
6
CONTINUOUS
10
15.3022
20
23.2864
11
15.3001
21
23.2856
0
LINE
8
BLACK
6
CONTINUOUS
10
15.3001
20
23.2856
11
15.298
21
23.2847
0
LINE
8
BLACK
6
CONTINUOUS
10
15.298
20
23.2847
11
15.1582
21
23.2414
0
LINE
8
BLACK
6
CONTINUOUS
10
15.1582
20
23.2414
11
15.1579
21
23.2413
0
LINE
8
BLACK
6
CONTINUOUS
10
15.1579
20
23.2413
11
15.1556
21
23.2409
0
LINE
8
BLACK
6
CONTINUOUS
10
15.1556
20
23.2409
11
15.1534
21
23.2405
0
LINE
8
BLACK
6
CONTINUOUS
10
15.1534
20
23.2405
11
15.0078
21
23.2252
0
LINE
8
BLACK
6
CONTINUOUS
10
15.0078
20
23.2252
11
15.0075
21
23.2251
0
LINE
8
BLACK
6
CONTINUOUS
10
15.0075
20
23.2251
11
15.0052
21
23.2251
0
LINE
8
BLACK
6
CONTINUOUS
10
15.0052
20
23.2251
11
15.003
21
23.2251
0
LINE
8
BLACK
6
CONTINUOUS
10
15.003
20
23.2251
11
14.8572
21
23.2384
0
LINE
8
BLACK
6
CONTINUOUS
10
14.8572
20
23.2384
11
14.8569
21
23.2384
0
LINE
8
BLACK
6
CONTINUOUS
10
14.8569
20
23.2384
11
14.8546
21
23.2389
0
LINE
8
BLACK
6
CONTINUOUS
10
14.8546
20
23.2389
11
14.8524
21
23.2393
0
LINE
8
BLACK
6
CONTINUOUS
10
14.8524
20
23.2393
11
14.712
21
23.2806
0
LINE
8
BLACK
6
CONTINUOUS
10
14.712
20
23.2806
11
14.712
21
23.2806
0
LINE
8
BLACK
6
CONTINUOUS
10
14.712
20
23.2806
11
14.7117
21
23.2807
0
LINE
8
BLACK
6
CONTINUOUS
10
14.7117
20
23.2807
11
14.7096
21
23.2816
0
LINE
8
BLACK
6
CONTINUOUS
10
14.7096
20
23.2816
11
14.7075
21
23.2825
0
LINE
8
BLACK
6
CONTINUOUS
10
14.7075
20
23.2825
11
14.5778
21
23.3503
0
LINE
8
BLACK
6
CONTINUOUS
10
14.5778
20
23.3503
11
14.5777
21
23.3503
0
LINE
8
BLACK
6
CONTINUOUS
10
14.5777
20
23.3503
11
14.5777
21
23.3503
0
LINE
8
BLACK
6
CONTINUOUS
10
14.5777
20
23.3503
11
14.5774
21
23.3504
0
LINE
8
BLACK
6
CONTINUOUS
10
14.5774
20
23.3504
11
14.5755
21
23.3517
0
LINE
8
BLACK
6
CONTINUOUS
10
14.5755
20
23.3517
11
14.5737
21
23.3529
0
LINE
8
BLACK
6
CONTINUOUS
10
14.5737
20
23.3529
11
14.4596
21
23.4447
0
LINE
8
BLACK
6
CONTINUOUS
10
14.4596
20
23.4447
11
14.4593
21
23.4449
0
LINE
8
BLACK
6
CONTINUOUS
10
14.4593
20
23.4449
11
14.4577
21
23.4465
0
LINE
8
BLACK
6
CONTINUOUS
10
14.4577
20
23.4465
11
14.4561
21
23.4481
0
LINE
8
BLACK
6
CONTINUOUS
10
14.4561
20
23.4481
11
14.362
21
23.5602
0
LINE
8
BLACK
6
CONTINUOUS
10
14.362
20
23.5602
11
14.3618
21
23.5605
0
LINE
8
BLACK
6
CONTINUOUS
10
14.3618
20
23.5605
11
14.3605
21
23.5624
0
LINE
8
BLACK
6
CONTINUOUS
10
14.3605
20
23.5624
11
14.3593
21
23.5642
0
LINE
8
BLACK
6
CONTINUOUS
10
14.3593
20
23.5642
11
14.2887
21
23.6925
0
LINE
8
BLACK
6
CONTINUOUS
10
14.2887
20
23.6925
11
14.2886
21
23.6928
0
LINE
8
BLACK
6
CONTINUOUS
10
14.2886
20
23.6928
11
14.2877
21
23.6949
0
LINE
8
BLACK
6
CONTINUOUS
10
14.2877
20
23.6949
11
14.2868
21
23.697
0
LINE
8
BLACK
6
CONTINUOUS
10
14.2868
20
23.697
11
14.2426
21
23.8365
0
LINE
8
BLACK
6
CONTINUOUS
10
14.2426
20
23.8365
11
14.2425
21
23.8368
0
LINE
8
BLACK
6
CONTINUOUS
10
14.2425
20
23.8368
11
14.242
21
23.8391
0
LINE
8
BLACK
6
CONTINUOUS
10
14.242
20
23.8391
11
14.2415
21
23.8413
0
LINE
8
BLACK
6
CONTINUOUS
10
14.2415
20
23.8413
11
14.2252
21
23.9867
0
LINE
8
BLACK
6
CONTINUOUS
10
14.2252
20
23.9867
11
14.2252
21
23.9871
0
LINE
8
BLACK
6
CONTINUOUS
10
14.2252
20
23.9871
11
14.2252
21
23.9882
0
LINE
8
BLACK
6
CONTINUOUS
10
14.2252
20
23.9882
11
14.2251
21
23.9894
0
LINE
8
BLACK
6
CONTINUOUS
10
14.2251
20
23.9894
11
14.225
21
23.9987
0
LINE
8
BLACK
6
CONTINUOUS
10
14.225
20
23.9987
11
14.225
21
23.9988
0
LINE
8
BLACK
6
CONTINUOUS
10
14.225
20
23.9988
11
14.225
21
23.9998
0
LINE
8
BLACK
6
CONTINUOUS
10
14.225
20
23.9998
11
14.225
21
24.0002
0
LINE
8
BLACK
6
CONTINUOUS
10
14.225
20
24.0002
11
14.225
21
24.0002
0
LINE
8
BLACK
6
CONTINUOUS
10
14.225
20
24.0002
11
14.225
21
25.9773
0
LINE
8
BLACK
6
CONTINUOUS
10
14.225
20
25.9773
11
13.8105
21
26.018
0
LINE
8
BLACK
6
CONTINUOUS
10
13.8105
20
26.018
11
13.8102
21
26.018
0
LINE
8
BLACK
6
CONTINUOUS
10
13.8102
20
26.018
11
13.8079
21
26.0185
0
LINE
8
BLACK
6
CONTINUOUS
10
13.8079
20
26.0185
11
13.8057
21
26.0189
0
LINE
8
BLACK
6
CONTINUOUS
10
13.8057
20
26.0189
11
13.3854
21
26.1458
0
LINE
8
BLACK
6
CONTINUOUS
10
13.3854
20
26.1458
11
13.385
21
26.1459
0
LINE
8
BLACK
6
CONTINUOUS
10
13.385
20
26.1459
11
13.3829
21
26.1468
0
LINE
8
BLACK
6
CONTINUOUS
10
13.3829
20
26.1468
11
13.3809
21
26.1477
0
LINE
8
BLACK
6
CONTINUOUS
10
13.3809
20
26.1477
11
12.9931
21
26.3539
0
LINE
8
BLACK
6
CONTINUOUS
10
12.9931
20
26.3539
11
12.9928
21
26.354
0
LINE
8
BLACK
6
CONTINUOUS
10
12.9928
20
26.354
11
12.9909
21
26.3553
0
LINE
8
BLACK
6
CONTINUOUS
10
12.9909
20
26.3553
11
12.9891
21
26.3566
0
LINE
8
BLACK
6
CONTINUOUS
10
12.9891
20
26.3566
11
12.6488
21
26.6341
0
LINE
8
BLACK
6
CONTINUOUS
10
12.6488
20
26.6341
11
12.6485
21
26.6343
0
LINE
8
BLACK
6
CONTINUOUS
10
12.6485
20
26.6343
11
12.6469
21
26.6359
0
LINE
8
BLACK
6
CONTINUOUS
10
12.6469
20
26.6359
11
12.6453
21
26.6375
0
LINE
8
BLACK
6
CONTINUOUS
10
12.6453
20
26.6375
11
12.3654
21
26.9759
0
LINE
8
BLACK
6
CONTINUOUS
10
12.3654
20
26.9759
11
12.3652
21
26.9762
0
LINE
8
BLACK
6
CONTINUOUS
10
12.3652
20
26.9762
11
12.3639
21
26.978
0
LINE
8
BLACK
6
CONTINUOUS
10
12.3639
20
26.978
11
12.3627
21
26.9799
0
LINE
8
BLACK
6
CONTINUOUS
10
12.3627
20
26.9799
11
12.1538
21
27.3662
0
LINE
8
BLACK
6
CONTINUOUS
10
12.1538
20
27.3662
11
12.1537
21
27.3665
0
LINE
8
BLACK
6
CONTINUOUS
10
12.1537
20
27.3665
11
12.1528
21
27.3686
0
LINE
8
BLACK
6
CONTINUOUS
10
12.1528
20
27.3686
11
12.1519
21
27.3707
0
LINE
8
BLACK
6
CONTINUOUS
10
12.1519
20
27.3707
11
12.0221
21
27.7902
0
LINE
8
BLACK
6
CONTINUOUS
10
12.0221
20
27.7902
11
12.022
21
27.7905
0
LINE
8
BLACK
6
CONTINUOUS
10
12.022
20
27.7905
11
12.0215
21
27.7927
0
LINE
8
BLACK
6
CONTINUOUS
10
12.0215
20
27.7927
11
12.0211
21
27.795
0
LINE
8
BLACK
6
CONTINUOUS
10
12.0211
20
27.795
11
11.9752
21
28.2317
0
LINE
8
BLACK
6
CONTINUOUS
10
11.9752
20
28.2317
11
11.9752
21
28.232
0
LINE
8
BLACK
6
CONTINUOUS
10
11.9752
20
28.232
11
11.9752
21
28.2331
0
LINE
8
BLACK
6
CONTINUOUS
10
11.9752
20
28.2331
11
11.9751
21
28.2342
0
LINE
8
BLACK
6
CONTINUOUS
10
11.9751
20
28.2342
11
11.975
21
28.2488
0
LINE
8
BLACK
6
CONTINUOUS
10
11.975
20
28.2488
11
11.975
21
28.2488
0
LINE
8
BLACK
6
CONTINUOUS
10
11.975
20
28.2488
11
11.975
21
28.2496
0
LINE
8
BLACK
6
CONTINUOUS
10
11.975
20
28.2496
11
11.975
21
28.2499
0
LINE
8
BLACK
6
CONTINUOUS
10
11.975
20
28.2499
11
11.975
21
28.2503
0
LINE
8
BLACK
6
CONTINUOUS
10
11.975
20
28.2503
11
11.975
21
31.7499
0
LINE
8
BLACK
6
CONTINUOUS
10
11.975
20
31.7499
11
11.975
21
31.7521
0
LINE
8
BLACK
6
CONTINUOUS
10
11.975
20
31.7521
11
11.9652
21
31.8455
0
LINE
8
BLACK
6
CONTINUOUS
10
11.9652
20
31.8455
11
11.9378
21
31.934
0
LINE
8
BLACK
6
CONTINUOUS
10
11.9378
20
31.934
11
11.8937
21
32.0155
0
LINE
8
BLACK
6
CONTINUOUS
10
11.8937
20
32.0155
11
11.8346
21
32.087
0
LINE
8
BLACK
6
CONTINUOUS
10
11.8346
20
32.087
11
11.7628
21
32.1455
0
LINE
8
BLACK
6
CONTINUOUS
10
11.7628
20
32.1455
11
11.681
21
32.189
0
LINE
8
BLACK
6
CONTINUOUS
10
11.681
20
32.189
11
11.5922
21
32.2158
0
LINE
8
BLACK
6
CONTINUOUS
10
11.5922
20
32.2158
11
11.4988
21
32.225
0
LINE
8
BLACK
6
CONTINUOUS
10
11.4988
20
32.225
11
-11.4999
21
32.225
0
LINE
8
BLACK
6
CONTINUOUS
10
-11.4999
20
32.225
11
-11.5021
21
32.225
0
LINE
8
BLACK
6
CONTINUOUS
10
-11.5021
20
32.225
11
-11.5955
21
32.2152
0
LINE
8
BLACK
6
CONTINUOUS
10
-11.5955
20
32.2152
11
-11.684
21
32.1878
0
LINE
8
BLACK
6
CONTINUOUS
10
-11.684
20
32.1878
11
-11.7655
21
32.1437
0
LINE
8
BLACK
6
CONTINUOUS
10
-11.7655
20
32.1437
11
-11.837
21
32.0846
0
LINE
8
BLACK
6
CONTINUOUS
10
-11.837
20
32.0846
11
-11.8955
21
32.0128
0
LINE
8
BLACK
6
CONTINUOUS
10
-11.8955
20
32.0128
11
-11.939
21
31.931
0
LINE
8
BLACK
6
CONTINUOUS
10
-11.939
20
31.931
11
-11.9658
21
31.8422
0
LINE
8
BLACK
6
CONTINUOUS
10
-11.9658
20
31.8422
11
-11.975
21
31.7488
0
LINE
8
BLACK
6
CONTINUOUS
10
-11.975
20
31.7488
11
-11.975
21
28.2488
0
LINE
8
BLACK
6
CONTINUOUS
10
-11.975
20
28.2488
11
-11.9751
21
28.2476
0
LINE
8
BLACK
6
CONTINUOUS
10
-11.9751
20
28.2476
11
-11.9751
21
28.2476
0
LINE
8
BLACK
6
CONTINUOUS
10
-11.9751
20
28.2476
11
-12.018
21
27.8105
0
LINE
8
BLACK
6
CONTINUOUS
10
-12.018
20
27.8105
11
-12.018
21
27.8102
0
LINE
8
BLACK
6
CONTINUOUS
10
-12.018
20
27.8102
11
-12.0185
21
27.8079
0
LINE
8
BLACK
6
CONTINUOUS
10
-12.0185
20
27.8079
11
-12.0189
21
27.8057
0
LINE
8
BLACK
6
CONTINUOUS
10
-12.0189
20
27.8057
11
-12.1458
21
27.3854
0
LINE
8
BLACK
6
CONTINUOUS
10
-12.1458
20
27.3854
11
-12.1459
21
27.385
0
LINE
8
BLACK
6
CONTINUOUS
10
-12.1459
20
27.385
11
-12.1468
21
27.3829
0
LINE
8
BLACK
6
CONTINUOUS
10
-12.1468
20
27.3829
11
-12.1477
21
27.3809
0
LINE
8
BLACK
6
CONTINUOUS
10
-12.1477
20
27.3809
11
-12.3539
21
26.9931
0
LINE
8
BLACK
6
CONTINUOUS
10
-12.3539
20
26.9931
11
-12.354
21
26.9928
0
LINE
8
BLACK
6
CONTINUOUS
10
-12.354
20
26.9928
11
-12.3553
21
26.9909
0
LINE
8
BLACK
6
CONTINUOUS
10
-12.3553
20
26.9909
11
-12.3566
21
26.9891
0
LINE
8
BLACK
6
CONTINUOUS
10
-12.3566
20
26.9891
11
-12.6341
21
26.6488
0
LINE
8
BLACK
6
CONTINUOUS
10
-12.6341
20
26.6488
11
-12.6343
21
26.6485
0
LINE
8
BLACK
6
CONTINUOUS
10
-12.6343
20
26.6485
11
-12.6359
21
26.6469
0
LINE
8
BLACK
6
CONTINUOUS
10
-12.6359
20
26.6469
11
-12.6375
21
26.6453
0
LINE
8
BLACK
6
CONTINUOUS
10
-12.6375
20
26.6453
11
-12.9759
21
26.3654
0
LINE
8
BLACK
6
CONTINUOUS
10
-12.9759
20
26.3654
11
-12.9762
21
26.3652
0
LINE
8
BLACK
6
CONTINUOUS
10
-12.9762
20
26.3652
11
-12.978
21
26.3639
0
LINE
8
BLACK
6
CONTINUOUS
10
-12.978
20
26.3639
11
-12.9799
21
26.3627
0
LINE
8
BLACK
6
CONTINUOUS
10
-12.9799
20
26.3627
11
-13.3662
21
26.1538
0
LINE
8
BLACK
6
CONTINUOUS
10
-13.3662
20
26.1538
11
-13.3665
21
26.1537
0
LINE
8
BLACK
6
CONTINUOUS
10
-13.3665
20
26.1537
11
-13.3686
21
26.1528
0
LINE
8
BLACK
6
CONTINUOUS
10
-13.3686
20
26.1528
11
-13.3707
21
26.1519
0
LINE
8
BLACK
6
CONTINUOUS
10
-13.3707
20
26.1519
11
-13.7902
21
26.0221
0
LINE
8
BLACK
6
CONTINUOUS
10
-13.7902
20
26.0221
11
-13.7905
21
26.022
0
LINE
8
BLACK
6
CONTINUOUS
10
-13.7905
20
26.022
11
-13.7927
21
26.0215
0
LINE
8
BLACK
6
CONTINUOUS
10
-13.7927
20
26.0215
11
-13.795
21
26.0211
0
LINE
8
BLACK
6
CONTINUOUS
10
-13.795
20
26.0211
11
-14.225
21
25.9759
0
LINE
8
BLACK
6
CONTINUOUS
10
-14.225
20
25.9759
11
-14.225
21
23.9988
0
LINE
8
BLACK
6
CONTINUOUS
10
-14.225
20
23.9988
11
-14.2251
21
23.9976
0
LINE
8
BLACK
6
CONTINUOUS
10
-14.2251
20
23.9976
11
-14.2251
21
23.9976
0
LINE
8
BLACK
6
CONTINUOUS
10
-14.2251
20
23.9976
11
-14.2394
21
23.8519
0
LINE
8
BLACK
6
CONTINUOUS
10
-14.2394
20
23.8519
11
-14.2394
21
23.8515
0
LINE
8
BLACK
6
CONTINUOUS
10
-14.2394
20
23.8515
11
-14.2399
21
23.8493
0
LINE
8
BLACK
6
CONTINUOUS
10
-14.2399
20
23.8493
11
-14.2404
21
23.8471
0
LINE
8
BLACK
6
CONTINUOUS
10
-14.2404
20
23.8471
11
-14.2827
21
23.707
0
LINE
8
BLACK
6
CONTINUOUS
10
-14.2827
20
23.707
11
-14.2828
21
23.7066
0
LINE
8
BLACK
6
CONTINUOUS
10
-14.2828
20
23.7066
11
-14.2837
21
23.7045
0
LINE
8
BLACK
6
CONTINUOUS
10
-14.2837
20
23.7045
11
-14.2845
21
23.7025
0
LINE
8
BLACK
6
CONTINUOUS
10
-14.2845
20
23.7025
11
-14.3532
21
23.5732
0
LINE
8
BLACK
6
CONTINUOUS
10
-14.3532
20
23.5732
11
-14.3534
21
23.5729
0
LINE
8
BLACK
6
CONTINUOUS
10
-14.3534
20
23.5729
11
-14.3547
21
23.571
0
LINE
8
BLACK
6
CONTINUOUS
10
-14.3547
20
23.571
11
-14.3559
21
23.5692
0
LINE
8
BLACK
6
CONTINUOUS
10
-14.3559
20
23.5692
11
-14.4484
21
23.4557
0
LINE
8
BLACK
6
CONTINUOUS
10
-14.4484
20
23.4557
11
-14.4487
21
23.4555
0
LINE
8
BLACK
6
CONTINUOUS
10
-14.4487
20
23.4555
11
-14.4503
21
23.4539
0
LINE
8
BLACK
6
CONTINUOUS
10
-14.4503
20
23.4539
11
-14.4519
21
23.4523
0
LINE
8
BLACK
6
CONTINUOUS
10
-14.4519
20
23.4523
11
-14.5647
21
23.359
0
LINE
8
BLACK
6
CONTINUOUS
10
-14.5647
20
23.359
11
-14.5649
21
23.3587
0
LINE
8
BLACK
6
CONTINUOUS
10
-14.5649
20
23.3587
11
-14.5668
21
23.3575
0
LINE
8
BLACK
6
CONTINUOUS
10
-14.5668
20
23.3575
11
-14.5687
21
23.3562
0
LINE
8
BLACK
6
CONTINUOUS
10
-14.5687
20
23.3562
11
-14.6975
21
23.2866
0
LINE
8
BLACK
6
CONTINUOUS
10
-14.6975
20
23.2866
11
-14.6978
21
23.2864
0
LINE
8
BLACK
6
CONTINUOUS
10
-14.6978
20
23.2864
11
-14.6999
21
23.2856
0
LINE
8
BLACK
6
CONTINUOUS
10
-14.6999
20
23.2856
11
-14.702
21
23.2847
0
LINE
8
BLACK
6
CONTINUOUS
10
-14.702
20
23.2847
11
-14.8418
21
23.2414
0
LINE
8
BLACK
6
CONTINUOUS
10
-14.8418
20
23.2414
11
-14.8421
21
23.2413
0
LINE
8
BLACK
6
CONTINUOUS
10
-14.8421
20
23.2413
11
-14.8444
21
23.2409
0
LINE
8
BLACK
6
CONTINUOUS
10
-14.8444
20
23.2409
11
-14.8466
21
23.2405
0
LINE
8
BLACK
6
CONTINUOUS
10
-14.8466
20
23.2405
11
-14.9922
21
23.2252
0
LINE
8
BLACK
6
CONTINUOUS
10
-14.9922
20
23.2252
11
-14.9925
21
23.2251
0
LINE
8
BLACK
6
CONTINUOUS
10
-14.9925
20
23.2251
11
-14.9948
21
23.2251
0
LINE
8
BLACK
6
CONTINUOUS
10
-14.9948
20
23.2251
11
-14.997
21
23.2251
0
LINE
8
BLACK
6
CONTINUOUS
10
-14.997
20
23.2251
11
-15.1428
21
23.2384
0
LINE
8
BLACK
6
CONTINUOUS
10
-15.1428
20
23.2384
11
-15.1431
21
23.2384
0
LINE
8
BLACK
6
CONTINUOUS
10
-15.1431
20
23.2384
11
-15.1454
21
23.2389
0
LINE
8
BLACK
6
CONTINUOUS
10
-15.1454
20
23.2389
11
-15.1476
21
23.2393
0
LINE
8
BLACK
6
CONTINUOUS
10
-15.1476
20
23.2393
11
-15.288
21
23.2806
0
LINE
8
BLACK
6
CONTINUOUS
10
-15.288
20
23.2806
11
-15.288
21
23.2806
0
LINE
8
BLACK
6
CONTINUOUS
10
-15.288
20
23.2806
11
-15.2883
21
23.2807
  0
ENDSEC
  0
EOF
