%TF.GenerationSoftware,KiCad,Pcbnew,(5.1.6)-1*%
%TF.CreationDate,2020-09-30T11:01:53+04:00*%
%TF.ProjectId,Generic_Node-BatteryHolder,47656e65-7269-4635-9f4e-6f64652d4261,1.0*%
%TF.SameCoordinates,Original*%
%TF.FileFunction,Copper,L1,Top*%
%TF.FilePolarity,Positive*%
%FSLAX46Y46*%
G04 Gerber Fmt 4.6, Leading zero omitted, Abs format (unit mm)*
G04 Created by KiCad (PCBNEW (5.1.6)-1) date 2020-09-30 11:01:53*
%MOMM*%
%LPD*%
G01*
G04 APERTURE LIST*
%TA.AperFunction,SMDPad,CuDef*%
%ADD10R,2.000000X3.800000*%
%TD*%
%TA.AperFunction,ComponentPad*%
%ADD11C,3.810000*%
%TD*%
%TA.AperFunction,ViaPad*%
%ADD12C,0.800000*%
%TD*%
%TA.AperFunction,Conductor*%
%ADD13C,1.000000*%
%TD*%
%TA.AperFunction,Conductor*%
%ADD14C,0.800000*%
%TD*%
%TA.AperFunction,Conductor*%
%ADD15C,2.000000*%
%TD*%
%TA.AperFunction,Conductor*%
%ADD16C,1.500000*%
%TD*%
G04 APERTURE END LIST*
%TO.P,J1,MP*%
%TO.N,N/C*%
%TA.AperFunction,SMDPad,CuDef*%
G36*
G01*
X147400000Y-128000000D02*
X147400000Y-130500000D01*
G75*
G02*
X147150000Y-130750000I-250000J0D01*
G01*
X146050000Y-130750000D01*
G75*
G02*
X145800000Y-130500000I0J250000D01*
G01*
X145800000Y-128000000D01*
G75*
G02*
X146050000Y-127750000I250000J0D01*
G01*
X147150000Y-127750000D01*
G75*
G02*
X147400000Y-128000000I0J-250000D01*
G01*
G37*
%TD.AperFunction*%
%TA.AperFunction,SMDPad,CuDef*%
G36*
G01*
X154200000Y-128000000D02*
X154200000Y-130500000D01*
G75*
G02*
X153950000Y-130750000I-250000J0D01*
G01*
X152850000Y-130750000D01*
G75*
G02*
X152600000Y-130500000I0J250000D01*
G01*
X152600000Y-128000000D01*
G75*
G02*
X152850000Y-127750000I250000J0D01*
G01*
X153950000Y-127750000D01*
G75*
G02*
X154200000Y-128000000I0J-250000D01*
G01*
G37*
%TD.AperFunction*%
%TO.P,J1,2*%
%TO.N,GND*%
%TA.AperFunction,SMDPad,CuDef*%
G36*
G01*
X149500000Y-124500000D02*
X149500000Y-129500000D01*
G75*
G02*
X149250000Y-129750000I-250000J0D01*
G01*
X148750000Y-129750000D01*
G75*
G02*
X148500000Y-129500000I0J250000D01*
G01*
X148500000Y-124500000D01*
G75*
G02*
X148750000Y-124250000I250000J0D01*
G01*
X149250000Y-124250000D01*
G75*
G02*
X149500000Y-124500000I0J-250000D01*
G01*
G37*
%TD.AperFunction*%
%TO.P,J1,1*%
%TO.N,VCC*%
%TA.AperFunction,SMDPad,CuDef*%
G36*
G01*
X151500000Y-124500000D02*
X151500000Y-129500000D01*
G75*
G02*
X151250000Y-129750000I-250000J0D01*
G01*
X150750000Y-129750000D01*
G75*
G02*
X150500000Y-129500000I0J250000D01*
G01*
X150500000Y-124500000D01*
G75*
G02*
X150750000Y-124250000I250000J0D01*
G01*
X151250000Y-124250000D01*
G75*
G02*
X151500000Y-124500000I0J-250000D01*
G01*
G37*
%TD.AperFunction*%
%TD*%
D10*
%TO.P,J3,1*%
%TO.N,VCC*%
X133000000Y-114800000D03*
%TD*%
%TO.P,J2,1*%
%TO.N,GND*%
X136200000Y-114800000D03*
%TD*%
D11*
%TO.P,BTclip1,1*%
%TO.N,N/C*%
X150000000Y-92450100D03*
X150000000Y-103549900D03*
X142062500Y-98000000D03*
X157937500Y-98000000D03*
%TD*%
%TO.P,BT2,1*%
%TO.N,Net-(BT1-Pad2)*%
%TA.AperFunction,SMDPad,CuDef*%
G36*
G01*
X143668325Y-73870000D02*
X142331675Y-73870000D01*
G75*
G02*
X141831600Y-73369925I0J500075D01*
G01*
X141831600Y-70407675D01*
G75*
G02*
X142331675Y-69907600I500075J0D01*
G01*
X143668325Y-69907600D01*
G75*
G02*
X144168400Y-70407675I0J-500075D01*
G01*
X144168400Y-73369925D01*
G75*
G02*
X143668325Y-73870000I-500075J0D01*
G01*
G37*
%TD.AperFunction*%
%TA.AperFunction,SMDPad,CuDef*%
G36*
G01*
X145041040Y-85476600D02*
X140958960Y-85476600D01*
G75*
G02*
X140460000Y-84977640I0J498960D01*
G01*
X140460000Y-82015560D01*
G75*
G02*
X140958960Y-81516600I498960J0D01*
G01*
X145041040Y-81516600D01*
G75*
G02*
X145540000Y-82015560I0J-498960D01*
G01*
X145540000Y-84977640D01*
G75*
G02*
X145041040Y-85476600I-498960J0D01*
G01*
G37*
%TD.AperFunction*%
%TO.P,BT2,2*%
%TO.N,GND*%
%TA.AperFunction,SMDPad,CuDef*%
G36*
G01*
X143668325Y-126092400D02*
X142331675Y-126092400D01*
G75*
G02*
X141831600Y-125592325I0J500075D01*
G01*
X141831600Y-122630075D01*
G75*
G02*
X142331675Y-122130000I500075J0D01*
G01*
X143668325Y-122130000D01*
G75*
G02*
X144168400Y-122630075I0J-500075D01*
G01*
X144168400Y-125592325D01*
G75*
G02*
X143668325Y-126092400I-500075J0D01*
G01*
G37*
%TD.AperFunction*%
%TA.AperFunction,SMDPad,CuDef*%
G36*
G01*
X145041040Y-114483400D02*
X140958960Y-114483400D01*
G75*
G02*
X140460000Y-113984440I0J498960D01*
G01*
X140460000Y-111022360D01*
G75*
G02*
X140958960Y-110523400I498960J0D01*
G01*
X145041040Y-110523400D01*
G75*
G02*
X145540000Y-111022360I0J-498960D01*
G01*
X145540000Y-113984440D01*
G75*
G02*
X145041040Y-114483400I-498960J0D01*
G01*
G37*
%TD.AperFunction*%
%TD*%
%TO.P,BT1,2*%
%TO.N,Net-(BT1-Pad2)*%
%TA.AperFunction,SMDPad,CuDef*%
G36*
G01*
X159041040Y-114483400D02*
X154958960Y-114483400D01*
G75*
G02*
X154460000Y-113984440I0J498960D01*
G01*
X154460000Y-111022360D01*
G75*
G02*
X154958960Y-110523400I498960J0D01*
G01*
X159041040Y-110523400D01*
G75*
G02*
X159540000Y-111022360I0J-498960D01*
G01*
X159540000Y-113984440D01*
G75*
G02*
X159041040Y-114483400I-498960J0D01*
G01*
G37*
%TD.AperFunction*%
%TA.AperFunction,SMDPad,CuDef*%
G36*
G01*
X157668325Y-126092400D02*
X156331675Y-126092400D01*
G75*
G02*
X155831600Y-125592325I0J500075D01*
G01*
X155831600Y-122630075D01*
G75*
G02*
X156331675Y-122130000I500075J0D01*
G01*
X157668325Y-122130000D01*
G75*
G02*
X158168400Y-122630075I0J-500075D01*
G01*
X158168400Y-125592325D01*
G75*
G02*
X157668325Y-126092400I-500075J0D01*
G01*
G37*
%TD.AperFunction*%
%TO.P,BT1,1*%
%TO.N,VCC*%
%TA.AperFunction,SMDPad,CuDef*%
G36*
G01*
X159041040Y-85476600D02*
X154958960Y-85476600D01*
G75*
G02*
X154460000Y-84977640I0J498960D01*
G01*
X154460000Y-82015560D01*
G75*
G02*
X154958960Y-81516600I498960J0D01*
G01*
X159041040Y-81516600D01*
G75*
G02*
X159540000Y-82015560I0J-498960D01*
G01*
X159540000Y-84977640D01*
G75*
G02*
X159041040Y-85476600I-498960J0D01*
G01*
G37*
%TD.AperFunction*%
%TA.AperFunction,SMDPad,CuDef*%
G36*
G01*
X157668325Y-73870000D02*
X156331675Y-73870000D01*
G75*
G02*
X155831600Y-73369925I0J500075D01*
G01*
X155831600Y-70407675D01*
G75*
G02*
X156331675Y-69907600I500075J0D01*
G01*
X157668325Y-69907600D01*
G75*
G02*
X158168400Y-70407675I0J-500075D01*
G01*
X158168400Y-73369925D01*
G75*
G02*
X157668325Y-73870000I-500075J0D01*
G01*
G37*
%TD.AperFunction*%
%TD*%
D12*
%TO.N,*%
X146600000Y-126100000D03*
X153400000Y-126200000D03*
X155450000Y-129250000D03*
X144100000Y-129200000D03*
%TO.N,Net-(BT1-Pad2)*%
X157000000Y-116600000D03*
X157000000Y-118200000D03*
X157000000Y-120000000D03*
X143000000Y-79600000D03*
X143000000Y-77800000D03*
X143000000Y-75800000D03*
X162000000Y-112500000D03*
X157000000Y-108400000D03*
X146400000Y-83500000D03*
X139500000Y-83500000D03*
X146100000Y-71900000D03*
X139700000Y-71900000D03*
X159800000Y-124100000D03*
X157000000Y-127200000D03*
%TO.N,VCC*%
X147800000Y-119400000D03*
X150400000Y-116700000D03*
X149100000Y-118100000D03*
X137300000Y-120800000D03*
X135300000Y-120800000D03*
X133200000Y-120800000D03*
X154300000Y-71900000D03*
X159700000Y-71900000D03*
X160300000Y-83500000D03*
X153600000Y-83500000D03*
%TO.N,GND*%
X147650000Y-112500000D03*
X145150000Y-108825000D03*
X140200000Y-124100000D03*
X143000000Y-127300000D03*
%TD*%
D13*
%TO.N,*%
X146600000Y-129250000D02*
X146600000Y-126100000D01*
D14*
X146600000Y-129250000D02*
X146600000Y-130900000D01*
X146600000Y-130900000D02*
X146900000Y-131200000D01*
X146900000Y-131200000D02*
X152900000Y-131200000D01*
X153400000Y-130700000D02*
X153400000Y-129250000D01*
X152900000Y-131200000D02*
X153400000Y-130700000D01*
D13*
X153400000Y-129250000D02*
X153400000Y-126200000D01*
X155450000Y-129250000D02*
X153400000Y-129250000D01*
X146600000Y-129250000D02*
X144150000Y-129250000D01*
X144150000Y-129250000D02*
X144100000Y-129200000D01*
D15*
%TO.N,Net-(BT1-Pad2)*%
X157000000Y-124111200D02*
X157000000Y-120000000D01*
X143000000Y-83496600D02*
X143000000Y-79600000D01*
X157000000Y-116600000D02*
X157000000Y-112503400D01*
X157000000Y-118200000D02*
X157000000Y-116600000D01*
X157000000Y-120000000D02*
X157000000Y-118200000D01*
X143000000Y-79600000D02*
X143000000Y-77800000D01*
X143000000Y-77800000D02*
X143000000Y-75800000D01*
X143000000Y-75800000D02*
X143000000Y-71888800D01*
D16*
X157000000Y-112503400D02*
X161996600Y-112503400D01*
X161996600Y-112503400D02*
X162000000Y-112500000D01*
D15*
X157000000Y-112503400D02*
X157000000Y-108400000D01*
D16*
X143000000Y-83496600D02*
X146396600Y-83496600D01*
X146396600Y-83496600D02*
X146400000Y-83500000D01*
X143000000Y-83496600D02*
X139503400Y-83496600D01*
X139503400Y-83496600D02*
X139500000Y-83500000D01*
X143000000Y-71888800D02*
X146088800Y-71888800D01*
X146088800Y-71888800D02*
X146100000Y-71900000D01*
X143000000Y-71888800D02*
X139711200Y-71888800D01*
X139711200Y-71888800D02*
X139700000Y-71900000D01*
X157000000Y-124111200D02*
X159788800Y-124111200D01*
X159788800Y-124111200D02*
X159800000Y-124100000D01*
X157000000Y-124111200D02*
X157000000Y-127200000D01*
D15*
%TO.N,VCC*%
X157000000Y-83496600D02*
X157000000Y-71888800D01*
X154400000Y-89600000D02*
X157000000Y-87000000D01*
X154400000Y-106000000D02*
X154400000Y-89600000D01*
X150900000Y-109500000D02*
X154400000Y-106000000D01*
X150900000Y-116200000D02*
X150900000Y-109500000D01*
X157000000Y-87000000D02*
X157000000Y-83496600D01*
D16*
X151000000Y-119500000D02*
X149300000Y-117800000D01*
D15*
X149300000Y-117800000D02*
X150400000Y-116700000D01*
X149300000Y-117800000D02*
X149300000Y-117900000D01*
X149300000Y-117900000D02*
X149100000Y-118100000D01*
X150400000Y-116700000D02*
X150900000Y-116200000D01*
X149100000Y-118100000D02*
X147800000Y-119400000D01*
X137300000Y-120800000D02*
X133200000Y-120800000D01*
X133000000Y-120600000D02*
X133200000Y-120800000D01*
X133000000Y-114800000D02*
X133000000Y-120600000D01*
D13*
X151000000Y-127000000D02*
X151000000Y-122900000D01*
D16*
X151000000Y-122900000D02*
X151000000Y-119500000D01*
X157000000Y-71888800D02*
X154311200Y-71888800D01*
X154311200Y-71888800D02*
X154300000Y-71900000D01*
X157000000Y-71888800D02*
X159688800Y-71888800D01*
X159688800Y-71888800D02*
X159700000Y-71900000D01*
X157000000Y-83496600D02*
X160296600Y-83496600D01*
X160296600Y-83496600D02*
X160300000Y-83500000D01*
X157000000Y-83496600D02*
X153603400Y-83496600D01*
X153603400Y-83496600D02*
X153600000Y-83500000D01*
%TO.N,GND*%
X143000000Y-112503400D02*
X147646600Y-112503400D01*
X147646600Y-112503400D02*
X147650000Y-112500000D01*
D13*
X149000000Y-127000000D02*
X149000000Y-123900000D01*
X149000000Y-123900000D02*
X148200000Y-123100000D01*
D15*
X143000000Y-124111200D02*
X143000000Y-112503400D01*
D16*
X145150000Y-110353400D02*
X145150000Y-108825000D01*
X143000000Y-112503400D02*
X145150000Y-110353400D01*
D15*
X140703400Y-114800000D02*
X143000000Y-112503400D01*
X136200000Y-114800000D02*
X140703400Y-114800000D01*
D16*
X143000000Y-124111200D02*
X144111200Y-123000000D01*
X148100000Y-123000000D02*
X148200000Y-123100000D01*
X144111200Y-123000000D02*
X148100000Y-123000000D01*
X143000000Y-124111200D02*
X140211200Y-124111200D01*
X140211200Y-124111200D02*
X140200000Y-124100000D01*
X143000000Y-124111200D02*
X143000000Y-127300000D01*
%TD*%
M02*
