%TF.GenerationSoftware,KiCad,Pcbnew,(5.1.6)-1*%
%TF.CreationDate,2020-09-30T11:01:53+04:00*%
%TF.ProjectId,Generic_Node-BatteryHolder,47656e65-7269-4635-9f4e-6f64652d4261,1.0*%
%TF.SameCoordinates,Original*%
%TF.FileFunction,Legend,Top*%
%TF.FilePolarity,Positive*%
%FSLAX46Y46*%
G04 Gerber Fmt 4.6, Leading zero omitted, Abs format (unit mm)*
G04 Created by KiCad (PCBNEW (5.1.6)-1) date 2020-09-30 11:01:53*
%MOMM*%
%LPD*%
G01*
G04 APERTURE LIST*
%ADD10C,0.400000*%
%ADD11C,0.500000*%
%ADD12C,0.120000*%
%ADD13C,0.150000*%
%ADD14C,0.300000*%
G04 APERTURE END LIST*
D10*
X152238095Y-125392857D02*
X153761904Y-125392857D01*
X153000000Y-126154761D02*
X153000000Y-124630952D01*
D11*
X152607142Y-69200000D02*
X154892857Y-69200000D01*
X153750000Y-70266666D02*
X153750000Y-68133333D01*
X145107142Y-69200000D02*
X147392857Y-69200000D01*
X146250000Y-70266666D02*
X146250000Y-68133333D01*
X159357142Y-126200000D02*
X161642857Y-126200000D01*
X138357142Y-126200000D02*
X140642857Y-126200000D01*
X135107142Y-118850000D02*
X137392857Y-118850000D01*
X131757142Y-118850000D02*
X134042857Y-118850000D01*
X132900000Y-119916666D02*
X132900000Y-117783333D01*
D12*
%TO.C,J1*%
X154085000Y-127490000D02*
X154085000Y-126640000D01*
X154085000Y-126640000D02*
X151760000Y-126640000D01*
X151760000Y-126640000D02*
X151760000Y-124250000D01*
X145915000Y-127490000D02*
X145915000Y-126640000D01*
X145915000Y-126640000D02*
X148240000Y-126640000D01*
X154085000Y-131010000D02*
X154085000Y-131860000D01*
X154085000Y-131860000D02*
X145915000Y-131860000D01*
X145915000Y-131860000D02*
X145915000Y-131010000D01*
D13*
%TO.C,J3*%
X131800000Y-112700000D02*
X134200000Y-112700000D01*
X131800000Y-116900000D02*
X131800000Y-112700000D01*
X134200000Y-116900000D02*
X131800000Y-116900000D01*
X134200000Y-112700000D02*
X134200000Y-116900000D01*
%TO.C,J2*%
X137400000Y-116900000D02*
X135000000Y-116900000D01*
X137400000Y-112700000D02*
X137400000Y-116900000D01*
X135000000Y-112700000D02*
X137400000Y-112700000D01*
X135000000Y-116900000D02*
X135000000Y-112700000D01*
D12*
%TO.C,BTclip1*%
X164071600Y-106026400D02*
X137198400Y-106026400D01*
X164071600Y-89973600D02*
X164071600Y-106026400D01*
X137198400Y-89973600D02*
X164071600Y-89973600D01*
X137198400Y-106026400D02*
X137198400Y-89973600D01*
%TO.C,J1*%
D13*
X149666666Y-130452380D02*
X149666666Y-131166666D01*
X149619047Y-131309523D01*
X149523809Y-131404761D01*
X149380952Y-131452380D01*
X149285714Y-131452380D01*
X150666666Y-131452380D02*
X150095238Y-131452380D01*
X150380952Y-131452380D02*
X150380952Y-130452380D01*
X150285714Y-130595238D01*
X150190476Y-130690476D01*
X150095238Y-130738095D01*
%TO.C,BT2*%
D14*
X143042857Y-88211904D02*
X143042857Y-86688095D01*
X143804761Y-87450000D02*
X142280952Y-87450000D01*
X142238095Y-109192857D02*
X143761904Y-109192857D01*
%TO.C,BT1*%
X156238095Y-109192857D02*
X157761904Y-109192857D01*
X157042857Y-88211904D02*
X157042857Y-86688095D01*
X157804761Y-87450000D02*
X156280952Y-87450000D01*
%TD*%
M02*
