M48
; DRILL file {KiCad (5.1.6)-1} date 09/30/20 11:02:02
; FORMAT={-:-/ absolute / metric / decimal}
; #@! TF.CreationDate,2020-09-30T11:02:02+04:00
; #@! TF.GenerationSoftware,Kicad,Pcbnew,(5.1.6)-1
FMAT,2
METRIC
T1C0.400
T2C0.500
T3C2.489
%
G90
G05
T1
X143.0Y-75.8
X143.0Y-77.8
X143.0Y-79.6
X144.1Y-129.2
X145.15Y-108.825
X146.6Y-126.1
X147.65Y-112.5
X153.4Y-126.2
X155.45Y-129.25
X157.0Y-116.6
X157.0Y-118.2
X157.0Y-120.0
X162.0Y-112.5
T2
X133.2Y-120.8
X135.3Y-120.8
X137.3Y-120.8
X139.5Y-83.5
X139.7Y-71.9
X140.2Y-124.1
X143.0Y-127.3
X146.1Y-71.9
X146.4Y-83.5
X147.8Y-119.4
X149.1Y-118.1
X150.4Y-116.7
X153.6Y-83.5
X154.3Y-71.9
X157.0Y-108.4
X157.0Y-127.2
X159.7Y-71.9
X159.8Y-124.1
X160.3Y-83.5
T3
X142.062Y-98.0
X150.0Y-92.45
X150.0Y-103.55
X157.938Y-98.0
T0
M30
