%TF.GenerationSoftware,KiCad,Pcbnew,(5.1.6)-1*%
%TF.CreationDate,2020-09-30T11:01:53+04:00*%
%TF.ProjectId,Generic_Node-BatteryHolder,47656e65-7269-4635-9f4e-6f64652d4261,1.0*%
%TF.SameCoordinates,Original*%
%TF.FileFunction,Soldermask,Top*%
%TF.FilePolarity,Negative*%
%FSLAX46Y46*%
G04 Gerber Fmt 4.6, Leading zero omitted, Abs format (unit mm)*
G04 Created by KiCad (PCBNEW (5.1.6)-1) date 2020-09-30 11:01:53*
%MOMM*%
%LPD*%
G01*
G04 APERTURE LIST*
%ADD10R,2.100000X3.900000*%
%ADD11C,3.810000*%
%ADD12C,3.910000*%
G04 APERTURE END LIST*
%TO.C,J1*%
G36*
G01*
X147450000Y-127965625D02*
X147450000Y-130534375D01*
G75*
G02*
X147184375Y-130800000I-265625J0D01*
G01*
X146015625Y-130800000D01*
G75*
G02*
X145750000Y-130534375I0J265625D01*
G01*
X145750000Y-127965625D01*
G75*
G02*
X146015625Y-127700000I265625J0D01*
G01*
X147184375Y-127700000D01*
G75*
G02*
X147450000Y-127965625I0J-265625D01*
G01*
G37*
G36*
G01*
X154250000Y-127965625D02*
X154250000Y-130534375D01*
G75*
G02*
X153984375Y-130800000I-265625J0D01*
G01*
X152815625Y-130800000D01*
G75*
G02*
X152550000Y-130534375I0J265625D01*
G01*
X152550000Y-127965625D01*
G75*
G02*
X152815625Y-127700000I265625J0D01*
G01*
X153984375Y-127700000D01*
G75*
G02*
X154250000Y-127965625I0J-265625D01*
G01*
G37*
G36*
G01*
X149550000Y-124475000D02*
X149550000Y-129525000D01*
G75*
G02*
X149275000Y-129800000I-275000J0D01*
G01*
X148725000Y-129800000D01*
G75*
G02*
X148450000Y-129525000I0J275000D01*
G01*
X148450000Y-124475000D01*
G75*
G02*
X148725000Y-124200000I275000J0D01*
G01*
X149275000Y-124200000D01*
G75*
G02*
X149550000Y-124475000I0J-275000D01*
G01*
G37*
G36*
G01*
X151550000Y-124475000D02*
X151550000Y-129525000D01*
G75*
G02*
X151275000Y-129800000I-275000J0D01*
G01*
X150725000Y-129800000D01*
G75*
G02*
X150450000Y-129525000I0J275000D01*
G01*
X150450000Y-124475000D01*
G75*
G02*
X150725000Y-124200000I275000J0D01*
G01*
X151275000Y-124200000D01*
G75*
G02*
X151550000Y-124475000I0J-275000D01*
G01*
G37*
%TD*%
D10*
%TO.C,J3*%
X133000000Y-114800000D03*
%TD*%
%TO.C,J2*%
X136200000Y-114800000D03*
%TD*%
D11*
%TO.C,BTclip1*%
X142062500Y-98000000D03*
X157937500Y-98000000D03*
X150000000Y-103549900D03*
X150000000Y-92450100D03*
D12*
X150000000Y-92450100D03*
X150000000Y-103549900D03*
X142062500Y-98000000D03*
X157937500Y-98000000D03*
%TD*%
%TO.C,BT2*%
G36*
G01*
X143696925Y-73920000D02*
X142303075Y-73920000D01*
G75*
G02*
X141781600Y-73398525I0J521475D01*
G01*
X141781600Y-70379075D01*
G75*
G02*
X142303075Y-69857600I521475J0D01*
G01*
X143696925Y-69857600D01*
G75*
G02*
X144218400Y-70379075I0J-521475D01*
G01*
X144218400Y-73398525D01*
G75*
G02*
X143696925Y-73920000I-521475J0D01*
G01*
G37*
G36*
G01*
X145078440Y-85526600D02*
X140921560Y-85526600D01*
G75*
G02*
X140410000Y-85015040I0J511560D01*
G01*
X140410000Y-81978160D01*
G75*
G02*
X140921560Y-81466600I511560J0D01*
G01*
X145078440Y-81466600D01*
G75*
G02*
X145590000Y-81978160I0J-511560D01*
G01*
X145590000Y-85015040D01*
G75*
G02*
X145078440Y-85526600I-511560J0D01*
G01*
G37*
G36*
G01*
X143696925Y-126142400D02*
X142303075Y-126142400D01*
G75*
G02*
X141781600Y-125620925I0J521475D01*
G01*
X141781600Y-122601475D01*
G75*
G02*
X142303075Y-122080000I521475J0D01*
G01*
X143696925Y-122080000D01*
G75*
G02*
X144218400Y-122601475I0J-521475D01*
G01*
X144218400Y-125620925D01*
G75*
G02*
X143696925Y-126142400I-521475J0D01*
G01*
G37*
G36*
G01*
X145078440Y-114533400D02*
X140921560Y-114533400D01*
G75*
G02*
X140410000Y-114021840I0J511560D01*
G01*
X140410000Y-110984960D01*
G75*
G02*
X140921560Y-110473400I511560J0D01*
G01*
X145078440Y-110473400D01*
G75*
G02*
X145590000Y-110984960I0J-511560D01*
G01*
X145590000Y-114021840D01*
G75*
G02*
X145078440Y-114533400I-511560J0D01*
G01*
G37*
%TD*%
%TO.C,BT1*%
G36*
G01*
X159078440Y-114533400D02*
X154921560Y-114533400D01*
G75*
G02*
X154410000Y-114021840I0J511560D01*
G01*
X154410000Y-110984960D01*
G75*
G02*
X154921560Y-110473400I511560J0D01*
G01*
X159078440Y-110473400D01*
G75*
G02*
X159590000Y-110984960I0J-511560D01*
G01*
X159590000Y-114021840D01*
G75*
G02*
X159078440Y-114533400I-511560J0D01*
G01*
G37*
G36*
G01*
X157696925Y-126142400D02*
X156303075Y-126142400D01*
G75*
G02*
X155781600Y-125620925I0J521475D01*
G01*
X155781600Y-122601475D01*
G75*
G02*
X156303075Y-122080000I521475J0D01*
G01*
X157696925Y-122080000D01*
G75*
G02*
X158218400Y-122601475I0J-521475D01*
G01*
X158218400Y-125620925D01*
G75*
G02*
X157696925Y-126142400I-521475J0D01*
G01*
G37*
G36*
G01*
X159078440Y-85526600D02*
X154921560Y-85526600D01*
G75*
G02*
X154410000Y-85015040I0J511560D01*
G01*
X154410000Y-81978160D01*
G75*
G02*
X154921560Y-81466600I511560J0D01*
G01*
X159078440Y-81466600D01*
G75*
G02*
X159590000Y-81978160I0J-511560D01*
G01*
X159590000Y-85015040D01*
G75*
G02*
X159078440Y-85526600I-511560J0D01*
G01*
G37*
G36*
G01*
X157696925Y-73920000D02*
X156303075Y-73920000D01*
G75*
G02*
X155781600Y-73398525I0J521475D01*
G01*
X155781600Y-70379075D01*
G75*
G02*
X156303075Y-69857600I521475J0D01*
G01*
X157696925Y-69857600D01*
G75*
G02*
X158218400Y-70379075I0J-521475D01*
G01*
X158218400Y-73398525D01*
G75*
G02*
X157696925Y-73920000I-521475J0D01*
G01*
G37*
%TD*%
M02*
