%TF.GenerationSoftware,KiCad,Pcbnew,(5.1.6)-1*%
%TF.CreationDate,2020-09-30T11:01:53+04:00*%
%TF.ProjectId,Generic_Node-BatteryHolder,47656e65-7269-4635-9f4e-6f64652d4261,1.0*%
%TF.SameCoordinates,Original*%
%TF.FileFunction,Copper,L2,Bot*%
%TF.FilePolarity,Positive*%
%FSLAX46Y46*%
G04 Gerber Fmt 4.6, Leading zero omitted, Abs format (unit mm)*
G04 Created by KiCad (PCBNEW (5.1.6)-1) date 2020-09-30 11:01:53*
%MOMM*%
%LPD*%
G01*
G04 APERTURE LIST*
%TA.AperFunction,ComponentPad*%
%ADD10C,3.810000*%
%TD*%
%TA.AperFunction,ViaPad*%
%ADD11C,0.800000*%
%TD*%
%TA.AperFunction,Conductor*%
%ADD12C,2.000000*%
%TD*%
G04 APERTURE END LIST*
D10*
%TO.P,BTclip1,1*%
%TO.N,N/C*%
X150000000Y-92450100D03*
X150000000Y-103549900D03*
X142062500Y-98000000D03*
X157937500Y-98000000D03*
%TD*%
D11*
%TO.N,*%
X146600000Y-126100000D03*
X153400000Y-126200000D03*
X155450000Y-129250000D03*
X144100000Y-129200000D03*
%TO.N,Net-(BT1-Pad2)*%
X157000000Y-116600000D03*
X157000000Y-118200000D03*
X157000000Y-120000000D03*
X143000000Y-79600000D03*
X143000000Y-77800000D03*
X143000000Y-75800000D03*
X162000000Y-112500000D03*
X157000000Y-108400000D03*
X146400000Y-83500000D03*
X139500000Y-83500000D03*
X146100000Y-71900000D03*
X139700000Y-71900000D03*
X159800000Y-124100000D03*
X157000000Y-127200000D03*
%TO.N,VCC*%
X147800000Y-119400000D03*
X150400000Y-116700000D03*
X149100000Y-118100000D03*
X137300000Y-120800000D03*
X135300000Y-120800000D03*
X133200000Y-120800000D03*
X154300000Y-71900000D03*
X159700000Y-71900000D03*
X160300000Y-83500000D03*
X153600000Y-83500000D03*
%TO.N,GND*%
X147650000Y-112500000D03*
X145150000Y-108825000D03*
X140200000Y-124100000D03*
X143000000Y-127300000D03*
%TD*%
D12*
%TO.N,Net-(BT1-Pad2)*%
X143000000Y-75800000D02*
X143000000Y-79600000D01*
X143000000Y-79600000D02*
X143000000Y-90600000D01*
X143000000Y-90600000D02*
X157000000Y-104600000D01*
X157000000Y-104600000D02*
X157000000Y-108400000D01*
X157000000Y-108400000D02*
X157000000Y-120000000D01*
%TO.N,VCC*%
X150400000Y-116700000D02*
X146300000Y-120800000D01*
X146300000Y-120800000D02*
X137300000Y-120800000D01*
X137300000Y-120800000D02*
X135300000Y-120800000D01*
X135300000Y-120800000D02*
X133200000Y-120800000D01*
X133200000Y-120800000D02*
X133200000Y-120800000D01*
%TD*%
M02*
