%TF.GenerationSoftware,KiCad,Pcbnew,(5.1.6)-1*%
%TF.CreationDate,2020-09-30T11:01:53+04:00*%
%TF.ProjectId,Generic_Node-BatteryHolder,47656e65-7269-4635-9f4e-6f64652d4261,1.0*%
%TF.SameCoordinates,Original*%
%TF.FileFunction,Paste,Top*%
%TF.FilePolarity,Positive*%
%FSLAX46Y46*%
G04 Gerber Fmt 4.6, Leading zero omitted, Abs format (unit mm)*
G04 Created by KiCad (PCBNEW (5.1.6)-1) date 2020-09-30 11:01:53*
%MOMM*%
%LPD*%
G01*
G04 APERTURE LIST*
%ADD10R,2.000000X3.800000*%
%ADD11C,3.810000*%
G04 APERTURE END LIST*
%TO.C,J1*%
G36*
G01*
X147400000Y-128000000D02*
X147400000Y-130500000D01*
G75*
G02*
X147150000Y-130750000I-250000J0D01*
G01*
X146050000Y-130750000D01*
G75*
G02*
X145800000Y-130500000I0J250000D01*
G01*
X145800000Y-128000000D01*
G75*
G02*
X146050000Y-127750000I250000J0D01*
G01*
X147150000Y-127750000D01*
G75*
G02*
X147400000Y-128000000I0J-250000D01*
G01*
G37*
G36*
G01*
X154200000Y-128000000D02*
X154200000Y-130500000D01*
G75*
G02*
X153950000Y-130750000I-250000J0D01*
G01*
X152850000Y-130750000D01*
G75*
G02*
X152600000Y-130500000I0J250000D01*
G01*
X152600000Y-128000000D01*
G75*
G02*
X152850000Y-127750000I250000J0D01*
G01*
X153950000Y-127750000D01*
G75*
G02*
X154200000Y-128000000I0J-250000D01*
G01*
G37*
G36*
G01*
X149500000Y-124500000D02*
X149500000Y-129500000D01*
G75*
G02*
X149250000Y-129750000I-250000J0D01*
G01*
X148750000Y-129750000D01*
G75*
G02*
X148500000Y-129500000I0J250000D01*
G01*
X148500000Y-124500000D01*
G75*
G02*
X148750000Y-124250000I250000J0D01*
G01*
X149250000Y-124250000D01*
G75*
G02*
X149500000Y-124500000I0J-250000D01*
G01*
G37*
G36*
G01*
X151500000Y-124500000D02*
X151500000Y-129500000D01*
G75*
G02*
X151250000Y-129750000I-250000J0D01*
G01*
X150750000Y-129750000D01*
G75*
G02*
X150500000Y-129500000I0J250000D01*
G01*
X150500000Y-124500000D01*
G75*
G02*
X150750000Y-124250000I250000J0D01*
G01*
X151250000Y-124250000D01*
G75*
G02*
X151500000Y-124500000I0J-250000D01*
G01*
G37*
%TD*%
D10*
%TO.C,J3*%
X133000000Y-114800000D03*
%TD*%
%TO.C,J2*%
X136200000Y-114800000D03*
%TD*%
D11*
%TO.C,BTclip1*%
X142062500Y-98000000D03*
X157937500Y-98000000D03*
X150000000Y-103549900D03*
X150000000Y-92450100D03*
X157937500Y-98000000D03*
%TD*%
%TO.C,BT2*%
G36*
G01*
X143668325Y-73870000D02*
X142331675Y-73870000D01*
G75*
G02*
X141831600Y-73369925I0J500075D01*
G01*
X141831600Y-70407675D01*
G75*
G02*
X142331675Y-69907600I500075J0D01*
G01*
X143668325Y-69907600D01*
G75*
G02*
X144168400Y-70407675I0J-500075D01*
G01*
X144168400Y-73369925D01*
G75*
G02*
X143668325Y-73870000I-500075J0D01*
G01*
G37*
G36*
G01*
X145041040Y-85476600D02*
X140958960Y-85476600D01*
G75*
G02*
X140460000Y-84977640I0J498960D01*
G01*
X140460000Y-82015560D01*
G75*
G02*
X140958960Y-81516600I498960J0D01*
G01*
X145041040Y-81516600D01*
G75*
G02*
X145540000Y-82015560I0J-498960D01*
G01*
X145540000Y-84977640D01*
G75*
G02*
X145041040Y-85476600I-498960J0D01*
G01*
G37*
G36*
G01*
X143668325Y-126092400D02*
X142331675Y-126092400D01*
G75*
G02*
X141831600Y-125592325I0J500075D01*
G01*
X141831600Y-122630075D01*
G75*
G02*
X142331675Y-122130000I500075J0D01*
G01*
X143668325Y-122130000D01*
G75*
G02*
X144168400Y-122630075I0J-500075D01*
G01*
X144168400Y-125592325D01*
G75*
G02*
X143668325Y-126092400I-500075J0D01*
G01*
G37*
G36*
G01*
X145041040Y-114483400D02*
X140958960Y-114483400D01*
G75*
G02*
X140460000Y-113984440I0J498960D01*
G01*
X140460000Y-111022360D01*
G75*
G02*
X140958960Y-110523400I498960J0D01*
G01*
X145041040Y-110523400D01*
G75*
G02*
X145540000Y-111022360I0J-498960D01*
G01*
X145540000Y-113984440D01*
G75*
G02*
X145041040Y-114483400I-498960J0D01*
G01*
G37*
%TD*%
%TO.C,BT1*%
G36*
G01*
X159041040Y-114483400D02*
X154958960Y-114483400D01*
G75*
G02*
X154460000Y-113984440I0J498960D01*
G01*
X154460000Y-111022360D01*
G75*
G02*
X154958960Y-110523400I498960J0D01*
G01*
X159041040Y-110523400D01*
G75*
G02*
X159540000Y-111022360I0J-498960D01*
G01*
X159540000Y-113984440D01*
G75*
G02*
X159041040Y-114483400I-498960J0D01*
G01*
G37*
G36*
G01*
X157668325Y-126092400D02*
X156331675Y-126092400D01*
G75*
G02*
X155831600Y-125592325I0J500075D01*
G01*
X155831600Y-122630075D01*
G75*
G02*
X156331675Y-122130000I500075J0D01*
G01*
X157668325Y-122130000D01*
G75*
G02*
X158168400Y-122630075I0J-500075D01*
G01*
X158168400Y-125592325D01*
G75*
G02*
X157668325Y-126092400I-500075J0D01*
G01*
G37*
G36*
G01*
X159041040Y-85476600D02*
X154958960Y-85476600D01*
G75*
G02*
X154460000Y-84977640I0J498960D01*
G01*
X154460000Y-82015560D01*
G75*
G02*
X154958960Y-81516600I498960J0D01*
G01*
X159041040Y-81516600D01*
G75*
G02*
X159540000Y-82015560I0J-498960D01*
G01*
X159540000Y-84977640D01*
G75*
G02*
X159041040Y-85476600I-498960J0D01*
G01*
G37*
G36*
G01*
X157668325Y-73870000D02*
X156331675Y-73870000D01*
G75*
G02*
X155831600Y-73369925I0J500075D01*
G01*
X155831600Y-70407675D01*
G75*
G02*
X156331675Y-69907600I500075J0D01*
G01*
X157668325Y-69907600D01*
G75*
G02*
X158168400Y-70407675I0J-500075D01*
G01*
X158168400Y-73369925D01*
G75*
G02*
X157668325Y-73870000I-500075J0D01*
G01*
G37*
%TD*%
M02*
