M48
; DRILL file {KiCad (5.1.6)-1} date 06/24/20 13:46:29
; FORMAT={-:-/ absolute / metric / decimal}
; #@! TF.CreationDate,2020-06-24T13:46:29+02:00
; #@! TF.GenerationSoftware,Kicad,Pcbnew,(5.1.6)-1
FMAT,2
METRIC
T1C0.250
T2C0.300
T3C0.762
T4C1.700
T5C2.500
%
G90
G05
T1
X127.366Y-118.016
X127.533Y-100.655
X128.095Y-100.437
X128.298Y-97.65
X128.694Y-100.497
X129.459Y-98.014
X129.548Y-99.002
X130.454Y-91.516
X130.556Y-90.126
X130.674Y-106.802
X131.215Y-111.843
X132.207Y-114.249
X132.244Y-118.647
X132.653Y-110.389
X133.119Y-110.002
X133.542Y-105.311
X135.001Y-102.26
X135.23Y-93.167
X135.462Y-99.319
X135.462Y-99.921
X135.532Y-109.891
X135.788Y-93.802
X136.164Y-109.393
X136.271Y-94.285
X138.913Y-89.23
X139.167Y-91.745
X140.659Y-94.403
X141.247Y-94.273
X142.357Y-94.198
X142.687Y-92.944
X143.096Y-92.532
X143.538Y-92.095
X144.575Y-98.058
X144.704Y-94.742
X144.884Y-109.334
X145.085Y-97.591
X145.17Y-94.361
X145.63Y-93.849
X145.785Y-108.16
X145.809Y-109.417
X146.287Y-99.773
X146.355Y-100.871
X146.587Y-112.572
X146.592Y-100.292
X146.596Y-90.881
X147.158Y-113.051
X151.016Y-90.233
T2
X121.343Y-104.384
X121.409Y-97.549
X121.575Y-100.604
X122.646Y-104.473
X123.863Y-106.578
X124.678Y-70.034
X124.678Y-75.905
X124.678Y-93.52
X124.678Y-119.616
X124.678Y-125.488
X124.714Y-109.347
X124.806Y-106.576
X125.532Y-100.574
X125.603Y-90.932
X125.672Y-103.17
X126.441Y-97.485
X126.487Y-106.048
X126.492Y-106.985
X126.726Y-98.313
X126.736Y-99.858
X126.741Y-99.273
X127.287Y-114.419
X127.287Y-117.015
X127.333Y-115.611
X127.356Y-113.055
X127.373Y-111.858
X127.733Y-93.568
X127.94Y-72.643
X128.097Y-98.946
X128.219Y-109.068
X128.593Y-127.445
X129.057Y-125.349
X129.177Y-89.596
X129.54Y-96.469
X129.898Y-68.729
X130.0Y-106.139
X130.016Y-101.714
X130.073Y-122.758
X130.495Y-100.683
X130.579Y-102.989
X130.988Y-115.519
X131.202Y-75.253
X131.318Y-93.015
X131.379Y-97.142
X131.597Y-83.693
X131.699Y-107.085
X131.773Y-97.701
X131.851Y-99.339
X132.179Y-84.696
X132.613Y-90.653
X133.096Y-116.688
X133.16Y-71.338
X133.243Y-88.595
X133.812Y-126.14
X133.937Y-82.001
X133.947Y-96.444
X133.949Y-85.476
X134.036Y-93.421
X134.073Y-119.758
X134.073Y-121.258
X134.073Y-122.758
X134.173Y-111.958
X134.173Y-112.758
X134.579Y-71.349
X134.6Y-68.6
X134.725Y-82.9
X134.725Y-83.925
X134.725Y-84.85
X134.75Y-85.75
X134.75Y-86.7
X134.75Y-87.65
X134.763Y-98.387
X134.775Y-88.55
X134.8Y-89.5
X134.823Y-90.449
X134.823Y-91.415
X134.95Y-108.584
X135.073Y-111.958
X135.153Y-82.271
X135.191Y-97.714
X135.2Y-69.2
X135.2Y-70.0
X135.2Y-73.4
X135.2Y-75.4
X135.2Y-77.0
X135.757Y-108.499
X135.769Y-130.054
X135.85Y-82.225
X135.935Y-94.834
X135.973Y-111.958
X135.973Y-112.758
X136.073Y-119.758
X136.073Y-121.258
X136.073Y-122.758
X136.169Y-91.999
X136.271Y-92.634
X136.3Y-78.9
X136.45Y-77.8
X136.475Y-82.25
X136.496Y-103.374
X136.6Y-78.4
X136.754Y-93.116
X136.839Y-112.036
X136.957Y-92.151
X136.973Y-112.758
X137.075Y-82.4
X137.081Y-83.538
X137.16Y-85.09
X137.185Y-87.706
X137.185Y-88.595
X137.185Y-89.256
X137.225Y-86.741
X137.231Y-84.259
X137.236Y-93.599
X137.25Y-85.925
X137.432Y-81.875
X137.643Y-89.764
X137.693Y-93.98
X137.795Y-97.155
X137.795Y-98.425
X137.795Y-99.695
X137.795Y-100.965
X137.82Y-92.913
X137.95Y-78.35
X137.95Y-79.325
X137.973Y-118.288
X137.998Y-84.252
X138.01Y-77.75
X138.04Y-80.04
X138.073Y-119.758
X138.073Y-121.258
X138.073Y-122.758
X138.175Y-93.525
X138.18Y-77.03
X138.379Y-89.764
X138.582Y-82.042
X138.7Y-79.65
X138.735Y-92.975
X138.76Y-118.847
X138.825Y-85.776
X138.85Y-87.63
X138.862Y-84.229
X138.874Y-84.983
X138.875Y-86.665
X138.887Y-88.57
X138.91Y-77.03
X139.014Y-81.686
X139.031Y-127.445
X139.065Y-97.155
X139.065Y-98.425
X139.065Y-99.695
X139.065Y-100.965
X139.3Y-92.375
X139.325Y-78.975
X139.464Y-103.326
X139.573Y-81.471
X139.573Y-121.258
X139.573Y-122.758
X139.6Y-77.0
X139.698Y-115.347
X139.701Y-118.982
X139.802Y-91.237
X139.821Y-103.872
X139.827Y-91.821
X139.875Y-78.35
X140.284Y-81.458
X140.335Y-97.155
X140.335Y-98.425
X140.335Y-99.695
X140.335Y-100.965
X140.4Y-77.0
X140.45Y-77.8
X140.513Y-111.481
X140.589Y-79.731
X141.021Y-81.458
X141.046Y-79.197
X141.083Y-105.297
X141.211Y-103.542
X141.224Y-82.601
X141.249Y-83.363
X141.249Y-83.998
X141.249Y-84.734
X141.249Y-85.522
X141.249Y-86.97
X141.249Y-91.948
X141.25Y-86.275
X141.287Y-87.63
X141.3Y-77.275
X141.415Y-88.519
X141.415Y-89.471
X141.415Y-90.424
X141.433Y-104.423
X141.573Y-119.758
X141.573Y-121.258
X141.573Y-122.758
X141.575Y-78.775
X141.605Y-97.155
X141.605Y-98.425
X141.605Y-99.695
X141.605Y-100.965
X141.641Y-124.183
X141.775Y-81.45
X141.884Y-82.675
X142.025Y-78.325
X142.2Y-77.175
X142.24Y-104.076
X142.342Y-83.109
X142.525Y-81.725
X142.646Y-83.668
X142.646Y-84.43
X142.646Y-85.192
X142.646Y-85.903
X142.646Y-86.563
X142.646Y-87.224
X142.646Y-87.884
X142.65Y-78.325
X142.977Y-77.1
X143.078Y-82.225
X143.561Y-82.804
X143.573Y-119.758
X143.573Y-121.258
X143.573Y-122.758
X143.59Y-114.04
X143.665Y-104.099
X143.744Y-107.518
X143.764Y-83.617
X143.764Y-84.43
X143.764Y-85.141
X143.764Y-85.852
X143.764Y-86.563
X143.764Y-87.224
X143.764Y-87.909
X143.925Y-88.519
X143.954Y-91.376
X143.975Y-89.2
X143.975Y-90.425
X144.025Y-77.1
X144.141Y-95.191
X144.25Y-130.054
X144.283Y-96.457
X144.333Y-78.359
X144.35Y-114.03
X144.381Y-97.113
X144.463Y-107.505
X144.745Y-103.524
X144.882Y-77.175
X144.975Y-78.359
X145.12Y-90.414
X145.13Y-114.0
X145.271Y-84.283
X145.274Y-92.917
X145.528Y-103.519
X145.573Y-119.758
X145.573Y-121.258
X145.573Y-122.758
X145.7Y-78.35
X145.712Y-86.677
X145.75Y-77.175
X145.807Y-95.568
X145.821Y-124.155
X145.847Y-125.298
X146.025Y-102.921
X146.286Y-106.64
X146.329Y-78.35
X146.398Y-92.058
X146.583Y-77.175
X146.86Y-111.135
X146.888Y-94.285
X146.946Y-108.001
X147.015Y-78.334
X147.14Y-91.743
X147.4Y-69.8
X147.4Y-70.8
X147.4Y-71.8
X147.4Y-73.0
X147.4Y-74.0
X147.4Y-75.0
X147.4Y-76.0
X147.425Y-77.175
X147.714Y-90.475
X147.825Y-76.65
X147.95Y-78.3
X148.006Y-76.022
X148.245Y-68.816
X148.514Y-78.029
X148.938Y-98.522
X149.125Y-77.9
X149.244Y-105.181
X149.25Y-101.498
X149.47Y-114.397
X149.784Y-77.724
X150.122Y-130.054
X150.266Y-94.691
X150.266Y-95.504
X150.266Y-106.959
X150.292Y-92.773
X150.317Y-105.156
X150.317Y-107.874
X150.774Y-73.296
X150.774Y-79.167
X150.774Y-85.039
X152.057Y-90.246
X152.079Y-123.53
X152.756Y-88.887
X152.781Y-98.654
X152.916Y-104.505
X152.933Y-103.739
X153.384Y-69.381
X153.678Y-110.132
X154.036Y-75.905
X154.036Y-87.648
X154.036Y-96.13
X154.036Y-102.001
X154.036Y-112.44
X154.036Y-127.445
X154.229Y-86.36
X154.457Y-92.532
X154.628Y-110.099
X154.689Y-117.659
X154.737Y-94.691
X155.016Y-103.353
X155.245Y-107.417
X155.372Y-90.627
X156.642Y-106.236
X156.769Y-105.08
T3
X125.703Y-80.677
X125.703Y-82.677
X125.703Y-84.677
X125.703Y-86.677
T4
X131.519Y-121.153
X131.519Y-128.773
X147.759Y-121.153
X147.759Y-128.773
X131.519Y-79.97
X131.519Y-87.59
X147.759Y-79.97
X147.759Y-87.59
T5
X156.812Y-123.51
X156.82Y-74.6
X122.588Y-123.51
X122.58Y-74.6
T0
M30
