G04 #@! TF.GenerationSoftware,KiCad,Pcbnew,(5.1.6)-1*
G04 #@! TF.CreationDate,2020-06-24T13:46:23+02:00*
G04 #@! TF.ProjectId,ST-Node-V0.1,53542d4e-6f64-4652-9d56-302e312e6b69,rev?*
G04 #@! TF.SameCoordinates,Original*
G04 #@! TF.FileFunction,Soldermask,Top*
G04 #@! TF.FilePolarity,Negative*
%FSLAX46Y46*%
G04 Gerber Fmt 4.6, Leading zero omitted, Abs format (unit mm)*
G04 Created by KiCad (PCBNEW (5.1.6)-1) date 2020-06-24 13:46:23*
%MOMM*%
%LPD*%
G01*
G04 APERTURE LIST*
%ADD10C,2.650000*%
%ADD11R,1.400000X1.600000*%
%ADD12R,0.850000X0.400000*%
%ADD13R,0.450000X0.475000*%
%ADD14R,0.475000X0.450000*%
%ADD15C,0.100000*%
%ADD16R,0.700000X0.550000*%
%ADD17C,2.600000*%
%ADD18R,0.900000X1.000000*%
%ADD19R,0.800000X0.550000*%
%ADD20C,1.100000*%
%ADD21R,0.750000X1.160000*%
%ADD22R,1.160000X0.750000*%
%ADD23C,0.310000*%
%ADD24R,0.900000X0.650000*%
%ADD25C,1.500000*%
%ADD26R,0.800000X1.500000*%
%ADD27R,0.800000X1.550000*%
%ADD28R,0.370000X0.430000*%
%ADD29R,0.430000X0.370000*%
%ADD30R,0.900000X0.700000*%
%ADD31R,1.100000X1.350000*%
%ADD32R,0.400000X1.800000*%
%ADD33R,0.700000X0.370000*%
%ADD34R,2.500000X0.840000*%
%ADD35R,0.600000X0.900000*%
%ADD36R,1.200000X2.100000*%
%ADD37R,1.800000X1.000000*%
%ADD38R,5.550000X5.550000*%
%ADD39R,1.624000X1.624000*%
%ADD40C,1.624000*%
G04 APERTURE END LIST*
G36*
G01*
X137679700Y-104278600D02*
X138074700Y-104278600D01*
G75*
G02*
X138247200Y-104451100I0J-172500D01*
G01*
X138247200Y-104796100D01*
G75*
G02*
X138074700Y-104968600I-172500J0D01*
G01*
X137679700Y-104968600D01*
G75*
G02*
X137507200Y-104796100I0J172500D01*
G01*
X137507200Y-104451100D01*
G75*
G02*
X137679700Y-104278600I172500J0D01*
G01*
G37*
G36*
G01*
X137679700Y-105248600D02*
X138074700Y-105248600D01*
G75*
G02*
X138247200Y-105421100I0J-172500D01*
G01*
X138247200Y-105766100D01*
G75*
G02*
X138074700Y-105938600I-172500J0D01*
G01*
X137679700Y-105938600D01*
G75*
G02*
X137507200Y-105766100I0J172500D01*
G01*
X137507200Y-105421100D01*
G75*
G02*
X137679700Y-105248600I172500J0D01*
G01*
G37*
D10*
X147759040Y-121153300D03*
X147759040Y-128773300D03*
X131519040Y-121153300D03*
X131519040Y-128773300D03*
X147759040Y-87589740D03*
X147759040Y-79969740D03*
X131519040Y-87589740D03*
X131519040Y-79969740D03*
D11*
X150320500Y-103276400D03*
D12*
X151770500Y-102526400D03*
X151770500Y-103026400D03*
X151770500Y-103526400D03*
X151770500Y-104026400D03*
X148870500Y-104026400D03*
X148870500Y-103526400D03*
X148870500Y-103026400D03*
X148870500Y-102526400D03*
D13*
X128342200Y-99797100D03*
X127842200Y-99797100D03*
X127842200Y-98272100D03*
X128342200Y-98272100D03*
D14*
X127329700Y-99784600D03*
X128854700Y-99784600D03*
X127329700Y-98284600D03*
X128854700Y-98284600D03*
X127329700Y-98784600D03*
X127329700Y-99284600D03*
X128854700Y-98784600D03*
X128854700Y-99284600D03*
D15*
G36*
X148581207Y-75901201D02*
G01*
X147768034Y-75088028D01*
X149394379Y-73461683D01*
X150207552Y-74274856D01*
X148581207Y-75901201D01*
G37*
G36*
X148934760Y-77598257D02*
G01*
X148156943Y-76820440D01*
X148970116Y-76007267D01*
X149747933Y-76785084D01*
X148934760Y-77598257D01*
G37*
G36*
X150667172Y-77987166D02*
G01*
X149853999Y-77173993D01*
X151480344Y-75547648D01*
X152293517Y-76360821D01*
X150667172Y-77987166D01*
G37*
G36*
G01*
X139877058Y-79872951D02*
X139597751Y-80152259D01*
G75*
G02*
X139353799Y-80152259I-121976J121976D01*
G01*
X139109847Y-79908307D01*
G75*
G02*
X139109847Y-79664355I121976J121976D01*
G01*
X139389155Y-79385047D01*
G75*
G02*
X139633107Y-79385047I121976J-121976D01*
G01*
X139877059Y-79628999D01*
G75*
G02*
X139877059Y-79872951I-121976J-121976D01*
G01*
G37*
G36*
G01*
X140562952Y-80558845D02*
X140283645Y-80838153D01*
G75*
G02*
X140039693Y-80838153I-121976J121976D01*
G01*
X139795741Y-80594201D01*
G75*
G02*
X139795741Y-80350249I121976J121976D01*
G01*
X140075049Y-80070941D01*
G75*
G02*
X140319001Y-80070941I121976J-121976D01*
G01*
X140562953Y-80314893D01*
G75*
G02*
X140562953Y-80558845I-121976J-121976D01*
G01*
G37*
G36*
G01*
X138627249Y-80888858D02*
X138347941Y-80609551D01*
G75*
G02*
X138347941Y-80365599I121976J121976D01*
G01*
X138591893Y-80121647D01*
G75*
G02*
X138835845Y-80121647I121976J-121976D01*
G01*
X139115153Y-80400955D01*
G75*
G02*
X139115153Y-80644907I-121976J-121976D01*
G01*
X138871201Y-80888859D01*
G75*
G02*
X138627249Y-80888859I-121976J121976D01*
G01*
G37*
G36*
G01*
X137941355Y-81574752D02*
X137662047Y-81295445D01*
G75*
G02*
X137662047Y-81051493I121976J121976D01*
G01*
X137905999Y-80807541D01*
G75*
G02*
X138149951Y-80807541I121976J-121976D01*
G01*
X138429259Y-81086849D01*
G75*
G02*
X138429259Y-81330801I-121976J-121976D01*
G01*
X138185307Y-81574753D01*
G75*
G02*
X137941355Y-81574753I-121976J121976D01*
G01*
G37*
G36*
G01*
X133591600Y-83890500D02*
X133591600Y-83495500D01*
G75*
G02*
X133764100Y-83323000I172500J0D01*
G01*
X134109100Y-83323000D01*
G75*
G02*
X134281600Y-83495500I0J-172500D01*
G01*
X134281600Y-83890500D01*
G75*
G02*
X134109100Y-84063000I-172500J0D01*
G01*
X133764100Y-84063000D01*
G75*
G02*
X133591600Y-83890500I0J172500D01*
G01*
G37*
G36*
G01*
X132621600Y-83890500D02*
X132621600Y-83495500D01*
G75*
G02*
X132794100Y-83323000I172500J0D01*
G01*
X133139100Y-83323000D01*
G75*
G02*
X133311600Y-83495500I0J-172500D01*
G01*
X133311600Y-83890500D01*
G75*
G02*
X133139100Y-84063000I-172500J0D01*
G01*
X132794100Y-84063000D01*
G75*
G02*
X132621600Y-83890500I0J172500D01*
G01*
G37*
G36*
G01*
X147584000Y-83012900D02*
X147584000Y-83407900D01*
G75*
G02*
X147411500Y-83580400I-172500J0D01*
G01*
X147066500Y-83580400D01*
G75*
G02*
X146894000Y-83407900I0J172500D01*
G01*
X146894000Y-83012900D01*
G75*
G02*
X147066500Y-82840400I172500J0D01*
G01*
X147411500Y-82840400D01*
G75*
G02*
X147584000Y-83012900I0J-172500D01*
G01*
G37*
G36*
G01*
X148554000Y-83012900D02*
X148554000Y-83407900D01*
G75*
G02*
X148381500Y-83580400I-172500J0D01*
G01*
X148036500Y-83580400D01*
G75*
G02*
X147864000Y-83407900I0J172500D01*
G01*
X147864000Y-83012900D01*
G75*
G02*
X148036500Y-82840400I172500J0D01*
G01*
X148381500Y-82840400D01*
G75*
G02*
X148554000Y-83012900I0J-172500D01*
G01*
G37*
G36*
G01*
X142548950Y-105764200D02*
X143111450Y-105764200D01*
G75*
G02*
X143355200Y-106007950I0J-243750D01*
G01*
X143355200Y-106495450D01*
G75*
G02*
X143111450Y-106739200I-243750J0D01*
G01*
X142548950Y-106739200D01*
G75*
G02*
X142305200Y-106495450I0J243750D01*
G01*
X142305200Y-106007950D01*
G75*
G02*
X142548950Y-105764200I243750J0D01*
G01*
G37*
G36*
G01*
X142548950Y-104189200D02*
X143111450Y-104189200D01*
G75*
G02*
X143355200Y-104432950I0J-243750D01*
G01*
X143355200Y-104920450D01*
G75*
G02*
X143111450Y-105164200I-243750J0D01*
G01*
X142548950Y-105164200D01*
G75*
G02*
X142305200Y-104920450I0J243750D01*
G01*
X142305200Y-104432950D01*
G75*
G02*
X142548950Y-104189200I243750J0D01*
G01*
G37*
G36*
G01*
X146181150Y-105002200D02*
X146743650Y-105002200D01*
G75*
G02*
X146987400Y-105245950I0J-243750D01*
G01*
X146987400Y-105733450D01*
G75*
G02*
X146743650Y-105977200I-243750J0D01*
G01*
X146181150Y-105977200D01*
G75*
G02*
X145937400Y-105733450I0J243750D01*
G01*
X145937400Y-105245950D01*
G75*
G02*
X146181150Y-105002200I243750J0D01*
G01*
G37*
G36*
G01*
X146181150Y-103427200D02*
X146743650Y-103427200D01*
G75*
G02*
X146987400Y-103670950I0J-243750D01*
G01*
X146987400Y-104158450D01*
G75*
G02*
X146743650Y-104402200I-243750J0D01*
G01*
X146181150Y-104402200D01*
G75*
G02*
X145937400Y-104158450I0J243750D01*
G01*
X145937400Y-103670950D01*
G75*
G02*
X146181150Y-103427200I243750J0D01*
G01*
G37*
G36*
G01*
X132346400Y-93249100D02*
X132346400Y-93644100D01*
G75*
G02*
X132173900Y-93816600I-172500J0D01*
G01*
X131828900Y-93816600D01*
G75*
G02*
X131656400Y-93644100I0J172500D01*
G01*
X131656400Y-93249100D01*
G75*
G02*
X131828900Y-93076600I172500J0D01*
G01*
X132173900Y-93076600D01*
G75*
G02*
X132346400Y-93249100I0J-172500D01*
G01*
G37*
G36*
G01*
X133316400Y-93249100D02*
X133316400Y-93644100D01*
G75*
G02*
X133143900Y-93816600I-172500J0D01*
G01*
X132798900Y-93816600D01*
G75*
G02*
X132626400Y-93644100I0J172500D01*
G01*
X132626400Y-93249100D01*
G75*
G02*
X132798900Y-93076600I172500J0D01*
G01*
X133143900Y-93076600D01*
G75*
G02*
X133316400Y-93249100I0J-172500D01*
G01*
G37*
G36*
G01*
X142580060Y-88303720D02*
X142580060Y-88698720D01*
G75*
G02*
X142407560Y-88871220I-172500J0D01*
G01*
X142062560Y-88871220D01*
G75*
G02*
X141890060Y-88698720I0J172500D01*
G01*
X141890060Y-88303720D01*
G75*
G02*
X142062560Y-88131220I172500J0D01*
G01*
X142407560Y-88131220D01*
G75*
G02*
X142580060Y-88303720I0J-172500D01*
G01*
G37*
G36*
G01*
X143550060Y-88303720D02*
X143550060Y-88698720D01*
G75*
G02*
X143377560Y-88871220I-172500J0D01*
G01*
X143032560Y-88871220D01*
G75*
G02*
X142860060Y-88698720I0J172500D01*
G01*
X142860060Y-88303720D01*
G75*
G02*
X143032560Y-88131220I172500J0D01*
G01*
X143377560Y-88131220D01*
G75*
G02*
X143550060Y-88303720I0J-172500D01*
G01*
G37*
G36*
G01*
X132626400Y-92704300D02*
X132626400Y-92309300D01*
G75*
G02*
X132798900Y-92136800I172500J0D01*
G01*
X133143900Y-92136800D01*
G75*
G02*
X133316400Y-92309300I0J-172500D01*
G01*
X133316400Y-92704300D01*
G75*
G02*
X133143900Y-92876800I-172500J0D01*
G01*
X132798900Y-92876800D01*
G75*
G02*
X132626400Y-92704300I0J172500D01*
G01*
G37*
G36*
G01*
X131656400Y-92704300D02*
X131656400Y-92309300D01*
G75*
G02*
X131828900Y-92136800I172500J0D01*
G01*
X132173900Y-92136800D01*
G75*
G02*
X132346400Y-92309300I0J-172500D01*
G01*
X132346400Y-92704300D01*
G75*
G02*
X132173900Y-92876800I-172500J0D01*
G01*
X131828900Y-92876800D01*
G75*
G02*
X131656400Y-92704300I0J172500D01*
G01*
G37*
G36*
G01*
X143437500Y-89801400D02*
X143042500Y-89801400D01*
G75*
G02*
X142870000Y-89628900I0J172500D01*
G01*
X142870000Y-89283900D01*
G75*
G02*
X143042500Y-89111400I172500J0D01*
G01*
X143437500Y-89111400D01*
G75*
G02*
X143610000Y-89283900I0J-172500D01*
G01*
X143610000Y-89628900D01*
G75*
G02*
X143437500Y-89801400I-172500J0D01*
G01*
G37*
G36*
G01*
X143437500Y-90771400D02*
X143042500Y-90771400D01*
G75*
G02*
X142870000Y-90598900I0J172500D01*
G01*
X142870000Y-90253900D01*
G75*
G02*
X143042500Y-90081400I172500J0D01*
G01*
X143437500Y-90081400D01*
G75*
G02*
X143610000Y-90253900I0J-172500D01*
G01*
X143610000Y-90598900D01*
G75*
G02*
X143437500Y-90771400I-172500J0D01*
G01*
G37*
G36*
G01*
X138738950Y-107034200D02*
X139301450Y-107034200D01*
G75*
G02*
X139545200Y-107277950I0J-243750D01*
G01*
X139545200Y-107765450D01*
G75*
G02*
X139301450Y-108009200I-243750J0D01*
G01*
X138738950Y-108009200D01*
G75*
G02*
X138495200Y-107765450I0J243750D01*
G01*
X138495200Y-107277950D01*
G75*
G02*
X138738950Y-107034200I243750J0D01*
G01*
G37*
G36*
G01*
X138738950Y-105459200D02*
X139301450Y-105459200D01*
G75*
G02*
X139545200Y-105702950I0J-243750D01*
G01*
X139545200Y-106190450D01*
G75*
G02*
X139301450Y-106434200I-243750J0D01*
G01*
X138738950Y-106434200D01*
G75*
G02*
X138495200Y-106190450I0J243750D01*
G01*
X138495200Y-105702950D01*
G75*
G02*
X138738950Y-105459200I243750J0D01*
G01*
G37*
G36*
G01*
X140212150Y-107034200D02*
X140774650Y-107034200D01*
G75*
G02*
X141018400Y-107277950I0J-243750D01*
G01*
X141018400Y-107765450D01*
G75*
G02*
X140774650Y-108009200I-243750J0D01*
G01*
X140212150Y-108009200D01*
G75*
G02*
X139968400Y-107765450I0J243750D01*
G01*
X139968400Y-107277950D01*
G75*
G02*
X140212150Y-107034200I243750J0D01*
G01*
G37*
G36*
G01*
X140212150Y-105459200D02*
X140774650Y-105459200D01*
G75*
G02*
X141018400Y-105702950I0J-243750D01*
G01*
X141018400Y-106190450D01*
G75*
G02*
X140774650Y-106434200I-243750J0D01*
G01*
X140212150Y-106434200D01*
G75*
G02*
X139968400Y-106190450I0J243750D01*
G01*
X139968400Y-105702950D01*
G75*
G02*
X140212150Y-105459200I243750J0D01*
G01*
G37*
G36*
G01*
X150129700Y-99294300D02*
X150129700Y-99689300D01*
G75*
G02*
X149957200Y-99861800I-172500J0D01*
G01*
X149612200Y-99861800D01*
G75*
G02*
X149439700Y-99689300I0J172500D01*
G01*
X149439700Y-99294300D01*
G75*
G02*
X149612200Y-99121800I172500J0D01*
G01*
X149957200Y-99121800D01*
G75*
G02*
X150129700Y-99294300I0J-172500D01*
G01*
G37*
G36*
G01*
X151099700Y-99294300D02*
X151099700Y-99689300D01*
G75*
G02*
X150927200Y-99861800I-172500J0D01*
G01*
X150582200Y-99861800D01*
G75*
G02*
X150409700Y-99689300I0J172500D01*
G01*
X150409700Y-99294300D01*
G75*
G02*
X150582200Y-99121800I172500J0D01*
G01*
X150927200Y-99121800D01*
G75*
G02*
X151099700Y-99294300I0J-172500D01*
G01*
G37*
G36*
G01*
X120300100Y-99276200D02*
X120695100Y-99276200D01*
G75*
G02*
X120867600Y-99448700I0J-172500D01*
G01*
X120867600Y-99793700D01*
G75*
G02*
X120695100Y-99966200I-172500J0D01*
G01*
X120300100Y-99966200D01*
G75*
G02*
X120127600Y-99793700I0J172500D01*
G01*
X120127600Y-99448700D01*
G75*
G02*
X120300100Y-99276200I172500J0D01*
G01*
G37*
G36*
G01*
X120300100Y-98306200D02*
X120695100Y-98306200D01*
G75*
G02*
X120867600Y-98478700I0J-172500D01*
G01*
X120867600Y-98823700D01*
G75*
G02*
X120695100Y-98996200I-172500J0D01*
G01*
X120300100Y-98996200D01*
G75*
G02*
X120127600Y-98823700I0J172500D01*
G01*
X120127600Y-98478700D01*
G75*
G02*
X120300100Y-98306200I172500J0D01*
G01*
G37*
G36*
G01*
X151641600Y-101695900D02*
X151641600Y-101300900D01*
G75*
G02*
X151814100Y-101128400I172500J0D01*
G01*
X152159100Y-101128400D01*
G75*
G02*
X152331600Y-101300900I0J-172500D01*
G01*
X152331600Y-101695900D01*
G75*
G02*
X152159100Y-101868400I-172500J0D01*
G01*
X151814100Y-101868400D01*
G75*
G02*
X151641600Y-101695900I0J172500D01*
G01*
G37*
G36*
G01*
X150671600Y-101695900D02*
X150671600Y-101300900D01*
G75*
G02*
X150844100Y-101128400I172500J0D01*
G01*
X151189100Y-101128400D01*
G75*
G02*
X151361600Y-101300900I0J-172500D01*
G01*
X151361600Y-101695900D01*
G75*
G02*
X151189100Y-101868400I-172500J0D01*
G01*
X150844100Y-101868400D01*
G75*
G02*
X150671600Y-101695900I0J172500D01*
G01*
G37*
G36*
G01*
X126562500Y-101764800D02*
X126167500Y-101764800D01*
G75*
G02*
X125995000Y-101592300I0J172500D01*
G01*
X125995000Y-101247300D01*
G75*
G02*
X126167500Y-101074800I172500J0D01*
G01*
X126562500Y-101074800D01*
G75*
G02*
X126735000Y-101247300I0J-172500D01*
G01*
X126735000Y-101592300D01*
G75*
G02*
X126562500Y-101764800I-172500J0D01*
G01*
G37*
G36*
G01*
X126562500Y-102734800D02*
X126167500Y-102734800D01*
G75*
G02*
X125995000Y-102562300I0J172500D01*
G01*
X125995000Y-102217300D01*
G75*
G02*
X126167500Y-102044800I172500J0D01*
G01*
X126562500Y-102044800D01*
G75*
G02*
X126735000Y-102217300I0J-172500D01*
G01*
X126735000Y-102562300D01*
G75*
G02*
X126562500Y-102734800I-172500J0D01*
G01*
G37*
G36*
G01*
X152558100Y-89340000D02*
X152953100Y-89340000D01*
G75*
G02*
X153125600Y-89512500I0J-172500D01*
G01*
X153125600Y-89857500D01*
G75*
G02*
X152953100Y-90030000I-172500J0D01*
G01*
X152558100Y-90030000D01*
G75*
G02*
X152385600Y-89857500I0J172500D01*
G01*
X152385600Y-89512500D01*
G75*
G02*
X152558100Y-89340000I172500J0D01*
G01*
G37*
G36*
G01*
X152558100Y-90310000D02*
X152953100Y-90310000D01*
G75*
G02*
X153125600Y-90482500I0J-172500D01*
G01*
X153125600Y-90827500D01*
G75*
G02*
X152953100Y-91000000I-172500J0D01*
G01*
X152558100Y-91000000D01*
G75*
G02*
X152385600Y-90827500I0J172500D01*
G01*
X152385600Y-90482500D01*
G75*
G02*
X152558100Y-90310000I172500J0D01*
G01*
G37*
G36*
G01*
X125811900Y-99174600D02*
X126206900Y-99174600D01*
G75*
G02*
X126379400Y-99347100I0J-172500D01*
G01*
X126379400Y-99692100D01*
G75*
G02*
X126206900Y-99864600I-172500J0D01*
G01*
X125811900Y-99864600D01*
G75*
G02*
X125639400Y-99692100I0J172500D01*
G01*
X125639400Y-99347100D01*
G75*
G02*
X125811900Y-99174600I172500J0D01*
G01*
G37*
G36*
G01*
X125811900Y-98204600D02*
X126206900Y-98204600D01*
G75*
G02*
X126379400Y-98377100I0J-172500D01*
G01*
X126379400Y-98722100D01*
G75*
G02*
X126206900Y-98894600I-172500J0D01*
G01*
X125811900Y-98894600D01*
G75*
G02*
X125639400Y-98722100I0J172500D01*
G01*
X125639400Y-98377100D01*
G75*
G02*
X125811900Y-98204600I172500J0D01*
G01*
G37*
G36*
G01*
X146807000Y-118899250D02*
X146807000Y-118336750D01*
G75*
G02*
X147050750Y-118093000I243750J0D01*
G01*
X147538250Y-118093000D01*
G75*
G02*
X147782000Y-118336750I0J-243750D01*
G01*
X147782000Y-118899250D01*
G75*
G02*
X147538250Y-119143000I-243750J0D01*
G01*
X147050750Y-119143000D01*
G75*
G02*
X146807000Y-118899250I0J243750D01*
G01*
G37*
G36*
G01*
X148382000Y-118899250D02*
X148382000Y-118336750D01*
G75*
G02*
X148625750Y-118093000I243750J0D01*
G01*
X149113250Y-118093000D01*
G75*
G02*
X149357000Y-118336750I0J-243750D01*
G01*
X149357000Y-118899250D01*
G75*
G02*
X149113250Y-119143000I-243750J0D01*
G01*
X148625750Y-119143000D01*
G75*
G02*
X148382000Y-118899250I0J243750D01*
G01*
G37*
G36*
G01*
X130728100Y-105757400D02*
X130333100Y-105757400D01*
G75*
G02*
X130160600Y-105584900I0J172500D01*
G01*
X130160600Y-105239900D01*
G75*
G02*
X130333100Y-105067400I172500J0D01*
G01*
X130728100Y-105067400D01*
G75*
G02*
X130900600Y-105239900I0J-172500D01*
G01*
X130900600Y-105584900D01*
G75*
G02*
X130728100Y-105757400I-172500J0D01*
G01*
G37*
G36*
G01*
X130728100Y-104787400D02*
X130333100Y-104787400D01*
G75*
G02*
X130160600Y-104614900I0J172500D01*
G01*
X130160600Y-104269900D01*
G75*
G02*
X130333100Y-104097400I172500J0D01*
G01*
X130728100Y-104097400D01*
G75*
G02*
X130900600Y-104269900I0J-172500D01*
G01*
X130900600Y-104614900D01*
G75*
G02*
X130728100Y-104787400I-172500J0D01*
G01*
G37*
G36*
G01*
X147748100Y-94729600D02*
X148143100Y-94729600D01*
G75*
G02*
X148315600Y-94902100I0J-172500D01*
G01*
X148315600Y-95247100D01*
G75*
G02*
X148143100Y-95419600I-172500J0D01*
G01*
X147748100Y-95419600D01*
G75*
G02*
X147575600Y-95247100I0J172500D01*
G01*
X147575600Y-94902100D01*
G75*
G02*
X147748100Y-94729600I172500J0D01*
G01*
G37*
G36*
G01*
X147748100Y-93759600D02*
X148143100Y-93759600D01*
G75*
G02*
X148315600Y-93932100I0J-172500D01*
G01*
X148315600Y-94277100D01*
G75*
G02*
X148143100Y-94449600I-172500J0D01*
G01*
X147748100Y-94449600D01*
G75*
G02*
X147575600Y-94277100I0J172500D01*
G01*
X147575600Y-93932100D01*
G75*
G02*
X147748100Y-93759600I172500J0D01*
G01*
G37*
G36*
G01*
X152887820Y-97715760D02*
X152492820Y-97715760D01*
G75*
G02*
X152320320Y-97543260I0J172500D01*
G01*
X152320320Y-97198260D01*
G75*
G02*
X152492820Y-97025760I172500J0D01*
G01*
X152887820Y-97025760D01*
G75*
G02*
X153060320Y-97198260I0J-172500D01*
G01*
X153060320Y-97543260D01*
G75*
G02*
X152887820Y-97715760I-172500J0D01*
G01*
G37*
G36*
G01*
X152887820Y-96745760D02*
X152492820Y-96745760D01*
G75*
G02*
X152320320Y-96573260I0J172500D01*
G01*
X152320320Y-96228260D01*
G75*
G02*
X152492820Y-96055760I172500J0D01*
G01*
X152887820Y-96055760D01*
G75*
G02*
X153060320Y-96228260I0J-172500D01*
G01*
X153060320Y-96573260D01*
G75*
G02*
X152887820Y-96745760I-172500J0D01*
G01*
G37*
G36*
G01*
X131349100Y-105067400D02*
X131744100Y-105067400D01*
G75*
G02*
X131916600Y-105239900I0J-172500D01*
G01*
X131916600Y-105584900D01*
G75*
G02*
X131744100Y-105757400I-172500J0D01*
G01*
X131349100Y-105757400D01*
G75*
G02*
X131176600Y-105584900I0J172500D01*
G01*
X131176600Y-105239900D01*
G75*
G02*
X131349100Y-105067400I172500J0D01*
G01*
G37*
G36*
G01*
X131349100Y-104097400D02*
X131744100Y-104097400D01*
G75*
G02*
X131916600Y-104269900I0J-172500D01*
G01*
X131916600Y-104614900D01*
G75*
G02*
X131744100Y-104787400I-172500J0D01*
G01*
X131349100Y-104787400D01*
G75*
G02*
X131176600Y-104614900I0J172500D01*
G01*
X131176600Y-104269900D01*
G75*
G02*
X131349100Y-104097400I172500J0D01*
G01*
G37*
G36*
G01*
X152994500Y-109277700D02*
X152599500Y-109277700D01*
G75*
G02*
X152427000Y-109105200I0J172500D01*
G01*
X152427000Y-108760200D01*
G75*
G02*
X152599500Y-108587700I172500J0D01*
G01*
X152994500Y-108587700D01*
G75*
G02*
X153167000Y-108760200I0J-172500D01*
G01*
X153167000Y-109105200D01*
G75*
G02*
X152994500Y-109277700I-172500J0D01*
G01*
G37*
G36*
G01*
X152994500Y-108307700D02*
X152599500Y-108307700D01*
G75*
G02*
X152427000Y-108135200I0J172500D01*
G01*
X152427000Y-107790200D01*
G75*
G02*
X152599500Y-107617700I172500J0D01*
G01*
X152994500Y-107617700D01*
G75*
G02*
X153167000Y-107790200I0J-172500D01*
G01*
X153167000Y-108135200D01*
G75*
G02*
X152994500Y-108307700I-172500J0D01*
G01*
G37*
G36*
G01*
X128860000Y-92729700D02*
X128860000Y-92334700D01*
G75*
G02*
X129032500Y-92162200I172500J0D01*
G01*
X129377500Y-92162200D01*
G75*
G02*
X129550000Y-92334700I0J-172500D01*
G01*
X129550000Y-92729700D01*
G75*
G02*
X129377500Y-92902200I-172500J0D01*
G01*
X129032500Y-92902200D01*
G75*
G02*
X128860000Y-92729700I0J172500D01*
G01*
G37*
G36*
G01*
X129830000Y-92729700D02*
X129830000Y-92334700D01*
G75*
G02*
X130002500Y-92162200I172500J0D01*
G01*
X130347500Y-92162200D01*
G75*
G02*
X130520000Y-92334700I0J-172500D01*
G01*
X130520000Y-92729700D01*
G75*
G02*
X130347500Y-92902200I-172500J0D01*
G01*
X130002500Y-92902200D01*
G75*
G02*
X129830000Y-92729700I0J172500D01*
G01*
G37*
G36*
G01*
X133617000Y-95574500D02*
X133617000Y-95179500D01*
G75*
G02*
X133789500Y-95007000I172500J0D01*
G01*
X134134500Y-95007000D01*
G75*
G02*
X134307000Y-95179500I0J-172500D01*
G01*
X134307000Y-95574500D01*
G75*
G02*
X134134500Y-95747000I-172500J0D01*
G01*
X133789500Y-95747000D01*
G75*
G02*
X133617000Y-95574500I0J172500D01*
G01*
G37*
G36*
G01*
X132647000Y-95574500D02*
X132647000Y-95179500D01*
G75*
G02*
X132819500Y-95007000I172500J0D01*
G01*
X133164500Y-95007000D01*
G75*
G02*
X133337000Y-95179500I0J-172500D01*
G01*
X133337000Y-95574500D01*
G75*
G02*
X133164500Y-95747000I-172500J0D01*
G01*
X132819500Y-95747000D01*
G75*
G02*
X132647000Y-95574500I0J172500D01*
G01*
G37*
G36*
G01*
X134327600Y-107523900D02*
X134327600Y-107918900D01*
G75*
G02*
X134155100Y-108091400I-172500J0D01*
G01*
X133810100Y-108091400D01*
G75*
G02*
X133637600Y-107918900I0J172500D01*
G01*
X133637600Y-107523900D01*
G75*
G02*
X133810100Y-107351400I172500J0D01*
G01*
X134155100Y-107351400D01*
G75*
G02*
X134327600Y-107523900I0J-172500D01*
G01*
G37*
G36*
G01*
X135297600Y-107523900D02*
X135297600Y-107918900D01*
G75*
G02*
X135125100Y-108091400I-172500J0D01*
G01*
X134780100Y-108091400D01*
G75*
G02*
X134607600Y-107918900I0J172500D01*
G01*
X134607600Y-107523900D01*
G75*
G02*
X134780100Y-107351400I172500J0D01*
G01*
X135125100Y-107351400D01*
G75*
G02*
X135297600Y-107523900I0J-172500D01*
G01*
G37*
G36*
G01*
X142042500Y-89149500D02*
X142437500Y-89149500D01*
G75*
G02*
X142610000Y-89322000I0J-172500D01*
G01*
X142610000Y-89667000D01*
G75*
G02*
X142437500Y-89839500I-172500J0D01*
G01*
X142042500Y-89839500D01*
G75*
G02*
X141870000Y-89667000I0J172500D01*
G01*
X141870000Y-89322000D01*
G75*
G02*
X142042500Y-89149500I172500J0D01*
G01*
G37*
G36*
G01*
X142042500Y-90119500D02*
X142437500Y-90119500D01*
G75*
G02*
X142610000Y-90292000I0J-172500D01*
G01*
X142610000Y-90637000D01*
G75*
G02*
X142437500Y-90809500I-172500J0D01*
G01*
X142042500Y-90809500D01*
G75*
G02*
X141870000Y-90637000I0J172500D01*
G01*
X141870000Y-90292000D01*
G75*
G02*
X142042500Y-90119500I172500J0D01*
G01*
G37*
G36*
G01*
X136436400Y-107918900D02*
X136436400Y-107523900D01*
G75*
G02*
X136608900Y-107351400I172500J0D01*
G01*
X136953900Y-107351400D01*
G75*
G02*
X137126400Y-107523900I0J-172500D01*
G01*
X137126400Y-107918900D01*
G75*
G02*
X136953900Y-108091400I-172500J0D01*
G01*
X136608900Y-108091400D01*
G75*
G02*
X136436400Y-107918900I0J172500D01*
G01*
G37*
G36*
G01*
X135466400Y-107918900D02*
X135466400Y-107523900D01*
G75*
G02*
X135638900Y-107351400I172500J0D01*
G01*
X135983900Y-107351400D01*
G75*
G02*
X136156400Y-107523900I0J-172500D01*
G01*
X136156400Y-107918900D01*
G75*
G02*
X135983900Y-108091400I-172500J0D01*
G01*
X135638900Y-108091400D01*
G75*
G02*
X135466400Y-107918900I0J172500D01*
G01*
G37*
G36*
G01*
X150127300Y-98341800D02*
X150127300Y-98736800D01*
G75*
G02*
X149954800Y-98909300I-172500J0D01*
G01*
X149609800Y-98909300D01*
G75*
G02*
X149437300Y-98736800I0J172500D01*
G01*
X149437300Y-98341800D01*
G75*
G02*
X149609800Y-98169300I172500J0D01*
G01*
X149954800Y-98169300D01*
G75*
G02*
X150127300Y-98341800I0J-172500D01*
G01*
G37*
G36*
G01*
X151097300Y-98341800D02*
X151097300Y-98736800D01*
G75*
G02*
X150924800Y-98909300I-172500J0D01*
G01*
X150579800Y-98909300D01*
G75*
G02*
X150407300Y-98736800I0J172500D01*
G01*
X150407300Y-98341800D01*
G75*
G02*
X150579800Y-98169300I172500J0D01*
G01*
X150924800Y-98169300D01*
G75*
G02*
X151097300Y-98341800I0J-172500D01*
G01*
G37*
G36*
G01*
X137847000Y-90264600D02*
X137847000Y-90659600D01*
G75*
G02*
X137674500Y-90832100I-172500J0D01*
G01*
X137329500Y-90832100D01*
G75*
G02*
X137157000Y-90659600I0J172500D01*
G01*
X137157000Y-90264600D01*
G75*
G02*
X137329500Y-90092100I172500J0D01*
G01*
X137674500Y-90092100D01*
G75*
G02*
X137847000Y-90264600I0J-172500D01*
G01*
G37*
G36*
G01*
X136877000Y-90264600D02*
X136877000Y-90659600D01*
G75*
G02*
X136704500Y-90832100I-172500J0D01*
G01*
X136359500Y-90832100D01*
G75*
G02*
X136187000Y-90659600I0J172500D01*
G01*
X136187000Y-90264600D01*
G75*
G02*
X136359500Y-90092100I172500J0D01*
G01*
X136704500Y-90092100D01*
G75*
G02*
X136877000Y-90264600I0J-172500D01*
G01*
G37*
G36*
G01*
X138972500Y-90264600D02*
X138972500Y-90659600D01*
G75*
G02*
X138800000Y-90832100I-172500J0D01*
G01*
X138455000Y-90832100D01*
G75*
G02*
X138282500Y-90659600I0J172500D01*
G01*
X138282500Y-90264600D01*
G75*
G02*
X138455000Y-90092100I172500J0D01*
G01*
X138800000Y-90092100D01*
G75*
G02*
X138972500Y-90264600I0J-172500D01*
G01*
G37*
G36*
G01*
X139942500Y-90264600D02*
X139942500Y-90659600D01*
G75*
G02*
X139770000Y-90832100I-172500J0D01*
G01*
X139425000Y-90832100D01*
G75*
G02*
X139252500Y-90659600I0J172500D01*
G01*
X139252500Y-90264600D01*
G75*
G02*
X139425000Y-90092100I172500J0D01*
G01*
X139770000Y-90092100D01*
G75*
G02*
X139942500Y-90264600I0J-172500D01*
G01*
G37*
G36*
G01*
X135861000Y-88397700D02*
X135861000Y-88792700D01*
G75*
G02*
X135688500Y-88965200I-172500J0D01*
G01*
X135343500Y-88965200D01*
G75*
G02*
X135171000Y-88792700I0J172500D01*
G01*
X135171000Y-88397700D01*
G75*
G02*
X135343500Y-88225200I172500J0D01*
G01*
X135688500Y-88225200D01*
G75*
G02*
X135861000Y-88397700I0J-172500D01*
G01*
G37*
G36*
G01*
X136831000Y-88397700D02*
X136831000Y-88792700D01*
G75*
G02*
X136658500Y-88965200I-172500J0D01*
G01*
X136313500Y-88965200D01*
G75*
G02*
X136141000Y-88792700I0J172500D01*
G01*
X136141000Y-88397700D01*
G75*
G02*
X136313500Y-88225200I172500J0D01*
G01*
X136658500Y-88225200D01*
G75*
G02*
X136831000Y-88397700I0J-172500D01*
G01*
G37*
G36*
G01*
X140202600Y-88767300D02*
X140202600Y-88372300D01*
G75*
G02*
X140375100Y-88199800I172500J0D01*
G01*
X140720100Y-88199800D01*
G75*
G02*
X140892600Y-88372300I0J-172500D01*
G01*
X140892600Y-88767300D01*
G75*
G02*
X140720100Y-88939800I-172500J0D01*
G01*
X140375100Y-88939800D01*
G75*
G02*
X140202600Y-88767300I0J172500D01*
G01*
G37*
G36*
G01*
X139232600Y-88767300D02*
X139232600Y-88372300D01*
G75*
G02*
X139405100Y-88199800I172500J0D01*
G01*
X139750100Y-88199800D01*
G75*
G02*
X139922600Y-88372300I0J-172500D01*
G01*
X139922600Y-88767300D01*
G75*
G02*
X139750100Y-88939800I-172500J0D01*
G01*
X139405100Y-88939800D01*
G75*
G02*
X139232600Y-88767300I0J172500D01*
G01*
G37*
G36*
G01*
X136655700Y-88028200D02*
X136260700Y-88028200D01*
G75*
G02*
X136088200Y-87855700I0J172500D01*
G01*
X136088200Y-87510700D01*
G75*
G02*
X136260700Y-87338200I172500J0D01*
G01*
X136655700Y-87338200D01*
G75*
G02*
X136828200Y-87510700I0J-172500D01*
G01*
X136828200Y-87855700D01*
G75*
G02*
X136655700Y-88028200I-172500J0D01*
G01*
G37*
G36*
G01*
X136655700Y-87058200D02*
X136260700Y-87058200D01*
G75*
G02*
X136088200Y-86885700I0J172500D01*
G01*
X136088200Y-86540700D01*
G75*
G02*
X136260700Y-86368200I172500J0D01*
G01*
X136655700Y-86368200D01*
G75*
G02*
X136828200Y-86540700I0J-172500D01*
G01*
X136828200Y-86885700D01*
G75*
G02*
X136655700Y-87058200I-172500J0D01*
G01*
G37*
G36*
G01*
X139805300Y-87032801D02*
X139410300Y-87032801D01*
G75*
G02*
X139237800Y-86860301I0J172500D01*
G01*
X139237800Y-86515301D01*
G75*
G02*
X139410300Y-86342801I172500J0D01*
G01*
X139805300Y-86342801D01*
G75*
G02*
X139977800Y-86515301I0J-172500D01*
G01*
X139977800Y-86860301D01*
G75*
G02*
X139805300Y-87032801I-172500J0D01*
G01*
G37*
G36*
G01*
X139805300Y-88002801D02*
X139410300Y-88002801D01*
G75*
G02*
X139237800Y-87830301I0J172500D01*
G01*
X139237800Y-87485301D01*
G75*
G02*
X139410300Y-87312801I172500J0D01*
G01*
X139805300Y-87312801D01*
G75*
G02*
X139977800Y-87485301I0J-172500D01*
G01*
X139977800Y-87830301D01*
G75*
G02*
X139805300Y-88002801I-172500J0D01*
G01*
G37*
G36*
G01*
X136286100Y-85433200D02*
X136681100Y-85433200D01*
G75*
G02*
X136853600Y-85605700I0J-172500D01*
G01*
X136853600Y-85950700D01*
G75*
G02*
X136681100Y-86123200I-172500J0D01*
G01*
X136286100Y-86123200D01*
G75*
G02*
X136113600Y-85950700I0J172500D01*
G01*
X136113600Y-85605700D01*
G75*
G02*
X136286100Y-85433200I172500J0D01*
G01*
G37*
G36*
G01*
X136286100Y-84463200D02*
X136681100Y-84463200D01*
G75*
G02*
X136853600Y-84635700I0J-172500D01*
G01*
X136853600Y-84980700D01*
G75*
G02*
X136681100Y-85153200I-172500J0D01*
G01*
X136286100Y-85153200D01*
G75*
G02*
X136113600Y-84980700I0J172500D01*
G01*
X136113600Y-84635700D01*
G75*
G02*
X136286100Y-84463200I172500J0D01*
G01*
G37*
G36*
G01*
X139384900Y-84488600D02*
X139779900Y-84488600D01*
G75*
G02*
X139952400Y-84661100I0J-172500D01*
G01*
X139952400Y-85006100D01*
G75*
G02*
X139779900Y-85178600I-172500J0D01*
G01*
X139384900Y-85178600D01*
G75*
G02*
X139212400Y-85006100I0J172500D01*
G01*
X139212400Y-84661100D01*
G75*
G02*
X139384900Y-84488600I172500J0D01*
G01*
G37*
G36*
G01*
X139384900Y-85458600D02*
X139779900Y-85458600D01*
G75*
G02*
X139952400Y-85631100I0J-172500D01*
G01*
X139952400Y-85976100D01*
G75*
G02*
X139779900Y-86148600I-172500J0D01*
G01*
X139384900Y-86148600D01*
G75*
G02*
X139212400Y-85976100I0J172500D01*
G01*
X139212400Y-85631100D01*
G75*
G02*
X139384900Y-85458600I172500J0D01*
G01*
G37*
G36*
G01*
X135690500Y-86123200D02*
X135295500Y-86123200D01*
G75*
G02*
X135123000Y-85950700I0J172500D01*
G01*
X135123000Y-85605700D01*
G75*
G02*
X135295500Y-85433200I172500J0D01*
G01*
X135690500Y-85433200D01*
G75*
G02*
X135863000Y-85605700I0J-172500D01*
G01*
X135863000Y-85950700D01*
G75*
G02*
X135690500Y-86123200I-172500J0D01*
G01*
G37*
G36*
G01*
X135690500Y-85153200D02*
X135295500Y-85153200D01*
G75*
G02*
X135123000Y-84980700I0J172500D01*
G01*
X135123000Y-84635700D01*
G75*
G02*
X135295500Y-84463200I172500J0D01*
G01*
X135690500Y-84463200D01*
G75*
G02*
X135863000Y-84635700I0J-172500D01*
G01*
X135863000Y-84980700D01*
G75*
G02*
X135690500Y-85153200I-172500J0D01*
G01*
G37*
G36*
G01*
X140719700Y-85178600D02*
X140324700Y-85178600D01*
G75*
G02*
X140152200Y-85006100I0J172500D01*
G01*
X140152200Y-84661100D01*
G75*
G02*
X140324700Y-84488600I172500J0D01*
G01*
X140719700Y-84488600D01*
G75*
G02*
X140892200Y-84661100I0J-172500D01*
G01*
X140892200Y-85006100D01*
G75*
G02*
X140719700Y-85178600I-172500J0D01*
G01*
G37*
G36*
G01*
X140719700Y-86148600D02*
X140324700Y-86148600D01*
G75*
G02*
X140152200Y-85976100I0J172500D01*
G01*
X140152200Y-85631100D01*
G75*
G02*
X140324700Y-85458600I172500J0D01*
G01*
X140719700Y-85458600D01*
G75*
G02*
X140892200Y-85631100I0J-172500D01*
G01*
X140892200Y-85976100D01*
G75*
G02*
X140719700Y-86148600I-172500J0D01*
G01*
G37*
G36*
G01*
X136706500Y-83324400D02*
X136311500Y-83324400D01*
G75*
G02*
X136139000Y-83151900I0J172500D01*
G01*
X136139000Y-82806900D01*
G75*
G02*
X136311500Y-82634400I172500J0D01*
G01*
X136706500Y-82634400D01*
G75*
G02*
X136879000Y-82806900I0J-172500D01*
G01*
X136879000Y-83151900D01*
G75*
G02*
X136706500Y-83324400I-172500J0D01*
G01*
G37*
G36*
G01*
X136706500Y-84294400D02*
X136311500Y-84294400D01*
G75*
G02*
X136139000Y-84121900I0J172500D01*
G01*
X136139000Y-83776900D01*
G75*
G02*
X136311500Y-83604400I172500J0D01*
G01*
X136706500Y-83604400D01*
G75*
G02*
X136879000Y-83776900I0J-172500D01*
G01*
X136879000Y-84121900D01*
G75*
G02*
X136706500Y-84294400I-172500J0D01*
G01*
G37*
G36*
G01*
X139779900Y-84294400D02*
X139384900Y-84294400D01*
G75*
G02*
X139212400Y-84121900I0J172500D01*
G01*
X139212400Y-83776900D01*
G75*
G02*
X139384900Y-83604400I172500J0D01*
G01*
X139779900Y-83604400D01*
G75*
G02*
X139952400Y-83776900I0J-172500D01*
G01*
X139952400Y-84121900D01*
G75*
G02*
X139779900Y-84294400I-172500J0D01*
G01*
G37*
G36*
G01*
X139779900Y-83324400D02*
X139384900Y-83324400D01*
G75*
G02*
X139212400Y-83151900I0J172500D01*
G01*
X139212400Y-82806900D01*
G75*
G02*
X139384900Y-82634400I172500J0D01*
G01*
X139779900Y-82634400D01*
G75*
G02*
X139952400Y-82806900I0J-172500D01*
G01*
X139952400Y-83151900D01*
G75*
G02*
X139779900Y-83324400I-172500J0D01*
G01*
G37*
G36*
G01*
X138179700Y-86275600D02*
X137784700Y-86275600D01*
G75*
G02*
X137612200Y-86103100I0J172500D01*
G01*
X137612200Y-85758100D01*
G75*
G02*
X137784700Y-85585600I172500J0D01*
G01*
X138179700Y-85585600D01*
G75*
G02*
X138352200Y-85758100I0J-172500D01*
G01*
X138352200Y-86103100D01*
G75*
G02*
X138179700Y-86275600I-172500J0D01*
G01*
G37*
G36*
G01*
X138179700Y-85305600D02*
X137784700Y-85305600D01*
G75*
G02*
X137612200Y-85133100I0J172500D01*
G01*
X137612200Y-84788100D01*
G75*
G02*
X137784700Y-84615600I172500J0D01*
G01*
X138179700Y-84615600D01*
G75*
G02*
X138352200Y-84788100I0J-172500D01*
G01*
X138352200Y-85133100D01*
G75*
G02*
X138179700Y-85305600I-172500J0D01*
G01*
G37*
G36*
G01*
X138414872Y-81305605D02*
X138135565Y-81584913D01*
G75*
G02*
X137891613Y-81584913I-121976J121976D01*
G01*
X137647661Y-81340961D01*
G75*
G02*
X137647661Y-81097009I121976J121976D01*
G01*
X137926969Y-80817701D01*
G75*
G02*
X138170921Y-80817701I121976J-121976D01*
G01*
X138414873Y-81061653D01*
G75*
G02*
X138414873Y-81305605I-121976J-121976D01*
G01*
G37*
G36*
G01*
X137728978Y-80619711D02*
X137449671Y-80899019D01*
G75*
G02*
X137205719Y-80899019I-121976J121976D01*
G01*
X136961767Y-80655067D01*
G75*
G02*
X136961767Y-80411115I121976J121976D01*
G01*
X137241075Y-80131807D01*
G75*
G02*
X137485027Y-80131807I121976J-121976D01*
G01*
X137728979Y-80375759D01*
G75*
G02*
X137728979Y-80619711I-121976J-121976D01*
G01*
G37*
D16*
X146955800Y-124663200D03*
X149055800Y-124663200D03*
G36*
G01*
X138431000Y-104881850D02*
X138431000Y-104319350D01*
G75*
G02*
X138674750Y-104075600I243750J0D01*
G01*
X139162250Y-104075600D01*
G75*
G02*
X139406000Y-104319350I0J-243750D01*
G01*
X139406000Y-104881850D01*
G75*
G02*
X139162250Y-105125600I-243750J0D01*
G01*
X138674750Y-105125600D01*
G75*
G02*
X138431000Y-104881850I0J243750D01*
G01*
G37*
G36*
G01*
X140006000Y-104881850D02*
X140006000Y-104319350D01*
G75*
G02*
X140249750Y-104075600I243750J0D01*
G01*
X140737250Y-104075600D01*
G75*
G02*
X140981000Y-104319350I0J-243750D01*
G01*
X140981000Y-104881850D01*
G75*
G02*
X140737250Y-105125600I-243750J0D01*
G01*
X140249750Y-105125600D01*
G75*
G02*
X140006000Y-104881850I0J243750D01*
G01*
G37*
D17*
X156811980Y-123510040D03*
X122588020Y-123510040D03*
G36*
G01*
X127705500Y-94802800D02*
X127310500Y-94802800D01*
G75*
G02*
X127138000Y-94630300I0J172500D01*
G01*
X127138000Y-94285300D01*
G75*
G02*
X127310500Y-94112800I172500J0D01*
G01*
X127705500Y-94112800D01*
G75*
G02*
X127878000Y-94285300I0J-172500D01*
G01*
X127878000Y-94630300D01*
G75*
G02*
X127705500Y-94802800I-172500J0D01*
G01*
G37*
G36*
G01*
X127705500Y-95772800D02*
X127310500Y-95772800D01*
G75*
G02*
X127138000Y-95600300I0J172500D01*
G01*
X127138000Y-95255300D01*
G75*
G02*
X127310500Y-95082800I172500J0D01*
G01*
X127705500Y-95082800D01*
G75*
G02*
X127878000Y-95255300I0J-172500D01*
G01*
X127878000Y-95600300D01*
G75*
G02*
X127705500Y-95772800I-172500J0D01*
G01*
G37*
G36*
G01*
X135754000Y-91777100D02*
X135359000Y-91777100D01*
G75*
G02*
X135186500Y-91604600I0J172500D01*
G01*
X135186500Y-91259600D01*
G75*
G02*
X135359000Y-91087100I172500J0D01*
G01*
X135754000Y-91087100D01*
G75*
G02*
X135926500Y-91259600I0J-172500D01*
G01*
X135926500Y-91604600D01*
G75*
G02*
X135754000Y-91777100I-172500J0D01*
G01*
G37*
G36*
G01*
X135754000Y-90807100D02*
X135359000Y-90807100D01*
G75*
G02*
X135186500Y-90634600I0J172500D01*
G01*
X135186500Y-90289600D01*
G75*
G02*
X135359000Y-90117100I172500J0D01*
G01*
X135754000Y-90117100D01*
G75*
G02*
X135926500Y-90289600I0J-172500D01*
G01*
X135926500Y-90634600D01*
G75*
G02*
X135754000Y-90807100I-172500J0D01*
G01*
G37*
G36*
G01*
X140770500Y-91787400D02*
X140375500Y-91787400D01*
G75*
G02*
X140203000Y-91614900I0J172500D01*
G01*
X140203000Y-91269900D01*
G75*
G02*
X140375500Y-91097400I172500J0D01*
G01*
X140770500Y-91097400D01*
G75*
G02*
X140943000Y-91269900I0J-172500D01*
G01*
X140943000Y-91614900D01*
G75*
G02*
X140770500Y-91787400I-172500J0D01*
G01*
G37*
G36*
G01*
X140770500Y-90817400D02*
X140375500Y-90817400D01*
G75*
G02*
X140203000Y-90644900I0J172500D01*
G01*
X140203000Y-90299900D01*
G75*
G02*
X140375500Y-90127400I172500J0D01*
G01*
X140770500Y-90127400D01*
G75*
G02*
X140943000Y-90299900I0J-172500D01*
G01*
X140943000Y-90644900D01*
G75*
G02*
X140770500Y-90817400I-172500J0D01*
G01*
G37*
G36*
G01*
X141918000Y-91612100D02*
X141918000Y-91217100D01*
G75*
G02*
X142090500Y-91044600I172500J0D01*
G01*
X142435500Y-91044600D01*
G75*
G02*
X142608000Y-91217100I0J-172500D01*
G01*
X142608000Y-91612100D01*
G75*
G02*
X142435500Y-91784600I-172500J0D01*
G01*
X142090500Y-91784600D01*
G75*
G02*
X141918000Y-91612100I0J172500D01*
G01*
G37*
G36*
G01*
X142888000Y-91612100D02*
X142888000Y-91217100D01*
G75*
G02*
X143060500Y-91044600I172500J0D01*
G01*
X143405500Y-91044600D01*
G75*
G02*
X143578000Y-91217100I0J-172500D01*
G01*
X143578000Y-91612100D01*
G75*
G02*
X143405500Y-91784600I-172500J0D01*
G01*
X143060500Y-91784600D01*
G75*
G02*
X142888000Y-91612100I0J172500D01*
G01*
G37*
G36*
G01*
X140205000Y-89707100D02*
X140205000Y-89312100D01*
G75*
G02*
X140377500Y-89139600I172500J0D01*
G01*
X140722500Y-89139600D01*
G75*
G02*
X140895000Y-89312100I0J-172500D01*
G01*
X140895000Y-89707100D01*
G75*
G02*
X140722500Y-89879600I-172500J0D01*
G01*
X140377500Y-89879600D01*
G75*
G02*
X140205000Y-89707100I0J172500D01*
G01*
G37*
G36*
G01*
X139235000Y-89707100D02*
X139235000Y-89312100D01*
G75*
G02*
X139407500Y-89139600I172500J0D01*
G01*
X139752500Y-89139600D01*
G75*
G02*
X139925000Y-89312100I0J-172500D01*
G01*
X139925000Y-89707100D01*
G75*
G02*
X139752500Y-89879600I-172500J0D01*
G01*
X139407500Y-89879600D01*
G75*
G02*
X139235000Y-89707100I0J172500D01*
G01*
G37*
G36*
G01*
X135861000Y-89312100D02*
X135861000Y-89707100D01*
G75*
G02*
X135688500Y-89879600I-172500J0D01*
G01*
X135343500Y-89879600D01*
G75*
G02*
X135171000Y-89707100I0J172500D01*
G01*
X135171000Y-89312100D01*
G75*
G02*
X135343500Y-89139600I172500J0D01*
G01*
X135688500Y-89139600D01*
G75*
G02*
X135861000Y-89312100I0J-172500D01*
G01*
G37*
G36*
G01*
X136831000Y-89312100D02*
X136831000Y-89707100D01*
G75*
G02*
X136658500Y-89879600I-172500J0D01*
G01*
X136313500Y-89879600D01*
G75*
G02*
X136141000Y-89707100I0J172500D01*
G01*
X136141000Y-89312100D01*
G75*
G02*
X136313500Y-89139600I172500J0D01*
G01*
X136658500Y-89139600D01*
G75*
G02*
X136831000Y-89312100I0J-172500D01*
G01*
G37*
G36*
G01*
X135690500Y-88002800D02*
X135295500Y-88002800D01*
G75*
G02*
X135123000Y-87830300I0J172500D01*
G01*
X135123000Y-87485300D01*
G75*
G02*
X135295500Y-87312800I172500J0D01*
G01*
X135690500Y-87312800D01*
G75*
G02*
X135863000Y-87485300I0J-172500D01*
G01*
X135863000Y-87830300D01*
G75*
G02*
X135690500Y-88002800I-172500J0D01*
G01*
G37*
G36*
G01*
X135690500Y-87032800D02*
X135295500Y-87032800D01*
G75*
G02*
X135123000Y-86860300I0J172500D01*
G01*
X135123000Y-86515300D01*
G75*
G02*
X135295500Y-86342800I172500J0D01*
G01*
X135690500Y-86342800D01*
G75*
G02*
X135863000Y-86515300I0J-172500D01*
G01*
X135863000Y-86860300D01*
G75*
G02*
X135690500Y-87032800I-172500J0D01*
G01*
G37*
G36*
G01*
X140719700Y-88000400D02*
X140324700Y-88000400D01*
G75*
G02*
X140152200Y-87827900I0J172500D01*
G01*
X140152200Y-87482900D01*
G75*
G02*
X140324700Y-87310400I172500J0D01*
G01*
X140719700Y-87310400D01*
G75*
G02*
X140892200Y-87482900I0J-172500D01*
G01*
X140892200Y-87827900D01*
G75*
G02*
X140719700Y-88000400I-172500J0D01*
G01*
G37*
G36*
G01*
X140719700Y-87030400D02*
X140324700Y-87030400D01*
G75*
G02*
X140152200Y-86857900I0J172500D01*
G01*
X140152200Y-86512900D01*
G75*
G02*
X140324700Y-86340400I172500J0D01*
G01*
X140719700Y-86340400D01*
G75*
G02*
X140892200Y-86512900I0J-172500D01*
G01*
X140892200Y-86857900D01*
G75*
G02*
X140719700Y-87030400I-172500J0D01*
G01*
G37*
G36*
G01*
X135690500Y-84269000D02*
X135295500Y-84269000D01*
G75*
G02*
X135123000Y-84096500I0J172500D01*
G01*
X135123000Y-83751500D01*
G75*
G02*
X135295500Y-83579000I172500J0D01*
G01*
X135690500Y-83579000D01*
G75*
G02*
X135863000Y-83751500I0J-172500D01*
G01*
X135863000Y-84096500D01*
G75*
G02*
X135690500Y-84269000I-172500J0D01*
G01*
G37*
G36*
G01*
X135690500Y-83299000D02*
X135295500Y-83299000D01*
G75*
G02*
X135123000Y-83126500I0J172500D01*
G01*
X135123000Y-82781500D01*
G75*
G02*
X135295500Y-82609000I172500J0D01*
G01*
X135690500Y-82609000D01*
G75*
G02*
X135863000Y-82781500I0J-172500D01*
G01*
X135863000Y-83126500D01*
G75*
G02*
X135690500Y-83299000I-172500J0D01*
G01*
G37*
D18*
X152740400Y-116779800D03*
X150840400Y-116779800D03*
X151790400Y-118779800D03*
D19*
X131156200Y-124216400D03*
X131156200Y-125516400D03*
X133156200Y-124866400D03*
G36*
G01*
X129301400Y-108452300D02*
X129301400Y-108057300D01*
G75*
G02*
X129473900Y-107884800I172500J0D01*
G01*
X129818900Y-107884800D01*
G75*
G02*
X129991400Y-108057300I0J-172500D01*
G01*
X129991400Y-108452300D01*
G75*
G02*
X129818900Y-108624800I-172500J0D01*
G01*
X129473900Y-108624800D01*
G75*
G02*
X129301400Y-108452300I0J172500D01*
G01*
G37*
G36*
G01*
X128331400Y-108452300D02*
X128331400Y-108057300D01*
G75*
G02*
X128503900Y-107884800I172500J0D01*
G01*
X128848900Y-107884800D01*
G75*
G02*
X129021400Y-108057300I0J-172500D01*
G01*
X129021400Y-108452300D01*
G75*
G02*
X128848900Y-108624800I-172500J0D01*
G01*
X128503900Y-108624800D01*
G75*
G02*
X128331400Y-108452300I0J172500D01*
G01*
G37*
G36*
G01*
X133533500Y-117280000D02*
X133928500Y-117280000D01*
G75*
G02*
X134101000Y-117452500I0J-172500D01*
G01*
X134101000Y-117797500D01*
G75*
G02*
X133928500Y-117970000I-172500J0D01*
G01*
X133533500Y-117970000D01*
G75*
G02*
X133361000Y-117797500I0J172500D01*
G01*
X133361000Y-117452500D01*
G75*
G02*
X133533500Y-117280000I172500J0D01*
G01*
G37*
G36*
G01*
X133533500Y-118250000D02*
X133928500Y-118250000D01*
G75*
G02*
X134101000Y-118422500I0J-172500D01*
G01*
X134101000Y-118767500D01*
G75*
G02*
X133928500Y-118940000I-172500J0D01*
G01*
X133533500Y-118940000D01*
G75*
G02*
X133361000Y-118767500I0J172500D01*
G01*
X133361000Y-118422500D01*
G75*
G02*
X133533500Y-118250000I172500J0D01*
G01*
G37*
G36*
G01*
X127899600Y-103702500D02*
X127899600Y-103307500D01*
G75*
G02*
X128072100Y-103135000I172500J0D01*
G01*
X128417100Y-103135000D01*
G75*
G02*
X128589600Y-103307500I0J-172500D01*
G01*
X128589600Y-103702500D01*
G75*
G02*
X128417100Y-103875000I-172500J0D01*
G01*
X128072100Y-103875000D01*
G75*
G02*
X127899600Y-103702500I0J172500D01*
G01*
G37*
G36*
G01*
X126929600Y-103702500D02*
X126929600Y-103307500D01*
G75*
G02*
X127102100Y-103135000I172500J0D01*
G01*
X127447100Y-103135000D01*
G75*
G02*
X127619600Y-103307500I0J-172500D01*
G01*
X127619600Y-103702500D01*
G75*
G02*
X127447100Y-103875000I-172500J0D01*
G01*
X127102100Y-103875000D01*
G75*
G02*
X126929600Y-103702500I0J172500D01*
G01*
G37*
G36*
G01*
X147743020Y-95634120D02*
X148138020Y-95634120D01*
G75*
G02*
X148310520Y-95806620I0J-172500D01*
G01*
X148310520Y-96151620D01*
G75*
G02*
X148138020Y-96324120I-172500J0D01*
G01*
X147743020Y-96324120D01*
G75*
G02*
X147570520Y-96151620I0J172500D01*
G01*
X147570520Y-95806620D01*
G75*
G02*
X147743020Y-95634120I172500J0D01*
G01*
G37*
G36*
G01*
X147743020Y-96604120D02*
X148138020Y-96604120D01*
G75*
G02*
X148310520Y-96776620I0J-172500D01*
G01*
X148310520Y-97121620D01*
G75*
G02*
X148138020Y-97294120I-172500J0D01*
G01*
X147743020Y-97294120D01*
G75*
G02*
X147570520Y-97121620I0J172500D01*
G01*
X147570520Y-96776620D01*
G75*
G02*
X147743020Y-96604120I172500J0D01*
G01*
G37*
G36*
G01*
X152487740Y-95156320D02*
X152882740Y-95156320D01*
G75*
G02*
X153055240Y-95328820I0J-172500D01*
G01*
X153055240Y-95673820D01*
G75*
G02*
X152882740Y-95846320I-172500J0D01*
G01*
X152487740Y-95846320D01*
G75*
G02*
X152315240Y-95673820I0J172500D01*
G01*
X152315240Y-95328820D01*
G75*
G02*
X152487740Y-95156320I172500J0D01*
G01*
G37*
G36*
G01*
X152487740Y-94186320D02*
X152882740Y-94186320D01*
G75*
G02*
X153055240Y-94358820I0J-172500D01*
G01*
X153055240Y-94703820D01*
G75*
G02*
X152882740Y-94876320I-172500J0D01*
G01*
X152487740Y-94876320D01*
G75*
G02*
X152315240Y-94703820I0J172500D01*
G01*
X152315240Y-94358820D01*
G75*
G02*
X152487740Y-94186320I172500J0D01*
G01*
G37*
G36*
G01*
X135270900Y-114287800D02*
X134875900Y-114287800D01*
G75*
G02*
X134703400Y-114115300I0J172500D01*
G01*
X134703400Y-113770300D01*
G75*
G02*
X134875900Y-113597800I172500J0D01*
G01*
X135270900Y-113597800D01*
G75*
G02*
X135443400Y-113770300I0J-172500D01*
G01*
X135443400Y-114115300D01*
G75*
G02*
X135270900Y-114287800I-172500J0D01*
G01*
G37*
G36*
G01*
X135270900Y-113317800D02*
X134875900Y-113317800D01*
G75*
G02*
X134703400Y-113145300I0J172500D01*
G01*
X134703400Y-112800300D01*
G75*
G02*
X134875900Y-112627800I172500J0D01*
G01*
X135270900Y-112627800D01*
G75*
G02*
X135443400Y-112800300I0J-172500D01*
G01*
X135443400Y-113145300D01*
G75*
G02*
X135270900Y-113317800I-172500J0D01*
G01*
G37*
G36*
G01*
X148066900Y-109313400D02*
X147671900Y-109313400D01*
G75*
G02*
X147499400Y-109140900I0J172500D01*
G01*
X147499400Y-108795900D01*
G75*
G02*
X147671900Y-108623400I172500J0D01*
G01*
X148066900Y-108623400D01*
G75*
G02*
X148239400Y-108795900I0J-172500D01*
G01*
X148239400Y-109140900D01*
G75*
G02*
X148066900Y-109313400I-172500J0D01*
G01*
G37*
G36*
G01*
X148066900Y-108343400D02*
X147671900Y-108343400D01*
G75*
G02*
X147499400Y-108170900I0J172500D01*
G01*
X147499400Y-107825900D01*
G75*
G02*
X147671900Y-107653400I172500J0D01*
G01*
X148066900Y-107653400D01*
G75*
G02*
X148239400Y-107825900I0J-172500D01*
G01*
X148239400Y-108170900D01*
G75*
G02*
X148066900Y-108343400I-172500J0D01*
G01*
G37*
G36*
G01*
X152586800Y-105720600D02*
X152981800Y-105720600D01*
G75*
G02*
X153154300Y-105893100I0J-172500D01*
G01*
X153154300Y-106238100D01*
G75*
G02*
X152981800Y-106410600I-172500J0D01*
G01*
X152586800Y-106410600D01*
G75*
G02*
X152414300Y-106238100I0J172500D01*
G01*
X152414300Y-105893100D01*
G75*
G02*
X152586800Y-105720600I172500J0D01*
G01*
G37*
G36*
G01*
X152586800Y-106690600D02*
X152981800Y-106690600D01*
G75*
G02*
X153154300Y-106863100I0J-172500D01*
G01*
X153154300Y-107208100D01*
G75*
G02*
X152981800Y-107380600I-172500J0D01*
G01*
X152586800Y-107380600D01*
G75*
G02*
X152414300Y-107208100I0J172500D01*
G01*
X152414300Y-106863100D01*
G75*
G02*
X152586800Y-106690600I172500J0D01*
G01*
G37*
G36*
G01*
X151459000Y-93390100D02*
X151459000Y-92995100D01*
G75*
G02*
X151631500Y-92822600I172500J0D01*
G01*
X151976500Y-92822600D01*
G75*
G02*
X152149000Y-92995100I0J-172500D01*
G01*
X152149000Y-93390100D01*
G75*
G02*
X151976500Y-93562600I-172500J0D01*
G01*
X151631500Y-93562600D01*
G75*
G02*
X151459000Y-93390100I0J172500D01*
G01*
G37*
G36*
G01*
X152429000Y-93390100D02*
X152429000Y-92995100D01*
G75*
G02*
X152601500Y-92822600I172500J0D01*
G01*
X152946500Y-92822600D01*
G75*
G02*
X153119000Y-92995100I0J-172500D01*
G01*
X153119000Y-93390100D01*
G75*
G02*
X152946500Y-93562600I-172500J0D01*
G01*
X152601500Y-93562600D01*
G75*
G02*
X152429000Y-93390100I0J172500D01*
G01*
G37*
G36*
G01*
X147630500Y-90937800D02*
X148025500Y-90937800D01*
G75*
G02*
X148198000Y-91110300I0J-172500D01*
G01*
X148198000Y-91455300D01*
G75*
G02*
X148025500Y-91627800I-172500J0D01*
G01*
X147630500Y-91627800D01*
G75*
G02*
X147458000Y-91455300I0J172500D01*
G01*
X147458000Y-91110300D01*
G75*
G02*
X147630500Y-90937800I172500J0D01*
G01*
G37*
G36*
G01*
X147630500Y-91907800D02*
X148025500Y-91907800D01*
G75*
G02*
X148198000Y-92080300I0J-172500D01*
G01*
X148198000Y-92425300D01*
G75*
G02*
X148025500Y-92597800I-172500J0D01*
G01*
X147630500Y-92597800D01*
G75*
G02*
X147458000Y-92425300I0J172500D01*
G01*
X147458000Y-92080300D01*
G75*
G02*
X147630500Y-91907800I172500J0D01*
G01*
G37*
G36*
G01*
X150879000Y-89439100D02*
X150879000Y-89834100D01*
G75*
G02*
X150706500Y-90006600I-172500J0D01*
G01*
X150361500Y-90006600D01*
G75*
G02*
X150189000Y-89834100I0J172500D01*
G01*
X150189000Y-89439100D01*
G75*
G02*
X150361500Y-89266600I172500J0D01*
G01*
X150706500Y-89266600D01*
G75*
G02*
X150879000Y-89439100I0J-172500D01*
G01*
G37*
G36*
G01*
X151849000Y-89439100D02*
X151849000Y-89834100D01*
G75*
G02*
X151676500Y-90006600I-172500J0D01*
G01*
X151331500Y-90006600D01*
G75*
G02*
X151159000Y-89834100I0J172500D01*
G01*
X151159000Y-89439100D01*
G75*
G02*
X151331500Y-89266600I172500J0D01*
G01*
X151676500Y-89266600D01*
G75*
G02*
X151849000Y-89439100I0J-172500D01*
G01*
G37*
G36*
G01*
X124060600Y-105130300D02*
X123665600Y-105130300D01*
G75*
G02*
X123493100Y-104957800I0J172500D01*
G01*
X123493100Y-104612800D01*
G75*
G02*
X123665600Y-104440300I172500J0D01*
G01*
X124060600Y-104440300D01*
G75*
G02*
X124233100Y-104612800I0J-172500D01*
G01*
X124233100Y-104957800D01*
G75*
G02*
X124060600Y-105130300I-172500J0D01*
G01*
G37*
G36*
G01*
X124060600Y-106100300D02*
X123665600Y-106100300D01*
G75*
G02*
X123493100Y-105927800I0J172500D01*
G01*
X123493100Y-105582800D01*
G75*
G02*
X123665600Y-105410300I172500J0D01*
G01*
X124060600Y-105410300D01*
G75*
G02*
X124233100Y-105582800I0J-172500D01*
G01*
X124233100Y-105927800D01*
G75*
G02*
X124060600Y-106100300I-172500J0D01*
G01*
G37*
G36*
G01*
X124608482Y-104443382D02*
X125003482Y-104443382D01*
G75*
G02*
X125175982Y-104615882I0J-172500D01*
G01*
X125175982Y-104960882D01*
G75*
G02*
X125003482Y-105133382I-172500J0D01*
G01*
X124608482Y-105133382D01*
G75*
G02*
X124435982Y-104960882I0J172500D01*
G01*
X124435982Y-104615882D01*
G75*
G02*
X124608482Y-104443382I172500J0D01*
G01*
G37*
G36*
G01*
X124608482Y-105413382D02*
X125003482Y-105413382D01*
G75*
G02*
X125175982Y-105585882I0J-172500D01*
G01*
X125175982Y-105930882D01*
G75*
G02*
X125003482Y-106103382I-172500J0D01*
G01*
X124608482Y-106103382D01*
G75*
G02*
X124435982Y-105930882I0J172500D01*
G01*
X124435982Y-105585882D01*
G75*
G02*
X124608482Y-105413382I172500J0D01*
G01*
G37*
G36*
G01*
X154116420Y-108798060D02*
X153721420Y-108798060D01*
G75*
G02*
X153548920Y-108625560I0J172500D01*
G01*
X153548920Y-108280560D01*
G75*
G02*
X153721420Y-108108060I172500J0D01*
G01*
X154116420Y-108108060D01*
G75*
G02*
X154288920Y-108280560I0J-172500D01*
G01*
X154288920Y-108625560D01*
G75*
G02*
X154116420Y-108798060I-172500J0D01*
G01*
G37*
G36*
G01*
X154116420Y-109768060D02*
X153721420Y-109768060D01*
G75*
G02*
X153548920Y-109595560I0J172500D01*
G01*
X153548920Y-109250560D01*
G75*
G02*
X153721420Y-109078060I172500J0D01*
G01*
X154116420Y-109078060D01*
G75*
G02*
X154288920Y-109250560I0J-172500D01*
G01*
X154288920Y-109595560D01*
G75*
G02*
X154116420Y-109768060I-172500J0D01*
G01*
G37*
G36*
G01*
X154686619Y-108108060D02*
X155081619Y-108108060D01*
G75*
G02*
X155254119Y-108280560I0J-172500D01*
G01*
X155254119Y-108625560D01*
G75*
G02*
X155081619Y-108798060I-172500J0D01*
G01*
X154686619Y-108798060D01*
G75*
G02*
X154514119Y-108625560I0J172500D01*
G01*
X154514119Y-108280560D01*
G75*
G02*
X154686619Y-108108060I172500J0D01*
G01*
G37*
G36*
G01*
X154686619Y-109078060D02*
X155081619Y-109078060D01*
G75*
G02*
X155254119Y-109250560I0J-172500D01*
G01*
X155254119Y-109595560D01*
G75*
G02*
X155081619Y-109768060I-172500J0D01*
G01*
X154686619Y-109768060D01*
G75*
G02*
X154514119Y-109595560I0J172500D01*
G01*
X154514119Y-109250560D01*
G75*
G02*
X154686619Y-109078060I172500J0D01*
G01*
G37*
G36*
G01*
X130169300Y-125696400D02*
X129774300Y-125696400D01*
G75*
G02*
X129601800Y-125523900I0J172500D01*
G01*
X129601800Y-125178900D01*
G75*
G02*
X129774300Y-125006400I172500J0D01*
G01*
X130169300Y-125006400D01*
G75*
G02*
X130341800Y-125178900I0J-172500D01*
G01*
X130341800Y-125523900D01*
G75*
G02*
X130169300Y-125696400I-172500J0D01*
G01*
G37*
G36*
G01*
X130169300Y-124726400D02*
X129774300Y-124726400D01*
G75*
G02*
X129601800Y-124553900I0J172500D01*
G01*
X129601800Y-124208900D01*
G75*
G02*
X129774300Y-124036400I172500J0D01*
G01*
X130169300Y-124036400D01*
G75*
G02*
X130341800Y-124208900I0J-172500D01*
G01*
X130341800Y-124553900D01*
G75*
G02*
X130169300Y-124726400I-172500J0D01*
G01*
G37*
G36*
G01*
X137446400Y-110019800D02*
X137051400Y-110019800D01*
G75*
G02*
X136878900Y-109847300I0J172500D01*
G01*
X136878900Y-109502300D01*
G75*
G02*
X137051400Y-109329800I172500J0D01*
G01*
X137446400Y-109329800D01*
G75*
G02*
X137618900Y-109502300I0J-172500D01*
G01*
X137618900Y-109847300D01*
G75*
G02*
X137446400Y-110019800I-172500J0D01*
G01*
G37*
G36*
G01*
X137446400Y-110989800D02*
X137051400Y-110989800D01*
G75*
G02*
X136878900Y-110817300I0J172500D01*
G01*
X136878900Y-110472300D01*
G75*
G02*
X137051400Y-110299800I172500J0D01*
G01*
X137446400Y-110299800D01*
G75*
G02*
X137618900Y-110472300I0J-172500D01*
G01*
X137618900Y-110817300D01*
G75*
G02*
X137446400Y-110989800I-172500J0D01*
G01*
G37*
G36*
G01*
X142272400Y-109915800D02*
X141877400Y-109915800D01*
G75*
G02*
X141704900Y-109743300I0J172500D01*
G01*
X141704900Y-109398300D01*
G75*
G02*
X141877400Y-109225800I172500J0D01*
G01*
X142272400Y-109225800D01*
G75*
G02*
X142444900Y-109398300I0J-172500D01*
G01*
X142444900Y-109743300D01*
G75*
G02*
X142272400Y-109915800I-172500J0D01*
G01*
G37*
G36*
G01*
X142272400Y-110885800D02*
X141877400Y-110885800D01*
G75*
G02*
X141704900Y-110713300I0J172500D01*
G01*
X141704900Y-110368300D01*
G75*
G02*
X141877400Y-110195800I172500J0D01*
G01*
X142272400Y-110195800D01*
G75*
G02*
X142444900Y-110368300I0J-172500D01*
G01*
X142444900Y-110713300D01*
G75*
G02*
X142272400Y-110885800I-172500J0D01*
G01*
G37*
D20*
X132223400Y-118607800D03*
X147123400Y-114357800D03*
X130578860Y-102989380D03*
X133629400Y-114414300D03*
D21*
X128244600Y-104792600D03*
X127294600Y-104792600D03*
X129194600Y-104792600D03*
X129194600Y-106992600D03*
X128244600Y-106992600D03*
X127294600Y-106992600D03*
D22*
X149220500Y-94503200D03*
X149220500Y-95453200D03*
X149220500Y-96403200D03*
X151420500Y-96403200D03*
X151420500Y-94503200D03*
X151420500Y-95453200D03*
G36*
G01*
X144680250Y-119004000D02*
X144117750Y-119004000D01*
G75*
G02*
X143874000Y-118760250I0J243750D01*
G01*
X143874000Y-118272750D01*
G75*
G02*
X144117750Y-118029000I243750J0D01*
G01*
X144680250Y-118029000D01*
G75*
G02*
X144924000Y-118272750I0J-243750D01*
G01*
X144924000Y-118760250D01*
G75*
G02*
X144680250Y-119004000I-243750J0D01*
G01*
G37*
G36*
G01*
X144680250Y-117429000D02*
X144117750Y-117429000D01*
G75*
G02*
X143874000Y-117185250I0J243750D01*
G01*
X143874000Y-116697750D01*
G75*
G02*
X144117750Y-116454000I243750J0D01*
G01*
X144680250Y-116454000D01*
G75*
G02*
X144924000Y-116697750I0J-243750D01*
G01*
X144924000Y-117185250D01*
G75*
G02*
X144680250Y-117429000I-243750J0D01*
G01*
G37*
G36*
G01*
X127444800Y-108452300D02*
X127444800Y-108057300D01*
G75*
G02*
X127617300Y-107884800I172500J0D01*
G01*
X127962300Y-107884800D01*
G75*
G02*
X128134800Y-108057300I0J-172500D01*
G01*
X128134800Y-108452300D01*
G75*
G02*
X127962300Y-108624800I-172500J0D01*
G01*
X127617300Y-108624800D01*
G75*
G02*
X127444800Y-108452300I0J172500D01*
G01*
G37*
G36*
G01*
X126474800Y-108452300D02*
X126474800Y-108057300D01*
G75*
G02*
X126647300Y-107884800I172500J0D01*
G01*
X126992300Y-107884800D01*
G75*
G02*
X127164800Y-108057300I0J-172500D01*
G01*
X127164800Y-108452300D01*
G75*
G02*
X126992300Y-108624800I-172500J0D01*
G01*
X126647300Y-108624800D01*
G75*
G02*
X126474800Y-108452300I0J172500D01*
G01*
G37*
G36*
G01*
X142593750Y-118029000D02*
X143156250Y-118029000D01*
G75*
G02*
X143400000Y-118272750I0J-243750D01*
G01*
X143400000Y-118760250D01*
G75*
G02*
X143156250Y-119004000I-243750J0D01*
G01*
X142593750Y-119004000D01*
G75*
G02*
X142350000Y-118760250I0J243750D01*
G01*
X142350000Y-118272750D01*
G75*
G02*
X142593750Y-118029000I243750J0D01*
G01*
G37*
G36*
G01*
X142593750Y-116454000D02*
X143156250Y-116454000D01*
G75*
G02*
X143400000Y-116697750I0J-243750D01*
G01*
X143400000Y-117185250D01*
G75*
G02*
X143156250Y-117429000I-243750J0D01*
G01*
X142593750Y-117429000D01*
G75*
G02*
X142350000Y-117185250I0J243750D01*
G01*
X142350000Y-116697750D01*
G75*
G02*
X142593750Y-116454000I243750J0D01*
G01*
G37*
G36*
G01*
X145471500Y-117427800D02*
X145866500Y-117427800D01*
G75*
G02*
X146039000Y-117600300I0J-172500D01*
G01*
X146039000Y-117945300D01*
G75*
G02*
X145866500Y-118117800I-172500J0D01*
G01*
X145471500Y-118117800D01*
G75*
G02*
X145299000Y-117945300I0J172500D01*
G01*
X145299000Y-117600300D01*
G75*
G02*
X145471500Y-117427800I172500J0D01*
G01*
G37*
G36*
G01*
X145471500Y-118397800D02*
X145866500Y-118397800D01*
G75*
G02*
X146039000Y-118570300I0J-172500D01*
G01*
X146039000Y-118915300D01*
G75*
G02*
X145866500Y-119087800I-172500J0D01*
G01*
X145471500Y-119087800D01*
G75*
G02*
X145299000Y-118915300I0J172500D01*
G01*
X145299000Y-118570300D01*
G75*
G02*
X145471500Y-118397800I172500J0D01*
G01*
G37*
G36*
G01*
X135282250Y-117429000D02*
X134719750Y-117429000D01*
G75*
G02*
X134476000Y-117185250I0J243750D01*
G01*
X134476000Y-116697750D01*
G75*
G02*
X134719750Y-116454000I243750J0D01*
G01*
X135282250Y-116454000D01*
G75*
G02*
X135526000Y-116697750I0J-243750D01*
G01*
X135526000Y-117185250D01*
G75*
G02*
X135282250Y-117429000I-243750J0D01*
G01*
G37*
G36*
G01*
X135282250Y-119004000D02*
X134719750Y-119004000D01*
G75*
G02*
X134476000Y-118760250I0J243750D01*
G01*
X134476000Y-118272750D01*
G75*
G02*
X134719750Y-118029000I243750J0D01*
G01*
X135282250Y-118029000D01*
G75*
G02*
X135526000Y-118272750I0J-243750D01*
G01*
X135526000Y-118760250D01*
G75*
G02*
X135282250Y-119004000I-243750J0D01*
G01*
G37*
G36*
G01*
X136806250Y-119004000D02*
X136243750Y-119004000D01*
G75*
G02*
X136000000Y-118760250I0J243750D01*
G01*
X136000000Y-118272750D01*
G75*
G02*
X136243750Y-118029000I243750J0D01*
G01*
X136806250Y-118029000D01*
G75*
G02*
X137050000Y-118272750I0J-243750D01*
G01*
X137050000Y-118760250D01*
G75*
G02*
X136806250Y-119004000I-243750J0D01*
G01*
G37*
G36*
G01*
X136806250Y-117429000D02*
X136243750Y-117429000D01*
G75*
G02*
X136000000Y-117185250I0J243750D01*
G01*
X136000000Y-116697750D01*
G75*
G02*
X136243750Y-116454000I243750J0D01*
G01*
X136806250Y-116454000D01*
G75*
G02*
X137050000Y-116697750I0J-243750D01*
G01*
X137050000Y-117185250D01*
G75*
G02*
X136806250Y-117429000I-243750J0D01*
G01*
G37*
G36*
G01*
X147671900Y-106728700D02*
X148066900Y-106728700D01*
G75*
G02*
X148239400Y-106901200I0J-172500D01*
G01*
X148239400Y-107246200D01*
G75*
G02*
X148066900Y-107418700I-172500J0D01*
G01*
X147671900Y-107418700D01*
G75*
G02*
X147499400Y-107246200I0J172500D01*
G01*
X147499400Y-106901200D01*
G75*
G02*
X147671900Y-106728700I172500J0D01*
G01*
G37*
G36*
G01*
X147671900Y-105758700D02*
X148066900Y-105758700D01*
G75*
G02*
X148239400Y-105931200I0J-172500D01*
G01*
X148239400Y-106276200D01*
G75*
G02*
X148066900Y-106448700I-172500J0D01*
G01*
X147671900Y-106448700D01*
G75*
G02*
X147499400Y-106276200I0J172500D01*
G01*
X147499400Y-105931200D01*
G75*
G02*
X147671900Y-105758700I172500J0D01*
G01*
G37*
G36*
G01*
X129595800Y-101420350D02*
X129595800Y-101982850D01*
G75*
G02*
X129352050Y-102226600I-243750J0D01*
G01*
X128864550Y-102226600D01*
G75*
G02*
X128620800Y-101982850I0J243750D01*
G01*
X128620800Y-101420350D01*
G75*
G02*
X128864550Y-101176600I243750J0D01*
G01*
X129352050Y-101176600D01*
G75*
G02*
X129595800Y-101420350I0J-243750D01*
G01*
G37*
G36*
G01*
X128020800Y-101420350D02*
X128020800Y-101982850D01*
G75*
G02*
X127777050Y-102226600I-243750J0D01*
G01*
X127289550Y-102226600D01*
G75*
G02*
X127045800Y-101982850I0J243750D01*
G01*
X127045800Y-101420350D01*
G75*
G02*
X127289550Y-101176600I243750J0D01*
G01*
X127777050Y-101176600D01*
G75*
G02*
X128020800Y-101420350I0J-243750D01*
G01*
G37*
G36*
G01*
X135960000Y-77257500D02*
X135960000Y-76862500D01*
G75*
G02*
X136132500Y-76690000I172500J0D01*
G01*
X136477500Y-76690000D01*
G75*
G02*
X136650000Y-76862500I0J-172500D01*
G01*
X136650000Y-77257500D01*
G75*
G02*
X136477500Y-77430000I-172500J0D01*
G01*
X136132500Y-77430000D01*
G75*
G02*
X135960000Y-77257500I0J172500D01*
G01*
G37*
G36*
G01*
X136930000Y-77257500D02*
X136930000Y-76862500D01*
G75*
G02*
X137102500Y-76690000I172500J0D01*
G01*
X137447500Y-76690000D01*
G75*
G02*
X137620000Y-76862500I0J-172500D01*
G01*
X137620000Y-77257500D01*
G75*
G02*
X137447500Y-77430000I-172500J0D01*
G01*
X137102500Y-77430000D01*
G75*
G02*
X136930000Y-77257500I0J172500D01*
G01*
G37*
G36*
G01*
X143653400Y-79074700D02*
X143258400Y-79074700D01*
G75*
G02*
X143085900Y-78902200I0J172500D01*
G01*
X143085900Y-78557200D01*
G75*
G02*
X143258400Y-78384700I172500J0D01*
G01*
X143653400Y-78384700D01*
G75*
G02*
X143825900Y-78557200I0J-172500D01*
G01*
X143825900Y-78902200D01*
G75*
G02*
X143653400Y-79074700I-172500J0D01*
G01*
G37*
G36*
G01*
X143653400Y-78104700D02*
X143258400Y-78104700D01*
G75*
G02*
X143085900Y-77932200I0J172500D01*
G01*
X143085900Y-77587200D01*
G75*
G02*
X143258400Y-77414700I172500J0D01*
G01*
X143653400Y-77414700D01*
G75*
G02*
X143825900Y-77587200I0J-172500D01*
G01*
X143825900Y-77932200D01*
G75*
G02*
X143653400Y-78104700I-172500J0D01*
G01*
G37*
G36*
G01*
X140719700Y-83326800D02*
X140324700Y-83326800D01*
G75*
G02*
X140152200Y-83154300I0J172500D01*
G01*
X140152200Y-82809300D01*
G75*
G02*
X140324700Y-82636800I172500J0D01*
G01*
X140719700Y-82636800D01*
G75*
G02*
X140892200Y-82809300I0J-172500D01*
G01*
X140892200Y-83154300D01*
G75*
G02*
X140719700Y-83326800I-172500J0D01*
G01*
G37*
G36*
G01*
X140719700Y-84296800D02*
X140324700Y-84296800D01*
G75*
G02*
X140152200Y-84124300I0J172500D01*
G01*
X140152200Y-83779300D01*
G75*
G02*
X140324700Y-83606800I172500J0D01*
G01*
X140719700Y-83606800D01*
G75*
G02*
X140892200Y-83779300I0J-172500D01*
G01*
X140892200Y-84124300D01*
G75*
G02*
X140719700Y-84296800I-172500J0D01*
G01*
G37*
G36*
G01*
X146896400Y-84347700D02*
X146896400Y-83952700D01*
G75*
G02*
X147068900Y-83780200I172500J0D01*
G01*
X147413900Y-83780200D01*
G75*
G02*
X147586400Y-83952700I0J-172500D01*
G01*
X147586400Y-84347700D01*
G75*
G02*
X147413900Y-84520200I-172500J0D01*
G01*
X147068900Y-84520200D01*
G75*
G02*
X146896400Y-84347700I0J172500D01*
G01*
G37*
G36*
G01*
X147866400Y-84347700D02*
X147866400Y-83952700D01*
G75*
G02*
X148038900Y-83780200I172500J0D01*
G01*
X148383900Y-83780200D01*
G75*
G02*
X148556400Y-83952700I0J-172500D01*
G01*
X148556400Y-84347700D01*
G75*
G02*
X148383900Y-84520200I-172500J0D01*
G01*
X148038900Y-84520200D01*
G75*
G02*
X147866400Y-84347700I0J172500D01*
G01*
G37*
G36*
G01*
X133309200Y-84435300D02*
X133309200Y-84830300D01*
G75*
G02*
X133136700Y-85002800I-172500J0D01*
G01*
X132791700Y-85002800D01*
G75*
G02*
X132619200Y-84830300I0J172500D01*
G01*
X132619200Y-84435300D01*
G75*
G02*
X132791700Y-84262800I172500J0D01*
G01*
X133136700Y-84262800D01*
G75*
G02*
X133309200Y-84435300I0J-172500D01*
G01*
G37*
G36*
G01*
X134279200Y-84435300D02*
X134279200Y-84830300D01*
G75*
G02*
X134106700Y-85002800I-172500J0D01*
G01*
X133761700Y-85002800D01*
G75*
G02*
X133589200Y-84830300I0J172500D01*
G01*
X133589200Y-84435300D01*
G75*
G02*
X133761700Y-84262800I172500J0D01*
G01*
X134106700Y-84262800D01*
G75*
G02*
X134279200Y-84435300I0J-172500D01*
G01*
G37*
G36*
G01*
X132631900Y-82938000D02*
X132631900Y-82543000D01*
G75*
G02*
X132804400Y-82370500I172500J0D01*
G01*
X133149400Y-82370500D01*
G75*
G02*
X133321900Y-82543000I0J-172500D01*
G01*
X133321900Y-82938000D01*
G75*
G02*
X133149400Y-83110500I-172500J0D01*
G01*
X132804400Y-83110500D01*
G75*
G02*
X132631900Y-82938000I0J172500D01*
G01*
G37*
G36*
G01*
X133601900Y-82938000D02*
X133601900Y-82543000D01*
G75*
G02*
X133774400Y-82370500I172500J0D01*
G01*
X134119400Y-82370500D01*
G75*
G02*
X134291900Y-82543000I0J-172500D01*
G01*
X134291900Y-82938000D01*
G75*
G02*
X134119400Y-83110500I-172500J0D01*
G01*
X133774400Y-83110500D01*
G75*
G02*
X133601900Y-82938000I0J172500D01*
G01*
G37*
G36*
G01*
X140372404Y-78661289D02*
X140651712Y-78940596D01*
G75*
G02*
X140651712Y-79184548I-121976J-121976D01*
G01*
X140407760Y-79428500D01*
G75*
G02*
X140163808Y-79428500I-121976J121976D01*
G01*
X139884500Y-79149192D01*
G75*
G02*
X139884500Y-78905240I121976J121976D01*
G01*
X140128452Y-78661288D01*
G75*
G02*
X140372404Y-78661288I121976J-121976D01*
G01*
G37*
G36*
G01*
X141058298Y-77975395D02*
X141337606Y-78254702D01*
G75*
G02*
X141337606Y-78498654I-121976J-121976D01*
G01*
X141093654Y-78742606D01*
G75*
G02*
X140849702Y-78742606I-121976J121976D01*
G01*
X140570394Y-78463298D01*
G75*
G02*
X140570394Y-78219346I121976J121976D01*
G01*
X140814346Y-77975394D01*
G75*
G02*
X141058298Y-77975394I121976J-121976D01*
G01*
G37*
X149220500Y-106047500D03*
X149220500Y-106997500D03*
X149220500Y-107947500D03*
X151420500Y-107947500D03*
X151420500Y-106047500D03*
X151420500Y-106997500D03*
D17*
X156819600Y-74599800D03*
X122580400Y-74599800D03*
G36*
G01*
X137950000Y-114748200D02*
X137950000Y-112988200D01*
G75*
G02*
X138220000Y-112718200I270000J0D01*
G01*
X139030000Y-112718200D01*
G75*
G02*
X139300000Y-112988200I0J-270000D01*
G01*
X139300000Y-114748200D01*
G75*
G02*
X139030000Y-115018200I-270000J0D01*
G01*
X138220000Y-115018200D01*
G75*
G02*
X137950000Y-114748200I0J270000D01*
G01*
G37*
G36*
G01*
X140100000Y-114748200D02*
X140100000Y-112988200D01*
G75*
G02*
X140370000Y-112718200I270000J0D01*
G01*
X141180000Y-112718200D01*
G75*
G02*
X141450000Y-112988200I0J-270000D01*
G01*
X141450000Y-114748200D01*
G75*
G02*
X141180000Y-115018200I-270000J0D01*
G01*
X140370000Y-115018200D01*
G75*
G02*
X140100000Y-114748200I0J270000D01*
G01*
G37*
G36*
G01*
X144504800Y-102694250D02*
X144504800Y-101731750D01*
G75*
G02*
X144773550Y-101463000I268750J0D01*
G01*
X145311050Y-101463000D01*
G75*
G02*
X145579800Y-101731750I0J-268750D01*
G01*
X145579800Y-102694250D01*
G75*
G02*
X145311050Y-102963000I-268750J0D01*
G01*
X144773550Y-102963000D01*
G75*
G02*
X144504800Y-102694250I0J268750D01*
G01*
G37*
G36*
G01*
X146379800Y-102694250D02*
X146379800Y-101731750D01*
G75*
G02*
X146648550Y-101463000I268750J0D01*
G01*
X147186050Y-101463000D01*
G75*
G02*
X147454800Y-101731750I0J-268750D01*
G01*
X147454800Y-102694250D01*
G75*
G02*
X147186050Y-102963000I-268750J0D01*
G01*
X146648550Y-102963000D01*
G75*
G02*
X146379800Y-102694250I0J268750D01*
G01*
G37*
G36*
G01*
X132047800Y-96234900D02*
X132047800Y-96629900D01*
G75*
G02*
X131875300Y-96802400I-172500J0D01*
G01*
X131530300Y-96802400D01*
G75*
G02*
X131357800Y-96629900I0J172500D01*
G01*
X131357800Y-96234900D01*
G75*
G02*
X131530300Y-96062400I172500J0D01*
G01*
X131875300Y-96062400D01*
G75*
G02*
X132047800Y-96234900I0J-172500D01*
G01*
G37*
G36*
G01*
X131077800Y-96234900D02*
X131077800Y-96629900D01*
G75*
G02*
X130905300Y-96802400I-172500J0D01*
G01*
X130560300Y-96802400D01*
G75*
G02*
X130387800Y-96629900I0J172500D01*
G01*
X130387800Y-96234900D01*
G75*
G02*
X130560300Y-96062400I172500J0D01*
G01*
X130905300Y-96062400D01*
G75*
G02*
X131077800Y-96234900I0J-172500D01*
G01*
G37*
G36*
G01*
X131432000Y-95179500D02*
X131432000Y-95574500D01*
G75*
G02*
X131259500Y-95747000I-172500J0D01*
G01*
X130914500Y-95747000D01*
G75*
G02*
X130742000Y-95574500I0J172500D01*
G01*
X130742000Y-95179500D01*
G75*
G02*
X130914500Y-95007000I172500J0D01*
G01*
X131259500Y-95007000D01*
G75*
G02*
X131432000Y-95179500I0J-172500D01*
G01*
G37*
G36*
G01*
X132402000Y-95179500D02*
X132402000Y-95574500D01*
G75*
G02*
X132229500Y-95747000I-172500J0D01*
G01*
X131884500Y-95747000D01*
G75*
G02*
X131712000Y-95574500I0J172500D01*
G01*
X131712000Y-95179500D01*
G75*
G02*
X131884500Y-95007000I172500J0D01*
G01*
X132229500Y-95007000D01*
G75*
G02*
X132402000Y-95179500I0J-172500D01*
G01*
G37*
G36*
G01*
X155937600Y-90199900D02*
X155542600Y-90199900D01*
G75*
G02*
X155370100Y-90027400I0J172500D01*
G01*
X155370100Y-89682400D01*
G75*
G02*
X155542600Y-89509900I172500J0D01*
G01*
X155937600Y-89509900D01*
G75*
G02*
X156110100Y-89682400I0J-172500D01*
G01*
X156110100Y-90027400D01*
G75*
G02*
X155937600Y-90199900I-172500J0D01*
G01*
G37*
G36*
G01*
X155937600Y-89229900D02*
X155542600Y-89229900D01*
G75*
G02*
X155370100Y-89057400I0J172500D01*
G01*
X155370100Y-88712400D01*
G75*
G02*
X155542600Y-88539900I172500J0D01*
G01*
X155937600Y-88539900D01*
G75*
G02*
X156110100Y-88712400I0J-172500D01*
G01*
X156110100Y-89057400D01*
G75*
G02*
X155937600Y-89229900I-172500J0D01*
G01*
G37*
D23*
X138900000Y-118202000D03*
X138900000Y-117802000D03*
X138900000Y-117402000D03*
X138900000Y-117002000D03*
X139300000Y-118202000D03*
X139300000Y-117802000D03*
X139300000Y-117402000D03*
X139300000Y-117002000D03*
X139700000Y-118202000D03*
X139700000Y-117802000D03*
X139700000Y-117402000D03*
X139700000Y-117002000D03*
X140100000Y-118202000D03*
X140100000Y-117802000D03*
X140100000Y-117402000D03*
X140100000Y-117002000D03*
X140500000Y-118202000D03*
X140500000Y-117802000D03*
X140500000Y-117402000D03*
X140500000Y-117002000D03*
G36*
G01*
X141489700Y-105655000D02*
X141884700Y-105655000D01*
G75*
G02*
X142057200Y-105827500I0J-172500D01*
G01*
X142057200Y-106172500D01*
G75*
G02*
X141884700Y-106345000I-172500J0D01*
G01*
X141489700Y-106345000D01*
G75*
G02*
X141317200Y-106172500I0J172500D01*
G01*
X141317200Y-105827500D01*
G75*
G02*
X141489700Y-105655000I172500J0D01*
G01*
G37*
G36*
G01*
X141489700Y-104685000D02*
X141884700Y-104685000D01*
G75*
G02*
X142057200Y-104857500I0J-172500D01*
G01*
X142057200Y-105202500D01*
G75*
G02*
X141884700Y-105375000I-172500J0D01*
G01*
X141489700Y-105375000D01*
G75*
G02*
X141317200Y-105202500I0J172500D01*
G01*
X141317200Y-104857500D01*
G75*
G02*
X141489700Y-104685000I172500J0D01*
G01*
G37*
G36*
G01*
X135297245Y-103233448D02*
X135576553Y-103512755D01*
G75*
G02*
X135576553Y-103756707I-121976J-121976D01*
G01*
X135332601Y-104000659D01*
G75*
G02*
X135088649Y-104000659I-121976J121976D01*
G01*
X134809341Y-103721351D01*
G75*
G02*
X134809341Y-103477399I121976J121976D01*
G01*
X135053293Y-103233447D01*
G75*
G02*
X135297245Y-103233447I121976J-121976D01*
G01*
G37*
G36*
G01*
X134611351Y-103919342D02*
X134890659Y-104198649D01*
G75*
G02*
X134890659Y-104442601I-121976J-121976D01*
G01*
X134646707Y-104686553D01*
G75*
G02*
X134402755Y-104686553I-121976J121976D01*
G01*
X134123447Y-104407245D01*
G75*
G02*
X134123447Y-104163293I121976J121976D01*
G01*
X134367399Y-103919341D01*
G75*
G02*
X134611351Y-103919341I121976J-121976D01*
G01*
G37*
G36*
G01*
X133987880Y-99104660D02*
X133987880Y-99499660D01*
G75*
G02*
X133815380Y-99672160I-172500J0D01*
G01*
X133470380Y-99672160D01*
G75*
G02*
X133297880Y-99499660I0J172500D01*
G01*
X133297880Y-99104660D01*
G75*
G02*
X133470380Y-98932160I172500J0D01*
G01*
X133815380Y-98932160D01*
G75*
G02*
X133987880Y-99104660I0J-172500D01*
G01*
G37*
G36*
G01*
X133017880Y-99104660D02*
X133017880Y-99499660D01*
G75*
G02*
X132845380Y-99672160I-172500J0D01*
G01*
X132500380Y-99672160D01*
G75*
G02*
X132327880Y-99499660I0J172500D01*
G01*
X132327880Y-99104660D01*
G75*
G02*
X132500380Y-98932160I172500J0D01*
G01*
X132845380Y-98932160D01*
G75*
G02*
X133017880Y-99104660I0J-172500D01*
G01*
G37*
G36*
G01*
X145693080Y-97035860D02*
X145693080Y-96640860D01*
G75*
G02*
X145865580Y-96468360I172500J0D01*
G01*
X146210580Y-96468360D01*
G75*
G02*
X146383080Y-96640860I0J-172500D01*
G01*
X146383080Y-97035860D01*
G75*
G02*
X146210580Y-97208360I-172500J0D01*
G01*
X145865580Y-97208360D01*
G75*
G02*
X145693080Y-97035860I0J172500D01*
G01*
G37*
G36*
G01*
X144723080Y-97035860D02*
X144723080Y-96640860D01*
G75*
G02*
X144895580Y-96468360I172500J0D01*
G01*
X145240580Y-96468360D01*
G75*
G02*
X145413080Y-96640860I0J-172500D01*
G01*
X145413080Y-97035860D01*
G75*
G02*
X145240580Y-97208360I-172500J0D01*
G01*
X144895580Y-97208360D01*
G75*
G02*
X144723080Y-97035860I0J172500D01*
G01*
G37*
G36*
G01*
X144918700Y-105350200D02*
X145313700Y-105350200D01*
G75*
G02*
X145486200Y-105522700I0J-172500D01*
G01*
X145486200Y-105867700D01*
G75*
G02*
X145313700Y-106040200I-172500J0D01*
G01*
X144918700Y-106040200D01*
G75*
G02*
X144746200Y-105867700I0J172500D01*
G01*
X144746200Y-105522700D01*
G75*
G02*
X144918700Y-105350200I172500J0D01*
G01*
G37*
G36*
G01*
X144918700Y-104380200D02*
X145313700Y-104380200D01*
G75*
G02*
X145486200Y-104552700I0J-172500D01*
G01*
X145486200Y-104897700D01*
G75*
G02*
X145313700Y-105070200I-172500J0D01*
G01*
X144918700Y-105070200D01*
G75*
G02*
X144746200Y-104897700I0J172500D01*
G01*
X144746200Y-104552700D01*
G75*
G02*
X144918700Y-104380200I172500J0D01*
G01*
G37*
G36*
G01*
X143801100Y-104380200D02*
X144196100Y-104380200D01*
G75*
G02*
X144368600Y-104552700I0J-172500D01*
G01*
X144368600Y-104897700D01*
G75*
G02*
X144196100Y-105070200I-172500J0D01*
G01*
X143801100Y-105070200D01*
G75*
G02*
X143628600Y-104897700I0J172500D01*
G01*
X143628600Y-104552700D01*
G75*
G02*
X143801100Y-104380200I172500J0D01*
G01*
G37*
G36*
G01*
X143801100Y-105350200D02*
X144196100Y-105350200D01*
G75*
G02*
X144368600Y-105522700I0J-172500D01*
G01*
X144368600Y-105867700D01*
G75*
G02*
X144196100Y-106040200I-172500J0D01*
G01*
X143801100Y-106040200D01*
G75*
G02*
X143628600Y-105867700I0J172500D01*
G01*
X143628600Y-105522700D01*
G75*
G02*
X143801100Y-105350200I172500J0D01*
G01*
G37*
G36*
G01*
X128156000Y-96692100D02*
X128156000Y-96297100D01*
G75*
G02*
X128328500Y-96124600I172500J0D01*
G01*
X128673500Y-96124600D01*
G75*
G02*
X128846000Y-96297100I0J-172500D01*
G01*
X128846000Y-96692100D01*
G75*
G02*
X128673500Y-96864600I-172500J0D01*
G01*
X128328500Y-96864600D01*
G75*
G02*
X128156000Y-96692100I0J172500D01*
G01*
G37*
G36*
G01*
X127186000Y-96692100D02*
X127186000Y-96297100D01*
G75*
G02*
X127358500Y-96124600I172500J0D01*
G01*
X127703500Y-96124600D01*
G75*
G02*
X127876000Y-96297100I0J-172500D01*
G01*
X127876000Y-96692100D01*
G75*
G02*
X127703500Y-96864600I-172500J0D01*
G01*
X127358500Y-96864600D01*
G75*
G02*
X127186000Y-96692100I0J172500D01*
G01*
G37*
G36*
G01*
X133987880Y-100044460D02*
X133987880Y-100439460D01*
G75*
G02*
X133815380Y-100611960I-172500J0D01*
G01*
X133470380Y-100611960D01*
G75*
G02*
X133297880Y-100439460I0J172500D01*
G01*
X133297880Y-100044460D01*
G75*
G02*
X133470380Y-99871960I172500J0D01*
G01*
X133815380Y-99871960D01*
G75*
G02*
X133987880Y-100044460I0J-172500D01*
G01*
G37*
G36*
G01*
X133017880Y-100044460D02*
X133017880Y-100439460D01*
G75*
G02*
X132845380Y-100611960I-172500J0D01*
G01*
X132500380Y-100611960D01*
G75*
G02*
X132327880Y-100439460I0J172500D01*
G01*
X132327880Y-100044460D01*
G75*
G02*
X132500380Y-99871960I172500J0D01*
G01*
X132845380Y-99871960D01*
G75*
G02*
X133017880Y-100044460I0J-172500D01*
G01*
G37*
G36*
G01*
X133987880Y-98164860D02*
X133987880Y-98559860D01*
G75*
G02*
X133815380Y-98732360I-172500J0D01*
G01*
X133470380Y-98732360D01*
G75*
G02*
X133297880Y-98559860I0J172500D01*
G01*
X133297880Y-98164860D01*
G75*
G02*
X133470380Y-97992360I172500J0D01*
G01*
X133815380Y-97992360D01*
G75*
G02*
X133987880Y-98164860I0J-172500D01*
G01*
G37*
G36*
G01*
X133017880Y-98164860D02*
X133017880Y-98559860D01*
G75*
G02*
X132845380Y-98732360I-172500J0D01*
G01*
X132500380Y-98732360D01*
G75*
G02*
X132327880Y-98559860I0J172500D01*
G01*
X132327880Y-98164860D01*
G75*
G02*
X132500380Y-97992360I172500J0D01*
G01*
X132845380Y-97992360D01*
G75*
G02*
X133017880Y-98164860I0J-172500D01*
G01*
G37*
G36*
G01*
X134633400Y-94210300D02*
X134633400Y-94605300D01*
G75*
G02*
X134460900Y-94777800I-172500J0D01*
G01*
X134115900Y-94777800D01*
G75*
G02*
X133943400Y-94605300I0J172500D01*
G01*
X133943400Y-94210300D01*
G75*
G02*
X134115900Y-94037800I172500J0D01*
G01*
X134460900Y-94037800D01*
G75*
G02*
X134633400Y-94210300I0J-172500D01*
G01*
G37*
G36*
G01*
X135603400Y-94210300D02*
X135603400Y-94605300D01*
G75*
G02*
X135430900Y-94777800I-172500J0D01*
G01*
X135085900Y-94777800D01*
G75*
G02*
X134913400Y-94605300I0J172500D01*
G01*
X134913400Y-94210300D01*
G75*
G02*
X135085900Y-94037800I172500J0D01*
G01*
X135430900Y-94037800D01*
G75*
G02*
X135603400Y-94210300I0J-172500D01*
G01*
G37*
D24*
X140500000Y-110584400D03*
X140500000Y-109684400D03*
X138900000Y-110584400D03*
X138900000Y-109684400D03*
G36*
G01*
X156132800Y-98740500D02*
X156132800Y-98490500D01*
G75*
G02*
X156257800Y-98365500I125000J0D01*
G01*
X156567800Y-98365500D01*
G75*
G02*
X156692800Y-98490500I0J-125000D01*
G01*
X156692800Y-98740500D01*
G75*
G02*
X156567800Y-98865500I-125000J0D01*
G01*
X156257800Y-98865500D01*
G75*
G02*
X156132800Y-98740500I0J125000D01*
G01*
G37*
G36*
G01*
X156772800Y-98740500D02*
X156772800Y-98490500D01*
G75*
G02*
X156897800Y-98365500I125000J0D01*
G01*
X157207800Y-98365500D01*
G75*
G02*
X157332800Y-98490500I0J-125000D01*
G01*
X157332800Y-98740500D01*
G75*
G02*
X157207800Y-98865500I-125000J0D01*
G01*
X156897800Y-98865500D01*
G75*
G02*
X156772800Y-98740500I0J125000D01*
G01*
G37*
D25*
X126111000Y-127558800D03*
D26*
X158679900Y-103301800D03*
D27*
X157679900Y-105881800D03*
X157679900Y-100721800D03*
X155679900Y-100721800D03*
X155679900Y-105881800D03*
X155679900Y-97245800D03*
X155679900Y-92085800D03*
X157679900Y-92085800D03*
X157679900Y-97245800D03*
D26*
X158679900Y-94665800D03*
G36*
G01*
X136025000Y-124025200D02*
X136025000Y-125199600D01*
G75*
G02*
X135812200Y-125412400I-212800J0D01*
G01*
X134587800Y-125412400D01*
G75*
G02*
X134375000Y-125199600I0J212800D01*
G01*
X134375000Y-124025200D01*
G75*
G02*
X134587800Y-123812400I212800J0D01*
G01*
X135812200Y-123812400D01*
G75*
G02*
X136025000Y-124025200I0J-212800D01*
G01*
G37*
G36*
G01*
X145225000Y-124025200D02*
X145225000Y-125199600D01*
G75*
G02*
X145012200Y-125412400I-212800J0D01*
G01*
X143787800Y-125412400D01*
G75*
G02*
X143575000Y-125199600I0J212800D01*
G01*
X143575000Y-124025200D01*
G75*
G02*
X143787800Y-123812400I212800J0D01*
G01*
X145012200Y-123812400D01*
G75*
G02*
X145225000Y-124025200I0J-212800D01*
G01*
G37*
D28*
X138558400Y-92084800D03*
X138058400Y-92084800D03*
X137558400Y-92084800D03*
X137558400Y-91404800D03*
X138058400Y-91404800D03*
X138558400Y-91404800D03*
D29*
X131232000Y-90152600D03*
X131232000Y-90652600D03*
X131232000Y-91152600D03*
X131912000Y-91152600D03*
X131912000Y-90652600D03*
X131912000Y-90152600D03*
D30*
X129911400Y-93562600D03*
X129911400Y-95362600D03*
X128711400Y-95362600D03*
X128711400Y-93562600D03*
D31*
X134632000Y-106375200D03*
X136132000Y-106375200D03*
G36*
G01*
X156130700Y-99477100D02*
X156130700Y-99227100D01*
G75*
G02*
X156255700Y-99102100I125000J0D01*
G01*
X156565700Y-99102100D01*
G75*
G02*
X156690700Y-99227100I0J-125000D01*
G01*
X156690700Y-99477100D01*
G75*
G02*
X156565700Y-99602100I-125000J0D01*
G01*
X156255700Y-99602100D01*
G75*
G02*
X156130700Y-99477100I0J125000D01*
G01*
G37*
G36*
G01*
X156770700Y-99477100D02*
X156770700Y-99227100D01*
G75*
G02*
X156895700Y-99102100I125000J0D01*
G01*
X157205700Y-99102100D01*
G75*
G02*
X157330700Y-99227100I0J-125000D01*
G01*
X157330700Y-99477100D01*
G75*
G02*
X157205700Y-99602100I-125000J0D01*
G01*
X156895700Y-99602100D01*
G75*
G02*
X156770700Y-99477100I0J125000D01*
G01*
G37*
G36*
G01*
X137072500Y-77540000D02*
X137467500Y-77540000D01*
G75*
G02*
X137640000Y-77712500I0J-172500D01*
G01*
X137640000Y-78057500D01*
G75*
G02*
X137467500Y-78230000I-172500J0D01*
G01*
X137072500Y-78230000D01*
G75*
G02*
X136900000Y-78057500I0J172500D01*
G01*
X136900000Y-77712500D01*
G75*
G02*
X137072500Y-77540000I172500J0D01*
G01*
G37*
G36*
G01*
X137072500Y-78510000D02*
X137467500Y-78510000D01*
G75*
G02*
X137640000Y-78682500I0J-172500D01*
G01*
X137640000Y-79027500D01*
G75*
G02*
X137467500Y-79200000I-172500J0D01*
G01*
X137072500Y-79200000D01*
G75*
G02*
X136900000Y-79027500I0J172500D01*
G01*
X136900000Y-78682500D01*
G75*
G02*
X137072500Y-78510000I172500J0D01*
G01*
G37*
D32*
X150267160Y-91500960D03*
D33*
X151567160Y-90750960D03*
X151567160Y-91250960D03*
X151567160Y-91750960D03*
X151567160Y-92250960D03*
X148967160Y-92250960D03*
X148967160Y-91750960D03*
X148967160Y-91250960D03*
X148967160Y-90750960D03*
G36*
G01*
X122836700Y-99475100D02*
X121536700Y-99475100D01*
G75*
G02*
X121336700Y-99275100I0J200000D01*
G01*
X121336700Y-98875100D01*
G75*
G02*
X121536700Y-98675100I200000J0D01*
G01*
X122836700Y-98675100D01*
G75*
G02*
X123036700Y-98875100I0J-200000D01*
G01*
X123036700Y-99275100D01*
G75*
G02*
X122836700Y-99475100I-200000J0D01*
G01*
G37*
G36*
G01*
X121799200Y-98475100D02*
X121574200Y-98475100D01*
G75*
G02*
X121461700Y-98362600I0J112500D01*
G01*
X121461700Y-97937600D01*
G75*
G02*
X121574200Y-97825100I112500J0D01*
G01*
X121799200Y-97825100D01*
G75*
G02*
X121911700Y-97937600I0J-112500D01*
G01*
X121911700Y-98362600D01*
G75*
G02*
X121799200Y-98475100I-112500J0D01*
G01*
G37*
G36*
G01*
X122799200Y-98475100D02*
X122574200Y-98475100D01*
G75*
G02*
X122461700Y-98362600I0J112500D01*
G01*
X122461700Y-97937600D01*
G75*
G02*
X122574200Y-97825100I112500J0D01*
G01*
X122799200Y-97825100D01*
G75*
G02*
X122911700Y-97937600I0J-112500D01*
G01*
X122911700Y-98362600D01*
G75*
G02*
X122799200Y-98475100I-112500J0D01*
G01*
G37*
G36*
G01*
X122799200Y-100325100D02*
X122574200Y-100325100D01*
G75*
G02*
X122461700Y-100212600I0J112500D01*
G01*
X122461700Y-99787600D01*
G75*
G02*
X122574200Y-99675100I112500J0D01*
G01*
X122799200Y-99675100D01*
G75*
G02*
X122911700Y-99787600I0J-112500D01*
G01*
X122911700Y-100212600D01*
G75*
G02*
X122799200Y-100325100I-112500J0D01*
G01*
G37*
G36*
G01*
X121799200Y-100325100D02*
X121574200Y-100325100D01*
G75*
G02*
X121461700Y-100212600I0J112500D01*
G01*
X121461700Y-99787600D01*
G75*
G02*
X121574200Y-99675100I112500J0D01*
G01*
X121799200Y-99675100D01*
G75*
G02*
X121911700Y-99787600I0J-112500D01*
G01*
X121911700Y-100212600D01*
G75*
G02*
X121799200Y-100325100I-112500J0D01*
G01*
G37*
G36*
G01*
X137877400Y-83258600D02*
X138137800Y-83258600D01*
G75*
G02*
X138162600Y-83283400I0J-24800D01*
G01*
X138162600Y-83543800D01*
G75*
G02*
X138137800Y-83568600I-24800J0D01*
G01*
X137877400Y-83568600D01*
G75*
G02*
X137852600Y-83543800I0J24800D01*
G01*
X137852600Y-83283400D01*
G75*
G02*
X137877400Y-83258600I24800J0D01*
G01*
G37*
G36*
G01*
X137877400Y-83658600D02*
X138137800Y-83658600D01*
G75*
G02*
X138162600Y-83683400I0J-24800D01*
G01*
X138162600Y-83943800D01*
G75*
G02*
X138137800Y-83968600I-24800J0D01*
G01*
X137877400Y-83968600D01*
G75*
G02*
X137852600Y-83943800I0J24800D01*
G01*
X137852600Y-83683400D01*
G75*
G02*
X137877400Y-83658600I24800J0D01*
G01*
G37*
G36*
G01*
X137477400Y-83658600D02*
X137737800Y-83658600D01*
G75*
G02*
X137762600Y-83683400I0J-24800D01*
G01*
X137762600Y-83943800D01*
G75*
G02*
X137737800Y-83968600I-24800J0D01*
G01*
X137477400Y-83968600D01*
G75*
G02*
X137452600Y-83943800I0J24800D01*
G01*
X137452600Y-83683400D01*
G75*
G02*
X137477400Y-83658600I24800J0D01*
G01*
G37*
G36*
G01*
X137477400Y-83258600D02*
X137737800Y-83258600D01*
G75*
G02*
X137762600Y-83283400I0J-24800D01*
G01*
X137762600Y-83543800D01*
G75*
G02*
X137737800Y-83568600I-24800J0D01*
G01*
X137477400Y-83568600D01*
G75*
G02*
X137452600Y-83543800I0J24800D01*
G01*
X137452600Y-83283400D01*
G75*
G02*
X137477400Y-83258600I24800J0D01*
G01*
G37*
G36*
G01*
X137477400Y-82858600D02*
X137737800Y-82858600D01*
G75*
G02*
X137762600Y-82883400I0J-24800D01*
G01*
X137762600Y-83143800D01*
G75*
G02*
X137737800Y-83168600I-24800J0D01*
G01*
X137477400Y-83168600D01*
G75*
G02*
X137452600Y-83143800I0J24800D01*
G01*
X137452600Y-82883400D01*
G75*
G02*
X137477400Y-82858600I24800J0D01*
G01*
G37*
G36*
G01*
X137877400Y-82858600D02*
X138137800Y-82858600D01*
G75*
G02*
X138162600Y-82883400I0J-24800D01*
G01*
X138162600Y-83143800D01*
G75*
G02*
X138137800Y-83168600I-24800J0D01*
G01*
X137877400Y-83168600D01*
G75*
G02*
X137852600Y-83143800I0J24800D01*
G01*
X137852600Y-82883400D01*
G75*
G02*
X137877400Y-82858600I24800J0D01*
G01*
G37*
G36*
G01*
X138277400Y-82858600D02*
X138537800Y-82858600D01*
G75*
G02*
X138562600Y-82883400I0J-24800D01*
G01*
X138562600Y-83143800D01*
G75*
G02*
X138537800Y-83168600I-24800J0D01*
G01*
X138277400Y-83168600D01*
G75*
G02*
X138252600Y-83143800I0J24800D01*
G01*
X138252600Y-82883400D01*
G75*
G02*
X138277400Y-82858600I24800J0D01*
G01*
G37*
G36*
G01*
X138277400Y-83258600D02*
X138537800Y-83258600D01*
G75*
G02*
X138562600Y-83283400I0J-24800D01*
G01*
X138562600Y-83543800D01*
G75*
G02*
X138537800Y-83568600I-24800J0D01*
G01*
X138277400Y-83568600D01*
G75*
G02*
X138252600Y-83543800I0J24800D01*
G01*
X138252600Y-83283400D01*
G75*
G02*
X138277400Y-83258600I24800J0D01*
G01*
G37*
G36*
G01*
X138277400Y-83658600D02*
X138537800Y-83658600D01*
G75*
G02*
X138562600Y-83683400I0J-24800D01*
G01*
X138562600Y-83943800D01*
G75*
G02*
X138537800Y-83968600I-24800J0D01*
G01*
X138277400Y-83968600D01*
G75*
G02*
X138252600Y-83943800I0J24800D01*
G01*
X138252600Y-83683400D01*
G75*
G02*
X138277400Y-83658600I24800J0D01*
G01*
G37*
D34*
X129286000Y-118237000D03*
X125386000Y-118237000D03*
X129286000Y-116967000D03*
X125386000Y-116967000D03*
X129286000Y-115697000D03*
X125386000Y-115697000D03*
X129286000Y-114427000D03*
X125386000Y-114427000D03*
X129286000Y-113157000D03*
X125386000Y-113157000D03*
X129286000Y-111887000D03*
X125386000Y-111887000D03*
X129286000Y-110617000D03*
X125386000Y-110617000D03*
G36*
G01*
X148332000Y-117397769D02*
X148332000Y-116536231D01*
G75*
G02*
X148601231Y-116267000I269231J0D01*
G01*
X149487769Y-116267000D01*
G75*
G02*
X149757000Y-116536231I0J-269231D01*
G01*
X149757000Y-117397769D01*
G75*
G02*
X149487769Y-117667000I-269231J0D01*
G01*
X148601231Y-117667000D01*
G75*
G02*
X148332000Y-117397769I0J269231D01*
G01*
G37*
G36*
G01*
X146407000Y-117397769D02*
X146407000Y-116536231D01*
G75*
G02*
X146676231Y-116267000I269231J0D01*
G01*
X147562769Y-116267000D01*
G75*
G02*
X147832000Y-116536231I0J-269231D01*
G01*
X147832000Y-117397769D01*
G75*
G02*
X147562769Y-117667000I-269231J0D01*
G01*
X146676231Y-117667000D01*
G75*
G02*
X146407000Y-117397769I0J269231D01*
G01*
G37*
D35*
X136375400Y-71319800D03*
X135375400Y-71319800D03*
X147375400Y-68819800D03*
X146375400Y-68819800D03*
D36*
X142275400Y-69519800D03*
X139725400Y-69519800D03*
X137275400Y-69519800D03*
G36*
G01*
X135900000Y-79857500D02*
X135900000Y-79462500D01*
G75*
G02*
X136072500Y-79290000I172500J0D01*
G01*
X136417500Y-79290000D01*
G75*
G02*
X136590000Y-79462500I0J-172500D01*
G01*
X136590000Y-79857500D01*
G75*
G02*
X136417500Y-80030000I-172500J0D01*
G01*
X136072500Y-80030000D01*
G75*
G02*
X135900000Y-79857500I0J172500D01*
G01*
G37*
G36*
G01*
X136870000Y-79857500D02*
X136870000Y-79462500D01*
G75*
G02*
X137042500Y-79290000I172500J0D01*
G01*
X137387500Y-79290000D01*
G75*
G02*
X137560000Y-79462500I0J-172500D01*
G01*
X137560000Y-79857500D01*
G75*
G02*
X137387500Y-80030000I-172500J0D01*
G01*
X137042500Y-80030000D01*
G75*
G02*
X136870000Y-79857500I0J172500D01*
G01*
G37*
G36*
G01*
X146697400Y-68651740D02*
X146697400Y-69046740D01*
G75*
G02*
X146524900Y-69219240I-172500J0D01*
G01*
X146179900Y-69219240D01*
G75*
G02*
X146007400Y-69046740I0J172500D01*
G01*
X146007400Y-68651740D01*
G75*
G02*
X146179900Y-68479240I172500J0D01*
G01*
X146524900Y-68479240D01*
G75*
G02*
X146697400Y-68651740I0J-172500D01*
G01*
G37*
G36*
G01*
X147667400Y-68651740D02*
X147667400Y-69046740D01*
G75*
G02*
X147494900Y-69219240I-172500J0D01*
G01*
X147149900Y-69219240D01*
G75*
G02*
X146977400Y-69046740I0J172500D01*
G01*
X146977400Y-68651740D01*
G75*
G02*
X147149900Y-68479240I172500J0D01*
G01*
X147494900Y-68479240D01*
G75*
G02*
X147667400Y-68651740I0J-172500D01*
G01*
G37*
G36*
G01*
X135016820Y-71523240D02*
X135016820Y-71128240D01*
G75*
G02*
X135189320Y-70955740I172500J0D01*
G01*
X135534320Y-70955740D01*
G75*
G02*
X135706820Y-71128240I0J-172500D01*
G01*
X135706820Y-71523240D01*
G75*
G02*
X135534320Y-71695740I-172500J0D01*
G01*
X135189320Y-71695740D01*
G75*
G02*
X135016820Y-71523240I0J172500D01*
G01*
G37*
G36*
G01*
X135986820Y-71523240D02*
X135986820Y-71128240D01*
G75*
G02*
X136159320Y-70955740I172500J0D01*
G01*
X136504320Y-70955740D01*
G75*
G02*
X136676820Y-71128240I0J-172500D01*
G01*
X136676820Y-71523240D01*
G75*
G02*
X136504320Y-71695740I-172500J0D01*
G01*
X136159320Y-71695740D01*
G75*
G02*
X135986820Y-71523240I0J172500D01*
G01*
G37*
D37*
X154152600Y-85405700D03*
X154152600Y-82005700D03*
G36*
G01*
X133987880Y-97225060D02*
X133987880Y-97620060D01*
G75*
G02*
X133815380Y-97792560I-172500J0D01*
G01*
X133470380Y-97792560D01*
G75*
G02*
X133297880Y-97620060I0J172500D01*
G01*
X133297880Y-97225060D01*
G75*
G02*
X133470380Y-97052560I172500J0D01*
G01*
X133815380Y-97052560D01*
G75*
G02*
X133987880Y-97225060I0J-172500D01*
G01*
G37*
G36*
G01*
X133017880Y-97225060D02*
X133017880Y-97620060D01*
G75*
G02*
X132845380Y-97792560I-172500J0D01*
G01*
X132500380Y-97792560D01*
G75*
G02*
X132327880Y-97620060I0J172500D01*
G01*
X132327880Y-97225060D01*
G75*
G02*
X132500380Y-97052560I172500J0D01*
G01*
X132845380Y-97052560D01*
G75*
G02*
X133017880Y-97225060I0J-172500D01*
G01*
G37*
G36*
G01*
X143625000Y-101722500D02*
X143625000Y-101897500D01*
G75*
G02*
X143537500Y-101985000I-87500J0D01*
G01*
X142762500Y-101985000D01*
G75*
G02*
X142675000Y-101897500I0J87500D01*
G01*
X142675000Y-101722500D01*
G75*
G02*
X142762500Y-101635000I87500J0D01*
G01*
X143537500Y-101635000D01*
G75*
G02*
X143625000Y-101722500I0J-87500D01*
G01*
G37*
G36*
G01*
X143625000Y-101222500D02*
X143625000Y-101397500D01*
G75*
G02*
X143537500Y-101485000I-87500J0D01*
G01*
X142762500Y-101485000D01*
G75*
G02*
X142675000Y-101397500I0J87500D01*
G01*
X142675000Y-101222500D01*
G75*
G02*
X142762500Y-101135000I87500J0D01*
G01*
X143537500Y-101135000D01*
G75*
G02*
X143625000Y-101222500I0J-87500D01*
G01*
G37*
G36*
G01*
X143625000Y-100722500D02*
X143625000Y-100897500D01*
G75*
G02*
X143537500Y-100985000I-87500J0D01*
G01*
X142762500Y-100985000D01*
G75*
G02*
X142675000Y-100897500I0J87500D01*
G01*
X142675000Y-100722500D01*
G75*
G02*
X142762500Y-100635000I87500J0D01*
G01*
X143537500Y-100635000D01*
G75*
G02*
X143625000Y-100722500I0J-87500D01*
G01*
G37*
G36*
G01*
X143625000Y-100222500D02*
X143625000Y-100397500D01*
G75*
G02*
X143537500Y-100485000I-87500J0D01*
G01*
X142762500Y-100485000D01*
G75*
G02*
X142675000Y-100397500I0J87500D01*
G01*
X142675000Y-100222500D01*
G75*
G02*
X142762500Y-100135000I87500J0D01*
G01*
X143537500Y-100135000D01*
G75*
G02*
X143625000Y-100222500I0J-87500D01*
G01*
G37*
G36*
G01*
X143625000Y-99722500D02*
X143625000Y-99897500D01*
G75*
G02*
X143537500Y-99985000I-87500J0D01*
G01*
X142762500Y-99985000D01*
G75*
G02*
X142675000Y-99897500I0J87500D01*
G01*
X142675000Y-99722500D01*
G75*
G02*
X142762500Y-99635000I87500J0D01*
G01*
X143537500Y-99635000D01*
G75*
G02*
X143625000Y-99722500I0J-87500D01*
G01*
G37*
G36*
G01*
X143625000Y-99222500D02*
X143625000Y-99397500D01*
G75*
G02*
X143537500Y-99485000I-87500J0D01*
G01*
X142762500Y-99485000D01*
G75*
G02*
X142675000Y-99397500I0J87500D01*
G01*
X142675000Y-99222500D01*
G75*
G02*
X142762500Y-99135000I87500J0D01*
G01*
X143537500Y-99135000D01*
G75*
G02*
X143625000Y-99222500I0J-87500D01*
G01*
G37*
G36*
G01*
X143625000Y-98722500D02*
X143625000Y-98897500D01*
G75*
G02*
X143537500Y-98985000I-87500J0D01*
G01*
X142762500Y-98985000D01*
G75*
G02*
X142675000Y-98897500I0J87500D01*
G01*
X142675000Y-98722500D01*
G75*
G02*
X142762500Y-98635000I87500J0D01*
G01*
X143537500Y-98635000D01*
G75*
G02*
X143625000Y-98722500I0J-87500D01*
G01*
G37*
G36*
G01*
X143625000Y-98222500D02*
X143625000Y-98397500D01*
G75*
G02*
X143537500Y-98485000I-87500J0D01*
G01*
X142762500Y-98485000D01*
G75*
G02*
X142675000Y-98397500I0J87500D01*
G01*
X142675000Y-98222500D01*
G75*
G02*
X142762500Y-98135000I87500J0D01*
G01*
X143537500Y-98135000D01*
G75*
G02*
X143625000Y-98222500I0J-87500D01*
G01*
G37*
G36*
G01*
X143625000Y-97722500D02*
X143625000Y-97897500D01*
G75*
G02*
X143537500Y-97985000I-87500J0D01*
G01*
X142762500Y-97985000D01*
G75*
G02*
X142675000Y-97897500I0J87500D01*
G01*
X142675000Y-97722500D01*
G75*
G02*
X142762500Y-97635000I87500J0D01*
G01*
X143537500Y-97635000D01*
G75*
G02*
X143625000Y-97722500I0J-87500D01*
G01*
G37*
G36*
G01*
X143625000Y-97222500D02*
X143625000Y-97397500D01*
G75*
G02*
X143537500Y-97485000I-87500J0D01*
G01*
X142762500Y-97485000D01*
G75*
G02*
X142675000Y-97397500I0J87500D01*
G01*
X142675000Y-97222500D01*
G75*
G02*
X142762500Y-97135000I87500J0D01*
G01*
X143537500Y-97135000D01*
G75*
G02*
X143625000Y-97222500I0J-87500D01*
G01*
G37*
G36*
G01*
X143625000Y-96722500D02*
X143625000Y-96897500D01*
G75*
G02*
X143537500Y-96985000I-87500J0D01*
G01*
X142762500Y-96985000D01*
G75*
G02*
X142675000Y-96897500I0J87500D01*
G01*
X142675000Y-96722500D01*
G75*
G02*
X142762500Y-96635000I87500J0D01*
G01*
X143537500Y-96635000D01*
G75*
G02*
X143625000Y-96722500I0J-87500D01*
G01*
G37*
G36*
G01*
X143625000Y-96222500D02*
X143625000Y-96397500D01*
G75*
G02*
X143537500Y-96485000I-87500J0D01*
G01*
X142762500Y-96485000D01*
G75*
G02*
X142675000Y-96397500I0J87500D01*
G01*
X142675000Y-96222500D01*
G75*
G02*
X142762500Y-96135000I87500J0D01*
G01*
X143537500Y-96135000D01*
G75*
G02*
X143625000Y-96222500I0J-87500D01*
G01*
G37*
G36*
G01*
X142625000Y-95222500D02*
X142625000Y-95997500D01*
G75*
G02*
X142537500Y-96085000I-87500J0D01*
G01*
X142362500Y-96085000D01*
G75*
G02*
X142275000Y-95997500I0J87500D01*
G01*
X142275000Y-95222500D01*
G75*
G02*
X142362500Y-95135000I87500J0D01*
G01*
X142537500Y-95135000D01*
G75*
G02*
X142625000Y-95222500I0J-87500D01*
G01*
G37*
G36*
G01*
X142125000Y-95222500D02*
X142125000Y-95997500D01*
G75*
G02*
X142037500Y-96085000I-87500J0D01*
G01*
X141862500Y-96085000D01*
G75*
G02*
X141775000Y-95997500I0J87500D01*
G01*
X141775000Y-95222500D01*
G75*
G02*
X141862500Y-95135000I87500J0D01*
G01*
X142037500Y-95135000D01*
G75*
G02*
X142125000Y-95222500I0J-87500D01*
G01*
G37*
G36*
G01*
X141625000Y-95222500D02*
X141625000Y-95997500D01*
G75*
G02*
X141537500Y-96085000I-87500J0D01*
G01*
X141362500Y-96085000D01*
G75*
G02*
X141275000Y-95997500I0J87500D01*
G01*
X141275000Y-95222500D01*
G75*
G02*
X141362500Y-95135000I87500J0D01*
G01*
X141537500Y-95135000D01*
G75*
G02*
X141625000Y-95222500I0J-87500D01*
G01*
G37*
G36*
G01*
X141125000Y-95222500D02*
X141125000Y-95997500D01*
G75*
G02*
X141037500Y-96085000I-87500J0D01*
G01*
X140862500Y-96085000D01*
G75*
G02*
X140775000Y-95997500I0J87500D01*
G01*
X140775000Y-95222500D01*
G75*
G02*
X140862500Y-95135000I87500J0D01*
G01*
X141037500Y-95135000D01*
G75*
G02*
X141125000Y-95222500I0J-87500D01*
G01*
G37*
G36*
G01*
X140625000Y-95222500D02*
X140625000Y-95997500D01*
G75*
G02*
X140537500Y-96085000I-87500J0D01*
G01*
X140362500Y-96085000D01*
G75*
G02*
X140275000Y-95997500I0J87500D01*
G01*
X140275000Y-95222500D01*
G75*
G02*
X140362500Y-95135000I87500J0D01*
G01*
X140537500Y-95135000D01*
G75*
G02*
X140625000Y-95222500I0J-87500D01*
G01*
G37*
G36*
G01*
X140125000Y-95222500D02*
X140125000Y-95997500D01*
G75*
G02*
X140037500Y-96085000I-87500J0D01*
G01*
X139862500Y-96085000D01*
G75*
G02*
X139775000Y-95997500I0J87500D01*
G01*
X139775000Y-95222500D01*
G75*
G02*
X139862500Y-95135000I87500J0D01*
G01*
X140037500Y-95135000D01*
G75*
G02*
X140125000Y-95222500I0J-87500D01*
G01*
G37*
G36*
G01*
X139625000Y-95222500D02*
X139625000Y-95997500D01*
G75*
G02*
X139537500Y-96085000I-87500J0D01*
G01*
X139362500Y-96085000D01*
G75*
G02*
X139275000Y-95997500I0J87500D01*
G01*
X139275000Y-95222500D01*
G75*
G02*
X139362500Y-95135000I87500J0D01*
G01*
X139537500Y-95135000D01*
G75*
G02*
X139625000Y-95222500I0J-87500D01*
G01*
G37*
G36*
G01*
X139125000Y-95222500D02*
X139125000Y-95997500D01*
G75*
G02*
X139037500Y-96085000I-87500J0D01*
G01*
X138862500Y-96085000D01*
G75*
G02*
X138775000Y-95997500I0J87500D01*
G01*
X138775000Y-95222500D01*
G75*
G02*
X138862500Y-95135000I87500J0D01*
G01*
X139037500Y-95135000D01*
G75*
G02*
X139125000Y-95222500I0J-87500D01*
G01*
G37*
G36*
G01*
X138625000Y-95222500D02*
X138625000Y-95997500D01*
G75*
G02*
X138537500Y-96085000I-87500J0D01*
G01*
X138362500Y-96085000D01*
G75*
G02*
X138275000Y-95997500I0J87500D01*
G01*
X138275000Y-95222500D01*
G75*
G02*
X138362500Y-95135000I87500J0D01*
G01*
X138537500Y-95135000D01*
G75*
G02*
X138625000Y-95222500I0J-87500D01*
G01*
G37*
G36*
G01*
X138125000Y-95222500D02*
X138125000Y-95997500D01*
G75*
G02*
X138037500Y-96085000I-87500J0D01*
G01*
X137862500Y-96085000D01*
G75*
G02*
X137775000Y-95997500I0J87500D01*
G01*
X137775000Y-95222500D01*
G75*
G02*
X137862500Y-95135000I87500J0D01*
G01*
X138037500Y-95135000D01*
G75*
G02*
X138125000Y-95222500I0J-87500D01*
G01*
G37*
G36*
G01*
X137625000Y-95222500D02*
X137625000Y-95997500D01*
G75*
G02*
X137537500Y-96085000I-87500J0D01*
G01*
X137362500Y-96085000D01*
G75*
G02*
X137275000Y-95997500I0J87500D01*
G01*
X137275000Y-95222500D01*
G75*
G02*
X137362500Y-95135000I87500J0D01*
G01*
X137537500Y-95135000D01*
G75*
G02*
X137625000Y-95222500I0J-87500D01*
G01*
G37*
G36*
G01*
X137125000Y-95222500D02*
X137125000Y-95997500D01*
G75*
G02*
X137037500Y-96085000I-87500J0D01*
G01*
X136862500Y-96085000D01*
G75*
G02*
X136775000Y-95997500I0J87500D01*
G01*
X136775000Y-95222500D01*
G75*
G02*
X136862500Y-95135000I87500J0D01*
G01*
X137037500Y-95135000D01*
G75*
G02*
X137125000Y-95222500I0J-87500D01*
G01*
G37*
G36*
G01*
X136725000Y-96222500D02*
X136725000Y-96397500D01*
G75*
G02*
X136637500Y-96485000I-87500J0D01*
G01*
X135862500Y-96485000D01*
G75*
G02*
X135775000Y-96397500I0J87500D01*
G01*
X135775000Y-96222500D01*
G75*
G02*
X135862500Y-96135000I87500J0D01*
G01*
X136637500Y-96135000D01*
G75*
G02*
X136725000Y-96222500I0J-87500D01*
G01*
G37*
G36*
G01*
X136725000Y-96722500D02*
X136725000Y-96897500D01*
G75*
G02*
X136637500Y-96985000I-87500J0D01*
G01*
X135862500Y-96985000D01*
G75*
G02*
X135775000Y-96897500I0J87500D01*
G01*
X135775000Y-96722500D01*
G75*
G02*
X135862500Y-96635000I87500J0D01*
G01*
X136637500Y-96635000D01*
G75*
G02*
X136725000Y-96722500I0J-87500D01*
G01*
G37*
G36*
G01*
X136725000Y-97222500D02*
X136725000Y-97397500D01*
G75*
G02*
X136637500Y-97485000I-87500J0D01*
G01*
X135862500Y-97485000D01*
G75*
G02*
X135775000Y-97397500I0J87500D01*
G01*
X135775000Y-97222500D01*
G75*
G02*
X135862500Y-97135000I87500J0D01*
G01*
X136637500Y-97135000D01*
G75*
G02*
X136725000Y-97222500I0J-87500D01*
G01*
G37*
G36*
G01*
X136725000Y-97722500D02*
X136725000Y-97897500D01*
G75*
G02*
X136637500Y-97985000I-87500J0D01*
G01*
X135862500Y-97985000D01*
G75*
G02*
X135775000Y-97897500I0J87500D01*
G01*
X135775000Y-97722500D01*
G75*
G02*
X135862500Y-97635000I87500J0D01*
G01*
X136637500Y-97635000D01*
G75*
G02*
X136725000Y-97722500I0J-87500D01*
G01*
G37*
G36*
G01*
X136725000Y-98222500D02*
X136725000Y-98397500D01*
G75*
G02*
X136637500Y-98485000I-87500J0D01*
G01*
X135862500Y-98485000D01*
G75*
G02*
X135775000Y-98397500I0J87500D01*
G01*
X135775000Y-98222500D01*
G75*
G02*
X135862500Y-98135000I87500J0D01*
G01*
X136637500Y-98135000D01*
G75*
G02*
X136725000Y-98222500I0J-87500D01*
G01*
G37*
G36*
G01*
X136725000Y-98722500D02*
X136725000Y-98897500D01*
G75*
G02*
X136637500Y-98985000I-87500J0D01*
G01*
X135862500Y-98985000D01*
G75*
G02*
X135775000Y-98897500I0J87500D01*
G01*
X135775000Y-98722500D01*
G75*
G02*
X135862500Y-98635000I87500J0D01*
G01*
X136637500Y-98635000D01*
G75*
G02*
X136725000Y-98722500I0J-87500D01*
G01*
G37*
G36*
G01*
X136725000Y-99222500D02*
X136725000Y-99397500D01*
G75*
G02*
X136637500Y-99485000I-87500J0D01*
G01*
X135862500Y-99485000D01*
G75*
G02*
X135775000Y-99397500I0J87500D01*
G01*
X135775000Y-99222500D01*
G75*
G02*
X135862500Y-99135000I87500J0D01*
G01*
X136637500Y-99135000D01*
G75*
G02*
X136725000Y-99222500I0J-87500D01*
G01*
G37*
G36*
G01*
X136725000Y-99722500D02*
X136725000Y-99897500D01*
G75*
G02*
X136637500Y-99985000I-87500J0D01*
G01*
X135862500Y-99985000D01*
G75*
G02*
X135775000Y-99897500I0J87500D01*
G01*
X135775000Y-99722500D01*
G75*
G02*
X135862500Y-99635000I87500J0D01*
G01*
X136637500Y-99635000D01*
G75*
G02*
X136725000Y-99722500I0J-87500D01*
G01*
G37*
G36*
G01*
X136725000Y-100222500D02*
X136725000Y-100397500D01*
G75*
G02*
X136637500Y-100485000I-87500J0D01*
G01*
X135862500Y-100485000D01*
G75*
G02*
X135775000Y-100397500I0J87500D01*
G01*
X135775000Y-100222500D01*
G75*
G02*
X135862500Y-100135000I87500J0D01*
G01*
X136637500Y-100135000D01*
G75*
G02*
X136725000Y-100222500I0J-87500D01*
G01*
G37*
G36*
G01*
X136725000Y-100722500D02*
X136725000Y-100897500D01*
G75*
G02*
X136637500Y-100985000I-87500J0D01*
G01*
X135862500Y-100985000D01*
G75*
G02*
X135775000Y-100897500I0J87500D01*
G01*
X135775000Y-100722500D01*
G75*
G02*
X135862500Y-100635000I87500J0D01*
G01*
X136637500Y-100635000D01*
G75*
G02*
X136725000Y-100722500I0J-87500D01*
G01*
G37*
G36*
G01*
X136725000Y-101222500D02*
X136725000Y-101397500D01*
G75*
G02*
X136637500Y-101485000I-87500J0D01*
G01*
X135862500Y-101485000D01*
G75*
G02*
X135775000Y-101397500I0J87500D01*
G01*
X135775000Y-101222500D01*
G75*
G02*
X135862500Y-101135000I87500J0D01*
G01*
X136637500Y-101135000D01*
G75*
G02*
X136725000Y-101222500I0J-87500D01*
G01*
G37*
G36*
G01*
X136725000Y-101722500D02*
X136725000Y-101897500D01*
G75*
G02*
X136637500Y-101985000I-87500J0D01*
G01*
X135862500Y-101985000D01*
G75*
G02*
X135775000Y-101897500I0J87500D01*
G01*
X135775000Y-101722500D01*
G75*
G02*
X135862500Y-101635000I87500J0D01*
G01*
X136637500Y-101635000D01*
G75*
G02*
X136725000Y-101722500I0J-87500D01*
G01*
G37*
G36*
G01*
X137125000Y-102122500D02*
X137125000Y-102897500D01*
G75*
G02*
X137037500Y-102985000I-87500J0D01*
G01*
X136862500Y-102985000D01*
G75*
G02*
X136775000Y-102897500I0J87500D01*
G01*
X136775000Y-102122500D01*
G75*
G02*
X136862500Y-102035000I87500J0D01*
G01*
X137037500Y-102035000D01*
G75*
G02*
X137125000Y-102122500I0J-87500D01*
G01*
G37*
G36*
G01*
X137625000Y-102122500D02*
X137625000Y-102897500D01*
G75*
G02*
X137537500Y-102985000I-87500J0D01*
G01*
X137362500Y-102985000D01*
G75*
G02*
X137275000Y-102897500I0J87500D01*
G01*
X137275000Y-102122500D01*
G75*
G02*
X137362500Y-102035000I87500J0D01*
G01*
X137537500Y-102035000D01*
G75*
G02*
X137625000Y-102122500I0J-87500D01*
G01*
G37*
G36*
G01*
X138125000Y-102122500D02*
X138125000Y-102897500D01*
G75*
G02*
X138037500Y-102985000I-87500J0D01*
G01*
X137862500Y-102985000D01*
G75*
G02*
X137775000Y-102897500I0J87500D01*
G01*
X137775000Y-102122500D01*
G75*
G02*
X137862500Y-102035000I87500J0D01*
G01*
X138037500Y-102035000D01*
G75*
G02*
X138125000Y-102122500I0J-87500D01*
G01*
G37*
G36*
G01*
X138625000Y-102122500D02*
X138625000Y-102897500D01*
G75*
G02*
X138537500Y-102985000I-87500J0D01*
G01*
X138362500Y-102985000D01*
G75*
G02*
X138275000Y-102897500I0J87500D01*
G01*
X138275000Y-102122500D01*
G75*
G02*
X138362500Y-102035000I87500J0D01*
G01*
X138537500Y-102035000D01*
G75*
G02*
X138625000Y-102122500I0J-87500D01*
G01*
G37*
G36*
G01*
X139125000Y-102122500D02*
X139125000Y-102897500D01*
G75*
G02*
X139037500Y-102985000I-87500J0D01*
G01*
X138862500Y-102985000D01*
G75*
G02*
X138775000Y-102897500I0J87500D01*
G01*
X138775000Y-102122500D01*
G75*
G02*
X138862500Y-102035000I87500J0D01*
G01*
X139037500Y-102035000D01*
G75*
G02*
X139125000Y-102122500I0J-87500D01*
G01*
G37*
G36*
G01*
X139625000Y-102122500D02*
X139625000Y-102897500D01*
G75*
G02*
X139537500Y-102985000I-87500J0D01*
G01*
X139362500Y-102985000D01*
G75*
G02*
X139275000Y-102897500I0J87500D01*
G01*
X139275000Y-102122500D01*
G75*
G02*
X139362500Y-102035000I87500J0D01*
G01*
X139537500Y-102035000D01*
G75*
G02*
X139625000Y-102122500I0J-87500D01*
G01*
G37*
G36*
G01*
X140125000Y-102122500D02*
X140125000Y-102897500D01*
G75*
G02*
X140037500Y-102985000I-87500J0D01*
G01*
X139862500Y-102985000D01*
G75*
G02*
X139775000Y-102897500I0J87500D01*
G01*
X139775000Y-102122500D01*
G75*
G02*
X139862500Y-102035000I87500J0D01*
G01*
X140037500Y-102035000D01*
G75*
G02*
X140125000Y-102122500I0J-87500D01*
G01*
G37*
G36*
G01*
X140625000Y-102122500D02*
X140625000Y-102897500D01*
G75*
G02*
X140537500Y-102985000I-87500J0D01*
G01*
X140362500Y-102985000D01*
G75*
G02*
X140275000Y-102897500I0J87500D01*
G01*
X140275000Y-102122500D01*
G75*
G02*
X140362500Y-102035000I87500J0D01*
G01*
X140537500Y-102035000D01*
G75*
G02*
X140625000Y-102122500I0J-87500D01*
G01*
G37*
G36*
G01*
X141125000Y-102122500D02*
X141125000Y-102897500D01*
G75*
G02*
X141037500Y-102985000I-87500J0D01*
G01*
X140862500Y-102985000D01*
G75*
G02*
X140775000Y-102897500I0J87500D01*
G01*
X140775000Y-102122500D01*
G75*
G02*
X140862500Y-102035000I87500J0D01*
G01*
X141037500Y-102035000D01*
G75*
G02*
X141125000Y-102122500I0J-87500D01*
G01*
G37*
G36*
G01*
X141625000Y-102122500D02*
X141625000Y-102897500D01*
G75*
G02*
X141537500Y-102985000I-87500J0D01*
G01*
X141362500Y-102985000D01*
G75*
G02*
X141275000Y-102897500I0J87500D01*
G01*
X141275000Y-102122500D01*
G75*
G02*
X141362500Y-102035000I87500J0D01*
G01*
X141537500Y-102035000D01*
G75*
G02*
X141625000Y-102122500I0J-87500D01*
G01*
G37*
G36*
G01*
X142125000Y-102122500D02*
X142125000Y-102897500D01*
G75*
G02*
X142037500Y-102985000I-87500J0D01*
G01*
X141862500Y-102985000D01*
G75*
G02*
X141775000Y-102897500I0J87500D01*
G01*
X141775000Y-102122500D01*
G75*
G02*
X141862500Y-102035000I87500J0D01*
G01*
X142037500Y-102035000D01*
G75*
G02*
X142125000Y-102122500I0J-87500D01*
G01*
G37*
G36*
G01*
X142625000Y-102122500D02*
X142625000Y-102897500D01*
G75*
G02*
X142537500Y-102985000I-87500J0D01*
G01*
X142362500Y-102985000D01*
G75*
G02*
X142275000Y-102897500I0J87500D01*
G01*
X142275000Y-102122500D01*
G75*
G02*
X142362500Y-102035000I87500J0D01*
G01*
X142537500Y-102035000D01*
G75*
G02*
X142625000Y-102122500I0J-87500D01*
G01*
G37*
D38*
X139700000Y-99060000D03*
D39*
X125703000Y-86677000D03*
D40*
X125703000Y-84677000D03*
X125703000Y-82677000D03*
X125703000Y-80677000D03*
M02*
