G04 #@! TF.GenerationSoftware,KiCad,Pcbnew,(5.1.6)-1*
G04 #@! TF.CreationDate,2020-06-24T13:46:23+02:00*
G04 #@! TF.ProjectId,ST-Node-V0.1,53542d4e-6f64-4652-9d56-302e312e6b69,rev?*
G04 #@! TF.SameCoordinates,Original*
G04 #@! TF.FileFunction,Paste,Top*
G04 #@! TF.FilePolarity,Positive*
%FSLAX46Y46*%
G04 Gerber Fmt 4.6, Leading zero omitted, Abs format (unit mm)*
G04 Created by KiCad (PCBNEW (5.1.6)-1) date 2020-06-24 13:46:23*
%MOMM*%
%LPD*%
G01*
G04 APERTURE LIST*
%ADD10R,0.500000X0.600000*%
%ADD11R,0.750000X0.300000*%
%ADD12R,0.350000X0.375000*%
%ADD13R,0.375000X0.350000*%
%ADD14C,0.100000*%
%ADD15R,0.600000X0.450000*%
%ADD16R,0.800000X0.900000*%
%ADD17R,0.700000X0.450000*%
%ADD18R,0.650000X1.060000*%
%ADD19R,1.060000X0.650000*%
%ADD20C,0.210000*%
%ADD21R,0.800000X0.550000*%
%ADD22R,0.700000X1.400000*%
%ADD23R,0.700000X1.450000*%
%ADD24R,0.270000X0.330000*%
%ADD25R,0.330000X0.270000*%
%ADD26R,0.800000X0.600000*%
%ADD27R,0.900000X1.150000*%
%ADD28R,0.300000X1.700000*%
%ADD29R,0.600000X0.270000*%
%ADD30C,0.250000*%
%ADD31R,2.400000X0.740000*%
%ADD32R,0.500000X0.800000*%
%ADD33R,1.100000X2.000000*%
%ADD34R,1.700000X0.900000*%
G04 APERTURE END LIST*
G36*
G01*
X137704700Y-104328600D02*
X138049700Y-104328600D01*
G75*
G02*
X138197200Y-104476100I0J-147500D01*
G01*
X138197200Y-104771100D01*
G75*
G02*
X138049700Y-104918600I-147500J0D01*
G01*
X137704700Y-104918600D01*
G75*
G02*
X137557200Y-104771100I0J147500D01*
G01*
X137557200Y-104476100D01*
G75*
G02*
X137704700Y-104328600I147500J0D01*
G01*
G37*
G36*
G01*
X137704700Y-105298600D02*
X138049700Y-105298600D01*
G75*
G02*
X138197200Y-105446100I0J-147500D01*
G01*
X138197200Y-105741100D01*
G75*
G02*
X138049700Y-105888600I-147500J0D01*
G01*
X137704700Y-105888600D01*
G75*
G02*
X137557200Y-105741100I0J147500D01*
G01*
X137557200Y-105446100D01*
G75*
G02*
X137704700Y-105298600I147500J0D01*
G01*
G37*
D10*
X150645500Y-103651400D03*
X150645500Y-102901400D03*
X149995500Y-103651400D03*
X149995500Y-102901400D03*
D11*
X151770500Y-102526400D03*
X151770500Y-103026400D03*
X151770500Y-103526400D03*
X151770500Y-104026400D03*
X148870500Y-104026400D03*
X148870500Y-103526400D03*
X148870500Y-103026400D03*
X148870500Y-102526400D03*
D12*
X128342200Y-99797100D03*
X127842200Y-99797100D03*
X127842200Y-98272100D03*
X128342200Y-98272100D03*
D13*
X127329700Y-99784600D03*
X128854700Y-99784600D03*
X127329700Y-98284600D03*
X128854700Y-98284600D03*
X127329700Y-98784600D03*
X127329700Y-99284600D03*
X128854700Y-98784600D03*
X128854700Y-99284600D03*
D14*
G36*
X148581207Y-75830491D02*
G01*
X147838744Y-75088028D01*
X149394379Y-73532393D01*
X150136842Y-74274856D01*
X148581207Y-75830491D01*
G37*
G36*
X148934760Y-77527546D02*
G01*
X148227654Y-76820440D01*
X148970116Y-76077978D01*
X149677222Y-76785084D01*
X148934760Y-77527546D01*
G37*
G36*
X150667172Y-77916456D02*
G01*
X149924709Y-77173993D01*
X151480344Y-75618358D01*
X152222807Y-76360821D01*
X150667172Y-77916456D01*
G37*
G36*
G01*
X139824025Y-79855274D02*
X139580073Y-80099225D01*
G75*
G02*
X139371477Y-80099225I-104298J104298D01*
G01*
X139162881Y-79890629D01*
G75*
G02*
X139162881Y-79682033I104298J104298D01*
G01*
X139406833Y-79438081D01*
G75*
G02*
X139615429Y-79438081I104298J-104298D01*
G01*
X139824025Y-79646677D01*
G75*
G02*
X139824025Y-79855273I-104298J-104298D01*
G01*
G37*
G36*
G01*
X140509919Y-80541168D02*
X140265967Y-80785119D01*
G75*
G02*
X140057371Y-80785119I-104298J104298D01*
G01*
X139848775Y-80576523D01*
G75*
G02*
X139848775Y-80367927I104298J104298D01*
G01*
X140092727Y-80123975D01*
G75*
G02*
X140301323Y-80123975I104298J-104298D01*
G01*
X140509919Y-80332571D01*
G75*
G02*
X140509919Y-80541167I-104298J-104298D01*
G01*
G37*
G36*
G01*
X138644926Y-80835825D02*
X138400975Y-80591873D01*
G75*
G02*
X138400975Y-80383277I104298J104298D01*
G01*
X138609571Y-80174681D01*
G75*
G02*
X138818167Y-80174681I104298J-104298D01*
G01*
X139062119Y-80418633D01*
G75*
G02*
X139062119Y-80627229I-104298J-104298D01*
G01*
X138853523Y-80835825D01*
G75*
G02*
X138644927Y-80835825I-104298J104298D01*
G01*
G37*
G36*
G01*
X137959032Y-81521719D02*
X137715081Y-81277767D01*
G75*
G02*
X137715081Y-81069171I104298J104298D01*
G01*
X137923677Y-80860575D01*
G75*
G02*
X138132273Y-80860575I104298J-104298D01*
G01*
X138376225Y-81104527D01*
G75*
G02*
X138376225Y-81313123I-104298J-104298D01*
G01*
X138167629Y-81521719D01*
G75*
G02*
X137959033Y-81521719I-104298J104298D01*
G01*
G37*
G36*
G01*
X133641600Y-83865500D02*
X133641600Y-83520500D01*
G75*
G02*
X133789100Y-83373000I147500J0D01*
G01*
X134084100Y-83373000D01*
G75*
G02*
X134231600Y-83520500I0J-147500D01*
G01*
X134231600Y-83865500D01*
G75*
G02*
X134084100Y-84013000I-147500J0D01*
G01*
X133789100Y-84013000D01*
G75*
G02*
X133641600Y-83865500I0J147500D01*
G01*
G37*
G36*
G01*
X132671600Y-83865500D02*
X132671600Y-83520500D01*
G75*
G02*
X132819100Y-83373000I147500J0D01*
G01*
X133114100Y-83373000D01*
G75*
G02*
X133261600Y-83520500I0J-147500D01*
G01*
X133261600Y-83865500D01*
G75*
G02*
X133114100Y-84013000I-147500J0D01*
G01*
X132819100Y-84013000D01*
G75*
G02*
X132671600Y-83865500I0J147500D01*
G01*
G37*
G36*
G01*
X147534000Y-83037900D02*
X147534000Y-83382900D01*
G75*
G02*
X147386500Y-83530400I-147500J0D01*
G01*
X147091500Y-83530400D01*
G75*
G02*
X146944000Y-83382900I0J147500D01*
G01*
X146944000Y-83037900D01*
G75*
G02*
X147091500Y-82890400I147500J0D01*
G01*
X147386500Y-82890400D01*
G75*
G02*
X147534000Y-83037900I0J-147500D01*
G01*
G37*
G36*
G01*
X148504000Y-83037900D02*
X148504000Y-83382900D01*
G75*
G02*
X148356500Y-83530400I-147500J0D01*
G01*
X148061500Y-83530400D01*
G75*
G02*
X147914000Y-83382900I0J147500D01*
G01*
X147914000Y-83037900D01*
G75*
G02*
X148061500Y-82890400I147500J0D01*
G01*
X148356500Y-82890400D01*
G75*
G02*
X148504000Y-83037900I0J-147500D01*
G01*
G37*
G36*
G01*
X142573950Y-105814200D02*
X143086450Y-105814200D01*
G75*
G02*
X143305200Y-106032950I0J-218750D01*
G01*
X143305200Y-106470450D01*
G75*
G02*
X143086450Y-106689200I-218750J0D01*
G01*
X142573950Y-106689200D01*
G75*
G02*
X142355200Y-106470450I0J218750D01*
G01*
X142355200Y-106032950D01*
G75*
G02*
X142573950Y-105814200I218750J0D01*
G01*
G37*
G36*
G01*
X142573950Y-104239200D02*
X143086450Y-104239200D01*
G75*
G02*
X143305200Y-104457950I0J-218750D01*
G01*
X143305200Y-104895450D01*
G75*
G02*
X143086450Y-105114200I-218750J0D01*
G01*
X142573950Y-105114200D01*
G75*
G02*
X142355200Y-104895450I0J218750D01*
G01*
X142355200Y-104457950D01*
G75*
G02*
X142573950Y-104239200I218750J0D01*
G01*
G37*
G36*
G01*
X146206150Y-105052200D02*
X146718650Y-105052200D01*
G75*
G02*
X146937400Y-105270950I0J-218750D01*
G01*
X146937400Y-105708450D01*
G75*
G02*
X146718650Y-105927200I-218750J0D01*
G01*
X146206150Y-105927200D01*
G75*
G02*
X145987400Y-105708450I0J218750D01*
G01*
X145987400Y-105270950D01*
G75*
G02*
X146206150Y-105052200I218750J0D01*
G01*
G37*
G36*
G01*
X146206150Y-103477200D02*
X146718650Y-103477200D01*
G75*
G02*
X146937400Y-103695950I0J-218750D01*
G01*
X146937400Y-104133450D01*
G75*
G02*
X146718650Y-104352200I-218750J0D01*
G01*
X146206150Y-104352200D01*
G75*
G02*
X145987400Y-104133450I0J218750D01*
G01*
X145987400Y-103695950D01*
G75*
G02*
X146206150Y-103477200I218750J0D01*
G01*
G37*
G36*
G01*
X132296400Y-93274100D02*
X132296400Y-93619100D01*
G75*
G02*
X132148900Y-93766600I-147500J0D01*
G01*
X131853900Y-93766600D01*
G75*
G02*
X131706400Y-93619100I0J147500D01*
G01*
X131706400Y-93274100D01*
G75*
G02*
X131853900Y-93126600I147500J0D01*
G01*
X132148900Y-93126600D01*
G75*
G02*
X132296400Y-93274100I0J-147500D01*
G01*
G37*
G36*
G01*
X133266400Y-93274100D02*
X133266400Y-93619100D01*
G75*
G02*
X133118900Y-93766600I-147500J0D01*
G01*
X132823900Y-93766600D01*
G75*
G02*
X132676400Y-93619100I0J147500D01*
G01*
X132676400Y-93274100D01*
G75*
G02*
X132823900Y-93126600I147500J0D01*
G01*
X133118900Y-93126600D01*
G75*
G02*
X133266400Y-93274100I0J-147500D01*
G01*
G37*
G36*
G01*
X142530060Y-88328720D02*
X142530060Y-88673720D01*
G75*
G02*
X142382560Y-88821220I-147500J0D01*
G01*
X142087560Y-88821220D01*
G75*
G02*
X141940060Y-88673720I0J147500D01*
G01*
X141940060Y-88328720D01*
G75*
G02*
X142087560Y-88181220I147500J0D01*
G01*
X142382560Y-88181220D01*
G75*
G02*
X142530060Y-88328720I0J-147500D01*
G01*
G37*
G36*
G01*
X143500060Y-88328720D02*
X143500060Y-88673720D01*
G75*
G02*
X143352560Y-88821220I-147500J0D01*
G01*
X143057560Y-88821220D01*
G75*
G02*
X142910060Y-88673720I0J147500D01*
G01*
X142910060Y-88328720D01*
G75*
G02*
X143057560Y-88181220I147500J0D01*
G01*
X143352560Y-88181220D01*
G75*
G02*
X143500060Y-88328720I0J-147500D01*
G01*
G37*
G36*
G01*
X132676400Y-92679300D02*
X132676400Y-92334300D01*
G75*
G02*
X132823900Y-92186800I147500J0D01*
G01*
X133118900Y-92186800D01*
G75*
G02*
X133266400Y-92334300I0J-147500D01*
G01*
X133266400Y-92679300D01*
G75*
G02*
X133118900Y-92826800I-147500J0D01*
G01*
X132823900Y-92826800D01*
G75*
G02*
X132676400Y-92679300I0J147500D01*
G01*
G37*
G36*
G01*
X131706400Y-92679300D02*
X131706400Y-92334300D01*
G75*
G02*
X131853900Y-92186800I147500J0D01*
G01*
X132148900Y-92186800D01*
G75*
G02*
X132296400Y-92334300I0J-147500D01*
G01*
X132296400Y-92679300D01*
G75*
G02*
X132148900Y-92826800I-147500J0D01*
G01*
X131853900Y-92826800D01*
G75*
G02*
X131706400Y-92679300I0J147500D01*
G01*
G37*
G36*
G01*
X143412500Y-89751400D02*
X143067500Y-89751400D01*
G75*
G02*
X142920000Y-89603900I0J147500D01*
G01*
X142920000Y-89308900D01*
G75*
G02*
X143067500Y-89161400I147500J0D01*
G01*
X143412500Y-89161400D01*
G75*
G02*
X143560000Y-89308900I0J-147500D01*
G01*
X143560000Y-89603900D01*
G75*
G02*
X143412500Y-89751400I-147500J0D01*
G01*
G37*
G36*
G01*
X143412500Y-90721400D02*
X143067500Y-90721400D01*
G75*
G02*
X142920000Y-90573900I0J147500D01*
G01*
X142920000Y-90278900D01*
G75*
G02*
X143067500Y-90131400I147500J0D01*
G01*
X143412500Y-90131400D01*
G75*
G02*
X143560000Y-90278900I0J-147500D01*
G01*
X143560000Y-90573900D01*
G75*
G02*
X143412500Y-90721400I-147500J0D01*
G01*
G37*
G36*
G01*
X138763950Y-107084200D02*
X139276450Y-107084200D01*
G75*
G02*
X139495200Y-107302950I0J-218750D01*
G01*
X139495200Y-107740450D01*
G75*
G02*
X139276450Y-107959200I-218750J0D01*
G01*
X138763950Y-107959200D01*
G75*
G02*
X138545200Y-107740450I0J218750D01*
G01*
X138545200Y-107302950D01*
G75*
G02*
X138763950Y-107084200I218750J0D01*
G01*
G37*
G36*
G01*
X138763950Y-105509200D02*
X139276450Y-105509200D01*
G75*
G02*
X139495200Y-105727950I0J-218750D01*
G01*
X139495200Y-106165450D01*
G75*
G02*
X139276450Y-106384200I-218750J0D01*
G01*
X138763950Y-106384200D01*
G75*
G02*
X138545200Y-106165450I0J218750D01*
G01*
X138545200Y-105727950D01*
G75*
G02*
X138763950Y-105509200I218750J0D01*
G01*
G37*
G36*
G01*
X140237150Y-107084200D02*
X140749650Y-107084200D01*
G75*
G02*
X140968400Y-107302950I0J-218750D01*
G01*
X140968400Y-107740450D01*
G75*
G02*
X140749650Y-107959200I-218750J0D01*
G01*
X140237150Y-107959200D01*
G75*
G02*
X140018400Y-107740450I0J218750D01*
G01*
X140018400Y-107302950D01*
G75*
G02*
X140237150Y-107084200I218750J0D01*
G01*
G37*
G36*
G01*
X140237150Y-105509200D02*
X140749650Y-105509200D01*
G75*
G02*
X140968400Y-105727950I0J-218750D01*
G01*
X140968400Y-106165450D01*
G75*
G02*
X140749650Y-106384200I-218750J0D01*
G01*
X140237150Y-106384200D01*
G75*
G02*
X140018400Y-106165450I0J218750D01*
G01*
X140018400Y-105727950D01*
G75*
G02*
X140237150Y-105509200I218750J0D01*
G01*
G37*
G36*
G01*
X150079700Y-99319300D02*
X150079700Y-99664300D01*
G75*
G02*
X149932200Y-99811800I-147500J0D01*
G01*
X149637200Y-99811800D01*
G75*
G02*
X149489700Y-99664300I0J147500D01*
G01*
X149489700Y-99319300D01*
G75*
G02*
X149637200Y-99171800I147500J0D01*
G01*
X149932200Y-99171800D01*
G75*
G02*
X150079700Y-99319300I0J-147500D01*
G01*
G37*
G36*
G01*
X151049700Y-99319300D02*
X151049700Y-99664300D01*
G75*
G02*
X150902200Y-99811800I-147500J0D01*
G01*
X150607200Y-99811800D01*
G75*
G02*
X150459700Y-99664300I0J147500D01*
G01*
X150459700Y-99319300D01*
G75*
G02*
X150607200Y-99171800I147500J0D01*
G01*
X150902200Y-99171800D01*
G75*
G02*
X151049700Y-99319300I0J-147500D01*
G01*
G37*
G36*
G01*
X120325100Y-99326200D02*
X120670100Y-99326200D01*
G75*
G02*
X120817600Y-99473700I0J-147500D01*
G01*
X120817600Y-99768700D01*
G75*
G02*
X120670100Y-99916200I-147500J0D01*
G01*
X120325100Y-99916200D01*
G75*
G02*
X120177600Y-99768700I0J147500D01*
G01*
X120177600Y-99473700D01*
G75*
G02*
X120325100Y-99326200I147500J0D01*
G01*
G37*
G36*
G01*
X120325100Y-98356200D02*
X120670100Y-98356200D01*
G75*
G02*
X120817600Y-98503700I0J-147500D01*
G01*
X120817600Y-98798700D01*
G75*
G02*
X120670100Y-98946200I-147500J0D01*
G01*
X120325100Y-98946200D01*
G75*
G02*
X120177600Y-98798700I0J147500D01*
G01*
X120177600Y-98503700D01*
G75*
G02*
X120325100Y-98356200I147500J0D01*
G01*
G37*
G36*
G01*
X151691600Y-101670900D02*
X151691600Y-101325900D01*
G75*
G02*
X151839100Y-101178400I147500J0D01*
G01*
X152134100Y-101178400D01*
G75*
G02*
X152281600Y-101325900I0J-147500D01*
G01*
X152281600Y-101670900D01*
G75*
G02*
X152134100Y-101818400I-147500J0D01*
G01*
X151839100Y-101818400D01*
G75*
G02*
X151691600Y-101670900I0J147500D01*
G01*
G37*
G36*
G01*
X150721600Y-101670900D02*
X150721600Y-101325900D01*
G75*
G02*
X150869100Y-101178400I147500J0D01*
G01*
X151164100Y-101178400D01*
G75*
G02*
X151311600Y-101325900I0J-147500D01*
G01*
X151311600Y-101670900D01*
G75*
G02*
X151164100Y-101818400I-147500J0D01*
G01*
X150869100Y-101818400D01*
G75*
G02*
X150721600Y-101670900I0J147500D01*
G01*
G37*
G36*
G01*
X126537500Y-101714800D02*
X126192500Y-101714800D01*
G75*
G02*
X126045000Y-101567300I0J147500D01*
G01*
X126045000Y-101272300D01*
G75*
G02*
X126192500Y-101124800I147500J0D01*
G01*
X126537500Y-101124800D01*
G75*
G02*
X126685000Y-101272300I0J-147500D01*
G01*
X126685000Y-101567300D01*
G75*
G02*
X126537500Y-101714800I-147500J0D01*
G01*
G37*
G36*
G01*
X126537500Y-102684800D02*
X126192500Y-102684800D01*
G75*
G02*
X126045000Y-102537300I0J147500D01*
G01*
X126045000Y-102242300D01*
G75*
G02*
X126192500Y-102094800I147500J0D01*
G01*
X126537500Y-102094800D01*
G75*
G02*
X126685000Y-102242300I0J-147500D01*
G01*
X126685000Y-102537300D01*
G75*
G02*
X126537500Y-102684800I-147500J0D01*
G01*
G37*
G36*
G01*
X152583100Y-89390000D02*
X152928100Y-89390000D01*
G75*
G02*
X153075600Y-89537500I0J-147500D01*
G01*
X153075600Y-89832500D01*
G75*
G02*
X152928100Y-89980000I-147500J0D01*
G01*
X152583100Y-89980000D01*
G75*
G02*
X152435600Y-89832500I0J147500D01*
G01*
X152435600Y-89537500D01*
G75*
G02*
X152583100Y-89390000I147500J0D01*
G01*
G37*
G36*
G01*
X152583100Y-90360000D02*
X152928100Y-90360000D01*
G75*
G02*
X153075600Y-90507500I0J-147500D01*
G01*
X153075600Y-90802500D01*
G75*
G02*
X152928100Y-90950000I-147500J0D01*
G01*
X152583100Y-90950000D01*
G75*
G02*
X152435600Y-90802500I0J147500D01*
G01*
X152435600Y-90507500D01*
G75*
G02*
X152583100Y-90360000I147500J0D01*
G01*
G37*
G36*
G01*
X125836900Y-99224600D02*
X126181900Y-99224600D01*
G75*
G02*
X126329400Y-99372100I0J-147500D01*
G01*
X126329400Y-99667100D01*
G75*
G02*
X126181900Y-99814600I-147500J0D01*
G01*
X125836900Y-99814600D01*
G75*
G02*
X125689400Y-99667100I0J147500D01*
G01*
X125689400Y-99372100D01*
G75*
G02*
X125836900Y-99224600I147500J0D01*
G01*
G37*
G36*
G01*
X125836900Y-98254600D02*
X126181900Y-98254600D01*
G75*
G02*
X126329400Y-98402100I0J-147500D01*
G01*
X126329400Y-98697100D01*
G75*
G02*
X126181900Y-98844600I-147500J0D01*
G01*
X125836900Y-98844600D01*
G75*
G02*
X125689400Y-98697100I0J147500D01*
G01*
X125689400Y-98402100D01*
G75*
G02*
X125836900Y-98254600I147500J0D01*
G01*
G37*
G36*
G01*
X146857000Y-118874250D02*
X146857000Y-118361750D01*
G75*
G02*
X147075750Y-118143000I218750J0D01*
G01*
X147513250Y-118143000D01*
G75*
G02*
X147732000Y-118361750I0J-218750D01*
G01*
X147732000Y-118874250D01*
G75*
G02*
X147513250Y-119093000I-218750J0D01*
G01*
X147075750Y-119093000D01*
G75*
G02*
X146857000Y-118874250I0J218750D01*
G01*
G37*
G36*
G01*
X148432000Y-118874250D02*
X148432000Y-118361750D01*
G75*
G02*
X148650750Y-118143000I218750J0D01*
G01*
X149088250Y-118143000D01*
G75*
G02*
X149307000Y-118361750I0J-218750D01*
G01*
X149307000Y-118874250D01*
G75*
G02*
X149088250Y-119093000I-218750J0D01*
G01*
X148650750Y-119093000D01*
G75*
G02*
X148432000Y-118874250I0J218750D01*
G01*
G37*
G36*
G01*
X130703100Y-105707400D02*
X130358100Y-105707400D01*
G75*
G02*
X130210600Y-105559900I0J147500D01*
G01*
X130210600Y-105264900D01*
G75*
G02*
X130358100Y-105117400I147500J0D01*
G01*
X130703100Y-105117400D01*
G75*
G02*
X130850600Y-105264900I0J-147500D01*
G01*
X130850600Y-105559900D01*
G75*
G02*
X130703100Y-105707400I-147500J0D01*
G01*
G37*
G36*
G01*
X130703100Y-104737400D02*
X130358100Y-104737400D01*
G75*
G02*
X130210600Y-104589900I0J147500D01*
G01*
X130210600Y-104294900D01*
G75*
G02*
X130358100Y-104147400I147500J0D01*
G01*
X130703100Y-104147400D01*
G75*
G02*
X130850600Y-104294900I0J-147500D01*
G01*
X130850600Y-104589900D01*
G75*
G02*
X130703100Y-104737400I-147500J0D01*
G01*
G37*
G36*
G01*
X147773100Y-94779600D02*
X148118100Y-94779600D01*
G75*
G02*
X148265600Y-94927100I0J-147500D01*
G01*
X148265600Y-95222100D01*
G75*
G02*
X148118100Y-95369600I-147500J0D01*
G01*
X147773100Y-95369600D01*
G75*
G02*
X147625600Y-95222100I0J147500D01*
G01*
X147625600Y-94927100D01*
G75*
G02*
X147773100Y-94779600I147500J0D01*
G01*
G37*
G36*
G01*
X147773100Y-93809600D02*
X148118100Y-93809600D01*
G75*
G02*
X148265600Y-93957100I0J-147500D01*
G01*
X148265600Y-94252100D01*
G75*
G02*
X148118100Y-94399600I-147500J0D01*
G01*
X147773100Y-94399600D01*
G75*
G02*
X147625600Y-94252100I0J147500D01*
G01*
X147625600Y-93957100D01*
G75*
G02*
X147773100Y-93809600I147500J0D01*
G01*
G37*
G36*
G01*
X152862820Y-97665760D02*
X152517820Y-97665760D01*
G75*
G02*
X152370320Y-97518260I0J147500D01*
G01*
X152370320Y-97223260D01*
G75*
G02*
X152517820Y-97075760I147500J0D01*
G01*
X152862820Y-97075760D01*
G75*
G02*
X153010320Y-97223260I0J-147500D01*
G01*
X153010320Y-97518260D01*
G75*
G02*
X152862820Y-97665760I-147500J0D01*
G01*
G37*
G36*
G01*
X152862820Y-96695760D02*
X152517820Y-96695760D01*
G75*
G02*
X152370320Y-96548260I0J147500D01*
G01*
X152370320Y-96253260D01*
G75*
G02*
X152517820Y-96105760I147500J0D01*
G01*
X152862820Y-96105760D01*
G75*
G02*
X153010320Y-96253260I0J-147500D01*
G01*
X153010320Y-96548260D01*
G75*
G02*
X152862820Y-96695760I-147500J0D01*
G01*
G37*
G36*
G01*
X131374100Y-105117400D02*
X131719100Y-105117400D01*
G75*
G02*
X131866600Y-105264900I0J-147500D01*
G01*
X131866600Y-105559900D01*
G75*
G02*
X131719100Y-105707400I-147500J0D01*
G01*
X131374100Y-105707400D01*
G75*
G02*
X131226600Y-105559900I0J147500D01*
G01*
X131226600Y-105264900D01*
G75*
G02*
X131374100Y-105117400I147500J0D01*
G01*
G37*
G36*
G01*
X131374100Y-104147400D02*
X131719100Y-104147400D01*
G75*
G02*
X131866600Y-104294900I0J-147500D01*
G01*
X131866600Y-104589900D01*
G75*
G02*
X131719100Y-104737400I-147500J0D01*
G01*
X131374100Y-104737400D01*
G75*
G02*
X131226600Y-104589900I0J147500D01*
G01*
X131226600Y-104294900D01*
G75*
G02*
X131374100Y-104147400I147500J0D01*
G01*
G37*
G36*
G01*
X152969500Y-109227700D02*
X152624500Y-109227700D01*
G75*
G02*
X152477000Y-109080200I0J147500D01*
G01*
X152477000Y-108785200D01*
G75*
G02*
X152624500Y-108637700I147500J0D01*
G01*
X152969500Y-108637700D01*
G75*
G02*
X153117000Y-108785200I0J-147500D01*
G01*
X153117000Y-109080200D01*
G75*
G02*
X152969500Y-109227700I-147500J0D01*
G01*
G37*
G36*
G01*
X152969500Y-108257700D02*
X152624500Y-108257700D01*
G75*
G02*
X152477000Y-108110200I0J147500D01*
G01*
X152477000Y-107815200D01*
G75*
G02*
X152624500Y-107667700I147500J0D01*
G01*
X152969500Y-107667700D01*
G75*
G02*
X153117000Y-107815200I0J-147500D01*
G01*
X153117000Y-108110200D01*
G75*
G02*
X152969500Y-108257700I-147500J0D01*
G01*
G37*
G36*
G01*
X128910000Y-92704700D02*
X128910000Y-92359700D01*
G75*
G02*
X129057500Y-92212200I147500J0D01*
G01*
X129352500Y-92212200D01*
G75*
G02*
X129500000Y-92359700I0J-147500D01*
G01*
X129500000Y-92704700D01*
G75*
G02*
X129352500Y-92852200I-147500J0D01*
G01*
X129057500Y-92852200D01*
G75*
G02*
X128910000Y-92704700I0J147500D01*
G01*
G37*
G36*
G01*
X129880000Y-92704700D02*
X129880000Y-92359700D01*
G75*
G02*
X130027500Y-92212200I147500J0D01*
G01*
X130322500Y-92212200D01*
G75*
G02*
X130470000Y-92359700I0J-147500D01*
G01*
X130470000Y-92704700D01*
G75*
G02*
X130322500Y-92852200I-147500J0D01*
G01*
X130027500Y-92852200D01*
G75*
G02*
X129880000Y-92704700I0J147500D01*
G01*
G37*
G36*
G01*
X133667000Y-95549500D02*
X133667000Y-95204500D01*
G75*
G02*
X133814500Y-95057000I147500J0D01*
G01*
X134109500Y-95057000D01*
G75*
G02*
X134257000Y-95204500I0J-147500D01*
G01*
X134257000Y-95549500D01*
G75*
G02*
X134109500Y-95697000I-147500J0D01*
G01*
X133814500Y-95697000D01*
G75*
G02*
X133667000Y-95549500I0J147500D01*
G01*
G37*
G36*
G01*
X132697000Y-95549500D02*
X132697000Y-95204500D01*
G75*
G02*
X132844500Y-95057000I147500J0D01*
G01*
X133139500Y-95057000D01*
G75*
G02*
X133287000Y-95204500I0J-147500D01*
G01*
X133287000Y-95549500D01*
G75*
G02*
X133139500Y-95697000I-147500J0D01*
G01*
X132844500Y-95697000D01*
G75*
G02*
X132697000Y-95549500I0J147500D01*
G01*
G37*
G36*
G01*
X134277600Y-107548900D02*
X134277600Y-107893900D01*
G75*
G02*
X134130100Y-108041400I-147500J0D01*
G01*
X133835100Y-108041400D01*
G75*
G02*
X133687600Y-107893900I0J147500D01*
G01*
X133687600Y-107548900D01*
G75*
G02*
X133835100Y-107401400I147500J0D01*
G01*
X134130100Y-107401400D01*
G75*
G02*
X134277600Y-107548900I0J-147500D01*
G01*
G37*
G36*
G01*
X135247600Y-107548900D02*
X135247600Y-107893900D01*
G75*
G02*
X135100100Y-108041400I-147500J0D01*
G01*
X134805100Y-108041400D01*
G75*
G02*
X134657600Y-107893900I0J147500D01*
G01*
X134657600Y-107548900D01*
G75*
G02*
X134805100Y-107401400I147500J0D01*
G01*
X135100100Y-107401400D01*
G75*
G02*
X135247600Y-107548900I0J-147500D01*
G01*
G37*
G36*
G01*
X142067500Y-89199500D02*
X142412500Y-89199500D01*
G75*
G02*
X142560000Y-89347000I0J-147500D01*
G01*
X142560000Y-89642000D01*
G75*
G02*
X142412500Y-89789500I-147500J0D01*
G01*
X142067500Y-89789500D01*
G75*
G02*
X141920000Y-89642000I0J147500D01*
G01*
X141920000Y-89347000D01*
G75*
G02*
X142067500Y-89199500I147500J0D01*
G01*
G37*
G36*
G01*
X142067500Y-90169500D02*
X142412500Y-90169500D01*
G75*
G02*
X142560000Y-90317000I0J-147500D01*
G01*
X142560000Y-90612000D01*
G75*
G02*
X142412500Y-90759500I-147500J0D01*
G01*
X142067500Y-90759500D01*
G75*
G02*
X141920000Y-90612000I0J147500D01*
G01*
X141920000Y-90317000D01*
G75*
G02*
X142067500Y-90169500I147500J0D01*
G01*
G37*
G36*
G01*
X136486400Y-107893900D02*
X136486400Y-107548900D01*
G75*
G02*
X136633900Y-107401400I147500J0D01*
G01*
X136928900Y-107401400D01*
G75*
G02*
X137076400Y-107548900I0J-147500D01*
G01*
X137076400Y-107893900D01*
G75*
G02*
X136928900Y-108041400I-147500J0D01*
G01*
X136633900Y-108041400D01*
G75*
G02*
X136486400Y-107893900I0J147500D01*
G01*
G37*
G36*
G01*
X135516400Y-107893900D02*
X135516400Y-107548900D01*
G75*
G02*
X135663900Y-107401400I147500J0D01*
G01*
X135958900Y-107401400D01*
G75*
G02*
X136106400Y-107548900I0J-147500D01*
G01*
X136106400Y-107893900D01*
G75*
G02*
X135958900Y-108041400I-147500J0D01*
G01*
X135663900Y-108041400D01*
G75*
G02*
X135516400Y-107893900I0J147500D01*
G01*
G37*
G36*
G01*
X150077300Y-98366800D02*
X150077300Y-98711800D01*
G75*
G02*
X149929800Y-98859300I-147500J0D01*
G01*
X149634800Y-98859300D01*
G75*
G02*
X149487300Y-98711800I0J147500D01*
G01*
X149487300Y-98366800D01*
G75*
G02*
X149634800Y-98219300I147500J0D01*
G01*
X149929800Y-98219300D01*
G75*
G02*
X150077300Y-98366800I0J-147500D01*
G01*
G37*
G36*
G01*
X151047300Y-98366800D02*
X151047300Y-98711800D01*
G75*
G02*
X150899800Y-98859300I-147500J0D01*
G01*
X150604800Y-98859300D01*
G75*
G02*
X150457300Y-98711800I0J147500D01*
G01*
X150457300Y-98366800D01*
G75*
G02*
X150604800Y-98219300I147500J0D01*
G01*
X150899800Y-98219300D01*
G75*
G02*
X151047300Y-98366800I0J-147500D01*
G01*
G37*
G36*
G01*
X137797000Y-90289600D02*
X137797000Y-90634600D01*
G75*
G02*
X137649500Y-90782100I-147500J0D01*
G01*
X137354500Y-90782100D01*
G75*
G02*
X137207000Y-90634600I0J147500D01*
G01*
X137207000Y-90289600D01*
G75*
G02*
X137354500Y-90142100I147500J0D01*
G01*
X137649500Y-90142100D01*
G75*
G02*
X137797000Y-90289600I0J-147500D01*
G01*
G37*
G36*
G01*
X136827000Y-90289600D02*
X136827000Y-90634600D01*
G75*
G02*
X136679500Y-90782100I-147500J0D01*
G01*
X136384500Y-90782100D01*
G75*
G02*
X136237000Y-90634600I0J147500D01*
G01*
X136237000Y-90289600D01*
G75*
G02*
X136384500Y-90142100I147500J0D01*
G01*
X136679500Y-90142100D01*
G75*
G02*
X136827000Y-90289600I0J-147500D01*
G01*
G37*
G36*
G01*
X138922500Y-90289600D02*
X138922500Y-90634600D01*
G75*
G02*
X138775000Y-90782100I-147500J0D01*
G01*
X138480000Y-90782100D01*
G75*
G02*
X138332500Y-90634600I0J147500D01*
G01*
X138332500Y-90289600D01*
G75*
G02*
X138480000Y-90142100I147500J0D01*
G01*
X138775000Y-90142100D01*
G75*
G02*
X138922500Y-90289600I0J-147500D01*
G01*
G37*
G36*
G01*
X139892500Y-90289600D02*
X139892500Y-90634600D01*
G75*
G02*
X139745000Y-90782100I-147500J0D01*
G01*
X139450000Y-90782100D01*
G75*
G02*
X139302500Y-90634600I0J147500D01*
G01*
X139302500Y-90289600D01*
G75*
G02*
X139450000Y-90142100I147500J0D01*
G01*
X139745000Y-90142100D01*
G75*
G02*
X139892500Y-90289600I0J-147500D01*
G01*
G37*
G36*
G01*
X135811000Y-88422700D02*
X135811000Y-88767700D01*
G75*
G02*
X135663500Y-88915200I-147500J0D01*
G01*
X135368500Y-88915200D01*
G75*
G02*
X135221000Y-88767700I0J147500D01*
G01*
X135221000Y-88422700D01*
G75*
G02*
X135368500Y-88275200I147500J0D01*
G01*
X135663500Y-88275200D01*
G75*
G02*
X135811000Y-88422700I0J-147500D01*
G01*
G37*
G36*
G01*
X136781000Y-88422700D02*
X136781000Y-88767700D01*
G75*
G02*
X136633500Y-88915200I-147500J0D01*
G01*
X136338500Y-88915200D01*
G75*
G02*
X136191000Y-88767700I0J147500D01*
G01*
X136191000Y-88422700D01*
G75*
G02*
X136338500Y-88275200I147500J0D01*
G01*
X136633500Y-88275200D01*
G75*
G02*
X136781000Y-88422700I0J-147500D01*
G01*
G37*
G36*
G01*
X140252600Y-88742300D02*
X140252600Y-88397300D01*
G75*
G02*
X140400100Y-88249800I147500J0D01*
G01*
X140695100Y-88249800D01*
G75*
G02*
X140842600Y-88397300I0J-147500D01*
G01*
X140842600Y-88742300D01*
G75*
G02*
X140695100Y-88889800I-147500J0D01*
G01*
X140400100Y-88889800D01*
G75*
G02*
X140252600Y-88742300I0J147500D01*
G01*
G37*
G36*
G01*
X139282600Y-88742300D02*
X139282600Y-88397300D01*
G75*
G02*
X139430100Y-88249800I147500J0D01*
G01*
X139725100Y-88249800D01*
G75*
G02*
X139872600Y-88397300I0J-147500D01*
G01*
X139872600Y-88742300D01*
G75*
G02*
X139725100Y-88889800I-147500J0D01*
G01*
X139430100Y-88889800D01*
G75*
G02*
X139282600Y-88742300I0J147500D01*
G01*
G37*
G36*
G01*
X136630700Y-87978200D02*
X136285700Y-87978200D01*
G75*
G02*
X136138200Y-87830700I0J147500D01*
G01*
X136138200Y-87535700D01*
G75*
G02*
X136285700Y-87388200I147500J0D01*
G01*
X136630700Y-87388200D01*
G75*
G02*
X136778200Y-87535700I0J-147500D01*
G01*
X136778200Y-87830700D01*
G75*
G02*
X136630700Y-87978200I-147500J0D01*
G01*
G37*
G36*
G01*
X136630700Y-87008200D02*
X136285700Y-87008200D01*
G75*
G02*
X136138200Y-86860700I0J147500D01*
G01*
X136138200Y-86565700D01*
G75*
G02*
X136285700Y-86418200I147500J0D01*
G01*
X136630700Y-86418200D01*
G75*
G02*
X136778200Y-86565700I0J-147500D01*
G01*
X136778200Y-86860700D01*
G75*
G02*
X136630700Y-87008200I-147500J0D01*
G01*
G37*
G36*
G01*
X139780300Y-86982801D02*
X139435300Y-86982801D01*
G75*
G02*
X139287800Y-86835301I0J147500D01*
G01*
X139287800Y-86540301D01*
G75*
G02*
X139435300Y-86392801I147500J0D01*
G01*
X139780300Y-86392801D01*
G75*
G02*
X139927800Y-86540301I0J-147500D01*
G01*
X139927800Y-86835301D01*
G75*
G02*
X139780300Y-86982801I-147500J0D01*
G01*
G37*
G36*
G01*
X139780300Y-87952801D02*
X139435300Y-87952801D01*
G75*
G02*
X139287800Y-87805301I0J147500D01*
G01*
X139287800Y-87510301D01*
G75*
G02*
X139435300Y-87362801I147500J0D01*
G01*
X139780300Y-87362801D01*
G75*
G02*
X139927800Y-87510301I0J-147500D01*
G01*
X139927800Y-87805301D01*
G75*
G02*
X139780300Y-87952801I-147500J0D01*
G01*
G37*
G36*
G01*
X136311100Y-85483200D02*
X136656100Y-85483200D01*
G75*
G02*
X136803600Y-85630700I0J-147500D01*
G01*
X136803600Y-85925700D01*
G75*
G02*
X136656100Y-86073200I-147500J0D01*
G01*
X136311100Y-86073200D01*
G75*
G02*
X136163600Y-85925700I0J147500D01*
G01*
X136163600Y-85630700D01*
G75*
G02*
X136311100Y-85483200I147500J0D01*
G01*
G37*
G36*
G01*
X136311100Y-84513200D02*
X136656100Y-84513200D01*
G75*
G02*
X136803600Y-84660700I0J-147500D01*
G01*
X136803600Y-84955700D01*
G75*
G02*
X136656100Y-85103200I-147500J0D01*
G01*
X136311100Y-85103200D01*
G75*
G02*
X136163600Y-84955700I0J147500D01*
G01*
X136163600Y-84660700D01*
G75*
G02*
X136311100Y-84513200I147500J0D01*
G01*
G37*
G36*
G01*
X139409900Y-84538600D02*
X139754900Y-84538600D01*
G75*
G02*
X139902400Y-84686100I0J-147500D01*
G01*
X139902400Y-84981100D01*
G75*
G02*
X139754900Y-85128600I-147500J0D01*
G01*
X139409900Y-85128600D01*
G75*
G02*
X139262400Y-84981100I0J147500D01*
G01*
X139262400Y-84686100D01*
G75*
G02*
X139409900Y-84538600I147500J0D01*
G01*
G37*
G36*
G01*
X139409900Y-85508600D02*
X139754900Y-85508600D01*
G75*
G02*
X139902400Y-85656100I0J-147500D01*
G01*
X139902400Y-85951100D01*
G75*
G02*
X139754900Y-86098600I-147500J0D01*
G01*
X139409900Y-86098600D01*
G75*
G02*
X139262400Y-85951100I0J147500D01*
G01*
X139262400Y-85656100D01*
G75*
G02*
X139409900Y-85508600I147500J0D01*
G01*
G37*
G36*
G01*
X135665500Y-86073200D02*
X135320500Y-86073200D01*
G75*
G02*
X135173000Y-85925700I0J147500D01*
G01*
X135173000Y-85630700D01*
G75*
G02*
X135320500Y-85483200I147500J0D01*
G01*
X135665500Y-85483200D01*
G75*
G02*
X135813000Y-85630700I0J-147500D01*
G01*
X135813000Y-85925700D01*
G75*
G02*
X135665500Y-86073200I-147500J0D01*
G01*
G37*
G36*
G01*
X135665500Y-85103200D02*
X135320500Y-85103200D01*
G75*
G02*
X135173000Y-84955700I0J147500D01*
G01*
X135173000Y-84660700D01*
G75*
G02*
X135320500Y-84513200I147500J0D01*
G01*
X135665500Y-84513200D01*
G75*
G02*
X135813000Y-84660700I0J-147500D01*
G01*
X135813000Y-84955700D01*
G75*
G02*
X135665500Y-85103200I-147500J0D01*
G01*
G37*
G36*
G01*
X140694700Y-85128600D02*
X140349700Y-85128600D01*
G75*
G02*
X140202200Y-84981100I0J147500D01*
G01*
X140202200Y-84686100D01*
G75*
G02*
X140349700Y-84538600I147500J0D01*
G01*
X140694700Y-84538600D01*
G75*
G02*
X140842200Y-84686100I0J-147500D01*
G01*
X140842200Y-84981100D01*
G75*
G02*
X140694700Y-85128600I-147500J0D01*
G01*
G37*
G36*
G01*
X140694700Y-86098600D02*
X140349700Y-86098600D01*
G75*
G02*
X140202200Y-85951100I0J147500D01*
G01*
X140202200Y-85656100D01*
G75*
G02*
X140349700Y-85508600I147500J0D01*
G01*
X140694700Y-85508600D01*
G75*
G02*
X140842200Y-85656100I0J-147500D01*
G01*
X140842200Y-85951100D01*
G75*
G02*
X140694700Y-86098600I-147500J0D01*
G01*
G37*
G36*
G01*
X136681500Y-83274400D02*
X136336500Y-83274400D01*
G75*
G02*
X136189000Y-83126900I0J147500D01*
G01*
X136189000Y-82831900D01*
G75*
G02*
X136336500Y-82684400I147500J0D01*
G01*
X136681500Y-82684400D01*
G75*
G02*
X136829000Y-82831900I0J-147500D01*
G01*
X136829000Y-83126900D01*
G75*
G02*
X136681500Y-83274400I-147500J0D01*
G01*
G37*
G36*
G01*
X136681500Y-84244400D02*
X136336500Y-84244400D01*
G75*
G02*
X136189000Y-84096900I0J147500D01*
G01*
X136189000Y-83801900D01*
G75*
G02*
X136336500Y-83654400I147500J0D01*
G01*
X136681500Y-83654400D01*
G75*
G02*
X136829000Y-83801900I0J-147500D01*
G01*
X136829000Y-84096900D01*
G75*
G02*
X136681500Y-84244400I-147500J0D01*
G01*
G37*
G36*
G01*
X139754900Y-84244400D02*
X139409900Y-84244400D01*
G75*
G02*
X139262400Y-84096900I0J147500D01*
G01*
X139262400Y-83801900D01*
G75*
G02*
X139409900Y-83654400I147500J0D01*
G01*
X139754900Y-83654400D01*
G75*
G02*
X139902400Y-83801900I0J-147500D01*
G01*
X139902400Y-84096900D01*
G75*
G02*
X139754900Y-84244400I-147500J0D01*
G01*
G37*
G36*
G01*
X139754900Y-83274400D02*
X139409900Y-83274400D01*
G75*
G02*
X139262400Y-83126900I0J147500D01*
G01*
X139262400Y-82831900D01*
G75*
G02*
X139409900Y-82684400I147500J0D01*
G01*
X139754900Y-82684400D01*
G75*
G02*
X139902400Y-82831900I0J-147500D01*
G01*
X139902400Y-83126900D01*
G75*
G02*
X139754900Y-83274400I-147500J0D01*
G01*
G37*
G36*
G01*
X138154700Y-86225600D02*
X137809700Y-86225600D01*
G75*
G02*
X137662200Y-86078100I0J147500D01*
G01*
X137662200Y-85783100D01*
G75*
G02*
X137809700Y-85635600I147500J0D01*
G01*
X138154700Y-85635600D01*
G75*
G02*
X138302200Y-85783100I0J-147500D01*
G01*
X138302200Y-86078100D01*
G75*
G02*
X138154700Y-86225600I-147500J0D01*
G01*
G37*
G36*
G01*
X138154700Y-85255600D02*
X137809700Y-85255600D01*
G75*
G02*
X137662200Y-85108100I0J147500D01*
G01*
X137662200Y-84813100D01*
G75*
G02*
X137809700Y-84665600I147500J0D01*
G01*
X138154700Y-84665600D01*
G75*
G02*
X138302200Y-84813100I0J-147500D01*
G01*
X138302200Y-85108100D01*
G75*
G02*
X138154700Y-85255600I-147500J0D01*
G01*
G37*
G36*
G01*
X138361839Y-81287928D02*
X138117887Y-81531879D01*
G75*
G02*
X137909291Y-81531879I-104298J104298D01*
G01*
X137700695Y-81323283D01*
G75*
G02*
X137700695Y-81114687I104298J104298D01*
G01*
X137944647Y-80870735D01*
G75*
G02*
X138153243Y-80870735I104298J-104298D01*
G01*
X138361839Y-81079331D01*
G75*
G02*
X138361839Y-81287927I-104298J-104298D01*
G01*
G37*
G36*
G01*
X137675945Y-80602034D02*
X137431993Y-80845985D01*
G75*
G02*
X137223397Y-80845985I-104298J104298D01*
G01*
X137014801Y-80637389D01*
G75*
G02*
X137014801Y-80428793I104298J104298D01*
G01*
X137258753Y-80184841D01*
G75*
G02*
X137467349Y-80184841I104298J-104298D01*
G01*
X137675945Y-80393437D01*
G75*
G02*
X137675945Y-80602033I-104298J-104298D01*
G01*
G37*
D15*
X146955800Y-124663200D03*
X149055800Y-124663200D03*
G36*
G01*
X138481000Y-104856850D02*
X138481000Y-104344350D01*
G75*
G02*
X138699750Y-104125600I218750J0D01*
G01*
X139137250Y-104125600D01*
G75*
G02*
X139356000Y-104344350I0J-218750D01*
G01*
X139356000Y-104856850D01*
G75*
G02*
X139137250Y-105075600I-218750J0D01*
G01*
X138699750Y-105075600D01*
G75*
G02*
X138481000Y-104856850I0J218750D01*
G01*
G37*
G36*
G01*
X140056000Y-104856850D02*
X140056000Y-104344350D01*
G75*
G02*
X140274750Y-104125600I218750J0D01*
G01*
X140712250Y-104125600D01*
G75*
G02*
X140931000Y-104344350I0J-218750D01*
G01*
X140931000Y-104856850D01*
G75*
G02*
X140712250Y-105075600I-218750J0D01*
G01*
X140274750Y-105075600D01*
G75*
G02*
X140056000Y-104856850I0J218750D01*
G01*
G37*
G36*
G01*
X127680500Y-94752800D02*
X127335500Y-94752800D01*
G75*
G02*
X127188000Y-94605300I0J147500D01*
G01*
X127188000Y-94310300D01*
G75*
G02*
X127335500Y-94162800I147500J0D01*
G01*
X127680500Y-94162800D01*
G75*
G02*
X127828000Y-94310300I0J-147500D01*
G01*
X127828000Y-94605300D01*
G75*
G02*
X127680500Y-94752800I-147500J0D01*
G01*
G37*
G36*
G01*
X127680500Y-95722800D02*
X127335500Y-95722800D01*
G75*
G02*
X127188000Y-95575300I0J147500D01*
G01*
X127188000Y-95280300D01*
G75*
G02*
X127335500Y-95132800I147500J0D01*
G01*
X127680500Y-95132800D01*
G75*
G02*
X127828000Y-95280300I0J-147500D01*
G01*
X127828000Y-95575300D01*
G75*
G02*
X127680500Y-95722800I-147500J0D01*
G01*
G37*
G36*
G01*
X135729000Y-91727100D02*
X135384000Y-91727100D01*
G75*
G02*
X135236500Y-91579600I0J147500D01*
G01*
X135236500Y-91284600D01*
G75*
G02*
X135384000Y-91137100I147500J0D01*
G01*
X135729000Y-91137100D01*
G75*
G02*
X135876500Y-91284600I0J-147500D01*
G01*
X135876500Y-91579600D01*
G75*
G02*
X135729000Y-91727100I-147500J0D01*
G01*
G37*
G36*
G01*
X135729000Y-90757100D02*
X135384000Y-90757100D01*
G75*
G02*
X135236500Y-90609600I0J147500D01*
G01*
X135236500Y-90314600D01*
G75*
G02*
X135384000Y-90167100I147500J0D01*
G01*
X135729000Y-90167100D01*
G75*
G02*
X135876500Y-90314600I0J-147500D01*
G01*
X135876500Y-90609600D01*
G75*
G02*
X135729000Y-90757100I-147500J0D01*
G01*
G37*
G36*
G01*
X140745500Y-91737400D02*
X140400500Y-91737400D01*
G75*
G02*
X140253000Y-91589900I0J147500D01*
G01*
X140253000Y-91294900D01*
G75*
G02*
X140400500Y-91147400I147500J0D01*
G01*
X140745500Y-91147400D01*
G75*
G02*
X140893000Y-91294900I0J-147500D01*
G01*
X140893000Y-91589900D01*
G75*
G02*
X140745500Y-91737400I-147500J0D01*
G01*
G37*
G36*
G01*
X140745500Y-90767400D02*
X140400500Y-90767400D01*
G75*
G02*
X140253000Y-90619900I0J147500D01*
G01*
X140253000Y-90324900D01*
G75*
G02*
X140400500Y-90177400I147500J0D01*
G01*
X140745500Y-90177400D01*
G75*
G02*
X140893000Y-90324900I0J-147500D01*
G01*
X140893000Y-90619900D01*
G75*
G02*
X140745500Y-90767400I-147500J0D01*
G01*
G37*
G36*
G01*
X141968000Y-91587100D02*
X141968000Y-91242100D01*
G75*
G02*
X142115500Y-91094600I147500J0D01*
G01*
X142410500Y-91094600D01*
G75*
G02*
X142558000Y-91242100I0J-147500D01*
G01*
X142558000Y-91587100D01*
G75*
G02*
X142410500Y-91734600I-147500J0D01*
G01*
X142115500Y-91734600D01*
G75*
G02*
X141968000Y-91587100I0J147500D01*
G01*
G37*
G36*
G01*
X142938000Y-91587100D02*
X142938000Y-91242100D01*
G75*
G02*
X143085500Y-91094600I147500J0D01*
G01*
X143380500Y-91094600D01*
G75*
G02*
X143528000Y-91242100I0J-147500D01*
G01*
X143528000Y-91587100D01*
G75*
G02*
X143380500Y-91734600I-147500J0D01*
G01*
X143085500Y-91734600D01*
G75*
G02*
X142938000Y-91587100I0J147500D01*
G01*
G37*
G36*
G01*
X140255000Y-89682100D02*
X140255000Y-89337100D01*
G75*
G02*
X140402500Y-89189600I147500J0D01*
G01*
X140697500Y-89189600D01*
G75*
G02*
X140845000Y-89337100I0J-147500D01*
G01*
X140845000Y-89682100D01*
G75*
G02*
X140697500Y-89829600I-147500J0D01*
G01*
X140402500Y-89829600D01*
G75*
G02*
X140255000Y-89682100I0J147500D01*
G01*
G37*
G36*
G01*
X139285000Y-89682100D02*
X139285000Y-89337100D01*
G75*
G02*
X139432500Y-89189600I147500J0D01*
G01*
X139727500Y-89189600D01*
G75*
G02*
X139875000Y-89337100I0J-147500D01*
G01*
X139875000Y-89682100D01*
G75*
G02*
X139727500Y-89829600I-147500J0D01*
G01*
X139432500Y-89829600D01*
G75*
G02*
X139285000Y-89682100I0J147500D01*
G01*
G37*
G36*
G01*
X135811000Y-89337100D02*
X135811000Y-89682100D01*
G75*
G02*
X135663500Y-89829600I-147500J0D01*
G01*
X135368500Y-89829600D01*
G75*
G02*
X135221000Y-89682100I0J147500D01*
G01*
X135221000Y-89337100D01*
G75*
G02*
X135368500Y-89189600I147500J0D01*
G01*
X135663500Y-89189600D01*
G75*
G02*
X135811000Y-89337100I0J-147500D01*
G01*
G37*
G36*
G01*
X136781000Y-89337100D02*
X136781000Y-89682100D01*
G75*
G02*
X136633500Y-89829600I-147500J0D01*
G01*
X136338500Y-89829600D01*
G75*
G02*
X136191000Y-89682100I0J147500D01*
G01*
X136191000Y-89337100D01*
G75*
G02*
X136338500Y-89189600I147500J0D01*
G01*
X136633500Y-89189600D01*
G75*
G02*
X136781000Y-89337100I0J-147500D01*
G01*
G37*
G36*
G01*
X135665500Y-87952800D02*
X135320500Y-87952800D01*
G75*
G02*
X135173000Y-87805300I0J147500D01*
G01*
X135173000Y-87510300D01*
G75*
G02*
X135320500Y-87362800I147500J0D01*
G01*
X135665500Y-87362800D01*
G75*
G02*
X135813000Y-87510300I0J-147500D01*
G01*
X135813000Y-87805300D01*
G75*
G02*
X135665500Y-87952800I-147500J0D01*
G01*
G37*
G36*
G01*
X135665500Y-86982800D02*
X135320500Y-86982800D01*
G75*
G02*
X135173000Y-86835300I0J147500D01*
G01*
X135173000Y-86540300D01*
G75*
G02*
X135320500Y-86392800I147500J0D01*
G01*
X135665500Y-86392800D01*
G75*
G02*
X135813000Y-86540300I0J-147500D01*
G01*
X135813000Y-86835300D01*
G75*
G02*
X135665500Y-86982800I-147500J0D01*
G01*
G37*
G36*
G01*
X140694700Y-87950400D02*
X140349700Y-87950400D01*
G75*
G02*
X140202200Y-87802900I0J147500D01*
G01*
X140202200Y-87507900D01*
G75*
G02*
X140349700Y-87360400I147500J0D01*
G01*
X140694700Y-87360400D01*
G75*
G02*
X140842200Y-87507900I0J-147500D01*
G01*
X140842200Y-87802900D01*
G75*
G02*
X140694700Y-87950400I-147500J0D01*
G01*
G37*
G36*
G01*
X140694700Y-86980400D02*
X140349700Y-86980400D01*
G75*
G02*
X140202200Y-86832900I0J147500D01*
G01*
X140202200Y-86537900D01*
G75*
G02*
X140349700Y-86390400I147500J0D01*
G01*
X140694700Y-86390400D01*
G75*
G02*
X140842200Y-86537900I0J-147500D01*
G01*
X140842200Y-86832900D01*
G75*
G02*
X140694700Y-86980400I-147500J0D01*
G01*
G37*
G36*
G01*
X135665500Y-84219000D02*
X135320500Y-84219000D01*
G75*
G02*
X135173000Y-84071500I0J147500D01*
G01*
X135173000Y-83776500D01*
G75*
G02*
X135320500Y-83629000I147500J0D01*
G01*
X135665500Y-83629000D01*
G75*
G02*
X135813000Y-83776500I0J-147500D01*
G01*
X135813000Y-84071500D01*
G75*
G02*
X135665500Y-84219000I-147500J0D01*
G01*
G37*
G36*
G01*
X135665500Y-83249000D02*
X135320500Y-83249000D01*
G75*
G02*
X135173000Y-83101500I0J147500D01*
G01*
X135173000Y-82806500D01*
G75*
G02*
X135320500Y-82659000I147500J0D01*
G01*
X135665500Y-82659000D01*
G75*
G02*
X135813000Y-82806500I0J-147500D01*
G01*
X135813000Y-83101500D01*
G75*
G02*
X135665500Y-83249000I-147500J0D01*
G01*
G37*
D16*
X152740400Y-116779800D03*
X150840400Y-116779800D03*
X151790400Y-118779800D03*
D17*
X131156200Y-124216400D03*
X131156200Y-125516400D03*
X133156200Y-124866400D03*
G36*
G01*
X129351400Y-108427300D02*
X129351400Y-108082300D01*
G75*
G02*
X129498900Y-107934800I147500J0D01*
G01*
X129793900Y-107934800D01*
G75*
G02*
X129941400Y-108082300I0J-147500D01*
G01*
X129941400Y-108427300D01*
G75*
G02*
X129793900Y-108574800I-147500J0D01*
G01*
X129498900Y-108574800D01*
G75*
G02*
X129351400Y-108427300I0J147500D01*
G01*
G37*
G36*
G01*
X128381400Y-108427300D02*
X128381400Y-108082300D01*
G75*
G02*
X128528900Y-107934800I147500J0D01*
G01*
X128823900Y-107934800D01*
G75*
G02*
X128971400Y-108082300I0J-147500D01*
G01*
X128971400Y-108427300D01*
G75*
G02*
X128823900Y-108574800I-147500J0D01*
G01*
X128528900Y-108574800D01*
G75*
G02*
X128381400Y-108427300I0J147500D01*
G01*
G37*
G36*
G01*
X133558500Y-117330000D02*
X133903500Y-117330000D01*
G75*
G02*
X134051000Y-117477500I0J-147500D01*
G01*
X134051000Y-117772500D01*
G75*
G02*
X133903500Y-117920000I-147500J0D01*
G01*
X133558500Y-117920000D01*
G75*
G02*
X133411000Y-117772500I0J147500D01*
G01*
X133411000Y-117477500D01*
G75*
G02*
X133558500Y-117330000I147500J0D01*
G01*
G37*
G36*
G01*
X133558500Y-118300000D02*
X133903500Y-118300000D01*
G75*
G02*
X134051000Y-118447500I0J-147500D01*
G01*
X134051000Y-118742500D01*
G75*
G02*
X133903500Y-118890000I-147500J0D01*
G01*
X133558500Y-118890000D01*
G75*
G02*
X133411000Y-118742500I0J147500D01*
G01*
X133411000Y-118447500D01*
G75*
G02*
X133558500Y-118300000I147500J0D01*
G01*
G37*
G36*
G01*
X127949600Y-103677500D02*
X127949600Y-103332500D01*
G75*
G02*
X128097100Y-103185000I147500J0D01*
G01*
X128392100Y-103185000D01*
G75*
G02*
X128539600Y-103332500I0J-147500D01*
G01*
X128539600Y-103677500D01*
G75*
G02*
X128392100Y-103825000I-147500J0D01*
G01*
X128097100Y-103825000D01*
G75*
G02*
X127949600Y-103677500I0J147500D01*
G01*
G37*
G36*
G01*
X126979600Y-103677500D02*
X126979600Y-103332500D01*
G75*
G02*
X127127100Y-103185000I147500J0D01*
G01*
X127422100Y-103185000D01*
G75*
G02*
X127569600Y-103332500I0J-147500D01*
G01*
X127569600Y-103677500D01*
G75*
G02*
X127422100Y-103825000I-147500J0D01*
G01*
X127127100Y-103825000D01*
G75*
G02*
X126979600Y-103677500I0J147500D01*
G01*
G37*
G36*
G01*
X147768020Y-95684120D02*
X148113020Y-95684120D01*
G75*
G02*
X148260520Y-95831620I0J-147500D01*
G01*
X148260520Y-96126620D01*
G75*
G02*
X148113020Y-96274120I-147500J0D01*
G01*
X147768020Y-96274120D01*
G75*
G02*
X147620520Y-96126620I0J147500D01*
G01*
X147620520Y-95831620D01*
G75*
G02*
X147768020Y-95684120I147500J0D01*
G01*
G37*
G36*
G01*
X147768020Y-96654120D02*
X148113020Y-96654120D01*
G75*
G02*
X148260520Y-96801620I0J-147500D01*
G01*
X148260520Y-97096620D01*
G75*
G02*
X148113020Y-97244120I-147500J0D01*
G01*
X147768020Y-97244120D01*
G75*
G02*
X147620520Y-97096620I0J147500D01*
G01*
X147620520Y-96801620D01*
G75*
G02*
X147768020Y-96654120I147500J0D01*
G01*
G37*
G36*
G01*
X152512740Y-95206320D02*
X152857740Y-95206320D01*
G75*
G02*
X153005240Y-95353820I0J-147500D01*
G01*
X153005240Y-95648820D01*
G75*
G02*
X152857740Y-95796320I-147500J0D01*
G01*
X152512740Y-95796320D01*
G75*
G02*
X152365240Y-95648820I0J147500D01*
G01*
X152365240Y-95353820D01*
G75*
G02*
X152512740Y-95206320I147500J0D01*
G01*
G37*
G36*
G01*
X152512740Y-94236320D02*
X152857740Y-94236320D01*
G75*
G02*
X153005240Y-94383820I0J-147500D01*
G01*
X153005240Y-94678820D01*
G75*
G02*
X152857740Y-94826320I-147500J0D01*
G01*
X152512740Y-94826320D01*
G75*
G02*
X152365240Y-94678820I0J147500D01*
G01*
X152365240Y-94383820D01*
G75*
G02*
X152512740Y-94236320I147500J0D01*
G01*
G37*
G36*
G01*
X135245900Y-114237800D02*
X134900900Y-114237800D01*
G75*
G02*
X134753400Y-114090300I0J147500D01*
G01*
X134753400Y-113795300D01*
G75*
G02*
X134900900Y-113647800I147500J0D01*
G01*
X135245900Y-113647800D01*
G75*
G02*
X135393400Y-113795300I0J-147500D01*
G01*
X135393400Y-114090300D01*
G75*
G02*
X135245900Y-114237800I-147500J0D01*
G01*
G37*
G36*
G01*
X135245900Y-113267800D02*
X134900900Y-113267800D01*
G75*
G02*
X134753400Y-113120300I0J147500D01*
G01*
X134753400Y-112825300D01*
G75*
G02*
X134900900Y-112677800I147500J0D01*
G01*
X135245900Y-112677800D01*
G75*
G02*
X135393400Y-112825300I0J-147500D01*
G01*
X135393400Y-113120300D01*
G75*
G02*
X135245900Y-113267800I-147500J0D01*
G01*
G37*
G36*
G01*
X148041900Y-109263400D02*
X147696900Y-109263400D01*
G75*
G02*
X147549400Y-109115900I0J147500D01*
G01*
X147549400Y-108820900D01*
G75*
G02*
X147696900Y-108673400I147500J0D01*
G01*
X148041900Y-108673400D01*
G75*
G02*
X148189400Y-108820900I0J-147500D01*
G01*
X148189400Y-109115900D01*
G75*
G02*
X148041900Y-109263400I-147500J0D01*
G01*
G37*
G36*
G01*
X148041900Y-108293400D02*
X147696900Y-108293400D01*
G75*
G02*
X147549400Y-108145900I0J147500D01*
G01*
X147549400Y-107850900D01*
G75*
G02*
X147696900Y-107703400I147500J0D01*
G01*
X148041900Y-107703400D01*
G75*
G02*
X148189400Y-107850900I0J-147500D01*
G01*
X148189400Y-108145900D01*
G75*
G02*
X148041900Y-108293400I-147500J0D01*
G01*
G37*
G36*
G01*
X152611800Y-105770600D02*
X152956800Y-105770600D01*
G75*
G02*
X153104300Y-105918100I0J-147500D01*
G01*
X153104300Y-106213100D01*
G75*
G02*
X152956800Y-106360600I-147500J0D01*
G01*
X152611800Y-106360600D01*
G75*
G02*
X152464300Y-106213100I0J147500D01*
G01*
X152464300Y-105918100D01*
G75*
G02*
X152611800Y-105770600I147500J0D01*
G01*
G37*
G36*
G01*
X152611800Y-106740600D02*
X152956800Y-106740600D01*
G75*
G02*
X153104300Y-106888100I0J-147500D01*
G01*
X153104300Y-107183100D01*
G75*
G02*
X152956800Y-107330600I-147500J0D01*
G01*
X152611800Y-107330600D01*
G75*
G02*
X152464300Y-107183100I0J147500D01*
G01*
X152464300Y-106888100D01*
G75*
G02*
X152611800Y-106740600I147500J0D01*
G01*
G37*
G36*
G01*
X151509000Y-93365100D02*
X151509000Y-93020100D01*
G75*
G02*
X151656500Y-92872600I147500J0D01*
G01*
X151951500Y-92872600D01*
G75*
G02*
X152099000Y-93020100I0J-147500D01*
G01*
X152099000Y-93365100D01*
G75*
G02*
X151951500Y-93512600I-147500J0D01*
G01*
X151656500Y-93512600D01*
G75*
G02*
X151509000Y-93365100I0J147500D01*
G01*
G37*
G36*
G01*
X152479000Y-93365100D02*
X152479000Y-93020100D01*
G75*
G02*
X152626500Y-92872600I147500J0D01*
G01*
X152921500Y-92872600D01*
G75*
G02*
X153069000Y-93020100I0J-147500D01*
G01*
X153069000Y-93365100D01*
G75*
G02*
X152921500Y-93512600I-147500J0D01*
G01*
X152626500Y-93512600D01*
G75*
G02*
X152479000Y-93365100I0J147500D01*
G01*
G37*
G36*
G01*
X147655500Y-90987800D02*
X148000500Y-90987800D01*
G75*
G02*
X148148000Y-91135300I0J-147500D01*
G01*
X148148000Y-91430300D01*
G75*
G02*
X148000500Y-91577800I-147500J0D01*
G01*
X147655500Y-91577800D01*
G75*
G02*
X147508000Y-91430300I0J147500D01*
G01*
X147508000Y-91135300D01*
G75*
G02*
X147655500Y-90987800I147500J0D01*
G01*
G37*
G36*
G01*
X147655500Y-91957800D02*
X148000500Y-91957800D01*
G75*
G02*
X148148000Y-92105300I0J-147500D01*
G01*
X148148000Y-92400300D01*
G75*
G02*
X148000500Y-92547800I-147500J0D01*
G01*
X147655500Y-92547800D01*
G75*
G02*
X147508000Y-92400300I0J147500D01*
G01*
X147508000Y-92105300D01*
G75*
G02*
X147655500Y-91957800I147500J0D01*
G01*
G37*
G36*
G01*
X150829000Y-89464100D02*
X150829000Y-89809100D01*
G75*
G02*
X150681500Y-89956600I-147500J0D01*
G01*
X150386500Y-89956600D01*
G75*
G02*
X150239000Y-89809100I0J147500D01*
G01*
X150239000Y-89464100D01*
G75*
G02*
X150386500Y-89316600I147500J0D01*
G01*
X150681500Y-89316600D01*
G75*
G02*
X150829000Y-89464100I0J-147500D01*
G01*
G37*
G36*
G01*
X151799000Y-89464100D02*
X151799000Y-89809100D01*
G75*
G02*
X151651500Y-89956600I-147500J0D01*
G01*
X151356500Y-89956600D01*
G75*
G02*
X151209000Y-89809100I0J147500D01*
G01*
X151209000Y-89464100D01*
G75*
G02*
X151356500Y-89316600I147500J0D01*
G01*
X151651500Y-89316600D01*
G75*
G02*
X151799000Y-89464100I0J-147500D01*
G01*
G37*
G36*
G01*
X124035600Y-105080300D02*
X123690600Y-105080300D01*
G75*
G02*
X123543100Y-104932800I0J147500D01*
G01*
X123543100Y-104637800D01*
G75*
G02*
X123690600Y-104490300I147500J0D01*
G01*
X124035600Y-104490300D01*
G75*
G02*
X124183100Y-104637800I0J-147500D01*
G01*
X124183100Y-104932800D01*
G75*
G02*
X124035600Y-105080300I-147500J0D01*
G01*
G37*
G36*
G01*
X124035600Y-106050300D02*
X123690600Y-106050300D01*
G75*
G02*
X123543100Y-105902800I0J147500D01*
G01*
X123543100Y-105607800D01*
G75*
G02*
X123690600Y-105460300I147500J0D01*
G01*
X124035600Y-105460300D01*
G75*
G02*
X124183100Y-105607800I0J-147500D01*
G01*
X124183100Y-105902800D01*
G75*
G02*
X124035600Y-106050300I-147500J0D01*
G01*
G37*
G36*
G01*
X124633482Y-104493382D02*
X124978482Y-104493382D01*
G75*
G02*
X125125982Y-104640882I0J-147500D01*
G01*
X125125982Y-104935882D01*
G75*
G02*
X124978482Y-105083382I-147500J0D01*
G01*
X124633482Y-105083382D01*
G75*
G02*
X124485982Y-104935882I0J147500D01*
G01*
X124485982Y-104640882D01*
G75*
G02*
X124633482Y-104493382I147500J0D01*
G01*
G37*
G36*
G01*
X124633482Y-105463382D02*
X124978482Y-105463382D01*
G75*
G02*
X125125982Y-105610882I0J-147500D01*
G01*
X125125982Y-105905882D01*
G75*
G02*
X124978482Y-106053382I-147500J0D01*
G01*
X124633482Y-106053382D01*
G75*
G02*
X124485982Y-105905882I0J147500D01*
G01*
X124485982Y-105610882D01*
G75*
G02*
X124633482Y-105463382I147500J0D01*
G01*
G37*
G36*
G01*
X154091420Y-108748060D02*
X153746420Y-108748060D01*
G75*
G02*
X153598920Y-108600560I0J147500D01*
G01*
X153598920Y-108305560D01*
G75*
G02*
X153746420Y-108158060I147500J0D01*
G01*
X154091420Y-108158060D01*
G75*
G02*
X154238920Y-108305560I0J-147500D01*
G01*
X154238920Y-108600560D01*
G75*
G02*
X154091420Y-108748060I-147500J0D01*
G01*
G37*
G36*
G01*
X154091420Y-109718060D02*
X153746420Y-109718060D01*
G75*
G02*
X153598920Y-109570560I0J147500D01*
G01*
X153598920Y-109275560D01*
G75*
G02*
X153746420Y-109128060I147500J0D01*
G01*
X154091420Y-109128060D01*
G75*
G02*
X154238920Y-109275560I0J-147500D01*
G01*
X154238920Y-109570560D01*
G75*
G02*
X154091420Y-109718060I-147500J0D01*
G01*
G37*
G36*
G01*
X154711619Y-108158060D02*
X155056619Y-108158060D01*
G75*
G02*
X155204119Y-108305560I0J-147500D01*
G01*
X155204119Y-108600560D01*
G75*
G02*
X155056619Y-108748060I-147500J0D01*
G01*
X154711619Y-108748060D01*
G75*
G02*
X154564119Y-108600560I0J147500D01*
G01*
X154564119Y-108305560D01*
G75*
G02*
X154711619Y-108158060I147500J0D01*
G01*
G37*
G36*
G01*
X154711619Y-109128060D02*
X155056619Y-109128060D01*
G75*
G02*
X155204119Y-109275560I0J-147500D01*
G01*
X155204119Y-109570560D01*
G75*
G02*
X155056619Y-109718060I-147500J0D01*
G01*
X154711619Y-109718060D01*
G75*
G02*
X154564119Y-109570560I0J147500D01*
G01*
X154564119Y-109275560D01*
G75*
G02*
X154711619Y-109128060I147500J0D01*
G01*
G37*
G36*
G01*
X130144300Y-125646400D02*
X129799300Y-125646400D01*
G75*
G02*
X129651800Y-125498900I0J147500D01*
G01*
X129651800Y-125203900D01*
G75*
G02*
X129799300Y-125056400I147500J0D01*
G01*
X130144300Y-125056400D01*
G75*
G02*
X130291800Y-125203900I0J-147500D01*
G01*
X130291800Y-125498900D01*
G75*
G02*
X130144300Y-125646400I-147500J0D01*
G01*
G37*
G36*
G01*
X130144300Y-124676400D02*
X129799300Y-124676400D01*
G75*
G02*
X129651800Y-124528900I0J147500D01*
G01*
X129651800Y-124233900D01*
G75*
G02*
X129799300Y-124086400I147500J0D01*
G01*
X130144300Y-124086400D01*
G75*
G02*
X130291800Y-124233900I0J-147500D01*
G01*
X130291800Y-124528900D01*
G75*
G02*
X130144300Y-124676400I-147500J0D01*
G01*
G37*
G36*
G01*
X137421400Y-109969800D02*
X137076400Y-109969800D01*
G75*
G02*
X136928900Y-109822300I0J147500D01*
G01*
X136928900Y-109527300D01*
G75*
G02*
X137076400Y-109379800I147500J0D01*
G01*
X137421400Y-109379800D01*
G75*
G02*
X137568900Y-109527300I0J-147500D01*
G01*
X137568900Y-109822300D01*
G75*
G02*
X137421400Y-109969800I-147500J0D01*
G01*
G37*
G36*
G01*
X137421400Y-110939800D02*
X137076400Y-110939800D01*
G75*
G02*
X136928900Y-110792300I0J147500D01*
G01*
X136928900Y-110497300D01*
G75*
G02*
X137076400Y-110349800I147500J0D01*
G01*
X137421400Y-110349800D01*
G75*
G02*
X137568900Y-110497300I0J-147500D01*
G01*
X137568900Y-110792300D01*
G75*
G02*
X137421400Y-110939800I-147500J0D01*
G01*
G37*
G36*
G01*
X142247400Y-109865800D02*
X141902400Y-109865800D01*
G75*
G02*
X141754900Y-109718300I0J147500D01*
G01*
X141754900Y-109423300D01*
G75*
G02*
X141902400Y-109275800I147500J0D01*
G01*
X142247400Y-109275800D01*
G75*
G02*
X142394900Y-109423300I0J-147500D01*
G01*
X142394900Y-109718300D01*
G75*
G02*
X142247400Y-109865800I-147500J0D01*
G01*
G37*
G36*
G01*
X142247400Y-110835800D02*
X141902400Y-110835800D01*
G75*
G02*
X141754900Y-110688300I0J147500D01*
G01*
X141754900Y-110393300D01*
G75*
G02*
X141902400Y-110245800I147500J0D01*
G01*
X142247400Y-110245800D01*
G75*
G02*
X142394900Y-110393300I0J-147500D01*
G01*
X142394900Y-110688300D01*
G75*
G02*
X142247400Y-110835800I-147500J0D01*
G01*
G37*
D18*
X128244600Y-104792600D03*
X127294600Y-104792600D03*
X129194600Y-104792600D03*
X129194600Y-106992600D03*
X128244600Y-106992600D03*
X127294600Y-106992600D03*
D19*
X149220500Y-94503200D03*
X149220500Y-95453200D03*
X149220500Y-96403200D03*
X151420500Y-96403200D03*
X151420500Y-94503200D03*
X151420500Y-95453200D03*
G36*
G01*
X144655250Y-118954000D02*
X144142750Y-118954000D01*
G75*
G02*
X143924000Y-118735250I0J218750D01*
G01*
X143924000Y-118297750D01*
G75*
G02*
X144142750Y-118079000I218750J0D01*
G01*
X144655250Y-118079000D01*
G75*
G02*
X144874000Y-118297750I0J-218750D01*
G01*
X144874000Y-118735250D01*
G75*
G02*
X144655250Y-118954000I-218750J0D01*
G01*
G37*
G36*
G01*
X144655250Y-117379000D02*
X144142750Y-117379000D01*
G75*
G02*
X143924000Y-117160250I0J218750D01*
G01*
X143924000Y-116722750D01*
G75*
G02*
X144142750Y-116504000I218750J0D01*
G01*
X144655250Y-116504000D01*
G75*
G02*
X144874000Y-116722750I0J-218750D01*
G01*
X144874000Y-117160250D01*
G75*
G02*
X144655250Y-117379000I-218750J0D01*
G01*
G37*
G36*
G01*
X127494800Y-108427300D02*
X127494800Y-108082300D01*
G75*
G02*
X127642300Y-107934800I147500J0D01*
G01*
X127937300Y-107934800D01*
G75*
G02*
X128084800Y-108082300I0J-147500D01*
G01*
X128084800Y-108427300D01*
G75*
G02*
X127937300Y-108574800I-147500J0D01*
G01*
X127642300Y-108574800D01*
G75*
G02*
X127494800Y-108427300I0J147500D01*
G01*
G37*
G36*
G01*
X126524800Y-108427300D02*
X126524800Y-108082300D01*
G75*
G02*
X126672300Y-107934800I147500J0D01*
G01*
X126967300Y-107934800D01*
G75*
G02*
X127114800Y-108082300I0J-147500D01*
G01*
X127114800Y-108427300D01*
G75*
G02*
X126967300Y-108574800I-147500J0D01*
G01*
X126672300Y-108574800D01*
G75*
G02*
X126524800Y-108427300I0J147500D01*
G01*
G37*
G36*
G01*
X142618750Y-118079000D02*
X143131250Y-118079000D01*
G75*
G02*
X143350000Y-118297750I0J-218750D01*
G01*
X143350000Y-118735250D01*
G75*
G02*
X143131250Y-118954000I-218750J0D01*
G01*
X142618750Y-118954000D01*
G75*
G02*
X142400000Y-118735250I0J218750D01*
G01*
X142400000Y-118297750D01*
G75*
G02*
X142618750Y-118079000I218750J0D01*
G01*
G37*
G36*
G01*
X142618750Y-116504000D02*
X143131250Y-116504000D01*
G75*
G02*
X143350000Y-116722750I0J-218750D01*
G01*
X143350000Y-117160250D01*
G75*
G02*
X143131250Y-117379000I-218750J0D01*
G01*
X142618750Y-117379000D01*
G75*
G02*
X142400000Y-117160250I0J218750D01*
G01*
X142400000Y-116722750D01*
G75*
G02*
X142618750Y-116504000I218750J0D01*
G01*
G37*
G36*
G01*
X145496500Y-117477800D02*
X145841500Y-117477800D01*
G75*
G02*
X145989000Y-117625300I0J-147500D01*
G01*
X145989000Y-117920300D01*
G75*
G02*
X145841500Y-118067800I-147500J0D01*
G01*
X145496500Y-118067800D01*
G75*
G02*
X145349000Y-117920300I0J147500D01*
G01*
X145349000Y-117625300D01*
G75*
G02*
X145496500Y-117477800I147500J0D01*
G01*
G37*
G36*
G01*
X145496500Y-118447800D02*
X145841500Y-118447800D01*
G75*
G02*
X145989000Y-118595300I0J-147500D01*
G01*
X145989000Y-118890300D01*
G75*
G02*
X145841500Y-119037800I-147500J0D01*
G01*
X145496500Y-119037800D01*
G75*
G02*
X145349000Y-118890300I0J147500D01*
G01*
X145349000Y-118595300D01*
G75*
G02*
X145496500Y-118447800I147500J0D01*
G01*
G37*
G36*
G01*
X135257250Y-117379000D02*
X134744750Y-117379000D01*
G75*
G02*
X134526000Y-117160250I0J218750D01*
G01*
X134526000Y-116722750D01*
G75*
G02*
X134744750Y-116504000I218750J0D01*
G01*
X135257250Y-116504000D01*
G75*
G02*
X135476000Y-116722750I0J-218750D01*
G01*
X135476000Y-117160250D01*
G75*
G02*
X135257250Y-117379000I-218750J0D01*
G01*
G37*
G36*
G01*
X135257250Y-118954000D02*
X134744750Y-118954000D01*
G75*
G02*
X134526000Y-118735250I0J218750D01*
G01*
X134526000Y-118297750D01*
G75*
G02*
X134744750Y-118079000I218750J0D01*
G01*
X135257250Y-118079000D01*
G75*
G02*
X135476000Y-118297750I0J-218750D01*
G01*
X135476000Y-118735250D01*
G75*
G02*
X135257250Y-118954000I-218750J0D01*
G01*
G37*
G36*
G01*
X136781250Y-118954000D02*
X136268750Y-118954000D01*
G75*
G02*
X136050000Y-118735250I0J218750D01*
G01*
X136050000Y-118297750D01*
G75*
G02*
X136268750Y-118079000I218750J0D01*
G01*
X136781250Y-118079000D01*
G75*
G02*
X137000000Y-118297750I0J-218750D01*
G01*
X137000000Y-118735250D01*
G75*
G02*
X136781250Y-118954000I-218750J0D01*
G01*
G37*
G36*
G01*
X136781250Y-117379000D02*
X136268750Y-117379000D01*
G75*
G02*
X136050000Y-117160250I0J218750D01*
G01*
X136050000Y-116722750D01*
G75*
G02*
X136268750Y-116504000I218750J0D01*
G01*
X136781250Y-116504000D01*
G75*
G02*
X137000000Y-116722750I0J-218750D01*
G01*
X137000000Y-117160250D01*
G75*
G02*
X136781250Y-117379000I-218750J0D01*
G01*
G37*
G36*
G01*
X147696900Y-106778700D02*
X148041900Y-106778700D01*
G75*
G02*
X148189400Y-106926200I0J-147500D01*
G01*
X148189400Y-107221200D01*
G75*
G02*
X148041900Y-107368700I-147500J0D01*
G01*
X147696900Y-107368700D01*
G75*
G02*
X147549400Y-107221200I0J147500D01*
G01*
X147549400Y-106926200D01*
G75*
G02*
X147696900Y-106778700I147500J0D01*
G01*
G37*
G36*
G01*
X147696900Y-105808700D02*
X148041900Y-105808700D01*
G75*
G02*
X148189400Y-105956200I0J-147500D01*
G01*
X148189400Y-106251200D01*
G75*
G02*
X148041900Y-106398700I-147500J0D01*
G01*
X147696900Y-106398700D01*
G75*
G02*
X147549400Y-106251200I0J147500D01*
G01*
X147549400Y-105956200D01*
G75*
G02*
X147696900Y-105808700I147500J0D01*
G01*
G37*
G36*
G01*
X129545800Y-101445350D02*
X129545800Y-101957850D01*
G75*
G02*
X129327050Y-102176600I-218750J0D01*
G01*
X128889550Y-102176600D01*
G75*
G02*
X128670800Y-101957850I0J218750D01*
G01*
X128670800Y-101445350D01*
G75*
G02*
X128889550Y-101226600I218750J0D01*
G01*
X129327050Y-101226600D01*
G75*
G02*
X129545800Y-101445350I0J-218750D01*
G01*
G37*
G36*
G01*
X127970800Y-101445350D02*
X127970800Y-101957850D01*
G75*
G02*
X127752050Y-102176600I-218750J0D01*
G01*
X127314550Y-102176600D01*
G75*
G02*
X127095800Y-101957850I0J218750D01*
G01*
X127095800Y-101445350D01*
G75*
G02*
X127314550Y-101226600I218750J0D01*
G01*
X127752050Y-101226600D01*
G75*
G02*
X127970800Y-101445350I0J-218750D01*
G01*
G37*
G36*
G01*
X136010000Y-77232500D02*
X136010000Y-76887500D01*
G75*
G02*
X136157500Y-76740000I147500J0D01*
G01*
X136452500Y-76740000D01*
G75*
G02*
X136600000Y-76887500I0J-147500D01*
G01*
X136600000Y-77232500D01*
G75*
G02*
X136452500Y-77380000I-147500J0D01*
G01*
X136157500Y-77380000D01*
G75*
G02*
X136010000Y-77232500I0J147500D01*
G01*
G37*
G36*
G01*
X136980000Y-77232500D02*
X136980000Y-76887500D01*
G75*
G02*
X137127500Y-76740000I147500J0D01*
G01*
X137422500Y-76740000D01*
G75*
G02*
X137570000Y-76887500I0J-147500D01*
G01*
X137570000Y-77232500D01*
G75*
G02*
X137422500Y-77380000I-147500J0D01*
G01*
X137127500Y-77380000D01*
G75*
G02*
X136980000Y-77232500I0J147500D01*
G01*
G37*
G36*
G01*
X143628400Y-79024700D02*
X143283400Y-79024700D01*
G75*
G02*
X143135900Y-78877200I0J147500D01*
G01*
X143135900Y-78582200D01*
G75*
G02*
X143283400Y-78434700I147500J0D01*
G01*
X143628400Y-78434700D01*
G75*
G02*
X143775900Y-78582200I0J-147500D01*
G01*
X143775900Y-78877200D01*
G75*
G02*
X143628400Y-79024700I-147500J0D01*
G01*
G37*
G36*
G01*
X143628400Y-78054700D02*
X143283400Y-78054700D01*
G75*
G02*
X143135900Y-77907200I0J147500D01*
G01*
X143135900Y-77612200D01*
G75*
G02*
X143283400Y-77464700I147500J0D01*
G01*
X143628400Y-77464700D01*
G75*
G02*
X143775900Y-77612200I0J-147500D01*
G01*
X143775900Y-77907200D01*
G75*
G02*
X143628400Y-78054700I-147500J0D01*
G01*
G37*
G36*
G01*
X140694700Y-83276800D02*
X140349700Y-83276800D01*
G75*
G02*
X140202200Y-83129300I0J147500D01*
G01*
X140202200Y-82834300D01*
G75*
G02*
X140349700Y-82686800I147500J0D01*
G01*
X140694700Y-82686800D01*
G75*
G02*
X140842200Y-82834300I0J-147500D01*
G01*
X140842200Y-83129300D01*
G75*
G02*
X140694700Y-83276800I-147500J0D01*
G01*
G37*
G36*
G01*
X140694700Y-84246800D02*
X140349700Y-84246800D01*
G75*
G02*
X140202200Y-84099300I0J147500D01*
G01*
X140202200Y-83804300D01*
G75*
G02*
X140349700Y-83656800I147500J0D01*
G01*
X140694700Y-83656800D01*
G75*
G02*
X140842200Y-83804300I0J-147500D01*
G01*
X140842200Y-84099300D01*
G75*
G02*
X140694700Y-84246800I-147500J0D01*
G01*
G37*
G36*
G01*
X146946400Y-84322700D02*
X146946400Y-83977700D01*
G75*
G02*
X147093900Y-83830200I147500J0D01*
G01*
X147388900Y-83830200D01*
G75*
G02*
X147536400Y-83977700I0J-147500D01*
G01*
X147536400Y-84322700D01*
G75*
G02*
X147388900Y-84470200I-147500J0D01*
G01*
X147093900Y-84470200D01*
G75*
G02*
X146946400Y-84322700I0J147500D01*
G01*
G37*
G36*
G01*
X147916400Y-84322700D02*
X147916400Y-83977700D01*
G75*
G02*
X148063900Y-83830200I147500J0D01*
G01*
X148358900Y-83830200D01*
G75*
G02*
X148506400Y-83977700I0J-147500D01*
G01*
X148506400Y-84322700D01*
G75*
G02*
X148358900Y-84470200I-147500J0D01*
G01*
X148063900Y-84470200D01*
G75*
G02*
X147916400Y-84322700I0J147500D01*
G01*
G37*
G36*
G01*
X133259200Y-84460300D02*
X133259200Y-84805300D01*
G75*
G02*
X133111700Y-84952800I-147500J0D01*
G01*
X132816700Y-84952800D01*
G75*
G02*
X132669200Y-84805300I0J147500D01*
G01*
X132669200Y-84460300D01*
G75*
G02*
X132816700Y-84312800I147500J0D01*
G01*
X133111700Y-84312800D01*
G75*
G02*
X133259200Y-84460300I0J-147500D01*
G01*
G37*
G36*
G01*
X134229200Y-84460300D02*
X134229200Y-84805300D01*
G75*
G02*
X134081700Y-84952800I-147500J0D01*
G01*
X133786700Y-84952800D01*
G75*
G02*
X133639200Y-84805300I0J147500D01*
G01*
X133639200Y-84460300D01*
G75*
G02*
X133786700Y-84312800I147500J0D01*
G01*
X134081700Y-84312800D01*
G75*
G02*
X134229200Y-84460300I0J-147500D01*
G01*
G37*
G36*
G01*
X132681900Y-82913000D02*
X132681900Y-82568000D01*
G75*
G02*
X132829400Y-82420500I147500J0D01*
G01*
X133124400Y-82420500D01*
G75*
G02*
X133271900Y-82568000I0J-147500D01*
G01*
X133271900Y-82913000D01*
G75*
G02*
X133124400Y-83060500I-147500J0D01*
G01*
X132829400Y-83060500D01*
G75*
G02*
X132681900Y-82913000I0J147500D01*
G01*
G37*
G36*
G01*
X133651900Y-82913000D02*
X133651900Y-82568000D01*
G75*
G02*
X133799400Y-82420500I147500J0D01*
G01*
X134094400Y-82420500D01*
G75*
G02*
X134241900Y-82568000I0J-147500D01*
G01*
X134241900Y-82913000D01*
G75*
G02*
X134094400Y-83060500I-147500J0D01*
G01*
X133799400Y-83060500D01*
G75*
G02*
X133651900Y-82913000I0J147500D01*
G01*
G37*
G36*
G01*
X140354727Y-78714322D02*
X140598678Y-78958274D01*
G75*
G02*
X140598678Y-79166870I-104298J-104298D01*
G01*
X140390082Y-79375466D01*
G75*
G02*
X140181486Y-79375466I-104298J104298D01*
G01*
X139937534Y-79131514D01*
G75*
G02*
X139937534Y-78922918I104298J104298D01*
G01*
X140146130Y-78714322D01*
G75*
G02*
X140354726Y-78714322I104298J-104298D01*
G01*
G37*
G36*
G01*
X141040621Y-78028428D02*
X141284572Y-78272380D01*
G75*
G02*
X141284572Y-78480976I-104298J-104298D01*
G01*
X141075976Y-78689572D01*
G75*
G02*
X140867380Y-78689572I-104298J104298D01*
G01*
X140623428Y-78445620D01*
G75*
G02*
X140623428Y-78237024I104298J104298D01*
G01*
X140832024Y-78028428D01*
G75*
G02*
X141040620Y-78028428I104298J-104298D01*
G01*
G37*
X149220500Y-106047500D03*
X149220500Y-106997500D03*
X149220500Y-107947500D03*
X151420500Y-107947500D03*
X151420500Y-106047500D03*
X151420500Y-106997500D03*
G36*
G01*
X138000000Y-114718200D02*
X138000000Y-113018200D01*
G75*
G02*
X138250000Y-112768200I250000J0D01*
G01*
X139000000Y-112768200D01*
G75*
G02*
X139250000Y-113018200I0J-250000D01*
G01*
X139250000Y-114718200D01*
G75*
G02*
X139000000Y-114968200I-250000J0D01*
G01*
X138250000Y-114968200D01*
G75*
G02*
X138000000Y-114718200I0J250000D01*
G01*
G37*
G36*
G01*
X140150000Y-114718200D02*
X140150000Y-113018200D01*
G75*
G02*
X140400000Y-112768200I250000J0D01*
G01*
X141150000Y-112768200D01*
G75*
G02*
X141400000Y-113018200I0J-250000D01*
G01*
X141400000Y-114718200D01*
G75*
G02*
X141150000Y-114968200I-250000J0D01*
G01*
X140400000Y-114968200D01*
G75*
G02*
X140150000Y-114718200I0J250000D01*
G01*
G37*
G36*
G01*
X144554800Y-102669250D02*
X144554800Y-101756750D01*
G75*
G02*
X144798550Y-101513000I243750J0D01*
G01*
X145286050Y-101513000D01*
G75*
G02*
X145529800Y-101756750I0J-243750D01*
G01*
X145529800Y-102669250D01*
G75*
G02*
X145286050Y-102913000I-243750J0D01*
G01*
X144798550Y-102913000D01*
G75*
G02*
X144554800Y-102669250I0J243750D01*
G01*
G37*
G36*
G01*
X146429800Y-102669250D02*
X146429800Y-101756750D01*
G75*
G02*
X146673550Y-101513000I243750J0D01*
G01*
X147161050Y-101513000D01*
G75*
G02*
X147404800Y-101756750I0J-243750D01*
G01*
X147404800Y-102669250D01*
G75*
G02*
X147161050Y-102913000I-243750J0D01*
G01*
X146673550Y-102913000D01*
G75*
G02*
X146429800Y-102669250I0J243750D01*
G01*
G37*
G36*
G01*
X131997800Y-96259900D02*
X131997800Y-96604900D01*
G75*
G02*
X131850300Y-96752400I-147500J0D01*
G01*
X131555300Y-96752400D01*
G75*
G02*
X131407800Y-96604900I0J147500D01*
G01*
X131407800Y-96259900D01*
G75*
G02*
X131555300Y-96112400I147500J0D01*
G01*
X131850300Y-96112400D01*
G75*
G02*
X131997800Y-96259900I0J-147500D01*
G01*
G37*
G36*
G01*
X131027800Y-96259900D02*
X131027800Y-96604900D01*
G75*
G02*
X130880300Y-96752400I-147500J0D01*
G01*
X130585300Y-96752400D01*
G75*
G02*
X130437800Y-96604900I0J147500D01*
G01*
X130437800Y-96259900D01*
G75*
G02*
X130585300Y-96112400I147500J0D01*
G01*
X130880300Y-96112400D01*
G75*
G02*
X131027800Y-96259900I0J-147500D01*
G01*
G37*
G36*
G01*
X131382000Y-95204500D02*
X131382000Y-95549500D01*
G75*
G02*
X131234500Y-95697000I-147500J0D01*
G01*
X130939500Y-95697000D01*
G75*
G02*
X130792000Y-95549500I0J147500D01*
G01*
X130792000Y-95204500D01*
G75*
G02*
X130939500Y-95057000I147500J0D01*
G01*
X131234500Y-95057000D01*
G75*
G02*
X131382000Y-95204500I0J-147500D01*
G01*
G37*
G36*
G01*
X132352000Y-95204500D02*
X132352000Y-95549500D01*
G75*
G02*
X132204500Y-95697000I-147500J0D01*
G01*
X131909500Y-95697000D01*
G75*
G02*
X131762000Y-95549500I0J147500D01*
G01*
X131762000Y-95204500D01*
G75*
G02*
X131909500Y-95057000I147500J0D01*
G01*
X132204500Y-95057000D01*
G75*
G02*
X132352000Y-95204500I0J-147500D01*
G01*
G37*
G36*
G01*
X155912600Y-90149900D02*
X155567600Y-90149900D01*
G75*
G02*
X155420100Y-90002400I0J147500D01*
G01*
X155420100Y-89707400D01*
G75*
G02*
X155567600Y-89559900I147500J0D01*
G01*
X155912600Y-89559900D01*
G75*
G02*
X156060100Y-89707400I0J-147500D01*
G01*
X156060100Y-90002400D01*
G75*
G02*
X155912600Y-90149900I-147500J0D01*
G01*
G37*
G36*
G01*
X155912600Y-89179900D02*
X155567600Y-89179900D01*
G75*
G02*
X155420100Y-89032400I0J147500D01*
G01*
X155420100Y-88737400D01*
G75*
G02*
X155567600Y-88589900I147500J0D01*
G01*
X155912600Y-88589900D01*
G75*
G02*
X156060100Y-88737400I0J-147500D01*
G01*
X156060100Y-89032400D01*
G75*
G02*
X155912600Y-89179900I-147500J0D01*
G01*
G37*
D20*
X138900000Y-118202000D03*
X138900000Y-117802000D03*
X138900000Y-117402000D03*
X138900000Y-117002000D03*
X139300000Y-118202000D03*
X139300000Y-117802000D03*
X139300000Y-117402000D03*
X139300000Y-117002000D03*
X139700000Y-118202000D03*
X139700000Y-117802000D03*
X139700000Y-117402000D03*
X139700000Y-117002000D03*
X140100000Y-118202000D03*
X140100000Y-117802000D03*
X140100000Y-117402000D03*
X140100000Y-117002000D03*
X140500000Y-118202000D03*
X140500000Y-117802000D03*
X140500000Y-117402000D03*
X140500000Y-117002000D03*
G36*
G01*
X141514700Y-105705000D02*
X141859700Y-105705000D01*
G75*
G02*
X142007200Y-105852500I0J-147500D01*
G01*
X142007200Y-106147500D01*
G75*
G02*
X141859700Y-106295000I-147500J0D01*
G01*
X141514700Y-106295000D01*
G75*
G02*
X141367200Y-106147500I0J147500D01*
G01*
X141367200Y-105852500D01*
G75*
G02*
X141514700Y-105705000I147500J0D01*
G01*
G37*
G36*
G01*
X141514700Y-104735000D02*
X141859700Y-104735000D01*
G75*
G02*
X142007200Y-104882500I0J-147500D01*
G01*
X142007200Y-105177500D01*
G75*
G02*
X141859700Y-105325000I-147500J0D01*
G01*
X141514700Y-105325000D01*
G75*
G02*
X141367200Y-105177500I0J147500D01*
G01*
X141367200Y-104882500D01*
G75*
G02*
X141514700Y-104735000I147500J0D01*
G01*
G37*
G36*
G01*
X135279568Y-103286481D02*
X135523519Y-103530433D01*
G75*
G02*
X135523519Y-103739029I-104298J-104298D01*
G01*
X135314923Y-103947625D01*
G75*
G02*
X135106327Y-103947625I-104298J104298D01*
G01*
X134862375Y-103703673D01*
G75*
G02*
X134862375Y-103495077I104298J104298D01*
G01*
X135070971Y-103286481D01*
G75*
G02*
X135279567Y-103286481I104298J-104298D01*
G01*
G37*
G36*
G01*
X134593674Y-103972375D02*
X134837625Y-104216327D01*
G75*
G02*
X134837625Y-104424923I-104298J-104298D01*
G01*
X134629029Y-104633519D01*
G75*
G02*
X134420433Y-104633519I-104298J104298D01*
G01*
X134176481Y-104389567D01*
G75*
G02*
X134176481Y-104180971I104298J104298D01*
G01*
X134385077Y-103972375D01*
G75*
G02*
X134593673Y-103972375I104298J-104298D01*
G01*
G37*
G36*
G01*
X133937880Y-99129660D02*
X133937880Y-99474660D01*
G75*
G02*
X133790380Y-99622160I-147500J0D01*
G01*
X133495380Y-99622160D01*
G75*
G02*
X133347880Y-99474660I0J147500D01*
G01*
X133347880Y-99129660D01*
G75*
G02*
X133495380Y-98982160I147500J0D01*
G01*
X133790380Y-98982160D01*
G75*
G02*
X133937880Y-99129660I0J-147500D01*
G01*
G37*
G36*
G01*
X132967880Y-99129660D02*
X132967880Y-99474660D01*
G75*
G02*
X132820380Y-99622160I-147500J0D01*
G01*
X132525380Y-99622160D01*
G75*
G02*
X132377880Y-99474660I0J147500D01*
G01*
X132377880Y-99129660D01*
G75*
G02*
X132525380Y-98982160I147500J0D01*
G01*
X132820380Y-98982160D01*
G75*
G02*
X132967880Y-99129660I0J-147500D01*
G01*
G37*
G36*
G01*
X145743080Y-97010860D02*
X145743080Y-96665860D01*
G75*
G02*
X145890580Y-96518360I147500J0D01*
G01*
X146185580Y-96518360D01*
G75*
G02*
X146333080Y-96665860I0J-147500D01*
G01*
X146333080Y-97010860D01*
G75*
G02*
X146185580Y-97158360I-147500J0D01*
G01*
X145890580Y-97158360D01*
G75*
G02*
X145743080Y-97010860I0J147500D01*
G01*
G37*
G36*
G01*
X144773080Y-97010860D02*
X144773080Y-96665860D01*
G75*
G02*
X144920580Y-96518360I147500J0D01*
G01*
X145215580Y-96518360D01*
G75*
G02*
X145363080Y-96665860I0J-147500D01*
G01*
X145363080Y-97010860D01*
G75*
G02*
X145215580Y-97158360I-147500J0D01*
G01*
X144920580Y-97158360D01*
G75*
G02*
X144773080Y-97010860I0J147500D01*
G01*
G37*
G36*
G01*
X144943700Y-105400200D02*
X145288700Y-105400200D01*
G75*
G02*
X145436200Y-105547700I0J-147500D01*
G01*
X145436200Y-105842700D01*
G75*
G02*
X145288700Y-105990200I-147500J0D01*
G01*
X144943700Y-105990200D01*
G75*
G02*
X144796200Y-105842700I0J147500D01*
G01*
X144796200Y-105547700D01*
G75*
G02*
X144943700Y-105400200I147500J0D01*
G01*
G37*
G36*
G01*
X144943700Y-104430200D02*
X145288700Y-104430200D01*
G75*
G02*
X145436200Y-104577700I0J-147500D01*
G01*
X145436200Y-104872700D01*
G75*
G02*
X145288700Y-105020200I-147500J0D01*
G01*
X144943700Y-105020200D01*
G75*
G02*
X144796200Y-104872700I0J147500D01*
G01*
X144796200Y-104577700D01*
G75*
G02*
X144943700Y-104430200I147500J0D01*
G01*
G37*
G36*
G01*
X143826100Y-104430200D02*
X144171100Y-104430200D01*
G75*
G02*
X144318600Y-104577700I0J-147500D01*
G01*
X144318600Y-104872700D01*
G75*
G02*
X144171100Y-105020200I-147500J0D01*
G01*
X143826100Y-105020200D01*
G75*
G02*
X143678600Y-104872700I0J147500D01*
G01*
X143678600Y-104577700D01*
G75*
G02*
X143826100Y-104430200I147500J0D01*
G01*
G37*
G36*
G01*
X143826100Y-105400200D02*
X144171100Y-105400200D01*
G75*
G02*
X144318600Y-105547700I0J-147500D01*
G01*
X144318600Y-105842700D01*
G75*
G02*
X144171100Y-105990200I-147500J0D01*
G01*
X143826100Y-105990200D01*
G75*
G02*
X143678600Y-105842700I0J147500D01*
G01*
X143678600Y-105547700D01*
G75*
G02*
X143826100Y-105400200I147500J0D01*
G01*
G37*
G36*
G01*
X128206000Y-96667100D02*
X128206000Y-96322100D01*
G75*
G02*
X128353500Y-96174600I147500J0D01*
G01*
X128648500Y-96174600D01*
G75*
G02*
X128796000Y-96322100I0J-147500D01*
G01*
X128796000Y-96667100D01*
G75*
G02*
X128648500Y-96814600I-147500J0D01*
G01*
X128353500Y-96814600D01*
G75*
G02*
X128206000Y-96667100I0J147500D01*
G01*
G37*
G36*
G01*
X127236000Y-96667100D02*
X127236000Y-96322100D01*
G75*
G02*
X127383500Y-96174600I147500J0D01*
G01*
X127678500Y-96174600D01*
G75*
G02*
X127826000Y-96322100I0J-147500D01*
G01*
X127826000Y-96667100D01*
G75*
G02*
X127678500Y-96814600I-147500J0D01*
G01*
X127383500Y-96814600D01*
G75*
G02*
X127236000Y-96667100I0J147500D01*
G01*
G37*
G36*
G01*
X133937880Y-100069460D02*
X133937880Y-100414460D01*
G75*
G02*
X133790380Y-100561960I-147500J0D01*
G01*
X133495380Y-100561960D01*
G75*
G02*
X133347880Y-100414460I0J147500D01*
G01*
X133347880Y-100069460D01*
G75*
G02*
X133495380Y-99921960I147500J0D01*
G01*
X133790380Y-99921960D01*
G75*
G02*
X133937880Y-100069460I0J-147500D01*
G01*
G37*
G36*
G01*
X132967880Y-100069460D02*
X132967880Y-100414460D01*
G75*
G02*
X132820380Y-100561960I-147500J0D01*
G01*
X132525380Y-100561960D01*
G75*
G02*
X132377880Y-100414460I0J147500D01*
G01*
X132377880Y-100069460D01*
G75*
G02*
X132525380Y-99921960I147500J0D01*
G01*
X132820380Y-99921960D01*
G75*
G02*
X132967880Y-100069460I0J-147500D01*
G01*
G37*
G36*
G01*
X133937880Y-98189860D02*
X133937880Y-98534860D01*
G75*
G02*
X133790380Y-98682360I-147500J0D01*
G01*
X133495380Y-98682360D01*
G75*
G02*
X133347880Y-98534860I0J147500D01*
G01*
X133347880Y-98189860D01*
G75*
G02*
X133495380Y-98042360I147500J0D01*
G01*
X133790380Y-98042360D01*
G75*
G02*
X133937880Y-98189860I0J-147500D01*
G01*
G37*
G36*
G01*
X132967880Y-98189860D02*
X132967880Y-98534860D01*
G75*
G02*
X132820380Y-98682360I-147500J0D01*
G01*
X132525380Y-98682360D01*
G75*
G02*
X132377880Y-98534860I0J147500D01*
G01*
X132377880Y-98189860D01*
G75*
G02*
X132525380Y-98042360I147500J0D01*
G01*
X132820380Y-98042360D01*
G75*
G02*
X132967880Y-98189860I0J-147500D01*
G01*
G37*
G36*
G01*
X134583400Y-94235300D02*
X134583400Y-94580300D01*
G75*
G02*
X134435900Y-94727800I-147500J0D01*
G01*
X134140900Y-94727800D01*
G75*
G02*
X133993400Y-94580300I0J147500D01*
G01*
X133993400Y-94235300D01*
G75*
G02*
X134140900Y-94087800I147500J0D01*
G01*
X134435900Y-94087800D01*
G75*
G02*
X134583400Y-94235300I0J-147500D01*
G01*
G37*
G36*
G01*
X135553400Y-94235300D02*
X135553400Y-94580300D01*
G75*
G02*
X135405900Y-94727800I-147500J0D01*
G01*
X135110900Y-94727800D01*
G75*
G02*
X134963400Y-94580300I0J147500D01*
G01*
X134963400Y-94235300D01*
G75*
G02*
X135110900Y-94087800I147500J0D01*
G01*
X135405900Y-94087800D01*
G75*
G02*
X135553400Y-94235300I0J-147500D01*
G01*
G37*
D21*
X140500000Y-110584400D03*
X140500000Y-109684400D03*
X138900000Y-110584400D03*
X138900000Y-109684400D03*
G36*
G01*
X156228800Y-98716000D02*
X156228800Y-98515000D01*
G75*
G02*
X156308300Y-98435500I79500J0D01*
G01*
X156467300Y-98435500D01*
G75*
G02*
X156546800Y-98515000I0J-79500D01*
G01*
X156546800Y-98716000D01*
G75*
G02*
X156467300Y-98795500I-79500J0D01*
G01*
X156308300Y-98795500D01*
G75*
G02*
X156228800Y-98716000I0J79500D01*
G01*
G37*
G36*
G01*
X156918800Y-98716000D02*
X156918800Y-98515000D01*
G75*
G02*
X156998300Y-98435500I79500J0D01*
G01*
X157157300Y-98435500D01*
G75*
G02*
X157236800Y-98515000I0J-79500D01*
G01*
X157236800Y-98716000D01*
G75*
G02*
X157157300Y-98795500I-79500J0D01*
G01*
X156998300Y-98795500D01*
G75*
G02*
X156918800Y-98716000I0J79500D01*
G01*
G37*
D22*
X158679900Y-103301800D03*
D23*
X157679900Y-105881800D03*
X157679900Y-100721800D03*
X155679900Y-100721800D03*
X155679900Y-105881800D03*
X155679900Y-97245800D03*
X155679900Y-92085800D03*
X157679900Y-92085800D03*
X157679900Y-97245800D03*
D22*
X158679900Y-94665800D03*
G36*
G01*
X135975000Y-124061900D02*
X135975000Y-125162900D01*
G75*
G02*
X135775500Y-125362400I-199500J0D01*
G01*
X134624500Y-125362400D01*
G75*
G02*
X134425000Y-125162900I0J199500D01*
G01*
X134425000Y-124061900D01*
G75*
G02*
X134624500Y-123862400I199500J0D01*
G01*
X135775500Y-123862400D01*
G75*
G02*
X135975000Y-124061900I0J-199500D01*
G01*
G37*
G36*
G01*
X145175000Y-124061900D02*
X145175000Y-125162900D01*
G75*
G02*
X144975500Y-125362400I-199500J0D01*
G01*
X143824500Y-125362400D01*
G75*
G02*
X143625000Y-125162900I0J199500D01*
G01*
X143625000Y-124061900D01*
G75*
G02*
X143824500Y-123862400I199500J0D01*
G01*
X144975500Y-123862400D01*
G75*
G02*
X145175000Y-124061900I0J-199500D01*
G01*
G37*
D24*
X138558400Y-92084800D03*
X138058400Y-92084800D03*
X137558400Y-92084800D03*
X137558400Y-91404800D03*
X138058400Y-91404800D03*
X138558400Y-91404800D03*
D25*
X131232000Y-90152600D03*
X131232000Y-90652600D03*
X131232000Y-91152600D03*
X131912000Y-91152600D03*
X131912000Y-90652600D03*
X131912000Y-90152600D03*
D26*
X129911400Y-93562600D03*
X129911400Y-95362600D03*
X128711400Y-95362600D03*
X128711400Y-93562600D03*
D27*
X134632000Y-106375200D03*
X136132000Y-106375200D03*
G36*
G01*
X156226700Y-99452600D02*
X156226700Y-99251600D01*
G75*
G02*
X156306200Y-99172100I79500J0D01*
G01*
X156465200Y-99172100D01*
G75*
G02*
X156544700Y-99251600I0J-79500D01*
G01*
X156544700Y-99452600D01*
G75*
G02*
X156465200Y-99532100I-79500J0D01*
G01*
X156306200Y-99532100D01*
G75*
G02*
X156226700Y-99452600I0J79500D01*
G01*
G37*
G36*
G01*
X156916700Y-99452600D02*
X156916700Y-99251600D01*
G75*
G02*
X156996200Y-99172100I79500J0D01*
G01*
X157155200Y-99172100D01*
G75*
G02*
X157234700Y-99251600I0J-79500D01*
G01*
X157234700Y-99452600D01*
G75*
G02*
X157155200Y-99532100I-79500J0D01*
G01*
X156996200Y-99532100D01*
G75*
G02*
X156916700Y-99452600I0J79500D01*
G01*
G37*
G36*
G01*
X137097500Y-77590000D02*
X137442500Y-77590000D01*
G75*
G02*
X137590000Y-77737500I0J-147500D01*
G01*
X137590000Y-78032500D01*
G75*
G02*
X137442500Y-78180000I-147500J0D01*
G01*
X137097500Y-78180000D01*
G75*
G02*
X136950000Y-78032500I0J147500D01*
G01*
X136950000Y-77737500D01*
G75*
G02*
X137097500Y-77590000I147500J0D01*
G01*
G37*
G36*
G01*
X137097500Y-78560000D02*
X137442500Y-78560000D01*
G75*
G02*
X137590000Y-78707500I0J-147500D01*
G01*
X137590000Y-79002500D01*
G75*
G02*
X137442500Y-79150000I-147500J0D01*
G01*
X137097500Y-79150000D01*
G75*
G02*
X136950000Y-79002500I0J147500D01*
G01*
X136950000Y-78707500D01*
G75*
G02*
X137097500Y-78560000I147500J0D01*
G01*
G37*
D28*
X150267160Y-91500960D03*
D29*
X151567160Y-90750960D03*
X151567160Y-91250960D03*
X151567160Y-91750960D03*
X151567160Y-92250960D03*
X148967160Y-92250960D03*
X148967160Y-91750960D03*
X148967160Y-91250960D03*
X148967160Y-90750960D03*
G36*
G01*
X122761700Y-99325100D02*
X121611700Y-99325100D01*
G75*
G02*
X121486700Y-99200100I0J125000D01*
G01*
X121486700Y-98950100D01*
G75*
G02*
X121611700Y-98825100I125000J0D01*
G01*
X122761700Y-98825100D01*
G75*
G02*
X122886700Y-98950100I0J-125000D01*
G01*
X122886700Y-99200100D01*
G75*
G02*
X122761700Y-99325100I-125000J0D01*
G01*
G37*
G36*
G01*
X121599200Y-97875100D02*
X121774200Y-97875100D01*
G75*
G02*
X121861700Y-97962600I0J-87500D01*
G01*
X121861700Y-98337600D01*
G75*
G02*
X121774200Y-98425100I-87500J0D01*
G01*
X121599200Y-98425100D01*
G75*
G02*
X121511700Y-98337600I0J87500D01*
G01*
X121511700Y-97962600D01*
G75*
G02*
X121599200Y-97875100I87500J0D01*
G01*
G37*
G36*
G01*
X122599200Y-97875100D02*
X122774200Y-97875100D01*
G75*
G02*
X122861700Y-97962600I0J-87500D01*
G01*
X122861700Y-98337600D01*
G75*
G02*
X122774200Y-98425100I-87500J0D01*
G01*
X122599200Y-98425100D01*
G75*
G02*
X122511700Y-98337600I0J87500D01*
G01*
X122511700Y-97962600D01*
G75*
G02*
X122599200Y-97875100I87500J0D01*
G01*
G37*
G36*
G01*
X122774200Y-100275100D02*
X122599200Y-100275100D01*
G75*
G02*
X122511700Y-100187600I0J87500D01*
G01*
X122511700Y-99812600D01*
G75*
G02*
X122599200Y-99725100I87500J0D01*
G01*
X122774200Y-99725100D01*
G75*
G02*
X122861700Y-99812600I0J-87500D01*
G01*
X122861700Y-100187600D01*
G75*
G02*
X122774200Y-100275100I-87500J0D01*
G01*
G37*
G36*
G01*
X121774200Y-100275100D02*
X121599200Y-100275100D01*
G75*
G02*
X121511700Y-100187600I0J87500D01*
G01*
X121511700Y-99812600D01*
G75*
G02*
X121599200Y-99725100I87500J0D01*
G01*
X121774200Y-99725100D01*
G75*
G02*
X121861700Y-99812600I0J-87500D01*
G01*
X121861700Y-100187600D01*
G75*
G02*
X121774200Y-100275100I-87500J0D01*
G01*
G37*
D30*
X138407600Y-83813600D03*
X138407600Y-83413600D03*
X138407600Y-83013600D03*
X138007600Y-83013600D03*
X137607600Y-83013600D03*
X137607600Y-83413600D03*
X137607600Y-83813600D03*
X138007600Y-83813600D03*
X138007600Y-83413600D03*
D31*
X129286000Y-118237000D03*
X125386000Y-118237000D03*
X129286000Y-116967000D03*
X125386000Y-116967000D03*
X129286000Y-115697000D03*
X125386000Y-115697000D03*
X129286000Y-114427000D03*
X125386000Y-114427000D03*
X129286000Y-113157000D03*
X125386000Y-113157000D03*
X129286000Y-111887000D03*
X125386000Y-111887000D03*
X129286000Y-110617000D03*
X125386000Y-110617000D03*
G36*
G01*
X148382000Y-117367000D02*
X148382000Y-116567000D01*
G75*
G02*
X148632000Y-116317000I250000J0D01*
G01*
X149457000Y-116317000D01*
G75*
G02*
X149707000Y-116567000I0J-250000D01*
G01*
X149707000Y-117367000D01*
G75*
G02*
X149457000Y-117617000I-250000J0D01*
G01*
X148632000Y-117617000D01*
G75*
G02*
X148382000Y-117367000I0J250000D01*
G01*
G37*
G36*
G01*
X146457000Y-117367000D02*
X146457000Y-116567000D01*
G75*
G02*
X146707000Y-116317000I250000J0D01*
G01*
X147532000Y-116317000D01*
G75*
G02*
X147782000Y-116567000I0J-250000D01*
G01*
X147782000Y-117367000D01*
G75*
G02*
X147532000Y-117617000I-250000J0D01*
G01*
X146707000Y-117617000D01*
G75*
G02*
X146457000Y-117367000I0J250000D01*
G01*
G37*
D32*
X136375400Y-71319800D03*
X135375400Y-71319800D03*
X147375400Y-68819800D03*
X146375400Y-68819800D03*
D33*
X142275400Y-69519800D03*
X139725400Y-69519800D03*
X137275400Y-69519800D03*
G36*
G01*
X135950000Y-79832500D02*
X135950000Y-79487500D01*
G75*
G02*
X136097500Y-79340000I147500J0D01*
G01*
X136392500Y-79340000D01*
G75*
G02*
X136540000Y-79487500I0J-147500D01*
G01*
X136540000Y-79832500D01*
G75*
G02*
X136392500Y-79980000I-147500J0D01*
G01*
X136097500Y-79980000D01*
G75*
G02*
X135950000Y-79832500I0J147500D01*
G01*
G37*
G36*
G01*
X136920000Y-79832500D02*
X136920000Y-79487500D01*
G75*
G02*
X137067500Y-79340000I147500J0D01*
G01*
X137362500Y-79340000D01*
G75*
G02*
X137510000Y-79487500I0J-147500D01*
G01*
X137510000Y-79832500D01*
G75*
G02*
X137362500Y-79980000I-147500J0D01*
G01*
X137067500Y-79980000D01*
G75*
G02*
X136920000Y-79832500I0J147500D01*
G01*
G37*
G36*
G01*
X146647400Y-68676740D02*
X146647400Y-69021740D01*
G75*
G02*
X146499900Y-69169240I-147500J0D01*
G01*
X146204900Y-69169240D01*
G75*
G02*
X146057400Y-69021740I0J147500D01*
G01*
X146057400Y-68676740D01*
G75*
G02*
X146204900Y-68529240I147500J0D01*
G01*
X146499900Y-68529240D01*
G75*
G02*
X146647400Y-68676740I0J-147500D01*
G01*
G37*
G36*
G01*
X147617400Y-68676740D02*
X147617400Y-69021740D01*
G75*
G02*
X147469900Y-69169240I-147500J0D01*
G01*
X147174900Y-69169240D01*
G75*
G02*
X147027400Y-69021740I0J147500D01*
G01*
X147027400Y-68676740D01*
G75*
G02*
X147174900Y-68529240I147500J0D01*
G01*
X147469900Y-68529240D01*
G75*
G02*
X147617400Y-68676740I0J-147500D01*
G01*
G37*
G36*
G01*
X135066820Y-71498240D02*
X135066820Y-71153240D01*
G75*
G02*
X135214320Y-71005740I147500J0D01*
G01*
X135509320Y-71005740D01*
G75*
G02*
X135656820Y-71153240I0J-147500D01*
G01*
X135656820Y-71498240D01*
G75*
G02*
X135509320Y-71645740I-147500J0D01*
G01*
X135214320Y-71645740D01*
G75*
G02*
X135066820Y-71498240I0J147500D01*
G01*
G37*
G36*
G01*
X136036820Y-71498240D02*
X136036820Y-71153240D01*
G75*
G02*
X136184320Y-71005740I147500J0D01*
G01*
X136479320Y-71005740D01*
G75*
G02*
X136626820Y-71153240I0J-147500D01*
G01*
X136626820Y-71498240D01*
G75*
G02*
X136479320Y-71645740I-147500J0D01*
G01*
X136184320Y-71645740D01*
G75*
G02*
X136036820Y-71498240I0J147500D01*
G01*
G37*
D34*
X154152600Y-85405700D03*
X154152600Y-82005700D03*
G36*
G01*
X133937880Y-97250060D02*
X133937880Y-97595060D01*
G75*
G02*
X133790380Y-97742560I-147500J0D01*
G01*
X133495380Y-97742560D01*
G75*
G02*
X133347880Y-97595060I0J147500D01*
G01*
X133347880Y-97250060D01*
G75*
G02*
X133495380Y-97102560I147500J0D01*
G01*
X133790380Y-97102560D01*
G75*
G02*
X133937880Y-97250060I0J-147500D01*
G01*
G37*
G36*
G01*
X132967880Y-97250060D02*
X132967880Y-97595060D01*
G75*
G02*
X132820380Y-97742560I-147500J0D01*
G01*
X132525380Y-97742560D01*
G75*
G02*
X132377880Y-97595060I0J147500D01*
G01*
X132377880Y-97250060D01*
G75*
G02*
X132525380Y-97102560I147500J0D01*
G01*
X132820380Y-97102560D01*
G75*
G02*
X132967880Y-97250060I0J-147500D01*
G01*
G37*
G36*
G01*
X143575000Y-101747500D02*
X143575000Y-101872500D01*
G75*
G02*
X143512500Y-101935000I-62500J0D01*
G01*
X142787500Y-101935000D01*
G75*
G02*
X142725000Y-101872500I0J62500D01*
G01*
X142725000Y-101747500D01*
G75*
G02*
X142787500Y-101685000I62500J0D01*
G01*
X143512500Y-101685000D01*
G75*
G02*
X143575000Y-101747500I0J-62500D01*
G01*
G37*
G36*
G01*
X143575000Y-101247500D02*
X143575000Y-101372500D01*
G75*
G02*
X143512500Y-101435000I-62500J0D01*
G01*
X142787500Y-101435000D01*
G75*
G02*
X142725000Y-101372500I0J62500D01*
G01*
X142725000Y-101247500D01*
G75*
G02*
X142787500Y-101185000I62500J0D01*
G01*
X143512500Y-101185000D01*
G75*
G02*
X143575000Y-101247500I0J-62500D01*
G01*
G37*
G36*
G01*
X143575000Y-100747500D02*
X143575000Y-100872500D01*
G75*
G02*
X143512500Y-100935000I-62500J0D01*
G01*
X142787500Y-100935000D01*
G75*
G02*
X142725000Y-100872500I0J62500D01*
G01*
X142725000Y-100747500D01*
G75*
G02*
X142787500Y-100685000I62500J0D01*
G01*
X143512500Y-100685000D01*
G75*
G02*
X143575000Y-100747500I0J-62500D01*
G01*
G37*
G36*
G01*
X143575000Y-100247500D02*
X143575000Y-100372500D01*
G75*
G02*
X143512500Y-100435000I-62500J0D01*
G01*
X142787500Y-100435000D01*
G75*
G02*
X142725000Y-100372500I0J62500D01*
G01*
X142725000Y-100247500D01*
G75*
G02*
X142787500Y-100185000I62500J0D01*
G01*
X143512500Y-100185000D01*
G75*
G02*
X143575000Y-100247500I0J-62500D01*
G01*
G37*
G36*
G01*
X143575000Y-99747500D02*
X143575000Y-99872500D01*
G75*
G02*
X143512500Y-99935000I-62500J0D01*
G01*
X142787500Y-99935000D01*
G75*
G02*
X142725000Y-99872500I0J62500D01*
G01*
X142725000Y-99747500D01*
G75*
G02*
X142787500Y-99685000I62500J0D01*
G01*
X143512500Y-99685000D01*
G75*
G02*
X143575000Y-99747500I0J-62500D01*
G01*
G37*
G36*
G01*
X143575000Y-99247500D02*
X143575000Y-99372500D01*
G75*
G02*
X143512500Y-99435000I-62500J0D01*
G01*
X142787500Y-99435000D01*
G75*
G02*
X142725000Y-99372500I0J62500D01*
G01*
X142725000Y-99247500D01*
G75*
G02*
X142787500Y-99185000I62500J0D01*
G01*
X143512500Y-99185000D01*
G75*
G02*
X143575000Y-99247500I0J-62500D01*
G01*
G37*
G36*
G01*
X143575000Y-98747500D02*
X143575000Y-98872500D01*
G75*
G02*
X143512500Y-98935000I-62500J0D01*
G01*
X142787500Y-98935000D01*
G75*
G02*
X142725000Y-98872500I0J62500D01*
G01*
X142725000Y-98747500D01*
G75*
G02*
X142787500Y-98685000I62500J0D01*
G01*
X143512500Y-98685000D01*
G75*
G02*
X143575000Y-98747500I0J-62500D01*
G01*
G37*
G36*
G01*
X143575000Y-98247500D02*
X143575000Y-98372500D01*
G75*
G02*
X143512500Y-98435000I-62500J0D01*
G01*
X142787500Y-98435000D01*
G75*
G02*
X142725000Y-98372500I0J62500D01*
G01*
X142725000Y-98247500D01*
G75*
G02*
X142787500Y-98185000I62500J0D01*
G01*
X143512500Y-98185000D01*
G75*
G02*
X143575000Y-98247500I0J-62500D01*
G01*
G37*
G36*
G01*
X143575000Y-97747500D02*
X143575000Y-97872500D01*
G75*
G02*
X143512500Y-97935000I-62500J0D01*
G01*
X142787500Y-97935000D01*
G75*
G02*
X142725000Y-97872500I0J62500D01*
G01*
X142725000Y-97747500D01*
G75*
G02*
X142787500Y-97685000I62500J0D01*
G01*
X143512500Y-97685000D01*
G75*
G02*
X143575000Y-97747500I0J-62500D01*
G01*
G37*
G36*
G01*
X143575000Y-97247500D02*
X143575000Y-97372500D01*
G75*
G02*
X143512500Y-97435000I-62500J0D01*
G01*
X142787500Y-97435000D01*
G75*
G02*
X142725000Y-97372500I0J62500D01*
G01*
X142725000Y-97247500D01*
G75*
G02*
X142787500Y-97185000I62500J0D01*
G01*
X143512500Y-97185000D01*
G75*
G02*
X143575000Y-97247500I0J-62500D01*
G01*
G37*
G36*
G01*
X143575000Y-96747500D02*
X143575000Y-96872500D01*
G75*
G02*
X143512500Y-96935000I-62500J0D01*
G01*
X142787500Y-96935000D01*
G75*
G02*
X142725000Y-96872500I0J62500D01*
G01*
X142725000Y-96747500D01*
G75*
G02*
X142787500Y-96685000I62500J0D01*
G01*
X143512500Y-96685000D01*
G75*
G02*
X143575000Y-96747500I0J-62500D01*
G01*
G37*
G36*
G01*
X143575000Y-96247500D02*
X143575000Y-96372500D01*
G75*
G02*
X143512500Y-96435000I-62500J0D01*
G01*
X142787500Y-96435000D01*
G75*
G02*
X142725000Y-96372500I0J62500D01*
G01*
X142725000Y-96247500D01*
G75*
G02*
X142787500Y-96185000I62500J0D01*
G01*
X143512500Y-96185000D01*
G75*
G02*
X143575000Y-96247500I0J-62500D01*
G01*
G37*
G36*
G01*
X142575000Y-95247500D02*
X142575000Y-95972500D01*
G75*
G02*
X142512500Y-96035000I-62500J0D01*
G01*
X142387500Y-96035000D01*
G75*
G02*
X142325000Y-95972500I0J62500D01*
G01*
X142325000Y-95247500D01*
G75*
G02*
X142387500Y-95185000I62500J0D01*
G01*
X142512500Y-95185000D01*
G75*
G02*
X142575000Y-95247500I0J-62500D01*
G01*
G37*
G36*
G01*
X142075000Y-95247500D02*
X142075000Y-95972500D01*
G75*
G02*
X142012500Y-96035000I-62500J0D01*
G01*
X141887500Y-96035000D01*
G75*
G02*
X141825000Y-95972500I0J62500D01*
G01*
X141825000Y-95247500D01*
G75*
G02*
X141887500Y-95185000I62500J0D01*
G01*
X142012500Y-95185000D01*
G75*
G02*
X142075000Y-95247500I0J-62500D01*
G01*
G37*
G36*
G01*
X141575000Y-95247500D02*
X141575000Y-95972500D01*
G75*
G02*
X141512500Y-96035000I-62500J0D01*
G01*
X141387500Y-96035000D01*
G75*
G02*
X141325000Y-95972500I0J62500D01*
G01*
X141325000Y-95247500D01*
G75*
G02*
X141387500Y-95185000I62500J0D01*
G01*
X141512500Y-95185000D01*
G75*
G02*
X141575000Y-95247500I0J-62500D01*
G01*
G37*
G36*
G01*
X141075000Y-95247500D02*
X141075000Y-95972500D01*
G75*
G02*
X141012500Y-96035000I-62500J0D01*
G01*
X140887500Y-96035000D01*
G75*
G02*
X140825000Y-95972500I0J62500D01*
G01*
X140825000Y-95247500D01*
G75*
G02*
X140887500Y-95185000I62500J0D01*
G01*
X141012500Y-95185000D01*
G75*
G02*
X141075000Y-95247500I0J-62500D01*
G01*
G37*
G36*
G01*
X140575000Y-95247500D02*
X140575000Y-95972500D01*
G75*
G02*
X140512500Y-96035000I-62500J0D01*
G01*
X140387500Y-96035000D01*
G75*
G02*
X140325000Y-95972500I0J62500D01*
G01*
X140325000Y-95247500D01*
G75*
G02*
X140387500Y-95185000I62500J0D01*
G01*
X140512500Y-95185000D01*
G75*
G02*
X140575000Y-95247500I0J-62500D01*
G01*
G37*
G36*
G01*
X140075000Y-95247500D02*
X140075000Y-95972500D01*
G75*
G02*
X140012500Y-96035000I-62500J0D01*
G01*
X139887500Y-96035000D01*
G75*
G02*
X139825000Y-95972500I0J62500D01*
G01*
X139825000Y-95247500D01*
G75*
G02*
X139887500Y-95185000I62500J0D01*
G01*
X140012500Y-95185000D01*
G75*
G02*
X140075000Y-95247500I0J-62500D01*
G01*
G37*
G36*
G01*
X139575000Y-95247500D02*
X139575000Y-95972500D01*
G75*
G02*
X139512500Y-96035000I-62500J0D01*
G01*
X139387500Y-96035000D01*
G75*
G02*
X139325000Y-95972500I0J62500D01*
G01*
X139325000Y-95247500D01*
G75*
G02*
X139387500Y-95185000I62500J0D01*
G01*
X139512500Y-95185000D01*
G75*
G02*
X139575000Y-95247500I0J-62500D01*
G01*
G37*
G36*
G01*
X139075000Y-95247500D02*
X139075000Y-95972500D01*
G75*
G02*
X139012500Y-96035000I-62500J0D01*
G01*
X138887500Y-96035000D01*
G75*
G02*
X138825000Y-95972500I0J62500D01*
G01*
X138825000Y-95247500D01*
G75*
G02*
X138887500Y-95185000I62500J0D01*
G01*
X139012500Y-95185000D01*
G75*
G02*
X139075000Y-95247500I0J-62500D01*
G01*
G37*
G36*
G01*
X138575000Y-95247500D02*
X138575000Y-95972500D01*
G75*
G02*
X138512500Y-96035000I-62500J0D01*
G01*
X138387500Y-96035000D01*
G75*
G02*
X138325000Y-95972500I0J62500D01*
G01*
X138325000Y-95247500D01*
G75*
G02*
X138387500Y-95185000I62500J0D01*
G01*
X138512500Y-95185000D01*
G75*
G02*
X138575000Y-95247500I0J-62500D01*
G01*
G37*
G36*
G01*
X138075000Y-95247500D02*
X138075000Y-95972500D01*
G75*
G02*
X138012500Y-96035000I-62500J0D01*
G01*
X137887500Y-96035000D01*
G75*
G02*
X137825000Y-95972500I0J62500D01*
G01*
X137825000Y-95247500D01*
G75*
G02*
X137887500Y-95185000I62500J0D01*
G01*
X138012500Y-95185000D01*
G75*
G02*
X138075000Y-95247500I0J-62500D01*
G01*
G37*
G36*
G01*
X137575000Y-95247500D02*
X137575000Y-95972500D01*
G75*
G02*
X137512500Y-96035000I-62500J0D01*
G01*
X137387500Y-96035000D01*
G75*
G02*
X137325000Y-95972500I0J62500D01*
G01*
X137325000Y-95247500D01*
G75*
G02*
X137387500Y-95185000I62500J0D01*
G01*
X137512500Y-95185000D01*
G75*
G02*
X137575000Y-95247500I0J-62500D01*
G01*
G37*
G36*
G01*
X137075000Y-95247500D02*
X137075000Y-95972500D01*
G75*
G02*
X137012500Y-96035000I-62500J0D01*
G01*
X136887500Y-96035000D01*
G75*
G02*
X136825000Y-95972500I0J62500D01*
G01*
X136825000Y-95247500D01*
G75*
G02*
X136887500Y-95185000I62500J0D01*
G01*
X137012500Y-95185000D01*
G75*
G02*
X137075000Y-95247500I0J-62500D01*
G01*
G37*
G36*
G01*
X136675000Y-96247500D02*
X136675000Y-96372500D01*
G75*
G02*
X136612500Y-96435000I-62500J0D01*
G01*
X135887500Y-96435000D01*
G75*
G02*
X135825000Y-96372500I0J62500D01*
G01*
X135825000Y-96247500D01*
G75*
G02*
X135887500Y-96185000I62500J0D01*
G01*
X136612500Y-96185000D01*
G75*
G02*
X136675000Y-96247500I0J-62500D01*
G01*
G37*
G36*
G01*
X136675000Y-96747500D02*
X136675000Y-96872500D01*
G75*
G02*
X136612500Y-96935000I-62500J0D01*
G01*
X135887500Y-96935000D01*
G75*
G02*
X135825000Y-96872500I0J62500D01*
G01*
X135825000Y-96747500D01*
G75*
G02*
X135887500Y-96685000I62500J0D01*
G01*
X136612500Y-96685000D01*
G75*
G02*
X136675000Y-96747500I0J-62500D01*
G01*
G37*
G36*
G01*
X136675000Y-97247500D02*
X136675000Y-97372500D01*
G75*
G02*
X136612500Y-97435000I-62500J0D01*
G01*
X135887500Y-97435000D01*
G75*
G02*
X135825000Y-97372500I0J62500D01*
G01*
X135825000Y-97247500D01*
G75*
G02*
X135887500Y-97185000I62500J0D01*
G01*
X136612500Y-97185000D01*
G75*
G02*
X136675000Y-97247500I0J-62500D01*
G01*
G37*
G36*
G01*
X136675000Y-97747500D02*
X136675000Y-97872500D01*
G75*
G02*
X136612500Y-97935000I-62500J0D01*
G01*
X135887500Y-97935000D01*
G75*
G02*
X135825000Y-97872500I0J62500D01*
G01*
X135825000Y-97747500D01*
G75*
G02*
X135887500Y-97685000I62500J0D01*
G01*
X136612500Y-97685000D01*
G75*
G02*
X136675000Y-97747500I0J-62500D01*
G01*
G37*
G36*
G01*
X136675000Y-98247500D02*
X136675000Y-98372500D01*
G75*
G02*
X136612500Y-98435000I-62500J0D01*
G01*
X135887500Y-98435000D01*
G75*
G02*
X135825000Y-98372500I0J62500D01*
G01*
X135825000Y-98247500D01*
G75*
G02*
X135887500Y-98185000I62500J0D01*
G01*
X136612500Y-98185000D01*
G75*
G02*
X136675000Y-98247500I0J-62500D01*
G01*
G37*
G36*
G01*
X136675000Y-98747500D02*
X136675000Y-98872500D01*
G75*
G02*
X136612500Y-98935000I-62500J0D01*
G01*
X135887500Y-98935000D01*
G75*
G02*
X135825000Y-98872500I0J62500D01*
G01*
X135825000Y-98747500D01*
G75*
G02*
X135887500Y-98685000I62500J0D01*
G01*
X136612500Y-98685000D01*
G75*
G02*
X136675000Y-98747500I0J-62500D01*
G01*
G37*
G36*
G01*
X136675000Y-99247500D02*
X136675000Y-99372500D01*
G75*
G02*
X136612500Y-99435000I-62500J0D01*
G01*
X135887500Y-99435000D01*
G75*
G02*
X135825000Y-99372500I0J62500D01*
G01*
X135825000Y-99247500D01*
G75*
G02*
X135887500Y-99185000I62500J0D01*
G01*
X136612500Y-99185000D01*
G75*
G02*
X136675000Y-99247500I0J-62500D01*
G01*
G37*
G36*
G01*
X136675000Y-99747500D02*
X136675000Y-99872500D01*
G75*
G02*
X136612500Y-99935000I-62500J0D01*
G01*
X135887500Y-99935000D01*
G75*
G02*
X135825000Y-99872500I0J62500D01*
G01*
X135825000Y-99747500D01*
G75*
G02*
X135887500Y-99685000I62500J0D01*
G01*
X136612500Y-99685000D01*
G75*
G02*
X136675000Y-99747500I0J-62500D01*
G01*
G37*
G36*
G01*
X136675000Y-100247500D02*
X136675000Y-100372500D01*
G75*
G02*
X136612500Y-100435000I-62500J0D01*
G01*
X135887500Y-100435000D01*
G75*
G02*
X135825000Y-100372500I0J62500D01*
G01*
X135825000Y-100247500D01*
G75*
G02*
X135887500Y-100185000I62500J0D01*
G01*
X136612500Y-100185000D01*
G75*
G02*
X136675000Y-100247500I0J-62500D01*
G01*
G37*
G36*
G01*
X136675000Y-100747500D02*
X136675000Y-100872500D01*
G75*
G02*
X136612500Y-100935000I-62500J0D01*
G01*
X135887500Y-100935000D01*
G75*
G02*
X135825000Y-100872500I0J62500D01*
G01*
X135825000Y-100747500D01*
G75*
G02*
X135887500Y-100685000I62500J0D01*
G01*
X136612500Y-100685000D01*
G75*
G02*
X136675000Y-100747500I0J-62500D01*
G01*
G37*
G36*
G01*
X136675000Y-101247500D02*
X136675000Y-101372500D01*
G75*
G02*
X136612500Y-101435000I-62500J0D01*
G01*
X135887500Y-101435000D01*
G75*
G02*
X135825000Y-101372500I0J62500D01*
G01*
X135825000Y-101247500D01*
G75*
G02*
X135887500Y-101185000I62500J0D01*
G01*
X136612500Y-101185000D01*
G75*
G02*
X136675000Y-101247500I0J-62500D01*
G01*
G37*
G36*
G01*
X136675000Y-101747500D02*
X136675000Y-101872500D01*
G75*
G02*
X136612500Y-101935000I-62500J0D01*
G01*
X135887500Y-101935000D01*
G75*
G02*
X135825000Y-101872500I0J62500D01*
G01*
X135825000Y-101747500D01*
G75*
G02*
X135887500Y-101685000I62500J0D01*
G01*
X136612500Y-101685000D01*
G75*
G02*
X136675000Y-101747500I0J-62500D01*
G01*
G37*
G36*
G01*
X137075000Y-102147500D02*
X137075000Y-102872500D01*
G75*
G02*
X137012500Y-102935000I-62500J0D01*
G01*
X136887500Y-102935000D01*
G75*
G02*
X136825000Y-102872500I0J62500D01*
G01*
X136825000Y-102147500D01*
G75*
G02*
X136887500Y-102085000I62500J0D01*
G01*
X137012500Y-102085000D01*
G75*
G02*
X137075000Y-102147500I0J-62500D01*
G01*
G37*
G36*
G01*
X137575000Y-102147500D02*
X137575000Y-102872500D01*
G75*
G02*
X137512500Y-102935000I-62500J0D01*
G01*
X137387500Y-102935000D01*
G75*
G02*
X137325000Y-102872500I0J62500D01*
G01*
X137325000Y-102147500D01*
G75*
G02*
X137387500Y-102085000I62500J0D01*
G01*
X137512500Y-102085000D01*
G75*
G02*
X137575000Y-102147500I0J-62500D01*
G01*
G37*
G36*
G01*
X138075000Y-102147500D02*
X138075000Y-102872500D01*
G75*
G02*
X138012500Y-102935000I-62500J0D01*
G01*
X137887500Y-102935000D01*
G75*
G02*
X137825000Y-102872500I0J62500D01*
G01*
X137825000Y-102147500D01*
G75*
G02*
X137887500Y-102085000I62500J0D01*
G01*
X138012500Y-102085000D01*
G75*
G02*
X138075000Y-102147500I0J-62500D01*
G01*
G37*
G36*
G01*
X138575000Y-102147500D02*
X138575000Y-102872500D01*
G75*
G02*
X138512500Y-102935000I-62500J0D01*
G01*
X138387500Y-102935000D01*
G75*
G02*
X138325000Y-102872500I0J62500D01*
G01*
X138325000Y-102147500D01*
G75*
G02*
X138387500Y-102085000I62500J0D01*
G01*
X138512500Y-102085000D01*
G75*
G02*
X138575000Y-102147500I0J-62500D01*
G01*
G37*
G36*
G01*
X139075000Y-102147500D02*
X139075000Y-102872500D01*
G75*
G02*
X139012500Y-102935000I-62500J0D01*
G01*
X138887500Y-102935000D01*
G75*
G02*
X138825000Y-102872500I0J62500D01*
G01*
X138825000Y-102147500D01*
G75*
G02*
X138887500Y-102085000I62500J0D01*
G01*
X139012500Y-102085000D01*
G75*
G02*
X139075000Y-102147500I0J-62500D01*
G01*
G37*
G36*
G01*
X139575000Y-102147500D02*
X139575000Y-102872500D01*
G75*
G02*
X139512500Y-102935000I-62500J0D01*
G01*
X139387500Y-102935000D01*
G75*
G02*
X139325000Y-102872500I0J62500D01*
G01*
X139325000Y-102147500D01*
G75*
G02*
X139387500Y-102085000I62500J0D01*
G01*
X139512500Y-102085000D01*
G75*
G02*
X139575000Y-102147500I0J-62500D01*
G01*
G37*
G36*
G01*
X140075000Y-102147500D02*
X140075000Y-102872500D01*
G75*
G02*
X140012500Y-102935000I-62500J0D01*
G01*
X139887500Y-102935000D01*
G75*
G02*
X139825000Y-102872500I0J62500D01*
G01*
X139825000Y-102147500D01*
G75*
G02*
X139887500Y-102085000I62500J0D01*
G01*
X140012500Y-102085000D01*
G75*
G02*
X140075000Y-102147500I0J-62500D01*
G01*
G37*
G36*
G01*
X140575000Y-102147500D02*
X140575000Y-102872500D01*
G75*
G02*
X140512500Y-102935000I-62500J0D01*
G01*
X140387500Y-102935000D01*
G75*
G02*
X140325000Y-102872500I0J62500D01*
G01*
X140325000Y-102147500D01*
G75*
G02*
X140387500Y-102085000I62500J0D01*
G01*
X140512500Y-102085000D01*
G75*
G02*
X140575000Y-102147500I0J-62500D01*
G01*
G37*
G36*
G01*
X141075000Y-102147500D02*
X141075000Y-102872500D01*
G75*
G02*
X141012500Y-102935000I-62500J0D01*
G01*
X140887500Y-102935000D01*
G75*
G02*
X140825000Y-102872500I0J62500D01*
G01*
X140825000Y-102147500D01*
G75*
G02*
X140887500Y-102085000I62500J0D01*
G01*
X141012500Y-102085000D01*
G75*
G02*
X141075000Y-102147500I0J-62500D01*
G01*
G37*
G36*
G01*
X141575000Y-102147500D02*
X141575000Y-102872500D01*
G75*
G02*
X141512500Y-102935000I-62500J0D01*
G01*
X141387500Y-102935000D01*
G75*
G02*
X141325000Y-102872500I0J62500D01*
G01*
X141325000Y-102147500D01*
G75*
G02*
X141387500Y-102085000I62500J0D01*
G01*
X141512500Y-102085000D01*
G75*
G02*
X141575000Y-102147500I0J-62500D01*
G01*
G37*
G36*
G01*
X142075000Y-102147500D02*
X142075000Y-102872500D01*
G75*
G02*
X142012500Y-102935000I-62500J0D01*
G01*
X141887500Y-102935000D01*
G75*
G02*
X141825000Y-102872500I0J62500D01*
G01*
X141825000Y-102147500D01*
G75*
G02*
X141887500Y-102085000I62500J0D01*
G01*
X142012500Y-102085000D01*
G75*
G02*
X142075000Y-102147500I0J-62500D01*
G01*
G37*
G36*
G01*
X142575000Y-102147500D02*
X142575000Y-102872500D01*
G75*
G02*
X142512500Y-102935000I-62500J0D01*
G01*
X142387500Y-102935000D01*
G75*
G02*
X142325000Y-102872500I0J62500D01*
G01*
X142325000Y-102147500D01*
G75*
G02*
X142387500Y-102085000I62500J0D01*
G01*
X142512500Y-102085000D01*
G75*
G02*
X142575000Y-102147500I0J-62500D01*
G01*
G37*
G36*
G01*
X142290000Y-100800000D02*
X142290000Y-101400000D01*
G75*
G02*
X142040000Y-101650000I-250000J0D01*
G01*
X141440000Y-101650000D01*
G75*
G02*
X141190000Y-101400000I0J250000D01*
G01*
X141190000Y-100800000D01*
G75*
G02*
X141440000Y-100550000I250000J0D01*
G01*
X142040000Y-100550000D01*
G75*
G02*
X142290000Y-100800000I0J-250000D01*
G01*
G37*
G36*
G01*
X142290000Y-99440000D02*
X142290000Y-100040000D01*
G75*
G02*
X142040000Y-100290000I-250000J0D01*
G01*
X141440000Y-100290000D01*
G75*
G02*
X141190000Y-100040000I0J250000D01*
G01*
X141190000Y-99440000D01*
G75*
G02*
X141440000Y-99190000I250000J0D01*
G01*
X142040000Y-99190000D01*
G75*
G02*
X142290000Y-99440000I0J-250000D01*
G01*
G37*
G36*
G01*
X142290000Y-98080000D02*
X142290000Y-98680000D01*
G75*
G02*
X142040000Y-98930000I-250000J0D01*
G01*
X141440000Y-98930000D01*
G75*
G02*
X141190000Y-98680000I0J250000D01*
G01*
X141190000Y-98080000D01*
G75*
G02*
X141440000Y-97830000I250000J0D01*
G01*
X142040000Y-97830000D01*
G75*
G02*
X142290000Y-98080000I0J-250000D01*
G01*
G37*
G36*
G01*
X142290000Y-96720000D02*
X142290000Y-97320000D01*
G75*
G02*
X142040000Y-97570000I-250000J0D01*
G01*
X141440000Y-97570000D01*
G75*
G02*
X141190000Y-97320000I0J250000D01*
G01*
X141190000Y-96720000D01*
G75*
G02*
X141440000Y-96470000I250000J0D01*
G01*
X142040000Y-96470000D01*
G75*
G02*
X142290000Y-96720000I0J-250000D01*
G01*
G37*
G36*
G01*
X140930000Y-100800000D02*
X140930000Y-101400000D01*
G75*
G02*
X140680000Y-101650000I-250000J0D01*
G01*
X140080000Y-101650000D01*
G75*
G02*
X139830000Y-101400000I0J250000D01*
G01*
X139830000Y-100800000D01*
G75*
G02*
X140080000Y-100550000I250000J0D01*
G01*
X140680000Y-100550000D01*
G75*
G02*
X140930000Y-100800000I0J-250000D01*
G01*
G37*
G36*
G01*
X140930000Y-99440000D02*
X140930000Y-100040000D01*
G75*
G02*
X140680000Y-100290000I-250000J0D01*
G01*
X140080000Y-100290000D01*
G75*
G02*
X139830000Y-100040000I0J250000D01*
G01*
X139830000Y-99440000D01*
G75*
G02*
X140080000Y-99190000I250000J0D01*
G01*
X140680000Y-99190000D01*
G75*
G02*
X140930000Y-99440000I0J-250000D01*
G01*
G37*
G36*
G01*
X140930000Y-98080000D02*
X140930000Y-98680000D01*
G75*
G02*
X140680000Y-98930000I-250000J0D01*
G01*
X140080000Y-98930000D01*
G75*
G02*
X139830000Y-98680000I0J250000D01*
G01*
X139830000Y-98080000D01*
G75*
G02*
X140080000Y-97830000I250000J0D01*
G01*
X140680000Y-97830000D01*
G75*
G02*
X140930000Y-98080000I0J-250000D01*
G01*
G37*
G36*
G01*
X140930000Y-96720000D02*
X140930000Y-97320000D01*
G75*
G02*
X140680000Y-97570000I-250000J0D01*
G01*
X140080000Y-97570000D01*
G75*
G02*
X139830000Y-97320000I0J250000D01*
G01*
X139830000Y-96720000D01*
G75*
G02*
X140080000Y-96470000I250000J0D01*
G01*
X140680000Y-96470000D01*
G75*
G02*
X140930000Y-96720000I0J-250000D01*
G01*
G37*
G36*
G01*
X139570000Y-100800000D02*
X139570000Y-101400000D01*
G75*
G02*
X139320000Y-101650000I-250000J0D01*
G01*
X138720000Y-101650000D01*
G75*
G02*
X138470000Y-101400000I0J250000D01*
G01*
X138470000Y-100800000D01*
G75*
G02*
X138720000Y-100550000I250000J0D01*
G01*
X139320000Y-100550000D01*
G75*
G02*
X139570000Y-100800000I0J-250000D01*
G01*
G37*
G36*
G01*
X139570000Y-99440000D02*
X139570000Y-100040000D01*
G75*
G02*
X139320000Y-100290000I-250000J0D01*
G01*
X138720000Y-100290000D01*
G75*
G02*
X138470000Y-100040000I0J250000D01*
G01*
X138470000Y-99440000D01*
G75*
G02*
X138720000Y-99190000I250000J0D01*
G01*
X139320000Y-99190000D01*
G75*
G02*
X139570000Y-99440000I0J-250000D01*
G01*
G37*
G36*
G01*
X139570000Y-98080000D02*
X139570000Y-98680000D01*
G75*
G02*
X139320000Y-98930000I-250000J0D01*
G01*
X138720000Y-98930000D01*
G75*
G02*
X138470000Y-98680000I0J250000D01*
G01*
X138470000Y-98080000D01*
G75*
G02*
X138720000Y-97830000I250000J0D01*
G01*
X139320000Y-97830000D01*
G75*
G02*
X139570000Y-98080000I0J-250000D01*
G01*
G37*
G36*
G01*
X139570000Y-96720000D02*
X139570000Y-97320000D01*
G75*
G02*
X139320000Y-97570000I-250000J0D01*
G01*
X138720000Y-97570000D01*
G75*
G02*
X138470000Y-97320000I0J250000D01*
G01*
X138470000Y-96720000D01*
G75*
G02*
X138720000Y-96470000I250000J0D01*
G01*
X139320000Y-96470000D01*
G75*
G02*
X139570000Y-96720000I0J-250000D01*
G01*
G37*
G36*
G01*
X138210000Y-100800000D02*
X138210000Y-101400000D01*
G75*
G02*
X137960000Y-101650000I-250000J0D01*
G01*
X137360000Y-101650000D01*
G75*
G02*
X137110000Y-101400000I0J250000D01*
G01*
X137110000Y-100800000D01*
G75*
G02*
X137360000Y-100550000I250000J0D01*
G01*
X137960000Y-100550000D01*
G75*
G02*
X138210000Y-100800000I0J-250000D01*
G01*
G37*
G36*
G01*
X138210000Y-99440000D02*
X138210000Y-100040000D01*
G75*
G02*
X137960000Y-100290000I-250000J0D01*
G01*
X137360000Y-100290000D01*
G75*
G02*
X137110000Y-100040000I0J250000D01*
G01*
X137110000Y-99440000D01*
G75*
G02*
X137360000Y-99190000I250000J0D01*
G01*
X137960000Y-99190000D01*
G75*
G02*
X138210000Y-99440000I0J-250000D01*
G01*
G37*
G36*
G01*
X138210000Y-98080000D02*
X138210000Y-98680000D01*
G75*
G02*
X137960000Y-98930000I-250000J0D01*
G01*
X137360000Y-98930000D01*
G75*
G02*
X137110000Y-98680000I0J250000D01*
G01*
X137110000Y-98080000D01*
G75*
G02*
X137360000Y-97830000I250000J0D01*
G01*
X137960000Y-97830000D01*
G75*
G02*
X138210000Y-98080000I0J-250000D01*
G01*
G37*
G36*
G01*
X138210000Y-96720000D02*
X138210000Y-97320000D01*
G75*
G02*
X137960000Y-97570000I-250000J0D01*
G01*
X137360000Y-97570000D01*
G75*
G02*
X137110000Y-97320000I0J250000D01*
G01*
X137110000Y-96720000D01*
G75*
G02*
X137360000Y-96470000I250000J0D01*
G01*
X137960000Y-96470000D01*
G75*
G02*
X138210000Y-96720000I0J-250000D01*
G01*
G37*
M02*
