G04 #@! TF.GenerationSoftware,KiCad,Pcbnew,(5.1.6)-1*
G04 #@! TF.CreationDate,2020-06-24T13:46:24+02:00*
G04 #@! TF.ProjectId,ST-Node-V0.1,53542d4e-6f64-4652-9d56-302e312e6b69,rev?*
G04 #@! TF.SameCoordinates,Original*
G04 #@! TF.FileFunction,Profile,NP*
%FSLAX46Y46*%
G04 Gerber Fmt 4.6, Leading zero omitted, Abs format (unit mm)*
G04 Created by KiCad (PCBNEW (5.1.6)-1) date 2020-06-24 13:46:24*
%MOMM*%
%LPD*%
G01*
G04 APERTURE LIST*
G04 #@! TA.AperFunction,Profile*
%ADD10C,0.050000*%
G04 #@! TD*
G04 APERTURE END LIST*
D10*
X123500000Y-97000000D02*
G75*
G02*
X124000000Y-97500000I0J-500000D01*
G01*
X124000000Y-98000000D02*
X124000000Y-97500000D01*
X120500000Y-97000000D02*
X123500000Y-97000000D01*
X120500000Y-97000000D02*
G75*
G02*
X120500000Y-96000000I0J500000D01*
G01*
X124500000Y-96000000D02*
X120500000Y-96000000D01*
X124500000Y-96000000D02*
G75*
G02*
X125000000Y-96500000I0J-500000D01*
G01*
X125000000Y-98000000D02*
X125000000Y-96500000D01*
X125000000Y-98000000D02*
G75*
G02*
X124000000Y-98000000I-500000J0D01*
G01*
X125000000Y-101500000D02*
X125000000Y-101750000D01*
X125000000Y-101750000D02*
G75*
G02*
X124500000Y-102250000I-500000J0D01*
G01*
X120500000Y-102250000D02*
X124500000Y-102250000D01*
X120500000Y-102250000D02*
G75*
G02*
X120500000Y-101250000I0J500000D01*
G01*
X124000000Y-100250000D02*
X124000000Y-100750000D01*
X123500000Y-101250000D02*
X120500000Y-101250000D01*
X125000000Y-100250000D02*
X125000000Y-101500000D01*
X124000000Y-100750000D02*
G75*
G02*
X123500000Y-101250000I-500000J0D01*
G01*
X124000000Y-100250000D02*
G75*
G02*
X125000000Y-100250000I500000J0D01*
G01*
X158821895Y-121264484D02*
G75*
G02*
X157469734Y-127848188I-3735912J-2663424D01*
G01*
X157469734Y-127848188D02*
G75*
G02*
X121481318Y-127566190I-17769734J28788188D01*
G01*
X121481317Y-127566191D02*
G75*
G02*
X120743872Y-121092107I2808503J3598951D01*
G01*
X122250200Y-109710220D02*
G75*
G02*
X120743871Y-121092106I-8112868J-4716927D01*
G01*
X122013524Y-70225176D02*
G75*
G02*
X157652459Y-70390021I17686476J-28834824D01*
G01*
X121140739Y-77469550D02*
G75*
G02*
X122013524Y-70225177I3182101J3291390D01*
G01*
X157652460Y-70390021D02*
G75*
G02*
X158536640Y-77137260I-2585460J-3770359D01*
G01*
X157344434Y-88738054D02*
G75*
G02*
X157149800Y-109707680I-17644434J-10321946D01*
G01*
X158820091Y-121265768D02*
G75*
G02*
X157149801Y-109707681I6462789J6833688D01*
G01*
X122250322Y-109710146D02*
G75*
G02*
X122161301Y-88557101I17449678J10650146D01*
G01*
X121142455Y-77468010D02*
G75*
G02*
X122161301Y-88557101I-6937343J-6228741D01*
G01*
X157344214Y-88738182D02*
G75*
G02*
X158536640Y-77137260I7933688J5046263D01*
G01*
X141366666Y-99060000D02*
G75*
G03*
X141366666Y-99060000I-1666666J0D01*
G01*
X137200000Y-99060000D02*
X142200000Y-99060000D01*
X139700000Y-96560000D02*
X139700000Y-101560000D01*
M02*
