M48
; DRILL file {KiCad (5.1.7)-1} date 10/28/20 14:03:02
; FORMAT={-:-/ absolute / metric / decimal}
; #@! TF.CreationDate,2020-10-28T14:03:02+01:00
; #@! TF.GenerationSoftware,Kicad,Pcbnew,(5.1.7)-1
FMAT,2
METRIC
T1C0.400
T2C0.500
T3C2.489
%
G90
G05
T1
X-17.0Y24.775
X-9.85Y23.5
X-2.35Y-12.5
X-0.635Y-25.717
X-0.635Y-29.781
X0.61Y-25.912
X0.635Y-29.718
X7.0Y-16.6
X7.0Y-18.2
X7.0Y-20.0
X12.0Y-12.5
T2
X-17.012Y23.388
X-17.012Y21.888
X-17.012Y20.388
X-13.375Y21.625
X-12.5Y22.5
X-11.5Y23.5
X-10.5Y16.5
X-10.3Y28.1
X-9.8Y-24.1
X-7.0Y-9.0
X-7.0Y-16.0
X-7.0Y-18.0
X-7.0Y-20.0
X-7.0Y-27.3
X-4.35Y-24.1
X-3.9Y28.1
X-3.6Y16.5
X3.6Y16.5
X4.2Y-24.1
X4.3Y28.1
X7.0Y25.5
X7.0Y23.5
X7.0Y22.0
X7.0Y20.5
X7.0Y-9.5
X7.0Y-27.2
X9.7Y28.1
X9.8Y-24.1
X10.3Y16.5
T3
X-7.938Y2.0
X0.0Y7.55
X0.0Y-3.55
X7.938Y2.0
T0
M30
