G04 #@! TF.GenerationSoftware,KiCad,Pcbnew,(5.1.7)-1*
G04 #@! TF.CreationDate,2020-10-28T14:02:59+01:00*
G04 #@! TF.ProjectId,Generic_Node-BatteryHolder,47656e65-7269-4635-9f4e-6f64652d4261,1.0*
G04 #@! TF.SameCoordinates,PX8f0d180PY5f5e100*
G04 #@! TF.FileFunction,Copper,L1,Top*
G04 #@! TF.FilePolarity,Positive*
%FSLAX46Y46*%
G04 Gerber Fmt 4.6, Leading zero omitted, Abs format (unit mm)*
G04 Created by KiCad (PCBNEW (5.1.7)-1) date 2020-10-28 14:02:59*
%MOMM*%
%LPD*%
G01*
G04 APERTURE LIST*
G04 #@! TA.AperFunction,SMDPad,CuDef*
%ADD10R,2.000000X3.800000*%
G04 #@! TD*
G04 #@! TA.AperFunction,ComponentPad*
%ADD11C,3.810000*%
G04 #@! TD*
G04 #@! TA.AperFunction,ViaPad*
%ADD12C,0.800000*%
G04 #@! TD*
G04 #@! TA.AperFunction,Conductor*
%ADD13C,2.000000*%
G04 #@! TD*
G04 #@! TA.AperFunction,Conductor*
%ADD14C,1.500000*%
G04 #@! TD*
G04 #@! TA.AperFunction,Conductor*
%ADD15C,0.800000*%
G04 #@! TD*
G04 #@! TA.AperFunction,Conductor*
%ADD16C,1.000000*%
G04 #@! TD*
G04 APERTURE END LIST*
D10*
X-17000000Y17600000D03*
X-13800000Y17600000D03*
D11*
X0Y7549900D03*
X0Y-3549900D03*
X-7937500Y2000000D03*
X7937500Y2000000D03*
G04 #@! TA.AperFunction,SMDPad,CuDef*
G36*
G01*
X-6331675Y26130000D02*
X-7668325Y26130000D01*
G75*
G02*
X-8168400Y26630075I0J500075D01*
G01*
X-8168400Y29592325D01*
G75*
G02*
X-7668325Y30092400I500075J0D01*
G01*
X-6331675Y30092400D01*
G75*
G02*
X-5831600Y29592325I0J-500075D01*
G01*
X-5831600Y26630075D01*
G75*
G02*
X-6331675Y26130000I-500075J0D01*
G01*
G37*
G04 #@! TD.AperFunction*
G04 #@! TA.AperFunction,SMDPad,CuDef*
G36*
G01*
X-4958960Y14523400D02*
X-9041040Y14523400D01*
G75*
G02*
X-9540000Y15022360I0J498960D01*
G01*
X-9540000Y17984440D01*
G75*
G02*
X-9041040Y18483400I498960J0D01*
G01*
X-4958960Y18483400D01*
G75*
G02*
X-4460000Y17984440I0J-498960D01*
G01*
X-4460000Y15022360D01*
G75*
G02*
X-4958960Y14523400I-498960J0D01*
G01*
G37*
G04 #@! TD.AperFunction*
G04 #@! TA.AperFunction,SMDPad,CuDef*
G36*
G01*
X-6331675Y-26092400D02*
X-7668325Y-26092400D01*
G75*
G02*
X-8168400Y-25592325I0J500075D01*
G01*
X-8168400Y-22630075D01*
G75*
G02*
X-7668325Y-22130000I500075J0D01*
G01*
X-6331675Y-22130000D01*
G75*
G02*
X-5831600Y-22630075I0J-500075D01*
G01*
X-5831600Y-25592325D01*
G75*
G02*
X-6331675Y-26092400I-500075J0D01*
G01*
G37*
G04 #@! TD.AperFunction*
G04 #@! TA.AperFunction,SMDPad,CuDef*
G36*
G01*
X-4958960Y-14483400D02*
X-9041040Y-14483400D01*
G75*
G02*
X-9540000Y-13984440I0J498960D01*
G01*
X-9540000Y-11022360D01*
G75*
G02*
X-9041040Y-10523400I498960J0D01*
G01*
X-4958960Y-10523400D01*
G75*
G02*
X-4460000Y-11022360I0J-498960D01*
G01*
X-4460000Y-13984440D01*
G75*
G02*
X-4958960Y-14483400I-498960J0D01*
G01*
G37*
G04 #@! TD.AperFunction*
G04 #@! TA.AperFunction,SMDPad,CuDef*
G36*
G01*
X9041040Y-14483400D02*
X4958960Y-14483400D01*
G75*
G02*
X4460000Y-13984440I0J498960D01*
G01*
X4460000Y-11022360D01*
G75*
G02*
X4958960Y-10523400I498960J0D01*
G01*
X9041040Y-10523400D01*
G75*
G02*
X9540000Y-11022360I0J-498960D01*
G01*
X9540000Y-13984440D01*
G75*
G02*
X9041040Y-14483400I-498960J0D01*
G01*
G37*
G04 #@! TD.AperFunction*
G04 #@! TA.AperFunction,SMDPad,CuDef*
G36*
G01*
X7668325Y-26092400D02*
X6331675Y-26092400D01*
G75*
G02*
X5831600Y-25592325I0J500075D01*
G01*
X5831600Y-22630075D01*
G75*
G02*
X6331675Y-22130000I500075J0D01*
G01*
X7668325Y-22130000D01*
G75*
G02*
X8168400Y-22630075I0J-500075D01*
G01*
X8168400Y-25592325D01*
G75*
G02*
X7668325Y-26092400I-500075J0D01*
G01*
G37*
G04 #@! TD.AperFunction*
G04 #@! TA.AperFunction,SMDPad,CuDef*
G36*
G01*
X9041040Y14523400D02*
X4958960Y14523400D01*
G75*
G02*
X4460000Y15022360I0J498960D01*
G01*
X4460000Y17984440D01*
G75*
G02*
X4958960Y18483400I498960J0D01*
G01*
X9041040Y18483400D01*
G75*
G02*
X9540000Y17984440I0J-498960D01*
G01*
X9540000Y15022360D01*
G75*
G02*
X9041040Y14523400I-498960J0D01*
G01*
G37*
G04 #@! TD.AperFunction*
G04 #@! TA.AperFunction,SMDPad,CuDef*
G36*
G01*
X7668325Y26130000D02*
X6331675Y26130000D01*
G75*
G02*
X5831600Y26630075I0J500075D01*
G01*
X5831600Y29592325D01*
G75*
G02*
X6331675Y30092400I500075J0D01*
G01*
X7668325Y30092400D01*
G75*
G02*
X8168400Y29592325I0J-500075D01*
G01*
X8168400Y26630075D01*
G75*
G02*
X7668325Y26130000I-500075J0D01*
G01*
G37*
G04 #@! TD.AperFunction*
G04 #@! TA.AperFunction,SMDPad,CuDef*
G36*
G01*
X-1025000Y-28410000D02*
X-1025000Y-27510000D01*
G75*
G02*
X-825000Y-27310000I200000J0D01*
G01*
X-425000Y-27310000D01*
G75*
G02*
X-225000Y-27510000I0J-200000D01*
G01*
X-225000Y-28410000D01*
G75*
G02*
X-425000Y-28610000I-200000J0D01*
G01*
X-825000Y-28610000D01*
G75*
G02*
X-1025000Y-28410000I0J200000D01*
G01*
G37*
G04 #@! TD.AperFunction*
G04 #@! TA.AperFunction,SMDPad,CuDef*
G36*
G01*
X225000Y-28410000D02*
X225000Y-27510000D01*
G75*
G02*
X425000Y-27310000I200000J0D01*
G01*
X825000Y-27310000D01*
G75*
G02*
X1025000Y-27510000I0J-200000D01*
G01*
X1025000Y-28410000D01*
G75*
G02*
X825000Y-28610000I-200000J0D01*
G01*
X425000Y-28610000D01*
G75*
G02*
X225000Y-28410000I0J200000D01*
G01*
G37*
G04 #@! TD.AperFunction*
G04 #@! TA.AperFunction,SMDPad,CuDef*
G36*
G01*
X-4225000Y-31960001D02*
X-4225000Y-29459999D01*
G75*
G02*
X-3975001Y-29210000I249999J0D01*
G01*
X-2374999Y-29210000D01*
G75*
G02*
X-2125000Y-29459999I0J-249999D01*
G01*
X-2125000Y-31960001D01*
G75*
G02*
X-2374999Y-32210000I-249999J0D01*
G01*
X-3975001Y-32210000D01*
G75*
G02*
X-4225000Y-31960001I0J249999D01*
G01*
G37*
G04 #@! TD.AperFunction*
G04 #@! TA.AperFunction,SMDPad,CuDef*
G36*
G01*
X2125000Y-31960001D02*
X2125000Y-29459999D01*
G75*
G02*
X2374999Y-29210000I249999J0D01*
G01*
X3975001Y-29210000D01*
G75*
G02*
X4225000Y-29459999I0J-249999D01*
G01*
X4225000Y-31960001D01*
G75*
G02*
X3975001Y-32210000I-249999J0D01*
G01*
X2374999Y-32210000D01*
G75*
G02*
X2125000Y-31960001I0J249999D01*
G01*
G37*
G04 #@! TD.AperFunction*
D12*
X7000000Y-16600000D03*
X7000000Y-18200000D03*
X7000000Y-20000000D03*
X12000000Y-12500000D03*
X-3600000Y16500000D03*
X-10500000Y16500000D03*
X-3900000Y28100000D03*
X-10300000Y28100000D03*
X9800000Y-24100000D03*
X7000000Y-27200000D03*
X7000000Y-9500000D03*
X4200000Y-24100000D03*
X4300000Y28100000D03*
X9700000Y28100000D03*
X10300000Y16500000D03*
X3600000Y16500000D03*
X7000000Y20500000D03*
X7000000Y22000000D03*
X7000000Y23500000D03*
X7000000Y25500000D03*
X-11500000Y23500000D03*
X-13375000Y21625000D03*
X-12500000Y22500000D03*
X-635000Y-25717500D03*
X-635000Y-29781500D03*
X-9850000Y23500000D03*
X-2350000Y-12500000D03*
X-9800000Y-24100000D03*
X-7000000Y-27300000D03*
X-7000000Y-16000000D03*
X-7000000Y-18000000D03*
X-7000000Y-20000000D03*
X-17012000Y23388000D03*
X-17012000Y21888000D03*
X-17012000Y20388000D03*
X-7000000Y-9000000D03*
X-4350000Y-24100000D03*
X635000Y-29718000D03*
X609608Y-25911818D03*
X-17000000Y24774990D03*
D13*
X7000000Y-24111200D02*
X7000000Y-20000000D01*
X-7000000Y16503400D02*
X-7000000Y20400000D01*
X7000000Y-16600000D02*
X7000000Y-12503400D01*
X7000000Y-18200000D02*
X7000000Y-16600000D01*
X7000000Y-20000000D02*
X7000000Y-18200000D01*
X-7000000Y20400000D02*
X-7000000Y22200000D01*
X-7000000Y22200000D02*
X-7000000Y22500000D01*
X-7000000Y24200000D02*
X-7000000Y28111200D01*
D14*
X7000000Y-12503400D02*
X11996600Y-12503400D01*
X11996600Y-12503400D02*
X12000000Y-12500000D01*
X-7000000Y16503400D02*
X-3603400Y16503400D01*
X-3603400Y16503400D02*
X-3600000Y16500000D01*
X-7000000Y16503400D02*
X-10496600Y16503400D01*
X-10496600Y16503400D02*
X-10500000Y16500000D01*
X-7000000Y28111200D02*
X-3911200Y28111200D01*
X-3911200Y28111200D02*
X-3900000Y28100000D01*
X-7000000Y28111200D02*
X-10288800Y28111200D01*
X-10288800Y28111200D02*
X-10300000Y28100000D01*
X7000000Y-24111200D02*
X9788800Y-24111200D01*
X9788800Y-24111200D02*
X9800000Y-24100000D01*
X7000000Y-24111200D02*
X7000000Y-27200000D01*
D13*
X-7000000Y22500000D02*
X-7000000Y24200000D01*
X-7000000Y16503400D02*
X-3503400Y16503400D01*
X-7000000Y16503400D02*
X-2503400Y16503400D01*
X-2503400Y16503400D02*
X2500000Y11500000D01*
X2500000Y11500000D02*
X14500000Y11500000D01*
X14500000Y11500000D02*
X15500000Y10500000D01*
X15500000Y-9000000D02*
X11996600Y-12503400D01*
X15500000Y10500000D02*
X15500000Y-9000000D01*
X7003400Y-12500000D02*
X7000000Y-12503400D01*
X12000000Y-12500000D02*
X7003400Y-12500000D01*
D14*
X7000000Y-12503400D02*
X7000000Y-9500000D01*
X4211200Y-24111200D02*
X4200000Y-24100000D01*
X7000000Y-24111200D02*
X4211200Y-24111200D01*
D13*
X7000000Y16503400D02*
X7000000Y20500000D01*
D14*
X7000000Y28111200D02*
X4311200Y28111200D01*
X4311200Y28111200D02*
X4300000Y28100000D01*
X7000000Y28111200D02*
X9688800Y28111200D01*
X9688800Y28111200D02*
X9700000Y28100000D01*
X7000000Y16503400D02*
X10296600Y16503400D01*
X10296600Y16503400D02*
X10300000Y16500000D01*
X7000000Y16503400D02*
X3603400Y16503400D01*
X3603400Y16503400D02*
X3600000Y16500000D01*
D13*
X7000000Y20500000D02*
X7000000Y22000000D01*
X7000000Y22000000D02*
X7000000Y23500000D01*
X7000000Y23500000D02*
X7000000Y25500000D01*
X7000000Y25500000D02*
X7000000Y28111200D01*
X-13800000Y21200000D02*
X-13375000Y21625000D01*
X-13800000Y17600000D02*
X-13800000Y21200000D01*
X-13375000Y21625000D02*
X-12500000Y22500000D01*
X-12500000Y22500000D02*
X-11500000Y23500000D01*
D15*
X-625000Y-25727500D02*
X-635000Y-25717500D01*
X-625000Y-27960000D02*
X-625000Y-25727500D01*
X-625000Y-29771500D02*
X-635000Y-29781500D01*
X-625000Y-27960000D02*
X-625000Y-29771500D01*
D13*
X-11500000Y23500000D02*
X-9850000Y23500000D01*
D14*
X-7000000Y-12503400D02*
X-2353400Y-12503400D01*
X-2353400Y-12503400D02*
X-2350000Y-12500000D01*
D13*
X-7000000Y-24111200D02*
X-7000000Y-20000000D01*
D14*
X-7000000Y-24111200D02*
X-9788800Y-24111200D01*
X-9788800Y-24111200D02*
X-9800000Y-24100000D01*
X-7000000Y-24111200D02*
X-7000000Y-27300000D01*
D13*
X-7000000Y-16000000D02*
X-7000000Y-12503400D01*
X-7000000Y-18000000D02*
X-7000000Y-16000000D01*
X-7000000Y-20000000D02*
X-7000000Y-18000000D01*
D14*
X-17000000Y21000000D02*
X-17000000Y22500000D01*
D13*
X-17000000Y24000000D02*
X-17000000Y17600000D01*
D14*
X-7000000Y-12503400D02*
X-7000000Y-9000000D01*
X-4361200Y-24111200D02*
X-4350000Y-24100000D01*
X-7000000Y-24111200D02*
X-4361200Y-24111200D01*
D15*
X625000Y-29708000D02*
X635000Y-29718000D01*
X625000Y-27960000D02*
X625000Y-29708000D01*
X625000Y-25927210D02*
X609608Y-25911818D01*
X625000Y-27960000D02*
X625000Y-25927210D01*
X-222000Y-24111200D02*
X609608Y-24942808D01*
X-4361200Y-24111200D02*
X-222000Y-24111200D01*
D16*
X-233200Y-24100000D02*
X-222000Y-24111200D01*
X-4350000Y-24100000D02*
X-233200Y-24100000D01*
X-233200Y-24100000D02*
X609608Y-24942808D01*
X609608Y-24942808D02*
X609608Y-25911818D01*
D13*
X-17000000Y24000000D02*
X-17000000Y24774990D01*
X-17000000Y24774990D02*
X-17000000Y24774990D01*
M02*
