G04 #@! TF.GenerationSoftware,KiCad,Pcbnew,(5.1.7)-1*
G04 #@! TF.CreationDate,2021-07-05T13:34:59+04:00*
G04 #@! TF.ProjectId,pcb_batteryHolder,7063625f-6261-4747-9465-7279486f6c64,1.0*
G04 #@! TF.SameCoordinates,PX8f0d180PY5f5e100*
G04 #@! TF.FileFunction,Other,Fab,Top*
%FSLAX46Y46*%
G04 Gerber Fmt 4.6, Leading zero omitted, Abs format (unit mm)*
G04 Created by KiCad (PCBNEW (5.1.7)-1) date 2021-07-05 13:34:59*
%MOMM*%
%LPD*%
G01*
G04 APERTURE LIST*
%ADD10C,0.150000*%
%ADD11C,0.120000*%
%ADD12C,0.100000*%
%ADD13C,0.135000*%
G04 APERTURE END LIST*
D10*
X-1738096Y1547620D02*
X-1738096Y2547620D01*
X-1357143Y2547620D01*
X-1261905Y2500000D01*
X-1214286Y2452381D01*
X-1166667Y2357143D01*
X-1166667Y2214286D01*
X-1214286Y2119048D01*
X-1261905Y2071429D01*
X-1357143Y2023810D01*
X-1738096Y2023810D01*
X-738096Y1547620D02*
X-738096Y2547620D01*
X-166667Y1547620D01*
X-166667Y2547620D01*
X738095Y2547620D02*
X547619Y2547620D01*
X452380Y2500000D01*
X404761Y2452381D01*
X309523Y2309524D01*
X261904Y2119048D01*
X261904Y1738096D01*
X309523Y1642858D01*
X357142Y1595239D01*
X452380Y1547620D01*
X642857Y1547620D01*
X738095Y1595239D01*
X785714Y1642858D01*
X833333Y1738096D01*
X833333Y1976191D01*
X785714Y2071429D01*
X738095Y2119048D01*
X642857Y2166667D01*
X452380Y2166667D01*
X357142Y2119048D01*
X309523Y2071429D01*
X261904Y1976191D01*
X1309523Y1547620D02*
X1500000Y1547620D01*
X1595238Y1595239D01*
X1642857Y1642858D01*
X1738095Y1785715D01*
X1785714Y1976191D01*
X1785714Y2357143D01*
X1738095Y2452381D01*
X1690476Y2500000D01*
X1595238Y2547620D01*
X1404761Y2547620D01*
X1309523Y2500000D01*
X1261904Y2452381D01*
X1214285Y2357143D01*
X1214285Y2119048D01*
X1261904Y2023810D01*
X1309523Y1976191D01*
X1404761Y1928572D01*
X1595238Y1928572D01*
X1690476Y1976191D01*
X1738095Y2023810D01*
X1785714Y2119048D01*
X12850001Y-16000000D02*
X12350001Y-16000000D01*
X12850001Y-15500000D02*
X12850001Y-16000000D01*
X13850001Y-15350000D02*
X12850001Y-15350000D01*
X13850001Y-16000000D02*
X13850001Y-15500000D01*
X14350001Y-16000000D02*
X13850001Y-16000000D01*
X14350001Y-18500000D02*
X14350001Y-16000000D01*
X13850001Y-18500000D02*
X14350001Y-18500000D01*
X13850001Y-19000000D02*
X13850001Y-18500000D01*
X12850001Y-19150000D02*
X13850001Y-19150000D01*
X12850001Y-18500000D02*
X12850001Y-19000000D01*
X12350001Y-18500000D02*
X12850001Y-18500000D01*
X12350001Y-16000000D02*
X12350001Y-18500000D01*
X13850001Y-15350000D02*
X13850001Y-19150000D01*
X12850001Y-19150000D02*
X12850001Y-15350000D01*
X12350001Y-17250000D02*
X12850001Y-17250000D01*
X13850001Y-17250000D02*
X14350001Y-17250000D01*
X17300000Y-18550000D02*
X17800000Y-18550000D01*
X17300000Y-19050000D02*
X17300000Y-18550000D01*
X16300000Y-19200000D02*
X17300000Y-19200000D01*
X16300000Y-18550000D02*
X16300000Y-19050000D01*
X15800000Y-18550000D02*
X16300000Y-18550000D01*
X15800000Y-16050000D02*
X15800000Y-18550000D01*
X16300000Y-16050000D02*
X15800000Y-16050000D01*
X16300000Y-15550000D02*
X16300000Y-16050000D01*
X17300000Y-15400000D02*
X16300000Y-15400000D01*
X17300000Y-16050000D02*
X17300000Y-15550000D01*
X17800000Y-16050000D02*
X17300000Y-16050000D01*
X17800000Y-18550000D02*
X17800000Y-16050000D01*
X16300000Y-19200000D02*
X16300000Y-15400000D01*
X17300000Y-15400000D02*
X17300000Y-19200000D01*
X17800000Y-17300000D02*
X17300000Y-17300000D01*
X16300000Y-17300000D02*
X15800000Y-17300000D01*
D11*
X-12598400Y-5823200D02*
X13868400Y-5823200D01*
X-12598400Y9823200D02*
X-12598400Y-5823200D01*
X13868400Y9823200D02*
X-12598400Y9823200D01*
X13868400Y-5823200D02*
X13868400Y9823200D01*
X-10000000Y14000000D02*
X-4000000Y14000000D01*
X-4000000Y14000000D02*
X-4000000Y30500000D01*
X-4000000Y30500000D02*
X-10000000Y30500000D01*
X-10000000Y30500000D02*
X-10000000Y14000000D01*
X-10000000Y-10000000D02*
X-4500000Y-10000000D01*
X-4500000Y-10000000D02*
X-4000000Y-10000000D01*
X-4000000Y-10000000D02*
X-4000000Y-26500000D01*
X-4000000Y-26500000D02*
X-10000000Y-26500000D01*
X-10000000Y-26500000D02*
X-10000000Y-10000000D01*
X4000000Y-26500000D02*
X4000000Y-10000000D01*
X10000000Y-26500000D02*
X4000000Y-26500000D01*
X10000000Y-10000000D02*
X10000000Y-26500000D01*
X9500000Y-10000000D02*
X10000000Y-10000000D01*
X4000000Y-10000000D02*
X9500000Y-10000000D01*
X4000000Y30500000D02*
X4000000Y14000000D01*
X10000000Y30500000D02*
X4000000Y30500000D01*
X10000000Y14000000D02*
X10000000Y30500000D01*
X4000000Y14000000D02*
X10000000Y14000000D01*
D12*
X-625000Y-28817107D02*
X-125000Y-28110000D01*
X-1125000Y-28110000D02*
X-625000Y-28817107D01*
X3625000Y-29010000D02*
X2125000Y-29010000D01*
X3625000Y-29610000D02*
X3625000Y-29010000D01*
X3825000Y-29810000D02*
X3625000Y-29610000D01*
X3825000Y-31610000D02*
X3825000Y-29810000D01*
X3625000Y-31810000D02*
X3825000Y-31610000D01*
X2125000Y-31810000D02*
X3625000Y-31810000D01*
X-3625000Y-29010000D02*
X-2125000Y-29010000D01*
X-3625000Y-29610000D02*
X-3625000Y-29010000D01*
X-3825000Y-29810000D02*
X-3625000Y-29610000D01*
X-3825000Y-31610000D02*
X-3825000Y-29810000D01*
X-3625000Y-31810000D02*
X-3825000Y-31610000D01*
X-2125000Y-31810000D02*
X-3625000Y-31810000D01*
X775000Y-30435000D02*
X475000Y-30435000D01*
X775000Y-31035000D02*
X775000Y-30435000D01*
X475000Y-31035000D02*
X775000Y-31035000D01*
X475000Y-30435000D02*
X475000Y-31035000D01*
X-475000Y-30435000D02*
X-775000Y-30435000D01*
X-475000Y-31035000D02*
X-475000Y-30435000D01*
X-775000Y-31035000D02*
X-475000Y-31035000D01*
X-775000Y-30435000D02*
X-775000Y-31035000D01*
X2125000Y-28110000D02*
X2125000Y-31810000D01*
X-2125000Y-28110000D02*
X-2125000Y-31810000D01*
X-2125000Y-31810000D02*
X2125000Y-31810000D01*
X-2125000Y-28110000D02*
X2125000Y-28110000D01*
D13*
X12957143Y-17650000D02*
X13600001Y-17650000D01*
X13728572Y-17692857D01*
X13814286Y-17778571D01*
X13857143Y-17907142D01*
X13857143Y-17992857D01*
X13857143Y-16750000D02*
X13857143Y-17264285D01*
X13857143Y-17007142D02*
X12957143Y-17007142D01*
X13085715Y-17092857D01*
X13171429Y-17178571D01*
X13214286Y-17264285D01*
X16307142Y-17600000D02*
X16950000Y-17600000D01*
X17078571Y-17642857D01*
X17164285Y-17728571D01*
X17207142Y-17857142D01*
X17207142Y-17942857D01*
X16392857Y-17214285D02*
X16350000Y-17171428D01*
X16307142Y-17085714D01*
X16307142Y-16871428D01*
X16350000Y-16785714D01*
X16392857Y-16742857D01*
X16478571Y-16700000D01*
X16564285Y-16700000D01*
X16692857Y-16742857D01*
X17207142Y-17257142D01*
X17207142Y-16700000D01*
D10*
X-7552381Y24038096D02*
X-6552381Y24038096D01*
X-6552381Y23657143D01*
X-6600000Y23561905D01*
X-6647620Y23514286D01*
X-6742858Y23466667D01*
X-6885715Y23466667D01*
X-6980953Y23514286D01*
X-7028572Y23561905D01*
X-7076191Y23657143D01*
X-7076191Y24038096D01*
X-7552381Y23038096D02*
X-6552381Y23038096D01*
X-7552381Y22466667D01*
X-6552381Y22466667D01*
X-6552381Y21514286D02*
X-6552381Y21990477D01*
X-7028572Y22038096D01*
X-6980953Y21990477D01*
X-6933334Y21895239D01*
X-6933334Y21657143D01*
X-6980953Y21561905D01*
X-7028572Y21514286D01*
X-7123810Y21466667D01*
X-7361905Y21466667D01*
X-7457143Y21514286D01*
X-7504762Y21561905D01*
X-7552381Y21657143D01*
X-7552381Y21895239D01*
X-7504762Y21990477D01*
X-7457143Y22038096D01*
X-6552381Y21133334D02*
X-6552381Y20466667D01*
X-7552381Y20895239D01*
X-6647620Y-20188095D02*
X-7647620Y-20188095D01*
X-7647620Y-19807142D01*
X-7600000Y-19711904D01*
X-7552381Y-19664285D01*
X-7457143Y-19616666D01*
X-7314286Y-19616666D01*
X-7219048Y-19664285D01*
X-7171429Y-19711904D01*
X-7123810Y-19807142D01*
X-7123810Y-20188095D01*
X-6647620Y-19188095D02*
X-7647620Y-19188095D01*
X-6647620Y-18616666D01*
X-7647620Y-18616666D01*
X-7647620Y-17664285D02*
X-7647620Y-18140476D01*
X-7171429Y-18188095D01*
X-7219048Y-18140476D01*
X-7266667Y-18045238D01*
X-7266667Y-17807142D01*
X-7219048Y-17711904D01*
X-7171429Y-17664285D01*
X-7076191Y-17616666D01*
X-6838096Y-17616666D01*
X-6742858Y-17664285D01*
X-6695239Y-17711904D01*
X-6647620Y-17807142D01*
X-6647620Y-18045238D01*
X-6695239Y-18140476D01*
X-6742858Y-18188095D01*
X-7647620Y-17283333D02*
X-7647620Y-16616666D01*
X-6647620Y-17045238D01*
X7352380Y-20188095D02*
X6352380Y-20188095D01*
X6352380Y-19807142D01*
X6400000Y-19711904D01*
X6447619Y-19664285D01*
X6542857Y-19616666D01*
X6685714Y-19616666D01*
X6780952Y-19664285D01*
X6828571Y-19711904D01*
X6876190Y-19807142D01*
X6876190Y-20188095D01*
X7352380Y-19188095D02*
X6352380Y-19188095D01*
X7352380Y-18616666D01*
X6352380Y-18616666D01*
X6352380Y-17664285D02*
X6352380Y-18140476D01*
X6828571Y-18188095D01*
X6780952Y-18140476D01*
X6733333Y-18045238D01*
X6733333Y-17807142D01*
X6780952Y-17711904D01*
X6828571Y-17664285D01*
X6923809Y-17616666D01*
X7161904Y-17616666D01*
X7257142Y-17664285D01*
X7304761Y-17711904D01*
X7352380Y-17807142D01*
X7352380Y-18045238D01*
X7304761Y-18140476D01*
X7257142Y-18188095D01*
X6352380Y-17283333D02*
X6352380Y-16616666D01*
X7352380Y-17045238D01*
X6447619Y24038096D02*
X7447619Y24038096D01*
X7447619Y23657143D01*
X7400000Y23561905D01*
X7352380Y23514286D01*
X7257142Y23466667D01*
X7114285Y23466667D01*
X7019047Y23514286D01*
X6971428Y23561905D01*
X6923809Y23657143D01*
X6923809Y24038096D01*
X6447619Y23038096D02*
X7447619Y23038096D01*
X6447619Y22466667D01*
X7447619Y22466667D01*
X7447619Y21514286D02*
X7447619Y21990477D01*
X6971428Y22038096D01*
X7019047Y21990477D01*
X7066666Y21895239D01*
X7066666Y21657143D01*
X7019047Y21561905D01*
X6971428Y21514286D01*
X6876190Y21466667D01*
X6638095Y21466667D01*
X6542857Y21514286D01*
X6495238Y21561905D01*
X6447619Y21657143D01*
X6447619Y21895239D01*
X6495238Y21990477D01*
X6542857Y22038096D01*
X7447619Y21133334D02*
X7447619Y20466667D01*
X6447619Y20895239D01*
X-333334Y-29062380D02*
X-333334Y-29776666D01*
X-380953Y-29919523D01*
X-476191Y-30014761D01*
X-619048Y-30062380D01*
X-714286Y-30062380D01*
X47619Y-29062380D02*
X666666Y-29062380D01*
X333333Y-29443333D01*
X476190Y-29443333D01*
X571428Y-29490952D01*
X619047Y-29538571D01*
X666666Y-29633809D01*
X666666Y-29871904D01*
X619047Y-29967142D01*
X571428Y-30014761D01*
X476190Y-30062380D01*
X190476Y-30062380D01*
X95238Y-30014761D01*
X47619Y-29967142D01*
M02*
