G04 #@! TF.GenerationSoftware,KiCad,Pcbnew,(5.1.7)-1*
G04 #@! TF.CreationDate,2021-07-05T13:34:59+04:00*
G04 #@! TF.ProjectId,pcb_batteryHolder,7063625f-6261-4747-9465-7279486f6c64,1.0*
G04 #@! TF.SameCoordinates,PX8f0d180PY5f5e100*
G04 #@! TF.FileFunction,Profile,NP*
%FSLAX46Y46*%
G04 Gerber Fmt 4.6, Leading zero omitted, Abs format (unit mm)*
G04 Created by KiCad (PCBNEW (5.1.7)-1) date 2021-07-05 13:34:59*
%MOMM*%
%LPD*%
G01*
G04 APERTURE LIST*
G04 #@! TA.AperFunction,Profile*
%ADD10C,0.050000*%
G04 #@! TD*
G04 APERTURE END LIST*
D10*
X-18500000Y15750000D02*
X-18500000Y25750000D01*
X-16000000Y26000000D02*
X-18250000Y26000000D01*
X-18500000Y25750000D02*
G75*
G02*
X-18250000Y26000000I250000J0D01*
G01*
X-16000000Y26000000D02*
G75*
G02*
X-15750000Y25750000I0J-250000D01*
G01*
X18250000Y26000000D02*
X16000000Y26000000D01*
X18250000Y26000000D02*
G75*
G02*
X18500000Y25750000I0J-250000D01*
G01*
X15750000Y25750000D02*
G75*
G02*
X16000000Y26000000I250000J0D01*
G01*
X18250000Y-26000000D02*
X16000000Y-26000000D01*
X16000000Y-26000000D02*
G75*
G02*
X15750000Y-25750000I0J250000D01*
G01*
X18500000Y-25750000D02*
G75*
G02*
X18250000Y-26000000I-250000J0D01*
G01*
X-16000000Y-26000000D02*
X-18250000Y-26000000D01*
X-18250000Y-26000000D02*
G75*
G02*
X-18500000Y-25750000I0J250000D01*
G01*
X-15750000Y-25750000D02*
G75*
G02*
X-16000000Y-26000000I-250000J0D01*
G01*
X-15750000Y25750000D02*
X-15750000Y24000000D01*
X-14250000Y24000000D02*
G75*
G02*
X-15750000Y24000000I-750000J0D01*
G01*
X15750000Y-25750000D02*
X15750000Y-24000000D01*
X14250000Y-24000000D02*
G75*
G02*
X15750000Y-24000000I750000J0D01*
G01*
X15750000Y24000000D02*
G75*
G02*
X14250000Y24000000I-750000J0D01*
G01*
X15750000Y25750000D02*
X15750000Y24000000D01*
X-15750000Y-25750000D02*
X-15750000Y-24000000D01*
X-15750000Y-24000000D02*
G75*
G02*
X-14250000Y-24000000I750000J0D01*
G01*
X14250000Y26000000D02*
X14250000Y24000000D01*
X14250000Y26000000D02*
G75*
G02*
X12000000Y28250000I0J2250000D01*
G01*
X12000000Y31750000D02*
X12000000Y28250000D01*
X11500000Y32250000D02*
G75*
G02*
X12000000Y31750000I0J-500000D01*
G01*
X-12000000Y31750000D02*
G75*
G02*
X-11500000Y32250000I500000J0D01*
G01*
X-12000000Y28250000D02*
G75*
G02*
X-14250000Y26000000I-2250000J0D01*
G01*
X-14250000Y26000000D02*
X-14250000Y24000000D01*
X-12000000Y31750000D02*
X-12000000Y28250000D01*
X14250000Y-26000000D02*
X14250000Y-24000000D01*
X12000000Y-28250000D02*
G75*
G02*
X14250000Y-26000000I2250000J0D01*
G01*
X12000000Y-31750000D02*
X12000000Y-28250000D01*
X12000000Y-31750000D02*
G75*
G02*
X11500000Y-32250000I-500000J0D01*
G01*
X-14250000Y-26000000D02*
X-14250000Y-24000000D01*
X-14250000Y-26000000D02*
G75*
G02*
X-12000000Y-28250000I0J-2250000D01*
G01*
X-12000000Y-31750000D02*
X-12000000Y-28250000D01*
X-11500000Y-32250000D02*
G75*
G02*
X-12000000Y-31750000I0J500000D01*
G01*
X18500000Y25750000D02*
X18500000Y-25750000D01*
X-18500000Y-25750000D02*
X-18500000Y15750000D01*
X0Y-32250000D02*
X-11500000Y-32250000D01*
X0Y-32250000D02*
X11500000Y-32250000D01*
X0Y32250000D02*
X-11500000Y32250000D01*
X0Y32250000D02*
X11500000Y32250000D01*
M02*
